<svg aria-hidden="true" focusable="false" aria-label="Graphic: Geometric shapes circular arrangement" class="blankSpace" viewBox="0 0 151 164" fill="none"><path d="M142.547 84.398c-.022.34-.046.678-.073 1.017l.255.02a64.273 64.273 0 0 1-.19 2.027l-.254-.028a70.005 70.005 0 0 1-.25 2.018l.254.035a69.611 69.611 0 0 1-.311 2.011l-.252-.043c-.114.67-.238 1.337-.371 2l.251.05a65.413 65.413 0 0 1-.432 1.99l-.249-.057c-.154.66-.317 1.317-.49 1.97l.247.065a67.258 67.258 0 0 1-.552 1.963l-.246-.073c-.193.65-.396 1.295-.608 1.935l.243.081a67.397 67.397 0 0 1-.671 1.926l-.24-.088a67.402 67.402 0 0 1-.726 1.896l.238.095a67.637 67.637 0 0 1-.786 1.88l-.234-.103a68.736 68.736 0 0 1-.841 1.85l.232.109a68.853 68.853 0 0 1-.899 1.829l-.228-.117a65.33 65.33 0 0 1-.951 1.795l.225.123a68.565 68.565 0 0 1-1.009 1.772l-.22-.13c-.344.583-.697 1.16-1.057 1.732l.216.137a69.399 69.399 0 0 1-1.114 1.707l-.213-.143a64.258 64.258 0 0 1-1.16 1.666l.208.15a69.217 69.217 0 0 1-1.215 1.636l-.203-.156a69.363 69.363 0 0 1-1.259 1.594l.198.161a65.12 65.12 0 0 1-1.311 1.56l-.193-.167a69.524 69.524 0 0 1-1.353 1.514l.188.174c-.46.5-.927.993-1.402 1.478l-.183-.178c-.474.484-.954.96-1.441 1.43l.177.184c-.489.472-.985.936-1.489 1.392l-.172-.189c-.501.454-1.009.902-1.524 1.341l.166.195c-.516.441-1.04.874-1.57 1.3l-.16-.2c-.527.424-1.062.84-1.602 1.248l.154.204c-.542.409-1.09.81-1.645 1.203l-.148-.209c-.552.392-1.11.775-1.674 1.15l.142.213c-.566.376-1.137.743-1.714 1.102l-.135-.217c-.575.357-1.155.706-1.741 1.046l.129.221a67.27 67.27 0 0 1-1.778.997l-.122-.225a63.88 63.88 0 0 1-1.8.939l.115.229c-.606.305-1.218.601-1.835.888l-.108-.232c-.613.285-1.23.562-1.853.829l.101.235c-.624.267-1.252.526-1.885.775l-.094-.238c-.629.247-1.263.486-1.9.715l.086.241c-.638.229-1.281.448-1.928.659l-.079-.244c-.643.209-1.29.409-1.942.599l.072.245c-.65.19-1.305.37-1.964.541l-.064-.248c-.654.169-1.312.329-1.973.479l.057.249c-.662.15-1.328.291-1.996.421l-.05-.251c-.661.129-1.327.248-1.996.357l.042.253a67.12 67.12 0 0 1-2.018.298l-.034-.254c-.669.089-1.34.168-2.015.236l.026.255a67.93 67.93 0 0 1-2.03.175l-.019-.255c-.674.048-1.35.086-2.03.113l.011.256c-.676.028-1.354.045-2.034.053l-.003-.256c-.676.007-1.353.004-2.033-.009l-.005.256a69.586 69.586 0 0 1-2.035-.069l.013-.256a70.094 70.094 0 0 1-2.035-.13l-.02.255a67.425 67.425 0 0 1-2.028-.189l.028-.255a66.644 66.644 0 0 1-2.017-.25l-.036.254a69.551 69.551 0 0 1-2.01-.311l.042-.252a68.846 68.846 0 0 1-1.999-.371l-.05.251a65.354 65.354 0 0 1-1.991-.432l.058-.249a67.396 67.396 0 0 1-1.97-.49l-.065.247a67.346 67.346 0 0 1-1.964-.552l.073-.246a66.14 66.14 0 0 1-1.935-.608l-.08.243a66.037 66.037 0 0 1-1.926-.671l.088-.24a68.011 68.011 0 0 1-1.897-.726l-.095.238a67.593 67.593 0 0 1-1.879-.786l.102-.234a66.525 66.525 0 0 1-1.85-.841l-.109.232a69.271 69.271 0 0 1-1.828-.899l.116-.228a65.29 65.29 0 0 1-1.794-.951l-.124.225a67.87 67.87 0 0 1-1.771-1.009l.13-.22a69.317 69.317 0 0 1-1.732-1.057l-.137.216a69.062 69.062 0 0 1-1.708-1.114l.143-.212a67.795 67.795 0 0 1-1.666-1.161l-.149.208a67.419 67.419 0 0 1-1.636-1.215l.155-.203a68.9 68.9 0 0 1-1.593-1.259l-.162.198a65.726 65.726 0 0 1-1.56-1.311l.168-.193a69.55 69.55 0 0 1-1.515-1.353l-.173.189c-.5-.461-.993-.928-1.479-1.403l.179-.183a67.95 67.95 0 0 1-1.43-1.441l-.185.177a65.549 65.549 0 0 1-1.392-1.489l.19-.172a66.51 66.51 0 0 1-1.341-1.524l-.195.166a66.13 66.13 0 0 1-1.3-1.57l.2-.16a64.99 64.99 0 0 1-1.248-1.602l-.204.155c-.41-.543-.81-1.091-1.204-1.646l.209-.148a67.382 67.382 0 0 1-1.149-1.674l-.213.142a68.65 68.65 0 0 1-1.102-1.714l.217-.135a67.681 67.681 0 0 1-1.047-1.741l-.22.129a67.38 67.38 0 0 1-.998-1.778l.225-.122a64.684 64.684 0 0 1-.939-1.8l-.229.115a65.71 65.71 0 0 1-.888-1.835l.232-.108a66.649 66.649 0 0 1-.828-1.853l-.235.101a67.446 67.446 0 0 1-.775-1.885l.238-.094a66.457 66.457 0 0 1-.715-1.9l-.241.086a66.248 66.248 0 0 1-.66-1.928l.244-.079a66.661 66.661 0 0 1-.598-1.941l-.246.071c-.19-.65-.37-1.305-.54-1.964l.248-.064a66.417 66.417 0 0 1-.48-1.973l-.249.057c-.15-.662-.29-1.327-.42-1.996l.25-.049a66.742 66.742 0 0 1-.357-1.997l-.252.042a67.09 67.09 0 0 1-.299-2.018l.254-.034a66.917 66.917 0 0 1-.236-2.015l-.254.026a67.37 67.37 0 0 1-.175-2.03l.255-.019a67.298 67.298 0 0 1-.114-2.03l-.256.011a67.804 67.804 0 0 1-.052-2.034l.256-.003a67.89 67.89 0 0 1 .008-2.033l-.256-.005a68.52 68.52 0 0 1 .07-2.035l.255.013a68.578 68.578 0 0 1 .13-2.035l-.255-.02c.053-.679.117-1.355.19-2.027l.254.027a67.85 67.85 0 0 1 .25-2.017l-.253-.035c.094-.674.197-1.345.31-2.012l.253.043c.114-.67.237-1.336.37-1.999l-.25-.05c.134-.668.278-1.331.431-1.991l.25.058c.154-.66.317-1.317.49-1.97l-.248-.065c.175-.659.36-1.313.553-1.964l.245.073c.193-.649.396-1.294.608-1.935l-.243-.08c.215-.647.438-1.289.671-1.926l.24.088a66.77 66.77 0 0 1 .726-1.896l-.237-.096a66.98 66.98 0 0 1 .785-1.879l.235.102c.271-.621.551-1.238.84-1.85l-.231-.109c.29-.615.59-1.224.899-1.828l.227.116c.309-.604.626-1.202.951-1.794l-.224-.123c.327-.597.664-1.187 1.008-1.772l.22.13a67.01 67.01 0 0 1 1.058-1.732l-.216-.137c.363-.575.734-1.145 1.114-1.708l.212.144c.379-.562.765-1.117 1.16-1.667l-.207-.149c.396-.552.801-1.097 1.214-1.636l.203.156c.412-.538.832-1.07 1.26-1.594l-.199-.162c.43-.526.867-1.047 1.311-1.56l.194.168a67 67 0 0 1 1.352-1.515l-.188-.173c.46-.5.928-.993 1.403-1.479l.183.18c.473-.485.953-.962 1.44-1.431l-.177-.185c.49-.471.986-.935 1.49-1.392l.171.19a67.82 67.82 0 0 1 1.524-1.341l-.166-.195c.517-.441 1.04-.875 1.57-1.3l.16.2c.528-.424 1.062-.84 1.602-1.248l-.154-.204c.542-.41 1.09-.81 1.645-1.204l.148.21c.552-.392 1.11-.775 1.674-1.15l-.141-.213a67.748 67.748 0 0 1 1.714-1.102l.135.217a67.036 67.036 0 0 1 1.74-1.046l-.128-.222a67.66 67.66 0 0 1 1.777-.997l.122.226a67.165 67.165 0 0 1 1.8-.94l-.115-.228a66.98 66.98 0 0 1 1.836-.889l.108.232c.612-.285 1.23-.56 1.852-.828l-.1-.235a66.915 66.915 0 0 1 1.885-.775l.093.238c.63-.248 1.263-.486 1.9-.715l-.086-.241c.639-.23 1.282-.449 1.928-.659l.08.243c.642-.209 1.29-.408 1.94-.598l-.07-.246c.65-.19 1.305-.37 1.963-.54l.064.248c.654-.17 1.312-.33 1.973-.48l-.056-.249a66.68 66.68 0 0 1 1.996-.42l.048.251a66.838 66.838 0 0 1 1.997-.357l-.041-.253c.67-.11 1.342-.21 2.018-.299l.033.254a66.917 66.917 0 0 1 2.016-.236l-.026-.254a67.3 67.3 0 0 1 2.03-.175l.018.255c.674-.048 1.35-.086 2.03-.114l-.01-.255a67.638 67.638 0 0 1 2.034-.053l.002.256a67.922 67.922 0 0 1 2.033.008l.005-.255c.677.012 1.355.036 2.035.069l-.012.256a68.713 68.713 0 0 1 2.034.13l.02-.256c.68.054 1.355.117 2.028.19l-.028.255c.676.073 1.349.156 2.018.25l.035-.254a68.25 68.25 0 0 1 2.011.31l-.043.253c.67.114 1.336.237 2 .37l.05-.25c.667.134 1.331.278 1.99.432l-.057.249c.66.154 1.317.317 1.97.49l.065-.248c.658.175 1.313.36 1.963.553l-.073.245c.65.194 1.294.396 1.935.608l.08-.242c.647.214 1.29.437 1.927.67l-.088.24c.637.233 1.269.475 1.896.726l.095-.237c.632.252 1.258.514 1.879.785l-.102.235c.622.271 1.239.551 1.85.84l.109-.231c.615.29 1.225.59 1.829.899l-.117.227a67.01 67.01 0 0 1 1.795.951l.123-.224c.596.327 1.187.664 1.771 1.008l-.13.22a66.71 66.71 0 0 1 1.733 1.058l.136-.216c.576.363 1.145.734 1.708 1.114l-.143.212c.562.379 1.117.766 1.666 1.16l.149-.207c.552.397 1.098.802 1.637 1.214l-.156.204c.538.412 1.069.831 1.593 1.259l.162-.199c.527.43 1.047.867 1.56 1.311l-.167.194c.511.443 1.016.894 1.514 1.352l.174-.188c.5.46.993.928 1.478 1.403l-.179.183c.485.473.961.953 1.431 1.44l.184-.177c.472.49.936.986 1.392 1.49l-.189.171c.454.502.901 1.01 1.341 1.524l.195-.166c.441.517.874 1.04 1.3 1.57l-.2.16c.424.528.84 1.062 1.247 1.602l.205-.154c.409.542.81 1.09 1.203 1.645l-.209.148c.392.552.775 1.11 1.149 1.674l.214-.141c.375.565.743 1.137 1.102 1.714l-.218.135c.358.575.707 1.155 1.047 1.74l.221-.128c.341.587.674 1.18.997 1.777l-.225.122c.322.595.635 1.195.939 1.8l.229-.115c.305.607.601 1.219.888 1.836l-.232.108c.285.612.561 1.23.828 1.852l.236-.1c.267.623.526 1.252.775 1.885l-.238.093c.247.63.486 1.263.715 1.901l.241-.087c.229.639.448 1.282.659 1.928l-.244.08c.209.643.409 1.29.599 1.941l.245-.072c.19.651.37 1.306.541 1.964l-.248.065c.169.653.329 1.311.479 1.973l.249-.057c.15.662.29 1.327.421 1.996l-.251.049c.129.662.248 1.328.357 1.996l.253-.041c.109.67.209 1.342.298 2.018l-.254.033c.089.67.167 1.341.236 2.016l.255-.026c.068.674.127 1.35.175 2.03l-.255.018c.048.674.085 1.351.113 2.03l.256-.01c.028.675.045 1.353.052 2.034l-.255.003c.007.675.004 1.353-.009 2.032l.256.005a69.586 69.586 0 0 1-.069 2.035l-.256-.012a87.84 87.84 0 0 1-.057 1.018Z" stroke="var(--dt-color-surface-contrast)" stroke-width=".51" stroke-dasharray="2.05 2.05" id="ellips_05"/><circle cx="83" cy="86.49" r="7.06" fill="url(#paint0_linear_1103_139)" id="ellips_05"/><path d="M21.178 115.53a4.566 4.566 0 1 1 .964 9.081 4.566 4.566 0 0 1-.963-9.081Z" fill="url(#paint1_linear_1103_139)" id="ellips_05"/><path d="M84.713 15.913a4.351 4.351 0 1 1-6.828-5.397 4.351 4.351 0 0 1 6.828 5.397Z" fill="url(#paint2_linear_1103_139)" id="ellips_05"/><circle cx="24.07" cy="83.41" r="3.9" fill="var(--dt-color-surface-contrast)" id="ellips_05"/><circle cx="99.64" cy="67.42" r="3.9" fill="var(--dt-color-surface-contrast)" id="ellips_05"/><circle cx="55.85" cy="128.3" r="2.21" stroke="var(--dt-color-surface-contrast)" stroke-width=".51" id="ellips_05"/><circle cx="130.41" cy="74.86" r="2.21" stroke="var(--dt-color-surface-contrast)" stroke-width=".51" id="ellips_05"/><circle cx="36.09" cy="67.75" r="2.21" stroke="var(--dt-color-surface-contrast)" stroke-width=".51" id="ellips_05"/><path d="m117.37 27.068 8.978.573-.573 8.977-8.978-.573.573-8.977Z" fill="var(--dt-color-surface-contrast)" id="ellips_05"/><path d="m110.243 86.668 4.205-3.7 3.701 4.205-4.206 3.7-3.7-4.205Z" stroke="var(--dt-color-surface-contrast)" stroke-width=".51" id="ellips_05"/><path d="m65.072 146.766 8.371-7.367 7.367 8.371-8.371 7.367-7.367-8.371Z" fill="var(--dt-color-surface-contrast)" id="ellips_05"/><path d="m56.07 63.72-.995 15.58m-7.295-8.285 15.58.994m-12.948-6.36L60.728 77.37m-11.02-.703 11.724-10.317" stroke="var(--dt-color-surface-contrast)" stroke-width="1.16" stroke-miterlimit="10" id="ellips_05"/><path d="m48.102 110.331-.568 8.902m-4.168-4.734 8.902.568m-7.399-3.635 5.896 6.699m-6.297-.402 6.698-5.895" stroke="var(--dt-color-surface-contrast)" stroke-width=".66" stroke-miterlimit="10" id="ellips_05"/><path d="m35.746 21.45-.568 8.903m-4.168-4.735 8.902.569m-7.399-3.635 5.896 6.699m-6.297-.402 6.698-5.895" stroke="var(--dt-color-surface-contrast)" stroke-width=".66" stroke-miterlimit="10" id="ellips_05"/><path d="m124.279 118.469-.994 15.579m-7.295-8.284 15.579.994m-12.948-6.361 10.317 11.723m-11.02-.703 11.723-10.317" stroke="var(--dt-color-surface-contrast)" stroke-width="1.16" stroke-miterlimit="10" id="ellips_05"/><defs><linearGradient id="paint0_linear_1103_139" x1="81.04" y1="81" x2="84.34" y2="95.04" gradientUnits="userSpaceOnUse"><stop stop-color="#7C52FF"/><stop offset=".52" stop-color="#F9008E"/><stop offset="1" stop-color="#F6AB3C"/></linearGradient><linearGradient id="paint1_linear_1103_139" x1="18.26" y1="121.71" x2="27.07" y2="118.63" gradientUnits="userSpaceOnUse"><stop stop-color="#7C52FF"/><stop offset=".52" stop-color="#F9008E"/><stop offset="1" stop-color="#F6AB3C"/></linearGradient><linearGradient id="paint2_linear_1103_139" x1="82.45" y1="9.81" x2="78.68" y2="17.86" gradientUnits="userSpaceOnUse"><stop stop-color="#7C52FF"/><stop offset=".52" stop-color="#F9008E"/><stop offset="1" stop-color="#F6AB3C"/></linearGradient></defs></svg>