<svg width="132" height="32" viewBox="0 0 132 32" fill="none" xmlns="http://www.w3.org/2000/svg">
<path fill-rule="evenodd" clip-rule="evenodd" d="M20.8583 7.52036C20.8583 7.98261 20.6801 8.42592 20.363 8.75278C20.0458 9.07963 19.6157 9.26326 19.1672 9.26326C18.7187 9.26326 18.2885 9.07963 17.9714 8.75278C17.6542 8.42592 17.476 7.98261 17.476 7.52036C17.476 7.05812 17.6542 6.6148 17.9714 6.28795C18.2885 5.96109 18.7187 5.77747 19.1672 5.77747C19.6157 5.77747 20.0458 5.96109 20.363 6.28795C20.6801 6.6148 20.8583 7.05812 20.8583 7.52036ZM40.4402 26.2038V6.03832C40.4405 5.98741 40.4599 5.93869 40.4942 5.90278C40.5285 5.86688 40.575 5.84673 40.6234 5.84673H42.97C43.0183 5.84673 43.0646 5.86675 43.0989 5.90244C43.1332 5.93813 43.1527 5.9866 43.1532 6.03733V26.2038C43.1531 26.229 43.1482 26.2541 43.1389 26.2774C43.1296 26.3007 43.116 26.3218 43.0989 26.3396C43.0818 26.3574 43.0616 26.3715 43.0393 26.3811C43.017 26.3906 42.9932 26.3955 42.9691 26.3953H40.6234C40.5224 26.3953 40.4402 26.3099 40.4402 26.2038ZM11.9988 6.04323V13.1112V13.1122C10.8736 11.7662 9.27829 10.937 7.32133 10.937C3.28404 10.937 0 14.4602 0 18.7919C0 23.1227 3.28404 26.6459 7.32133 26.6459C9.27923 26.6459 10.8736 25.8157 11.9988 24.4697V26.2087C11.9988 26.234 12.0036 26.2592 12.0128 26.2826C12.0221 26.306 12.0357 26.3273 12.0528 26.3452C12.0699 26.3631 12.0902 26.3772 12.1125 26.3869C12.1348 26.3965 12.1588 26.4014 12.1829 26.4012H14.5286C14.5772 26.4012 14.6238 26.381 14.6582 26.3448C14.6925 26.3087 14.7118 26.2597 14.7118 26.2087V6.04323C14.7118 5.93712 14.6296 5.85066 14.5286 5.85066H12.182C12.081 5.85066 11.9988 5.93712 11.9988 6.04323ZM7.47086 23.7387C4.92886 23.7387 2.97563 21.5193 2.97563 18.7919C2.97563 16.0645 4.92886 13.8441 7.47179 13.8441C10.0147 13.8441 11.7352 16.0636 11.7352 18.7909C11.7352 21.5183 10.0147 23.7387 7.47086 23.7387ZM53.6193 10.934C51.6614 10.934 50.0671 11.7642 48.9419 13.1102V11.5451C48.9419 11.439 48.8596 11.3526 48.7578 11.3526H46.412C46.3102 11.3526 46.2289 11.439 46.2289 11.5451V31.7096C46.2289 31.7607 46.2482 31.8096 46.2825 31.8458C46.3169 31.8819 46.3634 31.9022 46.412 31.9022H48.7587C48.8073 31.9022 48.8539 31.8819 48.8882 31.8458C48.9226 31.8096 48.9419 31.7607 48.9419 31.7096V24.4687C50.0671 25.8147 51.6624 26.6439 53.6193 26.6439C57.6566 26.6439 60.9407 23.1197 60.9407 18.789C60.9407 14.4582 57.6566 10.934 53.6193 10.934ZM53.4689 23.7367C50.9259 23.7367 49.2054 21.5173 49.2054 18.789C49.2054 16.0616 50.9259 13.8412 53.4698 13.8412C56.0118 13.8412 57.965 16.0606 57.965 18.789C57.965 21.5163 56.0118 23.7367 53.4689 23.7367ZM34.6525 11.5451V13.1122L34.6516 13.1132C33.5254 11.7672 31.931 10.938 29.9741 10.938C25.9368 10.938 22.6528 14.4611 22.6528 18.7929C22.6528 23.1237 25.9368 26.6478 29.9741 26.6478C31.932 26.6478 33.5263 25.8176 34.6516 24.4716V26.2097C34.6516 26.235 34.6563 26.2601 34.6656 26.2836C34.6748 26.307 34.6884 26.3283 34.7055 26.3462C34.7226 26.3641 34.7429 26.3782 34.7653 26.3878C34.7876 26.3975 34.8115 26.4024 34.8357 26.4022H37.1814C37.2054 26.4022 37.2293 26.3972 37.2515 26.3876C37.2737 26.3779 37.2939 26.3637 37.3109 26.3458C37.3279 26.3279 37.3414 26.3067 37.3506 26.2833C37.3598 26.26 37.3646 26.2349 37.3646 26.2097V11.5451C37.3646 11.439 37.2833 11.3526 37.1814 11.3526H34.8347C34.7338 11.3526 34.6525 11.439 34.6525 11.5451ZM30.1245 23.7387C27.5816 23.7387 25.6284 21.5193 25.6284 18.7909L25.6293 18.7919C25.6293 16.0645 27.5816 13.8441 30.1245 13.8441C32.6684 13.8441 34.388 16.0636 34.388 18.7909C34.388 21.5183 32.6675 23.7387 30.1245 23.7387ZM74.417 13.1122V11.5451C74.417 11.4941 74.4363 11.4451 74.4706 11.409C74.505 11.3728 74.5516 11.3526 74.6002 11.3526H76.9468C76.9954 11.3526 77.042 11.3728 77.0764 11.409C77.1107 11.4451 77.13 11.4941 77.13 11.5451V26.2087C77.13 26.2597 77.1107 26.3087 77.0764 26.3448C77.042 26.381 76.9954 26.4012 76.9468 26.4012H74.6002C74.4992 26.4012 74.417 26.3158 74.417 26.2097V24.4707C73.2918 25.8167 71.6965 26.6469 69.7395 26.6469C65.7022 26.6469 62.4182 23.1227 62.4182 18.7919C62.4182 14.4602 65.7022 10.937 69.7395 10.937C71.6965 10.937 73.2918 11.7662 74.417 13.1122ZM65.3938 18.7919C65.3938 21.5193 67.3461 23.7387 69.89 23.7387C72.4329 23.7387 74.1535 21.5193 74.1535 18.7909C74.1535 16.0636 72.4329 13.8441 69.89 13.8441C67.3461 13.8441 65.3938 16.0636 65.3938 18.7919ZM90.9381 13.1122V6.04323C90.9381 5.99216 90.9574 5.94318 90.9918 5.90706C91.0261 5.87095 91.0727 5.85066 91.1213 5.85066H93.468C93.5165 5.85066 93.5631 5.87095 93.5975 5.90706C93.6318 5.94318 93.6511 5.99216 93.6511 6.04323V26.2087C93.6511 26.2597 93.6318 26.3087 93.5975 26.3448C93.5631 26.381 93.5165 26.4012 93.468 26.4012H91.1213C91.0204 26.4012 90.9381 26.3148 90.9381 26.2087V24.4707C89.8129 25.8167 88.2176 26.6459 86.2607 26.6459C82.2234 26.6459 78.9393 23.1227 78.9393 18.7919C78.9393 14.4602 82.2234 10.937 86.2607 10.937C88.2176 10.937 89.8129 11.7662 90.9381 13.1122ZM81.915 18.7919C81.915 21.5193 83.8682 23.7387 86.4111 23.7387C88.954 23.7387 90.6746 21.5193 90.6746 18.7909C90.6746 16.0636 88.954 13.8441 86.4111 13.8441C83.8682 13.8441 81.915 16.0636 81.915 18.7919ZM17.7874 11.5441V26.2038C17.7877 26.2547 17.8071 26.3034 17.8414 26.3393C17.8757 26.3752 17.9222 26.3953 17.9706 26.3953H20.3173C20.3659 26.3953 20.4125 26.3751 20.4468 26.3389C20.4812 26.3028 20.5005 26.2538 20.5005 26.2028V11.5441C20.5005 11.438 20.4182 11.3516 20.3173 11.3516H17.9706C17.8697 11.3516 17.7874 11.438 17.7874 11.5441Z" fill="var(--dt-color-forground-primary)"/>
<path d="M100.95 6.85806C100.95 3.07046 104.021 0 107.808 0H125.142C128.93 0 132 3.07046 132 6.85807V24.1917C132 27.9793 128.93 31.0497 125.142 31.0497H107.808C104.021 31.0497 100.95 27.9793 100.95 24.1917V6.85806Z" fill="var(--dt-color-surface-primary)"/>
<path fill-rule="evenodd" clip-rule="evenodd" d="M107.808 0C104.021 0 100.95 3.07046 100.95 6.85806V24.1917C100.95 27.9793 104.021 31.0497 107.808 31.0497H125.142C128.93 31.0497 132 27.9793 132 24.1917V6.85807C132 3.07046 128.93 0 125.142 0H107.808ZM124.691 11.1335C125.625 11.1335 126.382 10.3532 126.382 9.39065C126.382 8.42807 125.625 7.64775 124.691 7.64775C123.757 7.64775 123 8.42807 123 9.39065C123 10.3532 123.757 11.1335 124.691 11.1335ZM113.728 10.7773C113.338 10.7773 112.668 11.1594 112.32 12.332L112.319 12.3344L109.018 23.3022C108.799 24.032 108.047 24.4401 107.339 24.2137C106.631 23.9874 106.235 23.2123 106.454 22.4826L109.753 11.5217L109.754 11.5192C110.29 9.7164 111.697 8.01044 113.728 8.01044C115.758 8.01044 117.162 9.71285 117.7 11.5129L117.7 11.5145L120.241 19.957L120.242 19.9587C120.591 21.128 121.259 21.5089 121.648 21.5089C122.602 21.5089 123.375 20.7123 123.375 19.7294V13.9492C123.375 13.1852 123.976 12.5658 124.717 12.5658C125.459 12.5658 126.06 13.1852 126.06 13.9492V19.7294C126.06 22.2404 124.085 24.2758 121.648 24.2758C119.62 24.2758 118.214 22.5742 117.676 20.7738L117.676 20.7718L115.135 12.3293L115.134 12.3276C114.785 11.1577 114.118 10.7773 113.728 10.7773Z" fill="url(#paint0_linear_16929_2134)"/>
<defs>
<linearGradient id="paint0_linear_16929_2134" x1="100.95" y1="0" x2="132" y2="31.0497" gradientUnits="userSpaceOnUse">
<stop offset="0.1" stop-color="#F9008E"/>
<stop offset="0.9" stop-color="#7C52FF"/>
</linearGradient>
</defs>
</svg>
