<svg width="102" height="35" viewBox="0 0 102 35" xmlns="http://www.w3.org/2000/svg">
  <path fill-rule="evenodd" clip-rule="evenodd" d="M24.8832 5.84235C24.8832 6.3046 24.705 6.74791 24.3878 7.07477C24.0707 7.40162 23.6405 7.58525 23.192 7.58525C22.7435 7.58525 22.3133 7.40162 21.9962 7.07477C21.679 6.74791 21.5009 6.3046 21.5009 5.84235C21.5009 5.38011 21.679 4.9368 21.9962 4.60994C22.3133 4.28308 22.7435 4.09946 23.192 4.09946C23.6405 4.09946 24.0707 4.28308 24.3878 4.60994C24.705 4.9368 24.8832 5.38011 24.8832 5.84235ZM44.465 24.5258V4.36031C44.4653 4.3094 44.4847 4.26068 44.519 4.22478C44.5533 4.18887 44.5998 4.16872 44.6482 4.16872H46.9949C47.0431 4.16872 47.0895 4.18874 47.1238 4.22443C47.1581 4.26012 47.1776 4.30859 47.1781 4.35932V24.5258C47.1779 24.551 47.1731 24.5761 47.1638 24.5994C47.1544 24.6227 47.1409 24.6438 47.1238 24.6616C47.1067 24.6794 47.0864 24.6935 47.0641 24.7031C47.0419 24.7126 47.018 24.7175 46.994 24.7173H44.6482C44.5473 24.7173 44.465 24.6319 44.465 24.5258ZM16.0236 4.36522V11.4332V11.4342C14.8984 10.0882 13.3031 9.25896 11.3462 9.25896C7.30888 9.25896 4.02484 12.7821 4.02484 17.1139C4.02484 21.4447 7.30888 24.9679 11.3462 24.9679C13.3041 24.9679 14.8984 24.1377 16.0236 22.7917V24.5307C16.0236 24.556 16.0284 24.5812 16.0377 24.6046C16.0469 24.628 16.0605 24.6493 16.0776 24.6672C16.0947 24.6851 16.115 24.6992 16.1374 24.7089C16.1597 24.7185 16.1836 24.7234 16.2077 24.7232H18.5535C18.6021 24.7232 18.6487 24.7029 18.683 24.6668C18.7174 24.6307 18.7367 24.5817 18.7367 24.5307V4.36522C18.7367 4.25911 18.6544 4.17265 18.5535 4.17265H16.2068C16.1059 4.17265 16.0236 4.25911 16.0236 4.36522ZM11.4957 22.0607C8.9537 22.0607 7.00047 19.8413 7.00047 17.1139C7.00047 14.3865 8.9537 12.1661 11.4966 12.1661C14.0396 12.1661 15.7601 14.3856 15.7601 17.1129C15.7601 19.8403 14.0396 22.0607 11.4957 22.0607ZM57.6442 9.25601C55.6863 9.25601 54.0919 10.0862 52.9667 11.4322V9.86712C52.9667 9.76101 52.8845 9.67455 52.7826 9.67455H50.4369C50.335 9.67455 50.2537 9.76101 50.2537 9.86712V30.0316C50.2537 30.0826 50.273 30.1316 50.3073 30.1677C50.3417 30.2039 50.3883 30.2241 50.4369 30.2241H52.7835C52.8321 30.2241 52.8787 30.2039 52.9131 30.1677C52.9474 30.1316 52.9667 30.0826 52.9667 30.0316V22.7907C54.0919 24.1367 55.6872 24.9659 57.6442 24.9659C61.6815 24.9659 64.9655 21.4417 64.9655 17.111C64.9655 12.7802 61.6815 9.25601 57.6442 9.25601ZM57.4937 22.0587C54.9508 22.0587 53.2303 19.8393 53.2303 17.111C53.2303 14.3836 54.9508 12.1632 57.4947 12.1632C60.0366 12.1632 61.9899 14.3826 61.9899 17.111C61.9899 19.8383 60.0366 22.0587 57.4937 22.0587ZM38.6773 9.86712V11.4342L38.6764 11.4352C37.5502 10.0892 35.9559 9.25994 33.9989 9.25994C29.9616 9.25994 26.6776 12.7831 26.6776 17.1149C26.6776 21.4457 29.9616 24.9698 33.9989 24.9698C35.9568 24.9698 37.5512 24.1396 38.6764 22.7936V24.5316C38.6764 24.557 38.6812 24.5821 38.6904 24.6056C38.6997 24.629 38.7133 24.6503 38.7304 24.6682C38.7475 24.6861 38.7678 24.7002 38.7901 24.7098C38.8124 24.7195 38.8364 24.7243 38.8605 24.7242H41.2062C41.2303 24.7242 41.2541 24.7192 41.2763 24.7096C41.2986 24.6999 41.3188 24.6857 41.3358 24.6678C41.3528 24.6499 41.3663 24.6287 41.3755 24.6053C41.3847 24.582 41.3894 24.5569 41.3894 24.5316V9.86712C41.3894 9.76101 41.3081 9.67455 41.2062 9.67455H38.8596C38.7586 9.67455 38.6773 9.76101 38.6773 9.86712ZM34.1494 22.0607C31.6065 22.0607 29.6532 19.8413 29.6532 17.1129L29.6542 17.1139C29.6542 14.3865 31.6065 12.1661 34.1494 12.1661C36.6933 12.1661 38.4128 14.3856 38.4128 17.1129C38.4128 19.8403 36.6923 22.0607 34.1494 22.0607ZM78.4418 11.4342V9.86712C78.4418 9.81605 78.4611 9.76707 78.4955 9.73095C78.5298 9.69484 78.5764 9.67455 78.625 9.67455H80.9717C81.0203 9.67455 81.0669 9.69484 81.1012 9.73095C81.1356 9.76707 81.1549 9.81605 81.1549 9.86712V24.5307C81.1549 24.5817 81.1356 24.6307 81.1012 24.6668C81.0669 24.7029 81.0203 24.7232 80.9717 24.7232H78.625C78.5241 24.7232 78.4418 24.6378 78.4418 24.5316V22.7927C77.3166 24.1387 75.7213 24.9688 73.7644 24.9688C69.7271 24.9688 66.443 21.4447 66.443 17.1139C66.443 12.7821 69.7271 9.25896 73.7644 9.25896C75.7213 9.25896 77.3166 10.0882 78.4418 11.4342ZM69.4187 17.1139C69.4187 19.8413 71.371 22.0607 73.9148 22.0607C76.4578 22.0607 78.1783 19.8413 78.1783 17.1129C78.1783 14.3856 76.4578 12.1661 73.9148 12.1661C71.371 12.1661 69.4187 14.3856 69.4187 17.1139ZM94.963 11.4342V4.36522C94.963 4.31415 94.9823 4.26517 95.0166 4.22905C95.051 4.19294 95.0975 4.17265 95.1461 4.17265H97.4928C97.5414 4.17265 97.588 4.19294 97.6223 4.22905C97.6567 4.26517 97.676 4.31415 97.676 4.36522V24.5307C97.676 24.5817 97.6567 24.6307 97.6223 24.6668C97.588 24.7029 97.5414 24.7232 97.4928 24.7232H95.1461C95.0452 24.7232 94.963 24.6368 94.963 24.5307V22.7927C93.8378 24.1387 92.2425 24.9679 90.2855 24.9679C86.2482 24.9679 82.9642 21.4447 82.9642 17.1139C82.9642 12.7821 86.2482 9.25896 90.2855 9.25896C92.2425 9.25896 93.8378 10.0882 94.963 11.4342ZM85.9398 17.1139C85.9398 19.8413 87.893 22.0607 90.436 22.0607C92.9789 22.0607 94.6994 19.8413 94.6994 17.1129C94.6994 14.3856 92.9789 12.1661 90.436 12.1661C87.893 12.1661 85.9398 14.3856 85.9398 17.1139ZM21.8123 9.86614V24.5258C21.8125 24.5767 21.8319 24.6254 21.8663 24.6613C21.9006 24.6972 21.947 24.7173 21.9955 24.7173H24.3421C24.3907 24.7173 24.4373 24.697 24.4717 24.6609C24.506 24.6248 24.5253 24.5758 24.5253 24.5248V9.86614C24.5253 9.76003 24.4431 9.67357 24.3421 9.67357H21.9955C21.8945 9.67357 21.8123 9.76003 21.8123 9.86614Z" fill="#000"/>
</svg>
