<svg width="139" height="40" viewBox="0 0 139 40" fill="none" xmlns="http://www.w3.org/2000/svg">
<path fill-rule="evenodd" clip-rule="evenodd" d="M24.8583 10.6679C24.8583 11.1302 24.6801 11.5735 24.363 11.9004C24.0458 12.2272 23.6157 12.4108 23.1672 12.4108C22.7187 12.4108 22.2885 12.2272 21.9714 11.9004C21.6542 11.5735 21.476 11.1302 21.476 10.6679C21.476 10.2057 21.6542 9.76239 21.9714 9.43553C22.2885 9.10867 22.7187 8.92505 23.1672 8.92505C23.6157 8.92505 24.0458 9.10867 24.363 9.43553C24.6801 9.76239 24.8583 10.2057 24.8583 10.6679ZM44.4402 29.3513V9.1859C44.4405 9.135 44.4599 9.08627 44.4942 9.05037C44.5285 9.01447 44.575 8.99431 44.6234 8.99431H46.97C47.0183 8.99431 47.0646 9.01433 47.0989 9.05002C47.1332 9.08571 47.1527 9.13419 47.1532 9.18492V29.3513C47.1531 29.3766 47.1482 29.4016 47.1389 29.425C47.1296 29.4483 47.116 29.4694 47.0989 29.4872C47.0818 29.505 47.0616 29.5191 47.0393 29.5286C47.017 29.5382 46.9932 29.5431 46.9691 29.5429H44.6234C44.5224 29.5429 44.4402 29.4575 44.4402 29.3513ZM15.9988 9.19081V16.2588V16.2598C14.8736 14.9138 13.2783 14.0846 11.3213 14.0846C7.28404 14.0846 4 17.6077 4 21.9395C4 26.2703 7.28404 29.7935 11.3213 29.7935C13.2792 29.7935 14.8736 28.9633 15.9988 27.6173V29.3563C15.9988 29.3816 16.0036 29.4067 16.0128 29.4302C16.0221 29.4536 16.0357 29.4749 16.0528 29.4928C16.0699 29.5107 16.0902 29.5248 16.1125 29.5344C16.1348 29.5441 16.1588 29.549 16.1829 29.5488H18.5286C18.5772 29.5488 18.6238 29.5285 18.6582 29.4924C18.6925 29.4563 18.7118 29.4073 18.7118 29.3563V9.19081C18.7118 9.0847 18.6296 8.99824 18.5286 8.99824H16.182C16.081 8.99824 15.9988 9.0847 15.9988 9.19081ZM11.4709 26.8863C8.92886 26.8863 6.97563 24.6669 6.97563 21.9395C6.97563 19.2121 8.92886 16.9917 11.4718 16.9917C14.0147 16.9917 15.7352 19.2111 15.7352 21.9385C15.7352 24.6659 14.0147 26.8863 11.4709 26.8863ZM57.6193 14.0816C55.6614 14.0816 54.0671 14.9118 52.9419 16.2578V14.6927C52.9419 14.5866 52.8596 14.5001 52.7578 14.5001H50.412C50.3102 14.5001 50.2289 14.5866 50.2289 14.6927V34.8572C50.2289 34.9082 50.2482 34.9572 50.2825 34.9933C50.3169 35.0294 50.3634 35.0497 50.412 35.0497H52.7587C52.8073 35.0497 52.8539 35.0294 52.8882 34.9933C52.9226 34.9572 52.9419 34.9082 52.9419 34.8572V27.6163C54.0671 28.9623 55.6624 29.7915 57.6193 29.7915C61.6566 29.7915 64.9407 26.2673 64.9407 21.9366C64.9407 17.6058 61.6566 14.0816 57.6193 14.0816ZM57.4689 26.8843C54.9259 26.8843 53.2054 24.6649 53.2054 21.9366C53.2054 19.2092 54.9259 16.9888 57.4698 16.9888C60.0118 16.9888 61.965 19.2082 61.965 21.9366C61.965 24.6639 60.0118 26.8843 57.4689 26.8843ZM38.6525 14.6927V16.2598L38.6516 16.2608C37.5254 14.9148 35.931 14.0855 33.9741 14.0855C29.9368 14.0855 26.6528 17.6087 26.6528 21.9405C26.6528 26.2713 29.9368 29.7954 33.9741 29.7954C35.932 29.7954 37.5263 28.9652 38.6516 27.6192V29.3572C38.6516 29.3826 38.6563 29.4077 38.6656 29.4312C38.6748 29.4546 38.6884 29.4759 38.7055 29.4938C38.7226 29.5116 38.7429 29.5258 38.7653 29.5354C38.7876 29.545 38.8115 29.5499 38.8357 29.5498H41.1814C41.2054 29.5498 41.2293 29.5448 41.2515 29.5351C41.2737 29.5255 41.2939 29.5113 41.3109 29.4934C41.3279 29.4755 41.3414 29.4543 41.3506 29.4309C41.3598 29.4076 41.3646 29.3825 41.3646 29.3572V14.6927C41.3646 14.5866 41.2833 14.5001 41.1814 14.5001H38.8347C38.7338 14.5001 38.6525 14.5866 38.6525 14.6927ZM34.1245 26.8863C31.5816 26.8863 29.6284 24.6669 29.6284 21.9385L29.6293 21.9395C29.6293 19.2121 31.5816 16.9917 34.1245 16.9917C36.6684 16.9917 38.388 19.2111 38.388 21.9385C38.388 24.6659 36.6675 26.8863 34.1245 26.8863ZM78.417 16.2598V14.6927C78.417 14.6416 78.4363 14.5927 78.4706 14.5565C78.505 14.5204 78.5516 14.5001 78.6002 14.5001H80.9468C80.9954 14.5001 81.042 14.5204 81.0764 14.5565C81.1107 14.5927 81.13 14.6416 81.13 14.6927V29.3563C81.13 29.4073 81.1107 29.4563 81.0764 29.4924C81.042 29.5285 80.9954 29.5488 80.9468 29.5488H78.6002C78.4992 29.5488 78.417 29.4633 78.417 29.3572V27.6182C77.2918 28.9642 75.6965 29.7944 73.7395 29.7944C69.7022 29.7944 66.4182 26.2703 66.4182 21.9395C66.4182 17.6077 69.7022 14.0846 73.7395 14.0846C75.6965 14.0846 77.2918 14.9138 78.417 16.2598ZM69.3938 21.9395C69.3938 24.6669 71.3461 26.8863 73.89 26.8863C76.4329 26.8863 78.1535 24.6669 78.1535 21.9385C78.1535 19.2111 76.4329 16.9917 73.89 16.9917C71.3461 16.9917 69.3938 19.2111 69.3938 21.9395ZM94.9381 16.2598V9.19081C94.9381 9.13974 94.9574 9.09076 94.9918 9.05465C95.0261 9.01853 95.0727 8.99824 95.1213 8.99824H97.468C97.5165 8.99824 97.5631 9.01853 97.5975 9.05465C97.6318 9.09076 97.6511 9.13974 97.6511 9.19081V29.3563C97.6511 29.4073 97.6318 29.4563 97.5975 29.4924C97.5631 29.5285 97.5165 29.5488 97.468 29.5488H95.1213C95.0204 29.5488 94.9381 29.4624 94.9381 29.3563V27.6182C93.8129 28.9642 92.2176 29.7935 90.2607 29.7935C86.2234 29.7935 82.9393 26.2703 82.9393 21.9395C82.9393 17.6077 86.2234 14.0846 90.2607 14.0846C92.2176 14.0846 93.8129 14.9138 94.9381 16.2598ZM85.915 21.9395C85.915 24.6669 87.8682 26.8863 90.4111 26.8863C92.954 26.8863 94.6746 24.6669 94.6746 21.9385C94.6746 19.2111 92.954 16.9917 90.4111 16.9917C87.8682 16.9917 85.915 19.2111 85.915 21.9395ZM21.7874 14.6917V29.3513C21.7877 29.4022 21.8071 29.451 21.8414 29.4869C21.8757 29.5228 21.9222 29.5429 21.9706 29.5429H24.3173C24.3659 29.5429 24.4125 29.5226 24.4468 29.4865C24.4812 29.4504 24.5005 29.4014 24.5005 29.3504V14.6917C24.5005 14.5856 24.4182 14.4992 24.3173 14.4992H21.9706C21.8697 14.4992 21.7874 14.5856 21.7874 14.6917Z" fill="#000"/>
<path d="M103.651 10.8581C103.651 7.07046 106.722 4 110.509 4H127.843C131.63 4 134.701 7.07046 134.701 10.8581V28.1917C134.701 31.9793 131.63 35.0497 127.843 35.0497H110.509C106.722 35.0497 103.651 31.9793 103.651 28.1917V10.8581Z" fill="white"/>
<path fill-rule="evenodd" clip-rule="evenodd" d="M110.509 4C106.722 4 103.651 7.07046 103.651 10.8581V28.1917C103.651 31.9793 106.722 35.0497 110.509 35.0497H127.843C131.63 35.0497 134.701 31.9793 134.701 28.1917V10.8581C134.701 7.07046 131.63 4 127.843 4H110.509ZM127.392 15.1335C128.326 15.1335 129.083 14.3532 129.083 13.3906C129.083 12.4281 128.326 11.6478 127.392 11.6478C126.458 11.6478 125.701 12.4281 125.701 13.3906C125.701 14.3532 126.458 15.1335 127.392 15.1335ZM116.428 14.7773C116.039 14.7773 115.369 15.1594 115.021 16.332L115.02 16.3344L111.719 27.3022C111.5 28.032 110.748 28.4401 110.04 28.2137C109.331 27.9874 108.935 27.2123 109.155 26.4826L112.454 15.5217L112.454 15.5192C112.991 13.7164 114.397 12.0104 116.428 12.0104C118.459 12.0104 119.863 13.7129 120.401 15.5129L120.401 15.5145L122.942 23.957L122.943 23.9587C123.291 25.128 123.96 25.5089 124.349 25.5089C125.303 25.5089 126.076 24.7123 126.076 23.7294V17.9492C126.076 17.1852 126.677 16.5658 127.418 16.5658C128.159 16.5658 128.76 17.1852 128.76 17.9492V23.7294C128.76 26.2404 126.785 28.2758 124.349 28.2758C122.321 28.2758 120.915 26.5742 120.377 24.7738L120.376 24.7718L117.835 16.3293L117.835 16.3276C117.486 15.1577 116.819 14.7773 116.428 14.7773Z" fill="url(#paint0_linear_16929_2232)"/>
<defs>
<linearGradient id="paint0_linear_16929_2232" x1="103.651" y1="4" x2="134.701" y2="35.0497" gradientUnits="userSpaceOnUse">
<stop offset="0.1" stop-color="#F9008E"/>
<stop offset="0.9" stop-color="#7C52FF"/>
</linearGradient>
</defs>
</svg>
