<svg width="140" height="40" viewBox="0 0 140 40" xmlns="http://www.w3.org/2000/svg">
<path fill-rule="evenodd" clip-rule="evenodd" d="M25.5591 10.6679C25.5591 11.1302 25.381 11.5735 25.0638 11.9004C24.7467 12.2272 24.3165 12.4108 23.868 12.4108C23.4195 12.4108 22.9893 12.2272 22.6722 11.9004C22.355 11.5735 22.1769 11.1302 22.1769 10.6679C22.1769 10.2057 22.355 9.76239 22.6722 9.43553C22.9893 9.10867 23.4195 8.92505 23.868 8.92505C24.3165 8.92505 24.7467 9.10867 25.0638 9.43553C25.381 9.76239 25.5591 10.2057 25.5591 10.6679ZM45.141 29.3513V9.1859C45.1413 9.135 45.1607 9.08627 45.195 9.05037C45.2293 9.01447 45.2758 8.99431 45.3242 8.99431H47.6709C47.7191 8.99431 47.7655 9.01433 47.7998 9.05002C47.834 9.08571 47.8536 9.13419 47.8541 9.18492V29.3513C47.8539 29.3766 47.8491 29.4016 47.8398 29.425C47.8304 29.4483 47.8168 29.4694 47.7998 29.4872C47.7827 29.505 47.7624 29.5191 47.7401 29.5286C47.7179 29.5382 47.694 29.5431 47.6699 29.5429H45.3242C45.2233 29.5429 45.141 29.4575 45.141 29.3513ZM16.6996 9.19081V16.2588V16.2598C15.5744 14.9138 13.9791 14.0846 12.0222 14.0846C7.98487 14.0846 4.70084 17.6077 4.70084 21.9395C4.70084 26.2703 7.98487 29.7935 12.0222 29.7935C13.9801 29.7935 15.5744 28.9633 16.6996 27.6173V29.3563C16.6996 29.3816 16.7044 29.4067 16.7137 29.4302C16.7229 29.4536 16.7365 29.4749 16.7536 29.4928C16.7707 29.5107 16.791 29.5248 16.8134 29.5344C16.8357 29.5441 16.8596 29.549 16.8837 29.5488H19.2295C19.2781 29.5488 19.3246 29.5285 19.359 29.4924C19.3934 29.4563 19.4127 29.4073 19.4127 29.3563V9.19081C19.4127 9.0847 19.3304 8.99824 19.2295 8.99824H16.8828C16.7819 8.99824 16.6996 9.0847 16.6996 9.19081ZM12.1717 26.8863C9.6297 26.8863 7.67647 24.6669 7.67647 21.9395C7.67647 19.2121 9.62969 16.9917 12.1726 16.9917C14.7156 16.9917 16.4361 19.2111 16.4361 21.9385C16.4361 24.6659 14.7156 26.8863 12.1717 26.8863ZM58.3202 14.0816C56.3623 14.0816 54.7679 14.9118 53.6427 16.2578V14.6927C53.6427 14.5866 53.5605 14.5001 53.4586 14.5001H51.1129C51.011 14.5001 50.9297 14.5866 50.9297 14.6927V34.8572C50.9297 34.9082 50.949 34.9572 50.9833 34.9933C51.0177 35.0294 51.0643 35.0497 51.1129 35.0497H53.4595C53.5081 35.0497 53.5547 35.0294 53.5891 34.9933C53.6234 34.9572 53.6427 34.9082 53.6427 34.8572V27.6163C54.7679 28.9623 56.3632 29.7915 58.3202 29.7915C62.3575 29.7915 65.6415 26.2673 65.6415 21.9366C65.6415 17.6058 62.3575 14.0816 58.3202 14.0816ZM58.1697 26.8843C55.6268 26.8843 53.9063 24.6649 53.9063 21.9366C53.9063 19.2092 55.6268 16.9888 58.1706 16.9888C60.7126 16.9888 62.6659 19.2082 62.6659 21.9366C62.6659 24.6639 60.7126 26.8843 58.1697 26.8843ZM39.3533 14.6927V16.2598L39.3524 16.2608C38.2262 14.9148 36.6319 14.0855 34.6749 14.0855C30.6376 14.0855 27.3536 17.6087 27.3536 21.9405C27.3536 26.2713 30.6376 29.7954 34.6749 29.7954C36.6328 29.7954 38.2272 28.9652 39.3524 27.6192V29.3572C39.3524 29.3826 39.3572 29.4077 39.3664 29.4312C39.3757 29.4546 39.3893 29.4759 39.4064 29.4938C39.4235 29.5116 39.4438 29.5258 39.4661 29.5354C39.4884 29.545 39.5124 29.5499 39.5365 29.5498H41.8822C41.9063 29.5498 41.9301 29.5448 41.9523 29.5351C41.9746 29.5255 41.9947 29.5113 42.0118 29.4934C42.0288 29.4755 42.0423 29.4543 42.0515 29.4309C42.0607 29.4076 42.0654 29.3825 42.0654 29.3572V14.6927C42.0654 14.5866 41.9841 14.5001 41.8822 14.5001H39.5356C39.4346 14.5001 39.3533 14.5866 39.3533 14.6927ZM34.8254 26.8863C32.2825 26.8863 30.3292 24.6669 30.3292 21.9385L30.3302 21.9395C30.3302 19.2121 32.2825 16.9917 34.8254 16.9917C37.3693 16.9917 39.0888 19.2111 39.0888 21.9385C39.0888 24.6659 37.3683 26.8863 34.8254 26.8863ZM79.1178 16.2598V14.6927C79.1178 14.6416 79.1371 14.5927 79.1715 14.5565C79.2058 14.5204 79.2524 14.5001 79.301 14.5001H81.6477C81.6963 14.5001 81.7429 14.5204 81.7772 14.5565C81.8116 14.5927 81.8309 14.6416 81.8309 14.6927V29.3563C81.8309 29.4073 81.8116 29.4563 81.7772 29.4924C81.7429 29.5285 81.6963 29.5488 81.6477 29.5488H79.301C79.2001 29.5488 79.1178 29.4633 79.1178 29.3572V27.6182C77.9926 28.9642 76.3973 29.7944 74.4404 29.7944C70.4031 29.7944 67.119 26.2703 67.119 21.9395C67.119 17.6077 70.4031 14.0846 74.4404 14.0846C76.3973 14.0846 77.9926 14.9138 79.1178 16.2598ZM70.0947 21.9395C70.0947 24.6669 72.047 26.8863 74.5908 26.8863C77.1338 26.8863 78.8543 24.6669 78.8543 21.9385C78.8543 19.2111 77.1338 16.9917 74.5908 16.9917C72.047 16.9917 70.0947 19.2111 70.0947 21.9395ZM95.639 16.2598V9.19081C95.639 9.13974 95.6582 9.09076 95.6926 9.05465C95.727 9.01853 95.7735 8.99824 95.8221 8.99824H98.1688C98.2174 8.99824 98.264 9.01853 98.2983 9.05465C98.3327 9.09076 98.352 9.13974 98.352 9.19081V29.3563C98.352 29.4073 98.3327 29.4563 98.2983 29.4924C98.264 29.5285 98.2174 29.5488 98.1688 29.5488H95.8221C95.7212 29.5488 95.639 29.4624 95.639 29.3563V27.6182C94.5137 28.9642 92.9184 29.7935 90.9615 29.7935C86.9242 29.7935 83.6402 26.2703 83.6402 21.9395C83.6402 17.6077 86.9242 14.0846 90.9615 14.0846C92.9184 14.0846 94.5137 14.9138 95.639 16.2598ZM86.6158 21.9395C86.6158 24.6669 88.569 26.8863 91.112 26.8863C93.6549 26.8863 95.3754 24.6669 95.3754 21.9385C95.3754 19.2111 93.6549 16.9917 91.112 16.9917C88.569 16.9917 86.6158 19.2111 86.6158 21.9395ZM22.4883 14.6917V29.3513C22.4885 29.4022 22.5079 29.451 22.5423 29.4869C22.5766 29.5228 22.623 29.5429 22.6715 29.5429H25.0181C25.0667 29.5429 25.1133 29.5226 25.1477 29.4865C25.182 29.4504 25.2013 29.4014 25.2013 29.3504V14.6917C25.2013 14.5856 25.1191 14.4992 25.0181 14.4992H22.6715C22.5705 14.4992 22.4883 14.5856 22.4883 14.6917Z" fill="var(--dt-color-foreground-primary-inverted)"/>
<path fill-rule="evenodd" clip-rule="evenodd" d="M111.21 4C107.422 4 104.352 7.07046 104.352 10.8581V28.1917C104.352 31.9793 107.422 35.0497 111.21 35.0497H128.544C132.331 35.0497 135.402 31.9793 135.402 28.1917V10.8581C135.402 7.07046 132.331 4 128.544 4H111.21ZM128.093 15.1335C129.027 15.1335 129.784 14.3532 129.784 13.3906C129.784 12.4281 129.027 11.6478 128.093 11.6478C127.159 11.6478 126.401 12.4281 126.401 13.3906C126.401 14.3532 127.159 15.1335 128.093 15.1335ZM117.129 14.7773C116.74 14.7773 116.07 15.1594 115.722 16.332L115.721 16.3344L112.42 27.3022C112.201 28.032 111.448 28.4401 110.74 28.2137C110.032 27.9874 109.636 27.2123 109.856 26.4826L113.155 15.5217L113.155 15.5192C113.692 13.7164 115.098 12.0104 117.129 12.0104C119.16 12.0104 120.564 13.7129 121.101 15.5129L121.102 15.5145L123.643 23.957L123.643 23.9587C123.992 25.128 124.661 25.5089 125.05 25.5089C126.004 25.5089 126.777 24.7123 126.777 23.7294V17.9492C126.777 17.1852 127.378 16.5658 128.119 16.5658C128.86 16.5658 129.461 17.1852 129.461 17.9492V23.7294C129.461 26.2404 127.486 28.2758 125.05 28.2758C123.022 28.2758 121.616 26.5742 121.078 24.7738L121.077 24.7718L118.536 16.3293L118.536 16.3276C118.187 15.1577 117.519 14.7773 117.129 14.7773Z" fill="var(--dt-color-foreground-primary-inverted)"/>
</svg>
