<svg aria-hidden="true" focusable="false" aria-label="Eind" class="empty" viewBox="0 0 151 164" fill="none">
<path d="M142.547 84.3977C142.525 84.7374 142.501 85.0764 142.474 85.4146L142.729 85.4346C142.676 86.1136 142.613 86.7894 142.539 87.462L142.285 87.4343C142.211 88.1101 142.128 88.7827 142.035 89.4518L142.289 89.4871C142.195 90.1609 142.091 90.8313 141.978 91.4982L141.726 91.4553C141.612 92.1253 141.488 92.7916 141.355 93.4542L141.606 93.5047C141.472 94.1722 141.328 94.836 141.174 95.4959L140.925 95.4379C140.771 96.0983 140.608 96.7548 140.435 97.4072L140.682 97.4727C140.508 98.1315 140.323 98.786 140.13 99.4362L139.884 99.3632C139.691 100.013 139.488 100.658 139.276 101.298L139.519 101.379C139.305 102.025 139.081 102.667 138.848 103.305L138.608 103.217C138.375 103.854 138.133 104.486 137.882 105.113L138.12 105.208C137.867 105.84 137.605 106.466 137.334 107.088L137.1 106.985C136.828 107.607 136.548 108.224 136.259 108.835L136.491 108.944C136.2 109.559 135.9 110.169 135.592 110.773L135.364 110.656C135.056 111.26 134.739 111.858 134.413 112.451L134.638 112.574C134.31 113.17 133.974 113.761 133.629 114.346L133.409 114.216C133.065 114.799 132.712 115.376 132.352 115.948L132.568 116.085C132.205 116.66 131.833 117.229 131.454 117.792L131.241 117.649C130.863 118.211 130.476 118.766 130.081 119.315L130.289 119.465C129.892 120.016 129.487 120.562 129.074 121.101L128.871 120.945C128.459 121.483 128.039 122.014 127.612 122.539L127.81 122.7C127.381 123.227 126.944 123.747 126.499 124.26L126.306 124.093C125.862 124.605 125.411 125.109 124.953 125.607L125.141 125.781C124.681 126.281 124.214 126.774 123.739 127.259L123.556 127.081C123.082 127.565 122.602 128.041 122.115 128.511L122.292 128.695C121.803 129.167 121.307 129.631 120.803 130.087L120.631 129.898C120.13 130.352 119.622 130.8 119.107 131.239L119.273 131.434C118.757 131.875 118.233 132.308 117.703 132.734L117.543 132.534C117.016 132.958 116.481 133.374 115.941 133.782L116.095 133.986C115.553 134.395 115.005 134.796 114.45 135.189L114.302 134.98C113.75 135.372 113.192 135.755 112.628 136.13L112.77 136.343C112.204 136.719 111.633 137.086 111.056 137.445L110.921 137.228C110.346 137.585 109.766 137.934 109.18 138.274L109.309 138.495C108.721 138.836 108.129 139.169 107.531 139.492L107.409 139.267C106.815 139.589 106.215 139.902 105.609 140.206L105.724 140.435C105.118 140.74 104.506 141.036 103.889 141.323L103.781 141.091C103.168 141.376 102.551 141.653 101.928 141.92L102.029 142.155C101.405 142.422 100.777 142.681 100.144 142.93L100.05 142.692C99.421 142.939 98.7874 143.178 98.1495 143.407L98.236 143.648C97.5976 143.877 96.9549 144.096 96.3082 144.307L96.2291 144.063C95.5859 144.272 94.9386 144.472 94.2875 144.662L94.3591 144.907C93.7083 145.097 93.0536 145.277 92.3952 145.448L92.331 145.2C91.677 145.369 91.0193 145.529 90.3581 145.679L90.4146 145.928C89.7528 146.078 89.0875 146.219 88.4189 146.349L88.3699 146.098C87.7076 146.227 87.042 146.346 86.3733 146.455L86.4146 146.708C85.745 146.817 85.0724 146.917 84.3968 147.006L84.3632 146.752C83.6942 146.841 83.0222 146.92 82.3476 146.988L82.3735 147.243C81.6995 147.311 81.0227 147.37 80.3435 147.418L80.3253 147.163C79.6512 147.211 78.9745 147.249 78.2955 147.276L78.306 147.532C77.6302 147.56 76.952 147.577 76.2718 147.585L76.269 147.329C75.5934 147.336 74.9158 147.333 74.2361 147.32L74.2312 147.576C73.5547 147.563 72.8763 147.54 72.1961 147.507L72.2086 147.251C71.8698 147.235 71.5305 147.215 71.1908 147.194C70.8511 147.172 70.5121 147.148 70.174 147.121L70.1539 147.376C69.475 147.323 68.7991 147.26 68.1265 147.187L68.1542 146.932C67.4784 146.859 66.8058 146.775 66.1367 146.682L66.1014 146.936C65.4276 146.842 64.7572 146.738 64.0904 146.625L64.1332 146.373C63.4633 146.259 62.7969 146.135 62.1343 146.002L62.0839 146.253C61.4163 146.119 60.7525 145.975 60.0926 145.821L60.1506 145.572C59.4902 145.418 58.8337 145.255 58.1813 145.082L58.1158 145.329C57.4571 145.155 56.8025 144.97 56.1523 144.777L56.2253 144.531C55.576 144.338 54.9309 144.135 54.2903 143.923L54.2099 144.166C53.5632 143.952 52.9211 143.728 52.2837 143.495L52.3716 143.255C51.7348 143.022 51.1027 142.78 50.4754 142.529L50.3803 142.767C49.7489 142.514 49.1224 142.252 48.501 141.981L48.6033 141.747C47.9815 141.476 47.3649 141.195 46.7535 140.906L46.6441 141.138C46.0293 140.847 45.4198 140.547 44.8157 140.239L44.932 140.011C44.3284 139.703 43.7303 139.386 43.1377 139.06L43.0144 139.285C42.4182 138.957 41.8277 138.621 41.2429 138.276L41.3729 138.056C40.7896 137.712 40.2121 137.359 39.6406 136.999L39.504 137.215C38.9287 136.852 38.3594 136.48 37.7963 136.101L37.9394 135.889C37.3779 135.51 36.8225 135.123 36.2735 134.728L36.124 134.936C35.5722 134.539 35.0267 134.134 34.4878 133.721L34.6434 133.518C34.1057 133.106 33.5745 132.686 33.05 132.259L32.8883 132.457C32.3614 132.028 31.8413 131.591 31.3281 131.146L31.4957 130.953C30.9839 130.509 30.479 130.058 29.9812 129.6L29.8078 129.789C29.3078 129.328 28.8148 128.861 28.329 128.386L28.508 128.203C28.0239 127.73 27.5471 127.249 27.0776 126.762L26.8932 126.939C26.4218 126.45 25.9578 125.954 25.5013 125.45L25.6909 125.278C25.2362 124.777 24.789 124.269 24.3495 123.754L24.1548 123.92C23.7137 123.404 23.2803 122.88 22.8548 122.35L23.0544 122.19C22.6306 121.663 22.2148 121.129 21.8069 120.588L21.6026 120.743C21.1934 120.2 20.7922 119.652 20.3992 119.097L20.608 118.949C20.2168 118.397 19.8337 117.839 19.459 117.275L19.2458 117.417C18.87 116.851 18.5025 116.28 18.1436 115.703L18.361 115.568C18.0036 114.993 17.6548 114.413 17.3145 113.827L17.0932 113.956C16.7522 113.369 16.4199 112.776 16.0963 112.178L16.3214 112.056C15.9995 111.462 15.6864 110.862 15.3822 110.256L15.1535 110.371C14.8484 109.765 14.5523 109.153 14.2653 108.536L14.4973 108.428C14.2122 107.815 13.936 107.198 13.669 106.575L13.4338 106.676C13.1661 106.052 12.9077 105.424 12.6585 104.791L12.8967 104.697C12.6491 104.068 12.4107 103.435 12.1818 102.797L11.9409 102.883C11.7118 102.245 11.492 101.602 11.2819 100.955L11.5253 100.876C11.3163 100.233 11.1168 99.5857 10.9269 98.9346L10.6812 99.0062C10.4914 98.3554 10.3112 97.7007 10.1408 97.0423L10.3886 96.9781C10.2192 96.3241 10.0596 95.6664 9.90974 95.0052L9.66011 95.0617C9.51012 94.3999 9.36993 93.7346 9.23968 93.066L9.49091 93.017C9.36189 92.3547 9.24266 91.6891 9.13337 91.0204L8.88077 91.0617C8.77134 90.3921 8.67185 89.7195 8.58243 89.0439L8.83618 89.0103C8.74763 88.3413 8.669 87.6693 8.60045 86.9947L8.3458 87.0206C8.27731 86.3466 8.21883 85.6698 8.17051 84.9906L8.42582 84.9724C8.37786 84.2983 8.33995 83.6216 8.31222 82.9426L8.05648 82.9531C8.02888 82.2773 8.01133 81.5991 8.00398 80.9188L8.25992 80.9161C8.25261 80.2405 8.2554 79.5629 8.2684 78.8832L8.01249 78.8783C8.02544 78.2018 8.04847 77.5234 8.08173 76.8432L8.33738 76.8557C8.35395 76.5169 8.37306 76.1776 8.39474 75.8379C8.41641 75.4982 8.44058 75.1592 8.46721 74.8211L8.21204 74.801C8.2655 74.1221 8.32888 73.4462 8.40201 72.7736L8.65647 72.8013C8.72995 72.1255 8.81332 71.4529 8.90643 70.7838L8.65291 70.7485C8.74667 70.0747 8.85026 69.4043 8.96353 68.7374L9.21587 68.7803C9.32967 68.1103 9.45328 67.444 9.58653 66.7814L9.3356 66.731C9.46985 66.0634 9.61386 65.3996 9.76747 64.7397L10.0168 64.7977C10.1705 64.1373 10.3339 63.4808 10.5068 62.8284L10.2593 62.7629C10.4339 62.1041 10.6181 61.4496 10.8117 60.7994L11.057 60.8724C11.2504 60.2231 11.4533 59.578 11.6654 58.9374L11.4224 58.857C11.6366 58.2103 11.8602 57.5682 12.0931 56.9308L12.3335 57.0187C12.5662 56.3819 12.8081 55.7498 13.0592 55.1225L12.8216 55.0274C13.0743 54.396 13.3363 53.7695 13.6072 53.1481L13.8419 53.2504C14.113 52.6286 14.3931 52.012 14.6822 51.4006L14.4508 51.2912C14.7414 50.6764 15.0411 50.0669 15.3495 49.4628L15.5774 49.5791C15.8856 48.9755 16.2025 48.3774 16.5281 47.7848L16.3038 47.6615C16.6313 47.0653 16.9676 46.4748 17.3123 45.89L17.5328 46.02C17.8767 45.4367 18.2292 44.8592 18.5899 44.2877L18.3735 44.1511C18.7366 43.5758 19.108 43.0065 19.4878 42.4434L19.7 42.5865C20.0786 42.025 20.4655 41.4696 20.8604 40.9205L20.6526 40.7711C21.0495 40.2193 21.4544 39.6738 21.8673 39.1348L22.0705 39.2905C22.4824 38.7528 22.9022 38.2216 23.3296 37.6971L23.1312 37.5353C23.5606 37.0085 23.9977 36.4884 24.4423 35.9752L24.6358 36.1428C25.0791 35.631 25.53 35.1261 25.9883 34.6283L25.8 34.4549C26.2602 33.9549 26.7279 33.4619 27.2027 32.9761L27.3857 33.1551C27.8589 32.671 28.3393 32.1942 28.8267 31.7247L28.6491 31.5403C29.1385 31.0689 29.6349 30.6049 30.1381 30.1484L30.3101 30.338C30.8114 29.8833 31.3196 29.4361 31.8343 28.9966L31.6681 28.8019C32.1849 28.3608 32.7082 27.9274 33.238 27.5019L33.3983 27.7015C33.9259 27.2777 34.4599 26.8619 35.0002 26.454L34.846 26.2497C35.3882 25.8405 35.9366 25.4393 36.4911 25.0463L36.6391 25.2551C37.1911 24.8639 37.7493 24.4808 38.3132 24.1061L38.1716 23.8929C38.7372 23.5171 39.3086 23.1496 39.8857 22.7907L40.0209 23.0081C40.5955 22.6507 41.1757 22.3018 41.7615 21.9616L41.6329 21.7403C42.2199 21.3993 42.8124 21.067 43.4102 20.7434L43.5321 20.9685C44.1269 20.6466 44.7269 20.3335 45.332 20.0293L45.2171 19.8006C45.8238 19.4955 46.4357 19.1994 47.0525 18.9124L47.1605 19.1444C47.7732 18.8592 48.3908 18.5831 49.0131 18.3161L48.9122 18.0809C49.536 17.8132 50.1645 17.5547 50.7975 17.3056L50.8913 17.5438C51.5204 17.2962 52.154 17.0578 52.7919 16.8289L52.7054 16.588C53.3438 16.3589 53.9865 16.1391 54.6332 15.929L54.7123 16.1724C55.3555 15.9634 56.0028 15.7639 56.6539 15.574L56.5823 15.3283C57.2331 15.1385 57.8878 14.9583 58.5462 14.7879L58.6104 15.0356C59.2644 14.8663 59.9222 14.7067 60.5834 14.5568L60.5268 14.3072C61.1886 14.1572 61.8539 14.017 62.5226 13.8868L62.5715 14.138C63.2338 14.009 63.8994 13.8898 64.5681 13.7805L64.5268 13.5279C65.1964 13.4184 65.869 13.3189 66.5446 13.2295L66.5782 13.4833C67.2472 13.3947 67.9192 13.3161 68.5938 13.2475L68.5679 12.9929C69.242 12.9244 69.9187 12.8659 70.5979 12.8176L70.6161 13.0729C71.2902 13.025 71.9669 12.987 72.6459 12.9593L72.6354 12.7036C73.3112 12.676 73.9894 12.6584 74.6697 12.6511L74.6724 12.907C75.348 12.8997 76.0257 12.9025 76.7053 12.9155L76.7102 12.6596C77.3867 12.6725 78.0651 12.6956 78.7453 12.7288L78.7328 12.9845C79.0716 13.001 79.4109 13.0202 79.7506 13.0418C80.0903 13.0635 80.4293 13.0877 80.7675 13.1143L80.7876 12.8591C81.4665 12.9126 82.1423 12.976 82.8149 13.0491L82.7872 13.3036C83.463 13.377 84.1356 13.4604 84.8047 13.5535L84.84 13.3C85.5138 13.3938 86.1842 13.4974 86.8511 13.6106L86.8082 13.863C87.4782 13.9768 88.1445 14.1004 88.8071 14.2336L88.8576 13.9827C89.5252 14.1169 90.189 14.261 90.8488 14.4146L90.7908 14.6639C91.4512 14.8176 92.1077 14.981 92.7601 15.1539L92.8257 14.9064C93.4844 15.081 94.1389 15.2652 94.7891 15.4588L94.7161 15.7041C95.3655 15.8975 96.0105 16.1003 96.6511 16.3125L96.7316 16.0695C97.3782 16.2837 98.0203 16.5073 98.6577 16.7402L98.5699 16.9806C99.2067 17.2133 99.8387 17.4552 100.466 17.7063L100.561 17.4687C101.193 17.7214 101.819 17.9834 102.44 18.2543L102.338 18.489C102.96 18.7601 103.577 19.0402 104.188 19.3293L104.297 19.0979C104.912 19.3885 105.522 19.6882 106.126 19.9965L106.009 20.2245C106.613 20.5327 107.211 20.8496 107.804 21.1752L107.927 20.9509C108.523 21.2784 109.114 21.6147 109.698 21.9594L109.568 22.1799C110.152 22.5238 110.729 22.8763 111.301 23.237L111.437 23.0206C112.013 23.3836 112.582 23.7551 113.145 24.1349L113.002 24.3471C113.564 24.7257 114.119 25.1126 114.668 25.5075L114.817 25.2997C115.369 25.6966 115.915 26.1015 116.454 26.5144L116.298 26.7176C116.836 27.1295 117.367 27.5492 117.891 27.9767L118.053 27.7783C118.58 28.2077 119.1 28.6448 119.613 29.0894L119.446 29.2829C119.957 29.7262 120.462 30.1771 120.96 30.6354L121.134 30.4471C121.634 30.9073 122.127 31.375 122.612 31.8498L122.433 32.0328C122.918 32.506 123.394 32.9864 123.864 33.4738L124.048 33.2962C124.52 33.7856 124.984 34.282 125.44 34.7852L125.251 34.9572C125.705 35.4585 126.152 35.9667 126.592 36.4814L126.787 36.3152C127.228 36.8319 127.661 37.3553 128.087 37.8851L127.887 38.0454C128.311 38.573 128.727 39.107 129.134 39.6473L129.339 39.4931C129.748 40.0353 130.149 40.5837 130.542 41.1382L130.333 41.2862C130.725 41.8382 131.108 42.3964 131.482 42.9603L131.696 42.8187C132.071 43.3842 132.439 43.9557 132.798 44.5328L132.58 44.668C132.938 45.2426 133.287 45.8228 133.627 46.4085L133.848 46.28C134.189 46.867 134.522 47.4595 134.845 48.0573L134.62 48.1792C134.942 48.774 135.255 49.374 135.559 49.9791L135.788 49.8641C136.093 50.4709 136.389 51.0828 136.676 51.6996L136.444 51.8076C136.729 52.4203 137.005 53.0379 137.272 53.6602L137.508 53.5593C137.775 54.1831 138.034 54.8116 138.283 55.4446L138.045 55.5384C138.292 56.1675 138.531 56.8011 138.76 57.439L139.001 57.3525C139.23 57.9909 139.449 58.6336 139.66 59.2803L139.416 59.3594C139.625 60.0026 139.825 60.6499 140.015 61.301L140.26 61.2294C140.45 61.8802 140.63 62.5349 140.801 63.1933L140.553 63.2575C140.722 63.9115 140.882 64.5693 141.032 65.2305L141.281 65.1739C141.431 65.8357 141.571 66.501 141.702 67.1696L141.451 67.2186C141.58 67.8809 141.699 68.5465 141.808 69.2152L142.061 69.1739C142.17 69.8435 142.27 70.5161 142.359 71.1917L142.105 71.2253C142.194 71.8943 142.272 72.5663 142.341 73.2409L142.596 73.215C142.664 73.8891 142.723 74.5658 142.771 75.245L142.516 75.2632C142.564 75.9373 142.601 76.614 142.629 77.293L142.885 77.2825C142.913 77.9584 142.93 78.6365 142.937 79.3168L142.682 79.3195C142.689 79.9951 142.686 80.6728 142.673 81.3524L142.929 81.3573C142.916 82.0338 142.893 82.7122 142.86 83.3924L142.604 83.3799C142.587 83.7187 142.568 84.058 142.547 84.3977Z" stroke="var(--dt-color-surface-contrast)" stroke-width="0.511917" stroke-dasharray="2.05 2.05" id="ellips_05"/>
<circle cx="83.0038" cy="86.4895" r="7.06223" fill="url(#paint0_linear_1103_139)" id="ellips_05"/>
<path d="M21.1785 115.53C23.6864 115.264 25.9351 117.081 26.2011 119.589C26.4671 122.097 24.6497 124.346 22.1419 124.612C19.634 124.878 17.3853 123.06 17.1193 120.553C16.8533 118.045 18.6706 115.796 21.1785 115.53Z" fill="url(#paint1_linear_1103_139)" id="ellips_05"/>
<path d="M84.7126 15.9129C83.2223 17.7982 80.4858 18.1183 78.6005 16.628C76.7152 15.1377 76.3951 12.4012 77.8854 10.5159C79.3757 8.63064 82.1122 8.31048 83.9975 9.80081C85.8828 11.2911 86.2029 14.0276 84.7126 15.9129Z" fill="url(#paint2_linear_1103_139)" id="ellips_05"/>
<circle cx="24.0741" cy="83.4055" r="3.89831" fill="var(--dt-color-surface-contrast)" id="ellips_05"/>
<circle cx="99.636" cy="67.4214" r="3.89831" fill="var(--dt-color-surface-contrast)" id="ellips_05"/>
<circle cx="55.8511" cy="128.302" r="2.20778" stroke="var(--dt-color-surface-contrast)" stroke-width="0.511917" id="ellips_05"/>
<circle cx="130.405" cy="74.8646" r="2.20778" stroke="var(--dt-color-surface-contrast)" stroke-width="0.511917" id="ellips_05"/>
<circle cx="36.0875" cy="67.7529" r="2.20778" stroke="var(--dt-color-surface-contrast)" stroke-width="0.511917" id="ellips_05"/>
<path d="M117.37 27.0679L126.348 27.6408L125.775 36.6183L116.797 36.0455L117.37 27.0679Z" fill="var(--dt-color-surface-contrast)" id="ellips_05"/>
<path d="M110.243 86.6685L114.448 82.9676L118.149 87.1729L113.943 90.8738L110.243 86.6685Z" stroke="var(--dt-color-surface-contrast)" stroke-width="0.511917" id="ellips_05"/>
<path d="M65.0721 146.766L73.4431 139.399L80.8099 147.77L72.4389 155.137L65.0721 146.766Z" fill="var(--dt-color-surface-contrast)" id="ellips_05"/>
<path d="M56.0692 63.7199L55.0751 79.2995M47.7802 71.0146L63.3597 72.0087M50.4116 65.6481L60.7284 77.3711M49.7085 76.668L61.4315 66.3512" stroke="var(--dt-color-surface-contrast)" stroke-width="1.16313" stroke-miterlimit="10" id="ellips_05"/>
<path d="M48.1023 110.331L47.5342 119.233M43.3657 114.499L52.2683 115.067M44.8694 111.432L50.7647 118.131M44.4676 117.729L51.1665 111.834" stroke="var(--dt-color-surface-contrast)" stroke-width="0.664647" stroke-miterlimit="10" id="ellips_05"/>
<path d="M35.7463 21.4501L35.1782 30.3527M31.0097 25.6185L39.9123 26.1865M32.5134 22.5518L38.4087 29.2507M32.1116 28.8489L38.8104 22.9536" stroke="var(--dt-color-surface-contrast)" stroke-width="0.664647" stroke-miterlimit="10" id="ellips_05"/>
<path d="M124.279 118.469L123.285 134.048M115.99 125.764L131.569 126.758M118.621 120.397L128.938 132.12M117.918 131.417L129.641 121.1" stroke="var(--dt-color-surface-contrast)" stroke-width="1.16313" stroke-miterlimit="10" id="ellips_05"/>
<defs>
<linearGradient id="paint0_linear_1103_139" x1="81.0421" y1="80.9967" x2="84.3378" y2="95.0427" gradientUnits="userSpaceOnUse">
<stop stop-color="#7C52FF"/>
<stop offset="0.520863" stop-color="#F9008E"/>
<stop offset="1" stop-color="#F6AB3C"/>
</linearGradient>
<linearGradient id="paint1_linear_1103_139" x1="18.2622" y1="121.707" x2="27.0687" y2="118.63" gradientUnits="userSpaceOnUse">
<stop stop-color="#7C52FF"/>
<stop offset="0.520863" stop-color="#F9008E"/>
<stop offset="1" stop-color="#F6AB3C"/>
</linearGradient>
<linearGradient id="paint2_linear_1103_139" x1="82.4496" y1="9.80981" x2="78.6756" y2="17.8584" gradientUnits="userSpaceOnUse">
<stop stop-color="#7C52FF"/>
<stop offset="0.520863" stop-color="#F9008E"/>
<stop offset="1" stop-color="#F6AB3C"/>
</linearGradient>
</defs>
</svg>