<svg xmlns="http://www.w3.org/2000/svg" viewBox="0 0 282 257" fill="none">
<path d="M209.921 181.1V179.525C209.921 173.396 204.895 168.37 198.766 168.36H194.693C191.744 168.36 186.186 169.574 181.351 171.51C179.585 172.212 177.91 173.025 176.505 173.918C176.265 175.814 175.452 178.452 172.583 180.649C173.325 184.321 176.586 187.109 180.468 187.109H191.203L191.172 187.119V238.964C191.172 238.964 185.614 242.806 191.172 242.806V242.816H230.115C237.617 242.816 243.336 236.925 243.801 230.028C257.88 227.559 264.784 219.775 267.364 213.965C267.685 213.252 266.782 212.63 266.23 213.172C257.101 222.155 247.401 224.982 243.421 225.808C243.326 225.432 243.215 225.055 243.087 224.679C238.171 210.253 231.119 192.797 209.921 181.1Z" fill="var(--dt-color-magenta-200)" id="dog"/>
<path d="M198.886 189.808C198.254 189.808 197.713 189.557 197.271 189.046C194.442 185.845 196.419 173.115 196.499 172.573L196.99 172.653C196.97 172.784 194.974 185.685 197.642 188.714C198.004 189.126 198.435 189.326 198.947 189.306C199.488 189.286 199.95 189.056 200.351 188.584C203.11 185.384 201.745 173.185 201.735 173.065L202.237 173.005C202.297 173.516 203.641 185.544 200.732 188.915C200.241 189.487 199.649 189.788 198.967 189.808C198.936 189.808 198.916 189.808 198.886 189.808Z" fill="var(--dt-color-link-primary)" id="Vector"/>
<path d="M193.82 242.856L193.329 242.766C193.79 240.128 196.589 239.024 197.321 238.773L198.926 211.928L199.428 211.958L197.803 239.155L197.632 239.205C197.592 239.215 194.282 240.188 193.82 242.856Z" fill="var(--dt-color-link-primary)" id="Vector"/>
<path d="M207.925 242.876L207.444 242.736C208.286 239.867 211.196 237.891 215.86 237.018C218.599 236.506 221.207 236.506 222.21 236.526C221.468 235.001 218.93 229.133 219.572 221.428C219.953 216.904 221.358 214.075 223.765 213.012C228.099 211.106 233.998 215.65 234.239 215.841L233.928 216.232C233.867 216.182 228.019 211.687 223.956 213.463C221.729 214.436 220.425 217.125 220.064 221.458C219.331 230.246 222.812 236.597 222.842 236.667L223.063 237.068L222.602 237.038C222.491 237.038 209.841 236.376 207.925 242.876Z" fill="var(--dt-color-link-primary)" id="Vector"/>
<path d="M206.741 242.876L206.26 242.746L211.025 225.371L211.506 225.501L206.741 242.876Z" fill="var(--dt-color-link-primary)" id="Vector"/>
<path d="M176.505 173.928C176.265 175.834 175.452 178.472 172.583 180.659C172.483 180.147 172.422 179.616 172.422 179.084C172.422 177.218 174.068 175.452 176.505 173.928Z" fill="var(--dt-color-link-primary)" id="Vector"/>
<path d="M38.1264 146.314L80.5814 147.323L80.6114 146.32L29.9005 145.116L14.9731 76.087L14 76.2977L29.0879 146.099L37.1179 146.29L24.5199 243.288L25.5148 243.418L38.1264 146.314Z" fill="var(--dt-color-magenta-200)" id="Vector"/>
<path d="M59.8154 84.574C61.7431 82.3074 63.2226 80.1312 64.3428 78.215L62.4034 77.0502C63.5446 75.6963 63.4118 72.8941 63.2767 70.0442C63.1505 67.3825 63.0224 64.6794 63.9284 63.0758L92.891 84.8651L112.723 85.7377C125.674 86.1389 127.61 94.0842 127.61 94.0842H110.927C110.927 94.0842 101.648 94.1042 94.7364 94.0842C86.5704 94.0641 80.3404 93.9236 76.8394 92.7198C72.5554 91.2451 65.2124 87.4732 59.8154 84.574Z" fill="var(--dt-color-link-primary-inverted)" id="Vector"/>
<path d="M80.4304 227.407C72.5454 223.846 70.5294 218.288 70.5294 218.288L58.8124 210.102L51.0475 240.358L88.4443 242.66L88.4964 243.328L97.0301 243.188L107.276 243.819C107.248 243.549 107.201 243.284 107.137 243.023L140.621 242.475C139.54 236.617 129.879 233.648 120.472 230.758C117.749 229.922 115.048 229.092 112.582 228.2C104.447 225.251 100.002 220.044 100.002 220.044L86.5504 218.359L87.4835 230.331C85.0424 229.366 82.6339 228.405 80.4304 227.407Z" fill="var(--dt-color-surface-contrast)" id="Vector"/>
<path d="M41.1863 32.6793C42.9318 37.3542 47.1552 40.9255 52.4521 41.5876C60.0364 42.5306 66.9584 37.1535 67.9014 29.5594C68.3824 25.6671 67.2084 21.9553 64.9214 19.1364C56.5854 26.4295 48.018 30.4523 41.1863 32.6793Z" fill="var(--dt-color-link-primary-inverted)" id="Vector"/>
<path d="M40.4239 26.1285C40.143 28.4157 40.4239 30.6528 41.1863 32.6692C48.018 30.4522 56.5754 26.4194 64.9214 19.1262C62.7444 16.4477 59.5744 14.5618 55.8734 14.1003C48.2889 13.1573 41.3769 18.5444 40.4239 26.1285Z" fill="var(--dt-color-link-primary)" id="Vector"/>
<path d="M116.033 225.371L111.85 123.989C111.74 121.18 109.553 118.893 106.744 118.652L63.6174 111.249L31.9068 111.73L30.4221 116.164C29.459 121.652 27.2019 137.843 37.7554 143.772C39.7216 144.875 43.5939 145.828 45.851 145.818L73.1763 146.094L53.4251 218.78L82.7595 223.188L82.8084 224.899L116.033 225.371Z" fill="var(--dt-color-link-primary)" id="Vector"/>
<path d="M69.4923 84.2248C70.8866 98.8651 69.9874 112.342 69.9874 112.342L29.6196 109.724C29.6196 109.724 24.7341 41.9988 51.0175 47.396C54.0614 48.0225 57.3505 49.9897 60.1533 53.3572L78.4544 70.2384C78.4544 70.2384 78.2134 78.6451 70.9904 84.6542L69.4923 84.2248Z" fill="var(--dt-color-magenta-200)" id="Vector"/>
<path d="M82.5574 224.909L80.3104 146.179L80.8124 146.159L83.0594 224.889L82.5574 224.909Z" fill="var(--dt-color-surface-primary)" id="Vector"/>
<path d="M68.7734 81.7551C68.7734 81.6547 68.2724 71.342 64.6104 62.4538L65.0724 62.2632C68.7634 71.2316 69.2654 81.6347 69.2754 81.735L68.7734 81.7551Z" fill="var(--dt-color-surface-primary)" id="Vector"/>
<path d="M64.4304 72.275C56.9664 68.6635 51.2883 60.6682 49.7133 57.3577L50.1647 57.137C51.7196 60.3973 57.3074 68.2723 64.6504 71.8236L64.4304 72.275Z" fill="var(--dt-color-surface-primary)" id="Vector"/>
<path d="M91.5464 84.7144L82.5574 84.6642L82.5074 84.6341L75.4854 80.7016L75.7254 80.2603L82.6984 84.1626L91.5464 84.2128V84.7144Z" fill="var(--dt-color-surface-primary)" id="Vector"/>
<path d="M135.014 97.4448L134.241 95.5889L172.643 79.6383C174.268 78.9662 176.094 79.1467 177.549 80.1198C179.003 81.0929 179.876 82.7181 179.876 84.4736V95.6291H177.87V84.4736C177.87 83.3802 177.348 82.3971 176.435 81.7951C175.522 81.1832 174.419 81.0829 173.406 81.4942L135.014 97.4448Z" fill="var(--dt-color-surface-bold)" id="Vector"/>
<path d="M132.596 95.1375L131.813 93.2817L172.663 75.9566L179.746 36.1302L181.722 36.4814L174.449 77.3812L132.596 95.1375Z" fill="var(--dt-color-link-primary)" id="Vector"/>
<path d="M86.1524 98.0387H219.014V94.0962H86.1524V98.0387Z" fill="var(--dt-color-link-primary)" id="Vector"/>
<path fill-rule="evenodd" clip-rule="evenodd" d="M211.592 78.5455L211.592 77.6841H189.27V83.2333C189.27 89.615 194.265 93.941 200.426 93.941C205.066 93.941 209.05 91.482 210.734 87.5461C211.012 87.6001 211.299 87.6283 211.592 87.6283C214.079 87.6283 216.101 85.5927 216.101 83.0869C216.101 80.5812 214.079 78.5455 211.592 78.5455ZM211.22 86.1373C211.462 85.2282 211.592 84.257 211.592 83.2333L211.592 80.0138C213.273 80.0138 214.643 81.3936 214.643 83.0869C214.643 84.7802 213.273 86.1601 211.592 86.1601C211.466 86.1601 211.342 86.1523 211.22 86.1373Z" fill="var(--dt-color-surface-bold)" id="Vector"/>
<path fill-rule="evenodd" clip-rule="evenodd" d="M198.168 57.6835C197.875 57.83 197.537 58.19 197.299 58.9222C197.184 59.277 197.132 59.6349 197.135 59.9887C197.656 59.9373 198.114 59.7979 198.463 59.5442C199.016 59.1411 199.216 58.7373 199.245 58.4296C199.275 58.1217 199.14 57.8678 198.937 57.724C198.735 57.5817 198.456 57.5395 198.168 57.6835ZM197.19 60.5804C197.79 60.5215 198.358 60.3559 198.813 60.0245C199.461 59.5519 199.787 59.0089 199.837 58.4863C199.887 57.964 199.655 57.5043 199.28 57.2387C198.902 56.9717 198.389 56.9089 197.902 57.152C197.421 57.3926 197.003 57.9119 196.734 58.7388C196.596 59.1661 196.535 59.5929 196.539 60.0111C196.327 60.0075 196.109 59.9927 195.887 59.9682C194.878 59.8564 193.859 59.5501 193.167 59.2714C193.015 59.2102 192.842 59.2838 192.781 59.436C192.72 59.5882 192.793 59.7613 192.945 59.8226C193.675 60.1165 194.747 60.4396 195.822 60.5587C196.075 60.5868 196.333 60.6039 196.59 60.6059C196.812 62.0193 197.743 63.2849 198.854 64.0714C198.73 64.2824 198.627 64.502 198.548 64.7263C198.31 65.4071 198.29 66.1473 198.592 66.8217C198.894 67.4987 199.504 68.072 200.453 68.448C200.527 68.4773 200.603 68.5045 200.68 68.5296C200.58 68.8448 200.511 69.1763 200.465 69.5145C200.355 70.3322 200.374 71.2171 200.419 72.0571C200.433 72.3229 200.45 72.5828 200.466 72.8351C200.501 73.3917 200.535 73.9116 200.535 74.3784C200.535 74.5425 200.668 74.6755 200.832 74.6755C200.996 74.6755 201.129 74.5425 201.129 74.3784C201.129 73.8921 201.094 73.3409 201.058 72.774C201.042 72.5262 201.026 72.2753 201.012 72.0255C200.968 71.192 200.952 70.3536 201.054 69.5941C201.099 69.2654 201.165 68.9567 201.258 68.673C202.153 68.8329 203.155 68.7456 203.951 68.4045C204.327 68.2435 204.636 68.0337 204.857 67.8033C205.073 67.5783 205.229 67.3063 205.236 67.023C205.244 66.7102 205.069 66.4548 204.772 66.3118C204.495 66.178 204.113 66.139 203.645 66.1881C202.584 66.2991 201.833 66.7027 201.322 67.3156C201.154 67.518 201.015 67.7398 200.9 67.976C200.822 67.9517 200.745 67.9249 200.672 67.8956C199.837 67.5648 199.361 67.0877 199.134 66.5792C198.906 66.0682 198.911 65.4881 199.109 64.9225C199.173 64.74 199.256 64.5608 199.357 64.3881C200.045 64.7709 200.795 64.9858 201.511 64.9481C202.409 64.9007 203.23 64.4546 203.767 63.5065C203.903 63.2666 203.939 63.0143 203.843 62.7793C203.753 62.5578 203.567 62.4061 203.376 62.3051C202.995 62.1041 202.463 62.0331 202.005 62.0681C200.862 62.1556 199.855 62.7632 199.193 63.5833C198.191 62.873 197.399 61.7745 197.19 60.5804ZM199.702 63.8997C200.297 64.2199 200.916 64.3845 201.479 64.3547C202.179 64.3179 202.815 63.9824 203.25 63.2137C203.318 63.0933 203.305 63.0329 203.293 63.0035C203.275 62.9606 203.223 62.8963 203.098 62.8304C202.847 62.6976 202.435 62.631 202.05 62.6605C201.109 62.7326 200.268 63.2283 199.702 63.8997ZM201.499 68.1102C202.246 68.2186 203.069 68.1358 203.717 67.8584C204.033 67.7231 204.272 67.5553 204.428 67.3922C204.59 67.2236 204.64 67.0858 204.642 67.0081C204.643 66.9598 204.63 66.9027 204.514 66.8469C204.379 66.7817 204.125 66.7352 203.707 66.779C202.775 66.8765 202.175 67.2197 201.779 67.6958C201.673 67.8227 201.58 67.9612 201.499 68.1102Z" fill="var(--dt-color-surface-bold)" id="Vector"/>
</svg>