<svg aria-hidden="true" focusable="false" aria-label="Publish" class="publish" viewBox="0 0 96 96" fill="none">
<g clip-path="url(#clip0_1131_235)" id="header">
<path d="M48 96C74.5097 96 96 74.5097 96 48C96 21.4903 74.5097 0 48 0C21.4903 0 0 21.4903 0 48C0 74.5097 21.4903 96 48 96Z" fill="url(#paint0_linear_1131_235)" id="Ellipse 24"/>
<path d="M8.80734 28.6239H85.4312V73.1009C85.4312 75.0466 83.8539 76.6239 81.9083 76.6239H12.3303C10.3846 76.6239 8.80734 75.0466 8.80734 73.1009V28.6239Z" fill="var(--dt-color-neutral-white)" id="Ellipse 24"/>
<path d="M8.80734 23.3395C8.80734 21.3938 10.3846 19.8165 12.3303 19.8165H81.9083C83.8539 19.8165 85.4312 21.3938 85.4312 23.3395V26.8624H8.80734V23.3395Z" fill="var(--dt-color-brand-purple)" id="Ellipse 24"/>
<circle cx="13.1495" cy="23.3395" r="1.3211" fill="var(--dt-color-neutral-white)" id="Ellipse 24"/>
<circle cx="17.1373" cy="23.3395" r="1.3211" fill="var(--dt-color-neutral-white)" id="Ellipse 24"/>
<circle cx="21.1247" cy="23.3395" r="1.3211" fill="var(--dt-color-neutral-white)" id="Ellipse 24"/>
<path fill-rule="evenodd" clip-rule="evenodd" d="M80.0724 55.0459H24.944V52.4037H80.0724V55.0459Z" fill="var(--dt-color-surface-bold)" id="Ellipse 24"/>
<path fill-rule="evenodd" clip-rule="evenodd" d="M25.1009 50.2018H52.4037V51.0826H25.1009V50.2018Z" fill="var(--dt-color-surface-bold)" id="Ellipse 24"/>
<path fill-rule="evenodd" clip-rule="evenodd" d="M25.1009 57.6881H52.4037V58.5688H25.1009V57.6881Z" fill="var(--dt-color-surface-bold)" id="Ellipse 24"/>
<path fill-rule="evenodd" clip-rule="evenodd" d="M25.1009 65.1743H52.4037V66.0551H25.1009V65.1743Z" fill="var(--dt-color-surface-bold)" id="Ellipse 24"/>
<path fill-rule="evenodd" clip-rule="evenodd" d="M80.0724 62.5321H24.944V59.8899H80.0724V62.5321Z" fill="var(--dt-color-surface-bold)" id="Ellipse 24"/>
<path fill-rule="evenodd" clip-rule="evenodd" d="M80.0724 70.0184H24.944V67.3762H80.0724V70.0184Z" fill="var(--dt-color-surface-bold)" id="Ellipse 24"/>
<path fill-rule="evenodd" clip-rule="evenodd" d="M40.1035 40.5138H23.3394V38.4907H40.1035V40.5138Z" fill="var(--dt-color-border-brand-subtle)" id="Ellipse 24"/>
<circle cx="16.8515" cy="52.7307" r="2.52883" fill="var(--dt-color-border-brand-subtle)" id="Ellipse 24"/>
<circle cx="16.8515" cy="60.2169" r="2.52883" fill="var(--dt-color-border-brand-subtle)" id="Ellipse 24"/>
<circle cx="16.8515" cy="67.7031" r="2.52883" fill="var(--dt-color-border-brand-subtle)" id="Ellipse 24"/>
<path d="M12.4958 47.7094C16.965 47.7094 20.588 44.0864 20.588 39.6172C20.588 35.148 16.965 31.5249 12.4958 31.5249C8.02653 31.5249 4.4035 35.148 4.4035 39.6172C4.4035 44.0864 8.02653 47.7094 12.4958 47.7094Z" fill="var(--dt-color-border-brand-subtle)" id="Ellipse 24"/>
<path d="M19.5154 43.646C18.1187 46.0743 15.4982 47.7094 12.4958 47.7094C10.7144 47.7094 9.06748 47.1339 7.73083 46.1585L7.7334 46.1356L7.72084 46.1512C6.80459 45.4805 6.03467 44.6217 5.46793 43.6317C7.25484 39.6964 9.70972 38.8527 12.5845 38.8189H12.5858C15.4862 38.8529 17.5409 39.6521 19.5154 43.646Z" fill="var(--dt-color-magenta-200)" id="Ellipse 24"/>
<path d="M10.2932 38.5516L9.81175 38.7768C9.72068 38.8193 9.6125 38.78 9.56996 38.6891L7.60395 34.4856C7.5614 34.3945 7.60074 34.2863 7.6916 34.2438L8.17305 34.0186C8.26413 33.9761 8.37231 34.0154 8.41485 34.1063L10.3809 38.3098C10.4234 38.4007 10.3843 38.5091 10.2932 38.5516Z" fill="var(--dt-color-border-brand-strong)" id="Ellipse 24"/>
<path fill-rule="evenodd" clip-rule="evenodd" d="M4.95895 42.5694C5.37332 43.6265 6.00364 44.5751 6.79562 45.3611L9.41066 39.1152C9.49783 38.914 9.52168 38.7004 9.49037 38.4976L9.49281 38.498L9.48915 38.4898C9.45846 38.2997 9.37936 38.1193 9.25858 37.9675C9.13362 37.6816 8.98079 37.3271 8.85813 37.0277C9.00933 37.0215 9.13 36.8969 9.13 36.7442C9.13 36.5968 9.01759 36.4757 8.87383 36.4618C8.9574 36.4125 9.01345 36.3215 9.01345 36.2174C9.01345 36.0853 8.92319 35.9743 8.80098 35.9427C8.85102 35.8915 8.88186 35.8215 8.88186 35.7443C8.88186 35.6149 8.79523 35.5058 8.6768 35.4717C8.73005 35.4201 8.76315 35.3478 8.76315 35.2679C8.76315 35.1112 8.63613 34.9842 8.47945 34.9842C8.44206 34.9842 8.40637 34.9914 8.37368 35.0045C8.29813 35.0089 8.1716 35.0975 7.96442 35.3412C7.36436 36.0468 7.3844 38.1082 7.38479 38.1434L4.95895 42.5694ZM8.70223 36.4998C8.68593 36.4982 8.67003 36.4952 8.65466 36.491L8.66575 36.5254C8.67719 36.5159 8.68938 36.5074 8.70223 36.4998Z" fill="var(--dt-color-brand-purple)" id="Ellipse 24"/>
<path d="M9.9862 36.7747C9.9862 36.9314 9.85918 37.0584 9.7025 37.0584C9.54582 37.0584 9.4188 36.9314 9.4188 36.7747C9.4188 36.618 9.54582 36.491 9.7025 36.491C9.85918 36.491 9.9862 36.618 9.9862 36.7747Z" fill="var(--dt-color-brand-purple)" id="Ellipse 24"/>
<path d="M10.9449 36.2692C11.3096 36.809 11.9558 37.1308 12.6474 37.0516C13.6387 36.9374 14.3498 36.0434 14.2356 35.052C14.224 34.9469 14.2032 34.8457 14.1734 34.7484C13.7841 34.6822 13.4623 34.4811 13.2131 34.254C12.4618 35.1961 11.6404 35.8397 10.9449 36.2692Z" fill="var(--dt-color-brand-purple)" id="Ellipse 24"/>
<path d="M11.0074 34.1177C11.3123 33.7349 11.747 33.4923 12.2336 33.4365C12.6968 33.3833 13.1562 33.5078 13.5312 33.7842L13.5325 33.7829L13.5506 33.7972C13.5519 33.7985 13.5532 33.7985 13.5545 33.7998L13.5753 33.8154L13.574 33.8167C13.8763 34.0541 14.0943 34.372 14.202 34.7393L14.2137 34.7795L14.1722 34.773C13.8348 34.7159 13.5143 34.5511 13.2185 34.289C12.5787 35.087 11.8235 35.7592 10.9619 36.2912L10.9399 36.3042L10.9256 36.2834C10.7595 36.0382 10.657 35.7631 10.6233 35.4659C10.5649 34.9793 10.7024 34.5005 11.0074 34.1177Z" fill="var(--dt-color-border-brand-strong)" id="Ellipse 24"/>
<path d="M10.7167 33.3326C10.0273 33.3326 9.46842 32.7737 9.46842 32.0843C9.46842 31.3949 10.0273 30.836 10.7167 30.836C11.4061 30.836 11.965 31.3949 11.965 32.0843C11.965 32.7737 11.4061 33.3326 10.7167 33.3326Z" fill="var(--dt-color-border-brand-strong)" id="Ellipse 24"/>
<path d="M11.9656 32.8328L12.2223 33.3062L11.0713 33.9302L10.8146 33.4568L11.9656 32.8328Z" fill="var(--dt-color-neutral-white)" id="Ellipse 24"/>
<path d="M80.0923 86.8734C75.623 86.8734 72 83.2504 72 78.7812C72 74.312 75.623 70.6889 80.0923 70.6889C84.5615 70.6889 88.1845 74.312 88.1845 78.7812C88.1845 83.2504 84.5615 86.8734 80.0923 86.8734Z" fill="var(--dt-color-border-brand-subtle)" id="Ellipse 24"/>
<path d="M73.0726 82.81C74.4693 85.2383 77.0898 86.8734 80.0922 86.8734C81.8736 86.8734 83.5205 86.2979 84.8572 85.3225L84.8546 85.2996L84.8672 85.3152C85.7834 84.6445 86.5533 83.7857 87.1201 82.7957C85.3332 78.8604 82.8783 78.0167 80.0035 77.9829H80.0022C77.1018 78.0169 75.0471 78.8161 73.0726 82.81Z" fill="var(--dt-color-magenta-200)" id="Ellipse 24"/>
<path d="M82.2948 77.7156L82.7763 77.9408C82.8673 77.9833 82.9755 77.944 83.0181 77.8531L84.9841 73.6496C85.0266 73.5585 84.9873 73.4503 84.8964 73.4078L84.415 73.1827C84.3239 73.1401 84.2157 73.1794 84.1732 73.2703L82.2072 77.4738C82.1646 77.5647 82.2037 77.6731 82.2948 77.7156Z" fill="var(--dt-color-border-brand-strong)" id="Ellipse 24"/>
<path fill-rule="evenodd" clip-rule="evenodd" d="M87.6291 81.7334C87.2147 82.7905 86.5844 83.7391 85.7924 84.5251L83.1774 78.2792C83.0902 78.078 83.0663 77.8644 83.0976 77.6616L83.0952 77.662L83.0989 77.6538C83.1295 77.4637 83.2087 77.2834 83.3294 77.1315C83.4544 76.8456 83.6072 76.4911 83.7299 76.1917C83.5787 76.1855 83.458 76.0609 83.458 75.9082C83.458 75.7608 83.5704 75.6397 83.7142 75.6258C83.6306 75.5765 83.5746 75.4855 83.5746 75.3814C83.5746 75.2493 83.6648 75.1383 83.787 75.1067C83.737 75.0556 83.7062 74.9855 83.7062 74.9083C83.7062 74.7789 83.7928 74.6698 83.9112 74.6357C83.858 74.5841 83.8249 74.5118 83.8249 74.4319C83.8249 74.2752 83.9519 74.1482 84.1086 74.1482C84.1459 74.1482 84.1816 74.1554 84.2143 74.1685C84.2899 74.1729 84.4164 74.2615 84.6236 74.5052C85.2237 75.2108 85.2036 77.2722 85.2032 77.3074L87.6291 81.7334ZM83.8858 75.6638C83.9021 75.6622 83.918 75.6592 83.9334 75.655L83.9223 75.6894C83.9108 75.6799 83.8986 75.6714 83.8858 75.6638Z" fill="var(--dt-color-brand-purple)" id="Ellipse 24"/>
<path d="M82.6018 75.9387C82.6018 76.0954 82.7288 76.2224 82.8855 76.2224C83.0422 76.2224 83.1692 76.0954 83.1692 75.9387C83.1692 75.782 83.0422 75.655 82.8855 75.655C82.7288 75.655 82.6018 75.782 82.6018 75.9387Z" fill="var(--dt-color-brand-purple)" id="Ellipse 24"/>
<path d="M81.6431 75.4332C81.2785 75.973 80.6323 76.2948 79.9406 76.2156C78.9493 76.1014 78.2382 75.2074 78.3524 74.216C78.364 74.1109 78.3848 74.0097 78.4147 73.9124C78.8039 73.8462 79.1257 73.6451 79.3749 73.418C80.1262 74.3601 80.9476 75.0037 81.6431 75.4332Z" fill="var(--dt-color-brand-purple)" id="Ellipse 24"/>
<path d="M81.5807 73.2817C81.2757 72.8989 80.841 72.6563 80.3544 72.6005C79.8912 72.5473 79.4318 72.6718 79.0568 72.9482L79.0555 72.9469L79.0374 72.9612C79.0361 72.9625 79.0348 72.9625 79.0335 72.9638L79.0127 72.9794L79.014 72.9807C78.7117 73.2181 78.4937 73.536 78.386 73.9033L78.3743 73.9435L78.4158 73.937C78.7532 73.8799 79.0737 73.7151 79.3696 73.453C80.0093 74.251 80.7645 74.9232 81.6261 75.4552L81.6481 75.4682L81.6624 75.4474C81.8285 75.2022 81.931 74.9271 81.9647 74.6299C82.0231 74.1433 81.8856 73.6645 81.5807 73.2817Z" fill="var(--dt-color-border-brand-strong)" id="Ellipse 24"/>
<path fill-rule="evenodd" clip-rule="evenodd" d="M55.4597 44.4974C58.3452 44.4974 60.6844 42.1583 60.6844 39.2727C60.6844 36.3872 58.3452 34.048 55.4597 34.048C52.5741 34.048 50.235 36.3872 50.235 39.2727C50.235 42.1583 52.5741 44.4974 55.4597 44.4974Z" fill="var(--dt-color-border-brand-strong)" id="Ellipse 24"/>
<path d="M55.6068 38.755L57.6032 44.027C59.4247 43.2145 60.6946 41.3856 60.6946 39.2596C60.6946 36.419 58.4276 34.1087 55.6068 34.0446V38.755Z" fill="var(--dt-color-brand-purple)" id="Ellipse 24"/>
<g filter="url(#filter0_d_1131_235)" id="Ellipse 24">
<path d="M55.6068 38.6765L55.6117 38.6714L59.4192 42.6746C60.2137 41.7594 60.6946 40.5643 60.6946 39.2566C60.6946 36.4176 58.4276 34.1087 55.6068 34.0446V38.6765Z" fill="var(--dt-color-border-brand-subtle)" id="Ellipse 25"/>
</g>
<path d="M69.441 44.49C72.3259 44.49 74.6645 42.151 74.6645 39.2656C74.6645 36.3802 72.3259 34.0411 69.441 34.0411C66.5561 34.0411 64.2175 36.3802 64.2175 39.2656C64.2175 42.151 66.5561 44.49 69.441 44.49Z" fill="var(--dt-color-border-brand-strong)" id="Ellipse 24"/>
<path d="M73.1338 42.9592C74.0798 42.0131 74.6643 40.7075 74.6643 39.2656C74.6643 36.3798 72.3261 34.0411 69.4408 34.0411V39.2656L73.1338 42.9592Z" fill="var(--dt-color-border-brand-subtle)" id="Ellipse 24"/>
<path d="M69.441 42.8093C71.3977 42.8093 72.9839 41.2228 72.9839 39.2657C72.9839 37.3087 71.3977 35.7222 69.441 35.7222C67.4843 35.7222 65.8981 37.3087 65.8981 39.2657C65.8981 41.2228 67.4843 42.8093 69.441 42.8093Z" fill="var(--dt-color-neutral-white)" id="Ellipse 24"/>
<path d="M83.411 44.484C86.2959 44.484 88.6345 42.1449 88.6345 39.2595C88.6345 36.3742 86.2959 34.0351 83.411 34.0351C80.5261 34.0351 78.1875 36.3742 78.1875 39.2595C78.1875 42.1449 80.5261 44.484 83.411 44.484Z" fill="var(--dt-color-border-brand-subtle)" id="Ellipse 24"/>
<path d="M87.1038 42.9532C88.0498 42.0071 88.6343 40.7015 88.6343 39.2595C88.6343 36.3738 86.2961 34.0351 83.4108 34.0351V39.2595L87.1038 42.9532Z" fill="var(--dt-color-brand-purple)" id="Ellipse 24"/>
<path d="M83.411 42.8032C85.3677 42.8032 86.9539 41.2167 86.9539 39.2597C86.9539 37.3027 85.3677 35.7162 83.411 35.7162C81.4543 35.7162 79.8681 37.3027 79.8681 39.2597C79.8681 41.2167 81.4543 42.8032 83.411 42.8032Z" fill="var(--dt-color-neutral-white)" id="Ellipse 24"/>
</g>
<defs>
<filter id="filter0_d_1131_235" x="54.5602" y="33.1724" width="7.18108" height="10.7233" filterUnits="userSpaceOnUse" color-interpolation-filters="sRGB">
<feFlood flood-opacity="0" result="BackgroundImageFix" id="Ellipse 25"/>
<feColorMatrix in="SourceAlpha" type="matrix" values="0 0 0 0 0 0 0 0 0 0 0 0 0 0 0 0 0 0 127 0" result="hardAlpha" id="Ellipse 25"/>
<feOffset dy="0.17444" id="Ellipse 25"/>
<feGaussianBlur stdDeviation="0.523319" id="Ellipse 25"/>
<feColorMatrix type="matrix" values="0 0 0 0 0 0 0 0 0 0 0 0 0 0 0 0 0 0 0.1 0" id="Ellipse 25"/>
<feBlend mode="normal" in2="BackgroundImageFix" result="effect1_dropShadow_1131_235" id="Ellipse 25"/>
<feBlend mode="normal" in="SourceGraphic" in2="effect1_dropShadow_1131_235" result="shape" id="Ellipse 25"/>
</filter>
<linearGradient id="paint0_linear_1131_235" x1="82" y1="87" x2="6.5" y2="7.5" gradientUnits="userSpaceOnUse">
<stop stop-color="var(--dt-color-surface-moderate)"/>
<stop offset="1" stop-color="var(--dt-color-surface-moderate)" stop-opacity="0"/>
</linearGradient>
<clipPath id="Ellipse 24">
<rect width="96" height="96" fill="var(--dt-color-neutral-white)" id="Ellipse 25"/>
</clipPath>
</defs>
</svg>