<svg aria-hidden="true" focusable="false" aria-label="Graphic: Restricted access abstract illustration" class="vectoVortex" viewBox="0 0 200 169" fill="none">
<rect x="64.5669" y="8.44641" width="126.38" height="126.38" stroke="var(--dt-color-surface-contrast)" stroke-width="0.5" stroke-dasharray="3 3" id="shadow"/>
<path d="M126.137 131.555C135.246 136.011 151.619 121.247 162.706 98.5786C173.793 75.9107 175.396 53.9228 166.287 49.4672C157.177 45.0117 140.805 59.7757 129.718 82.4436C118.63 105.112 117.027 127.099 126.137 131.555Z" fill="var(--dt-color-surface-contrast)" id="shadow"/>
<path d="M160.021 46.4028L167.015 49.8232L167.008 76.0848L153.703 110.507L126.217 131.594L119.872 128.491L160.021 46.4028Z" fill="var(--dt-color-surface-contrast)" id="shadow"/>
<path d="M119.999 128.553C129.109 133.009 145.482 118.245 156.569 95.5767C167.656 72.9087 169.259 50.9208 160.149 46.4653C151.04 42.0097 134.667 56.7738 123.58 79.4417C112.493 102.11 110.89 124.098 119.999 128.553Z" fill="url(#paint0_linear_1103_211)" id="shadow"/>
<path d="M74.5172 40.0794C82.5487 33.8883 101.548 45.0709 116.954 65.0564C132.36 85.0419 138.338 106.262 130.306 112.453C122.275 118.644 103.275 107.462 87.8694 87.4764C72.4636 67.4909 66.4856 46.2706 74.5172 40.0794Z" fill="var(--dt-color-surface-contrast)" id="shadow"/>
<path d="M124.783 116.711L130.948 111.959L125.678 86.2313L105.743 55.1747L74.588 40.0248L68.9933 44.3375L124.783 116.711Z" fill="var(--dt-color-surface-contrast)" id="shadow"/>
<path d="M69.106 44.2506C77.1375 38.0595 96.1373 49.242 111.543 69.2275C126.949 89.213 132.927 110.433 124.895 116.624C116.864 122.816 97.864 111.633 82.4582 91.6475C67.0524 71.662 61.0744 50.4417 69.106 44.2506Z" fill="url(#paint1_linear_1103_211)" id="shadow"/>
<path d="M22.7195 132.143L22.7524 132.188C28.827 140.258 50.1155 134.764 70.3947 119.873C90.1741 105.348 101.71 87.2316 96.8101 78.7281L96.834 78.6825L92.2263 72.4078L89.4765 74.4271C80.0143 73.0853 64.0463 78.9737 48.659 90.273C33.2716 101.572 22.8733 115.045 21.321 124.475L18.5713 126.495L22.6793 132.089C22.686 132.098 22.6927 132.107 22.6994 132.116C22.7061 132.125 22.7128 132.134 22.7195 132.143Z" fill="var(--dt-color-surface-contrast)" id="shadow"/>
<path d="M18.6555 126.609C24.6577 134.783 46.0116 129.301 66.3509 114.366C86.6901 99.4301 98.3126 80.6963 92.3105 72.5226C86.3083 64.3489 64.9544 69.8305 44.6151 84.7661C24.2759 99.7017 12.6534 118.436 18.6555 126.609Z" fill="url(#paint2_linear_1103_211)" id="shadow"/>
<path d="M9.98547 33.356L64.5669 8.44641" stroke="var(--dt-color-surface-contrast)" stroke-width="0.5" stroke-dasharray="1 1" id="shadow"/>
<path d="M135.999 33.356L190.58 8.44641" stroke="var(--dt-color-surface-contrast)" stroke-width="0.5" stroke-dasharray="1 1" id="shadow"/>
<path d="M135.999 159.736L190.58 134.826" stroke="var(--dt-color-surface-contrast)" stroke-width="0.5" stroke-dasharray="1 1" id="shadow"/>
<path d="M9.61914 159.736L64.2005 134.826" stroke="var(--dt-color-surface-contrast)" stroke-width="0.5" stroke-dasharray="1 1" id="shadow"/>
<rect x="9.6192" y="33.7224" width="126.38" height="126.38" stroke="var(--dt-color-surface-contrast)" stroke-width="0.5" stroke-dasharray="3 3" id="shadow"/>
<path d="M27.2068 25.1021H153.587V151.482" stroke="var(--dt-color-surface-contrast)" stroke-width="0.5" stroke-dasharray="1 1" id="shadow"/>
<path d="M47.2068 16.1021H173.587V142.482" stroke="var(--dt-color-surface-contrast)" stroke-width="0.5" stroke-dasharray="1 1" id="shadow"/>
<path d="M50.6655 33.356L105.247 8.44641M50.6655 34.0668L50.6655 159.886" stroke="var(--dt-color-surface-contrast)" stroke-width="0.5" stroke-dasharray="1 1" id="shadow"/>
<path d="M96.5753 33.356L151.157 8.44641M96.5753 34.0668L96.5753 159.886" stroke="var(--dt-color-surface-contrast)" stroke-width="0.5" stroke-dasharray="1 1" id="shadow"/>
<path d="M9.95306 69.1488H135.772M135.988 69.3711L190.57 44.4614" stroke="var(--dt-color-surface-contrast)" stroke-width="0.5" stroke-dasharray="1 1" id="shadow"/>
<path d="M9.95306 113.326H135.772M135.988 113.548L190.57 88.6387" stroke="var(--dt-color-surface-contrast)" stroke-width="0.5" stroke-dasharray="1 1" id="shadow"/>
<rect x="34.4239" y="67.1997" width="3.898" height="3.898" fill="var(--dt-color-surface-primary)" stroke="var(--dt-color-surface-contrast)" stroke-width="0.433111" id="shadow"/>
<rect x="112.384" y="111.377" width="3.898" height="3.898" fill="var(--dt-color-surface-primary)" stroke="var(--dt-color-surface-contrast)" stroke-width="0.433111" id="shadow"/>
<rect x="48.2834" y="139.529" width="3.898" height="3.898" fill="var(--dt-color-surface-primary)" stroke="var(--dt-color-surface-contrast)" stroke-width="0.433111" id="shadow"/>
<rect x="94.6263" y="42.9456" width="3.898" height="3.898" fill="var(--dt-color-surface-primary)" stroke="var(--dt-color-surface-contrast)" stroke-width="0.433111" id="shadow"/>
<rect x="151.797" y="68.9321" width="3.898" height="3.898" fill="var(--dt-color-surface-primary)" stroke="var(--dt-color-surface-contrast)" stroke-width="0.433111" id="shadow"/>
<rect x="67.3403" y="23.4554" width="3.898" height="3.898" fill="var(--dt-color-surface-primary)" stroke="var(--dt-color-surface-contrast)" stroke-width="0.433111" id="shadow"/>
<rect x="171.72" y="50.7415" width="3.898" height="3.898" fill="var(--dt-color-surface-primary)" stroke="var(--dt-color-surface-contrast)" stroke-width="0.433111" id="shadow"/>
<rect x="48.5" y="91.6704" width="4.33111" height="4.33111" rx="2.16556" fill="var(--dt-color-surface-contrast)" id="shadow"/>
<rect x="94.4098" y="132.383" width="4.33111" height="4.33111" rx="2.16556" fill="var(--dt-color-surface-contrast)" id="shadow"/>
<rect x="133.39" y="46.627" width="4.33111" height="4.33111" rx="2.16556" fill="var(--dt-color-surface-contrast)" id="shadow"/>
<rect x="132.524" y="14.1436" width="4.33111" height="4.33111" rx="2.16556" fill="var(--dt-color-surface-contrast)" id="shadow"/>
<rect x="171.504" y="122.854" width="4.33111" height="4.33111" rx="2.16556" fill="var(--dt-color-surface-contrast)" id="shadow"/>
<rect x="151.58" y="87.3394" width="4.33111" height="4.33111" rx="2.16556" fill="var(--dt-color-surface-contrast)" id="shadow"/>
<rect x="8.65381" y="66.9832" width="4.33111" height="4.33111" rx="2.16556" fill="var(--dt-color-surface-contrast)" id="shadow"/>
<defs>
<linearGradient id="paint0_linear_1103_211" x1="135.572" y1="58.8107" x2="133.453" y2="131.498" gradientUnits="userSpaceOnUse">
<stop stop-color="#7C52FF"/>
<stop offset="0.489613" stop-color="#F9008E"/>
<stop offset="1" stop-color="#F6AB3C"/>
</linearGradient>
<linearGradient id="paint1_linear_1103_211" x1="98.3425" y1="109.456" x2="81.6958" y2="38.6688" gradientUnits="userSpaceOnUse">
<stop stop-color="#7C52FF"/>
<stop offset="0.489613" stop-color="#F9008E"/>
<stop offset="1" stop-color="#F6AB3C"/>
</linearGradient>
<linearGradient id="paint2_linear_1103_211" x1="64.811" y1="72.0548" x2="29.2062" y2="135.46" gradientUnits="userSpaceOnUse">
<stop stop-color="#7C52FF"/>
<stop offset="0.489613" stop-color="#F9008E"/>
<stop offset="1" stop-color="#F6AB3C"/>
</linearGradient>
</defs>
</svg>
