<svg width="24" height="24" viewBox="0 0 24 24" fill="none" xmlns="http://www.w3.org/2000/svg">
<g clip-path="url(#clip0_10_16)">
<path d="M0 5.30097C0 2.37332 2.37333 0 5.30097 0H18.699C21.6267 0 24 2.37333 24 5.30097V18.699C24 21.6267 21.6267 24 18.699 24H5.30096C2.37332 24 0 21.6267 0 18.699V5.30097Z" fill="url(#paint0_linear_10_16)"/>
<path d="M19.725 7.63373C19.725 8.32678 19.1397 8.88862 18.4178 8.88862C17.6959 8.88862 17.1106 8.32678 17.1106 7.63373C17.1106 6.94068 17.6959 6.37885 18.4178 6.37885C19.1397 6.37885 19.725 6.94068 19.725 7.63373Z" fill="white"/>
<path d="M8.85577 9.14152C9.12515 8.26205 9.64303 7.9755 9.94384 7.9755C10.2454 7.9755 10.7612 8.2608 11.031 9.13821L11.0313 9.13945L12.9954 15.4713L12.9959 15.4728C13.4115 16.8232 14.4983 18.0994 16.0661 18.0994C17.9494 18.0994 19.4759 16.5728 19.4759 14.6895V10.3544C19.4759 9.78143 19.0114 9.31685 18.4383 9.31685C17.8653 9.31685 17.4007 9.78143 17.4007 10.3544V14.6895C17.4007 15.4267 16.8033 16.0242 16.0661 16.0242C15.7655 16.0242 15.2486 15.7385 14.9789 14.8615L14.9786 14.8602L13.0145 8.52836L13.0142 8.52721C12.5987 7.17714 11.5133 5.90033 9.94384 5.90033C8.37396 5.90033 7.28695 7.1798 6.87216 8.53191L6.87159 8.53377L4.32187 16.7544C4.15211 17.3017 4.45819 17.883 5.00551 18.0528C5.55283 18.2225 6.13414 17.9165 6.30389 17.3691L8.85524 9.14327L8.85577 9.14152Z" fill="white"/>
</g>
<defs>
<linearGradient id="paint0_linear_10_16" x1="25.4308" y1="23.9977" x2="10.9593" y2="-6.68726" gradientUnits="userSpaceOnUse">
<stop offset="0.297344" stop-color="#7C52FF"/>
<stop offset="0.762314" stop-color="#F9008E"/>
<stop offset="1" stop-color="#F6AB3C"/>
</linearGradient>
<clipPath id="clip0_10_16">
<rect width="24" height="24" fill="white"/>
</clipPath>
</defs>
</svg>
