<svg width="165" height="146" viewBox="0 0 165 146" fill="none" xmlns="http://www.w3.org/2000/svg">
<rect y="0.589966" width="165" height="145" rx="14" fill="white" fill-opacity="0.6"/>
<rect x="0.5" y="1.08997" width="164" height="144" rx="13.5" stroke="black" stroke-opacity="0.1"/>
<path d="M12.5971 73.59L25.4238 39.1228H29.6755L42.4782 73.59H37.9638L34.4765 63.7251H20.5989L17.1116 73.59H12.5971ZM27.5019 44.2821L21.9126 60.0706H33.1867L27.5974 44.2821H27.5019ZM50.6137 74.0677C45.6694 74.0677 42.3492 71.082 42.3492 66.5676V66.5198C42.3492 62.292 45.6455 59.6407 51.3542 59.3063L58.4721 58.9002V56.8222C58.4721 53.7887 56.4896 51.9495 53.0262 51.9495C49.8255 51.9495 47.8191 53.4782 47.3414 55.6995L47.2936 55.9145H43.2808L43.3047 55.6518C43.663 51.5673 47.2219 48.2711 53.0739 48.2711C58.9498 48.2711 62.6282 51.4479 62.6282 56.4161V73.59H58.4721V69.5533H58.3766C56.9196 72.2762 53.9338 74.0677 50.6137 74.0677ZM46.6009 66.5676C46.6009 68.9561 48.5595 70.4609 51.5453 70.4609C55.4625 70.4609 58.4721 67.7618 58.4721 64.1551V62.1248L51.8319 62.5309C48.5118 62.7219 46.6009 64.2029 46.6009 66.5198V66.5676Z" fill="black"/>
<path d="M17.7012 96.3634H14.127L13.3242 98.59H12.1641L15.4219 90.0587H16.4062L19.6699 98.59H18.5156L17.7012 96.3634ZM14.4668 95.4376H17.3672L15.9141 91.4474L14.4668 95.4376ZM26.0039 95.4904C26.0039 96.4552 25.7832 97.2325 25.3418 97.8224C24.9004 98.4122 24.3027 98.7072 23.5488 98.7072C22.7793 98.7072 22.1738 98.463 21.7324 97.9747V101.027H20.6484V92.2501H21.6387L21.6914 92.9532C22.1328 92.4064 22.7461 92.1329 23.5312 92.1329C24.293 92.1329 24.8945 92.42 25.3359 92.9943C25.7812 93.5685 26.0039 94.3673 26.0039 95.3907V95.4904ZM24.9199 95.3673C24.9199 94.6525 24.7676 94.088 24.4629 93.674C24.1582 93.2599 23.7402 93.0529 23.209 93.0529C22.5527 93.0529 22.0605 93.3439 21.7324 93.9259V96.9552C22.0566 97.5333 22.5527 97.8224 23.2207 97.8224C23.7402 97.8224 24.1523 97.6173 24.457 97.2072C24.7656 96.7931 24.9199 96.1798 24.9199 95.3673ZM32.7422 95.4904C32.7422 96.4552 32.5215 97.2325 32.0801 97.8224C31.6387 98.4122 31.041 98.7072 30.2871 98.7072C29.5176 98.7072 28.9121 98.463 28.4707 97.9747V101.027H27.3867V92.2501H28.377L28.4297 92.9532C28.8711 92.4064 29.4844 92.1329 30.2695 92.1329C31.0312 92.1329 31.6328 92.42 32.0742 92.9943C32.5195 93.5685 32.7422 94.3673 32.7422 95.3907V95.4904ZM31.6582 95.3673C31.6582 94.6525 31.5059 94.088 31.2012 93.674C30.8965 93.2599 30.4785 93.0529 29.9473 93.0529C29.291 93.0529 28.7988 93.3439 28.4707 93.9259V96.9552C28.7949 97.5333 29.291 97.8224 29.959 97.8224C30.4785 97.8224 30.8906 97.6173 31.1953 97.2072C31.5039 96.7931 31.6582 96.1798 31.6582 95.3673ZM35.3027 98.59H34.2188V89.59H35.3027V98.59ZM39.6738 98.7072C38.8145 98.7072 38.1152 98.4259 37.5762 97.8634C37.0371 97.297 36.7676 96.5411 36.7676 95.5958V95.3966C36.7676 94.7677 36.8867 94.2072 37.125 93.715C37.3672 93.2189 37.7031 92.8322 38.1328 92.5548C38.5664 92.2736 39.0352 92.1329 39.5391 92.1329C40.3633 92.1329 41.0039 92.4044 41.4609 92.9474C41.918 93.4904 42.1465 94.2677 42.1465 95.2794V95.7306H37.8516C37.8672 96.3556 38.0488 96.8615 38.3965 97.2482C38.748 97.631 39.1934 97.8224 39.7324 97.8224C40.1152 97.8224 40.4395 97.7443 40.7051 97.588C40.9707 97.4318 41.2031 97.2247 41.4023 96.9669L42.0645 97.4825C41.5332 98.299 40.7363 98.7072 39.6738 98.7072ZM39.5391 93.0236C39.1016 93.0236 38.7344 93.1837 38.4375 93.504C38.1406 93.8204 37.957 94.2657 37.8867 94.84H41.0625V94.7579C41.0312 94.2072 40.8828 93.7814 40.6172 93.4806C40.3516 93.1759 39.9922 93.0236 39.5391 93.0236Z" fill="black"/>
<path d="M15.5039 111.787C14.5391 111.51 13.8359 111.17 13.3945 110.768C12.957 110.361 12.7383 109.861 12.7383 109.268C12.7383 108.596 13.0059 108.041 13.541 107.604C14.0801 107.162 14.7793 106.942 15.6387 106.942C16.2246 106.942 16.7461 107.055 17.2031 107.281C17.6641 107.508 18.0195 107.82 18.2695 108.219C18.5234 108.617 18.6504 109.053 18.6504 109.526H17.5195C17.5195 109.01 17.3555 108.606 17.0273 108.313C16.6992 108.016 16.2363 107.867 15.6387 107.867C15.084 107.867 14.6504 107.99 14.3379 108.236C14.0293 108.479 13.875 108.817 13.875 109.25C13.875 109.598 14.0215 109.893 14.3145 110.135C14.6113 110.373 15.1133 110.592 15.8203 110.791C16.5312 110.99 17.0859 111.211 17.4844 111.453C17.8867 111.692 18.1836 111.971 18.375 112.291C18.5703 112.611 18.668 112.988 18.668 113.422C18.668 114.113 18.3984 114.668 17.8594 115.086C17.3203 115.5 16.5996 115.707 15.6973 115.707C15.1113 115.707 14.5645 115.596 14.0566 115.373C13.5488 115.147 13.1562 114.838 12.8789 114.447C12.6055 114.057 12.4688 113.613 12.4688 113.117H13.5996C13.5996 113.633 13.7891 114.041 14.168 114.342C14.5508 114.639 15.0605 114.787 15.6973 114.787C16.291 114.787 16.7461 114.666 17.0625 114.424C17.3789 114.182 17.5371 113.852 17.5371 113.434C17.5371 113.016 17.3906 112.693 17.0977 112.467C16.8047 112.236 16.2734 112.01 15.5039 111.787ZM23.8594 115.59C23.7969 115.465 23.7461 115.242 23.707 114.922C23.2031 115.445 22.6016 115.707 21.9023 115.707C21.2773 115.707 20.7637 115.531 20.3613 115.18C19.9629 114.824 19.7637 114.375 19.7637 113.832C19.7637 113.172 20.0137 112.66 20.5137 112.297C21.0176 111.93 21.7246 111.746 22.6348 111.746H23.6895V111.248C23.6895 110.869 23.5762 110.568 23.3496 110.346C23.123 110.119 22.7891 110.006 22.3477 110.006C21.9609 110.006 21.6367 110.104 21.375 110.299C21.1133 110.494 20.9824 110.731 20.9824 111.008H19.8926C19.8926 110.692 20.0039 110.387 20.2266 110.094C20.4531 109.797 20.7578 109.563 21.1406 109.391C21.5273 109.219 21.9512 109.133 22.4121 109.133C23.1426 109.133 23.7148 109.317 24.1289 109.684C24.543 110.047 24.7578 110.549 24.7734 111.19V114.108C24.7734 114.69 24.8477 115.152 24.9961 115.496V115.59H23.8594ZM22.0605 114.764C22.4004 114.764 22.7227 114.676 23.0273 114.5C23.332 114.324 23.5527 114.096 23.6895 113.815V112.514H22.8398C21.5117 112.514 20.8477 112.902 20.8477 113.68C20.8477 114.02 20.9609 114.285 21.1875 114.477C21.4141 114.668 21.7051 114.764 22.0605 114.764ZM27.498 109.25L27.5332 110.047C28.0176 109.438 28.6504 109.133 29.4316 109.133C30.7715 109.133 31.4473 109.889 31.459 111.401V115.59H30.375V111.395C30.3711 110.938 30.2656 110.6 30.0586 110.381C29.8555 110.162 29.5371 110.053 29.1035 110.053C28.752 110.053 28.4434 110.147 28.1777 110.334C27.9121 110.522 27.7051 110.768 27.5566 111.072V115.59H26.4727V109.25H27.498ZM40.9453 111.822H37.3652V115.59H36.2402V107.059H41.5254V107.984H37.3652V110.902H40.9453V111.822ZM45.6152 110.223C45.4512 110.195 45.2734 110.182 45.082 110.182C44.3711 110.182 43.8887 110.484 43.6348 111.09V115.59H42.5508V109.25H43.6055L43.623 109.983C43.9785 109.416 44.4824 109.133 45.1348 109.133C45.3457 109.133 45.5059 109.16 45.6152 109.215V110.223ZM50.2969 115.59C50.2344 115.465 50.1836 115.242 50.1445 114.922C49.6406 115.445 49.0391 115.707 48.3398 115.707C47.7148 115.707 47.2012 115.531 46.7988 115.18C46.4004 114.824 46.2012 114.375 46.2012 113.832C46.2012 113.172 46.4512 112.66 46.9512 112.297C47.4551 111.93 48.1621 111.746 49.0723 111.746H50.127V111.248C50.127 110.869 50.0137 110.568 49.7871 110.346C49.5605 110.119 49.2266 110.006 48.7852 110.006C48.3984 110.006 48.0742 110.104 47.8125 110.299C47.5508 110.494 47.4199 110.731 47.4199 111.008H46.3301C46.3301 110.692 46.4414 110.387 46.6641 110.094C46.8906 109.797 47.1953 109.563 47.5781 109.391C47.9648 109.219 48.3887 109.133 48.8496 109.133C49.5801 109.133 50.1523 109.317 50.5664 109.684C50.9805 110.047 51.1953 110.549 51.2109 111.19V114.108C51.2109 114.69 51.2852 115.152 51.4336 115.496V115.59H50.2969ZM48.498 114.764C48.8379 114.764 49.1602 114.676 49.4648 114.5C49.7695 114.324 49.9902 114.096 50.127 113.815V112.514H49.2773C47.9492 112.514 47.2852 112.902 47.2852 113.68C47.2852 114.02 47.3984 114.285 47.625 114.477C47.8516 114.668 48.1426 114.764 48.498 114.764ZM53.9355 109.25L53.9707 110.047C54.4551 109.438 55.0879 109.133 55.8691 109.133C57.209 109.133 57.8848 109.889 57.8965 111.401V115.59H56.8125V111.395C56.8086 110.938 56.7031 110.6 56.4961 110.381C56.293 110.162 55.9746 110.053 55.541 110.053C55.1895 110.053 54.8809 110.147 54.6152 110.334C54.3496 110.522 54.1426 110.768 53.9941 111.072V115.59H52.9102V109.25H53.9355ZM62.0742 114.822C62.4609 114.822 62.7988 114.705 63.0879 114.471C63.377 114.236 63.5371 113.943 63.5684 113.592H64.5938C64.5742 113.955 64.4492 114.301 64.2188 114.629C63.9883 114.957 63.6797 115.219 63.293 115.414C62.9102 115.609 62.5039 115.707 62.0742 115.707C61.2109 115.707 60.5234 115.42 60.0117 114.846C59.5039 114.268 59.25 113.479 59.25 112.479V112.297C59.25 111.68 59.3633 111.131 59.5898 110.651C59.8164 110.17 60.1406 109.797 60.5625 109.531C60.9883 109.266 61.4902 109.133 62.0684 109.133C62.7793 109.133 63.3691 109.346 63.8379 109.772C64.3105 110.197 64.5625 110.75 64.5938 111.43H63.5684C63.5371 111.02 63.3809 110.684 63.0996 110.422C62.8223 110.156 62.4785 110.024 62.0684 110.024C61.5176 110.024 61.0898 110.223 60.7852 110.621C60.4844 111.016 60.334 111.588 60.334 112.338V112.543C60.334 113.274 60.4844 113.836 60.7852 114.231C61.0859 114.625 61.5156 114.822 62.0742 114.822ZM66.9902 115.59H65.9062V109.25H66.9902V115.59ZM65.8184 107.568C65.8184 107.393 65.8711 107.244 65.9766 107.123C66.0859 107.002 66.2461 106.942 66.457 106.942C66.668 106.942 66.8281 107.002 66.9375 107.123C67.0469 107.244 67.1016 107.393 67.1016 107.568C67.1016 107.744 67.0469 107.891 66.9375 108.008C66.8281 108.125 66.668 108.184 66.457 108.184C66.2461 108.184 66.0859 108.125 65.9766 108.008C65.8711 107.891 65.8184 107.744 65.8184 107.568ZM72.4219 113.908C72.4219 113.615 72.3105 113.389 72.0879 113.229C71.8691 113.065 71.4844 112.924 70.9336 112.807C70.3867 112.69 69.9512 112.549 69.627 112.385C69.3066 112.221 69.0684 112.026 68.9121 111.799C68.7598 111.572 68.6836 111.303 68.6836 110.99C68.6836 110.471 68.9023 110.031 69.3398 109.672C69.7812 109.313 70.3438 109.133 71.0273 109.133C71.7461 109.133 72.3281 109.318 72.7734 109.69C73.2227 110.061 73.4473 110.535 73.4473 111.113H72.3574C72.3574 110.817 72.2305 110.561 71.9766 110.346C71.7266 110.131 71.4102 110.024 71.0273 110.024C70.6328 110.024 70.3242 110.109 70.1016 110.281C69.8789 110.453 69.7676 110.678 69.7676 110.955C69.7676 111.217 69.8711 111.414 70.0781 111.547C70.2852 111.68 70.6582 111.807 71.1973 111.928C71.7402 112.049 72.1797 112.193 72.5156 112.361C72.8516 112.529 73.0996 112.733 73.2598 112.971C73.4238 113.205 73.5059 113.492 73.5059 113.832C73.5059 114.399 73.2793 114.854 72.8262 115.197C72.373 115.537 71.7852 115.707 71.0625 115.707C70.5547 115.707 70.1055 115.617 69.7148 115.438C69.3242 115.258 69.0176 115.008 68.7949 114.688C68.5762 114.363 68.4668 114.014 68.4668 113.639H69.5508C69.5703 114.002 69.7148 114.291 69.9844 114.506C70.2578 114.717 70.6172 114.822 71.0625 114.822C71.4727 114.822 71.8008 114.74 72.0469 114.576C72.2969 114.408 72.4219 114.186 72.4219 113.908ZM77.4609 114.822C77.8477 114.822 78.1855 114.705 78.4746 114.471C78.7637 114.236 78.9238 113.943 78.9551 113.592H79.9805C79.9609 113.955 79.8359 114.301 79.6055 114.629C79.375 114.957 79.0664 115.219 78.6797 115.414C78.2969 115.609 77.8906 115.707 77.4609 115.707C76.5977 115.707 75.9102 115.42 75.3984 114.846C74.8906 114.268 74.6367 113.479 74.6367 112.479V112.297C74.6367 111.68 74.75 111.131 74.9766 110.651C75.2031 110.17 75.5273 109.797 75.9492 109.531C76.375 109.266 76.877 109.133 77.4551 109.133C78.166 109.133 78.7559 109.346 79.2246 109.772C79.6973 110.197 79.9492 110.75 79.9805 111.43H78.9551C78.9238 111.02 78.7676 110.684 78.4863 110.422C78.209 110.156 77.8652 110.024 77.4551 110.024C76.9043 110.024 76.4766 110.223 76.1719 110.621C75.8711 111.016 75.7207 111.588 75.7207 112.338V112.543C75.7207 113.274 75.8711 113.836 76.1719 114.231C76.4727 114.625 76.9023 114.822 77.4609 114.822ZM80.9121 112.361C80.9121 111.74 81.0332 111.182 81.2754 110.686C81.5215 110.19 81.8613 109.807 82.2949 109.537C82.7324 109.268 83.2305 109.133 83.7891 109.133C84.6523 109.133 85.3496 109.432 85.8809 110.029C86.416 110.627 86.6836 111.422 86.6836 112.414V112.49C86.6836 113.108 86.5645 113.662 86.3262 114.154C86.0918 114.643 85.7539 115.024 85.3125 115.297C84.875 115.57 84.3711 115.707 83.8008 115.707C82.9414 115.707 82.2441 115.408 81.709 114.811C81.1777 114.213 80.9121 113.422 80.9121 112.438V112.361ZM82.002 112.49C82.002 113.193 82.1641 113.758 82.4883 114.184C82.8164 114.609 83.2539 114.822 83.8008 114.822C84.3516 114.822 84.7891 114.608 85.1133 114.178C85.4375 113.744 85.5996 113.139 85.5996 112.361C85.5996 111.666 85.4336 111.104 85.1016 110.674C84.7734 110.24 84.3359 110.024 83.7891 110.024C83.2539 110.024 82.8223 110.236 82.4941 110.662C82.166 111.088 82.002 111.697 82.002 112.49Z" fill="black"/>
</svg>
