<svg width="165" height="146" viewBox="0 0 165 146" fill="none" xmlns="http://www.w3.org/2000/svg">
<rect y="0.589966" width="165" height="145" rx="14" fill="white" fill-opacity="0.6"/>
<rect x="0.5" y="1.08997" width="164" height="144" rx="13.5" stroke="black" stroke-opacity="0.1"/>
<path d="M12.5971 73.59L25.4238 39.1228H29.6755L42.4782 73.59H37.9638L34.4765 63.7251H20.5989L17.1116 73.59H12.5971ZM27.5019 44.2821L21.9126 60.0706H33.1867L27.5974 44.2821H27.5019ZM50.6137 74.0677C45.6694 74.0677 42.3492 71.082 42.3492 66.5676V66.5198C42.3492 62.292 45.6455 59.6407 51.3542 59.3063L58.4721 58.9002V56.8222C58.4721 53.7887 56.4896 51.9495 53.0262 51.9495C49.8255 51.9495 47.8191 53.4782 47.3414 55.6995L47.2936 55.9145H43.2808L43.3047 55.6518C43.663 51.5673 47.2219 48.2711 53.0739 48.2711C58.9498 48.2711 62.6282 51.4479 62.6282 56.4161V73.59H58.4721V69.5533H58.3766C56.9196 72.2762 53.9338 74.0677 50.6137 74.0677ZM46.6009 66.5676C46.6009 68.9561 48.5595 70.4609 51.5453 70.4609C55.4625 70.4609 58.4721 67.7618 58.4721 64.1551V62.1248L51.8319 62.5309C48.5118 62.7219 46.6009 64.2029 46.6009 66.5198V66.5676Z" fill="black"/>
<path d="M17.7012 96.3634H14.127L13.3242 98.59H12.1641L15.4219 90.0587H16.4062L19.6699 98.59H18.5156L17.7012 96.3634ZM14.4668 95.4376H17.3672L15.9141 91.4474L14.4668 95.4376ZM26.0039 95.4904C26.0039 96.4552 25.7832 97.2325 25.3418 97.8224C24.9004 98.4122 24.3027 98.7072 23.5488 98.7072C22.7793 98.7072 22.1738 98.463 21.7324 97.9747V101.027H20.6484V92.2501H21.6387L21.6914 92.9532C22.1328 92.4064 22.7461 92.1329 23.5312 92.1329C24.293 92.1329 24.8945 92.42 25.3359 92.9943C25.7812 93.5685 26.0039 94.3673 26.0039 95.3907V95.4904ZM24.9199 95.3673C24.9199 94.6525 24.7676 94.088 24.4629 93.674C24.1582 93.2599 23.7402 93.0529 23.209 93.0529C22.5527 93.0529 22.0605 93.3439 21.7324 93.9259V96.9552C22.0566 97.5333 22.5527 97.8224 23.2207 97.8224C23.7402 97.8224 24.1523 97.6173 24.457 97.2072C24.7656 96.7931 24.9199 96.1798 24.9199 95.3673ZM32.7422 95.4904C32.7422 96.4552 32.5215 97.2325 32.0801 97.8224C31.6387 98.4122 31.041 98.7072 30.2871 98.7072C29.5176 98.7072 28.9121 98.463 28.4707 97.9747V101.027H27.3867V92.2501H28.377L28.4297 92.9532C28.8711 92.4064 29.4844 92.1329 30.2695 92.1329C31.0312 92.1329 31.6328 92.42 32.0742 92.9943C32.5195 93.5685 32.7422 94.3673 32.7422 95.3907V95.4904ZM31.6582 95.3673C31.6582 94.6525 31.5059 94.088 31.2012 93.674C30.8965 93.2599 30.4785 93.0529 29.9473 93.0529C29.291 93.0529 28.7988 93.3439 28.4707 93.9259V96.9552C28.7949 97.5333 29.291 97.8224 29.959 97.8224C30.4785 97.8224 30.8906 97.6173 31.1953 97.2072C31.5039 96.7931 31.6582 96.1798 31.6582 95.3673ZM35.3027 98.59H34.2188V89.59H35.3027V98.59ZM39.6738 98.7072C38.8145 98.7072 38.1152 98.4259 37.5762 97.8634C37.0371 97.297 36.7676 96.5411 36.7676 95.5958V95.3966C36.7676 94.7677 36.8867 94.2072 37.125 93.715C37.3672 93.2189 37.7031 92.8322 38.1328 92.5548C38.5664 92.2736 39.0352 92.1329 39.5391 92.1329C40.3633 92.1329 41.0039 92.4044 41.4609 92.9474C41.918 93.4904 42.1465 94.2677 42.1465 95.2794V95.7306H37.8516C37.8672 96.3556 38.0488 96.8615 38.3965 97.2482C38.748 97.631 39.1934 97.8224 39.7324 97.8224C40.1152 97.8224 40.4395 97.7443 40.7051 97.588C40.9707 97.4318 41.2031 97.2247 41.4023 96.9669L42.0645 97.4825C41.5332 98.299 40.7363 98.7072 39.6738 98.7072ZM39.5391 93.0236C39.1016 93.0236 38.7344 93.1837 38.4375 93.504C38.1406 93.8204 37.957 94.2657 37.8867 94.84H41.0625V94.7579C41.0312 94.2072 40.8828 93.7814 40.6172 93.4806C40.3516 93.1759 39.9922 93.0236 39.5391 93.0236Z" fill="black"/>
<path d="M15.5039 111.787C14.5391 111.51 13.8359 111.17 13.3945 110.768C12.957 110.361 12.7383 109.861 12.7383 109.268C12.7383 108.596 13.0059 108.041 13.541 107.604C14.0801 107.162 14.7793 106.942 15.6387 106.942C16.2246 106.942 16.7461 107.055 17.2031 107.281C17.6641 107.508 18.0195 107.82 18.2695 108.219C18.5234 108.617 18.6504 109.053 18.6504 109.526H17.5195C17.5195 109.01 17.3555 108.606 17.0273 108.313C16.6992 108.016 16.2363 107.867 15.6387 107.867C15.084 107.867 14.6504 107.99 14.3379 108.236C14.0293 108.479 13.875 108.817 13.875 109.25C13.875 109.598 14.0215 109.893 14.3145 110.135C14.6113 110.373 15.1133 110.592 15.8203 110.791C16.5312 110.99 17.0859 111.211 17.4844 111.453C17.8867 111.692 18.1836 111.971 18.375 112.291C18.5703 112.611 18.668 112.988 18.668 113.422C18.668 114.113 18.3984 114.668 17.8594 115.086C17.3203 115.5 16.5996 115.707 15.6973 115.707C15.1113 115.707 14.5645 115.596 14.0566 115.373C13.5488 115.147 13.1562 114.838 12.8789 114.447C12.6055 114.057 12.4688 113.613 12.4688 113.117H13.5996C13.5996 113.633 13.7891 114.041 14.168 114.342C14.5508 114.639 15.0605 114.787 15.6973 114.787C16.291 114.787 16.7461 114.666 17.0625 114.424C17.3789 114.182 17.5371 113.852 17.5371 113.434C17.5371 113.016 17.3906 112.693 17.0977 112.467C16.8047 112.236 16.2734 112.01 15.5039 111.787ZM24.8203 111.822H21.2402V115.59H20.1152V107.059H25.4004V107.984H21.2402V110.902H24.8203V111.822ZM30.8496 112.25V115.59H29.7246V107.059H32.8711C33.8047 107.059 34.5352 107.297 35.0625 107.774C35.5938 108.25 35.8594 108.881 35.8594 109.666C35.8594 110.494 35.5996 111.133 35.0801 111.582C34.5645 112.027 33.8242 112.25 32.8594 112.25H30.8496ZM30.8496 111.33H32.8711C33.4727 111.33 33.9336 111.19 34.2539 110.908C34.5742 110.623 34.7344 110.213 34.7344 109.678C34.7344 109.17 34.5742 108.764 34.2539 108.459C33.9336 108.154 33.4941 107.996 32.9355 107.984H30.8496V111.33ZM40.1895 110.223C40.0254 110.195 39.8477 110.182 39.6562 110.182C38.9453 110.182 38.4629 110.484 38.209 111.09V115.59H37.125V109.25H38.1797L38.1973 109.983C38.5527 109.416 39.0566 109.133 39.709 109.133C39.9199 109.133 40.0801 109.16 40.1895 109.215V110.223ZM40.7871 112.361C40.7871 111.74 40.9082 111.182 41.1504 110.686C41.3965 110.19 41.7363 109.807 42.1699 109.537C42.6074 109.268 43.1055 109.133 43.6641 109.133C44.5273 109.133 45.2246 109.432 45.7559 110.029C46.291 110.627 46.5586 111.422 46.5586 112.414V112.49C46.5586 113.108 46.4395 113.662 46.2012 114.154C45.9668 114.643 45.6289 115.024 45.1875 115.297C44.75 115.57 44.2461 115.707 43.6758 115.707C42.8164 115.707 42.1191 115.408 41.584 114.811C41.0527 114.213 40.7871 113.422 40.7871 112.438V112.361ZM41.877 112.49C41.877 113.193 42.0391 113.758 42.3633 114.184C42.6914 114.609 43.1289 114.822 43.6758 114.822C44.2266 114.822 44.6641 114.608 44.9883 114.178C45.3125 113.744 45.4746 113.139 45.4746 112.361C45.4746 111.666 45.3086 111.104 44.9766 110.674C44.6484 110.24 44.2109 110.024 43.6641 110.024C43.1289 110.024 42.6973 110.236 42.3691 110.662C42.041 111.088 41.877 111.697 41.877 112.49Z" fill="black"/>
</svg>
