<svg width="165" height="146" viewBox="0 0 165 146" fill="none" xmlns="http://www.w3.org/2000/svg">
<g clip-path="url(#clip0_347_13510)">
<rect y="0.589844" width="165" height="145" rx="14" fill="white" fill-opacity="0.6"/>
<path d="M14.5391 87.0898V58.6523H24.5C27.9505 58.6523 30.5677 59.3164 32.3516 60.6445C34.1354 61.9596 35.0273 63.8932 35.0273 66.4453C35.0273 67.8385 34.6693 69.069 33.9531 70.1367C33.237 71.1914 32.2409 71.9661 30.9648 72.4609C32.4232 72.8255 33.569 73.5612 34.4023 74.668C35.2487 75.7747 35.6719 77.1289 35.6719 78.7305C35.6719 81.4648 34.7995 83.5352 33.0547 84.9414C31.3099 86.3477 28.8229 87.0638 25.5938 87.0898H14.5391ZM20.3984 74.707V82.3828H25.418C26.7982 82.3828 27.8724 82.0573 28.6406 81.4062C29.4219 80.7422 29.8125 79.8307 29.8125 78.6719C29.8125 76.0677 28.4648 74.7461 25.7695 74.707H20.3984ZM20.3984 70.5664H24.7344C27.6901 70.5143 29.168 69.3359 29.168 67.0312C29.168 65.7422 28.7904 64.8177 28.0352 64.2578C27.293 63.6849 26.1146 63.3984 24.5 63.3984H20.3984V70.5664ZM36.8359 76.3281C36.8359 74.2318 37.2396 72.3633 38.0469 70.7227C38.8542 69.082 40.013 67.8125 41.5234 66.9141C43.0469 66.0156 44.8112 65.5664 46.8164 65.5664C49.668 65.5664 51.9922 66.4388 53.7891 68.1836C55.599 69.9284 56.6081 72.2982 56.8164 75.293L56.8555 76.7383C56.8555 79.9805 55.9505 82.5846 54.1406 84.5508C52.3307 86.5039 49.9023 87.4805 46.8555 87.4805C43.8086 87.4805 41.3737 86.5039 39.5508 84.5508C37.7409 82.5977 36.8359 79.9414 36.8359 76.582V76.3281ZM42.4805 76.7383C42.4805 78.7435 42.8581 80.2799 43.6133 81.3477C44.3685 82.4023 45.4492 82.9297 46.8555 82.9297C48.2227 82.9297 49.2904 82.4089 50.0586 81.3672C50.8268 80.3125 51.2109 78.6328 51.2109 76.3281C51.2109 74.362 50.8268 72.8385 50.0586 71.7578C49.2904 70.6771 48.2096 70.1367 46.8164 70.1367C45.4362 70.1367 44.3685 70.6771 43.6133 71.7578C42.8581 72.8255 42.4805 74.4857 42.4805 76.7383ZM64.2891 87.0898H58.625V57.0898H64.2891V87.0898ZM66.0781 76.3672C66.0781 73.0729 66.8138 70.4492 68.2852 68.4961C69.7695 66.543 71.7943 65.5664 74.3594 65.5664C76.4167 65.5664 78.1159 66.3346 79.457 67.8711V57.0898H85.1211V87.0898H80.0234L79.75 84.8438C78.3438 86.6016 76.5339 87.4805 74.3203 87.4805C71.8333 87.4805 69.8346 86.5039 68.3242 84.5508C66.8268 82.5846 66.0781 79.8568 66.0781 76.3672ZM71.7227 76.7773C71.7227 78.7565 72.0677 80.2734 72.7578 81.3281C73.4479 82.3828 74.4505 82.9102 75.7656 82.9102C77.5104 82.9102 78.7409 82.1745 79.457 80.7031V72.3633C78.7539 70.8919 77.5365 70.1562 75.8047 70.1562C73.0833 70.1562 71.7227 72.3633 71.7227 76.7773Z" fill="black"/>
<path opacity="0.07" d="M118.867 114.59V29.2773H145.117C152.617 29.2773 159.316 30.9766 165.215 34.375C171.152 37.7344 175.781 42.5391 179.102 48.7891C182.422 55 184.082 62.0703 184.082 70V73.9258C184.082 81.8555 182.441 88.9062 179.16 95.0781C175.918 101.25 171.328 106.035 165.391 109.434C159.453 112.832 152.754 114.551 145.293 114.59H118.867ZM136.445 43.5156V100.469H144.941C151.816 100.469 157.07 98.2227 160.703 93.7305C164.336 89.2383 166.191 82.8125 166.27 74.4531V69.9414C166.27 61.2695 164.473 54.707 160.879 50.2539C157.285 45.7617 152.031 43.5156 145.117 43.5156H136.445Z" fill="black"/>
</g>
<rect x="0.5" y="1.08984" width="164" height="144" rx="13.5" stroke="black" stroke-opacity="0.1"/>
<defs>
<clipPath id="clip0_347_13510">
<rect y="0.589844" width="165" height="145" rx="14" fill="white"/>
</clipPath>
</defs>
</svg>
