<svg viewBox="0 0 541 321" fill="none" xmlns="http://www.w3.org/2000/svg">
<g clip-path="url(#clip0_1641_63564)">
<mask id="path-1-inside-1_1641_63564" fill="white">
<path d="M317 52C317 47.5817 320.582 44 325 44L477 44C481.418 44 485 47.5817 485 52V70C485 74.4183 481.418 78 477 78L325 78C320.582 78 317 74.4183 317 70V52Z"/>
</mask>
<path d="M317 52C317 47.5817 320.582 44 325 44L477 44C481.418 44 485 47.5817 485 52V70C485 74.4183 481.418 78 477 78L325 78C320.582 78 317 74.4183 317 70V52Z" fill="#F7F7F7"/>
<path d="M333.094 66V56.6177H329.688V55.4312H337.818V56.6177H334.413V66H333.094ZM341.451 66.1392C340.699 66.1392 340.052 65.9731 339.51 65.6411C338.973 65.3091 338.558 64.8403 338.265 64.2349C337.977 63.6245 337.833 62.9067 337.833 62.0815V62.0742C337.833 61.2588 337.977 60.5435 338.265 59.9282C338.558 59.313 338.971 58.832 339.503 58.4854C340.035 58.1387 340.658 57.9653 341.371 57.9653C342.088 57.9653 342.704 58.1313 343.216 58.4634C343.734 58.7954 344.129 59.2593 344.403 59.855C344.681 60.4458 344.82 61.1343 344.82 61.9204V62.4185L338.492 62.4185V61.4004H344.168L343.539 62.3306V61.8252C343.539 61.2051 343.446 60.6948 343.26 60.2944C343.075 59.894 342.818 59.5962 342.491 59.4009C342.164 59.2007 341.788 59.1006 341.363 59.1006C340.938 59.1006 340.558 59.2056 340.221 59.4155C339.889 59.6206 339.625 59.9258 339.43 60.3311C339.234 60.7363 339.137 61.2344 339.137 61.8252V62.3306C339.137 62.8921 339.232 63.373 339.422 63.7734C339.613 64.1689 339.884 64.4741 340.235 64.689C340.587 64.8989 341.002 65.0039 341.48 65.0039C341.837 65.0039 342.147 64.9551 342.411 64.8574C342.674 64.7598 342.892 64.6353 343.062 64.4839C343.233 64.3325 343.353 64.1787 343.421 64.0225L343.451 63.9565L344.725 63.9565L344.71 64.0151C344.642 64.2837 344.52 64.5449 344.344 64.7988C344.173 65.0479 343.951 65.2749 343.678 65.48C343.404 65.6802 343.08 65.8413 342.704 65.9634C342.333 66.0806 341.915 66.1392 341.451 66.1392ZM345.875 66L348.578 62.0522L345.846 58.1045H347.347L349.222 61.0415H349.339L351.192 58.1045H352.621L349.94 62.001L352.657 66H351.163L349.295 63.019H349.178L347.303 66H345.875ZM357.176 66.0586C356.366 66.0586 355.777 65.895 355.411 65.5679C355.05 65.2407 354.869 64.7012 354.869 63.9492V59.1592H353.624V58.1045H354.869V56.061H356.188V58.1045H357.916V59.1592H356.188V63.627C356.188 64.0908 356.275 64.4253 356.451 64.6304C356.627 64.8306 356.92 64.9307 357.33 64.9307C357.442 64.9307 357.538 64.9282 357.616 64.9233C357.699 64.9185 357.799 64.9111 357.916 64.9014V65.9854C357.794 66.0049 357.672 66.022 357.55 66.0366C357.428 66.0513 357.303 66.0586 357.176 66.0586Z" fill="#3A3A3A"/>
</g>
<path d="M325 45L477 45V43L325 43V45ZM484 52V70L486 70V52H484ZM477 77L325 77V79L477 79V77ZM318 70V52H316V70H318ZM325 77C321.134 77 318 73.866 318 70H316C316 74.9706 320.029 79 325 79V77ZM484 70C484 73.866 480.866 77 477 77V79C481.971 79 486 74.9706 486 70L484 70ZM477 45C480.866 45 484 48.134 484 52H486C486 47.0294 481.971 43 477 43V45ZM325 43C320.029 43 316 47.0294 316 52H318C318 48.134 321.134 45 325 45V43Z" fill="#EC0E0E" mask="url(#path-1-inside-1_1641_63564)"/>
<g clip-path="url(#clip1_1641_63564)">
<mask id="path-4-inside-2_1641_63564" fill="white">
<path d="M317 117C317 112.582 320.582 109 325 109L477 109C481.418 109 485 112.582 485 117V135C485 139.418 481.418 143 477 143L325 143C320.582 143 317 139.418 317 135V117Z"/>
</mask>
<path d="M317 117C317 112.582 320.582 109 325 109L477 109C481.418 109 485 112.582 485 117V135C485 139.418 481.418 143 477 143L325 143C320.582 143 317 139.418 317 135V117Z" fill="#F7F7F7"/>
<path d="M333.094 131V121.618H329.688V120.431H337.818V121.618H334.413V131H333.094ZM341.451 131.139C340.699 131.139 340.052 130.973 339.51 130.641C338.973 130.309 338.558 129.84 338.265 129.235C337.977 128.625 337.833 127.907 337.833 127.082V127.074C337.833 126.259 337.977 125.543 338.265 124.928C338.558 124.313 338.971 123.832 339.503 123.485C340.035 123.139 340.658 122.965 341.371 122.965C342.088 122.965 342.704 123.131 343.216 123.463C343.734 123.795 344.129 124.259 344.403 124.855C344.681 125.446 344.82 126.134 344.82 126.92V127.418H338.492V126.4H344.168L343.539 127.331V126.825C343.539 126.205 343.446 125.695 343.26 125.294C343.075 124.894 342.818 124.596 342.491 124.401C342.164 124.201 341.788 124.101 341.363 124.101C340.938 124.101 340.558 124.206 340.221 124.416C339.889 124.621 339.625 124.926 339.43 125.331C339.234 125.736 339.137 126.234 339.137 126.825V127.331C339.137 127.892 339.232 128.373 339.422 128.773C339.613 129.169 339.884 129.474 340.235 129.689C340.587 129.899 341.002 130.004 341.48 130.004C341.837 130.004 342.147 129.955 342.411 129.857C342.674 129.76 342.892 129.635 343.062 129.484C343.233 129.333 343.353 129.179 343.421 129.022L343.451 128.957H344.725L344.71 129.015C344.642 129.284 344.52 129.545 344.344 129.799C344.173 130.048 343.951 130.275 343.678 130.48C343.404 130.68 343.08 130.841 342.704 130.963C342.333 131.081 341.915 131.139 341.451 131.139ZM345.875 131L348.578 127.052L345.846 123.104H347.347L349.222 126.042H349.339L351.192 123.104H352.621L349.94 127.001L352.657 131H351.163L349.295 128.019H349.178L347.303 131H345.875ZM357.176 131.059C356.366 131.059 355.777 130.895 355.411 130.568C355.05 130.241 354.869 129.701 354.869 128.949V124.159H353.624V123.104H354.869V121.061H356.188V123.104H357.916V124.159H356.188V128.627C356.188 129.091 356.275 129.425 356.451 129.63C356.627 129.831 356.92 129.931 357.33 129.931C357.442 129.931 357.538 129.928 357.616 129.923C357.699 129.918 357.799 129.911 357.916 129.901V130.985C357.794 131.005 357.672 131.022 357.55 131.037C357.428 131.051 357.303 131.059 357.176 131.059Z" fill="#3A3A3A"/>
</g>
<path d="M325 110L477 110V108L325 108V110ZM484 117V135H486V117H484ZM477 142L325 142V144L477 144V142ZM318 135V117H316V135H318ZM325 142C321.134 142 318 138.866 318 135H316C316 139.971 320.029 144 325 144V142ZM484 135C484 138.866 480.866 142 477 142V144C481.971 144 486 139.971 486 135H484ZM477 110C480.866 110 484 113.134 484 117H486C486 112.029 481.971 108 477 108V110ZM325 108C320.029 108 316 112.029 316 117H318C318 113.134 321.134 110 325 110V108Z" fill="#1AA340" mask="url(#path-4-inside-2_1641_63564)"/>
<g clip-path="url(#clip2_1641_63564)">
<mask id="path-7-inside-3_1641_63564" fill="white">
<path d="M317 186C317 181.582 320.582 178 325 178L477 178C481.418 178 485 181.582 485 186V204C485 208.418 481.418 212 477 212L325 212C320.582 212 317 208.418 317 204V186Z"/>
</mask>
<path d="M317 186C317 181.582 320.582 178 325 178L477 178C481.418 178 485 181.582 485 186V204C485 208.418 481.418 212 477 212L325 212C320.582 212 317 208.418 317 204V186Z" fill="#F7F7F7"/>
<path d="M333.094 200V190.618H329.688V189.431H337.818V190.618H334.413V200H333.094ZM341.451 200.139C340.699 200.139 340.052 199.973 339.51 199.641C338.973 199.309 338.558 198.84 338.265 198.235C337.977 197.625 337.833 196.907 337.833 196.082V196.074C337.833 195.259 337.977 194.543 338.265 193.928C338.558 193.313 338.971 192.832 339.503 192.485C340.035 192.139 340.658 191.965 341.371 191.965C342.088 191.965 342.704 192.131 343.216 192.463C343.734 192.795 344.129 193.259 344.403 193.855C344.681 194.446 344.82 195.134 344.82 195.92V196.418H338.492V195.4H344.168L343.539 196.331V195.825C343.539 195.205 343.446 194.695 343.26 194.294C343.075 193.894 342.818 193.596 342.491 193.401C342.164 193.201 341.788 193.101 341.363 193.101C340.938 193.101 340.558 193.206 340.221 193.416C339.889 193.621 339.625 193.926 339.43 194.331C339.234 194.736 339.137 195.234 339.137 195.825V196.331C339.137 196.892 339.232 197.373 339.422 197.773C339.613 198.169 339.884 198.474 340.235 198.689C340.587 198.899 341.002 199.004 341.48 199.004C341.837 199.004 342.147 198.955 342.411 198.857C342.674 198.76 342.892 198.635 343.062 198.484C343.233 198.333 343.353 198.179 343.421 198.022L343.451 197.957H344.725L344.71 198.015C344.642 198.284 344.52 198.545 344.344 198.799C344.173 199.048 343.951 199.275 343.678 199.48C343.404 199.68 343.08 199.841 342.704 199.963C342.333 200.081 341.915 200.139 341.451 200.139ZM345.875 200L348.578 196.052L345.846 192.104H347.347L349.222 195.042H349.339L351.192 192.104H352.621L349.94 196.001L352.657 200H351.163L349.295 197.019H349.178L347.303 200H345.875ZM357.176 200.059C356.366 200.059 355.777 199.895 355.411 199.568C355.05 199.241 354.869 198.701 354.869 197.949V193.159H353.624V192.104H354.869V190.061H356.188V192.104H357.916V193.159H356.188V197.627C356.188 198.091 356.275 198.425 356.451 198.63C356.627 198.831 356.92 198.931 357.33 198.931C357.442 198.931 357.538 198.928 357.616 198.923C357.699 198.918 357.799 198.911 357.916 198.901V199.985C357.794 200.005 357.672 200.022 357.55 200.037C357.428 200.051 357.303 200.059 357.176 200.059Z" fill="#3A3A3A"/>
</g>
<path d="M325 179L477 179V177L325 177V179ZM484 186V204H486V186H484ZM477 211L325 211V213L477 213V211ZM318 204V186H316V204H318ZM325 211C321.134 211 318 207.866 318 204H316C316 208.971 320.029 213 325 213V211ZM484 204C484 207.866 480.866 211 477 211V213C481.971 213 486 208.971 486 204H484ZM477 179C480.866 179 484 182.134 484 186H486C486 181.029 481.971 177 477 177V179ZM325 177C320.029 177 316 181.029 316 186H318C318 182.134 321.134 179 325 179V177Z" fill="#D28F2B" mask="url(#path-7-inside-3_1641_63564)"/>
<mask id="path-10-inside-4_1641_63564" fill="white">
<path d="M317 252C317 247.582 320.582 244 325 244L477 244C481.418 244 485 247.582 485 252V270C485 274.418 481.418 278 477 278L325 278C320.582 278 317 274.418 317 270V252Z"/>
</mask>
<path d="M317 252C317 247.582 320.582 244 325 244L477 244C481.418 244 485 247.582 485 252V270C485 274.418 481.418 278 477 278L325 278C320.582 278 317 274.418 317 270V252Z" fill="#F7F7F7"/>
<path d="M325 245L477 245V243L325 243V245ZM484 252V270H486V252H484ZM477 277L325 277V279L477 279V277ZM318 270V252H316V270H318ZM325 277C321.134 277 318 273.866 318 270H316C316 274.971 320.029 279 325 279V277ZM484 270C484 273.866 480.866 277 477 277V279C481.971 279 486 274.971 486 270H484ZM477 245C480.866 245 484 248.134 484 252H486C486 247.029 481.971 243 477 243V245ZM325 243C320.029 243 316 247.029 316 252H318C318 248.134 321.134 245 325 245V243Z" fill="black" fill-opacity="0.18" mask="url(#path-10-inside-4_1641_63564)"/>
<path d="M333.094 266V256.618H329.688V255.431H337.818V256.618H334.413V266H333.094ZM341.451 266.139C340.699 266.139 340.052 265.973 339.51 265.641C338.973 265.309 338.558 264.84 338.265 264.235C337.977 263.625 337.833 262.907 337.833 262.082V262.074C337.833 261.259 337.977 260.543 338.265 259.928C338.558 259.313 338.971 258.832 339.503 258.485C340.035 258.139 340.658 257.965 341.371 257.965C342.088 257.965 342.704 258.131 343.216 258.463C343.734 258.795 344.129 259.259 344.403 259.855C344.681 260.446 344.82 261.134 344.82 261.92V262.418H338.492V261.4H344.168L343.539 262.331V261.825C343.539 261.205 343.446 260.695 343.26 260.294C343.075 259.894 342.818 259.596 342.491 259.401C342.164 259.201 341.788 259.101 341.363 259.101C340.938 259.101 340.558 259.206 340.221 259.416C339.889 259.621 339.625 259.926 339.43 260.331C339.234 260.736 339.137 261.234 339.137 261.825V262.331C339.137 262.892 339.232 263.373 339.422 263.773C339.613 264.169 339.884 264.474 340.235 264.689C340.587 264.899 341.002 265.004 341.48 265.004C341.837 265.004 342.147 264.955 342.411 264.857C342.674 264.76 342.892 264.635 343.062 264.484C343.233 264.333 343.353 264.179 343.421 264.022L343.451 263.957H344.725L344.71 264.015C344.642 264.284 344.52 264.545 344.344 264.799C344.173 265.048 343.951 265.275 343.678 265.48C343.404 265.68 343.08 265.841 342.704 265.963C342.333 266.081 341.915 266.139 341.451 266.139ZM345.875 266L348.578 262.052L345.846 258.104H347.347L349.222 261.042H349.339L351.192 258.104H352.621L349.94 262.001L352.657 266H351.163L349.295 263.019H349.178L347.303 266H345.875ZM357.176 266.059C356.366 266.059 355.777 265.895 355.411 265.568C355.05 265.241 354.869 264.701 354.869 263.949V259.159H353.624V258.104H354.869V256.061H356.188V258.104H357.916V259.159H356.188V263.627C356.188 264.091 356.275 264.425 356.451 264.63C356.627 264.831 356.92 264.931 357.33 264.931C357.442 264.931 357.538 264.928 357.616 264.923C357.699 264.918 357.799 264.911 357.916 264.901V265.985C357.794 266.005 357.672 266.022 357.55 266.037C357.428 266.051 357.303 266.059 357.176 266.059Z" fill="#3A3A3A"/>
<rect x="56.5" y="47" width="239" height="26" rx="13" fill="black"/>
<circle cx="74.5" cy="60" r="7" stroke="#D90A45" stroke-width="2"/>
<path d="M98.791 59.6533H97.1211C96.9819 58.7378 96.3447 58.2324 95.4146 58.2324C94.2134 58.2324 93.5542 59.0967 93.5542 60.6714V61.2866C93.5542 62.8613 94.2134 63.7256 95.4146 63.7256C96.3521 63.7256 96.9746 63.2422 97.1211 62.356H98.791C98.6079 64.1504 97.3848 65.1611 95.4292 65.1611C93.1367 65.1611 91.8403 63.8281 91.8403 61.4404V60.5176C91.8403 58.1372 93.1367 56.7969 95.4292 56.7969C97.3921 56.7969 98.6006 57.8149 98.791 59.6533ZM104.548 65.1611C102.336 65.1611 100.937 63.7842 100.937 61.6016V60.3784C100.937 58.1958 102.336 56.8188 104.548 56.8188C106.76 56.8188 108.159 58.1958 108.159 60.3784V61.6016C108.159 63.7842 106.76 65.1611 104.548 65.1611ZM104.548 58.2324C103.361 58.2324 102.622 59.0894 102.622 60.4736V61.5063C102.622 62.8906 103.361 63.7476 104.548 63.7476C105.734 63.7476 106.474 62.8906 106.474 61.5063V60.4736C106.474 59.0894 105.734 58.2324 104.548 58.2324ZM117.351 65H110.524V63.6377H113.154V55.2441H110.612V53.8818H114.853V63.6377H117.351V65ZM123.093 65.1611C120.881 65.1611 119.482 63.7842 119.482 61.6016V60.3784C119.482 58.1958 120.881 56.8188 123.093 56.8188C125.305 56.8188 126.704 58.1958 126.704 60.3784V61.6016C126.704 63.7842 125.305 65.1611 123.093 65.1611ZM123.093 58.2324C121.906 58.2324 121.167 59.0894 121.167 60.4736V61.5063C121.167 62.8906 121.906 63.7476 123.093 63.7476C124.279 63.7476 125.019 62.8906 125.019 61.5063V60.4736C125.019 59.0894 124.279 58.2324 123.093 58.2324ZM132.146 61.4258V63.7256H134.533V65H128.945V63.7256H130.505V58.2544H128.791V56.98H132.153V59.0308H132.402C132.731 57.4854 133.625 56.7676 135.148 56.7676C135.603 56.7676 136.02 56.8262 136.298 56.936V58.7891C135.939 58.6499 135.412 58.562 134.973 58.562C133.12 58.562 132.146 59.5728 132.146 61.4258ZM145.512 61.0742H137.763V59.5361H145.512V61.0742ZM151.65 65.1245C150.485 65.1245 149.672 64.6191 149.343 63.6816H149.196V65H147.46V53.8818H149.226V58.291H149.372C149.672 57.3608 150.493 56.8408 151.65 56.8408C153.496 56.8408 154.631 58.1372 154.631 60.2686V61.6968C154.631 63.8354 153.496 65.1245 151.65 65.1245ZM151.042 63.6377C152.185 63.6377 152.902 62.854 152.902 61.5942V60.3418C152.902 59.082 152.185 58.291 151.042 58.291C149.899 58.291 149.182 59.0747 149.182 60.3418V61.5942C149.182 62.854 149.899 63.6377 151.042 63.6377ZM160.183 65.1611C157.971 65.1611 156.572 63.7842 156.572 61.6016V60.3784C156.572 58.1958 157.971 56.8188 160.183 56.8188C162.395 56.8188 163.793 58.1958 163.793 60.3784V61.6016C163.793 63.7842 162.395 65.1611 160.183 65.1611ZM160.183 58.2324C158.996 58.2324 158.256 59.0894 158.256 60.4736V61.5063C158.256 62.8906 158.996 63.7476 160.183 63.7476C161.369 63.7476 162.109 62.8906 162.109 61.5063V60.4736C162.109 59.0894 161.369 58.2324 160.183 58.2324ZM169.235 61.4258V63.7256H171.623V65H166.035V63.7256H167.595V58.2544H165.881V56.98H169.243V59.0308H169.492C169.821 57.4854 170.715 56.7676 172.238 56.7676C172.692 56.7676 173.11 56.8262 173.388 56.936V58.7891C173.029 58.6499 172.502 58.562 172.062 58.562C170.209 58.562 169.235 59.5728 169.235 61.4258ZM177.988 65.1245C176.149 65.1245 175.007 63.8354 175.007 61.6968V60.2686C175.007 58.1372 176.149 56.8408 177.988 56.8408C179.145 56.8408 179.973 57.3608 180.273 58.291H180.419V53.8818H182.177V65H180.449V63.6816H180.302C179.965 64.6191 179.152 65.1245 177.988 65.1245ZM178.603 63.6377C179.746 63.6377 180.456 62.854 180.456 61.5942V60.3418C180.456 59.0747 179.746 58.291 178.603 58.291C177.453 58.291 176.743 59.082 176.743 60.3418V61.5942C176.743 62.854 177.453 63.6377 178.603 63.6377ZM189.904 62.8247H191.523C191.333 64.2017 189.97 65.1611 188.176 65.1611C185.891 65.1611 184.572 63.8501 184.572 61.5649V60.3125C184.572 58.2104 185.986 56.8188 188.117 56.8188C190.227 56.8188 191.538 58.2031 191.538 60.4297V61.4038H186.25V61.792C186.25 63.0151 187.004 63.8062 188.168 63.8062C189.055 63.8062 189.736 63.418 189.904 62.8247ZM188.088 58.1665C186.938 58.1665 186.25 58.9502 186.25 60.2612H189.882C189.882 58.9575 189.208 58.1665 188.088 58.1665ZM197.053 61.4258V63.7256H199.44V65H193.852V63.7256H195.412V58.2544H193.698V56.98H197.06V59.0308H197.309C197.639 57.4854 198.532 56.7676 200.056 56.7676C200.51 56.7676 200.927 56.8262 201.206 56.936V58.7891C200.847 58.6499 200.319 58.562 199.88 58.562C198.027 58.562 197.053 59.5728 197.053 61.4258ZM210.419 61.0742H202.67V59.5361H210.419V61.0742ZM219.333 59.6533H217.663C217.524 58.7378 216.887 58.2324 215.957 58.2324C214.755 58.2324 214.096 59.0967 214.096 60.6714V61.2866C214.096 62.8613 214.755 63.7256 215.957 63.7256C216.894 63.7256 217.517 63.2422 217.663 62.356H219.333C219.15 64.1504 217.927 65.1611 215.971 65.1611C213.679 65.1611 212.382 63.8281 212.382 61.4404V60.5176C212.382 58.1372 213.679 56.7969 215.971 56.7969C217.934 56.7969 219.143 57.8149 219.333 59.6533ZM224.87 61.4258V63.7256H227.258V65H221.669V63.7256H223.229V58.2544H221.516V56.98H224.877V59.0308H225.126C225.456 57.4854 226.35 56.7676 227.873 56.7676C228.327 56.7676 228.745 56.8262 229.023 56.936V58.7891C228.664 58.6499 228.137 58.562 227.697 58.562C225.844 58.562 224.87 59.5728 224.87 61.4258ZM234.487 55.2002C233.762 55.2002 233.249 54.7241 233.249 54.0356C233.249 53.3472 233.762 52.8711 234.487 52.8711C235.219 52.8711 235.732 53.3472 235.732 54.0356C235.732 54.7241 235.219 55.2002 234.487 55.2002ZM237.893 65H231.066V63.6377H233.71V58.3423H231.154V56.98H235.373V63.6377H237.893V65ZM242.089 54.7388H243.759V57.0312H246.857V58.4082H243.789V62.5317C243.789 63.2422 244.294 63.6377 245.202 63.6377C245.495 63.6377 246.652 63.6304 246.792 63.6157V64.978C246.66 65 245.312 65.022 245.07 65.022C242.961 65.022 242.089 64.3042 242.089 62.5244V58.4082H239.98V57.0312H242.089V54.7388ZM253.032 55.2002C252.307 55.2002 251.794 54.7241 251.794 54.0356C251.794 53.3472 252.307 52.8711 253.032 52.8711C253.764 52.8711 254.277 53.3472 254.277 54.0356C254.277 54.7241 253.764 55.2002 253.032 55.2002ZM256.438 65H249.611V63.6377H252.255V58.3423H249.699V56.98H253.918V63.6377H256.438V65ZM265.695 59.6533H264.025C263.886 58.7378 263.249 58.2324 262.319 58.2324C261.118 58.2324 260.458 59.0967 260.458 60.6714V61.2866C260.458 62.8613 261.118 63.7256 262.319 63.7256C263.256 63.7256 263.879 63.2422 264.025 62.356H265.695C265.512 64.1504 264.289 65.1611 262.333 65.1611C260.041 65.1611 258.745 63.8281 258.745 61.4404V60.5176C258.745 58.1372 260.041 56.7969 262.333 56.7969C264.296 56.7969 265.505 57.8149 265.695 59.6533ZM270.478 65.1318C268.955 65.1318 267.937 64.165 267.937 62.7148C267.937 61.2793 268.977 60.4297 270.896 60.3125L272.902 60.1953V59.5215C272.902 58.6938 272.368 58.2251 271.43 58.2251C270.646 58.2251 270.075 58.562 269.899 59.1479H268.229C268.376 57.7637 269.672 56.8481 271.474 56.8481C273.459 56.8481 274.587 57.8223 274.587 59.5361V65H272.968V63.8794H272.814C272.426 64.6777 271.569 65.1318 270.478 65.1318ZM271.027 63.7402C272.111 63.7402 272.902 63.0444 272.902 62.0776V61.3452L271.152 61.4404C270.148 61.499 269.628 61.9019 269.628 62.6123C269.628 63.3081 270.17 63.7402 271.027 63.7402ZM284.255 65H277.429V63.6377H280.058V55.2441H277.517V53.8818H281.757V63.6377H284.255V65Z" fill="white"/>
<rect x="56" y="113" width="239" height="26" rx="13" fill="black"/>
<circle cx="74" cy="126" r="7" stroke="#2EA834" stroke-width="2"/>
<path d="M98.4272 125.653H96.7573C96.6182 124.738 95.981 124.232 95.0508 124.232C93.8496 124.232 93.1904 125.097 93.1904 126.671V127.287C93.1904 128.861 93.8496 129.726 95.0508 129.726C95.9883 129.726 96.6108 129.242 96.7573 128.356H98.4272C98.2441 130.15 97.021 131.161 95.0654 131.161C92.7729 131.161 91.4766 129.828 91.4766 127.44V126.518C91.4766 124.137 92.7729 122.797 95.0654 122.797C97.0283 122.797 98.2368 123.815 98.4272 125.653ZM104.184 131.161C101.972 131.161 100.573 129.784 100.573 127.602V126.378C100.573 124.196 101.972 122.819 104.184 122.819C106.396 122.819 107.795 124.196 107.795 126.378V127.602C107.795 129.784 106.396 131.161 104.184 131.161ZM104.184 124.232C102.998 124.232 102.258 125.089 102.258 126.474V127.506C102.258 128.891 102.998 129.748 104.184 129.748C105.371 129.748 106.11 128.891 106.11 127.506V126.474C106.11 125.089 105.371 124.232 104.184 124.232ZM116.987 131H110.161V129.638H112.79V121.244H110.249V119.882H114.489V129.638H116.987V131ZM122.729 131.161C120.517 131.161 119.118 129.784 119.118 127.602V126.378C119.118 124.196 120.517 122.819 122.729 122.819C124.941 122.819 126.34 124.196 126.34 126.378V127.602C126.34 129.784 124.941 131.161 122.729 131.161ZM122.729 124.232C121.542 124.232 120.803 125.089 120.803 126.474V127.506C120.803 128.891 121.542 129.748 122.729 129.748C123.916 129.748 124.655 128.891 124.655 127.506V126.474C124.655 125.089 123.916 124.232 122.729 124.232ZM131.782 127.426V129.726H134.169V131H128.581V129.726H130.141V124.254H128.427V122.98H131.789V125.031H132.038C132.368 123.485 133.261 122.768 134.785 122.768C135.239 122.768 135.656 122.826 135.935 122.936V124.789C135.576 124.65 135.048 124.562 134.609 124.562C132.756 124.562 131.782 125.573 131.782 127.426ZM145.148 127.074H137.399V125.536H145.148V127.074ZM151.286 131.125C150.122 131.125 149.309 130.619 148.979 129.682H148.833V131H147.097V119.882H148.862V124.291H149.008C149.309 123.361 150.129 122.841 151.286 122.841C153.132 122.841 154.267 124.137 154.267 126.269V127.697C154.267 129.835 153.132 131.125 151.286 131.125ZM150.678 129.638C151.821 129.638 152.539 128.854 152.539 127.594V126.342C152.539 125.082 151.821 124.291 150.678 124.291C149.536 124.291 148.818 125.075 148.818 126.342V127.594C148.818 128.854 149.536 129.638 150.678 129.638ZM159.819 131.161C157.607 131.161 156.208 129.784 156.208 127.602V126.378C156.208 124.196 157.607 122.819 159.819 122.819C162.031 122.819 163.43 124.196 163.43 126.378V127.602C163.43 129.784 162.031 131.161 159.819 131.161ZM159.819 124.232C158.632 124.232 157.893 125.089 157.893 126.474V127.506C157.893 128.891 158.632 129.748 159.819 129.748C161.005 129.748 161.745 128.891 161.745 127.506V126.474C161.745 125.089 161.005 124.232 159.819 124.232ZM168.872 127.426V129.726H171.259V131H165.671V129.726H167.231V124.254H165.517V122.98H168.879V125.031H169.128C169.458 123.485 170.351 122.768 171.875 122.768C172.329 122.768 172.746 122.826 173.024 122.936V124.789C172.666 124.65 172.138 124.562 171.699 124.562C169.846 124.562 168.872 125.573 168.872 127.426ZM177.624 131.125C175.786 131.125 174.643 129.835 174.643 127.697V126.269C174.643 124.137 175.786 122.841 177.624 122.841C178.781 122.841 179.609 123.361 179.909 124.291H180.056V119.882H181.813V131H180.085V129.682H179.938C179.602 130.619 178.789 131.125 177.624 131.125ZM178.239 129.638C179.382 129.638 180.092 128.854 180.092 127.594V126.342C180.092 125.075 179.382 124.291 178.239 124.291C177.089 124.291 176.379 125.082 176.379 126.342V127.594C176.379 128.854 177.089 129.638 178.239 129.638ZM189.541 128.825H191.159C190.969 130.202 189.606 131.161 187.812 131.161C185.527 131.161 184.208 129.85 184.208 127.565V126.312C184.208 124.21 185.622 122.819 187.753 122.819C189.863 122.819 191.174 124.203 191.174 126.43V127.404H185.886V127.792C185.886 129.015 186.64 129.806 187.805 129.806C188.691 129.806 189.372 129.418 189.541 128.825ZM187.724 124.167C186.574 124.167 185.886 124.95 185.886 126.261H189.519C189.519 124.958 188.845 124.167 187.724 124.167ZM196.689 127.426V129.726H199.077V131H193.488V129.726H195.048V124.254H193.334V122.98H196.696V125.031H196.945C197.275 123.485 198.168 122.768 199.692 122.768C200.146 122.768 200.563 122.826 200.842 122.936V124.789C200.483 124.65 199.956 124.562 199.516 124.562C197.663 124.562 196.689 125.573 196.689 127.426ZM210.056 127.074H202.307V125.536H210.056V127.074ZM212.333 125.25C212.333 123.756 213.564 122.804 215.461 122.804C217.299 122.804 218.464 123.654 218.574 125.097H216.962C216.845 124.496 216.267 124.123 215.439 124.123C214.582 124.123 214.018 124.518 214.018 125.119C214.018 125.631 214.384 125.924 215.256 126.115L216.45 126.371C218.054 126.715 218.764 127.396 218.764 128.598C218.764 130.158 217.482 131.161 215.468 131.161C213.505 131.161 212.26 130.29 212.143 128.839H213.835C213.981 129.469 214.589 129.828 215.498 129.828C216.428 129.828 217.014 129.418 217.014 128.795C217.014 128.268 216.677 127.997 215.761 127.799L214.56 127.536C213.081 127.206 212.333 126.444 212.333 125.25ZM228.19 122.98V131H226.542V129.63H226.425C226.015 130.612 225.129 131.161 223.95 131.161C222.207 131.161 221.262 130.121 221.262 128.173V122.98H222.968V127.763C222.968 129.052 223.496 129.66 224.594 129.66C225.737 129.66 226.484 128.869 226.484 127.653V122.98H228.19ZM237.514 125.653H235.844C235.705 124.738 235.068 124.232 234.138 124.232C232.937 124.232 232.277 125.097 232.277 126.671V127.287C232.277 128.861 232.937 129.726 234.138 129.726C235.075 129.726 235.698 129.242 235.844 128.356H237.514C237.331 130.15 236.108 131.161 234.152 131.161C231.86 131.161 230.563 129.828 230.563 127.44V126.518C230.563 124.137 231.86 122.797 234.152 122.797C236.115 122.797 237.324 123.815 237.514 125.653ZM246.787 125.653H245.117C244.978 124.738 244.34 124.232 243.41 124.232C242.209 124.232 241.55 125.097 241.55 126.671V127.287C241.55 128.861 242.209 129.726 243.41 129.726C244.348 129.726 244.97 129.242 245.117 128.356H246.787C246.604 130.15 245.38 131.161 243.425 131.161C241.132 131.161 239.836 129.828 239.836 127.44V126.518C239.836 124.137 241.132 122.797 243.425 122.797C245.388 122.797 246.596 123.815 246.787 125.653ZM254.448 128.825H256.066C255.876 130.202 254.514 131.161 252.719 131.161C250.434 131.161 249.116 129.85 249.116 127.565V126.312C249.116 124.21 250.529 122.819 252.661 122.819C254.77 122.819 256.081 124.203 256.081 126.43V127.404H250.793V127.792C250.793 129.015 251.547 129.806 252.712 129.806C253.598 129.806 254.279 129.418 254.448 128.825ZM252.631 124.167C251.481 124.167 250.793 124.95 250.793 126.261H254.426C254.426 124.958 253.752 124.167 252.631 124.167ZM258.696 125.25C258.696 123.756 259.926 122.804 261.823 122.804C263.662 122.804 264.826 123.654 264.936 125.097H263.325C263.208 124.496 262.629 124.123 261.801 124.123C260.944 124.123 260.38 124.518 260.38 125.119C260.38 125.631 260.747 125.924 261.618 126.115L262.812 126.371C264.416 126.715 265.126 127.396 265.126 128.598C265.126 130.158 263.845 131.161 261.831 131.161C259.868 131.161 258.623 130.29 258.505 128.839H260.197C260.344 129.469 260.952 129.828 261.86 129.828C262.79 129.828 263.376 129.418 263.376 128.795C263.376 128.268 263.039 127.997 262.124 127.799L260.922 127.536C259.443 127.206 258.696 126.444 258.696 125.25ZM267.968 125.25C267.968 123.756 269.199 122.804 271.096 122.804C272.934 122.804 274.099 123.654 274.208 125.097H272.597C272.48 124.496 271.901 124.123 271.074 124.123C270.217 124.123 269.653 124.518 269.653 125.119C269.653 125.631 270.019 125.924 270.891 126.115L272.084 126.371C273.688 126.715 274.399 127.396 274.399 128.598C274.399 130.158 273.117 131.161 271.103 131.161C269.14 131.161 267.895 130.29 267.778 128.839H269.47C269.616 129.469 270.224 129.828 271.132 129.828C272.062 129.828 272.648 129.418 272.648 128.795C272.648 128.268 272.312 127.997 271.396 127.799L270.195 127.536C268.715 127.206 267.968 126.444 267.968 125.25Z" fill="white"/>
<rect x="56" y="181" width="239" height="26" rx="13" fill="black"/>
<circle cx="74" cy="194" r="7" stroke="#FF9E0E" stroke-width="2"/>
<path d="M98.4272 193.653H96.7573C96.6182 192.738 95.981 192.232 95.0508 192.232C93.8496 192.232 93.1904 193.097 93.1904 194.671V195.287C93.1904 196.861 93.8496 197.726 95.0508 197.726C95.9883 197.726 96.6108 197.242 96.7573 196.356H98.4272C98.2441 198.15 97.021 199.161 95.0654 199.161C92.7729 199.161 91.4766 197.828 91.4766 195.44V194.518C91.4766 192.137 92.7729 190.797 95.0654 190.797C97.0283 190.797 98.2368 191.815 98.4272 193.653ZM104.184 199.161C101.972 199.161 100.573 197.784 100.573 195.602V194.378C100.573 192.196 101.972 190.819 104.184 190.819C106.396 190.819 107.795 192.196 107.795 194.378V195.602C107.795 197.784 106.396 199.161 104.184 199.161ZM104.184 192.232C102.998 192.232 102.258 193.089 102.258 194.474V195.506C102.258 196.891 102.998 197.748 104.184 197.748C105.371 197.748 106.11 196.891 106.11 195.506V194.474C106.11 193.089 105.371 192.232 104.184 192.232ZM116.987 199H110.161V197.638H112.79V189.244H110.249V187.882H114.489V197.638H116.987V199ZM122.729 199.161C120.517 199.161 119.118 197.784 119.118 195.602V194.378C119.118 192.196 120.517 190.819 122.729 190.819C124.941 190.819 126.34 192.196 126.34 194.378V195.602C126.34 197.784 124.941 199.161 122.729 199.161ZM122.729 192.232C121.542 192.232 120.803 193.089 120.803 194.474V195.506C120.803 196.891 121.542 197.748 122.729 197.748C123.916 197.748 124.655 196.891 124.655 195.506V194.474C124.655 193.089 123.916 192.232 122.729 192.232ZM131.782 195.426V197.726H134.169V199H128.581V197.726H130.141V192.254H128.427V190.98H131.789V193.031H132.038C132.368 191.485 133.261 190.768 134.785 190.768C135.239 190.768 135.656 190.826 135.935 190.936V192.789C135.576 192.65 135.048 192.562 134.609 192.562C132.756 192.562 131.782 193.573 131.782 195.426ZM145.148 195.074H137.399V193.536H145.148V195.074ZM151.286 199.125C150.122 199.125 149.309 198.619 148.979 197.682H148.833V199H147.097V187.882H148.862V192.291H149.008C149.309 191.361 150.129 190.841 151.286 190.841C153.132 190.841 154.267 192.137 154.267 194.269V195.697C154.267 197.835 153.132 199.125 151.286 199.125ZM150.678 197.638C151.821 197.638 152.539 196.854 152.539 195.594V194.342C152.539 193.082 151.821 192.291 150.678 192.291C149.536 192.291 148.818 193.075 148.818 194.342V195.594C148.818 196.854 149.536 197.638 150.678 197.638ZM159.819 199.161C157.607 199.161 156.208 197.784 156.208 195.602V194.378C156.208 192.196 157.607 190.819 159.819 190.819C162.031 190.819 163.43 192.196 163.43 194.378V195.602C163.43 197.784 162.031 199.161 159.819 199.161ZM159.819 192.232C158.632 192.232 157.893 193.089 157.893 194.474V195.506C157.893 196.891 158.632 197.748 159.819 197.748C161.005 197.748 161.745 196.891 161.745 195.506V194.474C161.745 193.089 161.005 192.232 159.819 192.232ZM168.872 195.426V197.726H171.259V199H165.671V197.726H167.231V192.254H165.517V190.98H168.879V193.031H169.128C169.458 191.485 170.351 190.768 171.875 190.768C172.329 190.768 172.746 190.826 173.024 190.936V192.789C172.666 192.65 172.138 192.562 171.699 192.562C169.846 192.562 168.872 193.573 168.872 195.426ZM177.624 199.125C175.786 199.125 174.643 197.835 174.643 195.697V194.269C174.643 192.137 175.786 190.841 177.624 190.841C178.781 190.841 179.609 191.361 179.909 192.291H180.056V187.882H181.813V199H180.085V197.682H179.938C179.602 198.619 178.789 199.125 177.624 199.125ZM178.239 197.638C179.382 197.638 180.092 196.854 180.092 195.594V194.342C180.092 193.075 179.382 192.291 178.239 192.291C177.089 192.291 176.379 193.082 176.379 194.342V195.594C176.379 196.854 177.089 197.638 178.239 197.638ZM189.541 196.825H191.159C190.969 198.202 189.606 199.161 187.812 199.161C185.527 199.161 184.208 197.85 184.208 195.565V194.312C184.208 192.21 185.622 190.819 187.753 190.819C189.863 190.819 191.174 192.203 191.174 194.43V195.404H185.886V195.792C185.886 197.015 186.64 197.806 187.805 197.806C188.691 197.806 189.372 197.418 189.541 196.825ZM187.724 192.167C186.574 192.167 185.886 192.95 185.886 194.261H189.519C189.519 192.958 188.845 192.167 187.724 192.167ZM196.689 195.426V197.726H199.077V199H193.488V197.726H195.048V192.254H193.334V190.98H196.696V193.031H196.945C197.275 191.485 198.168 190.768 199.692 190.768C200.146 190.768 200.563 190.826 200.842 190.936V192.789C200.483 192.65 199.956 192.562 199.516 192.562C197.663 192.562 196.689 193.573 196.689 195.426ZM210.056 195.074H202.307V193.536H210.056V195.074ZM219.863 190.98L218.208 199H216.684L215.498 193.258H215.417L214.223 199H212.7L211.044 190.98H212.678L213.476 196.949H213.688L214.721 190.995H216.186L217.219 196.949H217.431L218.222 190.98H219.863ZM223.752 199.132C222.229 199.132 221.21 198.165 221.21 196.715C221.21 195.279 222.25 194.43 224.169 194.312L226.176 194.195V193.521C226.176 192.694 225.642 192.225 224.704 192.225C223.92 192.225 223.349 192.562 223.173 193.148H221.503C221.65 191.764 222.946 190.848 224.748 190.848C226.733 190.848 227.861 191.822 227.861 193.536V199H226.242V197.879H226.088C225.7 198.678 224.843 199.132 223.752 199.132ZM224.301 197.74C225.385 197.74 226.176 197.044 226.176 196.078V195.345L224.426 195.44C223.422 195.499 222.902 195.902 222.902 196.612C222.902 197.308 223.444 197.74 224.301 197.74ZM233.779 195.426V197.726H236.167V199H230.578V197.726H232.138V192.254H230.424V190.98H233.786V193.031H234.035C234.365 191.485 235.258 190.768 236.782 190.768C237.236 190.768 237.653 190.826 237.932 190.936V192.789C237.573 192.65 237.045 192.562 236.606 192.562C234.753 192.562 233.779 193.573 233.779 195.426ZM239.807 199V190.98H241.455V192.35H241.572C241.982 191.368 242.868 190.819 244.047 190.819C245.791 190.819 246.735 191.859 246.735 193.8V199H245.029V194.217C245.029 192.928 244.501 192.313 243.403 192.313C242.26 192.313 241.513 193.111 241.513 194.327V199H239.807ZM252.668 189.2C251.943 189.2 251.43 188.724 251.43 188.036C251.43 187.347 251.943 186.871 252.668 186.871C253.4 186.871 253.913 187.347 253.913 188.036C253.913 188.724 253.4 189.2 252.668 189.2ZM256.074 199H249.248V197.638H251.892V192.342H249.335V190.98H253.554V197.638H256.074V199ZM258.352 199V190.98H260V192.35H260.117C260.527 191.368 261.413 190.819 262.592 190.819C264.335 190.819 265.28 191.859 265.28 193.8V199H263.574V194.217C263.574 192.928 263.046 192.313 261.948 192.313C260.805 192.313 260.058 193.111 260.058 194.327V199H258.352ZM270.861 202.018C268.869 202.018 267.551 201.161 267.404 199.776H269.074C269.221 200.355 269.931 200.729 270.883 200.729C272.136 200.729 272.817 200.128 272.817 199.007V197.557H272.67C272.385 198.443 271.462 199.007 270.283 199.007C268.43 199.007 267.28 197.696 267.28 195.58V194.269C267.28 192.137 268.444 190.841 270.349 190.841C271.513 190.841 272.407 191.397 272.7 192.291H272.846V190.98H274.523V198.993C274.523 200.875 273.139 202.018 270.861 202.018ZM269.016 195.47C269.016 196.722 269.755 197.521 270.913 197.521C272.062 197.521 272.802 196.722 272.802 195.47V194.342C272.802 193.089 272.062 192.291 270.913 192.291C269.755 192.291 269.016 193.089 269.016 194.342V195.47Z" fill="white"/>
<rect x="56" y="249" width="239" height="26" rx="13" fill="black"/>
<circle cx="74" cy="262" r="7.5" fill="#1C1C1C" fill-opacity="0.17" stroke="#8B8B8B"/>
<path d="M98.4272 261.653H96.7573C96.6182 260.738 95.981 260.232 95.0508 260.232C93.8496 260.232 93.1904 261.097 93.1904 262.671V263.287C93.1904 264.861 93.8496 265.726 95.0508 265.726C95.9883 265.726 96.6108 265.242 96.7573 264.356H98.4272C98.2441 266.15 97.021 267.161 95.0654 267.161C92.7729 267.161 91.4766 265.828 91.4766 263.44V262.518C91.4766 260.137 92.7729 258.797 95.0654 258.797C97.0283 258.797 98.2368 259.815 98.4272 261.653ZM104.184 267.161C101.972 267.161 100.573 265.784 100.573 263.602V262.378C100.573 260.196 101.972 258.819 104.184 258.819C106.396 258.819 107.795 260.196 107.795 262.378V263.602C107.795 265.784 106.396 267.161 104.184 267.161ZM104.184 260.232C102.998 260.232 102.258 261.089 102.258 262.474V263.506C102.258 264.891 102.998 265.748 104.184 265.748C105.371 265.748 106.11 264.891 106.11 263.506V262.474C106.11 261.089 105.371 260.232 104.184 260.232ZM116.987 267H110.161V265.638H112.79V257.244H110.249V255.882H114.489V265.638H116.987V267ZM122.729 267.161C120.517 267.161 119.118 265.784 119.118 263.602V262.378C119.118 260.196 120.517 258.819 122.729 258.819C124.941 258.819 126.34 260.196 126.34 262.378V263.602C126.34 265.784 124.941 267.161 122.729 267.161ZM122.729 260.232C121.542 260.232 120.803 261.089 120.803 262.474V263.506C120.803 264.891 121.542 265.748 122.729 265.748C123.916 265.748 124.655 264.891 124.655 263.506V262.474C124.655 261.089 123.916 260.232 122.729 260.232ZM131.782 263.426V265.726H134.169V267H128.581V265.726H130.141V260.254H128.427V258.98H131.789V261.031H132.038C132.368 259.485 133.261 258.768 134.785 258.768C135.239 258.768 135.656 258.826 135.935 258.936V260.789C135.576 260.65 135.048 260.562 134.609 260.562C132.756 260.562 131.782 261.573 131.782 263.426ZM145.148 263.074H137.399V261.536H145.148V263.074ZM151.286 267.125C150.122 267.125 149.309 266.619 148.979 265.682H148.833V267H147.097V255.882H148.862V260.291H149.008C149.309 259.361 150.129 258.841 151.286 258.841C153.132 258.841 154.267 260.137 154.267 262.269V263.697C154.267 265.835 153.132 267.125 151.286 267.125ZM150.678 265.638C151.821 265.638 152.539 264.854 152.539 263.594V262.342C152.539 261.082 151.821 260.291 150.678 260.291C149.536 260.291 148.818 261.075 148.818 262.342V263.594C148.818 264.854 149.536 265.638 150.678 265.638ZM159.819 267.161C157.607 267.161 156.208 265.784 156.208 263.602V262.378C156.208 260.196 157.607 258.819 159.819 258.819C162.031 258.819 163.43 260.196 163.43 262.378V263.602C163.43 265.784 162.031 267.161 159.819 267.161ZM159.819 260.232C158.632 260.232 157.893 261.089 157.893 262.474V263.506C157.893 264.891 158.632 265.748 159.819 265.748C161.005 265.748 161.745 264.891 161.745 263.506V262.474C161.745 261.089 161.005 260.232 159.819 260.232ZM168.872 263.426V265.726H171.259V267H165.671V265.726H167.231V260.254H165.517V258.98H168.879V261.031H169.128C169.458 259.485 170.351 258.768 171.875 258.768C172.329 258.768 172.746 258.826 173.024 258.936V260.789C172.666 260.65 172.138 260.562 171.699 260.562C169.846 260.562 168.872 261.573 168.872 263.426ZM177.624 267.125C175.786 267.125 174.643 265.835 174.643 263.697V262.269C174.643 260.137 175.786 258.841 177.624 258.841C178.781 258.841 179.609 259.361 179.909 260.291H180.056V255.882H181.813V267H180.085V265.682H179.938C179.602 266.619 178.789 267.125 177.624 267.125ZM178.239 265.638C179.382 265.638 180.092 264.854 180.092 263.594V262.342C180.092 261.075 179.382 260.291 178.239 260.291C177.089 260.291 176.379 261.082 176.379 262.342V263.594C176.379 264.854 177.089 265.638 178.239 265.638ZM189.541 264.825H191.159C190.969 266.202 189.606 267.161 187.812 267.161C185.527 267.161 184.208 265.85 184.208 263.565V262.312C184.208 260.21 185.622 258.819 187.753 258.819C189.863 258.819 191.174 260.203 191.174 262.43V263.404H185.886V263.792C185.886 265.015 186.64 265.806 187.805 265.806C188.691 265.806 189.372 265.418 189.541 264.825ZM187.724 260.167C186.574 260.167 185.886 260.95 185.886 262.261H189.519C189.519 260.958 188.845 260.167 187.724 260.167ZM196.689 263.426V265.726H199.077V267H193.488V265.726H195.048V260.254H193.334V258.98H196.696V261.031H196.945C197.275 259.485 198.168 258.768 199.692 258.768C200.146 258.768 200.563 258.826 200.842 258.936V260.789C200.483 260.65 199.956 260.562 199.516 260.562C197.663 260.562 196.689 261.573 196.689 263.426ZM210.056 263.074H202.307V261.536H210.056V263.074ZM214.714 267.125C212.875 267.125 211.733 265.835 211.733 263.697V262.269C211.733 260.137 212.875 258.841 214.714 258.841C215.871 258.841 216.699 259.361 216.999 260.291H217.146V255.882H218.903V267H217.175V265.682H217.028C216.691 266.619 215.878 267.125 214.714 267.125ZM215.329 265.638C216.472 265.638 217.182 264.854 217.182 263.594V262.342C217.182 261.075 216.472 260.291 215.329 260.291C214.179 260.291 213.469 261.082 213.469 262.342V263.594C213.469 264.854 214.179 265.638 215.329 265.638ZM226.63 264.825H228.249C228.059 266.202 226.696 267.161 224.902 267.161C222.617 267.161 221.298 265.85 221.298 263.565V262.312C221.298 260.21 222.712 258.819 224.843 258.819C226.953 258.819 228.264 260.203 228.264 262.43V263.404H222.976V263.792C222.976 265.015 223.73 265.806 224.895 265.806C225.781 265.806 226.462 265.418 226.63 264.825ZM224.814 260.167C223.664 260.167 222.976 260.95 222.976 262.261H226.608C226.608 260.958 225.935 260.167 224.814 260.167ZM232.702 267V260.408H230.556V259.031H232.702V258.365C232.702 256.658 233.596 255.955 235.69 255.955C235.991 255.955 237.558 255.984 237.727 256.006V257.288C237.5 257.266 236.02 257.244 235.727 257.244C234.833 257.244 234.372 257.596 234.372 258.277V259.031H237.727V260.408H234.401V267H232.702ZM242.297 267.132C240.773 267.132 239.755 266.165 239.755 264.715C239.755 263.279 240.795 262.43 242.714 262.312L244.721 262.195V261.521C244.721 260.694 244.187 260.225 243.249 260.225C242.465 260.225 241.894 260.562 241.718 261.148H240.048C240.195 259.764 241.491 258.848 243.293 258.848C245.278 258.848 246.406 259.822 246.406 261.536V267H244.787V265.879H244.633C244.245 266.678 243.388 267.132 242.297 267.132ZM242.846 265.74C243.93 265.74 244.721 265.044 244.721 264.078V263.345L242.971 263.44C241.967 263.499 241.447 263.902 241.447 264.612C241.447 265.308 241.989 265.74 242.846 265.74ZM256.008 258.98V267H254.36V265.63H254.243C253.833 266.612 252.946 267.161 251.767 267.161C250.024 267.161 249.079 266.121 249.079 264.173V258.98H250.786V263.763C250.786 265.052 251.313 265.66 252.412 265.66C253.554 265.66 254.301 264.869 254.301 263.653V258.98H256.008ZM265.346 267H258.52V265.638H261.149V257.244H258.608V255.882H262.849V265.638H265.346V267ZM269.543 256.739H271.213V259.031H274.311V260.408H271.242V264.532C271.242 265.242 271.748 265.638 272.656 265.638C272.949 265.638 274.106 265.63 274.245 265.616V266.978C274.113 267 272.766 267.022 272.524 267.022C270.415 267.022 269.543 266.304 269.543 264.524V260.408H267.434V259.031H269.543V256.739Z" fill="white"/>
<path d="M315.237 60.417C315.237 61.8898 316.431 63.0837 317.904 63.0837C319.377 63.0837 320.57 61.8898 320.57 60.417C320.57 58.9442 319.377 57.7503 317.904 57.7503C316.431 57.7503 315.237 58.9442 315.237 60.417ZM289.603 60.917L317.904 60.917L317.904 59.917L289.603 59.917L289.603 60.917Z" fill="black"/>
<path d="M315.237 126.417C315.237 127.89 316.431 129.084 317.904 129.084C319.377 129.084 320.57 127.89 320.57 126.417C320.57 124.944 319.377 123.75 317.904 123.75C316.431 123.75 315.237 124.944 315.237 126.417ZM289.603 126.917L317.904 126.917L317.904 125.917L289.603 125.917L289.603 126.917Z" fill="black"/>
<path d="M315.237 194.417C315.237 195.89 316.431 197.084 317.904 197.084C319.377 197.084 320.57 195.89 320.57 194.417C320.57 192.944 319.377 191.75 317.904 191.75C316.431 191.75 315.237 192.944 315.237 194.417ZM289.603 194.917L317.904 194.917L317.904 193.917L289.603 193.917L289.603 194.917Z" fill="black"/>
<path d="M315.237 261.417C315.237 262.89 316.431 264.084 317.904 264.084C319.377 264.084 320.57 262.89 320.57 261.417C320.57 259.944 319.377 258.75 317.904 258.75C316.431 258.75 315.237 259.944 315.237 261.417ZM289.603 261.917L317.904 261.917L317.904 260.917L289.603 260.917L289.603 261.917Z" fill="black"/>
<defs>
<clipPath id="clip0_1641_63564">
<path d="M317 52C317 47.5817 320.582 44 325 44L477 44C481.418 44 485 47.5817 485 52V70C485 74.4183 481.418 78 477 78L325 78C320.582 78 317 74.4183 317 70V52Z" fill="white"/>
</clipPath>
<clipPath id="clip1_1641_63564">
<path d="M317 117C317 112.582 320.582 109 325 109L477 109C481.418 109 485 112.582 485 117V135C485 139.418 481.418 143 477 143L325 143C320.582 143 317 139.418 317 135V117Z" fill="white"/>
</clipPath>
<clipPath id="clip2_1641_63564">
<path d="M317 186C317 181.582 320.582 178 325 178L477 178C481.418 178 485 181.582 485 186V204C485 208.418 481.418 212 477 212L325 212C320.582 212 317 208.418 317 204V186Z" fill="white"/>
</clipPath>
</defs>
</svg>
