<svg width="130" height="101" viewBox="0 0 130 101" fill="none" xmlns="http://www.w3.org/2000/svg">
<rect y="0.589966" width="130" height="100" rx="14" fill="white" fill-opacity="0.6"/>
<rect x="0.5" y="1.08997" width="129" height="99" rx="13.5" stroke="black" stroke-opacity="0.1"/>
<path d="M12.3691 52.59L19.2905 33.566H21.6899V36.7301H20.8462L15.4805 52.59H12.3691ZM15.731 47.4484L16.5879 45.0753H25.1836L26.0405 47.4484H15.731ZM26.2778 52.59L20.9253 36.7301V33.566H22.4941L29.3892 52.59H26.2778ZM35.2031 52.8405C34.2803 52.8405 33.4717 52.6647 32.7773 52.3131C32.083 51.9615 31.5381 51.4694 31.1426 50.8365C30.7559 50.2037 30.5625 49.4742 30.5625 48.6481V48.6217C30.5625 47.4088 31.0151 46.4464 31.9204 45.7345C32.8257 45.0226 34.0957 44.6183 35.7305 44.5216L40.9775 44.2052V46.2091L36.1128 46.5123C35.2603 46.5651 34.6011 46.7716 34.1353 47.132C33.6782 47.4835 33.4497 47.9537 33.4497 48.5426V48.569C33.4497 49.1842 33.6782 49.6676 34.1353 50.0192C34.6011 50.3707 35.2163 50.5465 35.981 50.5465C36.6489 50.5465 37.2466 50.4103 37.7739 50.1378C38.3101 49.8654 38.7319 49.4918 39.0396 49.0172C39.356 48.5338 39.5142 47.9933 39.5142 47.3956V43.2428C39.5142 42.4869 39.2725 41.8893 38.7891 41.4498C38.3145 41.0104 37.6333 40.7906 36.7456 40.7906C35.9282 40.7906 35.269 40.9664 34.7681 41.318C34.2759 41.6696 33.9683 42.1222 33.8452 42.6759L33.8188 42.7946H31.1162L31.1294 42.6364C31.2085 41.8453 31.481 41.1334 31.9468 40.5006C32.4126 39.859 33.0586 39.3536 33.8848 38.9845C34.7109 38.6154 35.6909 38.4308 36.8247 38.4308C37.9585 38.4308 38.9385 38.6198 39.7646 38.9977C40.5996 39.3756 41.2412 39.9073 41.6895 40.5929C42.1465 41.2784 42.375 42.087 42.375 43.0187V52.59H39.5142V50.4147H39.4351C39.1714 50.9069 38.8242 51.3375 38.3936 51.7067C37.9629 52.067 37.4751 52.3483 36.9302 52.5504C36.394 52.7438 35.8184 52.8405 35.2031 52.8405Z" fill="black"/>
<path d="M16.1382 84.7218C14.2998 84.7218 13.0986 83.3961 13.0986 81.3527V79.8732C13.0986 77.837 14.2998 76.5114 16.1382 76.5114C17.2881 76.5114 18.1377 77.0021 18.4819 77.8737H18.6138V73.5231H19.8809V84.59H18.6577V83.3741H18.5186C18.1084 84.2531 17.2734 84.7218 16.1382 84.7218ZM16.5044 83.5865C17.8081 83.5865 18.6504 82.649 18.6504 81.1769V80.0343C18.6504 78.5695 17.8081 77.632 16.5044 77.632C15.1934 77.632 14.3511 78.5695 14.3511 80.0343V81.1769C14.3511 82.6417 15.1934 83.5865 16.5044 83.5865ZM29.7832 80.4811H22.0342V79.3239H29.7832V80.4811ZM34.0093 84.59V77.7272H31.8779V76.6652H34.0093V75.8668C34.0093 74.3287 34.9614 73.611 36.917 73.611C37.3784 73.611 38.4844 73.6476 38.748 73.6842V74.7023C38.4038 74.6656 37.3784 74.6364 36.9316 74.6364C35.8257 74.6364 35.2397 75.0465 35.2397 75.8448V76.6652H38.748V77.7272H35.2544V84.59H34.0093ZM41.5605 78.7892C41.5605 77.4122 42.7324 76.4894 44.4829 76.4894C46.1382 76.4894 47.2588 77.317 47.4053 78.6427H46.2041C46.0576 77.9469 45.3911 77.5221 44.4609 77.5221C43.4502 77.5221 42.7983 77.9908 42.7983 78.7159C42.7983 79.3239 43.2085 79.6681 44.2046 79.8878L45.3252 80.1442C46.8706 80.4957 47.5737 81.1696 47.5737 82.3195C47.5737 83.7843 46.3506 84.7365 44.4683 84.7365C42.6665 84.7365 41.4727 83.8942 41.3335 82.5319H42.6006C42.7837 83.2643 43.4868 83.6891 44.5122 83.6891C45.5962 83.6891 46.2847 83.1984 46.2847 82.4366C46.2847 81.8068 45.8965 81.4698 44.8857 81.2428L43.7065 80.9718C42.271 80.6422 41.5605 79.9171 41.5605 78.7892ZM57.6006 80.4811H49.8516V79.3239H57.6006V80.4811ZM64.2363 84.59V82.3561H59.417V81.3087L63.0059 74.0211H64.3242L60.7866 81.1403V81.2355H64.251V78.2179H65.4229V81.2208H67.0342V82.3561H65.4155V84.59H64.2363ZM72.2783 84.8317C69.9785 84.8317 68.7114 82.8688 68.7114 79.3092C68.7114 75.7496 69.9785 73.7867 72.2783 73.7867C74.5708 73.7867 75.8452 75.7496 75.8452 79.3092C75.8452 82.8688 74.5708 84.8317 72.2783 84.8317ZM69.9932 79.3092C69.9932 79.7267 70.0151 80.1149 70.0444 80.4738L74.3071 76.9142C73.9629 75.6031 73.2744 74.9293 72.2783 74.9293C70.7842 74.9293 69.9932 76.4381 69.9932 79.3092ZM72.2783 83.6891C73.7725 83.6891 74.5562 82.173 74.5562 79.3092C74.5562 78.8844 74.5415 78.4962 74.5049 78.13L70.2568 81.7189C70.6011 83.0153 71.2822 83.6891 72.2783 83.6891ZM81.5508 84.8317C79.251 84.8317 77.9839 82.8688 77.9839 79.3092C77.9839 75.7496 79.251 73.7867 81.5508 73.7867C83.8433 73.7867 85.1177 75.7496 85.1177 79.3092C85.1177 82.8688 83.8433 84.8317 81.5508 84.8317ZM79.2656 79.3092C79.2656 79.7267 79.2876 80.1149 79.3169 80.4738L83.5796 76.9142C83.2354 75.6031 82.5469 74.9293 81.5508 74.9293C80.0566 74.9293 79.2656 76.4381 79.2656 79.3092ZM81.5508 83.6891C83.0449 83.6891 83.8286 82.173 83.8286 79.3092C83.8286 78.8844 83.814 78.4962 83.7773 78.13L79.5293 81.7189C79.8735 83.0153 80.5547 83.6891 81.5508 83.6891Z" fill="black"/>
</svg>
