<svg width="130" height="101" viewBox="0 0 130 101" fill="none" xmlns="http://www.w3.org/2000/svg">
<rect y="0.589966" width="130" height="100" rx="14" fill="white" fill-opacity="0.6"/>
<rect x="0.5" y="1.08997" width="129" height="99" rx="13.5" stroke="black" stroke-opacity="0.1"/>
<path d="M12.5054 51.59L16.4019 41.0211H17.4126V42.7277H16.9951L13.8896 51.59H12.5054ZM14.2705 48.5651L14.6807 47.4445H19.4561L19.8662 48.5651H14.2705ZM20.2178 51.59L17.1123 42.7277V41.0211H17.7056L21.6021 51.59H20.2178ZM25.3887 51.7291C24.8906 51.7291 24.4414 51.6339 24.041 51.4435C23.6455 51.2531 23.3306 50.9821 23.0962 50.6305C22.8667 50.2789 22.752 49.8639 22.752 49.3854V49.3707C22.752 48.6676 23.001 48.1183 23.499 47.7228C24.002 47.3224 24.7124 47.0953 25.6304 47.0416L28.5308 46.8658V47.8839L25.7842 48.0597C25.1836 48.0939 24.7441 48.2184 24.4658 48.4332C24.1924 48.6481 24.0557 48.9508 24.0557 49.3414V49.3561C24.0557 49.7565 24.207 50.069 24.5098 50.2936C24.8125 50.5133 25.1934 50.6232 25.6523 50.6232C26.0869 50.6232 26.4727 50.5377 26.8096 50.3668C27.1465 50.191 27.4102 49.9542 27.6006 49.6564C27.7959 49.3585 27.8936 49.0216 27.8936 48.6456V46.1847C27.8936 45.6964 27.7446 45.3253 27.4468 45.0714C27.1538 44.8126 26.7119 44.6832 26.1211 44.6832C25.6475 44.6832 25.2593 44.7687 24.9565 44.9396C24.6538 45.1056 24.4512 45.3424 24.3486 45.65L24.3413 45.672H23.0669L23.0742 45.6281C23.1426 45.213 23.3135 44.8517 23.5869 44.5441C23.8652 44.2316 24.2241 43.9899 24.6636 43.819C25.103 43.6432 25.6035 43.5553 26.165 43.5553C26.8096 43.5553 27.354 43.6603 27.7983 43.8702C28.2476 44.0802 28.5869 44.3829 28.8164 44.7784C29.0508 45.1691 29.168 45.6378 29.168 46.1847V51.59H27.8936V50.4254H27.7764C27.6104 50.7037 27.4077 50.9406 27.1685 51.1359C26.9341 51.3312 26.668 51.4801 26.3701 51.5826C26.0723 51.6803 25.7451 51.7291 25.3887 51.7291Z" fill="black"/>
<path d="M20.6279 84.59H13.2598V83.4547H16.3799V75.486H16.2627L13.2378 77.4415V76.0646L16.3872 74.0211H17.6543V83.4547H20.6279V84.59ZM25.9087 84.6339C25.1836 84.6339 24.583 84.026 24.583 83.2789C24.583 82.5392 25.1836 81.9313 25.9087 81.9313C26.6338 81.9313 27.2344 82.5392 27.2344 83.2789C27.2344 84.026 26.6338 84.6339 25.9087 84.6339ZM35.0933 84.8024C33.123 84.8024 31.7314 83.5865 31.6216 81.7701H32.8667C32.9839 82.8761 33.9287 83.6378 35.1665 83.6378C36.5288 83.6378 37.437 82.6783 37.437 81.2428C37.437 79.7926 36.5215 78.8112 35.1665 78.8112C34.2217 78.8112 33.438 79.2433 33.0205 79.9904H31.7974L32.332 74.0211H38.1108V75.1857H33.3501L33.0571 78.6354H33.1743C33.6943 78.0055 34.4487 77.6759 35.3789 77.6759C37.3345 77.6759 38.6968 79.1334 38.6968 81.2135C38.6968 83.3522 37.2393 84.8024 35.0933 84.8024ZM44.1387 81.0304V83.5939H46.5996V84.59H41.3188V83.5939H42.9229V77.6393H41.1577V76.6432H44.124V78.672H44.2852C44.5781 77.1998 45.5669 76.4381 47.0977 76.4381C47.5518 76.4381 47.9839 76.504 48.2476 76.6139V78.0128C47.8813 77.881 47.3687 77.7931 46.9365 77.7931C45.1787 77.7931 44.1387 79.0089 44.1387 81.0304ZM55.8721 82.5392H57.0806C56.8389 83.8502 55.5791 84.7365 53.9092 84.7365C51.7266 84.7365 50.4595 83.4254 50.4595 81.1622V79.9684C50.4595 77.8737 51.7998 76.4967 53.8213 76.4967C55.8867 76.4967 57.1025 77.8663 57.1025 80.1661V80.9425H51.6899V81.2648C51.6899 82.7223 52.5542 83.6598 53.9092 83.6598C54.9126 83.6598 55.6523 83.235 55.8721 82.5392ZM53.814 77.566C52.4883 77.566 51.6899 78.4742 51.6899 79.9977H55.8721C55.8721 78.4816 55.0957 77.566 53.814 77.566ZM66.8291 78.7379V84.59H65.7085V79.1041C65.7085 78.1373 65.3569 77.632 64.6904 77.632C63.9946 77.632 63.5698 78.2399 63.5698 79.2286V84.59H62.4565V79.0968C62.4565 78.1373 62.105 77.632 61.4312 77.632C60.728 77.632 60.2886 78.2399 60.2886 79.2286V84.59H59.168V76.6432H60.2812V77.7638H60.4131C60.6108 76.9655 61.1821 76.4967 61.9292 76.4967C62.6763 76.4967 63.2036 76.9581 63.3721 77.7418H63.5039C63.709 76.9801 64.3462 76.4967 65.1445 76.4967C66.2505 76.4967 66.8291 77.2657 66.8291 78.7379Z" fill="black"/>
</svg>
