<svg width="130" height="101" viewBox="0 0 130 101" fill="none" xmlns="http://www.w3.org/2000/svg">
<rect y="0.589966" width="130" height="100" rx="14" fill="white" fill-opacity="0.6"/>
<rect x="0.5" y="1.08997" width="129" height="99" rx="13.5" stroke="black" stroke-opacity="0.1"/>
<path d="M12.4043 54.59L15.5215 46.1349H16.3301V47.5001H15.9961L13.5117 54.59H12.4043ZM13.8164 52.17L14.1445 51.2736H17.9648L18.293 52.17H13.8164ZM18.5742 54.59L16.0898 47.5001V46.1349H16.5645L19.6816 54.59H18.5742ZM22.7109 54.7013C22.3125 54.7013 21.9531 54.6251 21.6328 54.4728C21.3164 54.3204 21.0645 54.1036 20.877 53.8224C20.6934 53.5411 20.6016 53.2091 20.6016 52.8263V52.8146C20.6016 52.2521 20.8008 51.8126 21.1992 51.4962C21.6016 51.1759 22.1699 50.9943 22.9043 50.9513L25.2246 50.8107V51.6251L23.0273 51.7657C22.5469 51.7931 22.1953 51.8927 21.9727 52.0646C21.7539 52.2365 21.6445 52.4786 21.6445 52.7911V52.8029C21.6445 53.1232 21.7656 53.3732 22.0078 53.5529C22.25 53.7286 22.5547 53.8165 22.9219 53.8165C23.2695 53.8165 23.5781 53.7482 23.8477 53.6115C24.1172 53.4708 24.3281 53.2814 24.4805 53.0431C24.6367 52.8048 24.7148 52.5353 24.7148 52.2345V50.2657C24.7148 49.8751 24.5957 49.5782 24.3574 49.3751C24.123 49.1681 23.7695 49.0646 23.2969 49.0646C22.918 49.0646 22.6074 49.1329 22.3652 49.2697C22.123 49.4025 21.9609 49.5919 21.8789 49.838L21.873 49.8556H20.8535L20.8594 49.8204C20.9141 49.4884 21.0508 49.1993 21.2695 48.9532C21.4922 48.7032 21.7793 48.5099 22.1309 48.3732C22.4824 48.2325 22.8828 48.1622 23.332 48.1622C23.8477 48.1622 24.2832 48.2462 24.6387 48.4142C24.998 48.5822 25.2695 48.8243 25.4531 49.1407C25.6406 49.4532 25.7344 49.8282 25.7344 50.2657V54.59H24.7148V53.6583H24.6211C24.4883 53.881 24.3262 54.0704 24.1348 54.2267C23.9473 54.3829 23.7344 54.5021 23.4961 54.5841C23.2578 54.6622 22.9961 54.7013 22.7109 54.7013Z" fill="black"/>
<path d="M20.6279 84.59H13.2598V83.4547H16.3799V75.486H16.2627L13.2378 77.4415V76.0646L16.3872 74.0211H17.6543V83.4547H20.6279V84.59ZM25.9087 84.6339C25.1836 84.6339 24.583 84.026 24.583 83.2789C24.583 82.5392 25.1836 81.9313 25.9087 81.9313C26.6338 81.9313 27.2344 82.5392 27.2344 83.2789C27.2344 84.026 26.6338 84.6339 25.9087 84.6339ZM31.812 76.9948C31.812 75.1344 33.189 73.8014 35.1152 73.8014C37.0562 73.8014 38.3892 75.0026 38.3892 76.7677C38.3892 77.8663 37.8911 78.7452 36.2065 80.5836L33.7163 83.2936V83.4181H38.5576V84.59H31.8706V83.6964L35.4448 79.7194C36.7852 78.2179 37.1074 77.6539 37.1074 76.819C37.1074 75.6837 36.3091 74.9366 35.0786 74.9366C33.8628 74.9366 33.0571 75.7496 33.0571 76.9948V77.0387H31.812V76.9948ZM44.1387 81.0304V83.5939H46.5996V84.59H41.3188V83.5939H42.9229V77.6393H41.1577V76.6432H44.124V78.672H44.2852C44.5781 77.1998 45.5669 76.4381 47.0977 76.4381C47.5518 76.4381 47.9839 76.504 48.2476 76.6139V78.0128C47.8813 77.881 47.3687 77.7931 46.9365 77.7931C45.1787 77.7931 44.1387 79.0089 44.1387 81.0304ZM55.8721 82.5392H57.0806C56.8389 83.8502 55.5791 84.7365 53.9092 84.7365C51.7266 84.7365 50.4595 83.4254 50.4595 81.1622V79.9684C50.4595 77.8737 51.7998 76.4967 53.8213 76.4967C55.8867 76.4967 57.1025 77.8663 57.1025 80.1661V80.9425H51.6899V81.2648C51.6899 82.7223 52.5542 83.6598 53.9092 83.6598C54.9126 83.6598 55.6523 83.235 55.8721 82.5392ZM53.814 77.566C52.4883 77.566 51.6899 78.4742 51.6899 79.9977H55.8721C55.8721 78.4816 55.0957 77.566 53.814 77.566ZM66.8291 78.7379V84.59H65.7085V79.1041C65.7085 78.1373 65.3569 77.632 64.6904 77.632C63.9946 77.632 63.5698 78.2399 63.5698 79.2286V84.59H62.4565V79.0968C62.4565 78.1373 62.105 77.632 61.4312 77.632C60.728 77.632 60.2886 78.2399 60.2886 79.2286V84.59H59.168V76.6432H60.2812V77.7638H60.4131C60.6108 76.9655 61.1821 76.4967 61.9292 76.4967C62.6763 76.4967 63.2036 76.9581 63.3721 77.7418H63.5039C63.709 76.9801 64.3462 76.4967 65.1445 76.4967C66.2505 76.4967 66.8291 77.2657 66.8291 78.7379Z" fill="black"/>
</svg>
