<svg width="132" height="101" viewBox="0 0 132 101" fill="none" xmlns="http://www.w3.org/2000/svg">
<rect y="0.589966" width="132" height="100" rx="14" fill="white" fill-opacity="0.6"/>
<rect x="0.5" y="1.08997" width="131" height="99" rx="13.5" stroke="black" stroke-opacity="0.1"/>
<path d="M12.6309 50.59L17.2788 37.2028H19.6724V39.8746H18.8467L15.5718 50.59H12.6309ZM15.1172 47.3429L15.8037 45.2462H22.001L22.6875 47.3429H15.1172ZM22.2793 50.59L19.0044 39.8746V37.2028H20.5723L25.2295 50.59H22.2793ZM29.8218 50.7477C29.1724 50.7477 28.5972 50.624 28.0962 50.3766C27.5952 50.123 27.2025 49.7674 26.918 49.3097C26.6335 48.8458 26.4912 48.3077 26.4912 47.6954V47.6769C26.4912 46.7553 26.8314 46.0348 27.5117 45.5153C28.1982 44.9895 29.1755 44.6896 30.4434 44.6154L34.2471 44.3834V46.0441L30.8516 46.2574C30.2764 46.2946 29.8465 46.4213 29.562 46.6378C29.2775 46.8481 29.1353 47.1388 29.1353 47.5099V47.5284C29.1353 47.9119 29.2837 48.215 29.5806 48.4376C29.8774 48.6603 30.2609 48.7716 30.731 48.7716C31.1453 48.7716 31.5164 48.6881 31.8442 48.5211C32.172 48.3541 32.4318 48.1284 32.6235 47.8439C32.8153 47.5594 32.9111 47.2378 32.9111 46.879V43.6505C32.9111 43.2052 32.7627 42.8619 32.4658 42.6207C32.1751 42.3795 31.7546 42.2589 31.2041 42.2589C30.7155 42.2589 30.3166 42.3455 30.0073 42.5187C29.7043 42.6857 29.5002 42.9207 29.395 43.2238L29.3765 43.2609H26.8809L26.8901 43.1774C26.9582 42.5712 27.1808 42.0455 27.5581 41.6002C27.9416 41.1549 28.4549 40.8086 29.0981 40.5612C29.7414 40.3076 30.4897 40.1808 31.3433 40.1808C32.2463 40.1808 33.0132 40.3199 33.644 40.5983C34.2749 40.8704 34.7542 41.2631 35.082 41.7765C35.416 42.2898 35.583 42.9083 35.583 43.632V50.59H32.9111V49.2262H32.7534C32.5802 49.5416 32.3483 49.8138 32.0576 50.0426C31.7669 50.2714 31.4329 50.4477 31.0557 50.5714C30.6784 50.6889 30.2671 50.7477 29.8218 50.7477Z" fill="black"/>
<path d="M20.6279 84.59H13.2598V83.4547H16.3799V75.486H16.2627L13.2378 77.4415V76.0646L16.3872 74.0211H17.6543V83.4547H20.6279V84.59ZM25.9087 84.6339C25.1836 84.6339 24.583 84.026 24.583 83.2789C24.583 82.5392 25.1836 81.9313 25.9087 81.9313C26.6338 81.9313 27.2344 82.5392 27.2344 83.2789C27.2344 84.026 26.6338 84.6339 25.9087 84.6339ZM31.5703 77.4122C31.5703 75.3175 33.0791 73.8014 35.1665 73.8014C37.2539 73.8014 38.7554 75.3029 38.7554 77.4122C38.7554 78.6134 38.3306 79.734 37.2905 81.2428C37.1953 81.4039 35.0054 84.4801 34.9248 84.59H33.4453L36.3237 80.6276C36.5654 80.298 36.6167 80.2028 36.6826 80.0856L36.5728 80.027C36.2578 80.4518 35.5107 80.7667 34.8442 80.7667C32.9546 80.7667 31.5703 79.3458 31.5703 77.4122ZM35.1592 74.9513C33.8335 74.9513 32.8228 75.9913 32.8228 77.3463C32.8228 78.7086 33.8335 79.7487 35.1592 79.7487C36.4922 79.7487 37.5029 78.7086 37.5029 77.3463C37.5029 75.9913 36.4922 74.9513 35.1592 74.9513ZM44.1387 81.0304V83.5939H46.5996V84.59H41.3188V83.5939H42.9229V77.6393H41.1577V76.6432H44.124V78.672H44.2852C44.5781 77.1998 45.5669 76.4381 47.0977 76.4381C47.5518 76.4381 47.9839 76.504 48.2476 76.6139V78.0128C47.8813 77.881 47.3687 77.7931 46.9365 77.7931C45.1787 77.7931 44.1387 79.0089 44.1387 81.0304ZM55.8721 82.5392H57.0806C56.8389 83.8502 55.5791 84.7365 53.9092 84.7365C51.7266 84.7365 50.4595 83.4254 50.4595 81.1622V79.9684C50.4595 77.8737 51.7998 76.4967 53.8213 76.4967C55.8867 76.4967 57.1025 77.8663 57.1025 80.1661V80.9425H51.6899V81.2648C51.6899 82.7223 52.5542 83.6598 53.9092 83.6598C54.9126 83.6598 55.6523 83.235 55.8721 82.5392ZM53.814 77.566C52.4883 77.566 51.6899 78.4742 51.6899 79.9977H55.8721C55.8721 78.4816 55.0957 77.566 53.814 77.566ZM66.8291 78.7379V84.59H65.7085V79.1041C65.7085 78.1373 65.3569 77.632 64.6904 77.632C63.9946 77.632 63.5698 78.2399 63.5698 79.2286V84.59H62.4565V79.0968C62.4565 78.1373 62.105 77.632 61.4312 77.632C60.728 77.632 60.2886 78.2399 60.2886 79.2286V84.59H59.168V76.6432H60.2812V77.7638H60.4131C60.6108 76.9655 61.1821 76.4967 61.9292 76.4967C62.6763 76.4967 63.2036 76.9581 63.3721 77.7418H63.5039C63.709 76.9801 64.3462 76.4967 65.1445 76.4967C66.2505 76.4967 66.8291 77.2657 66.8291 78.7379Z" fill="black"/>
</svg>
