<svg width="130" height="101" viewBox="0 0 130 101" fill="none" xmlns="http://www.w3.org/2000/svg">
<rect y="0.589966" width="130" height="100" rx="14" fill="white" fill-opacity="0.6"/>
<rect x="0.5" y="1.08997" width="129" height="99" rx="13.5" stroke="black" stroke-opacity="0.1"/>
<path d="M12.4824 49.59L22.2236 22.8156H25.6006V27.2501H24.4316L16.8613 49.59H12.4824ZM17.2139 42.3536L18.4199 39.0138H30.5176L31.7236 42.3536H17.2139ZM32.0762 49.59L24.5244 27.2501V22.8156H26.7324L36.4551 49.59H32.0762ZM44.5449 49.9425C43.2461 49.9425 42.1081 49.6951 41.1309 49.2003C40.1536 48.7055 39.3929 48.0128 38.8486 47.1222C38.3044 46.2316 38.0322 45.2049 38.0322 44.0421V44.005C38.0322 42.298 38.6631 40.9497 39.9248 39.9601C41.1989 38.9581 42.9863 38.3891 45.2871 38.2531L52.6719 37.8077V40.6281L45.8252 41.0548C44.6253 41.129 43.6976 41.4197 43.042 41.9269C42.3988 42.4217 42.0771 43.0835 42.0771 43.9122V43.9493C42.0771 44.8029 42.3988 45.477 43.042 45.9718C43.6976 46.4666 44.5635 46.714 45.6396 46.714C46.5798 46.714 47.4209 46.5223 48.1631 46.1388C48.9176 45.7553 49.5114 45.2296 49.9443 44.5616C50.3773 43.8813 50.5938 43.1206 50.5938 42.2794V36.4718C50.5938 35.3956 50.2598 34.5545 49.5918 33.9484C48.9238 33.3299 47.9652 33.0206 46.7158 33.0206C45.5654 33.0206 44.6377 33.268 43.9326 33.7628C43.2399 34.2576 42.807 34.8947 42.6338 35.674L42.5967 35.8409H38.8115L38.8301 35.6368C38.929 34.5112 39.3063 33.5031 39.9619 32.6124C40.6175 31.7094 41.5267 30.9982 42.6895 30.4786C43.8522 29.9591 45.2314 29.6993 46.8271 29.6993C48.4229 29.6993 49.8021 29.9653 50.9648 30.4972C52.1276 31.0291 53.0306 31.7775 53.6738 32.7423C54.3171 33.7072 54.6387 34.839 54.6387 36.1378V49.59H50.5938V46.5099H50.5195C50.1361 47.215 49.6413 47.8273 49.0352 48.3468C48.429 48.854 47.7425 49.2498 46.9756 49.5343C46.221 49.8064 45.4108 49.9425 44.5449 49.9425Z" fill="black"/>
<path d="M16.1382 84.7218C14.2998 84.7218 13.0986 83.3961 13.0986 81.3527V79.8732C13.0986 77.837 14.2998 76.5114 16.1382 76.5114C17.2881 76.5114 18.1377 77.0021 18.4819 77.8737H18.6138V73.5231H19.8809V84.59H18.6577V83.3741H18.5186C18.1084 84.2531 17.2734 84.7218 16.1382 84.7218ZM16.5044 83.5865C17.8081 83.5865 18.6504 82.649 18.6504 81.1769V80.0343C18.6504 78.5695 17.8081 77.632 16.5044 77.632C15.1934 77.632 14.3511 78.5695 14.3511 80.0343V81.1769C14.3511 82.6417 15.1934 83.5865 16.5044 83.5865ZM29.7832 80.4811H22.0342V79.3239H29.7832V80.4811ZM34.0093 84.59V77.7272H31.8779V76.6652H34.0093V75.8668C34.0093 74.3287 34.9614 73.611 36.917 73.611C37.3784 73.611 38.4844 73.6476 38.748 73.6842V74.7023C38.4038 74.6656 37.3784 74.6364 36.9316 74.6364C35.8257 74.6364 35.2397 75.0465 35.2397 75.8448V76.6652H38.748V77.7272H35.2544V84.59H34.0093ZM41.5605 78.7892C41.5605 77.4122 42.7324 76.4894 44.4829 76.4894C46.1382 76.4894 47.2588 77.317 47.4053 78.6427H46.2041C46.0576 77.9469 45.3911 77.5221 44.4609 77.5221C43.4502 77.5221 42.7983 77.9908 42.7983 78.7159C42.7983 79.3239 43.2085 79.6681 44.2046 79.8878L45.3252 80.1442C46.8706 80.4957 47.5737 81.1696 47.5737 82.3195C47.5737 83.7843 46.3506 84.7365 44.4683 84.7365C42.6665 84.7365 41.4727 83.8942 41.3335 82.5319H42.6006C42.7837 83.2643 43.4868 83.6891 44.5122 83.6891C45.5962 83.6891 46.2847 83.1984 46.2847 82.4366C46.2847 81.8068 45.8965 81.4698 44.8857 81.2428L43.7065 80.9718C42.271 80.6422 41.5605 79.9171 41.5605 78.7892ZM57.6006 80.4811H49.8516V79.3239H57.6006V80.4811ZM62.9106 84.8024C60.9404 84.8024 59.5488 83.5865 59.439 81.7701H60.6841C60.8013 82.8761 61.7461 83.6378 62.9839 83.6378C64.3462 83.6378 65.2544 82.6783 65.2544 81.2428C65.2544 79.7926 64.3389 78.8112 62.9839 78.8112C62.0391 78.8112 61.2554 79.2433 60.8379 79.9904H59.6147L60.1494 74.0211H65.9282V75.1857H61.1675L60.8745 78.6354H60.9917C61.5117 78.0055 62.2661 77.6759 63.1963 77.6759C65.1519 77.6759 66.5142 79.1334 66.5142 81.2135C66.5142 83.3522 65.0566 84.8024 62.9106 84.8024ZM72.2783 84.8317C69.9785 84.8317 68.7114 82.8688 68.7114 79.3092C68.7114 75.7496 69.9785 73.7867 72.2783 73.7867C74.5708 73.7867 75.8452 75.7496 75.8452 79.3092C75.8452 82.8688 74.5708 84.8317 72.2783 84.8317ZM69.9932 79.3092C69.9932 79.7267 70.0151 80.1149 70.0444 80.4738L74.3071 76.9142C73.9629 75.6031 73.2744 74.9293 72.2783 74.9293C70.7842 74.9293 69.9932 76.4381 69.9932 79.3092ZM72.2783 83.6891C73.7725 83.6891 74.5562 82.173 74.5562 79.3092C74.5562 78.8844 74.5415 78.4962 74.5049 78.13L70.2568 81.7189C70.6011 83.0153 71.2822 83.6891 72.2783 83.6891ZM81.5508 84.8317C79.251 84.8317 77.9839 82.8688 77.9839 79.3092C77.9839 75.7496 79.251 73.7867 81.5508 73.7867C83.8433 73.7867 85.1177 75.7496 85.1177 79.3092C85.1177 82.8688 83.8433 84.8317 81.5508 84.8317ZM79.2656 79.3092C79.2656 79.7267 79.2876 80.1149 79.3169 80.4738L83.5796 76.9142C83.2354 75.6031 82.5469 74.9293 81.5508 74.9293C80.0566 74.9293 79.2656 76.4381 79.2656 79.3092ZM81.5508 83.6891C83.0449 83.6891 83.8286 82.173 83.8286 79.3092C83.8286 78.8844 83.814 78.4962 83.7773 78.13L79.5293 81.7189C79.8735 83.0153 80.5547 83.6891 81.5508 83.6891Z" fill="black"/>
</svg>
