<svg width="130" height="101" viewBox="0 0 130 101" fill="none" xmlns="http://www.w3.org/2000/svg">
<rect y="0.589966" width="130" height="100" rx="14" fill="white" fill-opacity="0.6"/>
<rect x="0.5" y="1.08997" width="129" height="99" rx="13.5" stroke="black" stroke-opacity="0.1"/>
<path d="M12.4043 54.59L15.5215 46.1349H16.3301V47.5001H15.9961L13.5117 54.59H12.4043ZM13.8164 52.17L14.1445 51.2736H17.9648L18.293 52.17H13.8164ZM18.5742 54.59L16.0898 47.5001V46.1349H16.5645L19.6816 54.59H18.5742ZM22.7109 54.7013C22.3125 54.7013 21.9531 54.6251 21.6328 54.4728C21.3164 54.3204 21.0645 54.1036 20.877 53.8224C20.6934 53.5411 20.6016 53.2091 20.6016 52.8263V52.8146C20.6016 52.2521 20.8008 51.8126 21.1992 51.4962C21.6016 51.1759 22.1699 50.9943 22.9043 50.9513L25.2246 50.8107V51.6251L23.0273 51.7657C22.5469 51.7931 22.1953 51.8927 21.9727 52.0646C21.7539 52.2365 21.6445 52.4786 21.6445 52.7911V52.8029C21.6445 53.1232 21.7656 53.3732 22.0078 53.5529C22.25 53.7286 22.5547 53.8165 22.9219 53.8165C23.2695 53.8165 23.5781 53.7482 23.8477 53.6115C24.1172 53.4708 24.3281 53.2814 24.4805 53.0431C24.6367 52.8048 24.7148 52.5353 24.7148 52.2345V50.2657C24.7148 49.8751 24.5957 49.5782 24.3574 49.3751C24.123 49.1681 23.7695 49.0646 23.2969 49.0646C22.918 49.0646 22.6074 49.1329 22.3652 49.2697C22.123 49.4025 21.9609 49.5919 21.8789 49.838L21.873 49.8556H20.8535L20.8594 49.8204C20.9141 49.4884 21.0508 49.1993 21.2695 48.9532C21.4922 48.7032 21.7793 48.5099 22.1309 48.3732C22.4824 48.2325 22.8828 48.1622 23.332 48.1622C23.8477 48.1622 24.2832 48.2462 24.6387 48.4142C24.998 48.5822 25.2695 48.8243 25.4531 49.1407C25.6406 49.4532 25.7344 49.8282 25.7344 50.2657V54.59H24.7148V53.6583H24.6211C24.4883 53.881 24.3262 54.0704 24.1348 54.2267C23.9473 54.3829 23.7344 54.5021 23.4961 54.5841C23.2578 54.6622 22.9961 54.7013 22.7109 54.7013Z" fill="black"/>
<path d="M16.1382 84.7218C14.2998 84.7218 13.0986 83.3961 13.0986 81.3527V79.8732C13.0986 77.837 14.2998 76.5114 16.1382 76.5114C17.2881 76.5114 18.1377 77.0021 18.4819 77.8737H18.6138V73.5231H19.8809V84.59H18.6577V83.3741H18.5186C18.1084 84.2531 17.2734 84.7218 16.1382 84.7218ZM16.5044 83.5865C17.8081 83.5865 18.6504 82.649 18.6504 81.1769V80.0343C18.6504 78.5695 17.8081 77.632 16.5044 77.632C15.1934 77.632 14.3511 78.5695 14.3511 80.0343V81.1769C14.3511 82.6417 15.1934 83.5865 16.5044 83.5865ZM29.7832 80.4811H22.0342V79.3239H29.7832V80.4811ZM34.0093 84.59V77.7272H31.8779V76.6652H34.0093V75.8668C34.0093 74.3287 34.9614 73.611 36.917 73.611C37.3784 73.611 38.4844 73.6476 38.748 73.6842V74.7023C38.4038 74.6656 37.3784 74.6364 36.9316 74.6364C35.8257 74.6364 35.2397 75.0465 35.2397 75.8448V76.6652H38.748V77.7272H35.2544V84.59H34.0093ZM41.5605 78.7892C41.5605 77.4122 42.7324 76.4894 44.4829 76.4894C46.1382 76.4894 47.2588 77.317 47.4053 78.6427H46.2041C46.0576 77.9469 45.3911 77.5221 44.4609 77.5221C43.4502 77.5221 42.7983 77.9908 42.7983 78.7159C42.7983 79.3239 43.2085 79.6681 44.2046 79.8878L45.3252 80.1442C46.8706 80.4957 47.5737 81.1696 47.5737 82.3195C47.5737 83.7843 46.3506 84.7365 44.4683 84.7365C42.6665 84.7365 41.4727 83.8942 41.3335 82.5319H42.6006C42.7837 83.2643 43.4868 83.6891 44.5122 83.6891C45.5962 83.6891 46.2847 83.1984 46.2847 82.4366C46.2847 81.8068 45.8965 81.4698 44.8857 81.2428L43.7065 80.9718C42.271 80.6422 41.5605 79.9171 41.5605 78.7892ZM57.6006 80.4811H49.8516V79.3239H57.6006V80.4811ZM66.9902 84.59H59.6221V83.4547H62.7422V75.486H62.625L59.6001 77.4415V76.0646L62.7495 74.0211H64.0166V83.4547H66.9902V84.59ZM72.2783 84.8317C69.9785 84.8317 68.7114 82.8688 68.7114 79.3092C68.7114 75.7496 69.9785 73.7867 72.2783 73.7867C74.5708 73.7867 75.8452 75.7496 75.8452 79.3092C75.8452 82.8688 74.5708 84.8317 72.2783 84.8317ZM69.9932 79.3092C69.9932 79.7267 70.0151 80.1149 70.0444 80.4738L74.3071 76.9142C73.9629 75.6031 73.2744 74.9293 72.2783 74.9293C70.7842 74.9293 69.9932 76.4381 69.9932 79.3092ZM72.2783 83.6891C73.7725 83.6891 74.5562 82.173 74.5562 79.3092C74.5562 78.8844 74.5415 78.4962 74.5049 78.13L70.2568 81.7189C70.6011 83.0153 71.2822 83.6891 72.2783 83.6891ZM81.5508 84.8317C79.251 84.8317 77.9839 82.8688 77.9839 79.3092C77.9839 75.7496 79.251 73.7867 81.5508 73.7867C83.8433 73.7867 85.1177 75.7496 85.1177 79.3092C85.1177 82.8688 83.8433 84.8317 81.5508 84.8317ZM79.2656 79.3092C79.2656 79.7267 79.2876 80.1149 79.3169 80.4738L83.5796 76.9142C83.2354 75.6031 82.5469 74.9293 81.5508 74.9293C80.0566 74.9293 79.2656 76.4381 79.2656 79.3092ZM81.5508 83.6891C83.0449 83.6891 83.8286 82.173 83.8286 79.3092C83.8286 78.8844 83.814 78.4962 83.7773 78.13L79.5293 81.7189C79.8735 83.0153 80.5547 83.6891 81.5508 83.6891Z" fill="black"/>
</svg>
