<svg width="130" height="101" viewBox="0 0 130 101" fill="none" xmlns="http://www.w3.org/2000/svg">
<rect y="0.589966" width="130" height="100" rx="14" fill="white" fill-opacity="0.6"/>
<rect x="0.5" y="1.08997" width="129" height="99" rx="13.5" stroke="black" stroke-opacity="0.1"/>
<path d="M12.5054 51.59L16.4019 41.0211H17.4126V42.7277H16.9951L13.8896 51.59H12.5054ZM14.2705 48.5651L14.6807 47.4445H19.4561L19.8662 48.5651H14.2705ZM20.2178 51.59L17.1123 42.7277V41.0211H17.7056L21.6021 51.59H20.2178ZM25.3887 51.7291C24.8906 51.7291 24.4414 51.6339 24.041 51.4435C23.6455 51.2531 23.3306 50.9821 23.0962 50.6305C22.8667 50.2789 22.752 49.8639 22.752 49.3854V49.3707C22.752 48.6676 23.001 48.1183 23.499 47.7228C24.002 47.3224 24.7124 47.0953 25.6304 47.0416L28.5308 46.8658V47.8839L25.7842 48.0597C25.1836 48.0939 24.7441 48.2184 24.4658 48.4332C24.1924 48.6481 24.0557 48.9508 24.0557 49.3414V49.3561C24.0557 49.7565 24.207 50.069 24.5098 50.2936C24.8125 50.5133 25.1934 50.6232 25.6523 50.6232C26.0869 50.6232 26.4727 50.5377 26.8096 50.3668C27.1465 50.191 27.4102 49.9542 27.6006 49.6564C27.7959 49.3585 27.8936 49.0216 27.8936 48.6456V46.1847C27.8936 45.6964 27.7446 45.3253 27.4468 45.0714C27.1538 44.8126 26.7119 44.6832 26.1211 44.6832C25.6475 44.6832 25.2593 44.7687 24.9565 44.9396C24.6538 45.1056 24.4512 45.3424 24.3486 45.65L24.3413 45.672H23.0669L23.0742 45.6281C23.1426 45.213 23.3135 44.8517 23.5869 44.5441C23.8652 44.2316 24.2241 43.9899 24.6636 43.819C25.103 43.6432 25.6035 43.5553 26.165 43.5553C26.8096 43.5553 27.354 43.6603 27.7983 43.8702C28.2476 44.0802 28.5869 44.3829 28.8164 44.7784C29.0508 45.1691 29.168 45.6378 29.168 46.1847V51.59H27.8936V50.4254H27.7764C27.6104 50.7037 27.4077 50.9406 27.1685 51.1359C26.9341 51.3312 26.668 51.4801 26.3701 51.5826C26.0723 51.6803 25.7451 51.7291 25.3887 51.7291Z" fill="black"/>
<path d="M16.1382 84.7218C14.2998 84.7218 13.0986 83.3961 13.0986 81.3527V79.8732C13.0986 77.837 14.2998 76.5114 16.1382 76.5114C17.2881 76.5114 18.1377 77.0021 18.4819 77.8737H18.6138V73.5231H19.8809V84.59H18.6577V83.3741H18.5186C18.1084 84.2531 17.2734 84.7218 16.1382 84.7218ZM16.5044 83.5865C17.8081 83.5865 18.6504 82.649 18.6504 81.1769V80.0343C18.6504 78.5695 17.8081 77.632 16.5044 77.632C15.1934 77.632 14.3511 78.5695 14.3511 80.0343V81.1769C14.3511 82.6417 15.1934 83.5865 16.5044 83.5865ZM29.7832 80.4811H22.0342V79.3239H29.7832V80.4811ZM34.0093 84.59V77.7272H31.8779V76.6652H34.0093V75.8668C34.0093 74.3287 34.9614 73.611 36.917 73.611C37.3784 73.611 38.4844 73.6476 38.748 73.6842V74.7023C38.4038 74.6656 37.3784 74.6364 36.9316 74.6364C35.8257 74.6364 35.2397 75.0465 35.2397 75.8448V76.6652H38.748V77.7272H35.2544V84.59H34.0093ZM41.5605 78.7892C41.5605 77.4122 42.7324 76.4894 44.4829 76.4894C46.1382 76.4894 47.2588 77.317 47.4053 78.6427H46.2041C46.0576 77.9469 45.3911 77.5221 44.4609 77.5221C43.4502 77.5221 42.7983 77.9908 42.7983 78.7159C42.7983 79.3239 43.2085 79.6681 44.2046 79.8878L45.3252 80.1442C46.8706 80.4957 47.5737 81.1696 47.5737 82.3195C47.5737 83.7843 46.3506 84.7365 44.4683 84.7365C42.6665 84.7365 41.4727 83.8942 41.3335 82.5319H42.6006C42.7837 83.2643 43.4868 83.6891 44.5122 83.6891C45.5962 83.6891 46.2847 83.1984 46.2847 82.4366C46.2847 81.8068 45.8965 81.4698 44.8857 81.2428L43.7065 80.9718C42.271 80.6422 41.5605 79.9171 41.5605 78.7892ZM57.6006 80.4811H49.8516V79.3239H57.6006V80.4811ZM59.6294 76.9948C59.6294 75.1344 61.0063 73.8014 62.9326 73.8014C64.8735 73.8014 66.2065 75.0026 66.2065 76.7677C66.2065 77.8663 65.7085 78.7452 64.0239 80.5836L61.5337 83.2936V83.4181H66.375V84.59H59.688V83.6964L63.2622 79.7194C64.6025 78.2179 64.9248 77.6539 64.9248 76.819C64.9248 75.6837 64.1265 74.9366 62.896 74.9366C61.6802 74.9366 60.8745 75.7496 60.8745 76.9948V77.0387H59.6294V76.9948ZM72.2783 84.8317C69.9785 84.8317 68.7114 82.8688 68.7114 79.3092C68.7114 75.7496 69.9785 73.7867 72.2783 73.7867C74.5708 73.7867 75.8452 75.7496 75.8452 79.3092C75.8452 82.8688 74.5708 84.8317 72.2783 84.8317ZM69.9932 79.3092C69.9932 79.7267 70.0151 80.1149 70.0444 80.4738L74.3071 76.9142C73.9629 75.6031 73.2744 74.9293 72.2783 74.9293C70.7842 74.9293 69.9932 76.4381 69.9932 79.3092ZM72.2783 83.6891C73.7725 83.6891 74.5562 82.173 74.5562 79.3092C74.5562 78.8844 74.5415 78.4962 74.5049 78.13L70.2568 81.7189C70.6011 83.0153 71.2822 83.6891 72.2783 83.6891ZM81.5508 84.8317C79.251 84.8317 77.9839 82.8688 77.9839 79.3092C77.9839 75.7496 79.251 73.7867 81.5508 73.7867C83.8433 73.7867 85.1177 75.7496 85.1177 79.3092C85.1177 82.8688 83.8433 84.8317 81.5508 84.8317ZM79.2656 79.3092C79.2656 79.7267 79.2876 80.1149 79.3169 80.4738L83.5796 76.9142C83.2354 75.6031 82.5469 74.9293 81.5508 74.9293C80.0566 74.9293 79.2656 76.4381 79.2656 79.3092ZM81.5508 83.6891C83.0449 83.6891 83.8286 82.173 83.8286 79.3092C83.8286 78.8844 83.814 78.4962 83.7773 78.13L79.5293 81.7189C79.8735 83.0153 80.5547 83.6891 81.5508 83.6891Z" fill="black"/>
</svg>
