<svg width="130" height="101" viewBox="0 0 130 101" fill="none" xmlns="http://www.w3.org/2000/svg">
<rect y="0.589966" width="130" height="100" rx="14" fill="white" fill-opacity="0.6"/>
<rect x="0.5" y="1.08997" width="129" height="99" rx="13.5" stroke="black" stroke-opacity="0.1"/>
<path d="M12.4824 49.59L22.2236 22.8156H25.6006V27.2501H24.4316L16.8613 49.59H12.4824ZM17.2139 42.3536L18.4199 39.0138H30.5176L31.7236 42.3536H17.2139ZM32.0762 49.59L24.5244 27.2501V22.8156H26.7324L36.4551 49.59H32.0762ZM44.5449 49.9425C43.2461 49.9425 42.1081 49.6951 41.1309 49.2003C40.1536 48.7055 39.3929 48.0128 38.8486 47.1222C38.3044 46.2316 38.0322 45.2049 38.0322 44.0421V44.005C38.0322 42.298 38.6631 40.9497 39.9248 39.9601C41.1989 38.9581 42.9863 38.3891 45.2871 38.2531L52.6719 37.8077V40.6281L45.8252 41.0548C44.6253 41.129 43.6976 41.4197 43.042 41.9269C42.3988 42.4217 42.0771 43.0835 42.0771 43.9122V43.9493C42.0771 44.8029 42.3988 45.477 43.042 45.9718C43.6976 46.4666 44.5635 46.714 45.6396 46.714C46.5798 46.714 47.4209 46.5223 48.1631 46.1388C48.9176 45.7553 49.5114 45.2296 49.9443 44.5616C50.3773 43.8813 50.5938 43.1206 50.5938 42.2794V36.4718C50.5938 35.3956 50.2598 34.5545 49.5918 33.9484C48.9238 33.3299 47.9652 33.0206 46.7158 33.0206C45.5654 33.0206 44.6377 33.268 43.9326 33.7628C43.2399 34.2576 42.807 34.8947 42.6338 35.674L42.5967 35.8409H38.8115L38.8301 35.6368C38.929 34.5112 39.3063 33.5031 39.9619 32.6124C40.6175 31.7094 41.5267 30.9982 42.6895 30.4786C43.8522 29.9591 45.2314 29.6993 46.8271 29.6993C48.4229 29.6993 49.8021 29.9653 50.9648 30.4972C52.1276 31.0291 53.0306 31.7775 53.6738 32.7423C54.3171 33.7072 54.6387 34.839 54.6387 36.1378V49.59H50.5938V46.5099H50.5195C50.1361 47.215 49.6413 47.8273 49.0352 48.3468C48.429 48.854 47.7425 49.2498 46.9756 49.5343C46.221 49.8064 45.4108 49.9425 44.5449 49.9425Z" fill="black"/>
<path d="M15.3472 79.6901V78.6061H16.4971C17.6836 78.6061 18.5112 77.8297 18.5112 76.7238C18.5112 75.6471 17.7202 74.9366 16.5264 74.9366C15.3398 74.9366 14.5488 75.6324 14.4463 76.7677H13.2085C13.333 74.9366 14.6221 73.8014 16.5776 73.8014C18.4673 73.8014 19.8149 74.9366 19.8149 76.5406C19.8149 77.8151 19.1484 78.7233 18.0132 79.0016V79.1188C19.4194 79.3019 20.2544 80.2906 20.2544 81.7335C20.2544 83.528 18.7456 84.8097 16.6362 84.8097C14.5488 84.8097 13.0986 83.6085 13.0034 81.7848H14.2266C14.3438 82.9127 15.2812 83.6451 16.5996 83.6451C18.0498 83.6451 18.9507 82.8981 18.9507 81.7042C18.9507 80.4738 18.0205 79.6901 16.5557 79.6901H15.3472ZM25.9087 84.6339C25.1836 84.6339 24.583 84.026 24.583 83.2789C24.583 82.5392 25.1836 81.9313 25.9087 81.9313C26.6338 81.9313 27.2344 82.5392 27.2344 83.2789C27.2344 84.026 26.6338 84.6339 25.9087 84.6339ZM35.2178 84.8243C33.0205 84.8243 31.4897 83.5646 31.4897 81.7628C31.4897 80.4518 32.3394 79.3824 33.6431 79.0675V78.9503C32.5811 78.6573 31.9146 77.7491 31.9146 76.5992C31.9146 74.9513 33.2915 73.7867 35.2178 73.7867C37.144 73.7867 38.5137 74.9513 38.5137 76.5992C38.5137 77.7491 37.8618 78.65 36.7852 78.9503V79.0675C38.0669 79.3385 38.9385 80.4298 38.9385 81.7628C38.9385 83.5646 37.415 84.8243 35.2178 84.8243ZM35.2178 78.5109C36.4409 78.5109 37.2466 77.7931 37.2466 76.7091C37.2466 75.6324 36.4409 74.9147 35.2178 74.9147C33.9946 74.9147 33.1816 75.6324 33.1816 76.7091C33.1816 77.7931 33.9946 78.5109 35.2178 78.5109ZM35.2178 83.7037C36.6533 83.7037 37.6421 82.8688 37.6421 81.6603C37.6421 80.4518 36.6533 79.6168 35.2178 79.6168C33.7822 79.6168 32.7935 80.4518 32.7935 81.6603C32.7935 82.8688 33.7822 83.7037 35.2178 83.7037ZM44.1387 81.0304V83.5939H46.5996V84.59H41.3188V83.5939H42.9229V77.6393H41.1577V76.6432H44.124V78.672H44.2852C44.5781 77.1998 45.5669 76.4381 47.0977 76.4381C47.5518 76.4381 47.9839 76.504 48.2476 76.6139V78.0128C47.8813 77.881 47.3687 77.7931 46.9365 77.7931C45.1787 77.7931 44.1387 79.0089 44.1387 81.0304ZM55.8721 82.5392H57.0806C56.8389 83.8502 55.5791 84.7365 53.9092 84.7365C51.7266 84.7365 50.4595 83.4254 50.4595 81.1622V79.9684C50.4595 77.8737 51.7998 76.4967 53.8213 76.4967C55.8867 76.4967 57.1025 77.8663 57.1025 80.1661V80.9425H51.6899V81.2648C51.6899 82.7223 52.5542 83.6598 53.9092 83.6598C54.9126 83.6598 55.6523 83.235 55.8721 82.5392ZM53.814 77.566C52.4883 77.566 51.6899 78.4742 51.6899 79.9977H55.8721C55.8721 78.4816 55.0957 77.566 53.814 77.566ZM66.8291 78.7379V84.59H65.7085V79.1041C65.7085 78.1373 65.3569 77.632 64.6904 77.632C63.9946 77.632 63.5698 78.2399 63.5698 79.2286V84.59H62.4565V79.0968C62.4565 78.1373 62.105 77.632 61.4312 77.632C60.728 77.632 60.2886 78.2399 60.2886 79.2286V84.59H59.168V76.6432H60.2812V77.7638H60.4131C60.6108 76.9655 61.1821 76.4967 61.9292 76.4967C62.6763 76.4967 63.2036 76.9581 63.3721 77.7418H63.5039C63.709 76.9801 64.3462 76.4967 65.1445 76.4967C66.2505 76.4967 66.8291 77.2657 66.8291 78.7379Z" fill="black"/>
</svg>
