<svg width="132" height="101" viewBox="0 0 132 101" fill="none" xmlns="http://www.w3.org/2000/svg">
<rect y="0.589966" width="132" height="100" rx="14" fill="white" fill-opacity="0.6"/>
<rect x="0.5" y="1.08997" width="131" height="99" rx="13.5" stroke="black" stroke-opacity="0.1"/>
<path d="M12.6309 50.59L17.2788 37.2028H19.6724V39.8746H18.8467L15.5718 50.59H12.6309ZM15.1172 47.3429L15.8037 45.2462H22.001L22.6875 47.3429H15.1172ZM22.2793 50.59L19.0044 39.8746V37.2028H20.5723L25.2295 50.59H22.2793ZM29.8218 50.7477C29.1724 50.7477 28.5972 50.624 28.0962 50.3766C27.5952 50.123 27.2025 49.7674 26.918 49.3097C26.6335 48.8458 26.4912 48.3077 26.4912 47.6954V47.6769C26.4912 46.7553 26.8314 46.0348 27.5117 45.5153C28.1982 44.9895 29.1755 44.6896 30.4434 44.6154L34.2471 44.3834V46.0441L30.8516 46.2574C30.2764 46.2946 29.8465 46.4213 29.562 46.6378C29.2775 46.8481 29.1353 47.1388 29.1353 47.5099V47.5284C29.1353 47.9119 29.2837 48.215 29.5806 48.4376C29.8774 48.6603 30.2609 48.7716 30.731 48.7716C31.1453 48.7716 31.5164 48.6881 31.8442 48.5211C32.172 48.3541 32.4318 48.1284 32.6235 47.8439C32.8153 47.5594 32.9111 47.2378 32.9111 46.879V43.6505C32.9111 43.2052 32.7627 42.8619 32.4658 42.6207C32.1751 42.3795 31.7546 42.2589 31.2041 42.2589C30.7155 42.2589 30.3166 42.3455 30.0073 42.5187C29.7043 42.6857 29.5002 42.9207 29.395 43.2238L29.3765 43.2609H26.8809L26.8901 43.1774C26.9582 42.5712 27.1808 42.0455 27.5581 41.6002C27.9416 41.1549 28.4549 40.8086 29.0981 40.5612C29.7414 40.3076 30.4897 40.1808 31.3433 40.1808C32.2463 40.1808 33.0132 40.3199 33.644 40.5983C34.2749 40.8704 34.7542 41.2631 35.082 41.7765C35.416 42.2898 35.583 42.9083 35.583 43.632V50.59H32.9111V49.2262H32.7534C32.5802 49.5416 32.3483 49.8138 32.0576 50.0426C31.7669 50.2714 31.4329 50.4477 31.0557 50.5714C30.6784 50.6889 30.2671 50.7477 29.8218 50.7477Z" fill="black"/>
<path d="M16.1382 84.7218C14.2998 84.7218 13.0986 83.3961 13.0986 81.3527V79.8732C13.0986 77.837 14.2998 76.5114 16.1382 76.5114C17.2881 76.5114 18.1377 77.0021 18.4819 77.8737H18.6138V73.5231H19.8809V84.59H18.6577V83.3741H18.5186C18.1084 84.2531 17.2734 84.7218 16.1382 84.7218ZM16.5044 83.5865C17.8081 83.5865 18.6504 82.649 18.6504 81.1769V80.0343C18.6504 78.5695 17.8081 77.632 16.5044 77.632C15.1934 77.632 14.3511 78.5695 14.3511 80.0343V81.1769C14.3511 82.6417 15.1934 83.5865 16.5044 83.5865ZM29.7832 80.4811H22.0342V79.3239H29.7832V80.4811ZM34.0093 84.59V77.7272H31.8779V76.6652H34.0093V75.8668C34.0093 74.3287 34.9614 73.611 36.917 73.611C37.3784 73.611 38.4844 73.6476 38.748 73.6842V74.7023C38.4038 74.6656 37.3784 74.6364 36.9316 74.6364C35.8257 74.6364 35.2397 75.0465 35.2397 75.8448V76.6652H38.748V77.7272H35.2544V84.59H34.0093ZM41.5605 78.7892C41.5605 77.4122 42.7324 76.4894 44.4829 76.4894C46.1382 76.4894 47.2588 77.317 47.4053 78.6427H46.2041C46.0576 77.9469 45.3911 77.5221 44.4609 77.5221C43.4502 77.5221 42.7983 77.9908 42.7983 78.7159C42.7983 79.3239 43.2085 79.6681 44.2046 79.8878L45.3252 80.1442C46.8706 80.4957 47.5737 81.1696 47.5737 82.3195C47.5737 83.7843 46.3506 84.7365 44.4683 84.7365C42.6665 84.7365 41.4727 83.8942 41.3335 82.5319H42.6006C42.7837 83.2643 43.4868 83.6891 44.5122 83.6891C45.5962 83.6891 46.2847 83.1984 46.2847 82.4366C46.2847 81.8068 45.8965 81.4698 44.8857 81.2428L43.7065 80.9718C42.271 80.6422 41.5605 79.9171 41.5605 78.7892ZM57.6006 80.4811H49.8516V79.3239H57.6006V80.4811ZM61.7095 79.6901V78.6061H62.8594C64.0459 78.6061 64.8735 77.8297 64.8735 76.7238C64.8735 75.6471 64.0825 74.9366 62.8887 74.9366C61.7021 74.9366 60.9111 75.6324 60.8086 76.7677H59.5708C59.6953 74.9366 60.9844 73.8014 62.9399 73.8014C64.8296 73.8014 66.1772 74.9366 66.1772 76.5406C66.1772 77.8151 65.5107 78.7233 64.3755 79.0016V79.1188C65.7817 79.3019 66.6167 80.2906 66.6167 81.7335C66.6167 83.528 65.1079 84.8097 62.9985 84.8097C60.9111 84.8097 59.4609 83.6085 59.3657 81.7848H60.5889C60.7061 82.9127 61.6436 83.6451 62.9619 83.6451C64.4121 83.6451 65.313 82.8981 65.313 81.7042C65.313 80.4738 64.3828 79.6901 62.918 79.6901H61.7095ZM72.2783 84.8317C69.9785 84.8317 68.7114 82.8688 68.7114 79.3092C68.7114 75.7496 69.9785 73.7867 72.2783 73.7867C74.5708 73.7867 75.8452 75.7496 75.8452 79.3092C75.8452 82.8688 74.5708 84.8317 72.2783 84.8317ZM69.9932 79.3092C69.9932 79.7267 70.0151 80.1149 70.0444 80.4738L74.3071 76.9142C73.9629 75.6031 73.2744 74.9293 72.2783 74.9293C70.7842 74.9293 69.9932 76.4381 69.9932 79.3092ZM72.2783 83.6891C73.7725 83.6891 74.5562 82.173 74.5562 79.3092C74.5562 78.8844 74.5415 78.4962 74.5049 78.13L70.2568 81.7189C70.6011 83.0153 71.2822 83.6891 72.2783 83.6891ZM81.5508 84.8317C79.251 84.8317 77.9839 82.8688 77.9839 79.3092C77.9839 75.7496 79.251 73.7867 81.5508 73.7867C83.8433 73.7867 85.1177 75.7496 85.1177 79.3092C85.1177 82.8688 83.8433 84.8317 81.5508 84.8317ZM79.2656 79.3092C79.2656 79.7267 79.2876 80.1149 79.3169 80.4738L83.5796 76.9142C83.2354 75.6031 82.5469 74.9293 81.5508 74.9293C80.0566 74.9293 79.2656 76.4381 79.2656 79.3092ZM81.5508 83.6891C83.0449 83.6891 83.8286 82.173 83.8286 79.3092C83.8286 78.8844 83.814 78.4962 83.7773 78.13L79.5293 81.7189C79.8735 83.0153 80.5547 83.6891 81.5508 83.6891Z" fill="black"/>
</svg>
