<svg width="130" height="101" viewBox="0 0 130 101" fill="none" xmlns="http://www.w3.org/2000/svg">
<rect y="0.589966" width="130" height="100" rx="14" fill="white" fill-opacity="0.6"/>
<rect x="0.5" y="1.08997" width="129" height="99" rx="13.5" stroke="black" stroke-opacity="0.1"/>
<path d="M12.3691 52.59L19.2905 33.566H21.6899V36.7301H20.8462L15.4805 52.59H12.3691ZM15.731 47.4484L16.5879 45.0753H25.1836L26.0405 47.4484H15.731ZM26.2778 52.59L20.9253 36.7301V33.566H22.4941L29.3892 52.59H26.2778ZM35.2031 52.8405C34.2803 52.8405 33.4717 52.6647 32.7773 52.3131C32.083 51.9615 31.5381 51.4694 31.1426 50.8365C30.7559 50.2037 30.5625 49.4742 30.5625 48.6481V48.6217C30.5625 47.4088 31.0151 46.4464 31.9204 45.7345C32.8257 45.0226 34.0957 44.6183 35.7305 44.5216L40.9775 44.2052V46.2091L36.1128 46.5123C35.2603 46.5651 34.6011 46.7716 34.1353 47.132C33.6782 47.4835 33.4497 47.9537 33.4497 48.5426V48.569C33.4497 49.1842 33.6782 49.6676 34.1353 50.0192C34.6011 50.3707 35.2163 50.5465 35.981 50.5465C36.6489 50.5465 37.2466 50.4103 37.7739 50.1378C38.3101 49.8654 38.7319 49.4918 39.0396 49.0172C39.356 48.5338 39.5142 47.9933 39.5142 47.3956V43.2428C39.5142 42.4869 39.2725 41.8893 38.7891 41.4498C38.3145 41.0104 37.6333 40.7906 36.7456 40.7906C35.9282 40.7906 35.269 40.9664 34.7681 41.318C34.2759 41.6696 33.9683 42.1222 33.8452 42.6759L33.8188 42.7946H31.1162L31.1294 42.6364C31.2085 41.8453 31.481 41.1334 31.9468 40.5006C32.4126 39.859 33.0586 39.3536 33.8848 38.9845C34.7109 38.6154 35.6909 38.4308 36.8247 38.4308C37.9585 38.4308 38.9385 38.6198 39.7646 38.9977C40.5996 39.3756 41.2412 39.9073 41.6895 40.5929C42.1465 41.2784 42.375 42.087 42.375 43.0187V52.59H39.5142V50.4147H39.4351C39.1714 50.9069 38.8242 51.3375 38.3936 51.7067C37.9629 52.067 37.4751 52.3483 36.9302 52.5504C36.394 52.7438 35.8184 52.8405 35.2031 52.8405Z" fill="black"/>
<path d="M13.2671 76.9948C13.2671 75.1344 14.644 73.8014 16.5703 73.8014C18.5112 73.8014 19.8442 75.0026 19.8442 76.7677C19.8442 77.8663 19.3462 78.7452 17.6616 80.5836L15.1714 83.2936V83.4181H20.0127V84.59H13.3257V83.6964L16.8999 79.7194C18.2402 78.2179 18.5625 77.6539 18.5625 76.819C18.5625 75.6837 17.7642 74.9366 16.5337 74.9366C15.3179 74.9366 14.5122 75.7496 14.5122 76.9948V77.0387H13.2671V76.9948ZM25.9087 84.6339C25.1836 84.6339 24.583 84.026 24.583 83.2789C24.583 82.5392 25.1836 81.9313 25.9087 81.9313C26.6338 81.9313 27.2344 82.5392 27.2344 83.2789C27.2344 84.026 26.6338 84.6339 25.9087 84.6339ZM32.647 84.59L37.4443 75.2736V75.1783H31.7095V74.0211H38.7627V75.215L34.0239 84.59H32.647ZM44.1387 81.0304V83.5939H46.5996V84.59H41.3188V83.5939H42.9229V77.6393H41.1577V76.6432H44.124V78.672H44.2852C44.5781 77.1998 45.5669 76.4381 47.0977 76.4381C47.5518 76.4381 47.9839 76.504 48.2476 76.6139V78.0128C47.8813 77.881 47.3687 77.7931 46.9365 77.7931C45.1787 77.7931 44.1387 79.0089 44.1387 81.0304ZM55.8721 82.5392H57.0806C56.8389 83.8502 55.5791 84.7365 53.9092 84.7365C51.7266 84.7365 50.4595 83.4254 50.4595 81.1622V79.9684C50.4595 77.8737 51.7998 76.4967 53.8213 76.4967C55.8867 76.4967 57.1025 77.8663 57.1025 80.1661V80.9425H51.6899V81.2648C51.6899 82.7223 52.5542 83.6598 53.9092 83.6598C54.9126 83.6598 55.6523 83.235 55.8721 82.5392ZM53.814 77.566C52.4883 77.566 51.6899 78.4742 51.6899 79.9977H55.8721C55.8721 78.4816 55.0957 77.566 53.814 77.566ZM66.8291 78.7379V84.59H65.7085V79.1041C65.7085 78.1373 65.3569 77.632 64.6904 77.632C63.9946 77.632 63.5698 78.2399 63.5698 79.2286V84.59H62.4565V79.0968C62.4565 78.1373 62.105 77.632 61.4312 77.632C60.728 77.632 60.2886 78.2399 60.2886 79.2286V84.59H59.168V76.6432H60.2812V77.7638H60.4131C60.6108 76.9655 61.1821 76.4967 61.9292 76.4967C62.6763 76.4967 63.2036 76.9581 63.3721 77.7418H63.5039C63.709 76.9801 64.3462 76.4967 65.1445 76.4967C66.2505 76.4967 66.8291 77.2657 66.8291 78.7379Z" fill="black"/>
</svg>
