<svg width="223" height="93" viewBox="0 0 223 93" fill="none" xmlns="http://www.w3.org/2000/svg">
<rect y="0.589966" width="222.5" height="92" rx="14" fill="white" fill-opacity="0.6"/>
<rect x="0.5" y="1.08997" width="221.5" height="91" rx="13.5" stroke="black" stroke-opacity="0.1"/>
<rect width="193" height="30" transform="translate(12 20.59)" fill="#DAC7FF"/>
<path d="M12.6123 42.59L17.4458 29.2028H19.1343V31.5406H18.5034L14.8018 42.59H12.6123ZM14.9409 38.9718L15.5254 37.3019H21.6206L22.2051 38.9718H14.9409ZM22.3442 42.59L18.6426 31.5406V29.2028H19.7002L24.5337 42.59H22.3442ZM26.5933 42.59V32.5426H28.6157V42.59H26.5933ZM27.6138 30.7706C27.2674 30.7706 26.9705 30.65 26.7231 30.4088C26.4757 30.1614 26.3521 29.8645 26.3521 29.5182C26.3521 29.1718 26.4757 28.8781 26.7231 28.6368C26.9705 28.3956 27.2674 28.275 27.6138 28.275C27.9601 28.275 28.2539 28.3956 28.4951 28.6368C28.7425 28.8781 28.8662 29.1718 28.8662 29.5182C28.8662 29.8645 28.7425 30.1614 28.4951 30.4088C28.2539 30.65 27.9601 30.7706 27.6138 30.7706ZM40.2959 42.6642C39.2074 42.6642 38.4157 42.4539 37.9209 42.0333C37.4323 41.6066 37.188 40.9108 37.188 39.9459V34.1383H35.6294V32.5426H37.188V30.0099H39.2476V32.5426H41.3813V34.1383H39.2476V39.4913C39.2476 40.0232 39.3558 40.4098 39.5723 40.651C39.7949 40.886 40.1506 41.0035 40.6392 41.0035C40.7876 41.0035 40.9144 41.0004 41.0195 40.9943C41.1247 40.9819 41.2453 40.9695 41.3813 40.9572V42.5621C41.2267 42.5869 41.0566 42.6085 40.8711 42.6271C40.6855 42.6518 40.4938 42.6642 40.2959 42.6642ZM43.7563 42.59V28.6183H45.7788V34.0734H45.918C46.1654 33.5353 46.5334 33.1147 47.022 32.8116C47.5106 32.5024 48.1198 32.3478 48.8496 32.3478C49.598 32.3478 50.2319 32.4962 50.7515 32.7931C51.271 33.09 51.6668 33.5198 51.939 34.0826C52.2111 34.6393 52.3472 35.3165 52.3472 36.1144V42.59H50.3247V36.5782C50.3247 35.7433 50.1453 35.1186 49.7866 34.7042C49.4341 34.2837 48.8898 34.0734 48.1538 34.0734C47.6714 34.0734 47.2508 34.1816 46.8921 34.3981C46.5396 34.6145 46.2643 34.9176 46.0664 35.3073C45.8747 35.6969 45.7788 36.1608 45.7788 36.6989V42.59H43.7563ZM57.8486 42.757C57.2116 42.757 56.6426 42.6364 56.1416 42.3951C55.6406 42.1477 55.2448 41.8014 54.9541 41.3561C54.6634 40.9046 54.5181 40.3727 54.5181 39.7604V39.7418C54.5181 38.845 54.8428 38.143 55.4922 37.6359C56.1478 37.1225 57.0755 36.8318 58.2754 36.7638L61.9863 36.5411V37.9606L58.5444 38.1832C57.8579 38.2203 57.3507 38.3657 57.0229 38.6193C56.6951 38.8667 56.5312 39.2161 56.5312 39.6676V39.6862C56.5312 40.1438 56.7075 40.5026 57.0601 40.7623C57.4126 41.0221 57.8579 41.152 58.396 41.152C58.897 41.152 59.3423 41.053 59.7319 40.8551C60.1216 40.651 60.4277 40.3789 60.6504 40.0387C60.873 39.6923 60.9844 39.3027 60.9844 38.8698V35.7247C60.9844 35.1743 60.8112 34.7537 60.4648 34.463C60.1247 34.1661 59.6175 34.0177 58.9434 34.0177C58.3805 34.0177 57.9229 34.1167 57.5703 34.3146C57.2178 34.5125 56.9827 34.7939 56.8652 35.1588L56.8467 35.1959H54.917L54.9263 35.1217C55.0005 34.5651 55.217 34.0795 55.5757 33.6652C55.9344 33.2508 56.4076 32.9292 56.9951 32.7003C57.5827 32.4653 58.2599 32.3478 59.0269 32.3478C59.8742 32.3478 60.5916 32.4838 61.1792 32.756C61.7668 33.0219 62.2152 33.4054 62.5244 33.9064C62.8337 34.4073 62.9883 35.0104 62.9883 35.7155V42.59H60.9844V41.152H60.8359C60.6442 41.4921 60.3999 41.7828 60.103 42.024C59.8062 42.2653 59.4691 42.4477 59.0918 42.5714C58.7145 42.6951 58.3001 42.757 57.8486 42.757ZM69.5195 42.6642C68.431 42.6642 67.6393 42.4539 67.1445 42.0333C66.6559 41.6066 66.4116 40.9108 66.4116 39.9459V34.1383H64.853V32.5426H66.4116V30.0099H68.4712V32.5426H70.605V34.1383H68.4712V39.4913C68.4712 40.0232 68.5794 40.4098 68.7959 40.651C69.0186 40.886 69.3742 41.0035 69.8628 41.0035C70.0112 41.0035 70.138 41.0004 70.2432 40.9943C70.3483 40.9819 70.4689 40.9695 70.605 40.9572V42.5621C70.4504 42.5869 70.2803 42.6085 70.0947 42.6271C69.9092 42.6518 69.7174 42.6642 69.5195 42.6642ZM79.8916 42.59L77.127 32.5426H79.1494L80.9492 40.3077H81.0977L83.1665 32.5426H85.0776L87.1558 40.3077H87.2949L89.104 32.5426H91.0986L88.334 42.59H86.2559L84.1685 35.0939H84.0293L81.9512 42.59H79.8916ZM96.9897 42.7848C96.0125 42.7848 95.1683 42.5745 94.457 42.1539C93.7458 41.7334 93.1953 41.1334 92.8057 40.3541C92.4222 39.5748 92.2305 38.6471 92.2305 37.5709V37.5524C92.2305 36.4762 92.4222 35.5485 92.8057 34.7692C93.1953 33.9899 93.7458 33.393 94.457 32.9786C95.1683 32.5581 96.0125 32.3478 96.9897 32.3478C97.967 32.3478 98.8081 32.5581 99.5132 32.9786C100.224 33.393 100.772 33.9899 101.155 34.7692C101.545 35.5485 101.74 36.4762 101.74 37.5524V37.5709C101.74 38.6471 101.548 39.5748 101.165 40.3541C100.781 41.1334 100.234 41.7334 99.5225 42.1539C98.8174 42.5745 97.9731 42.7848 96.9897 42.7848ZM96.9897 41.0963C97.5588 41.0963 98.0412 40.9572 98.437 40.6788C98.839 40.4005 99.1452 39.9985 99.3555 39.4728C99.5719 38.9471 99.6802 38.3131 99.6802 37.5709V37.5524C99.6802 36.8102 99.5719 36.1793 99.3555 35.6598C99.1452 35.1341 98.839 34.7321 98.437 34.4537C98.0412 34.1754 97.5588 34.0363 96.9897 34.0363C96.4207 34.0363 95.9352 34.1754 95.5332 34.4537C95.1312 34.7321 94.8219 35.1341 94.6055 35.6598C94.3952 36.1793 94.29 36.8102 94.29 37.5524V37.5709C94.29 38.3131 94.3952 38.9471 94.6055 39.4728C94.8219 39.9985 95.1312 40.4005 95.5332 40.6788C95.9352 40.9572 96.4207 41.0963 96.9897 41.0963ZM104.068 42.59V32.5426H106.082V34.0734H106.23C106.403 33.5353 106.712 33.1178 107.158 32.8209C107.609 32.5179 108.166 32.3663 108.828 32.3663C108.988 32.3663 109.146 32.3756 109.301 32.3942C109.462 32.4127 109.591 32.4344 109.69 32.4591V34.3146C109.523 34.2775 109.35 34.2496 109.171 34.2311C108.998 34.2125 108.815 34.2032 108.624 34.2032C108.116 34.2032 107.671 34.3022 107.288 34.5001C106.91 34.6919 106.613 34.9671 106.397 35.3258C106.187 35.6783 106.082 36.0989 106.082 36.5875V42.59H104.068ZM111.657 42.59V28.6183H113.67V42.59H111.657ZM117.984 42.59L114.375 37.8771L115.851 36.6154L120.434 42.59H117.984ZM113.457 39.1573L113.383 36.7823H113.819L117.799 32.5426H120.165L115.609 37.1627L114.876 37.7472L113.457 39.1573ZM125.462 42.7848C124.658 42.7848 123.956 42.6673 123.356 42.4323C122.756 42.191 122.28 41.8571 121.927 41.4303C121.581 41.0035 121.374 40.5057 121.306 39.9366V39.9181H123.328V39.9366C123.458 40.3263 123.702 40.6386 124.061 40.8737C124.426 41.1087 124.908 41.2262 125.508 41.2262C125.923 41.2262 126.285 41.1674 126.594 41.0499C126.903 40.9324 127.144 40.7716 127.317 40.5675C127.497 40.3572 127.586 40.116 127.586 39.8439V39.8253C127.586 39.5099 127.463 39.247 127.215 39.0367C126.968 38.8203 126.554 38.644 125.972 38.5079L124.367 38.1368C123.421 37.9204 122.719 37.5895 122.261 37.1442C121.81 36.6927 121.584 36.102 121.584 35.3722V35.3629C121.584 34.7692 121.751 34.2465 122.085 33.795C122.419 33.3435 122.88 32.991 123.467 32.7374C124.055 32.4777 124.726 32.3478 125.48 32.3478C126.254 32.3478 126.925 32.4684 127.494 32.7096C128.063 32.9446 128.514 33.2755 128.848 33.7023C129.182 34.1228 129.377 34.6053 129.433 35.1495V35.1774H127.512L127.503 35.1588C127.416 34.7939 127.2 34.4939 126.854 34.2589C126.507 34.0177 126.049 33.8971 125.48 33.8971C125.116 33.8971 124.791 33.9559 124.506 34.0734C124.222 34.1847 123.999 34.3424 123.838 34.5465C123.678 34.7444 123.597 34.9795 123.597 35.2516V35.2701C123.597 35.5794 123.718 35.8361 123.959 36.0402C124.206 36.2443 124.611 36.4143 125.174 36.5504L126.77 36.9122C127.741 37.1411 128.458 37.472 128.922 37.9049C129.392 38.3378 129.627 38.9161 129.627 39.6398V39.6583C129.627 40.2768 129.445 40.8211 129.08 41.2911C128.721 41.7612 128.23 42.1292 127.605 42.3951C126.98 42.6549 126.266 42.7848 125.462 42.7848ZM137.717 42.59V34.1383H136.084V32.5426H137.717V31.485C137.717 30.4892 137.971 29.747 138.478 29.2584C138.991 28.7636 139.771 28.5162 140.816 28.5162C141.045 28.5162 141.255 28.5255 141.447 28.5441C141.645 28.5626 141.83 28.5843 142.003 28.609V30.0934C141.911 30.0748 141.796 30.0625 141.66 30.0563C141.53 30.0501 141.391 30.047 141.243 30.047C140.698 30.047 140.306 30.1769 140.064 30.4366C139.829 30.6902 139.712 31.0706 139.712 31.5778V32.5426H141.92V34.1383H139.73V42.59H137.717ZM147.959 42.7848C146.982 42.7848 146.138 42.5745 145.427 42.1539C144.715 41.7334 144.165 41.1334 143.775 40.3541C143.392 39.5748 143.2 38.6471 143.2 37.5709V37.5524C143.2 36.4762 143.392 35.5485 143.775 34.7692C144.165 33.9899 144.715 33.393 145.427 32.9786C146.138 32.5581 146.982 32.3478 147.959 32.3478C148.937 32.3478 149.778 32.5581 150.483 32.9786C151.194 33.393 151.742 33.9899 152.125 34.7692C152.515 35.5485 152.709 36.4762 152.709 37.5524V37.5709C152.709 38.6471 152.518 39.5748 152.134 40.3541C151.751 41.1334 151.203 41.7334 150.492 42.1539C149.787 42.5745 148.943 42.7848 147.959 42.7848ZM147.959 41.0963C148.528 41.0963 149.011 40.9572 149.407 40.6788C149.809 40.4005 150.115 39.9985 150.325 39.4728C150.542 38.9471 150.65 38.3131 150.65 37.5709V37.5524C150.65 36.8102 150.542 36.1793 150.325 35.6598C150.115 35.1341 149.809 34.7321 149.407 34.4537C149.011 34.1754 148.528 34.0363 147.959 34.0363C147.39 34.0363 146.905 34.1754 146.503 34.4537C146.101 34.7321 145.792 35.1341 145.575 35.6598C145.365 36.1793 145.26 36.8102 145.26 37.5524V37.5709C145.26 38.3131 145.365 38.9471 145.575 39.4728C145.792 39.9985 146.101 40.4005 146.503 40.6788C146.905 40.9572 147.39 41.0963 147.959 41.0963ZM155.038 42.59V32.5426H157.051V34.0734H157.2C157.373 33.5353 157.682 33.1178 158.127 32.8209C158.579 32.5179 159.136 32.3663 159.797 32.3663C159.958 32.3663 160.116 32.3756 160.271 32.3942C160.431 32.4127 160.561 32.4344 160.66 32.4591V34.3146C160.493 34.2775 160.32 34.2496 160.141 34.2311C159.967 34.2125 159.785 34.2032 159.593 34.2032C159.086 34.2032 158.641 34.3022 158.257 34.5001C157.88 34.6919 157.583 34.9671 157.367 35.3258C157.156 35.6783 157.051 36.0989 157.051 36.5875V42.59H155.038ZM168.602 46.1061C168.465 46.1061 168.323 46.0999 168.175 46.0875C168.033 46.0813 167.896 46.0721 167.767 46.0597V44.4733C167.859 44.4856 167.965 44.4949 168.082 44.5011C168.206 44.5073 168.326 44.5104 168.444 44.5104C168.914 44.5104 169.291 44.4021 169.576 44.1857C169.866 43.9754 170.086 43.6167 170.234 43.1095L170.392 42.5992L166.737 32.5426H168.926L171.747 41.5602L171.144 40.5768H171.895L171.292 41.5602L174.112 32.5426H176.237L172.498 42.9796C172.214 43.7713 171.898 44.3929 171.552 44.8444C171.212 45.302 170.803 45.6267 170.327 45.8185C169.857 46.0102 169.282 46.1061 168.602 46.1061ZM182.063 42.7848C181.086 42.7848 180.242 42.5745 179.53 42.1539C178.819 41.7334 178.269 41.1334 177.879 40.3541C177.495 39.5748 177.304 38.6471 177.304 37.5709V37.5524C177.304 36.4762 177.495 35.5485 177.879 34.7692C178.269 33.9899 178.819 33.393 179.53 32.9786C180.242 32.5581 181.086 32.3478 182.063 32.3478C183.04 32.3478 183.881 32.5581 184.586 32.9786C185.298 33.393 185.845 33.9899 186.229 34.7692C186.618 35.5485 186.813 36.4762 186.813 37.5524V37.5709C186.813 38.6471 186.621 39.5748 186.238 40.3541C185.854 41.1334 185.307 41.7334 184.596 42.1539C183.891 42.5745 183.046 42.7848 182.063 42.7848ZM182.063 41.0963C182.632 41.0963 183.114 40.9572 183.51 40.6788C183.912 40.4005 184.218 39.9985 184.429 39.4728C184.645 38.9471 184.753 38.3131 184.753 37.5709V37.5524C184.753 36.8102 184.645 36.1793 184.429 35.6598C184.218 35.1341 183.912 34.7321 183.51 34.4537C183.114 34.1754 182.632 34.0363 182.063 34.0363C181.494 34.0363 181.008 34.1754 180.606 34.4537C180.204 34.7321 179.895 35.1341 179.679 35.6598C179.468 36.1793 179.363 36.8102 179.363 37.5524V37.5709C179.363 38.3131 179.468 38.9471 179.679 39.4728C179.895 39.9985 180.204 40.4005 180.606 40.6788C181.008 40.9572 181.494 41.0963 182.063 41.0963ZM192.491 42.7848C191.736 42.7848 191.102 42.6394 190.589 42.3488C190.082 42.0519 189.698 41.6251 189.438 41.0685C189.179 40.5118 189.049 39.8377 189.049 39.046V32.5426H191.062V38.5822C191.062 39.4047 191.226 40.0232 191.554 40.4376C191.888 40.8458 192.42 41.0499 193.149 41.0499C193.681 41.0499 194.13 40.9448 194.495 40.7345C194.86 40.518 195.135 40.215 195.32 39.8253C195.512 39.4295 195.608 38.9656 195.608 38.4337V32.5426H197.621V42.59H195.608V41.0685H195.459C195.218 41.6066 194.847 42.0271 194.346 42.3302C193.845 42.6333 193.227 42.7848 192.491 42.7848ZM201.954 42.7291C201.576 42.7291 201.255 42.5992 200.989 42.3395C200.729 42.0797 200.599 41.7643 200.599 41.3932C200.599 41.0159 200.729 40.6974 200.989 40.4376C201.255 40.1779 201.576 40.048 201.954 40.048C202.337 40.048 202.656 40.1779 202.909 40.4376C203.169 40.6974 203.299 41.0159 203.299 41.3932C203.299 41.7643 203.169 42.0797 202.909 42.3395C202.656 42.5992 202.337 42.7291 201.954 42.7291Z" fill="black"/>
<path d="M16.1382 76.7218C14.2998 76.7218 13.0986 75.3961 13.0986 73.3527V71.8732C13.0986 69.837 14.2998 68.5114 16.1382 68.5114C17.2881 68.5114 18.1377 69.0021 18.4819 69.8737H18.6138V65.5231H19.8809V76.59H18.6577V75.3741H18.5186C18.1084 76.2531 17.2734 76.7218 16.1382 76.7218ZM16.5044 75.5865C17.8081 75.5865 18.6504 74.649 18.6504 73.1769V72.0343C18.6504 70.5695 17.8081 69.632 16.5044 69.632C15.1934 69.632 14.3511 70.5695 14.3511 72.0343V73.1769C14.3511 74.6417 15.1934 75.5865 16.5044 75.5865ZM29.7832 72.4811H22.0342V71.3239H29.7832V72.4811ZM38.6528 76.59H32.0684V75.5573H34.7856V66.5558H32.0903V65.5231H36.0308V75.5573H38.6528V76.59ZM41.1943 76.59V65.5231H42.3955V70.0494H42.498C42.9155 69.0607 43.8311 68.504 45.0469 68.504C46.7754 68.504 47.7129 69.5441 47.7129 71.441V76.59H46.4678V71.756C46.4678 70.3278 45.8818 69.6466 44.6367 69.6466C43.3257 69.6466 42.4395 70.5621 42.4395 71.9171V76.59H41.1943ZM57.6006 72.4811H49.8516V71.3239H57.6006V72.4811ZM64.2363 76.59V74.3561H59.417V73.3087L63.0059 66.0211H64.3242L60.7866 73.1403V73.2355H64.251V70.2179H65.4229V73.2208H67.0342V74.3561H65.4155V76.59H64.2363ZM72.2783 76.8317C69.9785 76.8317 68.7114 74.8688 68.7114 71.3092C68.7114 67.7496 69.9785 65.7867 72.2783 65.7867C74.5708 65.7867 75.8452 67.7496 75.8452 71.3092C75.8452 74.8688 74.5708 76.8317 72.2783 76.8317ZM69.9932 71.3092C69.9932 71.7267 70.0151 72.1149 70.0444 72.4738L74.3071 68.9142C73.9629 67.6031 73.2744 66.9293 72.2783 66.9293C70.7842 66.9293 69.9932 68.4381 69.9932 71.3092ZM72.2783 75.6891C73.7725 75.6891 74.5562 74.173 74.5562 71.3092C74.5562 70.8844 74.5415 70.4962 74.5049 70.13L70.2568 73.7189C70.6011 75.0153 71.2822 75.6891 72.2783 75.6891ZM81.5508 76.8317C79.251 76.8317 77.9839 74.8688 77.9839 71.3092C77.9839 67.7496 79.251 65.7867 81.5508 65.7867C83.8433 65.7867 85.1177 67.7496 85.1177 71.3092C85.1177 74.8688 83.8433 76.8317 81.5508 76.8317ZM79.2656 71.3092C79.2656 71.7267 79.2876 72.1149 79.3169 72.4738L83.5796 68.9142C83.2354 67.6031 82.5469 66.9293 81.5508 66.9293C80.0566 66.9293 79.2656 68.4381 79.2656 71.3092ZM81.5508 75.6891C83.0449 75.6891 83.8286 74.173 83.8286 71.3092C83.8286 70.8844 83.814 70.4962 83.7773 70.13L79.5293 73.7189C79.8735 75.0153 80.5547 75.6891 81.5508 75.6891Z" fill="black"/>
</svg>
