<svg width="223" height="93" viewBox="0 0 223 93" fill="none" xmlns="http://www.w3.org/2000/svg">
<rect x="0.5" y="0.589966" width="222.5" height="92" rx="14" fill="white" fill-opacity="0.6"/>
<rect x="1" y="1.08997" width="221.5" height="91" rx="13.5" stroke="black" stroke-opacity="0.1"/>
<rect width="193" height="34" transform="translate(12.5 16.59)" fill="#DAC7FF"/>
<path d="M13.1123 40.59L17.9458 27.2028H19.6343V29.5406H19.0034L15.3018 40.59H13.1123ZM15.4409 36.9718L16.0254 35.3019H22.1206L22.7051 36.9718H15.4409ZM22.8442 40.59L19.1426 29.5406V27.2028H20.2002L25.0337 40.59H22.8442ZM27.0933 40.59V30.5426H29.1157V40.59H27.0933ZM28.1138 28.7706C27.7674 28.7706 27.4705 28.65 27.2231 28.4088C26.9757 28.1614 26.8521 27.8645 26.8521 27.5182C26.8521 27.1718 26.9757 26.8781 27.2231 26.6368C27.4705 26.3956 27.7674 26.275 28.1138 26.275C28.4601 26.275 28.7539 26.3956 28.9951 26.6368C29.2425 26.8781 29.3662 27.1718 29.3662 27.5182C29.3662 27.8645 29.2425 28.1614 28.9951 28.4088C28.7539 28.65 28.4601 28.7706 28.1138 28.7706ZM40.7959 40.6642C39.7074 40.6642 38.9157 40.4539 38.4209 40.0333C37.9323 39.6066 37.688 38.9108 37.688 37.9459V32.1383H36.1294V30.5426H37.688V28.0099H39.7476V30.5426H41.8813V32.1383H39.7476V37.4913C39.7476 38.0232 39.8558 38.4098 40.0723 38.651C40.2949 38.886 40.6506 39.0035 41.1392 39.0035C41.2876 39.0035 41.4144 39.0004 41.5195 38.9943C41.6247 38.9819 41.7453 38.9695 41.8813 38.9572V40.5621C41.7267 40.5869 41.5566 40.6085 41.3711 40.6271C41.1855 40.6518 40.9938 40.6642 40.7959 40.6642ZM44.2563 40.59V26.6183H46.2788V32.0734H46.418C46.6654 31.5353 47.0334 31.1147 47.522 30.8116C48.0106 30.5024 48.6198 30.3478 49.3496 30.3478C50.098 30.3478 50.7319 30.4962 51.2515 30.7931C51.771 31.09 52.1668 31.5198 52.439 32.0826C52.7111 32.6393 52.8472 33.3165 52.8472 34.1144V40.59H50.8247V34.5782C50.8247 33.7433 50.6453 33.1186 50.2866 32.7042C49.9341 32.2837 49.3898 32.0734 48.6538 32.0734C48.1714 32.0734 47.7508 32.1816 47.3921 32.3981C47.0396 32.6145 46.7643 32.9176 46.5664 33.3073C46.3747 33.6969 46.2788 34.1608 46.2788 34.6989V40.59H44.2563ZM58.3486 40.757C57.7116 40.757 57.1426 40.6364 56.6416 40.3951C56.1406 40.1477 55.7448 39.8014 55.4541 39.3561C55.1634 38.9046 55.0181 38.3727 55.0181 37.7604V37.7418C55.0181 36.845 55.3428 36.143 55.9922 35.6359C56.6478 35.1225 57.5755 34.8318 58.7754 34.7638L62.4863 34.5411V35.9606L59.0444 36.1832C58.3579 36.2203 57.8507 36.3657 57.5229 36.6193C57.1951 36.8667 57.0312 37.2161 57.0312 37.6676V37.6862C57.0312 38.1438 57.2075 38.5026 57.5601 38.7623C57.9126 39.0221 58.3579 39.152 58.896 39.152C59.397 39.152 59.8423 39.053 60.2319 38.8551C60.6216 38.651 60.9277 38.3789 61.1504 38.0387C61.373 37.6923 61.4844 37.3027 61.4844 36.8698V33.7247C61.4844 33.1743 61.3112 32.7537 60.9648 32.463C60.6247 32.1661 60.1175 32.0177 59.4434 32.0177C58.8805 32.0177 58.4229 32.1167 58.0703 32.3146C57.7178 32.5125 57.4827 32.7939 57.3652 33.1588L57.3467 33.1959H55.417L55.4263 33.1217C55.5005 32.5651 55.717 32.0795 56.0757 31.6652C56.4344 31.2508 56.9076 30.9292 57.4951 30.7003C58.0827 30.4653 58.7599 30.3478 59.5269 30.3478C60.3742 30.3478 61.0916 30.4838 61.6792 30.756C62.2668 31.0219 62.7152 31.4054 63.0244 31.9064C63.3337 32.4073 63.4883 33.0104 63.4883 33.7155V40.59H61.4844V39.152H61.3359C61.1442 39.4921 60.8999 39.7828 60.603 40.024C60.3062 40.2653 59.9691 40.4477 59.5918 40.5714C59.2145 40.6951 58.8001 40.757 58.3486 40.757ZM70.0195 40.6642C68.931 40.6642 68.1393 40.4539 67.6445 40.0333C67.1559 39.6066 66.9116 38.9108 66.9116 37.9459V32.1383H65.353V30.5426H66.9116V28.0099H68.9712V30.5426H71.105V32.1383H68.9712V37.4913C68.9712 38.0232 69.0794 38.4098 69.2959 38.651C69.5186 38.886 69.8742 39.0035 70.3628 39.0035C70.5112 39.0035 70.638 39.0004 70.7432 38.9943C70.8483 38.9819 70.9689 38.9695 71.105 38.9572V40.5621C70.9504 40.5869 70.7803 40.6085 70.5947 40.6271C70.4092 40.6518 70.2174 40.6642 70.0195 40.6642ZM80.3916 40.59L77.627 30.5426H79.6494L81.4492 38.3077H81.5977L83.6665 30.5426H85.5776L87.6558 38.3077H87.7949L89.604 30.5426H91.5986L88.834 40.59H86.7559L84.6685 33.0939H84.5293L82.4512 40.59H80.3916ZM97.4897 40.7848C96.5125 40.7848 95.6683 40.5745 94.957 40.1539C94.2458 39.7334 93.6953 39.1334 93.3057 38.3541C92.9222 37.5748 92.7305 36.6471 92.7305 35.5709V35.5524C92.7305 34.4762 92.9222 33.5485 93.3057 32.7692C93.6953 31.9899 94.2458 31.393 94.957 30.9786C95.6683 30.5581 96.5125 30.3478 97.4897 30.3478C98.467 30.3478 99.3081 30.5581 100.013 30.9786C100.724 31.393 101.272 31.9899 101.655 32.7692C102.045 33.5485 102.24 34.4762 102.24 35.5524V35.5709C102.24 36.6471 102.048 37.5748 101.665 38.3541C101.281 39.1334 100.734 39.7334 100.022 40.1539C99.3174 40.5745 98.4731 40.7848 97.4897 40.7848ZM97.4897 39.0963C98.0588 39.0963 98.5412 38.9572 98.937 38.6788C99.339 38.4005 99.6452 37.9985 99.8555 37.4728C100.072 36.9471 100.18 36.3131 100.18 35.5709V35.5524C100.18 34.8102 100.072 34.1793 99.8555 33.6598C99.6452 33.1341 99.339 32.7321 98.937 32.4537C98.5412 32.1754 98.0588 32.0363 97.4897 32.0363C96.9207 32.0363 96.4352 32.1754 96.0332 32.4537C95.6312 32.7321 95.3219 33.1341 95.1055 33.6598C94.8952 34.1793 94.79 34.8102 94.79 35.5524V35.5709C94.79 36.3131 94.8952 36.9471 95.1055 37.4728C95.3219 37.9985 95.6312 38.4005 96.0332 38.6788C96.4352 38.9572 96.9207 39.0963 97.4897 39.0963ZM104.568 40.59V30.5426H106.582V32.0734H106.73C106.903 31.5353 107.212 31.1178 107.658 30.8209C108.109 30.5179 108.666 30.3663 109.328 30.3663C109.488 30.3663 109.646 30.3756 109.801 30.3942C109.962 30.4127 110.091 30.4344 110.19 30.4591V32.3146C110.023 32.2775 109.85 32.2496 109.671 32.2311C109.498 32.2125 109.315 32.2032 109.124 32.2032C108.616 32.2032 108.171 32.3022 107.788 32.5001C107.41 32.6919 107.113 32.9671 106.897 33.3258C106.687 33.6783 106.582 34.0989 106.582 34.5875V40.59H104.568ZM112.157 40.59V26.6183H114.17V40.59H112.157ZM118.484 40.59L114.875 35.8771L116.351 34.6154L120.934 40.59H118.484ZM113.957 37.1573L113.883 34.7823H114.319L118.299 30.5426H120.665L116.109 35.1627L115.376 35.7472L113.957 37.1573ZM125.962 40.7848C125.158 40.7848 124.456 40.6673 123.856 40.4323C123.256 40.191 122.78 39.8571 122.427 39.4303C122.081 39.0035 121.874 38.5057 121.806 37.9366V37.9181H123.828V37.9366C123.958 38.3263 124.202 38.6386 124.561 38.8737C124.926 39.1087 125.408 39.2262 126.008 39.2262C126.423 39.2262 126.785 39.1674 127.094 39.0499C127.403 38.9324 127.644 38.7716 127.817 38.5675C127.997 38.3572 128.086 38.116 128.086 37.8439V37.8253C128.086 37.5099 127.963 37.247 127.715 37.0367C127.468 36.8203 127.054 36.644 126.472 36.5079L124.867 36.1368C123.921 35.9204 123.219 35.5895 122.761 35.1442C122.31 34.6927 122.084 34.102 122.084 33.3722V33.3629C122.084 32.7692 122.251 32.2465 122.585 31.795C122.919 31.3435 123.38 30.991 123.967 30.7374C124.555 30.4777 125.226 30.3478 125.98 30.3478C126.754 30.3478 127.425 30.4684 127.994 30.7096C128.563 30.9446 129.014 31.2755 129.348 31.7023C129.682 32.1228 129.877 32.6053 129.933 33.1495V33.1774H128.012L128.003 33.1588C127.916 32.7939 127.7 32.4939 127.354 32.2589C127.007 32.0177 126.549 31.8971 125.98 31.8971C125.616 31.8971 125.291 31.9559 125.006 32.0734C124.722 32.1847 124.499 32.3424 124.338 32.5465C124.178 32.7444 124.097 32.9795 124.097 33.2516V33.2701C124.097 33.5794 124.218 33.8361 124.459 34.0402C124.706 34.2443 125.111 34.4143 125.674 34.5504L127.27 34.9122C128.241 35.1411 128.958 35.472 129.422 35.9049C129.892 36.3378 130.127 36.9161 130.127 37.6398V37.6583C130.127 38.2768 129.945 38.8211 129.58 39.2911C129.221 39.7612 128.73 40.1292 128.105 40.3951C127.48 40.6549 126.766 40.7848 125.962 40.7848ZM138.217 40.59V32.1383H136.584V30.5426H138.217V29.485C138.217 28.4892 138.471 27.747 138.978 27.2584C139.491 26.7636 140.271 26.5162 141.316 26.5162C141.545 26.5162 141.755 26.5255 141.947 26.5441C142.145 26.5626 142.33 26.5843 142.503 26.609V28.0934C142.411 28.0748 142.296 28.0625 142.16 28.0563C142.03 28.0501 141.891 28.047 141.743 28.047C141.198 28.047 140.806 28.1769 140.564 28.4366C140.329 28.6902 140.212 29.0706 140.212 29.5778V30.5426H142.42V32.1383H140.23V40.59H138.217ZM148.459 40.7848C147.482 40.7848 146.638 40.5745 145.927 40.1539C145.215 39.7334 144.665 39.1334 144.275 38.3541C143.892 37.5748 143.7 36.6471 143.7 35.5709V35.5524C143.7 34.4762 143.892 33.5485 144.275 32.7692C144.665 31.9899 145.215 31.393 145.927 30.9786C146.638 30.5581 147.482 30.3478 148.459 30.3478C149.437 30.3478 150.278 30.5581 150.983 30.9786C151.694 31.393 152.242 31.9899 152.625 32.7692C153.015 33.5485 153.209 34.4762 153.209 35.5524V35.5709C153.209 36.6471 153.018 37.5748 152.634 38.3541C152.251 39.1334 151.703 39.7334 150.992 40.1539C150.287 40.5745 149.443 40.7848 148.459 40.7848ZM148.459 39.0963C149.028 39.0963 149.511 38.9572 149.907 38.6788C150.309 38.4005 150.615 37.9985 150.825 37.4728C151.042 36.9471 151.15 36.3131 151.15 35.5709V35.5524C151.15 34.8102 151.042 34.1793 150.825 33.6598C150.615 33.1341 150.309 32.7321 149.907 32.4537C149.511 32.1754 149.028 32.0363 148.459 32.0363C147.89 32.0363 147.405 32.1754 147.003 32.4537C146.601 32.7321 146.292 33.1341 146.075 33.6598C145.865 34.1793 145.76 34.8102 145.76 35.5524V35.5709C145.76 36.3131 145.865 36.9471 146.075 37.4728C146.292 37.9985 146.601 38.4005 147.003 38.6788C147.405 38.9572 147.89 39.0963 148.459 39.0963ZM155.538 40.59V30.5426H157.551V32.0734H157.7C157.873 31.5353 158.182 31.1178 158.627 30.8209C159.079 30.5179 159.636 30.3663 160.297 30.3663C160.458 30.3663 160.616 30.3756 160.771 30.3942C160.931 30.4127 161.061 30.4344 161.16 30.4591V32.3146C160.993 32.2775 160.82 32.2496 160.641 32.2311C160.467 32.2125 160.285 32.2032 160.093 32.2032C159.586 32.2032 159.141 32.3022 158.757 32.5001C158.38 32.6919 158.083 32.9671 157.867 33.3258C157.656 33.6783 157.551 34.0989 157.551 34.5875V40.59H155.538ZM169.102 44.1061C168.965 44.1061 168.823 44.0999 168.675 44.0875C168.533 44.0813 168.396 44.0721 168.267 44.0597V42.4733C168.359 42.4856 168.465 42.4949 168.582 42.5011C168.706 42.5073 168.826 42.5104 168.944 42.5104C169.414 42.5104 169.791 42.4021 170.076 42.1857C170.366 41.9754 170.586 41.6167 170.734 41.1095L170.892 40.5992L167.237 30.5426H169.426L172.247 39.5602L171.644 38.5768H172.395L171.792 39.5602L174.612 30.5426H176.737L172.998 40.9796C172.714 41.7713 172.398 42.3929 172.052 42.8444C171.712 43.302 171.303 43.6267 170.827 43.8185C170.357 44.0102 169.782 44.1061 169.102 44.1061ZM182.563 40.7848C181.586 40.7848 180.742 40.5745 180.03 40.1539C179.319 39.7334 178.769 39.1334 178.379 38.3541C177.995 37.5748 177.804 36.6471 177.804 35.5709V35.5524C177.804 34.4762 177.995 33.5485 178.379 32.7692C178.769 31.9899 179.319 31.393 180.03 30.9786C180.742 30.5581 181.586 30.3478 182.563 30.3478C183.54 30.3478 184.381 30.5581 185.086 30.9786C185.798 31.393 186.345 31.9899 186.729 32.7692C187.118 33.5485 187.313 34.4762 187.313 35.5524V35.5709C187.313 36.6471 187.121 37.5748 186.738 38.3541C186.354 39.1334 185.807 39.7334 185.096 40.1539C184.391 40.5745 183.546 40.7848 182.563 40.7848ZM182.563 39.0963C183.132 39.0963 183.614 38.9572 184.01 38.6788C184.412 38.4005 184.718 37.9985 184.929 37.4728C185.145 36.9471 185.253 36.3131 185.253 35.5709V35.5524C185.253 34.8102 185.145 34.1793 184.929 33.6598C184.718 33.1341 184.412 32.7321 184.01 32.4537C183.614 32.1754 183.132 32.0363 182.563 32.0363C181.994 32.0363 181.508 32.1754 181.106 32.4537C180.704 32.7321 180.395 33.1341 180.179 33.6598C179.968 34.1793 179.863 34.8102 179.863 35.5524V35.5709C179.863 36.3131 179.968 36.9471 180.179 37.4728C180.395 37.9985 180.704 38.4005 181.106 38.6788C181.508 38.9572 181.994 39.0963 182.563 39.0963ZM192.991 40.7848C192.236 40.7848 191.602 40.6394 191.089 40.3488C190.582 40.0519 190.198 39.6251 189.938 39.0685C189.679 38.5118 189.549 37.8377 189.549 37.046V30.5426H191.562V36.5822C191.562 37.4047 191.726 38.0232 192.054 38.4376C192.388 38.8458 192.92 39.0499 193.649 39.0499C194.181 39.0499 194.63 38.9448 194.995 38.7345C195.36 38.518 195.635 38.215 195.82 37.8253C196.012 37.4295 196.108 36.9656 196.108 36.4337V30.5426H198.121V40.59H196.108V39.0685H195.959C195.718 39.6066 195.347 40.0271 194.846 40.3302C194.345 40.6333 193.727 40.7848 192.991 40.7848ZM202.454 40.7291C202.076 40.7291 201.755 40.5992 201.489 40.3395C201.229 40.0797 201.099 39.7643 201.099 39.3932C201.099 39.0159 201.229 38.6974 201.489 38.4376C201.755 38.1779 202.076 38.048 202.454 38.048C202.837 38.048 203.156 38.1779 203.409 38.4376C203.669 38.6974 203.799 39.0159 203.799 39.3932C203.799 39.7643 203.669 40.0797 203.409 40.3395C203.156 40.5992 202.837 40.7291 202.454 40.7291Z" fill="black"/>
<path d="M21.1279 76.59H13.7598V75.4547H16.8799V67.486H16.7627L13.7378 69.4415V68.0646L16.8872 66.0211H18.1543V75.4547H21.1279V76.59ZM26.4087 76.6339C25.6836 76.6339 25.083 76.026 25.083 75.2789C25.083 74.5392 25.6836 73.9313 26.4087 73.9313C27.1338 73.9313 27.7344 74.5392 27.7344 75.2789C27.7344 76.026 27.1338 76.6339 26.4087 76.6339ZM35.7178 76.8243C33.5205 76.8243 31.9897 75.5646 31.9897 73.7628C31.9897 72.4518 32.8394 71.3824 34.1431 71.0675V70.9503C33.0811 70.6573 32.4146 69.7491 32.4146 68.5992C32.4146 66.9513 33.7915 65.7867 35.7178 65.7867C37.644 65.7867 39.0137 66.9513 39.0137 68.5992C39.0137 69.7491 38.3618 70.65 37.2852 70.9503V71.0675C38.5669 71.3385 39.4385 72.4298 39.4385 73.7628C39.4385 75.5646 37.915 76.8243 35.7178 76.8243ZM35.7178 70.5109C36.9409 70.5109 37.7466 69.7931 37.7466 68.7091C37.7466 67.6324 36.9409 66.9147 35.7178 66.9147C34.4946 66.9147 33.6816 67.6324 33.6816 68.7091C33.6816 69.7931 34.4946 70.5109 35.7178 70.5109ZM35.7178 75.7037C37.1533 75.7037 38.1421 74.8688 38.1421 73.6603C38.1421 72.4518 37.1533 71.6168 35.7178 71.6168C34.2822 71.6168 33.2935 72.4518 33.2935 73.6603C33.2935 74.8688 34.2822 75.7037 35.7178 75.7037ZM52.2559 77.5934H51.04L56.189 65.0177H57.4121L52.2559 77.5934ZM76.7627 76.59H69.3945V75.4547H72.5146V67.486H72.3975L69.3726 69.4415V68.0646L72.522 66.0211H73.7891V75.4547H76.7627V76.59ZM82.0801 76.8243C79.8828 76.8243 78.3521 75.5646 78.3521 73.7628C78.3521 72.4518 79.2017 71.3824 80.5054 71.0675V70.9503C79.4434 70.6573 78.7769 69.7491 78.7769 68.5992C78.7769 66.9513 80.1538 65.7867 82.0801 65.7867C84.0063 65.7867 85.376 66.9513 85.376 68.5992C85.376 69.7491 84.7241 70.65 83.6475 70.9503V71.0675C84.9292 71.3385 85.8008 72.4298 85.8008 73.7628C85.8008 75.5646 84.2773 76.8243 82.0801 76.8243ZM82.0801 70.5109C83.3032 70.5109 84.1089 69.7931 84.1089 68.7091C84.1089 67.6324 83.3032 66.9147 82.0801 66.9147C80.8569 66.9147 80.0439 67.6324 80.0439 68.7091C80.0439 69.7931 80.8569 70.5109 82.0801 70.5109ZM82.0801 75.7037C83.5156 75.7037 84.5044 74.8688 84.5044 73.6603C84.5044 72.4518 83.5156 71.6168 82.0801 71.6168C80.6445 71.6168 79.6558 72.4518 79.6558 73.6603C79.6558 74.8688 80.6445 75.7037 82.0801 75.7037ZM91.3232 76.8317C89.0234 76.8317 87.7563 74.8688 87.7563 71.3092C87.7563 67.7496 89.0234 65.7867 91.3232 65.7867C93.6157 65.7867 94.8901 67.7496 94.8901 71.3092C94.8901 74.8688 93.6157 76.8317 91.3232 76.8317ZM89.0381 71.3092C89.0381 71.7267 89.0601 72.1149 89.0894 72.4738L93.3521 68.9142C93.0078 67.6031 92.3193 66.9293 91.3232 66.9293C89.8291 66.9293 89.0381 68.4381 89.0381 71.3092ZM91.3232 75.6891C92.8174 75.6891 93.6011 74.173 93.6011 71.3092C93.6011 70.8844 93.5864 70.4962 93.5498 70.13L89.3018 73.7189C89.646 75.0153 90.3271 75.6891 91.3232 75.6891ZM97.981 71.1188C96.7432 71.1188 95.9741 70.2545 95.9741 68.8702V68.1158C95.9741 66.7462 96.7505 65.882 97.981 65.882C99.2114 65.882 99.9805 66.7462 99.9805 68.1158V68.8702C99.9805 70.2545 99.2188 71.1188 97.981 71.1188ZM105.225 66.0211V67.1564L95.9521 76.59V75.4547L105.225 66.0211ZM97.981 70.1959C98.6768 70.1959 99.043 69.6906 99.043 68.7311V68.2697C99.043 67.3102 98.6768 66.8048 97.981 66.8048C97.2778 66.8048 96.9116 67.3102 96.9116 68.2697V68.7311C96.9116 69.6906 97.2778 70.1959 97.981 70.1959ZM103.196 76.7291C101.958 76.7291 101.196 75.8649 101.196 74.4806V73.7262C101.196 72.3639 101.965 71.4923 103.196 71.4923C104.426 71.4923 105.203 72.3639 105.203 73.7262V74.4806C105.203 75.8649 104.434 76.7291 103.196 76.7291ZM103.196 75.8136C103.899 75.8136 104.265 75.3009 104.265 74.3414V73.88C104.265 72.9205 103.899 72.4152 103.196 72.4152C102.5 72.4152 102.134 72.9205 102.134 73.88V74.3414C102.134 75.3009 102.5 75.8136 103.196 75.8136Z" fill="black"/>
</svg>
