<svg width="223" height="93" viewBox="0 0 223 93" fill="none" xmlns="http://www.w3.org/2000/svg">
<rect y="0.589966" width="222.5" height="92" rx="14" fill="white" fill-opacity="0.6"/>
<rect x="0.5" y="1.08997" width="221.5" height="91" rx="13.5" stroke="black" stroke-opacity="0.1"/>
<rect width="193" height="27" transform="translate(12 23.59)" fill="#DAC7FF"/>
<path d="M12.6123 43.59L17.4458 30.2028H19.1343V32.5406H18.5034L14.8018 43.59H12.6123ZM14.9409 39.9718L15.5254 38.3019H21.6206L22.2051 39.9718H14.9409ZM22.3442 43.59L18.6426 32.5406V30.2028H19.7002L24.5337 43.59H22.3442ZM26.5933 43.59V33.5426H28.6157V43.59H26.5933ZM27.6138 31.7706C27.2674 31.7706 26.9705 31.65 26.7231 31.4088C26.4757 31.1614 26.3521 30.8645 26.3521 30.5182C26.3521 30.1718 26.4757 29.8781 26.7231 29.6368C26.9705 29.3956 27.2674 29.275 27.6138 29.275C27.9601 29.275 28.2539 29.3956 28.4951 29.6368C28.7425 29.8781 28.8662 30.1718 28.8662 30.5182C28.8662 30.8645 28.7425 31.1614 28.4951 31.4088C28.2539 31.65 27.9601 31.7706 27.6138 31.7706ZM40.2959 43.6642C39.2074 43.6642 38.4157 43.4539 37.9209 43.0333C37.4323 42.6066 37.188 41.9108 37.188 40.9459V35.1383H35.6294V33.5426H37.188V31.0099H39.2476V33.5426H41.3813V35.1383H39.2476V40.4913C39.2476 41.0232 39.3558 41.4098 39.5723 41.651C39.7949 41.886 40.1506 42.0035 40.6392 42.0035C40.7876 42.0035 40.9144 42.0004 41.0195 41.9943C41.1247 41.9819 41.2453 41.9695 41.3813 41.9572V43.5621C41.2267 43.5869 41.0566 43.6085 40.8711 43.6271C40.6855 43.6518 40.4938 43.6642 40.2959 43.6642ZM43.7563 43.59V29.6183H45.7788V35.0734H45.918C46.1654 34.5353 46.5334 34.1147 47.022 33.8116C47.5106 33.5024 48.1198 33.3478 48.8496 33.3478C49.598 33.3478 50.2319 33.4962 50.7515 33.7931C51.271 34.09 51.6668 34.5198 51.939 35.0826C52.2111 35.6393 52.3472 36.3165 52.3472 37.1144V43.59H50.3247V37.5782C50.3247 36.7433 50.1453 36.1186 49.7866 35.7042C49.4341 35.2837 48.8898 35.0734 48.1538 35.0734C47.6714 35.0734 47.2508 35.1816 46.8921 35.3981C46.5396 35.6145 46.2643 35.9176 46.0664 36.3073C45.8747 36.6969 45.7788 37.1608 45.7788 37.6989V43.59H43.7563ZM57.8486 43.757C57.2116 43.757 56.6426 43.6364 56.1416 43.3951C55.6406 43.1477 55.2448 42.8014 54.9541 42.3561C54.6634 41.9046 54.5181 41.3727 54.5181 40.7604V40.7418C54.5181 39.845 54.8428 39.143 55.4922 38.6359C56.1478 38.1225 57.0755 37.8318 58.2754 37.7638L61.9863 37.5411V38.9606L58.5444 39.1832C57.8579 39.2203 57.3507 39.3657 57.0229 39.6193C56.6951 39.8667 56.5312 40.2161 56.5312 40.6676V40.6862C56.5312 41.1438 56.7075 41.5026 57.0601 41.7623C57.4126 42.0221 57.8579 42.152 58.396 42.152C58.897 42.152 59.3423 42.053 59.7319 41.8551C60.1216 41.651 60.4277 41.3789 60.6504 41.0387C60.873 40.6923 60.9844 40.3027 60.9844 39.8698V36.7247C60.9844 36.1743 60.8112 35.7537 60.4648 35.463C60.1247 35.1661 59.6175 35.0177 58.9434 35.0177C58.3805 35.0177 57.9229 35.1167 57.5703 35.3146C57.2178 35.5125 56.9827 35.7939 56.8652 36.1588L56.8467 36.1959H54.917L54.9263 36.1217C55.0005 35.5651 55.217 35.0795 55.5757 34.6652C55.9344 34.2508 56.4076 33.9292 56.9951 33.7003C57.5827 33.4653 58.2599 33.3478 59.0269 33.3478C59.8742 33.3478 60.5916 33.4838 61.1792 33.756C61.7668 34.0219 62.2152 34.4054 62.5244 34.9064C62.8337 35.4073 62.9883 36.0104 62.9883 36.7155V43.59H60.9844V42.152H60.8359C60.6442 42.4921 60.3999 42.7828 60.103 43.024C59.8062 43.2653 59.4691 43.4477 59.0918 43.5714C58.7145 43.6951 58.3001 43.757 57.8486 43.757ZM69.5195 43.6642C68.431 43.6642 67.6393 43.4539 67.1445 43.0333C66.6559 42.6066 66.4116 41.9108 66.4116 40.9459V35.1383H64.853V33.5426H66.4116V31.0099H68.4712V33.5426H70.605V35.1383H68.4712V40.4913C68.4712 41.0232 68.5794 41.4098 68.7959 41.651C69.0186 41.886 69.3742 42.0035 69.8628 42.0035C70.0112 42.0035 70.138 42.0004 70.2432 41.9943C70.3483 41.9819 70.4689 41.9695 70.605 41.9572V43.5621C70.4504 43.5869 70.2803 43.6085 70.0947 43.6271C69.9092 43.6518 69.7174 43.6642 69.5195 43.6642ZM79.8916 43.59L77.127 33.5426H79.1494L80.9492 41.3077H81.0977L83.1665 33.5426H85.0776L87.1558 41.3077H87.2949L89.104 33.5426H91.0986L88.334 43.59H86.2559L84.1685 36.0939H84.0293L81.9512 43.59H79.8916ZM96.9897 43.7848C96.0125 43.7848 95.1683 43.5745 94.457 43.1539C93.7458 42.7334 93.1953 42.1334 92.8057 41.3541C92.4222 40.5748 92.2305 39.6471 92.2305 38.5709V38.5524C92.2305 37.4762 92.4222 36.5485 92.8057 35.7692C93.1953 34.9899 93.7458 34.393 94.457 33.9786C95.1683 33.5581 96.0125 33.3478 96.9897 33.3478C97.967 33.3478 98.8081 33.5581 99.5132 33.9786C100.224 34.393 100.772 34.9899 101.155 35.7692C101.545 36.5485 101.74 37.4762 101.74 38.5524V38.5709C101.74 39.6471 101.548 40.5748 101.165 41.3541C100.781 42.1334 100.234 42.7334 99.5225 43.1539C98.8174 43.5745 97.9731 43.7848 96.9897 43.7848ZM96.9897 42.0963C97.5588 42.0963 98.0412 41.9572 98.437 41.6788C98.839 41.4005 99.1452 40.9985 99.3555 40.4728C99.5719 39.9471 99.6802 39.3131 99.6802 38.5709V38.5524C99.6802 37.8102 99.5719 37.1793 99.3555 36.6598C99.1452 36.1341 98.839 35.7321 98.437 35.4537C98.0412 35.1754 97.5588 35.0363 96.9897 35.0363C96.4207 35.0363 95.9352 35.1754 95.5332 35.4537C95.1312 35.7321 94.8219 36.1341 94.6055 36.6598C94.3952 37.1793 94.29 37.8102 94.29 38.5524V38.5709C94.29 39.3131 94.3952 39.9471 94.6055 40.4728C94.8219 40.9985 95.1312 41.4005 95.5332 41.6788C95.9352 41.9572 96.4207 42.0963 96.9897 42.0963ZM104.068 43.59V33.5426H106.082V35.0734H106.23C106.403 34.5353 106.712 34.1178 107.158 33.8209C107.609 33.5179 108.166 33.3663 108.828 33.3663C108.988 33.3663 109.146 33.3756 109.301 33.3942C109.462 33.4127 109.591 33.4344 109.69 33.4591V35.3146C109.523 35.2775 109.35 35.2496 109.171 35.2311C108.998 35.2125 108.815 35.2032 108.624 35.2032C108.116 35.2032 107.671 35.3022 107.288 35.5001C106.91 35.6919 106.613 35.9671 106.397 36.3258C106.187 36.6783 106.082 37.0989 106.082 37.5875V43.59H104.068ZM111.657 43.59V29.6183H113.67V43.59H111.657ZM117.984 43.59L114.375 38.8771L115.851 37.6154L120.434 43.59H117.984ZM113.457 40.1573L113.383 37.7823H113.819L117.799 33.5426H120.165L115.609 38.1627L114.876 38.7472L113.457 40.1573ZM125.462 43.7848C124.658 43.7848 123.956 43.6673 123.356 43.4323C122.756 43.191 122.28 42.8571 121.927 42.4303C121.581 42.0035 121.374 41.5057 121.306 40.9366V40.9181H123.328V40.9366C123.458 41.3263 123.702 41.6386 124.061 41.8737C124.426 42.1087 124.908 42.2262 125.508 42.2262C125.923 42.2262 126.285 42.1674 126.594 42.0499C126.903 41.9324 127.144 41.7716 127.317 41.5675C127.497 41.3572 127.586 41.116 127.586 40.8439V40.8253C127.586 40.5099 127.463 40.247 127.215 40.0367C126.968 39.8203 126.554 39.644 125.972 39.5079L124.367 39.1368C123.421 38.9204 122.719 38.5895 122.261 38.1442C121.81 37.6927 121.584 37.102 121.584 36.3722V36.3629C121.584 35.7692 121.751 35.2465 122.085 34.795C122.419 34.3435 122.88 33.991 123.467 33.7374C124.055 33.4777 124.726 33.3478 125.48 33.3478C126.254 33.3478 126.925 33.4684 127.494 33.7096C128.063 33.9446 128.514 34.2755 128.848 34.7023C129.182 35.1228 129.377 35.6053 129.433 36.1495V36.1774H127.512L127.503 36.1588C127.416 35.7939 127.2 35.4939 126.854 35.2589C126.507 35.0177 126.049 34.8971 125.48 34.8971C125.116 34.8971 124.791 34.9559 124.506 35.0734C124.222 35.1847 123.999 35.3424 123.838 35.5465C123.678 35.7444 123.597 35.9795 123.597 36.2516V36.2701C123.597 36.5794 123.718 36.8361 123.959 37.0402C124.206 37.2443 124.611 37.4143 125.174 37.5504L126.77 37.9122C127.741 38.1411 128.458 38.472 128.922 38.9049C129.392 39.3378 129.627 39.9161 129.627 40.6398V40.6583C129.627 41.2768 129.445 41.8211 129.08 42.2911C128.721 42.7612 128.23 43.1292 127.605 43.3951C126.98 43.6549 126.266 43.7848 125.462 43.7848ZM137.717 43.59V35.1383H136.084V33.5426H137.717V32.485C137.717 31.4892 137.971 30.747 138.478 30.2584C138.991 29.7636 139.771 29.5162 140.816 29.5162C141.045 29.5162 141.255 29.5255 141.447 29.5441C141.645 29.5626 141.83 29.5843 142.003 29.609V31.0934C141.911 31.0748 141.796 31.0625 141.66 31.0563C141.53 31.0501 141.391 31.047 141.243 31.047C140.698 31.047 140.306 31.1769 140.064 31.4366C139.829 31.6902 139.712 32.0706 139.712 32.5778V33.5426H141.92V35.1383H139.73V43.59H137.717ZM147.959 43.7848C146.982 43.7848 146.138 43.5745 145.427 43.1539C144.715 42.7334 144.165 42.1334 143.775 41.3541C143.392 40.5748 143.2 39.6471 143.2 38.5709V38.5524C143.2 37.4762 143.392 36.5485 143.775 35.7692C144.165 34.9899 144.715 34.393 145.427 33.9786C146.138 33.5581 146.982 33.3478 147.959 33.3478C148.937 33.3478 149.778 33.5581 150.483 33.9786C151.194 34.393 151.742 34.9899 152.125 35.7692C152.515 36.5485 152.709 37.4762 152.709 38.5524V38.5709C152.709 39.6471 152.518 40.5748 152.134 41.3541C151.751 42.1334 151.203 42.7334 150.492 43.1539C149.787 43.5745 148.943 43.7848 147.959 43.7848ZM147.959 42.0963C148.528 42.0963 149.011 41.9572 149.407 41.6788C149.809 41.4005 150.115 40.9985 150.325 40.4728C150.542 39.9471 150.65 39.3131 150.65 38.5709V38.5524C150.65 37.8102 150.542 37.1793 150.325 36.6598C150.115 36.1341 149.809 35.7321 149.407 35.4537C149.011 35.1754 148.528 35.0363 147.959 35.0363C147.39 35.0363 146.905 35.1754 146.503 35.4537C146.101 35.7321 145.792 36.1341 145.575 36.6598C145.365 37.1793 145.26 37.8102 145.26 38.5524V38.5709C145.26 39.3131 145.365 39.9471 145.575 40.4728C145.792 40.9985 146.101 41.4005 146.503 41.6788C146.905 41.9572 147.39 42.0963 147.959 42.0963ZM155.038 43.59V33.5426H157.051V35.0734H157.2C157.373 34.5353 157.682 34.1178 158.127 33.8209C158.579 33.5179 159.136 33.3663 159.797 33.3663C159.958 33.3663 160.116 33.3756 160.271 33.3942C160.431 33.4127 160.561 33.4344 160.66 33.4591V35.3146C160.493 35.2775 160.32 35.2496 160.141 35.2311C159.967 35.2125 159.785 35.2032 159.593 35.2032C159.086 35.2032 158.641 35.3022 158.257 35.5001C157.88 35.6919 157.583 35.9671 157.367 36.3258C157.156 36.6783 157.051 37.0989 157.051 37.5875V43.59H155.038ZM168.602 47.1061C168.465 47.1061 168.323 47.0999 168.175 47.0875C168.033 47.0813 167.896 47.0721 167.767 47.0597V45.4733C167.859 45.4856 167.965 45.4949 168.082 45.5011C168.206 45.5073 168.326 45.5104 168.444 45.5104C168.914 45.5104 169.291 45.4021 169.576 45.1857C169.866 44.9754 170.086 44.6167 170.234 44.1095L170.392 43.5992L166.737 33.5426H168.926L171.747 42.5602L171.144 41.5768H171.895L171.292 42.5602L174.112 33.5426H176.237L172.498 43.9796C172.214 44.7713 171.898 45.3929 171.552 45.8444C171.212 46.302 170.803 46.6267 170.327 46.8185C169.857 47.0102 169.282 47.1061 168.602 47.1061ZM182.063 43.7848C181.086 43.7848 180.242 43.5745 179.53 43.1539C178.819 42.7334 178.269 42.1334 177.879 41.3541C177.495 40.5748 177.304 39.6471 177.304 38.5709V38.5524C177.304 37.4762 177.495 36.5485 177.879 35.7692C178.269 34.9899 178.819 34.393 179.53 33.9786C180.242 33.5581 181.086 33.3478 182.063 33.3478C183.04 33.3478 183.881 33.5581 184.586 33.9786C185.298 34.393 185.845 34.9899 186.229 35.7692C186.618 36.5485 186.813 37.4762 186.813 38.5524V38.5709C186.813 39.6471 186.621 40.5748 186.238 41.3541C185.854 42.1334 185.307 42.7334 184.596 43.1539C183.891 43.5745 183.046 43.7848 182.063 43.7848ZM182.063 42.0963C182.632 42.0963 183.114 41.9572 183.51 41.6788C183.912 41.4005 184.218 40.9985 184.429 40.4728C184.645 39.9471 184.753 39.3131 184.753 38.5709V38.5524C184.753 37.8102 184.645 37.1793 184.429 36.6598C184.218 36.1341 183.912 35.7321 183.51 35.4537C183.114 35.1754 182.632 35.0363 182.063 35.0363C181.494 35.0363 181.008 35.1754 180.606 35.4537C180.204 35.7321 179.895 36.1341 179.679 36.6598C179.468 37.1793 179.363 37.8102 179.363 38.5524V38.5709C179.363 39.3131 179.468 39.9471 179.679 40.4728C179.895 40.9985 180.204 41.4005 180.606 41.6788C181.008 41.9572 181.494 42.0963 182.063 42.0963ZM192.491 43.7848C191.736 43.7848 191.102 43.6394 190.589 43.3488C190.082 43.0519 189.698 42.6251 189.438 42.0685C189.179 41.5118 189.049 40.8377 189.049 40.046V33.5426H191.062V39.5822C191.062 40.4047 191.226 41.0232 191.554 41.4376C191.888 41.8458 192.42 42.0499 193.149 42.0499C193.681 42.0499 194.13 41.9448 194.495 41.7345C194.86 41.518 195.135 41.215 195.32 40.8253C195.512 40.4295 195.608 39.9656 195.608 39.4337V33.5426H197.621V43.59H195.608V42.0685H195.459C195.218 42.6066 194.847 43.0271 194.346 43.3302C193.845 43.6333 193.227 43.7848 192.491 43.7848ZM201.954 43.7291C201.576 43.7291 201.255 43.5992 200.989 43.3395C200.729 43.0797 200.599 42.7643 200.599 42.3932C200.599 42.0159 200.729 41.6974 200.989 41.4376C201.255 41.1779 201.576 41.048 201.954 41.048C202.337 41.048 202.656 41.1779 202.909 41.4376C203.169 41.6974 203.299 42.0159 203.299 42.3932C203.299 42.7643 203.169 43.0797 202.909 43.3395C202.656 43.5992 202.337 43.7291 201.954 43.7291Z" fill="black"/>
<path d="M20.6279 76.59H13.2598V75.4547H16.3799V67.486H16.2627L13.2378 69.4415V68.0646L16.3872 66.0211H17.6543V75.4547H20.6279V76.59ZM25.9087 76.6339C25.1836 76.6339 24.583 76.026 24.583 75.2789C24.583 74.5392 25.1836 73.9313 25.9087 73.9313C26.6338 73.9313 27.2344 74.5392 27.2344 75.2789C27.2344 76.026 26.6338 76.6339 25.9087 76.6339ZM36.4189 76.59V74.3561H31.5996V73.3087L35.1885 66.0211H36.5068L32.9692 73.1403V73.2355H36.4336V70.2179H37.6055V73.2208H39.2168V74.3561H37.5981V76.59H36.4189ZM51.7559 77.5934H50.54L55.689 65.0177H56.9121L51.7559 77.5934ZM76.2627 76.59H68.8945V75.4547H72.0146V67.486H71.8975L68.8726 69.4415V68.0646L72.022 66.0211H73.2891V75.4547H76.2627V76.59ZM82.7812 76.59V74.3561H77.9619V73.3087L81.5508 66.0211H82.8691L79.3315 73.1403V73.2355H82.7959V70.2179H83.9678V73.2208H85.5791V74.3561H83.9604V76.59H82.7812ZM90.8232 76.8317C88.5234 76.8317 87.2563 74.8688 87.2563 71.3092C87.2563 67.7496 88.5234 65.7867 90.8232 65.7867C93.1157 65.7867 94.3901 67.7496 94.3901 71.3092C94.3901 74.8688 93.1157 76.8317 90.8232 76.8317ZM88.5381 71.3092C88.5381 71.7267 88.5601 72.1149 88.5894 72.4738L92.8521 68.9142C92.5078 67.6031 91.8193 66.9293 90.8232 66.9293C89.3291 66.9293 88.5381 68.4381 88.5381 71.3092ZM90.8232 75.6891C92.3174 75.6891 93.1011 74.173 93.1011 71.3092C93.1011 70.8844 93.0864 70.4962 93.0498 70.13L88.8018 73.7189C89.146 75.0153 89.8271 75.6891 90.8232 75.6891ZM97.481 71.1188C96.2432 71.1188 95.4741 70.2545 95.4741 68.8702V68.1158C95.4741 66.7462 96.2505 65.882 97.481 65.882C98.7114 65.882 99.4805 66.7462 99.4805 68.1158V68.8702C99.4805 70.2545 98.7188 71.1188 97.481 71.1188ZM104.725 66.0211V67.1564L95.4521 76.59V75.4547L104.725 66.0211ZM97.481 70.1959C98.1768 70.1959 98.543 69.6906 98.543 68.7311V68.2697C98.543 67.3102 98.1768 66.8048 97.481 66.8048C96.7778 66.8048 96.4116 67.3102 96.4116 68.2697V68.7311C96.4116 69.6906 96.7778 70.1959 97.481 70.1959ZM102.696 76.7291C101.458 76.7291 100.696 75.8649 100.696 74.4806V73.7262C100.696 72.3639 101.465 71.4923 102.696 71.4923C103.926 71.4923 104.703 72.3639 104.703 73.7262V74.4806C104.703 75.8649 103.934 76.7291 102.696 76.7291ZM102.696 75.8136C103.399 75.8136 103.765 75.3009 103.765 74.3414V73.88C103.765 72.9205 103.399 72.4152 102.696 72.4152C102 72.4152 101.634 72.9205 101.634 73.88V74.3414C101.634 75.3009 102 75.8136 102.696 75.8136Z" fill="black"/>
</svg>
