<svg width="223" height="93" viewBox="0 0 223 93" fill="none" xmlns="http://www.w3.org/2000/svg">
<rect y="0.589966" width="222.5" height="92" rx="14" fill="white" fill-opacity="0.6"/>
<rect x="0.5" y="1.08997" width="221.5" height="91" rx="13.5" stroke="black" stroke-opacity="0.1"/>
<rect width="193" height="19" transform="translate(12 31.59)" fill="#DAC7FF"/>
<path d="M12.6123 47.59L17.4458 34.2028H19.1343V36.5406H18.5034L14.8018 47.59H12.6123ZM14.9409 43.9718L15.5254 42.3019H21.6206L22.2051 43.9718H14.9409ZM22.3442 47.59L18.6426 36.5406V34.2028H19.7002L24.5337 47.59H22.3442ZM26.5933 47.59V37.5426H28.6157V47.59H26.5933ZM27.6138 35.7706C27.2674 35.7706 26.9705 35.65 26.7231 35.4088C26.4757 35.1614 26.3521 34.8645 26.3521 34.5182C26.3521 34.1718 26.4757 33.8781 26.7231 33.6368C26.9705 33.3956 27.2674 33.275 27.6138 33.275C27.9601 33.275 28.2539 33.3956 28.4951 33.6368C28.7425 33.8781 28.8662 34.1718 28.8662 34.5182C28.8662 34.8645 28.7425 35.1614 28.4951 35.4088C28.2539 35.65 27.9601 35.7706 27.6138 35.7706ZM40.2959 47.6642C39.2074 47.6642 38.4157 47.4539 37.9209 47.0333C37.4323 46.6066 37.188 45.9108 37.188 44.9459V39.1383H35.6294V37.5426H37.188V35.0099H39.2476V37.5426H41.3813V39.1383H39.2476V44.4913C39.2476 45.0232 39.3558 45.4098 39.5723 45.651C39.7949 45.886 40.1506 46.0035 40.6392 46.0035C40.7876 46.0035 40.9144 46.0004 41.0195 45.9943C41.1247 45.9819 41.2453 45.9695 41.3813 45.9572V47.5621C41.2267 47.5869 41.0566 47.6085 40.8711 47.6271C40.6855 47.6518 40.4938 47.6642 40.2959 47.6642ZM43.7563 47.59V33.6183H45.7788V39.0734H45.918C46.1654 38.5353 46.5334 38.1147 47.022 37.8116C47.5106 37.5024 48.1198 37.3478 48.8496 37.3478C49.598 37.3478 50.2319 37.4962 50.7515 37.7931C51.271 38.09 51.6668 38.5198 51.939 39.0826C52.2111 39.6393 52.3472 40.3165 52.3472 41.1144V47.59H50.3247V41.5782C50.3247 40.7433 50.1453 40.1186 49.7866 39.7042C49.4341 39.2837 48.8898 39.0734 48.1538 39.0734C47.6714 39.0734 47.2508 39.1816 46.8921 39.3981C46.5396 39.6145 46.2643 39.9176 46.0664 40.3073C45.8747 40.6969 45.7788 41.1608 45.7788 41.6989V47.59H43.7563ZM57.8486 47.757C57.2116 47.757 56.6426 47.6364 56.1416 47.3951C55.6406 47.1477 55.2448 46.8014 54.9541 46.3561C54.6634 45.9046 54.5181 45.3727 54.5181 44.7604V44.7418C54.5181 43.845 54.8428 43.143 55.4922 42.6359C56.1478 42.1225 57.0755 41.8318 58.2754 41.7638L61.9863 41.5411V42.9606L58.5444 43.1832C57.8579 43.2203 57.3507 43.3657 57.0229 43.6193C56.6951 43.8667 56.5312 44.2161 56.5312 44.6676V44.6862C56.5312 45.1438 56.7075 45.5026 57.0601 45.7623C57.4126 46.0221 57.8579 46.152 58.396 46.152C58.897 46.152 59.3423 46.053 59.7319 45.8551C60.1216 45.651 60.4277 45.3789 60.6504 45.0387C60.873 44.6923 60.9844 44.3027 60.9844 43.8698V40.7247C60.9844 40.1743 60.8112 39.7537 60.4648 39.463C60.1247 39.1661 59.6175 39.0177 58.9434 39.0177C58.3805 39.0177 57.9229 39.1167 57.5703 39.3146C57.2178 39.5125 56.9827 39.7939 56.8652 40.1588L56.8467 40.1959H54.917L54.9263 40.1217C55.0005 39.5651 55.217 39.0795 55.5757 38.6652C55.9344 38.2508 56.4076 37.9292 56.9951 37.7003C57.5827 37.4653 58.2599 37.3478 59.0269 37.3478C59.8742 37.3478 60.5916 37.4838 61.1792 37.756C61.7668 38.0219 62.2152 38.4054 62.5244 38.9064C62.8337 39.4073 62.9883 40.0104 62.9883 40.7155V47.59H60.9844V46.152H60.8359C60.6442 46.4921 60.3999 46.7828 60.103 47.024C59.8062 47.2653 59.4691 47.4477 59.0918 47.5714C58.7145 47.6951 58.3001 47.757 57.8486 47.757ZM69.5195 47.6642C68.431 47.6642 67.6393 47.4539 67.1445 47.0333C66.6559 46.6066 66.4116 45.9108 66.4116 44.9459V39.1383H64.853V37.5426H66.4116V35.0099H68.4712V37.5426H70.605V39.1383H68.4712V44.4913C68.4712 45.0232 68.5794 45.4098 68.7959 45.651C69.0186 45.886 69.3742 46.0035 69.8628 46.0035C70.0112 46.0035 70.138 46.0004 70.2432 45.9943C70.3483 45.9819 70.4689 45.9695 70.605 45.9572V47.5621C70.4504 47.5869 70.2803 47.6085 70.0947 47.6271C69.9092 47.6518 69.7174 47.6642 69.5195 47.6642ZM79.8916 47.59L77.127 37.5426H79.1494L80.9492 45.3077H81.0977L83.1665 37.5426H85.0776L87.1558 45.3077H87.2949L89.104 37.5426H91.0986L88.334 47.59H86.2559L84.1685 40.0939H84.0293L81.9512 47.59H79.8916ZM96.9897 47.7848C96.0125 47.7848 95.1683 47.5745 94.457 47.1539C93.7458 46.7334 93.1953 46.1334 92.8057 45.3541C92.4222 44.5748 92.2305 43.6471 92.2305 42.5709V42.5524C92.2305 41.4762 92.4222 40.5485 92.8057 39.7692C93.1953 38.9899 93.7458 38.393 94.457 37.9786C95.1683 37.5581 96.0125 37.3478 96.9897 37.3478C97.967 37.3478 98.8081 37.5581 99.5132 37.9786C100.224 38.393 100.772 38.9899 101.155 39.7692C101.545 40.5485 101.74 41.4762 101.74 42.5524V42.5709C101.74 43.6471 101.548 44.5748 101.165 45.3541C100.781 46.1334 100.234 46.7334 99.5225 47.1539C98.8174 47.5745 97.9731 47.7848 96.9897 47.7848ZM96.9897 46.0963C97.5588 46.0963 98.0412 45.9572 98.437 45.6788C98.839 45.4005 99.1452 44.9985 99.3555 44.4728C99.5719 43.9471 99.6802 43.3131 99.6802 42.5709V42.5524C99.6802 41.8102 99.5719 41.1793 99.3555 40.6598C99.1452 40.1341 98.839 39.7321 98.437 39.4537C98.0412 39.1754 97.5588 39.0363 96.9897 39.0363C96.4207 39.0363 95.9352 39.1754 95.5332 39.4537C95.1312 39.7321 94.8219 40.1341 94.6055 40.6598C94.3952 41.1793 94.29 41.8102 94.29 42.5524V42.5709C94.29 43.3131 94.3952 43.9471 94.6055 44.4728C94.8219 44.9985 95.1312 45.4005 95.5332 45.6788C95.9352 45.9572 96.4207 46.0963 96.9897 46.0963ZM104.068 47.59V37.5426H106.082V39.0734H106.23C106.403 38.5353 106.712 38.1178 107.158 37.8209C107.609 37.5179 108.166 37.3663 108.828 37.3663C108.988 37.3663 109.146 37.3756 109.301 37.3942C109.462 37.4127 109.591 37.4344 109.69 37.4591V39.3146C109.523 39.2775 109.35 39.2496 109.171 39.2311C108.998 39.2125 108.815 39.2032 108.624 39.2032C108.116 39.2032 107.671 39.3022 107.288 39.5001C106.91 39.6919 106.613 39.9671 106.397 40.3258C106.187 40.6783 106.082 41.0989 106.082 41.5875V47.59H104.068ZM111.657 47.59V33.6183H113.67V47.59H111.657ZM117.984 47.59L114.375 42.8771L115.851 41.6154L120.434 47.59H117.984ZM113.457 44.1573L113.383 41.7823H113.819L117.799 37.5426H120.165L115.609 42.1627L114.876 42.7472L113.457 44.1573ZM125.462 47.7848C124.658 47.7848 123.956 47.6673 123.356 47.4323C122.756 47.191 122.28 46.8571 121.927 46.4303C121.581 46.0035 121.374 45.5057 121.306 44.9366V44.9181H123.328V44.9366C123.458 45.3263 123.702 45.6386 124.061 45.8737C124.426 46.1087 124.908 46.2262 125.508 46.2262C125.923 46.2262 126.285 46.1674 126.594 46.0499C126.903 45.9324 127.144 45.7716 127.317 45.5675C127.497 45.3572 127.586 45.116 127.586 44.8439V44.8253C127.586 44.5099 127.463 44.247 127.215 44.0367C126.968 43.8203 126.554 43.644 125.972 43.5079L124.367 43.1368C123.421 42.9204 122.719 42.5895 122.261 42.1442C121.81 41.6927 121.584 41.102 121.584 40.3722V40.3629C121.584 39.7692 121.751 39.2465 122.085 38.795C122.419 38.3435 122.88 37.991 123.467 37.7374C124.055 37.4777 124.726 37.3478 125.48 37.3478C126.254 37.3478 126.925 37.4684 127.494 37.7096C128.063 37.9446 128.514 38.2755 128.848 38.7023C129.182 39.1228 129.377 39.6053 129.433 40.1495V40.1774H127.512L127.503 40.1588C127.416 39.7939 127.2 39.4939 126.854 39.2589C126.507 39.0177 126.049 38.8971 125.48 38.8971C125.116 38.8971 124.791 38.9559 124.506 39.0734C124.222 39.1847 123.999 39.3424 123.838 39.5465C123.678 39.7444 123.597 39.9795 123.597 40.2516V40.2701C123.597 40.5794 123.718 40.8361 123.959 41.0402C124.206 41.2443 124.611 41.4143 125.174 41.5504L126.77 41.9122C127.741 42.1411 128.458 42.472 128.922 42.9049C129.392 43.3378 129.627 43.9161 129.627 44.6398V44.6583C129.627 45.2768 129.445 45.8211 129.08 46.2911C128.721 46.7612 128.23 47.1292 127.605 47.3951C126.98 47.6549 126.266 47.7848 125.462 47.7848ZM137.717 47.59V39.1383H136.084V37.5426H137.717V36.485C137.717 35.4892 137.971 34.747 138.478 34.2584C138.991 33.7636 139.771 33.5162 140.816 33.5162C141.045 33.5162 141.255 33.5255 141.447 33.5441C141.645 33.5626 141.83 33.5843 142.003 33.609V35.0934C141.911 35.0748 141.796 35.0625 141.66 35.0563C141.53 35.0501 141.391 35.047 141.243 35.047C140.698 35.047 140.306 35.1769 140.064 35.4366C139.829 35.6902 139.712 36.0706 139.712 36.5778V37.5426H141.92V39.1383H139.73V47.59H137.717ZM147.959 47.7848C146.982 47.7848 146.138 47.5745 145.427 47.1539C144.715 46.7334 144.165 46.1334 143.775 45.3541C143.392 44.5748 143.2 43.6471 143.2 42.5709V42.5524C143.2 41.4762 143.392 40.5485 143.775 39.7692C144.165 38.9899 144.715 38.393 145.427 37.9786C146.138 37.5581 146.982 37.3478 147.959 37.3478C148.937 37.3478 149.778 37.5581 150.483 37.9786C151.194 38.393 151.742 38.9899 152.125 39.7692C152.515 40.5485 152.709 41.4762 152.709 42.5524V42.5709C152.709 43.6471 152.518 44.5748 152.134 45.3541C151.751 46.1334 151.203 46.7334 150.492 47.1539C149.787 47.5745 148.943 47.7848 147.959 47.7848ZM147.959 46.0963C148.528 46.0963 149.011 45.9572 149.407 45.6788C149.809 45.4005 150.115 44.9985 150.325 44.4728C150.542 43.9471 150.65 43.3131 150.65 42.5709V42.5524C150.65 41.8102 150.542 41.1793 150.325 40.6598C150.115 40.1341 149.809 39.7321 149.407 39.4537C149.011 39.1754 148.528 39.0363 147.959 39.0363C147.39 39.0363 146.905 39.1754 146.503 39.4537C146.101 39.7321 145.792 40.1341 145.575 40.6598C145.365 41.1793 145.26 41.8102 145.26 42.5524V42.5709C145.26 43.3131 145.365 43.9471 145.575 44.4728C145.792 44.9985 146.101 45.4005 146.503 45.6788C146.905 45.9572 147.39 46.0963 147.959 46.0963ZM155.038 47.59V37.5426H157.051V39.0734H157.2C157.373 38.5353 157.682 38.1178 158.127 37.8209C158.579 37.5179 159.136 37.3663 159.797 37.3663C159.958 37.3663 160.116 37.3756 160.271 37.3942C160.431 37.4127 160.561 37.4344 160.66 37.4591V39.3146C160.493 39.2775 160.32 39.2496 160.141 39.2311C159.967 39.2125 159.785 39.2032 159.593 39.2032C159.086 39.2032 158.641 39.3022 158.257 39.5001C157.88 39.6919 157.583 39.9671 157.367 40.3258C157.156 40.6783 157.051 41.0989 157.051 41.5875V47.59H155.038ZM168.602 51.1061C168.465 51.1061 168.323 51.0999 168.175 51.0875C168.033 51.0813 167.896 51.0721 167.767 51.0597V49.4733C167.859 49.4856 167.965 49.4949 168.082 49.5011C168.206 49.5073 168.326 49.5104 168.444 49.5104C168.914 49.5104 169.291 49.4021 169.576 49.1857C169.866 48.9754 170.086 48.6167 170.234 48.1095L170.392 47.5992L166.737 37.5426H168.926L171.747 46.5602L171.144 45.5768H171.895L171.292 46.5602L174.112 37.5426H176.237L172.498 47.9796C172.214 48.7713 171.898 49.3929 171.552 49.8444C171.212 50.302 170.803 50.6267 170.327 50.8185C169.857 51.0102 169.282 51.1061 168.602 51.1061ZM182.063 47.7848C181.086 47.7848 180.242 47.5745 179.53 47.1539C178.819 46.7334 178.269 46.1334 177.879 45.3541C177.495 44.5748 177.304 43.6471 177.304 42.5709V42.5524C177.304 41.4762 177.495 40.5485 177.879 39.7692C178.269 38.9899 178.819 38.393 179.53 37.9786C180.242 37.5581 181.086 37.3478 182.063 37.3478C183.04 37.3478 183.881 37.5581 184.586 37.9786C185.298 38.393 185.845 38.9899 186.229 39.7692C186.618 40.5485 186.813 41.4762 186.813 42.5524V42.5709C186.813 43.6471 186.621 44.5748 186.238 45.3541C185.854 46.1334 185.307 46.7334 184.596 47.1539C183.891 47.5745 183.046 47.7848 182.063 47.7848ZM182.063 46.0963C182.632 46.0963 183.114 45.9572 183.51 45.6788C183.912 45.4005 184.218 44.9985 184.429 44.4728C184.645 43.9471 184.753 43.3131 184.753 42.5709V42.5524C184.753 41.8102 184.645 41.1793 184.429 40.6598C184.218 40.1341 183.912 39.7321 183.51 39.4537C183.114 39.1754 182.632 39.0363 182.063 39.0363C181.494 39.0363 181.008 39.1754 180.606 39.4537C180.204 39.7321 179.895 40.1341 179.679 40.6598C179.468 41.1793 179.363 41.8102 179.363 42.5524V42.5709C179.363 43.3131 179.468 43.9471 179.679 44.4728C179.895 44.9985 180.204 45.4005 180.606 45.6788C181.008 45.9572 181.494 46.0963 182.063 46.0963ZM192.491 47.7848C191.736 47.7848 191.102 47.6394 190.589 47.3488C190.082 47.0519 189.698 46.6251 189.438 46.0685C189.179 45.5118 189.049 44.8377 189.049 44.046V37.5426H191.062V43.5822C191.062 44.4047 191.226 45.0232 191.554 45.4376C191.888 45.8458 192.42 46.0499 193.149 46.0499C193.681 46.0499 194.13 45.9448 194.495 45.7345C194.86 45.518 195.135 45.215 195.32 44.8253C195.512 44.4295 195.608 43.9656 195.608 43.4337V37.5426H197.621V47.59H195.608V46.0685H195.459C195.218 46.6066 194.847 47.0271 194.346 47.3302C193.845 47.6333 193.227 47.7848 192.491 47.7848ZM201.954 47.7291C201.576 47.7291 201.255 47.5992 200.989 47.3395C200.729 47.0797 200.599 46.7643 200.599 46.3932C200.599 46.0159 200.729 45.6974 200.989 45.4376C201.255 45.1779 201.576 45.048 201.954 45.048C202.337 45.048 202.656 45.1779 202.909 45.4376C203.169 45.6974 203.299 46.0159 203.299 46.3932C203.299 46.7643 203.169 47.0797 202.909 47.3395C202.656 47.5992 202.337 47.7291 201.954 47.7291Z" fill="black"/>
<path d="M16.1382 76.7218C14.2998 76.7218 13.0986 75.3961 13.0986 73.3527V71.8732C13.0986 69.837 14.2998 68.5114 16.1382 68.5114C17.2881 68.5114 18.1377 69.0021 18.4819 69.8737H18.6138V65.5231H19.8809V76.59H18.6577V75.3741H18.5186C18.1084 76.2531 17.2734 76.7218 16.1382 76.7218ZM16.5044 75.5865C17.8081 75.5865 18.6504 74.649 18.6504 73.1769V72.0343C18.6504 70.5695 17.8081 69.632 16.5044 69.632C15.1934 69.632 14.3511 70.5695 14.3511 72.0343V73.1769C14.3511 74.6417 15.1934 75.5865 16.5044 75.5865ZM29.7832 72.4811H22.0342V71.3239H29.7832V72.4811ZM38.6528 76.59H32.0684V75.5573H34.7856V66.5558H32.0903V65.5231H36.0308V75.5573H38.6528V76.59ZM41.1943 76.59V65.5231H42.3955V70.0494H42.498C42.9155 69.0607 43.8311 68.504 45.0469 68.504C46.7754 68.504 47.7129 69.5441 47.7129 71.441V76.59H46.4678V71.756C46.4678 70.3278 45.8818 69.6466 44.6367 69.6466C43.3257 69.6466 42.4395 70.5621 42.4395 71.9171V76.59H41.1943ZM57.6006 72.4811H49.8516V71.3239H57.6006V72.4811ZM66.9902 76.59H59.6221V75.4547H62.7422V67.486H62.625L59.6001 69.4415V68.0646L62.7495 66.0211H64.0166V75.4547H66.9902V76.59ZM72.2783 76.8317C69.9785 76.8317 68.7114 74.8688 68.7114 71.3092C68.7114 67.7496 69.9785 65.7867 72.2783 65.7867C74.5708 65.7867 75.8452 67.7496 75.8452 71.3092C75.8452 74.8688 74.5708 76.8317 72.2783 76.8317ZM69.9932 71.3092C69.9932 71.7267 70.0151 72.1149 70.0444 72.4738L74.3071 68.9142C73.9629 67.6031 73.2744 66.9293 72.2783 66.9293C70.7842 66.9293 69.9932 68.4381 69.9932 71.3092ZM72.2783 75.6891C73.7725 75.6891 74.5562 74.173 74.5562 71.3092C74.5562 70.8844 74.5415 70.4962 74.5049 70.13L70.2568 73.7189C70.6011 75.0153 71.2822 75.6891 72.2783 75.6891ZM81.5508 76.8317C79.251 76.8317 77.9839 74.8688 77.9839 71.3092C77.9839 67.7496 79.251 65.7867 81.5508 65.7867C83.8433 65.7867 85.1177 67.7496 85.1177 71.3092C85.1177 74.8688 83.8433 76.8317 81.5508 76.8317ZM79.2656 71.3092C79.2656 71.7267 79.2876 72.1149 79.3169 72.4738L83.5796 68.9142C83.2354 67.6031 82.5469 66.9293 81.5508 66.9293C80.0566 66.9293 79.2656 68.4381 79.2656 71.3092ZM81.5508 75.6891C83.0449 75.6891 83.8286 74.173 83.8286 71.3092C83.8286 70.8844 83.814 70.4962 83.7773 70.13L79.5293 73.7189C79.8735 75.0153 80.5547 75.6891 81.5508 75.6891Z" fill="black"/>
</svg>
