<svg width="223" height="93" viewBox="0 0 223 93" fill="none" xmlns="http://www.w3.org/2000/svg">
<rect y="0.589966" width="222.5" height="92" rx="14" fill="white" fill-opacity="0.6"/>
<rect x="0.5" y="1.08997" width="221.5" height="91" rx="13.5" stroke="black" stroke-opacity="0.1"/>
<rect width="193" height="38" transform="translate(12 12.59)" fill="#DAC7FF"/>
<path d="M12.6123 38.59L17.4458 25.2028H19.1343V27.5406H18.5034L14.8018 38.59H12.6123ZM14.9409 34.9718L15.5254 33.3019H21.6206L22.2051 34.9718H14.9409ZM22.3442 38.59L18.6426 27.5406V25.2028H19.7002L24.5337 38.59H22.3442ZM26.5933 38.59V28.5426H28.6157V38.59H26.5933ZM27.6138 26.7706C27.2674 26.7706 26.9705 26.65 26.7231 26.4088C26.4757 26.1614 26.3521 25.8645 26.3521 25.5182C26.3521 25.1718 26.4757 24.8781 26.7231 24.6368C26.9705 24.3956 27.2674 24.275 27.6138 24.275C27.9601 24.275 28.2539 24.3956 28.4951 24.6368C28.7425 24.8781 28.8662 25.1718 28.8662 25.5182C28.8662 25.8645 28.7425 26.1614 28.4951 26.4088C28.2539 26.65 27.9601 26.7706 27.6138 26.7706ZM40.2959 38.6642C39.2074 38.6642 38.4157 38.4539 37.9209 38.0333C37.4323 37.6066 37.188 36.9108 37.188 35.9459V30.1383H35.6294V28.5426H37.188V26.0099H39.2476V28.5426H41.3813V30.1383H39.2476V35.4913C39.2476 36.0232 39.3558 36.4098 39.5723 36.651C39.7949 36.886 40.1506 37.0035 40.6392 37.0035C40.7876 37.0035 40.9144 37.0004 41.0195 36.9943C41.1247 36.9819 41.2453 36.9695 41.3813 36.9572V38.5621C41.2267 38.5869 41.0566 38.6085 40.8711 38.6271C40.6855 38.6518 40.4938 38.6642 40.2959 38.6642ZM43.7563 38.59V24.6183H45.7788V30.0734H45.918C46.1654 29.5353 46.5334 29.1147 47.022 28.8116C47.5106 28.5024 48.1198 28.3478 48.8496 28.3478C49.598 28.3478 50.2319 28.4962 50.7515 28.7931C51.271 29.09 51.6668 29.5198 51.939 30.0826C52.2111 30.6393 52.3472 31.3165 52.3472 32.1144V38.59H50.3247V32.5782C50.3247 31.7433 50.1453 31.1186 49.7866 30.7042C49.4341 30.2837 48.8898 30.0734 48.1538 30.0734C47.6714 30.0734 47.2508 30.1816 46.8921 30.3981C46.5396 30.6145 46.2643 30.9176 46.0664 31.3073C45.8747 31.6969 45.7788 32.1608 45.7788 32.6989V38.59H43.7563ZM57.8486 38.757C57.2116 38.757 56.6426 38.6364 56.1416 38.3951C55.6406 38.1477 55.2448 37.8014 54.9541 37.3561C54.6634 36.9046 54.5181 36.3727 54.5181 35.7604V35.7418C54.5181 34.845 54.8428 34.143 55.4922 33.6359C56.1478 33.1225 57.0755 32.8318 58.2754 32.7638L61.9863 32.5411V33.9606L58.5444 34.1832C57.8579 34.2203 57.3507 34.3657 57.0229 34.6193C56.6951 34.8667 56.5312 35.2161 56.5312 35.6676V35.6862C56.5312 36.1438 56.7075 36.5026 57.0601 36.7623C57.4126 37.0221 57.8579 37.152 58.396 37.152C58.897 37.152 59.3423 37.053 59.7319 36.8551C60.1216 36.651 60.4277 36.3789 60.6504 36.0387C60.873 35.6923 60.9844 35.3027 60.9844 34.8698V31.7247C60.9844 31.1743 60.8112 30.7537 60.4648 30.463C60.1247 30.1661 59.6175 30.0177 58.9434 30.0177C58.3805 30.0177 57.9229 30.1167 57.5703 30.3146C57.2178 30.5125 56.9827 30.7939 56.8652 31.1588L56.8467 31.1959H54.917L54.9263 31.1217C55.0005 30.5651 55.217 30.0795 55.5757 29.6652C55.9344 29.2508 56.4076 28.9292 56.9951 28.7003C57.5827 28.4653 58.2599 28.3478 59.0269 28.3478C59.8742 28.3478 60.5916 28.4838 61.1792 28.756C61.7668 29.0219 62.2152 29.4054 62.5244 29.9064C62.8337 30.4073 62.9883 31.0104 62.9883 31.7155V38.59H60.9844V37.152H60.8359C60.6442 37.4921 60.3999 37.7828 60.103 38.024C59.8062 38.2653 59.4691 38.4477 59.0918 38.5714C58.7145 38.6951 58.3001 38.757 57.8486 38.757ZM69.5195 38.6642C68.431 38.6642 67.6393 38.4539 67.1445 38.0333C66.6559 37.6066 66.4116 36.9108 66.4116 35.9459V30.1383H64.853V28.5426H66.4116V26.0099H68.4712V28.5426H70.605V30.1383H68.4712V35.4913C68.4712 36.0232 68.5794 36.4098 68.7959 36.651C69.0186 36.886 69.3742 37.0035 69.8628 37.0035C70.0112 37.0035 70.138 37.0004 70.2432 36.9943C70.3483 36.9819 70.4689 36.9695 70.605 36.9572V38.5621C70.4504 38.5869 70.2803 38.6085 70.0947 38.6271C69.9092 38.6518 69.7174 38.6642 69.5195 38.6642ZM79.8916 38.59L77.127 28.5426H79.1494L80.9492 36.3077H81.0977L83.1665 28.5426H85.0776L87.1558 36.3077H87.2949L89.104 28.5426H91.0986L88.334 38.59H86.2559L84.1685 31.0939H84.0293L81.9512 38.59H79.8916ZM96.9897 38.7848C96.0125 38.7848 95.1683 38.5745 94.457 38.1539C93.7458 37.7334 93.1953 37.1334 92.8057 36.3541C92.4222 35.5748 92.2305 34.6471 92.2305 33.5709V33.5524C92.2305 32.4762 92.4222 31.5485 92.8057 30.7692C93.1953 29.9899 93.7458 29.393 94.457 28.9786C95.1683 28.5581 96.0125 28.3478 96.9897 28.3478C97.967 28.3478 98.8081 28.5581 99.5132 28.9786C100.224 29.393 100.772 29.9899 101.155 30.7692C101.545 31.5485 101.74 32.4762 101.74 33.5524V33.5709C101.74 34.6471 101.548 35.5748 101.165 36.3541C100.781 37.1334 100.234 37.7334 99.5225 38.1539C98.8174 38.5745 97.9731 38.7848 96.9897 38.7848ZM96.9897 37.0963C97.5588 37.0963 98.0412 36.9572 98.437 36.6788C98.839 36.4005 99.1452 35.9985 99.3555 35.4728C99.5719 34.9471 99.6802 34.3131 99.6802 33.5709V33.5524C99.6802 32.8102 99.5719 32.1793 99.3555 31.6598C99.1452 31.1341 98.839 30.7321 98.437 30.4537C98.0412 30.1754 97.5588 30.0363 96.9897 30.0363C96.4207 30.0363 95.9352 30.1754 95.5332 30.4537C95.1312 30.7321 94.8219 31.1341 94.6055 31.6598C94.3952 32.1793 94.29 32.8102 94.29 33.5524V33.5709C94.29 34.3131 94.3952 34.9471 94.6055 35.4728C94.8219 35.9985 95.1312 36.4005 95.5332 36.6788C95.9352 36.9572 96.4207 37.0963 96.9897 37.0963ZM104.068 38.59V28.5426H106.082V30.0734H106.23C106.403 29.5353 106.712 29.1178 107.158 28.8209C107.609 28.5179 108.166 28.3663 108.828 28.3663C108.988 28.3663 109.146 28.3756 109.301 28.3942C109.462 28.4127 109.591 28.4344 109.69 28.4591V30.3146C109.523 30.2775 109.35 30.2496 109.171 30.2311C108.998 30.2125 108.815 30.2032 108.624 30.2032C108.116 30.2032 107.671 30.3022 107.288 30.5001C106.91 30.6919 106.613 30.9671 106.397 31.3258C106.187 31.6783 106.082 32.0989 106.082 32.5875V38.59H104.068ZM111.657 38.59V24.6183H113.67V38.59H111.657ZM117.984 38.59L114.375 33.8771L115.851 32.6154L120.434 38.59H117.984ZM113.457 35.1573L113.383 32.7823H113.819L117.799 28.5426H120.165L115.609 33.1627L114.876 33.7472L113.457 35.1573ZM125.462 38.7848C124.658 38.7848 123.956 38.6673 123.356 38.4323C122.756 38.191 122.28 37.8571 121.927 37.4303C121.581 37.0035 121.374 36.5057 121.306 35.9366V35.9181H123.328V35.9366C123.458 36.3263 123.702 36.6386 124.061 36.8737C124.426 37.1087 124.908 37.2262 125.508 37.2262C125.923 37.2262 126.285 37.1674 126.594 37.0499C126.903 36.9324 127.144 36.7716 127.317 36.5675C127.497 36.3572 127.586 36.116 127.586 35.8439V35.8253C127.586 35.5099 127.463 35.247 127.215 35.0367C126.968 34.8203 126.554 34.644 125.972 34.5079L124.367 34.1368C123.421 33.9204 122.719 33.5895 122.261 33.1442C121.81 32.6927 121.584 32.102 121.584 31.3722V31.3629C121.584 30.7692 121.751 30.2465 122.085 29.795C122.419 29.3435 122.88 28.991 123.467 28.7374C124.055 28.4777 124.726 28.3478 125.48 28.3478C126.254 28.3478 126.925 28.4684 127.494 28.7096C128.063 28.9446 128.514 29.2755 128.848 29.7023C129.182 30.1228 129.377 30.6053 129.433 31.1495V31.1774H127.512L127.503 31.1588C127.416 30.7939 127.2 30.4939 126.854 30.2589C126.507 30.0177 126.049 29.8971 125.48 29.8971C125.116 29.8971 124.791 29.9559 124.506 30.0734C124.222 30.1847 123.999 30.3424 123.838 30.5465C123.678 30.7444 123.597 30.9795 123.597 31.2516V31.2701C123.597 31.5794 123.718 31.8361 123.959 32.0402C124.206 32.2443 124.611 32.4143 125.174 32.5504L126.77 32.9122C127.741 33.1411 128.458 33.472 128.922 33.9049C129.392 34.3378 129.627 34.9161 129.627 35.6398V35.6583C129.627 36.2768 129.445 36.8211 129.08 37.2911C128.721 37.7612 128.23 38.1292 127.605 38.3951C126.98 38.6549 126.266 38.7848 125.462 38.7848ZM137.717 38.59V30.1383H136.084V28.5426H137.717V27.485C137.717 26.4892 137.971 25.747 138.478 25.2584C138.991 24.7636 139.771 24.5162 140.816 24.5162C141.045 24.5162 141.255 24.5255 141.447 24.5441C141.645 24.5626 141.83 24.5843 142.003 24.609V26.0934C141.911 26.0748 141.796 26.0625 141.66 26.0563C141.53 26.0501 141.391 26.047 141.243 26.047C140.698 26.047 140.306 26.1769 140.064 26.4366C139.829 26.6902 139.712 27.0706 139.712 27.5778V28.5426H141.92V30.1383H139.73V38.59H137.717ZM147.959 38.7848C146.982 38.7848 146.138 38.5745 145.427 38.1539C144.715 37.7334 144.165 37.1334 143.775 36.3541C143.392 35.5748 143.2 34.6471 143.2 33.5709V33.5524C143.2 32.4762 143.392 31.5485 143.775 30.7692C144.165 29.9899 144.715 29.393 145.427 28.9786C146.138 28.5581 146.982 28.3478 147.959 28.3478C148.937 28.3478 149.778 28.5581 150.483 28.9786C151.194 29.393 151.742 29.9899 152.125 30.7692C152.515 31.5485 152.709 32.4762 152.709 33.5524V33.5709C152.709 34.6471 152.518 35.5748 152.134 36.3541C151.751 37.1334 151.203 37.7334 150.492 38.1539C149.787 38.5745 148.943 38.7848 147.959 38.7848ZM147.959 37.0963C148.528 37.0963 149.011 36.9572 149.407 36.6788C149.809 36.4005 150.115 35.9985 150.325 35.4728C150.542 34.9471 150.65 34.3131 150.65 33.5709V33.5524C150.65 32.8102 150.542 32.1793 150.325 31.6598C150.115 31.1341 149.809 30.7321 149.407 30.4537C149.011 30.1754 148.528 30.0363 147.959 30.0363C147.39 30.0363 146.905 30.1754 146.503 30.4537C146.101 30.7321 145.792 31.1341 145.575 31.6598C145.365 32.1793 145.26 32.8102 145.26 33.5524V33.5709C145.26 34.3131 145.365 34.9471 145.575 35.4728C145.792 35.9985 146.101 36.4005 146.503 36.6788C146.905 36.9572 147.39 37.0963 147.959 37.0963ZM155.038 38.59V28.5426H157.051V30.0734H157.2C157.373 29.5353 157.682 29.1178 158.127 28.8209C158.579 28.5179 159.136 28.3663 159.797 28.3663C159.958 28.3663 160.116 28.3756 160.271 28.3942C160.431 28.4127 160.561 28.4344 160.66 28.4591V30.3146C160.493 30.2775 160.32 30.2496 160.141 30.2311C159.967 30.2125 159.785 30.2032 159.593 30.2032C159.086 30.2032 158.641 30.3022 158.257 30.5001C157.88 30.6919 157.583 30.9671 157.367 31.3258C157.156 31.6783 157.051 32.0989 157.051 32.5875V38.59H155.038ZM168.602 42.1061C168.465 42.1061 168.323 42.0999 168.175 42.0875C168.033 42.0813 167.896 42.0721 167.767 42.0597V40.4733C167.859 40.4856 167.965 40.4949 168.082 40.5011C168.206 40.5073 168.326 40.5104 168.444 40.5104C168.914 40.5104 169.291 40.4021 169.576 40.1857C169.866 39.9754 170.086 39.6167 170.234 39.1095L170.392 38.5992L166.737 28.5426H168.926L171.747 37.5602L171.144 36.5768H171.895L171.292 37.5602L174.112 28.5426H176.237L172.498 38.9796C172.214 39.7713 171.898 40.3929 171.552 40.8444C171.212 41.302 170.803 41.6267 170.327 41.8185C169.857 42.0102 169.282 42.1061 168.602 42.1061ZM182.063 38.7848C181.086 38.7848 180.242 38.5745 179.53 38.1539C178.819 37.7334 178.269 37.1334 177.879 36.3541C177.495 35.5748 177.304 34.6471 177.304 33.5709V33.5524C177.304 32.4762 177.495 31.5485 177.879 30.7692C178.269 29.9899 178.819 29.393 179.53 28.9786C180.242 28.5581 181.086 28.3478 182.063 28.3478C183.04 28.3478 183.881 28.5581 184.586 28.9786C185.298 29.393 185.845 29.9899 186.229 30.7692C186.618 31.5485 186.813 32.4762 186.813 33.5524V33.5709C186.813 34.6471 186.621 35.5748 186.238 36.3541C185.854 37.1334 185.307 37.7334 184.596 38.1539C183.891 38.5745 183.046 38.7848 182.063 38.7848ZM182.063 37.0963C182.632 37.0963 183.114 36.9572 183.51 36.6788C183.912 36.4005 184.218 35.9985 184.429 35.4728C184.645 34.9471 184.753 34.3131 184.753 33.5709V33.5524C184.753 32.8102 184.645 32.1793 184.429 31.6598C184.218 31.1341 183.912 30.7321 183.51 30.4537C183.114 30.1754 182.632 30.0363 182.063 30.0363C181.494 30.0363 181.008 30.1754 180.606 30.4537C180.204 30.7321 179.895 31.1341 179.679 31.6598C179.468 32.1793 179.363 32.8102 179.363 33.5524V33.5709C179.363 34.3131 179.468 34.9471 179.679 35.4728C179.895 35.9985 180.204 36.4005 180.606 36.6788C181.008 36.9572 181.494 37.0963 182.063 37.0963ZM192.491 38.7848C191.736 38.7848 191.102 38.6394 190.589 38.3488C190.082 38.0519 189.698 37.6251 189.438 37.0685C189.179 36.5118 189.049 35.8377 189.049 35.046V28.5426H191.062V34.5822C191.062 35.4047 191.226 36.0232 191.554 36.4376C191.888 36.8458 192.42 37.0499 193.149 37.0499C193.681 37.0499 194.13 36.9448 194.495 36.7345C194.86 36.518 195.135 36.215 195.32 35.8253C195.512 35.4295 195.608 34.9656 195.608 34.4337V28.5426H197.621V38.59H195.608V37.0685H195.459C195.218 37.6066 194.847 38.0271 194.346 38.3302C193.845 38.6333 193.227 38.7848 192.491 38.7848ZM201.954 38.7291C201.576 38.7291 201.255 38.5992 200.989 38.3395C200.729 38.0797 200.599 37.7643 200.599 37.3932C200.599 37.0159 200.729 36.6974 200.989 36.4376C201.255 36.1779 201.576 36.048 201.954 36.048C202.337 36.048 202.656 36.1779 202.909 36.4376C203.169 36.6974 203.299 37.0159 203.299 37.3932C203.299 37.7643 203.169 38.0797 202.909 38.3395C202.656 38.5992 202.337 38.7291 201.954 38.7291Z" fill="black"/>
<path d="M13.2671 68.9948C13.2671 67.1344 14.644 65.8014 16.5703 65.8014C18.5112 65.8014 19.8442 67.0026 19.8442 68.7677C19.8442 69.8663 19.3462 70.7452 17.6616 72.5836L15.1714 75.2936V75.4181H20.0127V76.59H13.3257V75.6964L16.8999 71.7194C18.2402 70.2179 18.5625 69.6539 18.5625 68.819C18.5625 67.6837 17.7642 66.9366 16.5337 66.9366C15.3179 66.9366 14.5122 67.7496 14.5122 68.9948V69.0387H13.2671V68.9948ZM25.9087 76.6339C25.1836 76.6339 24.583 76.026 24.583 75.2789C24.583 74.5392 25.1836 73.9313 25.9087 73.9313C26.6338 73.9313 27.2344 74.5392 27.2344 75.2789C27.2344 76.026 26.6338 76.6339 25.9087 76.6339ZM35.1885 76.8317C32.8887 76.8317 31.6216 74.8688 31.6216 71.3092C31.6216 67.7496 32.8887 65.7867 35.1885 65.7867C37.481 65.7867 38.7554 67.7496 38.7554 71.3092C38.7554 74.8688 37.481 76.8317 35.1885 76.8317ZM32.9033 71.3092C32.9033 71.7267 32.9253 72.1149 32.9546 72.4738L37.2173 68.9142C36.873 67.6031 36.1846 66.9293 35.1885 66.9293C33.6943 66.9293 32.9033 68.4381 32.9033 71.3092ZM35.1885 75.6891C36.6826 75.6891 37.4663 74.173 37.4663 71.3092C37.4663 70.8844 37.4517 70.4962 37.415 70.13L33.167 73.7189C33.5112 75.0153 34.1924 75.6891 35.1885 75.6891ZM51.7559 77.5934H50.54L55.689 65.0177H56.9121L51.7559 77.5934ZM68.9019 68.9948C68.9019 67.1344 70.2788 65.8014 72.2051 65.8014C74.146 65.8014 75.479 67.0026 75.479 68.7677C75.479 69.8663 74.981 70.7452 73.2964 72.5836L70.8062 75.2936V75.4181H75.6475V76.59H68.9604V75.6964L72.5347 71.7194C73.875 70.2179 74.1973 69.6539 74.1973 68.819C74.1973 67.6837 73.3989 66.9366 72.1685 66.9366C70.9526 66.9366 70.147 67.7496 70.147 68.9948V69.0387H68.9019V68.9948ZM81.5508 76.8317C79.251 76.8317 77.9839 74.8688 77.9839 71.3092C77.9839 67.7496 79.251 65.7867 81.5508 65.7867C83.8433 65.7867 85.1177 67.7496 85.1177 71.3092C85.1177 74.8688 83.8433 76.8317 81.5508 76.8317ZM79.2656 71.3092C79.2656 71.7267 79.2876 72.1149 79.3169 72.4738L83.5796 68.9142C83.2354 67.6031 82.5469 66.9293 81.5508 66.9293C80.0566 66.9293 79.2656 68.4381 79.2656 71.3092ZM81.5508 75.6891C83.0449 75.6891 83.8286 74.173 83.8286 71.3092C83.8286 70.8844 83.814 70.4962 83.7773 70.13L79.5293 73.7189C79.8735 75.0153 80.5547 75.6891 81.5508 75.6891ZM90.8232 76.8317C88.5234 76.8317 87.2563 74.8688 87.2563 71.3092C87.2563 67.7496 88.5234 65.7867 90.8232 65.7867C93.1157 65.7867 94.3901 67.7496 94.3901 71.3092C94.3901 74.8688 93.1157 76.8317 90.8232 76.8317ZM88.5381 71.3092C88.5381 71.7267 88.5601 72.1149 88.5894 72.4738L92.8521 68.9142C92.5078 67.6031 91.8193 66.9293 90.8232 66.9293C89.3291 66.9293 88.5381 68.4381 88.5381 71.3092ZM90.8232 75.6891C92.3174 75.6891 93.1011 74.173 93.1011 71.3092C93.1011 70.8844 93.0864 70.4962 93.0498 70.13L88.8018 73.7189C89.146 75.0153 89.8271 75.6891 90.8232 75.6891ZM97.481 71.1188C96.2432 71.1188 95.4741 70.2545 95.4741 68.8702V68.1158C95.4741 66.7462 96.2505 65.882 97.481 65.882C98.7114 65.882 99.4805 66.7462 99.4805 68.1158V68.8702C99.4805 70.2545 98.7188 71.1188 97.481 71.1188ZM104.725 66.0211V67.1564L95.4521 76.59V75.4547L104.725 66.0211ZM97.481 70.1959C98.1768 70.1959 98.543 69.6906 98.543 68.7311V68.2697C98.543 67.3102 98.1768 66.8048 97.481 66.8048C96.7778 66.8048 96.4116 67.3102 96.4116 68.2697V68.7311C96.4116 69.6906 96.7778 70.1959 97.481 70.1959ZM102.696 76.7291C101.458 76.7291 100.696 75.8649 100.696 74.4806V73.7262C100.696 72.3639 101.465 71.4923 102.696 71.4923C103.926 71.4923 104.703 72.3639 104.703 73.7262V74.4806C104.703 75.8649 103.934 76.7291 102.696 76.7291ZM102.696 75.8136C103.399 75.8136 103.765 75.3009 103.765 74.3414V73.88C103.765 72.9205 103.399 72.4152 102.696 72.4152C102 72.4152 101.634 72.9205 101.634 73.88V74.3414C101.634 75.3009 102 75.8136 102.696 75.8136Z" fill="black"/>
</svg>
