<svg width="223" height="93" viewBox="0 0 223 93" fill="none" xmlns="http://www.w3.org/2000/svg">
<rect x="0.5" y="0.589966" width="222.5" height="92" rx="14" fill="white" fill-opacity="0.6"/>
<rect x="1" y="1.08997" width="221.5" height="91" rx="13.5" stroke="black" stroke-opacity="0.1"/>
<rect width="193" height="23" transform="translate(12.5 27.59)" fill="#DAC7FF"/>
<path d="M13.1123 45.59L17.9458 32.2028H19.6343V34.5406H19.0034L15.3018 45.59H13.1123ZM15.4409 41.9718L16.0254 40.3019H22.1206L22.7051 41.9718H15.4409ZM22.8442 45.59L19.1426 34.5406V32.2028H20.2002L25.0337 45.59H22.8442ZM27.0933 45.59V35.5426H29.1157V45.59H27.0933ZM28.1138 33.7706C27.7674 33.7706 27.4705 33.65 27.2231 33.4088C26.9757 33.1614 26.8521 32.8645 26.8521 32.5182C26.8521 32.1718 26.9757 31.8781 27.2231 31.6368C27.4705 31.3956 27.7674 31.275 28.1138 31.275C28.4601 31.275 28.7539 31.3956 28.9951 31.6368C29.2425 31.8781 29.3662 32.1718 29.3662 32.5182C29.3662 32.8645 29.2425 33.1614 28.9951 33.4088C28.7539 33.65 28.4601 33.7706 28.1138 33.7706ZM40.7959 45.6642C39.7074 45.6642 38.9157 45.4539 38.4209 45.0333C37.9323 44.6066 37.688 43.9108 37.688 42.9459V37.1383H36.1294V35.5426H37.688V33.0099H39.7476V35.5426H41.8813V37.1383H39.7476V42.4913C39.7476 43.0232 39.8558 43.4098 40.0723 43.651C40.2949 43.886 40.6506 44.0035 41.1392 44.0035C41.2876 44.0035 41.4144 44.0004 41.5195 43.9943C41.6247 43.9819 41.7453 43.9695 41.8813 43.9572V45.5621C41.7267 45.5869 41.5566 45.6085 41.3711 45.6271C41.1855 45.6518 40.9938 45.6642 40.7959 45.6642ZM44.2563 45.59V31.6183H46.2788V37.0734H46.418C46.6654 36.5353 47.0334 36.1147 47.522 35.8116C48.0106 35.5024 48.6198 35.3478 49.3496 35.3478C50.098 35.3478 50.7319 35.4962 51.2515 35.7931C51.771 36.09 52.1668 36.5198 52.439 37.0826C52.7111 37.6393 52.8472 38.3165 52.8472 39.1144V45.59H50.8247V39.5782C50.8247 38.7433 50.6453 38.1186 50.2866 37.7042C49.9341 37.2837 49.3898 37.0734 48.6538 37.0734C48.1714 37.0734 47.7508 37.1816 47.3921 37.3981C47.0396 37.6145 46.7643 37.9176 46.5664 38.3073C46.3747 38.6969 46.2788 39.1608 46.2788 39.6989V45.59H44.2563ZM58.3486 45.757C57.7116 45.757 57.1426 45.6364 56.6416 45.3951C56.1406 45.1477 55.7448 44.8014 55.4541 44.3561C55.1634 43.9046 55.0181 43.3727 55.0181 42.7604V42.7418C55.0181 41.845 55.3428 41.143 55.9922 40.6359C56.6478 40.1225 57.5755 39.8318 58.7754 39.7638L62.4863 39.5411V40.9606L59.0444 41.1832C58.3579 41.2203 57.8507 41.3657 57.5229 41.6193C57.1951 41.8667 57.0312 42.2161 57.0312 42.6676V42.6862C57.0312 43.1438 57.2075 43.5026 57.5601 43.7623C57.9126 44.0221 58.3579 44.152 58.896 44.152C59.397 44.152 59.8423 44.053 60.2319 43.8551C60.6216 43.651 60.9277 43.3789 61.1504 43.0387C61.373 42.6923 61.4844 42.3027 61.4844 41.8698V38.7247C61.4844 38.1743 61.3112 37.7537 60.9648 37.463C60.6247 37.1661 60.1175 37.0177 59.4434 37.0177C58.8805 37.0177 58.4229 37.1167 58.0703 37.3146C57.7178 37.5125 57.4827 37.7939 57.3652 38.1588L57.3467 38.1959H55.417L55.4263 38.1217C55.5005 37.5651 55.717 37.0795 56.0757 36.6652C56.4344 36.2508 56.9076 35.9292 57.4951 35.7003C58.0827 35.4653 58.7599 35.3478 59.5269 35.3478C60.3742 35.3478 61.0916 35.4838 61.6792 35.756C62.2668 36.0219 62.7152 36.4054 63.0244 36.9064C63.3337 37.4073 63.4883 38.0104 63.4883 38.7155V45.59H61.4844V44.152H61.3359C61.1442 44.4921 60.8999 44.7828 60.603 45.024C60.3062 45.2653 59.9691 45.4477 59.5918 45.5714C59.2145 45.6951 58.8001 45.757 58.3486 45.757ZM70.0195 45.6642C68.931 45.6642 68.1393 45.4539 67.6445 45.0333C67.1559 44.6066 66.9116 43.9108 66.9116 42.9459V37.1383H65.353V35.5426H66.9116V33.0099H68.9712V35.5426H71.105V37.1383H68.9712V42.4913C68.9712 43.0232 69.0794 43.4098 69.2959 43.651C69.5186 43.886 69.8742 44.0035 70.3628 44.0035C70.5112 44.0035 70.638 44.0004 70.7432 43.9943C70.8483 43.9819 70.9689 43.9695 71.105 43.9572V45.5621C70.9504 45.5869 70.7803 45.6085 70.5947 45.6271C70.4092 45.6518 70.2174 45.6642 70.0195 45.6642ZM80.3916 45.59L77.627 35.5426H79.6494L81.4492 43.3077H81.5977L83.6665 35.5426H85.5776L87.6558 43.3077H87.7949L89.604 35.5426H91.5986L88.834 45.59H86.7559L84.6685 38.0939H84.5293L82.4512 45.59H80.3916ZM97.4897 45.7848C96.5125 45.7848 95.6683 45.5745 94.957 45.1539C94.2458 44.7334 93.6953 44.1334 93.3057 43.3541C92.9222 42.5748 92.7305 41.6471 92.7305 40.5709V40.5524C92.7305 39.4762 92.9222 38.5485 93.3057 37.7692C93.6953 36.9899 94.2458 36.393 94.957 35.9786C95.6683 35.5581 96.5125 35.3478 97.4897 35.3478C98.467 35.3478 99.3081 35.5581 100.013 35.9786C100.724 36.393 101.272 36.9899 101.655 37.7692C102.045 38.5485 102.24 39.4762 102.24 40.5524V40.5709C102.24 41.6471 102.048 42.5748 101.665 43.3541C101.281 44.1334 100.734 44.7334 100.022 45.1539C99.3174 45.5745 98.4731 45.7848 97.4897 45.7848ZM97.4897 44.0963C98.0588 44.0963 98.5412 43.9572 98.937 43.6788C99.339 43.4005 99.6452 42.9985 99.8555 42.4728C100.072 41.9471 100.18 41.3131 100.18 40.5709V40.5524C100.18 39.8102 100.072 39.1793 99.8555 38.6598C99.6452 38.1341 99.339 37.7321 98.937 37.4537C98.5412 37.1754 98.0588 37.0363 97.4897 37.0363C96.9207 37.0363 96.4352 37.1754 96.0332 37.4537C95.6312 37.7321 95.3219 38.1341 95.1055 38.6598C94.8952 39.1793 94.79 39.8102 94.79 40.5524V40.5709C94.79 41.3131 94.8952 41.9471 95.1055 42.4728C95.3219 42.9985 95.6312 43.4005 96.0332 43.6788C96.4352 43.9572 96.9207 44.0963 97.4897 44.0963ZM104.568 45.59V35.5426H106.582V37.0734H106.73C106.903 36.5353 107.212 36.1178 107.658 35.8209C108.109 35.5179 108.666 35.3663 109.328 35.3663C109.488 35.3663 109.646 35.3756 109.801 35.3942C109.962 35.4127 110.091 35.4344 110.19 35.4591V37.3146C110.023 37.2775 109.85 37.2496 109.671 37.2311C109.498 37.2125 109.315 37.2032 109.124 37.2032C108.616 37.2032 108.171 37.3022 107.788 37.5001C107.41 37.6919 107.113 37.9671 106.897 38.3258C106.687 38.6783 106.582 39.0989 106.582 39.5875V45.59H104.568ZM112.157 45.59V31.6183H114.17V45.59H112.157ZM118.484 45.59L114.875 40.8771L116.351 39.6154L120.934 45.59H118.484ZM113.957 42.1573L113.883 39.7823H114.319L118.299 35.5426H120.665L116.109 40.1627L115.376 40.7472L113.957 42.1573ZM125.962 45.7848C125.158 45.7848 124.456 45.6673 123.856 45.4323C123.256 45.191 122.78 44.8571 122.427 44.4303C122.081 44.0035 121.874 43.5057 121.806 42.9366V42.9181H123.828V42.9366C123.958 43.3263 124.202 43.6386 124.561 43.8737C124.926 44.1087 125.408 44.2262 126.008 44.2262C126.423 44.2262 126.785 44.1674 127.094 44.0499C127.403 43.9324 127.644 43.7716 127.817 43.5675C127.997 43.3572 128.086 43.116 128.086 42.8439V42.8253C128.086 42.5099 127.963 42.247 127.715 42.0367C127.468 41.8203 127.054 41.644 126.472 41.5079L124.867 41.1368C123.921 40.9204 123.219 40.5895 122.761 40.1442C122.31 39.6927 122.084 39.102 122.084 38.3722V38.3629C122.084 37.7692 122.251 37.2465 122.585 36.795C122.919 36.3435 123.38 35.991 123.967 35.7374C124.555 35.4777 125.226 35.3478 125.98 35.3478C126.754 35.3478 127.425 35.4684 127.994 35.7096C128.563 35.9446 129.014 36.2755 129.348 36.7023C129.682 37.1228 129.877 37.6053 129.933 38.1495V38.1774H128.012L128.003 38.1588C127.916 37.7939 127.7 37.4939 127.354 37.2589C127.007 37.0177 126.549 36.8971 125.98 36.8971C125.616 36.8971 125.291 36.9559 125.006 37.0734C124.722 37.1847 124.499 37.3424 124.338 37.5465C124.178 37.7444 124.097 37.9795 124.097 38.2516V38.2701C124.097 38.5794 124.218 38.8361 124.459 39.0402C124.706 39.2443 125.111 39.4143 125.674 39.5504L127.27 39.9122C128.241 40.1411 128.958 40.472 129.422 40.9049C129.892 41.3378 130.127 41.9161 130.127 42.6398V42.6583C130.127 43.2768 129.945 43.8211 129.58 44.2911C129.221 44.7612 128.73 45.1292 128.105 45.3951C127.48 45.6549 126.766 45.7848 125.962 45.7848ZM138.217 45.59V37.1383H136.584V35.5426H138.217V34.485C138.217 33.4892 138.471 32.747 138.978 32.2584C139.491 31.7636 140.271 31.5162 141.316 31.5162C141.545 31.5162 141.755 31.5255 141.947 31.5441C142.145 31.5626 142.33 31.5843 142.503 31.609V33.0934C142.411 33.0748 142.296 33.0625 142.16 33.0563C142.03 33.0501 141.891 33.047 141.743 33.047C141.198 33.047 140.806 33.1769 140.564 33.4366C140.329 33.6902 140.212 34.0706 140.212 34.5778V35.5426H142.42V37.1383H140.23V45.59H138.217ZM148.459 45.7848C147.482 45.7848 146.638 45.5745 145.927 45.1539C145.215 44.7334 144.665 44.1334 144.275 43.3541C143.892 42.5748 143.7 41.6471 143.7 40.5709V40.5524C143.7 39.4762 143.892 38.5485 144.275 37.7692C144.665 36.9899 145.215 36.393 145.927 35.9786C146.638 35.5581 147.482 35.3478 148.459 35.3478C149.437 35.3478 150.278 35.5581 150.983 35.9786C151.694 36.393 152.242 36.9899 152.625 37.7692C153.015 38.5485 153.209 39.4762 153.209 40.5524V40.5709C153.209 41.6471 153.018 42.5748 152.634 43.3541C152.251 44.1334 151.703 44.7334 150.992 45.1539C150.287 45.5745 149.443 45.7848 148.459 45.7848ZM148.459 44.0963C149.028 44.0963 149.511 43.9572 149.907 43.6788C150.309 43.4005 150.615 42.9985 150.825 42.4728C151.042 41.9471 151.15 41.3131 151.15 40.5709V40.5524C151.15 39.8102 151.042 39.1793 150.825 38.6598C150.615 38.1341 150.309 37.7321 149.907 37.4537C149.511 37.1754 149.028 37.0363 148.459 37.0363C147.89 37.0363 147.405 37.1754 147.003 37.4537C146.601 37.7321 146.292 38.1341 146.075 38.6598C145.865 39.1793 145.76 39.8102 145.76 40.5524V40.5709C145.76 41.3131 145.865 41.9471 146.075 42.4728C146.292 42.9985 146.601 43.4005 147.003 43.6788C147.405 43.9572 147.89 44.0963 148.459 44.0963ZM155.538 45.59V35.5426H157.551V37.0734H157.7C157.873 36.5353 158.182 36.1178 158.627 35.8209C159.079 35.5179 159.636 35.3663 160.297 35.3663C160.458 35.3663 160.616 35.3756 160.771 35.3942C160.931 35.4127 161.061 35.4344 161.16 35.4591V37.3146C160.993 37.2775 160.82 37.2496 160.641 37.2311C160.467 37.2125 160.285 37.2032 160.093 37.2032C159.586 37.2032 159.141 37.3022 158.757 37.5001C158.38 37.6919 158.083 37.9671 157.867 38.3258C157.656 38.6783 157.551 39.0989 157.551 39.5875V45.59H155.538ZM169.102 49.1061C168.965 49.1061 168.823 49.0999 168.675 49.0875C168.533 49.0813 168.396 49.0721 168.267 49.0597V47.4733C168.359 47.4856 168.465 47.4949 168.582 47.5011C168.706 47.5073 168.826 47.5104 168.944 47.5104C169.414 47.5104 169.791 47.4021 170.076 47.1857C170.366 46.9754 170.586 46.6167 170.734 46.1095L170.892 45.5992L167.237 35.5426H169.426L172.247 44.5602L171.644 43.5768H172.395L171.792 44.5602L174.612 35.5426H176.737L172.998 45.9796C172.714 46.7713 172.398 47.3929 172.052 47.8444C171.712 48.302 171.303 48.6267 170.827 48.8185C170.357 49.0102 169.782 49.1061 169.102 49.1061ZM182.563 45.7848C181.586 45.7848 180.742 45.5745 180.03 45.1539C179.319 44.7334 178.769 44.1334 178.379 43.3541C177.995 42.5748 177.804 41.6471 177.804 40.5709V40.5524C177.804 39.4762 177.995 38.5485 178.379 37.7692C178.769 36.9899 179.319 36.393 180.03 35.9786C180.742 35.5581 181.586 35.3478 182.563 35.3478C183.54 35.3478 184.381 35.5581 185.086 35.9786C185.798 36.393 186.345 36.9899 186.729 37.7692C187.118 38.5485 187.313 39.4762 187.313 40.5524V40.5709C187.313 41.6471 187.121 42.5748 186.738 43.3541C186.354 44.1334 185.807 44.7334 185.096 45.1539C184.391 45.5745 183.546 45.7848 182.563 45.7848ZM182.563 44.0963C183.132 44.0963 183.614 43.9572 184.01 43.6788C184.412 43.4005 184.718 42.9985 184.929 42.4728C185.145 41.9471 185.253 41.3131 185.253 40.5709V40.5524C185.253 39.8102 185.145 39.1793 184.929 38.6598C184.718 38.1341 184.412 37.7321 184.01 37.4537C183.614 37.1754 183.132 37.0363 182.563 37.0363C181.994 37.0363 181.508 37.1754 181.106 37.4537C180.704 37.7321 180.395 38.1341 180.179 38.6598C179.968 39.1793 179.863 39.8102 179.863 40.5524V40.5709C179.863 41.3131 179.968 41.9471 180.179 42.4728C180.395 42.9985 180.704 43.4005 181.106 43.6788C181.508 43.9572 181.994 44.0963 182.563 44.0963ZM192.991 45.7848C192.236 45.7848 191.602 45.6394 191.089 45.3488C190.582 45.0519 190.198 44.6251 189.938 44.0685C189.679 43.5118 189.549 42.8377 189.549 42.046V35.5426H191.562V41.5822C191.562 42.4047 191.726 43.0232 192.054 43.4376C192.388 43.8458 192.92 44.0499 193.649 44.0499C194.181 44.0499 194.63 43.9448 194.995 43.7345C195.36 43.518 195.635 43.215 195.82 42.8253C196.012 42.4295 196.108 41.9656 196.108 41.4337V35.5426H198.121V45.59H196.108V44.0685H195.959C195.718 44.6066 195.347 45.0271 194.846 45.3302C194.345 45.6333 193.727 45.7848 192.991 45.7848ZM202.454 45.7291C202.076 45.7291 201.755 45.5992 201.489 45.3395C201.229 45.0797 201.099 44.7643 201.099 44.3932C201.099 44.0159 201.229 43.6974 201.489 43.4376C201.755 43.1779 202.076 43.048 202.454 43.048C202.837 43.048 203.156 43.1779 203.409 43.4376C203.669 43.6974 203.799 44.0159 203.799 44.3932C203.799 44.7643 203.669 45.0797 203.409 45.3395C203.156 45.5992 202.837 45.7291 202.454 45.7291Z" fill="black"/>
<path d="M16.6382 76.7218C14.7998 76.7218 13.5986 75.3961 13.5986 73.3527V71.8732C13.5986 69.837 14.7998 68.5114 16.6382 68.5114C17.7881 68.5114 18.6377 69.0021 18.9819 69.8737H19.1138V65.5231H20.3809V76.59H19.1577V75.3741H19.0186C18.6084 76.2531 17.7734 76.7218 16.6382 76.7218ZM17.0044 75.5865C18.3081 75.5865 19.1504 74.649 19.1504 73.1769V72.0343C19.1504 70.5695 18.3081 69.632 17.0044 69.632C15.6934 69.632 14.8511 70.5695 14.8511 72.0343V73.1769C14.8511 74.6417 15.6934 75.5865 17.0044 75.5865ZM30.2832 72.4811H22.5342V71.3239H30.2832V72.4811ZM39.1528 76.59H32.5684V75.5573H35.2856V66.5558H32.5903V65.5231H36.5308V75.5573H39.1528V76.59ZM41.6943 76.59V65.5231H42.8955V70.0494H42.998C43.4155 69.0607 44.3311 68.504 45.5469 68.504C47.2754 68.504 48.2129 69.5441 48.2129 71.441V76.59H46.9678V71.756C46.9678 70.3278 46.3818 69.6466 45.1367 69.6466C43.8257 69.6466 42.9395 70.5621 42.9395 71.9171V76.59H41.6943ZM58.1006 72.4811H50.3516V71.3239H58.1006V72.4811ZM60.1294 68.9948C60.1294 67.1344 61.5063 65.8014 63.4326 65.8014C65.3735 65.8014 66.7065 67.0026 66.7065 68.7677C66.7065 69.8663 66.2085 70.7452 64.5239 72.5836L62.0337 75.2936V75.4181H66.875V76.59H60.188V75.6964L63.7622 71.7194C65.1025 70.2179 65.4248 69.6539 65.4248 68.819C65.4248 67.6837 64.6265 66.9366 63.396 66.9366C62.1802 66.9366 61.3745 67.7496 61.3745 68.9948V69.0387H60.1294V68.9948ZM72.7783 76.8317C70.4785 76.8317 69.2114 74.8688 69.2114 71.3092C69.2114 67.7496 70.4785 65.7867 72.7783 65.7867C75.0708 65.7867 76.3452 67.7496 76.3452 71.3092C76.3452 74.8688 75.0708 76.8317 72.7783 76.8317ZM70.4932 71.3092C70.4932 71.7267 70.5151 72.1149 70.5444 72.4738L74.8071 68.9142C74.4629 67.6031 73.7744 66.9293 72.7783 66.9293C71.2842 66.9293 70.4932 68.4381 70.4932 71.3092ZM72.7783 75.6891C74.2725 75.6891 75.0562 74.173 75.0562 71.3092C75.0562 70.8844 75.0415 70.4962 75.0049 70.13L70.7568 73.7189C71.1011 75.0153 71.7822 75.6891 72.7783 75.6891ZM82.0508 76.8317C79.751 76.8317 78.4839 74.8688 78.4839 71.3092C78.4839 67.7496 79.751 65.7867 82.0508 65.7867C84.3433 65.7867 85.6177 67.7496 85.6177 71.3092C85.6177 74.8688 84.3433 76.8317 82.0508 76.8317ZM79.7656 71.3092C79.7656 71.7267 79.7876 72.1149 79.8169 72.4738L84.0796 68.9142C83.7354 67.6031 83.0469 66.9293 82.0508 66.9293C80.5566 66.9293 79.7656 68.4381 79.7656 71.3092ZM82.0508 75.6891C83.5449 75.6891 84.3286 74.173 84.3286 71.3092C84.3286 70.8844 84.314 70.4962 84.2773 70.13L80.0293 73.7189C80.3735 75.0153 81.0547 75.6891 82.0508 75.6891Z" fill="black"/>
</svg>
