<svg viewBox="0 0 103 25" fill="none" xmlns="http://www.w3.org/2000/svg">
  <path fill="var(--dt-color-foreground-primary)" fill-rule="evenodd" clip-rule="evenodd" d="M16.3901 6.31511C16.3901 6.66385 16.2543 6.99831 16.0125 7.24491C15.7708 7.49151 15.4429 7.63004 15.101 7.63004C14.7592 7.63004 14.4313 7.49151 14.1895 7.24491C13.9478 6.99831 13.812 6.66385 13.812 6.31511C13.812 5.96637 13.9478 5.63191 14.1895 5.38532C14.4313 5.13872 14.7592 5.00018 15.101 5.00018C15.4429 5.00018 15.7708 5.13872 16.0125 5.38532C16.2543 5.63191 16.3901 5.96637 16.3901 6.31511V6.31511ZM31.5621 5.19508V20.3199C31.5621 20.3995 31.6256 20.4636 31.7036 20.4636H33.5168C33.5354 20.4637 33.5538 20.46 33.571 20.4529C33.5882 20.4457 33.6039 20.4352 33.6171 20.4218C33.6303 20.4085 33.6408 20.3926 33.648 20.3751C33.6552 20.3576 33.659 20.3389 33.6591 20.3199V5.19508C33.6587 5.15704 33.6436 5.12068 33.6171 5.09391C33.5906 5.06714 33.5548 5.05213 33.5175 5.05213H31.7036C31.6662 5.05213 31.6303 5.06725 31.6038 5.09417C31.5772 5.1211 31.5622 5.15764 31.5621 5.19582V5.19508ZM9.57816 10.5005V5.1995C9.57816 5.11992 9.64173 5.05508 9.71974 5.05508H11.5336C11.6116 5.05508 11.6752 5.11992 11.6752 5.1995V20.3236C11.6752 20.3619 11.6603 20.3986 11.6337 20.4257C11.6072 20.4528 11.5712 20.468 11.5336 20.468H9.72047C9.70181 20.4681 9.68332 20.4644 9.66606 20.4572C9.6488 20.45 9.63311 20.4394 9.61988 20.426C9.60666 20.4126 9.59617 20.3966 9.58901 20.379C9.58185 20.3615 9.57816 20.3426 9.57816 20.3236V19.0193C8.70843 20.0288 7.47606 20.6515 5.9627 20.6515C2.84206 20.6515 0.30365 18.0091 0.30365 14.761C0.30365 11.5122 2.84206 8.86981 5.9627 8.86981C7.47534 8.86981 8.70843 9.49172 9.57816 10.5012V10.5005ZM2.60367 14.761C2.60367 16.8065 4.11343 18.4711 6.07828 18.4711C8.04457 18.4711 9.37445 16.8058 9.37445 14.7603C9.37445 12.7148 8.04457 11.0502 6.079 11.0502C4.11343 11.0502 2.60367 12.7155 2.60367 14.761ZM38.1335 10.4997C39.0032 9.49025 40.2355 8.8676 41.7489 8.8676C44.8696 8.8676 47.408 11.5107 47.408 14.7588C47.408 18.0069 44.8696 20.65 41.7489 20.65C40.2363 20.65 39.0032 20.0281 38.1335 19.0186V24.4493C38.1335 24.4876 38.1185 24.5243 38.092 24.5514C38.0654 24.5785 38.0294 24.5937 37.9919 24.5937H36.178C36.1404 24.5937 36.1044 24.5785 36.0779 24.5514C36.0513 24.5243 36.0364 24.4876 36.0364 24.4493V9.32593C36.0364 9.24635 36.0993 9.1815 36.178 9.1815H37.9911C38.0699 9.1815 38.1335 9.24635 38.1335 9.32593V10.5005V10.4997ZM38.3372 14.7588C38.3372 16.8051 39.667 18.4696 41.6326 18.4696C43.5982 18.4696 45.1079 16.8043 45.1079 14.7588C45.1079 12.7125 43.5982 11.048 41.6333 11.048C39.667 11.048 38.3372 12.7133 38.3372 14.7588ZM27.0884 10.5012V9.32593C27.0884 9.24635 27.1513 9.1815 27.2293 9.1815H29.0431C29.1219 9.1815 29.1847 9.24635 29.1847 9.32593V20.3243C29.1847 20.3433 29.1811 20.3621 29.174 20.3796C29.1668 20.3971 29.1564 20.413 29.1433 20.4264C29.1301 20.4399 29.1145 20.4505 29.0973 20.4578C29.0801 20.465 29.0617 20.4688 29.0431 20.4688H27.23C27.2113 20.4688 27.1929 20.4652 27.1756 20.458C27.1583 20.4508 27.1426 20.4401 27.1294 20.4267C27.1162 20.4133 27.1057 20.3973 27.0985 20.3798C27.0914 20.3622 27.0877 20.3434 27.0877 20.3243V19.0208C26.218 20.0303 24.9856 20.653 23.4722 20.653C20.3516 20.653 17.8132 18.0098 17.8132 14.7618C17.8132 11.5129 20.3516 8.87055 23.4722 8.87055C24.9849 8.87055 26.2172 9.49246 27.0877 10.502L27.0884 10.5012ZM20.1132 14.7603C20.1132 16.8065 21.623 18.4711 23.5885 18.4711C25.5541 18.4711 26.884 16.8058 26.884 14.7603C26.884 12.7148 25.5548 11.0502 23.5885 11.0502C21.623 11.0502 20.1139 12.7155 20.1139 14.761L20.1132 14.7603ZM57.8245 9.32519V10.5012C56.9548 9.49172 55.7217 8.86981 54.2091 8.86981C51.0884 8.86981 48.55 11.5122 48.55 14.761C48.55 18.0091 51.0884 20.6522 54.2091 20.6522C55.7217 20.6522 56.9548 20.0296 57.8245 19.0201V20.3243C57.8245 20.4039 57.8881 20.468 57.9661 20.468H59.78C59.8175 20.468 59.8536 20.4528 59.8801 20.4257C59.9067 20.3986 59.9216 20.3619 59.9216 20.3236V9.32593C59.9216 9.28763 59.9067 9.25089 59.8801 9.22381C59.8536 9.19672 59.8175 9.1815 59.78 9.1815H57.9661C57.9286 9.1815 57.8926 9.19672 57.866 9.22381C57.8395 9.25089 57.8245 9.28763 57.8245 9.32593V9.32519ZM54.3254 18.4711C52.3591 18.4711 50.8501 16.8065 50.8501 14.761C50.8501 12.7148 52.3591 11.0502 54.3254 11.0502C56.2909 11.0502 57.6208 12.7148 57.6208 14.7603C57.6208 16.8065 56.2909 18.4711 54.3254 18.4711V18.4711ZM70.5946 5.1995V10.5012C69.7249 9.49172 68.4918 8.86981 66.9791 8.86981C63.8585 8.86981 61.3201 11.5122 61.3201 14.761C61.3201 18.0091 63.8585 20.6515 66.9791 20.6515C68.4918 20.6515 69.7249 20.0296 70.5946 19.0201V20.3236C70.5946 20.4032 70.6582 20.468 70.7362 20.468H72.55C72.5876 20.468 72.6236 20.4528 72.6502 20.4257C72.6767 20.3986 72.6916 20.3619 72.6916 20.3236V5.1995C72.6916 5.1612 72.6767 5.12447 72.6502 5.09738C72.6236 5.0703 72.5876 5.05508 72.55 5.05508H70.7362C70.6986 5.05508 70.6626 5.0703 70.6361 5.09738C70.6095 5.12447 70.5946 5.1612 70.5946 5.1995V5.1995ZM67.0954 18.4711C65.1299 18.4711 63.6201 16.8065 63.6201 14.761C63.6201 12.7148 65.1299 11.0502 67.0954 11.0502C69.061 11.0502 70.3909 12.7148 70.3909 14.7603C70.3909 16.8065 69.061 18.4711 67.0954 18.4711ZM14.0525 20.3199V9.32519C14.0525 9.24561 14.1161 9.18077 14.1941 9.18077H16.008C16.086 9.18077 16.1496 9.24561 16.1496 9.32519V20.3192C16.1496 20.3575 16.1346 20.3942 16.1081 20.4213C16.0815 20.4484 16.0455 20.4636 16.008 20.4636H14.1941C14.1567 20.4636 14.1208 20.4485 14.0942 20.4216C14.0677 20.3946 14.0527 20.3581 14.0525 20.3199V20.3199Z" />
  <path fill="url(#ai-gradient)" d="M78.3217 5.96823C78.3217 3.04047 80.6951 0.667053 83.6229 0.667053H97.0215C99.9493 0.667053 102.323 3.04047 102.323 5.96824V19.3668C102.323 22.2946 99.9493 24.668 97.0215 24.668H83.6229C80.6951 24.668 78.3217 22.2946 78.3217 19.3668V5.96823Z" />
  <path fill="#ffffff" d="M97.98 7.71032C97.98 8.43228 97.3947 9.01754 96.6728 9.01754C95.9508 9.01754 95.3656 8.43228 95.3656 7.71032C95.3656 6.98836 95.9508 6.40309 96.6728 6.40309C97.3947 6.40309 97.98 6.98836 97.98 7.71032Z" />
  <path fill="#ffffff" d="M87.1104 9.91644C87.3798 9.03694 87.8977 8.75038 88.1985 8.75038C88.5 8.75038 89.0159 9.03569 89.2857 9.91313L89.286 9.91437L91.2502 16.2465L91.2506 16.248C91.6663 17.5984 92.7531 18.8747 94.321 18.8747C96.2043 18.8747 97.7309 17.3481 97.7309 15.4647V11.1294C97.7309 10.5563 97.2664 10.0918 96.6933 10.0918C96.1202 10.0918 95.6557 10.5563 95.6557 11.1294V15.4647C95.6557 16.2019 95.0582 16.7994 94.321 16.7994C94.0204 16.7994 93.5034 16.5137 93.2338 15.6367L93.2334 15.6354L91.2693 9.30326L91.2689 9.30211C90.8534 7.95199 89.768 6.67513 88.1985 6.67513C86.6285 6.67513 85.5415 7.95465 85.1267 9.30681L85.1261 9.30867L82.5763 17.5297C82.4065 18.077 82.7126 18.6583 83.26 18.8281C83.8073 18.9979 84.3886 18.6918 84.5584 18.1444L87.1098 9.91819L87.1104 9.91644Z" />
  <defs>
    <linearGradient
      id="ai-gradient"
      x1="103.754"
      y1="24.6657"
      x2="89.2815"
      y2="-6.02048"
      gradientUnits="userSpaceOnUse"
    >
      <stop offset="0.3" stop-color="#7C52FF" />
      <stop offset="0.75" stop-color="#F9008E" />
      <stop offset="1" stop-color="#F6AB3C" />
    </linearGradient>
  </defs>
</svg>
