<svg viewBox="0 0 165 136" fill="none" xmlns="http://www.w3.org/2000/svg">
<rect y="0.589966" width="165" height="135" rx="14" fill="#F9F9F9"/>
<rect x="0.5" y="1.08997" width="164" height="134" rx="13.5" stroke="black" stroke-opacity="0.1"/>
<path d="M16.4883 70.59L26.9766 42.4064H30.4531L40.9219 70.59H37.2305L34.3789 62.5236H23.0312L20.1797 70.59H16.4883ZM28.6758 46.6251L24.1055 59.5353H33.3242L28.7539 46.6251H28.6758ZM48.7742 70.9806C44.7313 70.9806 42.0164 68.5392 42.0164 64.8478V64.8087C42.0164 61.3517 44.7117 59.1837 49.3797 58.9103L55.2 58.5782V56.879C55.2 54.3986 53.5789 52.8947 50.7469 52.8947C48.1297 52.8947 46.4891 54.1447 46.0984 55.9611L46.0594 56.1368H42.7781L42.7977 55.922C43.0906 52.5822 46.0008 49.8868 50.7859 49.8868C55.5906 49.8868 58.5984 52.4845 58.5984 56.547V70.59H55.2V67.2892H55.1219C53.9305 69.5157 51.4891 70.9806 48.7742 70.9806ZM45.493 64.8478C45.493 66.8009 47.0945 68.0314 49.5359 68.0314C52.7391 68.0314 55.2 65.8243 55.2 62.8751V61.215L49.7703 61.547C47.0555 61.7032 45.493 62.9142 45.493 64.8087V64.8478Z" fill="black"/>
<path d="M95.4727 70.59V46.1368H95.3945L87.9336 51.3322V47.797L95.4336 42.4064H98.8711V70.59H95.4727ZM105.22 70.59V68.1681L115.141 57.8165C118.95 53.8517 119.829 52.3282 119.829 49.9845V49.9454C119.809 47.0743 117.641 45.004 114.575 45.004C111.059 45.004 108.442 47.4259 108.442 50.4532V50.5509H105.044V50.4337C105.044 45.5509 109.263 41.9376 114.516 41.9376C119.614 41.9376 123.345 45.3556 123.345 49.7697V49.8087C123.345 52.8947 121.919 55.2189 116.743 60.5118L110.044 67.3868V67.465H123.813V70.59H105.22ZM136.568 71.0587C130.748 71.0587 126.978 67.8165 126.607 63.3634L126.588 63.129H129.966L129.986 63.3243C130.279 66.0978 132.818 68.0118 136.568 68.0118C140.259 68.0118 142.779 65.9415 142.779 62.9532V62.9142C142.779 59.4572 140.298 57.5236 136.353 57.5236H132.818V54.5548H136.197C139.556 54.5548 141.9 52.4845 141.9 49.672V49.6329C141.9 46.6837 139.966 44.9845 136.529 44.9845C133.209 44.9845 130.845 46.7423 130.552 49.5939L130.533 49.7892H127.154L127.173 49.5939C127.623 45.004 131.255 41.9376 136.529 41.9376C141.9 41.9376 145.435 44.9259 145.435 49.2032V49.2423C145.435 52.7189 142.974 55.1017 139.459 55.8439V55.922C143.56 56.2736 146.353 58.8322 146.353 62.8361V62.8751C146.353 67.5822 142.213 71.0587 136.568 71.0587Z" fill="black"/>
<path d="M16.8145 97.34H17.8223C17.9277 98.2657 18.6719 98.8282 19.7969 98.8282C20.9219 98.8282 21.6602 98.2423 21.6602 97.3341C21.6602 96.6017 21.168 96.1622 20.0254 95.881L19.2988 95.6993C17.7285 95.3009 17.0195 94.5568 17.0195 93.3322C17.0195 91.8907 18.1035 90.9591 19.791 90.9591C21.3848 90.9591 22.4805 91.879 22.5508 93.2853H21.543C21.4375 92.4122 20.793 91.8966 19.7969 91.8966C18.7129 91.8966 18.0625 92.4122 18.0625 93.2736C18.0625 94.006 18.5312 94.4279 19.6328 94.7032L20.3711 94.8907C22.0117 95.295 22.7031 96.0099 22.7031 97.2814C22.7031 98.799 21.5605 99.7657 19.791 99.7657C18.0449 99.7657 16.9023 98.84 16.8145 97.34ZM25.9434 99.59H24.9062V91.1349H29.8926V92.0841H25.9434V94.9845H29.5527V95.9044H25.9434V99.59ZM39.4141 91.1349H42.2266C43.8672 91.1349 44.9395 92.2072 44.9395 93.8478C44.9395 95.4825 43.8555 96.5548 42.2031 96.5548H40.4512V99.59H39.4141V91.1349ZM40.4512 92.0548V95.6349H41.9688C43.1992 95.6349 43.8906 94.9962 43.8906 93.8478C43.8906 92.6935 43.1992 92.0548 41.9688 92.0548H40.4512ZM49.1289 96.7423V98.7931H51.0977V99.59H46.873V98.7931H48.1562V94.0294H46.7441V93.2325H49.1172V94.8556H49.2461C49.4805 93.6779 50.2715 93.0685 51.4961 93.0685C51.8594 93.0685 52.2051 93.1212 52.416 93.2091V94.3282C52.123 94.2228 51.7129 94.1525 51.3672 94.1525C49.9609 94.1525 49.1289 95.1251 49.1289 96.7423ZM56.7988 99.7072C55.1172 99.7072 54.0449 98.6115 54.0449 96.8947V95.9337C54.0449 94.2169 55.1172 93.1212 56.7988 93.1212C58.4805 93.1212 59.5527 94.2169 59.5527 95.9337V96.8947C59.5527 98.6115 58.4805 99.7072 56.7988 99.7072ZM56.7988 94.0001C55.709 94.0001 55.0293 94.7736 55.0293 96.0216V96.8009C55.0293 98.0548 55.709 98.8224 56.7988 98.8224C57.8887 98.8224 58.5684 98.0548 58.5684 96.8009V96.0216C58.5684 94.7736 57.8887 94.0001 56.7988 94.0001Z" fill="black"/>
<path d="M17.0781 115.59V107.135H18.3027L21.1973 114.19H21.291L24.1855 107.135H25.4102V115.59H24.4258V109.133H23.9102L25.0938 107.369L21.6895 115.59H20.7988L17.4004 107.369L18.5781 109.133H18.0625V115.59H17.0781ZM29.1719 115.701C28.7734 115.701 28.4141 115.625 28.0938 115.473C27.7773 115.32 27.5254 115.104 27.3379 114.822C27.1543 114.541 27.0625 114.209 27.0625 113.826V113.815C27.0625 113.252 27.2617 112.813 27.6602 112.496C28.0625 112.176 28.6309 111.994 29.3652 111.951L31.6855 111.811V112.625L29.4883 112.766C29.0078 112.793 28.6562 112.893 28.4336 113.065C28.2148 113.236 28.1055 113.479 28.1055 113.791V113.803C28.1055 114.123 28.2266 114.373 28.4688 114.553C28.7109 114.729 29.0156 114.817 29.3828 114.817C29.7305 114.817 30.0391 114.748 30.3086 114.611C30.5781 114.471 30.7891 114.281 30.9414 114.043C31.0977 113.805 31.1758 113.535 31.1758 113.234V111.266C31.1758 110.875 31.0566 110.578 30.8184 110.375C30.584 110.168 30.2305 110.065 29.7578 110.065C29.3789 110.065 29.0684 110.133 28.8262 110.27C28.584 110.402 28.4219 110.592 28.3398 110.838L28.334 110.856H27.3145L27.3203 110.82C27.375 110.488 27.5117 110.199 27.7305 109.953C27.9531 109.703 28.2402 109.51 28.5918 109.373C28.9434 109.233 29.3438 109.162 29.793 109.162C30.3086 109.162 30.7441 109.246 31.0996 109.414C31.459 109.582 31.7305 109.824 31.9141 110.141C32.1016 110.453 32.1953 110.828 32.1953 111.266V115.59H31.1758V114.658H31.082C30.9492 114.881 30.7871 115.07 30.5957 115.227C30.4082 115.383 30.1953 115.502 29.957 115.584C29.7188 115.662 29.457 115.701 29.1719 115.701ZM36.6426 115.701C36.0527 115.701 35.541 115.567 35.1074 115.297C34.6738 115.027 34.3379 114.647 34.0996 114.154C33.8613 113.662 33.7422 113.082 33.7422 112.414V112.402C33.7422 111.746 33.8594 111.176 34.0938 110.692C34.332 110.207 34.668 109.832 35.1016 109.567C35.5352 109.297 36.0469 109.162 36.6367 109.162C37.1484 109.162 37.5898 109.252 37.9609 109.432C38.332 109.611 38.6289 109.854 38.8516 110.158C39.0742 110.459 39.2168 110.797 39.2793 111.172L39.2852 111.207H38.2715L38.2656 111.19C38.1875 110.877 38.0098 110.611 37.7324 110.393C37.4551 110.174 37.0898 110.065 36.6367 110.065C36.2578 110.065 35.9297 110.16 35.6523 110.352C35.375 110.543 35.1602 110.815 35.0078 111.166C34.8594 111.514 34.7852 111.926 34.7852 112.402V112.414C34.7852 112.899 34.8613 113.32 35.0137 113.68C35.166 114.035 35.3809 114.311 35.6582 114.506C35.9355 114.701 36.2617 114.799 36.6367 114.799C37.0625 114.799 37.4102 114.707 37.6797 114.524C37.9492 114.34 38.1426 114.072 38.2598 113.721L38.2715 113.686L39.2793 113.68L39.2676 113.744C39.1816 114.123 39.0293 114.461 38.8105 114.758C38.5918 115.051 38.3027 115.281 37.9434 115.449C37.584 115.617 37.1504 115.701 36.6426 115.701ZM44.4531 115.789C43.6445 115.789 42.9512 115.609 42.373 115.25C41.7949 114.887 41.3496 114.373 41.0371 113.709C40.7285 113.045 40.5742 112.264 40.5742 111.365V111.354C40.5742 110.447 40.7305 109.664 41.043 109.004C41.3594 108.344 41.8066 107.834 42.3848 107.475C42.9668 107.115 43.6562 106.936 44.4531 106.936C45.2539 106.936 45.9434 107.115 46.5215 107.475C47.1035 107.834 47.5508 108.346 47.8633 109.01C48.1758 109.67 48.332 110.451 48.332 111.354V111.365C48.332 112.264 48.1758 113.045 47.8633 113.709C47.5547 114.369 47.1094 114.881 46.5273 115.244C45.9492 115.608 45.2578 115.789 44.4531 115.789ZM44.4531 114.817C45.0312 114.817 45.5293 114.674 45.9473 114.389C46.3652 114.104 46.6875 113.703 46.9141 113.188C47.1406 112.668 47.2539 112.061 47.2539 111.365V111.354C47.2539 110.651 47.1406 110.041 46.9141 109.526C46.6875 109.01 46.3652 108.611 45.9473 108.33C45.5293 108.049 45.0312 107.908 44.4531 107.908C43.8789 107.908 43.3828 108.049 42.9648 108.33C42.5469 108.611 42.2227 109.01 41.9922 109.526C41.7656 110.041 41.6523 110.651 41.6523 111.354V111.365C41.6523 112.061 41.7637 112.668 41.9863 113.188C42.209 113.703 42.5293 114.104 42.9473 114.389C43.3652 114.674 43.8672 114.817 44.4531 114.817ZM52.9316 115.789C52.3145 115.789 51.7754 115.69 51.3145 115.49C50.8574 115.287 50.4941 115.01 50.2246 114.658C49.959 114.303 49.8047 113.897 49.7617 113.44L49.7559 113.375H50.8105L50.8164 113.44C50.8438 113.721 50.9512 113.965 51.1387 114.172C51.3301 114.375 51.584 114.533 51.9004 114.647C52.2207 114.76 52.584 114.817 52.9902 114.817C53.373 114.817 53.7129 114.756 54.0098 114.635C54.3105 114.51 54.5469 114.338 54.7188 114.119C54.8906 113.901 54.9766 113.649 54.9766 113.363V113.358C54.9766 113.006 54.8477 112.711 54.5898 112.473C54.332 112.231 53.9121 112.045 53.3301 111.916L52.3926 111.711C51.5449 111.524 50.9277 111.234 50.541 110.844C50.1582 110.449 49.9668 109.945 49.9668 109.332V109.326C49.9707 108.858 50.0977 108.443 50.3477 108.084C50.6016 107.725 50.9512 107.443 51.3965 107.24C51.8457 107.037 52.3613 106.936 52.9434 106.936C53.5059 106.936 54.0039 107.037 54.4375 107.24C54.8711 107.44 55.2148 107.709 55.4688 108.049C55.7266 108.389 55.8691 108.77 55.8965 109.192L55.9023 109.274H54.8477L54.8359 109.197C54.7969 108.947 54.6953 108.727 54.5312 108.535C54.3672 108.34 54.1484 108.186 53.875 108.072C53.6016 107.959 53.2812 107.904 52.9141 107.908C52.5625 107.908 52.2461 107.963 51.9648 108.072C51.6836 108.182 51.459 108.34 51.291 108.547C51.127 108.75 51.0449 109 51.0449 109.297V109.303C51.0449 109.639 51.1699 109.922 51.4199 110.152C51.6699 110.383 52.082 110.561 52.6562 110.686L53.5938 110.897C54.4766 111.092 55.1074 111.375 55.4863 111.746C55.8652 112.117 56.0547 112.608 56.0547 113.217V113.223C56.0547 113.75 55.9258 114.205 55.668 114.588C55.4102 114.971 55.0469 115.268 54.5781 115.479C54.1094 115.686 53.5605 115.789 52.9316 115.789ZM63.7598 106.766L61.0879 117.699H60.1094L62.7812 106.766H63.7598ZM68.1133 115.59V109.274H69.1328V115.59H68.1133ZM68.6289 108.055C68.4375 108.055 68.2715 107.986 68.1309 107.85C67.9941 107.709 67.9258 107.543 67.9258 107.352C67.9258 107.156 67.9941 106.99 68.1309 106.854C68.2715 106.717 68.4375 106.649 68.6289 106.649C68.8242 106.649 68.9902 106.717 69.127 106.854C69.2637 106.99 69.332 107.156 69.332 107.352C69.332 107.543 69.2637 107.709 69.127 107.85C68.9902 107.986 68.8242 108.055 68.6289 108.055ZM74.7344 115.789C73.9258 115.789 73.2324 115.609 72.6543 115.25C72.0762 114.887 71.6309 114.373 71.3184 113.709C71.0098 113.045 70.8555 112.264 70.8555 111.365V111.354C70.8555 110.447 71.0117 109.664 71.3242 109.004C71.6406 108.344 72.0879 107.834 72.666 107.475C73.248 107.115 73.9375 106.936 74.7344 106.936C75.5352 106.936 76.2246 107.115 76.8027 107.475C77.3848 107.834 77.832 108.346 78.1445 109.01C78.457 109.67 78.6133 110.451 78.6133 111.354V111.365C78.6133 112.264 78.457 113.045 78.1445 113.709C77.8359 114.369 77.3906 114.881 76.8086 115.244C76.2305 115.608 75.5391 115.789 74.7344 115.789ZM74.7344 114.817C75.3125 114.817 75.8105 114.674 76.2285 114.389C76.6465 114.104 76.9688 113.703 77.1953 113.188C77.4219 112.668 77.5352 112.061 77.5352 111.365V111.354C77.5352 110.651 77.4219 110.041 77.1953 109.526C76.9688 109.01 76.6465 108.611 76.2285 108.33C75.8105 108.049 75.3125 107.908 74.7344 107.908C74.1602 107.908 73.6641 108.049 73.2461 108.33C72.8281 108.611 72.5039 109.01 72.2734 109.526C72.0469 110.041 71.9336 110.651 71.9336 111.354V111.365C71.9336 112.061 72.0449 112.668 72.2676 113.188C72.4902 113.703 72.8105 114.104 73.2285 114.389C73.6465 114.674 74.1484 114.817 74.7344 114.817ZM83.2129 115.789C82.5957 115.789 82.0566 115.69 81.5957 115.49C81.1387 115.287 80.7754 115.01 80.5059 114.658C80.2402 114.303 80.0859 113.897 80.043 113.44L80.0371 113.375H81.0918L81.0977 113.44C81.125 113.721 81.2324 113.965 81.4199 114.172C81.6113 114.375 81.8652 114.533 82.1816 114.647C82.502 114.76 82.8652 114.817 83.2715 114.817C83.6543 114.817 83.9941 114.756 84.291 114.635C84.5918 114.51 84.8281 114.338 85 114.119C85.1719 113.901 85.2578 113.649 85.2578 113.363V113.358C85.2578 113.006 85.1289 112.711 84.8711 112.473C84.6133 112.231 84.1934 112.045 83.6113 111.916L82.6738 111.711C81.8262 111.524 81.209 111.234 80.8223 110.844C80.4395 110.449 80.248 109.945 80.248 109.332V109.326C80.252 108.858 80.3789 108.443 80.6289 108.084C80.8828 107.725 81.2324 107.443 81.6777 107.24C82.127 107.037 82.6426 106.936 83.2246 106.936C83.7871 106.936 84.2852 107.037 84.7188 107.24C85.1523 107.44 85.4961 107.709 85.75 108.049C86.0078 108.389 86.1504 108.77 86.1777 109.192L86.1836 109.274H85.1289L85.1172 109.197C85.0781 108.947 84.9766 108.727 84.8125 108.535C84.6484 108.34 84.4297 108.186 84.1562 108.072C83.8828 107.959 83.5625 107.904 83.1953 107.908C82.8438 107.908 82.5273 107.963 82.2461 108.072C81.9648 108.182 81.7402 108.34 81.5723 108.547C81.4082 108.75 81.3262 109 81.3262 109.297V109.303C81.3262 109.639 81.4512 109.922 81.7012 110.152C81.9512 110.383 82.3633 110.561 82.9375 110.686L83.875 110.897C84.7578 111.092 85.3887 111.375 85.7676 111.746C86.1465 112.117 86.3359 112.608 86.3359 113.217V113.223C86.3359 113.75 86.207 114.205 85.9492 114.588C85.6914 114.971 85.3281 115.268 84.8594 115.479C84.3906 115.686 83.8418 115.789 83.2129 115.789Z" fill="#222222" fill-opacity="0.5"/>
</svg>
