<svg viewBox="0 0 165 136" fill="none" xmlns="http://www.w3.org/2000/svg">
<rect y="0.589966" width="165" height="135" rx="14" fill="#F9F9F9"/>
<rect x="0.5" y="1.08997" width="164" height="134" rx="13.5" stroke="black" stroke-opacity="0.1"/>
<path d="M37.96 71.59C37.5067 70.39 37.08 69.2166 36.68 68.07C36.28 66.8966 35.8667 65.71 35.44 64.51H22.88L20.36 71.59H16.32C17.3867 68.6566 18.3867 65.95 19.32 63.47C20.2533 60.9633 21.16 58.59 22.04 56.35C22.9467 54.11 23.84 51.9766 24.72 49.95C25.6 47.8966 26.52 45.87 27.48 43.87H31.04C32 45.87 32.92 47.8966 33.8 49.95C34.68 51.9766 35.56 54.11 36.44 56.35C37.3467 58.59 38.2667 60.9633 39.2 63.47C40.1333 65.95 41.1333 68.6566 42.2 71.59H37.96ZM34.32 61.31C33.4667 58.99 32.6133 56.75 31.76 54.59C30.9333 52.4033 30.0667 50.31 29.16 48.31C28.2267 50.31 27.3333 52.4033 26.48 54.59C25.6533 56.75 24.8267 58.99 24 61.31H34.32ZM51.9634 68.91C52.8434 68.91 53.6168 68.8966 54.2834 68.87C54.9768 68.8166 55.5501 68.7366 56.0034 68.63V62.43C55.7368 62.2966 55.2968 62.19 54.6834 62.11C54.0968 62.0033 53.3768 61.95 52.5234 61.95C51.9634 61.95 51.3634 61.99 50.7234 62.07C50.1101 62.15 49.5368 62.3233 49.0034 62.59C48.4968 62.83 48.0701 63.1766 47.7234 63.63C47.3768 64.0566 47.2034 64.63 47.2034 65.35C47.2034 66.6833 47.6301 67.6166 48.4834 68.15C49.3368 68.6566 50.4968 68.91 51.9634 68.91ZM51.6434 50.27C53.1368 50.27 54.3901 50.47 55.4034 50.87C56.4434 51.2433 57.2701 51.79 57.8834 52.51C58.5234 53.2033 58.9768 54.0433 59.2434 55.03C59.5101 55.99 59.6434 57.0566 59.6434 58.23V71.23C59.3234 71.2833 58.8701 71.3633 58.2834 71.47C57.7234 71.55 57.0834 71.63 56.3634 71.71C55.6434 71.79 54.8568 71.8566 54.0034 71.91C53.1768 71.99 52.3501 72.03 51.5234 72.03C50.3501 72.03 49.2701 71.91 48.2834 71.67C47.2968 71.43 46.4434 71.0566 45.7234 70.55C45.0034 70.0166 44.4434 69.3233 44.0434 68.47C43.6434 67.6166 43.4434 66.59 43.4434 65.39C43.4434 64.2433 43.6701 63.2566 44.1234 62.43C44.6034 61.6033 45.2434 60.9366 46.0434 60.43C46.8434 59.9233 47.7768 59.55 48.8434 59.31C49.9101 59.07 51.0301 58.95 52.2034 58.95C52.5768 58.95 52.9634 58.9766 53.3634 59.03C53.7634 59.0566 54.1368 59.11 54.4834 59.19C54.8568 59.2433 55.1768 59.2966 55.4434 59.35C55.7101 59.4033 55.8968 59.4433 56.0034 59.47V58.43C56.0034 57.8166 55.9368 57.2166 55.8034 56.63C55.6701 56.0166 55.4301 55.4833 55.0834 55.03C54.7368 54.55 54.2568 54.1766 53.6434 53.91C53.0568 53.6166 52.2834 53.47 51.3234 53.47C50.0968 53.47 49.0168 53.5633 48.0834 53.75C47.1768 53.91 46.4968 54.0833 46.0434 54.27L45.6034 51.19C46.0834 50.9766 46.8834 50.7766 48.0034 50.59C49.1234 50.3766 50.3368 50.27 51.6434 50.27Z" fill="black"/>
<path d="M85.72 49.59C87.24 49.0033 88.72 48.2566 90.16 47.35C91.6 46.4166 92.92 45.2566 94.12 43.87H96.76V71.59H93.04V49.03C92.72 49.3233 92.32 49.63 91.84 49.95C91.3867 50.27 90.88 50.5766 90.32 50.87C89.7867 51.1633 89.2133 51.4433 88.6 51.71C88.0133 51.9766 87.44 52.2033 86.88 52.39L85.72 49.59ZM122.458 50.95C122.458 51.91 122.258 52.8433 121.858 53.75C121.485 54.63 120.978 55.51 120.338 56.39C119.698 57.2433 118.978 58.0966 118.178 58.95C117.378 59.7766 116.578 60.59 115.778 61.39C115.325 61.8433 114.791 62.3766 114.178 62.99C113.591 63.6033 113.031 64.2433 112.498 64.91C111.965 65.5766 111.511 66.2166 111.138 66.83C110.791 67.4433 110.618 67.9766 110.618 68.43H123.378V71.59H106.578C106.551 71.43 106.538 71.27 106.538 71.11C106.538 70.95 106.538 70.8033 106.538 70.67C106.538 69.4166 106.738 68.2566 107.138 67.19C107.565 66.0966 108.111 65.07 108.778 64.11C109.445 63.15 110.191 62.2433 111.018 61.39C111.845 60.5366 112.658 59.71 113.458 58.91C114.125 58.27 114.751 57.6433 115.338 57.03C115.951 56.39 116.485 55.7633 116.938 55.15C117.418 54.51 117.791 53.8566 118.058 53.19C118.351 52.5233 118.498 51.8166 118.498 51.07C118.498 50.27 118.365 49.59 118.098 49.03C117.858 48.47 117.525 48.0033 117.098 47.63C116.671 47.2566 116.165 46.99 115.578 46.83C115.018 46.6433 114.418 46.55 113.778 46.55C113.005 46.55 112.298 46.6566 111.658 46.87C111.018 47.0833 110.445 47.3366 109.938 47.63C109.431 47.8966 109.005 48.19 108.658 48.51C108.311 48.8033 108.045 49.03 107.858 49.19L106.018 46.55C106.258 46.2833 106.618 45.9633 107.098 45.59C107.578 45.19 108.151 44.8166 108.818 44.47C109.485 44.1233 110.231 43.83 111.058 43.59C111.885 43.35 112.778 43.23 113.738 43.23C116.645 43.23 118.818 43.91 120.258 45.27C121.725 46.6033 122.458 48.4966 122.458 50.95ZM134.596 68.87C136.97 68.87 138.663 68.4033 139.676 67.47C140.716 66.5366 141.236 65.2833 141.236 63.71C141.236 62.6966 141.023 61.8433 140.596 61.15C140.17 60.4566 139.61 59.91 138.916 59.51C138.223 59.0833 137.41 58.79 136.476 58.63C135.57 58.4433 134.636 58.35 133.676 58.35H132.716V55.31H134.036C134.703 55.31 135.383 55.2433 136.076 55.11C136.796 54.9766 137.45 54.7366 138.036 54.39C138.623 54.0433 139.103 53.5766 139.476 52.99C139.85 52.3766 140.036 51.6166 140.036 50.71C140.036 49.9633 139.903 49.3233 139.636 48.79C139.37 48.2566 139.01 47.8166 138.556 47.47C138.13 47.1233 137.623 46.8833 137.036 46.75C136.476 46.59 135.876 46.51 135.236 46.51C133.956 46.51 132.863 46.6966 131.956 47.07C131.076 47.4433 130.33 47.83 129.716 48.23L128.276 45.39C128.596 45.1766 128.996 44.95 129.476 44.71C129.983 44.4433 130.543 44.2033 131.156 43.99C131.77 43.7766 132.423 43.6033 133.116 43.47C133.836 43.31 134.583 43.23 135.356 43.23C136.823 43.23 138.09 43.4166 139.156 43.79C140.223 44.1366 141.103 44.6433 141.796 45.31C142.49 45.95 143.01 46.7233 143.356 47.63C143.703 48.51 143.876 49.47 143.876 50.51C143.876 51.95 143.463 53.19 142.636 54.23C141.81 55.2433 140.81 56.0166 139.636 56.55C140.356 56.7633 141.05 57.07 141.716 57.47C142.383 57.87 142.956 58.3766 143.436 58.99C143.943 59.6033 144.343 60.31 144.636 61.11C144.956 61.91 145.116 62.8033 145.116 63.79C145.116 64.99 144.903 66.11 144.476 67.15C144.076 68.1633 143.436 69.0433 142.556 69.79C141.703 70.5366 140.623 71.1233 139.316 71.55C138.01 71.9766 136.463 72.19 134.676 72.19C133.983 72.19 133.263 72.1366 132.516 72.03C131.796 71.9233 131.116 71.79 130.476 71.63C129.836 71.47 129.276 71.31 128.796 71.15C128.316 70.99 127.97 70.8566 127.756 70.75L128.476 67.51C128.93 67.7233 129.676 68.0033 130.716 68.35C131.783 68.6966 133.076 68.87 134.596 68.87Z" fill="black"/>
<path d="M16.8145 97.34H17.8223C17.9277 98.2657 18.6719 98.8282 19.7969 98.8282C20.9219 98.8282 21.6602 98.2423 21.6602 97.3341C21.6602 96.6017 21.168 96.1622 20.0254 95.881L19.2988 95.6993C17.7285 95.3009 17.0195 94.5568 17.0195 93.3322C17.0195 91.8907 18.1035 90.9591 19.791 90.9591C21.3848 90.9591 22.4805 91.879 22.5508 93.2853H21.543C21.4375 92.4122 20.793 91.8966 19.7969 91.8966C18.7129 91.8966 18.0625 92.4122 18.0625 93.2736C18.0625 94.006 18.5312 94.4279 19.6328 94.7032L20.3711 94.8907C22.0117 95.295 22.7031 96.0099 22.7031 97.2814C22.7031 98.799 21.5605 99.7657 19.791 99.7657C18.0449 99.7657 16.9023 98.84 16.8145 97.34ZM26.4824 99.7013C25.2695 99.7013 24.4609 98.9396 24.4609 97.7853C24.4609 96.6603 25.2695 95.9923 26.7168 95.9161L28.4629 95.8282V95.254C28.4629 94.4572 27.9766 94.0177 27.0918 94.0177C26.3594 94.0177 25.8438 94.3282 25.6797 94.8732H24.7012C24.8184 93.8536 25.8027 93.1564 27.1035 93.1564C28.5977 93.1564 29.4531 93.9181 29.4531 95.2423V99.5958H28.5039V98.6407H28.4043C28.0996 99.3204 27.4082 99.7013 26.4824 99.7013ZM26.7695 98.8282C27.7305 98.8282 28.4629 98.1896 28.4629 97.34V96.59L26.8281 96.6661C25.9375 96.7072 25.4688 97.088 25.4688 97.7501C25.4688 98.4181 25.9668 98.8282 26.7695 98.8282ZM31.9434 99.59V93.2325H32.8984V94.3517H32.9805C33.3203 93.5607 34.0469 93.1154 35.0137 93.1154C36.3965 93.1154 37.1465 93.9415 37.1465 95.465V99.59H36.1504V95.7169C36.1504 94.5685 35.6816 94.0294 34.6914 94.0294C33.6426 94.0294 32.9395 94.7618 32.9395 95.8458V99.59H31.9434ZM39.6484 94.9493C39.6484 93.8478 40.5859 93.1095 41.9863 93.1095C43.3105 93.1095 44.207 93.7716 44.3242 94.8322H43.3633C43.2461 94.2755 42.7129 93.9357 41.9688 93.9357C41.1602 93.9357 40.6387 94.3107 40.6387 94.8907C40.6387 95.3771 40.9668 95.6525 41.7637 95.8282L42.6602 96.0333C43.8965 96.3146 44.459 96.8536 44.459 97.7736C44.459 98.9454 43.4805 99.7072 41.9746 99.7072C40.5332 99.7072 39.5781 99.0333 39.4668 97.9435H40.4805C40.627 98.5294 41.1895 98.8693 42.0098 98.8693C42.877 98.8693 43.4277 98.4767 43.4277 97.8673C43.4277 97.3634 43.1172 97.0939 42.3086 96.9122L41.3652 96.6954C40.2168 96.4318 39.6484 95.8517 39.6484 94.9493ZM52.4805 96.3029H46.2812V95.3771H52.4805V96.3029ZM54.4844 94.9493C54.4844 93.8478 55.4219 93.1095 56.8223 93.1095C58.1465 93.1095 59.043 93.7716 59.1602 94.8322H58.1992C58.082 94.2755 57.5488 93.9357 56.8047 93.9357C55.9961 93.9357 55.4746 94.3107 55.4746 94.8907C55.4746 95.3771 55.8027 95.6525 56.5996 95.8282L57.4961 96.0333C58.7324 96.3146 59.2949 96.8536 59.2949 97.7736C59.2949 98.9454 58.3164 99.7072 56.8105 99.7072C55.3691 99.7072 54.4141 99.0333 54.3027 97.9435H55.3164C55.4629 98.5294 56.0254 98.8693 56.8457 98.8693C57.7129 98.8693 58.2637 98.4767 58.2637 97.8673C58.2637 97.3634 57.9531 97.0939 57.1445 96.9122L56.2012 96.6954C55.0527 96.4318 54.4844 95.8517 54.4844 94.9493ZM65.9336 97.9493H66.9004C66.707 98.9982 65.6992 99.7072 64.3633 99.7072C62.6172 99.7072 61.6035 98.6583 61.6035 96.8478V95.8927C61.6035 94.2169 62.6758 93.1154 64.293 93.1154C65.9453 93.1154 66.918 94.2111 66.918 96.0509V96.672H62.5879V96.9298C62.5879 98.0958 63.2793 98.8458 64.3633 98.8458C65.166 98.8458 65.7578 98.506 65.9336 97.9493ZM64.2871 93.9708C63.2266 93.9708 62.5879 94.6974 62.5879 95.9161H65.9336C65.9336 94.7032 65.3125 93.9708 64.2871 93.9708ZM71.3828 96.7423V98.7931H73.3516V99.59H69.127V98.7931H70.4102V94.0294H68.998V93.2325H71.3711V94.8556H71.5C71.7344 93.6779 72.5254 93.0685 73.75 93.0685C74.1133 93.0685 74.459 93.1212 74.6699 93.2091V94.3282C74.377 94.2228 73.9668 94.1525 73.6211 94.1525C72.2148 94.1525 71.3828 95.1251 71.3828 96.7423ZM79.1641 91.674C78.6953 91.674 78.3379 91.3224 78.3379 90.8536C78.3379 90.3907 78.6953 90.0392 79.1641 90.0392C79.6328 90.0392 79.9902 90.3907 79.9902 90.8536C79.9902 91.3224 79.6328 91.674 79.1641 91.674ZM81.8301 99.59H76.5625V98.7638H78.7422V94.0587H76.5801V93.2325H79.7266V98.7638H81.8301V99.59ZM85.5332 99.59V94.0997H83.8281V93.2501H85.5332V92.6115C85.5332 91.381 86.2949 90.8068 87.8594 90.8068C88.2285 90.8068 89.1133 90.8361 89.3242 90.8654V91.6798C89.0488 91.6505 88.2285 91.6271 87.8711 91.6271C86.9863 91.6271 86.5176 91.9552 86.5176 92.5939V93.2501H89.3242V94.0997H86.5293V99.59H85.5332Z" fill="black"/>
<path d="M17.0781 115.59V107.135H18.1328V114.641H22.2109V115.59H17.0781ZM23.793 115.59V109.274H24.8125V115.59H23.793ZM24.3086 108.055C24.1172 108.055 23.9512 107.986 23.8105 107.85C23.6738 107.709 23.6055 107.543 23.6055 107.352C23.6055 107.156 23.6738 106.99 23.8105 106.854C23.9512 106.717 24.1172 106.649 24.3086 106.649C24.5039 106.649 24.6699 106.717 24.8066 106.854C24.9434 106.99 25.0117 107.156 25.0117 107.352C25.0117 107.543 24.9434 107.709 24.8066 107.85C24.6699 107.986 24.5039 108.055 24.3086 108.055ZM26.7344 115.59V109.274H27.7539V110.223H27.8477C28.0078 109.887 28.2383 109.627 28.5391 109.443C28.8398 109.256 29.2227 109.162 29.6875 109.162C30.3984 109.162 30.9434 109.365 31.3223 109.772C31.7051 110.174 31.8965 110.75 31.8965 111.5V115.59H30.877V111.746C30.877 111.176 30.7559 110.754 30.5137 110.481C30.2754 110.203 29.9043 110.065 29.4004 110.065C29.0645 110.065 28.7734 110.137 28.5273 110.281C28.2812 110.426 28.0898 110.631 27.9531 110.897C27.8203 111.162 27.7539 111.481 27.7539 111.852V115.59H26.7344ZM35.8574 115.701C35.3809 115.701 34.9805 115.611 34.6562 115.432C34.332 115.248 34.0879 114.983 33.9238 114.635C33.7637 114.283 33.6836 113.859 33.6836 113.363V109.274H34.7031V113.117C34.7031 113.684 34.8125 114.106 35.0312 114.383C35.2539 114.66 35.6172 114.799 36.1211 114.799C36.4922 114.799 36.8047 114.727 37.0586 114.582C37.3125 114.438 37.5039 114.233 37.6328 113.967C37.7617 113.697 37.8262 113.379 37.8262 113.012V109.274H38.8457V115.59H37.8262V114.647H37.7324C37.5762 114.983 37.3398 115.242 37.0234 115.426C36.7109 115.609 36.3223 115.701 35.8574 115.701ZM40.2461 115.59L42.4082 112.432L40.2227 109.274H41.4238L42.9238 111.623H43.0176L44.5 109.274H45.6426L43.498 112.391L45.6719 115.59H44.4766L42.9824 113.205H42.8887L41.3887 115.59H40.2461ZM52.5508 117.699C52.1719 117.195 51.8594 116.66 51.6133 116.094C51.3672 115.527 51.1836 114.924 51.0625 114.283C50.9453 113.643 50.8867 112.959 50.8867 112.233C50.8867 111.506 50.9453 110.824 51.0625 110.188C51.1797 109.547 51.3613 108.943 51.6074 108.377C51.8535 107.807 52.168 107.27 52.5508 106.766H53.4062C53.1953 107.035 52.998 107.375 52.8145 107.785C52.6348 108.195 52.4785 108.649 52.3457 109.145C52.2129 109.637 52.1094 110.149 52.0352 110.68C51.9609 111.207 51.9238 111.725 51.9238 112.233C51.9238 112.744 51.9609 113.266 52.0352 113.797C52.1094 114.324 52.2129 114.836 52.3457 115.332C52.4785 115.824 52.6348 116.274 52.8145 116.68C52.998 117.09 53.1953 117.43 53.4062 117.699H52.5508ZM58.4805 115.789C57.7812 115.789 57.1797 115.658 56.6758 115.397C56.1758 115.135 55.791 114.772 55.5215 114.307C55.252 113.838 55.1172 113.297 55.1172 112.684V107.135H56.1719V112.613C56.1719 113.262 56.373 113.791 56.7754 114.201C57.1816 114.611 57.75 114.817 58.4805 114.817C59.2148 114.817 59.7812 114.611 60.1797 114.201C60.5781 113.791 60.7773 113.262 60.7773 112.613V107.135H61.832V112.684C61.832 113.297 61.6973 113.838 61.4277 114.307C61.1621 114.772 60.7793 115.135 60.2793 115.397C59.7793 115.658 59.1797 115.789 58.4805 115.789ZM66.9883 115.701C66.5508 115.701 66.1621 115.604 65.8223 115.408C65.4824 115.209 65.2148 114.934 65.0195 114.582H64.9258V115.59H63.9062V106.766H64.9258V110.27H65.0195C65.1914 109.934 65.4531 109.666 65.8047 109.467C66.1602 109.264 66.5547 109.162 66.9883 109.162C67.5234 109.162 67.9883 109.297 68.3828 109.567C68.7812 109.836 69.0898 110.215 69.3086 110.703C69.5273 111.192 69.6367 111.766 69.6367 112.426V112.438C69.6367 113.094 69.5273 113.668 69.3086 114.16C69.0898 114.649 68.7812 115.027 68.3828 115.297C67.9883 115.567 67.5234 115.701 66.9883 115.701ZM66.7539 114.799C67.1406 114.799 67.4707 114.705 67.7441 114.518C68.0176 114.326 68.2266 114.055 68.3711 113.703C68.5195 113.348 68.5938 112.926 68.5938 112.438V112.426C68.5938 111.934 68.5195 111.512 68.3711 111.16C68.2266 110.809 68.0176 110.539 67.7441 110.352C67.4707 110.16 67.1406 110.065 66.7539 110.065C66.3711 110.065 66.041 110.16 65.7637 110.352C65.4863 110.543 65.2734 110.815 65.125 111.166C64.9766 111.518 64.9023 111.938 64.9023 112.426V112.438C64.9023 112.922 64.9766 113.342 65.125 113.697C65.2734 114.049 65.4863 114.32 65.7637 114.512C66.041 114.703 66.3711 114.799 66.7539 114.799ZM73.334 115.701C72.8574 115.701 72.457 115.611 72.1328 115.432C71.8086 115.248 71.5645 114.983 71.4004 114.635C71.2402 114.283 71.1602 113.859 71.1602 113.363V109.274H72.1797V113.117C72.1797 113.684 72.2891 114.106 72.5078 114.383C72.7305 114.66 73.0938 114.799 73.5977 114.799C73.9688 114.799 74.2812 114.727 74.5352 114.582C74.7891 114.438 74.9805 114.233 75.1094 113.967C75.2383 113.697 75.3027 113.379 75.3027 113.012V109.274H76.3223V115.59H75.3027V114.647H75.209C75.0527 114.983 74.8164 115.242 74.5 115.426C74.1875 115.609 73.7988 115.701 73.334 115.701ZM78.2266 115.59V109.274H79.2461V110.223H79.3398C79.5 109.887 79.7305 109.627 80.0312 109.443C80.332 109.256 80.7148 109.162 81.1797 109.162C81.8906 109.162 82.4355 109.365 82.8145 109.772C83.1973 110.174 83.3887 110.75 83.3887 111.5V115.59H82.3691V111.746C82.3691 111.176 82.248 110.754 82.0059 110.481C81.7676 110.203 81.3965 110.065 80.8926 110.065C80.5566 110.065 80.2656 110.137 80.0195 110.281C79.7734 110.426 79.582 110.631 79.4453 110.897C79.3125 111.162 79.2461 111.481 79.2461 111.852V115.59H78.2266ZM87.4785 115.637C86.8301 115.637 86.3594 115.506 86.0664 115.244C85.7773 114.983 85.6328 114.551 85.6328 113.949V110.117H84.6367V109.274H85.6328V107.639H86.6875V109.274H88.0703V110.117H86.6875V113.692C86.6875 114.063 86.7578 114.33 86.8984 114.494C87.0391 114.654 87.2734 114.734 87.6016 114.734C87.6914 114.734 87.7676 114.733 87.8301 114.729C87.8965 114.725 87.9766 114.719 88.0703 114.711V115.578C87.9727 115.594 87.875 115.608 87.7773 115.619C87.6797 115.631 87.5801 115.637 87.4785 115.637ZM91.709 115.701C91.2324 115.701 90.832 115.611 90.5078 115.432C90.1836 115.248 89.9395 114.983 89.7754 114.635C89.6152 114.283 89.5352 113.859 89.5352 113.363V109.274H90.5547V113.117C90.5547 113.684 90.6641 114.106 90.8828 114.383C91.1055 114.66 91.4688 114.799 91.9727 114.799C92.3438 114.799 92.6562 114.727 92.9102 114.582C93.1641 114.438 93.3555 114.233 93.4844 113.967C93.6133 113.697 93.6777 113.379 93.6777 113.012V109.274H94.6973V115.59H93.6777V114.647H93.584C93.4277 114.983 93.1914 115.242 92.875 115.426C92.5625 115.609 92.1738 115.701 91.709 115.701ZM97.1523 117.699H96.2969C96.5078 117.43 96.7031 117.09 96.8828 116.68C97.0664 116.274 97.2246 115.824 97.3574 115.332C97.4902 114.836 97.5938 114.324 97.668 113.797C97.7422 113.266 97.7793 112.744 97.7793 112.233C97.7793 111.725 97.7422 111.207 97.668 110.68C97.5938 110.149 97.4902 109.637 97.3574 109.145C97.2246 108.649 97.0664 108.195 96.8828 107.785C96.7031 107.375 96.5078 107.035 96.2969 106.766H97.1523C97.5352 107.27 97.8496 107.807 98.0957 108.377C98.3418 108.943 98.5234 109.547 98.6406 110.188C98.7578 110.824 98.8164 111.506 98.8164 112.233C98.8164 112.959 98.7559 113.643 98.6348 114.283C98.5176 114.924 98.3359 115.527 98.0898 116.094C97.8477 116.66 97.5352 117.195 97.1523 117.699Z" fill="#222222" fill-opacity="0.5"/>
</svg>
