<svg viewBox="0 0 165 136" fill="none" xmlns="http://www.w3.org/2000/svg">
<rect y="0.589966" width="165" height="135" rx="14" fill="#F9F9F9"/>
<rect x="0.5" y="1.08997" width="164" height="134" rx="13.5" stroke="black" stroke-opacity="0.1"/>
<path d="M35.0039 63.1681H23.0898L20.4141 70.59H16.5469L27.4062 42.1525H30.6875L41.5664 70.59H37.7188L35.0039 63.1681ZM24.2227 60.0822H33.8906L29.0469 46.7814L24.2227 60.0822ZM57.075 70.59C56.8667 70.1733 56.6974 69.4311 56.5672 68.3634C54.8875 70.1082 52.8823 70.9806 50.5516 70.9806C48.4682 70.9806 46.756 70.3947 45.4148 69.2228C44.0867 68.0379 43.4227 66.5405 43.4227 64.7306C43.4227 62.5301 44.256 60.8243 45.9227 59.6134C47.6023 58.3894 49.9591 57.7775 52.993 57.7775H56.5086V56.1173C56.5086 54.8543 56.131 53.8517 55.3758 53.1095C54.6206 52.3543 53.5073 51.9767 52.0359 51.9767C50.7469 51.9767 49.6661 52.3022 48.7938 52.9532C47.9214 53.6043 47.4852 54.392 47.4852 55.3165H43.8523C43.8523 54.2618 44.2234 53.2462 44.9656 52.2697C45.7208 51.2801 46.7365 50.4988 48.0125 49.9259C49.3016 49.353 50.7143 49.0665 52.2508 49.0665C54.6857 49.0665 56.5932 49.6785 57.9734 50.9025C59.3536 52.1134 60.0698 53.7866 60.1219 55.922V65.6486C60.1219 67.5887 60.3693 69.1316 60.8641 70.2775V70.59H57.075ZM51.0789 67.8361C52.2117 67.8361 53.2859 67.5431 54.3016 66.9572C55.3172 66.3712 56.0529 65.6095 56.5086 64.672V60.3361H53.6766C49.2495 60.3361 47.0359 61.6316 47.0359 64.2228C47.0359 65.3556 47.4135 66.241 48.1688 66.879C48.924 67.517 49.894 67.8361 51.0789 67.8361Z" fill="black"/>
<path d="M97.2383 70.59H93.6055V46.5079L86.3203 49.1837V45.9025L96.6719 42.0157H97.2383V70.59ZM125.657 70.59H107.024V67.9923L116.868 57.0548C118.326 55.4012 119.329 54.06 119.876 53.0314C120.436 51.9897 120.716 50.9155 120.716 49.8087C120.716 48.3243 120.266 47.1069 119.368 46.1564C118.47 45.2059 117.272 44.7306 115.774 44.7306C113.977 44.7306 112.578 45.2449 111.575 46.2736C110.585 47.2892 110.091 48.7085 110.091 50.5314H106.477C106.477 47.9142 107.317 45.7983 108.997 44.1837C110.69 42.5691 112.949 41.7618 115.774 41.7618C118.417 41.7618 120.507 42.4585 122.044 43.8517C123.58 45.2319 124.348 47.0743 124.348 49.379C124.348 52.1785 122.565 55.5118 118.997 59.379L111.38 67.6407H125.657V70.59ZM133.939 54.6134H136.654C138.36 54.5874 139.701 54.1381 140.677 53.2657C141.654 52.3934 142.142 51.215 142.142 49.7306C142.142 46.3973 140.482 44.7306 137.162 44.7306C135.599 44.7306 134.349 45.1798 133.412 46.0782C132.487 46.9637 132.025 48.142 132.025 49.6134H128.412C128.412 47.3608 129.232 45.4923 130.873 44.0079C132.526 42.5105 134.623 41.7618 137.162 41.7618C139.844 41.7618 141.947 42.4715 143.47 43.8907C144.994 45.31 145.755 47.2827 145.755 49.8087C145.755 51.0457 145.352 52.2436 144.545 53.4025C143.75 54.5613 142.663 55.4272 141.283 56.0001C142.845 56.4949 144.05 57.3152 144.896 58.4611C145.755 59.6069 146.185 61.0066 146.185 62.6603C146.185 65.2124 145.352 67.2371 143.685 68.7345C142.018 70.2319 139.851 70.9806 137.181 70.9806C134.512 70.9806 132.338 70.2579 130.658 68.8126C128.991 67.3673 128.158 65.4598 128.158 63.09H131.791C131.791 64.5874 132.279 65.7853 133.255 66.6837C134.232 67.5822 135.541 68.0314 137.181 68.0314C138.926 68.0314 140.261 67.5756 141.185 66.6642C142.11 65.7527 142.572 64.4441 142.572 62.7384C142.572 61.0848 142.064 59.8152 141.048 58.9298C140.033 58.0444 138.568 57.5887 136.654 57.5626H133.939V54.6134Z" fill="black"/>
<path d="M20.0312 96.2208H18.0859V99.59H17.0664V91.1349H19.9023C21.5781 91.1349 22.627 92.1075 22.627 93.6779C22.627 94.7853 22.0117 95.6935 21.0508 96.0099L22.7734 99.59H21.6074L20.0312 96.2208ZM18.0859 92.0548V95.3478H19.7617C20.9277 95.3478 21.584 94.756 21.584 93.7013C21.584 92.6525 20.9395 92.0548 19.8086 92.0548H18.0859ZM27.127 99.7072C25.4453 99.7072 24.373 98.6115 24.373 96.8947V95.9337C24.373 94.2169 25.4453 93.1212 27.127 93.1212C28.8086 93.1212 29.8809 94.2169 29.8809 95.9337V96.8947C29.8809 98.6115 28.8086 99.7072 27.127 99.7072ZM27.127 94.0001C26.0371 94.0001 25.3574 94.7736 25.3574 96.0216V96.8009C25.3574 98.0548 26.0371 98.8224 27.127 98.8224C28.2168 98.8224 28.8965 98.0548 28.8965 96.8009V96.0216C28.8965 94.7736 28.2168 94.0001 27.127 94.0001ZM34.9434 99.6954C34.0352 99.6954 33.3672 99.3204 33.0391 98.6173H32.9277V99.59H31.9492V90.7365H32.9629V94.2169H33.0684C33.3496 93.5197 34.0234 93.1271 34.9434 93.1271C36.4141 93.1271 37.375 94.1876 37.375 95.8165V97.0001C37.375 98.6349 36.4141 99.6954 34.9434 99.6954ZM34.6504 98.7872C35.7051 98.7872 36.373 98.0314 36.373 96.8595V95.9454C36.373 94.7736 35.7051 94.0236 34.6504 94.0236C33.6074 94.0236 32.9395 94.7736 32.9395 95.9454V96.8595C32.9395 98.0372 33.6074 98.7872 34.6504 98.7872ZM41.9629 99.7072C40.2812 99.7072 39.209 98.6115 39.209 96.8947V95.9337C39.209 94.2169 40.2812 93.1212 41.9629 93.1212C43.6445 93.1212 44.7168 94.2169 44.7168 95.9337V96.8947C44.7168 98.6115 43.6445 99.7072 41.9629 99.7072ZM41.9629 94.0001C40.873 94.0001 40.1934 94.7736 40.1934 96.0216V96.8009C40.1934 98.0548 40.873 98.8224 41.9629 98.8224C43.0527 98.8224 43.7324 98.0548 43.7324 96.8009V96.0216C43.7324 94.7736 43.0527 94.0001 41.9629 94.0001ZM48.2969 91.5275H49.2812V93.2501H51.8594V94.0997H49.293V97.6857C49.293 98.3771 49.7793 98.7521 50.6758 98.7521C51.0332 98.7521 51.6719 98.7345 51.8418 98.7169V99.5607C51.6836 99.59 50.9102 99.6193 50.6055 99.6193C49.0293 99.6193 48.2969 99.0216 48.2969 97.6974V94.0997H46.6035V93.2501H48.2969V91.5275ZM56.7988 99.7072C55.1172 99.7072 54.0449 98.6115 54.0449 96.8947V95.9337C54.0449 94.2169 55.1172 93.1212 56.7988 93.1212C58.4805 93.1212 59.5527 94.2169 59.5527 95.9337V96.8947C59.5527 98.6115 58.4805 99.7072 56.7988 99.7072ZM56.7988 94.0001C55.709 94.0001 55.0293 94.7736 55.0293 96.0216V96.8009C55.0293 98.0548 55.709 98.8224 56.7988 98.8224C57.8887 98.8224 58.5684 98.0548 58.5684 96.8009V96.0216C58.5684 94.7736 57.8887 94.0001 56.7988 94.0001Z" fill="black"/>
<path d="M16.4043 115.59L19.5215 107.135H20.3301V108.5H19.9961L17.5117 115.59H16.4043ZM17.8164 113.17L18.1445 112.274H21.9648L22.293 113.17H17.8164ZM22.5742 115.59L20.0898 108.5V107.135H20.5645L23.6816 115.59H22.5742ZM25.0352 115.59V109.274H26.0547V110.223H26.1484C26.3086 109.887 26.5391 109.627 26.8398 109.443C27.1406 109.256 27.5234 109.162 27.9883 109.162C28.6992 109.162 29.2441 109.365 29.623 109.772C30.0059 110.174 30.1973 110.75 30.1973 111.5V115.59H29.1777V111.746C29.1777 111.176 29.0566 110.754 28.8145 110.481C28.5762 110.203 28.2051 110.065 27.7012 110.065C27.3652 110.065 27.0742 110.137 26.8281 110.281C26.582 110.426 26.3906 110.631 26.2539 110.897C26.1211 111.162 26.0547 111.481 26.0547 111.852V115.59H25.0352ZM34.375 115.701C33.8438 115.701 33.3789 115.567 32.9805 115.297C32.582 115.027 32.2734 114.649 32.0547 114.16C31.8359 113.668 31.7266 113.094 31.7266 112.438V112.426C31.7266 111.766 31.8359 111.192 32.0547 110.703C32.2734 110.215 32.5801 109.836 32.9746 109.567C33.373 109.297 33.8398 109.162 34.375 109.162C34.8086 109.162 35.2012 109.264 35.5527 109.467C35.9082 109.666 36.1719 109.934 36.3438 110.27H36.4375V106.766H37.457V115.59H36.4375V114.582H36.3438C36.1523 114.934 35.8867 115.209 35.5469 115.408C35.207 115.604 34.8164 115.701 34.375 115.701ZM34.6094 114.799C34.9922 114.799 35.3223 114.703 35.5996 114.512C35.877 114.32 36.0898 114.049 36.2383 113.697C36.3867 113.342 36.4609 112.922 36.4609 112.438V112.426C36.4609 111.938 36.3867 111.518 36.2383 111.166C36.0898 110.815 35.877 110.543 35.5996 110.352C35.3223 110.16 34.9922 110.065 34.6094 110.065C34.2266 110.065 33.8965 110.16 33.6191 110.352C33.3457 110.539 33.1348 110.809 32.9863 111.16C32.8418 111.512 32.7695 111.934 32.7695 112.426V112.438C32.7695 112.926 32.8418 113.348 32.9863 113.703C33.1348 114.055 33.3457 114.326 33.6191 114.518C33.8965 114.705 34.2266 114.799 34.6094 114.799ZM39.4141 115.59V109.274H40.4336V110.211H40.5273C40.6484 109.879 40.8535 109.621 41.1426 109.438C41.4316 109.254 41.7891 109.162 42.2148 109.162C42.3125 109.162 42.4082 109.168 42.502 109.18C42.5996 109.188 42.6738 109.195 42.7246 109.203V110.193C42.6191 110.174 42.5156 110.16 42.4141 110.152C42.3164 110.141 42.2109 110.135 42.0977 110.135C41.7734 110.135 41.4863 110.199 41.2363 110.328C40.9863 110.457 40.7891 110.637 40.6445 110.867C40.5039 111.098 40.4336 111.367 40.4336 111.676V115.59H39.4141ZM46.4043 115.701C45.8066 115.701 45.2891 115.57 44.8516 115.309C44.418 115.043 44.082 114.666 43.8438 114.178C43.6094 113.69 43.4922 113.109 43.4922 112.438V112.426C43.4922 111.75 43.6094 111.168 43.8438 110.68C44.082 110.192 44.418 109.817 44.8516 109.555C45.2891 109.293 45.8066 109.162 46.4043 109.162C47.0059 109.162 47.5234 109.293 47.957 109.555C48.3906 109.817 48.7246 110.192 48.959 110.68C49.1973 111.168 49.3164 111.75 49.3164 112.426V112.438C49.3164 113.109 49.1973 113.69 48.959 114.178C48.7246 114.666 48.3906 115.043 47.957 115.309C47.5234 115.57 47.0059 115.701 46.4043 115.701ZM46.4043 114.799C46.8027 114.799 47.1406 114.705 47.418 114.518C47.6953 114.33 47.9062 114.061 48.0508 113.709C48.1992 113.358 48.2734 112.934 48.2734 112.438V112.426C48.2734 111.926 48.1992 111.5 48.0508 111.149C47.9062 110.797 47.6953 110.529 47.418 110.346C47.1406 110.158 46.8027 110.065 46.4043 110.065C46.0059 110.065 45.668 110.158 45.3906 110.346C45.1133 110.529 44.9004 110.797 44.752 111.149C44.6074 111.5 44.5352 111.926 44.5352 112.426V112.438C44.5352 112.934 44.6074 113.358 44.752 113.709C44.9004 114.061 45.1133 114.33 45.3906 114.518C45.668 114.705 46.0059 114.799 46.4043 114.799ZM50.9219 115.59V109.274H51.9414V115.59H50.9219ZM51.4375 108.055C51.2461 108.055 51.0801 107.986 50.9395 107.85C50.8027 107.709 50.7344 107.543 50.7344 107.352C50.7344 107.156 50.8027 106.99 50.9395 106.854C51.0801 106.717 51.2461 106.649 51.4375 106.649C51.6328 106.649 51.7988 106.717 51.9355 106.854C52.0723 106.99 52.1406 107.156 52.1406 107.352C52.1406 107.543 52.0723 107.709 51.9355 107.85C51.7988 107.986 51.6328 108.055 51.4375 108.055ZM56.1953 115.701C55.6641 115.701 55.1992 115.567 54.8008 115.297C54.4023 115.027 54.0938 114.649 53.875 114.16C53.6562 113.668 53.5469 113.094 53.5469 112.438V112.426C53.5469 111.766 53.6562 111.192 53.875 110.703C54.0938 110.215 54.4004 109.836 54.7949 109.567C55.1934 109.297 55.6602 109.162 56.1953 109.162C56.6289 109.162 57.0215 109.264 57.373 109.467C57.7285 109.666 57.9922 109.934 58.1641 110.27H58.2578V106.766H59.2773V115.59H58.2578V114.582H58.1641C57.9727 114.934 57.707 115.209 57.3672 115.408C57.0273 115.604 56.6367 115.701 56.1953 115.701ZM56.4297 114.799C56.8125 114.799 57.1426 114.703 57.4199 114.512C57.6973 114.32 57.9102 114.049 58.0586 113.697C58.207 113.342 58.2812 112.922 58.2812 112.438V112.426C58.2812 111.938 58.207 111.518 58.0586 111.166C57.9102 110.815 57.6973 110.543 57.4199 110.352C57.1426 110.16 56.8125 110.065 56.4297 110.065C56.0469 110.065 55.7168 110.16 55.4395 110.352C55.166 110.539 54.9551 110.809 54.8066 111.16C54.6621 111.512 54.5898 111.934 54.5898 112.426V112.438C54.5898 112.926 54.6621 113.348 54.8066 113.703C54.9551 114.055 55.166 114.326 55.4395 114.518C55.7168 114.705 56.0469 114.799 56.4297 114.799Z" fill="#222222" fill-opacity="0.5"/>
</svg>
