<svg viewBox="0 0 165 136" fill="none" xmlns="http://www.w3.org/2000/svg">
<rect y="0.589966" width="165" height="135" rx="14" fill="#F9F9F9"/>
<rect x="0.5" y="1.08997" width="164" height="134" rx="13.5" stroke="black" stroke-opacity="0.1"/>
<path d="M16.6055 73.59L27.2891 45.5822H31.0781L41.7812 73.59H37.8359L35.1016 66.2462H23.1484L20.5508 73.59H16.6055ZM24.2617 63.1212H33.9883L29.5938 51.0704C29.5026 50.8621 29.4245 50.6017 29.3594 50.2892C29.2943 49.9767 29.2227 49.6056 29.1445 49.1759H29.0664C29.0013 49.5665 28.9297 49.9181 28.8516 50.2306C28.7865 50.5431 28.7083 50.8165 28.6172 51.0509L24.2617 63.1212ZM59.7313 73.59H56.2742V70.3673H56.1961C55.493 71.5913 54.6206 72.5157 53.5789 73.1407C52.5372 73.7657 51.3263 74.0782 49.9461 74.0782C48.019 74.0782 46.463 73.5184 45.2781 72.3986C44.0932 71.2788 43.5008 69.8009 43.5008 67.965C43.5008 66.1811 44.0997 64.7163 45.2977 63.5704C46.4956 62.4246 48.2208 61.6889 50.4734 61.3634L56.2938 60.5822V60.1134C56.2938 58.4598 55.8966 57.2684 55.1023 56.5392C54.3211 55.81 53.2664 55.4454 51.9383 55.4454C50.8836 55.4454 49.8549 55.6473 48.8523 56.0509C47.8497 56.4545 46.8992 57.06 46.0008 57.8673L44.1063 55.7579C45.2651 54.6902 46.5021 53.9025 47.8172 53.3947C49.1453 52.8738 50.5971 52.6134 52.1727 52.6134C54.6727 52.6134 56.5542 53.2579 57.8172 54.547C59.0932 55.8361 59.7313 57.7697 59.7313 60.3478V73.59ZM56.2938 65.2306V63.2579L51.4109 63.922C49.9135 64.1303 48.7938 64.5079 48.0516 65.0548C47.3094 65.6017 46.9383 66.4611 46.9383 67.6329C46.9383 68.7918 47.2833 69.6902 47.9734 70.3282C48.6766 70.9663 49.549 71.2853 50.5906 71.2853C52.3094 71.2853 53.6896 70.7189 54.7313 69.5861C55.7729 68.4402 56.2938 66.9884 56.2938 65.2306Z" fill="black"/>
<path d="M93.3594 73.59H89.8828V49.8595C89.375 50.2892 88.5221 50.7905 87.3242 51.3634C86.1263 51.9233 85.0456 52.3269 84.082 52.5743L83.1055 49.5665C84.6289 49.1629 86.2305 48.5249 87.9102 47.6525C89.5898 46.767 90.918 45.8686 91.8945 44.9572H93.3594V73.59ZM100.137 73.59V72.1251C100.137 70.9142 100.281 69.84 100.567 68.9025C100.854 67.965 101.303 67.0861 101.915 66.2657C102.514 65.4324 103.295 64.6121 104.259 63.8048C105.222 62.9975 106.381 62.0991 107.735 61.1095C108.725 60.4064 109.558 59.7293 110.235 59.0782C110.912 58.4272 111.459 57.7762 111.876 57.1251C112.253 56.5782 112.54 55.9532 112.735 55.2501C112.943 54.547 113.048 53.8178 113.048 53.0626C113.048 51.5782 112.618 50.3673 111.759 49.4298C110.899 48.4923 109.714 48.0236 108.204 48.0236C106.993 48.0236 105.834 48.271 104.727 48.7657C103.634 49.2475 102.611 49.9832 101.661 50.9728L99.5516 48.922C100.802 47.6329 102.149 46.6759 103.595 46.0509C105.053 45.4259 106.674 45.1134 108.458 45.1134C111.088 45.1134 113.1 45.8816 114.493 47.4181C115.886 48.9415 116.583 50.7124 116.583 52.7306C116.583 53.8243 116.433 54.853 116.134 55.8165C115.847 56.767 115.45 57.6199 114.942 58.3751C114.408 59.1824 113.757 59.9572 112.989 60.6993C112.221 61.4285 111.322 62.1707 110.294 62.9259C109.044 63.7983 108.002 64.547 107.169 65.172C106.348 65.797 105.691 66.3829 105.196 66.9298C104.701 67.5027 104.343 68.0691 104.122 68.629C103.914 69.1759 103.809 69.8009 103.809 70.504H117.559V73.59H100.137ZM121.115 71.6759L122.736 69.1954C123.752 69.8725 124.774 70.3673 125.802 70.6798C126.831 70.9923 127.892 71.1486 128.986 71.1486C131.017 71.1486 132.534 70.6668 133.537 69.7032C134.552 68.7397 135.06 67.5157 135.06 66.0314C135.06 64.1824 134.416 62.8087 133.127 61.9103C131.851 61.0118 129.943 60.5626 127.404 60.5626H125.08V57.672H127.267C129.533 57.672 131.232 57.2553 132.365 56.422C133.498 55.5887 134.064 54.2736 134.064 52.4767C134.064 51.0314 133.621 49.9311 132.736 49.1759C131.864 48.4077 130.802 48.0236 129.552 48.0236C128.511 48.0236 127.502 48.1928 126.525 48.5314C125.561 48.8699 124.611 49.3907 123.673 50.0939L121.916 47.7697C123.101 46.8582 124.331 46.1876 125.607 45.7579C126.883 45.3282 128.276 45.1134 129.787 45.1134C132.143 45.1134 134.038 45.7384 135.47 46.9884C136.903 48.2254 137.619 49.9116 137.619 52.047C137.619 53.7137 137.157 55.146 136.232 56.3439C135.321 57.5288 133.947 58.3816 132.111 58.9025V58.9806C133.986 59.2019 135.535 59.9116 136.759 61.1095C137.996 62.2944 138.615 63.8504 138.615 65.7775C138.615 68.3426 137.749 70.3673 136.017 71.8517C134.298 73.3361 132.052 74.0782 129.279 74.0782C127.703 74.0782 126.265 73.8894 124.963 73.5118C123.673 73.1212 122.391 72.5092 121.115 71.6759Z" fill="black"/>
<path d="M16.8145 97.34H17.8223C17.9277 98.2657 18.6719 98.8282 19.7969 98.8282C20.9219 98.8282 21.6602 98.2423 21.6602 97.3341C21.6602 96.6017 21.168 96.1622 20.0254 95.881L19.2988 95.6993C17.7285 95.3009 17.0195 94.5568 17.0195 93.3322C17.0195 91.8907 18.1035 90.9591 19.791 90.9591C21.3848 90.9591 22.4805 91.879 22.5508 93.2853H21.543C21.4375 92.4122 20.793 91.8966 19.7969 91.8966C18.7129 91.8966 18.0625 92.4122 18.0625 93.2736C18.0625 94.006 18.5312 94.4279 19.6328 94.7032L20.3711 94.8907C22.0117 95.295 22.7031 96.0099 22.7031 97.2814C22.7031 98.799 21.5605 99.7657 19.791 99.7657C18.0449 99.7657 16.9023 98.84 16.8145 97.34ZM28.8438 97.9493H29.8105C29.6172 98.9982 28.6094 99.7072 27.2734 99.7072C25.5273 99.7072 24.5137 98.6583 24.5137 96.8478V95.8927C24.5137 94.2169 25.5859 93.1154 27.2031 93.1154C28.8555 93.1154 29.8281 94.2111 29.8281 96.0509V96.672H25.498V96.9298C25.498 98.0958 26.1895 98.8458 27.2734 98.8458C28.0762 98.8458 28.668 98.506 28.8438 97.9493ZM27.1973 93.9708C26.1367 93.9708 25.498 94.6974 25.498 95.9161H28.8438C28.8438 94.7032 28.2227 93.9708 27.1973 93.9708ZM34.3574 101.975C32.8867 101.975 31.9023 101.33 31.7734 100.276H32.7578C32.8867 100.803 33.5254 101.149 34.375 101.149C35.4883 101.149 36.1035 100.586 36.1035 99.5665V98.5763H35.998C35.7168 99.2443 35.0137 99.6486 34.0879 99.6486C32.6172 99.6486 31.6504 98.588 31.6504 96.9591V95.8165C31.6504 94.1818 32.623 93.1271 34.1113 93.1271C35.0312 93.1271 35.7285 93.5314 36.0039 94.2169H36.1152V93.2325H37.0996V99.59C37.0996 101.084 36.0801 101.975 34.3574 101.975ZM32.6523 96.8185C32.6523 97.9845 33.332 98.7462 34.3867 98.7462C35.4355 98.7462 36.1094 97.9904 36.1094 96.8185V95.9454C36.1094 94.7736 35.4355 94.0236 34.3867 94.0236C33.332 94.0236 32.6523 94.7794 32.6523 95.9454V96.8185ZM41.9629 99.7072C40.2812 99.7072 39.209 98.6115 39.209 96.8947V95.9337C39.209 94.2169 40.2812 93.1212 41.9629 93.1212C43.6445 93.1212 44.7168 94.2169 44.7168 95.9337V96.8947C44.7168 98.6115 43.6445 99.7072 41.9629 99.7072ZM41.9629 94.0001C40.873 94.0001 40.1934 94.7736 40.1934 96.0216V96.8009C40.1934 98.0548 40.873 98.8224 41.9629 98.8224C43.0527 98.8224 43.7324 98.0548 43.7324 96.8009V96.0216C43.7324 94.7736 43.0527 94.0001 41.9629 94.0001ZM51.0977 97.9493H52.0645C51.8711 98.9982 50.8633 99.7072 49.5273 99.7072C47.7812 99.7072 46.7676 98.6583 46.7676 96.8478V95.8927C46.7676 94.2169 47.8398 93.1154 49.457 93.1154C51.1094 93.1154 52.082 94.2111 52.082 96.0509V96.672H47.752V96.9298C47.752 98.0958 48.4434 98.8458 49.5273 98.8458C50.3301 98.8458 50.9219 98.506 51.0977 97.9493ZM49.4512 93.9708C48.3906 93.9708 47.752 94.6974 47.752 95.9161H51.0977C51.0977 94.7032 50.4766 93.9708 49.4512 93.9708ZM64.2168 98.7872C65.4473 98.7872 66.1621 97.9786 66.1621 96.59V91.1349H67.1934V96.6544C67.1934 98.5997 66.0801 99.7657 64.2168 99.7657C62.3535 99.7657 61.2402 98.5997 61.2402 96.6544V91.1349H62.2715V96.59C62.2715 97.9786 62.9863 98.7872 64.2168 98.7872ZM73.8613 99.59H69.4082V98.67H71.1191V92.0548H69.4082V91.1349H73.8613V92.0548H72.1504V98.67H73.8613V99.59Z" fill="black"/>
<path d="M18.8301 115.59L16.5273 107.135H17.6289L19.3105 114.008H19.3809L21.2734 107.135H22.3398L24.2324 114.008H24.3027L25.9844 107.135H27.0859L24.7832 115.59H23.7871L21.8418 108.916H21.7715L19.8262 115.59H18.8301ZM28.5859 115.59V109.274H29.6055V115.59H28.5859ZM29.1016 108.055C28.9102 108.055 28.7441 107.986 28.6035 107.85C28.4668 107.709 28.3984 107.543 28.3984 107.352C28.3984 107.156 28.4668 106.99 28.6035 106.854C28.7441 106.717 28.9102 106.649 29.1016 106.649C29.2969 106.649 29.4629 106.717 29.5996 106.854C29.7363 106.99 29.8047 107.156 29.8047 107.352C29.8047 107.543 29.7363 107.709 29.5996 107.85C29.4629 107.986 29.2969 108.055 29.1016 108.055ZM31.5273 115.59V109.274H32.5469V110.223H32.6406C32.8008 109.887 33.0312 109.627 33.332 109.443C33.6328 109.256 34.0156 109.162 34.4805 109.162C35.1914 109.162 35.7363 109.365 36.1152 109.772C36.498 110.174 36.6895 110.75 36.6895 111.5V115.59H35.6699V111.746C35.6699 111.176 35.5488 110.754 35.3066 110.481C35.0684 110.203 34.6973 110.065 34.1934 110.065C33.8574 110.065 33.5664 110.137 33.3203 110.281C33.0742 110.426 32.8828 110.631 32.7461 110.897C32.6133 111.162 32.5469 111.481 32.5469 111.852V115.59H31.5273ZM40.8672 115.701C40.3359 115.701 39.8711 115.567 39.4727 115.297C39.0742 115.027 38.7656 114.649 38.5469 114.16C38.3281 113.668 38.2188 113.094 38.2188 112.438V112.426C38.2188 111.766 38.3281 111.192 38.5469 110.703C38.7656 110.215 39.0723 109.836 39.4668 109.567C39.8652 109.297 40.332 109.162 40.8672 109.162C41.3008 109.162 41.6934 109.264 42.0449 109.467C42.4004 109.666 42.6641 109.934 42.8359 110.27H42.9297V106.766H43.9492V115.59H42.9297V114.582H42.8359C42.6445 114.934 42.3789 115.209 42.0391 115.408C41.6992 115.604 41.3086 115.701 40.8672 115.701ZM41.1016 114.799C41.4844 114.799 41.8145 114.703 42.0918 114.512C42.3691 114.32 42.582 114.049 42.7305 113.697C42.8789 113.342 42.9531 112.922 42.9531 112.438V112.426C42.9531 111.938 42.8789 111.518 42.7305 111.166C42.582 110.815 42.3691 110.543 42.0918 110.352C41.8145 110.16 41.4844 110.065 41.1016 110.065C40.7188 110.065 40.3887 110.16 40.1113 110.352C39.8379 110.539 39.627 110.809 39.4785 111.16C39.334 111.512 39.2617 111.934 39.2617 112.426V112.438C39.2617 112.926 39.334 113.348 39.4785 113.703C39.627 114.055 39.8379 114.326 40.1113 114.518C40.3887 114.705 40.7188 114.799 41.1016 114.799ZM48.502 115.701C47.9043 115.701 47.3867 115.57 46.9492 115.309C46.5156 115.043 46.1797 114.666 45.9414 114.178C45.707 113.69 45.5898 113.109 45.5898 112.438V112.426C45.5898 111.75 45.707 111.168 45.9414 110.68C46.1797 110.192 46.5156 109.817 46.9492 109.555C47.3867 109.293 47.9043 109.162 48.502 109.162C49.1035 109.162 49.6211 109.293 50.0547 109.555C50.4883 109.817 50.8223 110.192 51.0566 110.68C51.2949 111.168 51.4141 111.75 51.4141 112.426V112.438C51.4141 113.109 51.2949 113.69 51.0566 114.178C50.8223 114.666 50.4883 115.043 50.0547 115.309C49.6211 115.57 49.1035 115.701 48.502 115.701ZM48.502 114.799C48.9004 114.799 49.2383 114.705 49.5156 114.518C49.793 114.33 50.0039 114.061 50.1484 113.709C50.2969 113.358 50.3711 112.934 50.3711 112.438V112.426C50.3711 111.926 50.2969 111.5 50.1484 111.149C50.0039 110.797 49.793 110.529 49.5156 110.346C49.2383 110.158 48.9004 110.065 48.502 110.065C48.1035 110.065 47.7656 110.158 47.4883 110.346C47.2109 110.529 46.998 110.797 46.8496 111.149C46.7051 111.5 46.6328 111.926 46.6328 112.426V112.438C46.6328 112.934 46.7051 113.358 46.8496 113.709C46.998 114.061 47.2109 114.33 47.4883 114.518C47.7656 114.705 48.1035 114.799 48.502 114.799ZM53.9805 115.59L52.2109 109.274H53.2305L54.4727 114.324H54.5664L55.9785 109.274H56.9453L58.3574 114.324H58.4512L59.6934 109.274H60.707L58.9375 115.59H57.9121L56.5 110.703H56.4062L55 115.59H53.9805ZM64.0469 115.701C63.5781 115.701 63.1641 115.631 62.8047 115.49C62.4453 115.346 62.1562 115.145 61.9375 114.887C61.7227 114.629 61.5957 114.326 61.5566 113.979H62.5996C62.6855 114.24 62.8535 114.451 63.1035 114.611C63.3535 114.772 63.6797 114.852 64.082 114.852C64.3672 114.852 64.6172 114.811 64.832 114.729C65.0508 114.643 65.2227 114.527 65.3477 114.383C65.4727 114.234 65.5352 114.065 65.5352 113.873V113.861C65.5352 113.647 65.4492 113.465 65.2773 113.317C65.1055 113.164 64.8242 113.041 64.4336 112.947L63.4551 112.713C62.8652 112.572 62.4316 112.367 62.1543 112.098C61.877 111.824 61.7383 111.461 61.7383 111.008V111.002C61.7383 110.651 61.8398 110.336 62.043 110.059C62.25 109.781 62.5312 109.563 62.8867 109.402C63.2422 109.242 63.6426 109.162 64.0879 109.162C64.5293 109.162 64.9199 109.233 65.2598 109.373C65.6035 109.51 65.8789 109.705 66.0859 109.959C66.2969 110.213 66.4258 110.512 66.4727 110.856H65.4707C65.4043 110.606 65.252 110.402 65.0137 110.246C64.7754 110.09 64.4648 110.012 64.082 110.012C63.832 110.012 63.6094 110.053 63.4141 110.135C63.2188 110.213 63.0645 110.322 62.9512 110.463C62.8379 110.604 62.7812 110.768 62.7812 110.955V110.967C62.7812 111.182 62.8652 111.359 63.0332 111.5C63.2012 111.641 63.4707 111.756 63.8418 111.846L64.8145 112.08C65.4082 112.225 65.8496 112.432 66.1387 112.701C66.4316 112.971 66.5781 113.332 66.5781 113.785V113.797C66.5781 114.172 66.4668 114.504 66.2441 114.793C66.0215 115.078 65.7188 115.301 65.3359 115.461C64.957 115.621 64.5273 115.701 64.0469 115.701Z" fill="#222222" fill-opacity="0.5"/>
</svg>
