<svg viewBox="0 0 130 125" fill="none" xmlns="http://www.w3.org/2000/svg">
<rect y="0.589966" width="130" height="124" rx="14" fill="#F9F9F9"/>
<rect x="0.5" y="1.08997" width="129" height="123" rx="13.5" stroke="black" stroke-opacity="0.1"/>
<path d="M16.4043 74.59L19.5215 66.1349H20.3301V67.5001H19.9961L17.5117 74.59H16.4043ZM17.8164 72.17L18.1445 71.2736H21.9648L22.293 72.17H17.8164ZM22.5742 74.59L20.0898 67.5001V66.1349H20.5645L23.6816 74.59H22.5742ZM26.7109 74.7013C26.3125 74.7013 25.9531 74.6251 25.6328 74.4728C25.3164 74.3204 25.0645 74.1036 24.877 73.8224C24.6934 73.5411 24.6016 73.2091 24.6016 72.8263V72.8146C24.6016 72.2521 24.8008 71.8126 25.1992 71.4962C25.6016 71.1759 26.1699 70.9943 26.9043 70.9513L29.2246 70.8107V71.6251L27.0273 71.7657C26.5469 71.7931 26.1953 71.8927 25.9727 72.0646C25.7539 72.2365 25.6445 72.4786 25.6445 72.7911V72.8029C25.6445 73.1232 25.7656 73.3732 26.0078 73.5529C26.25 73.7286 26.5547 73.8165 26.9219 73.8165C27.2695 73.8165 27.5781 73.7482 27.8477 73.6115C28.1172 73.4708 28.3281 73.2814 28.4805 73.0431C28.6367 72.8048 28.7148 72.5353 28.7148 72.2345V70.2657C28.7148 69.8751 28.5957 69.5782 28.3574 69.3751C28.123 69.1681 27.7695 69.0646 27.2969 69.0646C26.918 69.0646 26.6074 69.1329 26.3652 69.2697C26.123 69.4025 25.9609 69.5919 25.8789 69.838L25.873 69.8556H24.8535L24.8594 69.8204C24.9141 69.4884 25.0508 69.1993 25.2695 68.9532C25.4922 68.7032 25.7793 68.5099 26.1309 68.3732C26.4824 68.2325 26.8828 68.1622 27.332 68.1622C27.8477 68.1622 28.2832 68.2462 28.6387 68.4142C28.998 68.5822 29.2695 68.8243 29.4531 69.1407C29.6406 69.4532 29.7344 69.8282 29.7344 70.2657V74.59H28.7148V73.6583H28.6211C28.4883 73.881 28.3262 74.0704 28.1348 74.2267C27.9473 74.3829 27.7344 74.5021 27.4961 74.5841C27.2578 74.6622 26.9961 74.7013 26.7109 74.7013Z" fill="black"/>
<path d="M22.9023 105.59H17.0078V104.682H19.5039V98.3068H19.4102L16.9902 99.8712V98.7697L19.5098 97.1349H20.5234V104.682H22.9023V105.59ZM27.127 105.625C26.5469 105.625 26.0664 105.139 26.0664 104.541C26.0664 103.949 26.5469 103.463 27.127 103.463C27.707 103.463 28.1875 103.949 28.1875 104.541C28.1875 105.139 27.707 105.625 27.127 105.625ZM31.8496 99.5138C31.8496 98.0255 32.9512 96.9591 34.4922 96.9591C36.0449 96.9591 37.1113 97.92 37.1113 99.3322C37.1113 100.211 36.7129 100.914 35.3652 102.385L33.373 104.553V104.652H37.2461V105.59H31.8965V104.875L34.7559 101.693C35.8281 100.492 36.0859 100.041 36.0859 99.3732C36.0859 98.465 35.4473 97.8673 34.4629 97.8673C33.4902 97.8673 32.8457 98.5177 32.8457 99.5138V99.549H31.8496V99.5138ZM41.7109 102.742V104.793H43.6797V105.59H39.4551V104.793H40.7383V100.029H39.3262V99.2325H41.6992V100.856H41.8281C42.0625 99.6779 42.8535 99.0685 44.0781 99.0685C44.4414 99.0685 44.7871 99.1212 44.998 99.2091V100.328C44.7051 100.223 44.2949 100.152 43.9492 100.152C42.543 100.152 41.7109 101.125 41.7109 102.742ZM51.0977 103.949H52.0645C51.8711 104.998 50.8633 105.707 49.5273 105.707C47.7812 105.707 46.7676 104.658 46.7676 102.848V101.893C46.7676 100.217 47.8398 99.1154 49.457 99.1154C51.1094 99.1154 52.082 100.211 52.082 102.051V102.672H47.752V102.93C47.752 104.096 48.4434 104.846 49.5273 104.846C50.3301 104.846 50.9219 104.506 51.0977 103.949ZM49.4512 99.9708C48.3906 99.9708 47.752 100.697 47.752 101.916H51.0977C51.0977 100.703 50.4766 99.9708 49.4512 99.9708ZM59.8633 100.908V105.59H58.9668V101.201C58.9668 100.428 58.6855 100.024 58.1523 100.024C57.5957 100.024 57.2559 100.51 57.2559 101.301V105.59H56.3652V101.195C56.3652 100.428 56.084 100.024 55.5449 100.024C54.9824 100.024 54.6309 100.51 54.6309 101.301V105.59H53.7344V99.2325H54.625V100.129H54.7305C54.8887 99.4904 55.3457 99.1154 55.9434 99.1154C56.541 99.1154 56.9629 99.4845 57.0977 100.111H57.2031C57.3672 99.5021 57.877 99.1154 58.5156 99.1154C59.4004 99.1154 59.8633 99.7306 59.8633 100.908Z" fill="black"/>
<path d="M70.3574 101.359C70.3574 99.3732 70.9551 97.6447 72.1211 96.3204H73.1113C71.8984 98.0255 71.3887 99.5197 71.3887 101.359C71.3887 103.199 71.8984 104.693 73.1113 106.399H72.1211C70.9551 105.074 70.3574 103.352 70.3574 101.359ZM82.2461 105.59H76.3516V104.682H78.8477V98.3068H78.7539L76.334 99.8712V98.7697L78.8535 97.1349H79.8672V104.682H82.2461V105.59ZM83.7754 99.5138C83.7754 98.0255 84.877 96.9591 86.418 96.9591C87.9707 96.9591 89.0371 97.92 89.0371 99.3322C89.0371 100.211 88.6387 100.914 87.291 102.385L85.2988 104.553V104.652H89.1719V105.59H83.8223V104.875L86.6816 101.693C87.7539 100.492 88.0117 100.041 88.0117 99.3732C88.0117 98.465 87.373 97.8673 86.3887 97.8673C85.416 97.8673 84.7715 98.5177 84.7715 99.5138V99.549H83.7754V99.5138ZM94.2871 99.1271C95.7578 99.1271 96.7188 100.188 96.7188 101.822V103.006C96.7188 104.635 95.7578 105.695 94.2871 105.695C93.3672 105.695 92.6934 105.303 92.418 104.606H92.3066V107.734H91.293V99.2325H92.2773V100.205H92.3828C92.7168 99.5021 93.3789 99.1271 94.2871 99.1271ZM94 100.041C92.9512 100.041 92.2832 100.791 92.2832 101.963V102.877C92.2832 104.055 92.9512 104.805 94 104.805C95.0488 104.805 95.7168 104.049 95.7168 102.877V101.963C95.7168 100.791 95.0488 100.041 94 100.041ZM101.33 103.141H101.254L99.6484 105.59H98.5469L100.727 102.408L98.5293 99.2325H99.707L101.289 101.641H101.371L102.947 99.2325H104.066L101.893 102.367L104.084 105.59H102.93L101.33 103.141ZM110.002 101.359C110.002 103.352 109.404 105.074 108.238 106.399H107.248C108.461 104.693 108.971 103.199 108.971 101.359C108.971 99.5197 108.461 98.0255 107.248 96.3204H108.238C109.404 97.6447 110.002 99.3732 110.002 101.359Z" fill="#222222" fill-opacity="0.5"/>
</svg>
