<svg viewBox="0 0 130 125" fill="none" xmlns="http://www.w3.org/2000/svg">
<rect y="0.589966" width="130" height="124" rx="14" fill="#F9F9F9"/>
<rect x="0.5" y="1.08997" width="129" height="123" rx="13.5" stroke="black" stroke-opacity="0.1"/>
<path d="M16.5054 71.59L20.4019 61.0211H21.4126V62.7277H20.9951L17.8896 71.59H16.5054ZM18.2705 68.5651L18.6807 67.4445H23.4561L23.8662 68.5651H18.2705ZM24.2178 71.59L21.1123 62.7277V61.0211H21.7056L25.6021 71.59H24.2178ZM29.3887 71.7291C28.8906 71.7291 28.4414 71.6339 28.041 71.4435C27.6455 71.2531 27.3306 70.9821 27.0962 70.6305C26.8667 70.2789 26.752 69.8639 26.752 69.3854V69.3707C26.752 68.6676 27.001 68.1183 27.499 67.7228C28.002 67.3224 28.7124 67.0953 29.6304 67.0416L32.5308 66.8658V67.8839L29.7842 68.0597C29.1836 68.0939 28.7441 68.2184 28.4658 68.4332C28.1924 68.6481 28.0557 68.9508 28.0557 69.3414V69.3561C28.0557 69.7565 28.207 70.069 28.5098 70.2936C28.8125 70.5133 29.1934 70.6232 29.6523 70.6232C30.0869 70.6232 30.4727 70.5377 30.8096 70.3668C31.1465 70.191 31.4102 69.9542 31.6006 69.6564C31.7959 69.3585 31.8936 69.0216 31.8936 68.6456V66.1847C31.8936 65.6964 31.7446 65.3253 31.4468 65.0714C31.1538 64.8126 30.7119 64.6832 30.1211 64.6832C29.6475 64.6832 29.2593 64.7687 28.9565 64.9396C28.6538 65.1056 28.4512 65.3424 28.3486 65.65L28.3413 65.672H27.0669L27.0742 65.6281C27.1426 65.213 27.3135 64.8517 27.5869 64.5441C27.8652 64.2316 28.2241 63.9899 28.6636 63.819C29.103 63.6432 29.6035 63.5553 30.165 63.5553C30.8096 63.5553 31.354 63.6603 31.7983 63.8702C32.2476 64.0802 32.5869 64.3829 32.8164 64.7784C33.0508 65.1691 33.168 65.6378 33.168 66.1847V71.59H31.8936V70.4254H31.7764C31.6104 70.7037 31.4077 70.9406 31.1685 71.1359C30.9341 71.3312 30.668 71.4801 30.3701 71.5826C30.0723 71.6803 29.7451 71.7291 29.3887 71.7291Z" fill="black"/>
<path d="M22.9023 105.59H17.0078V104.682H19.5039V98.3068H19.4102L16.9902 99.8712V98.7697L19.5098 97.1349H20.5234V104.682H22.9023V105.59ZM27.127 105.625C26.5469 105.625 26.0664 105.139 26.0664 104.541C26.0664 103.949 26.5469 103.463 27.127 103.463C27.707 103.463 28.1875 103.949 28.1875 104.541C28.1875 105.139 27.707 105.625 27.127 105.625ZM34.4746 105.76C32.8984 105.76 31.7852 104.787 31.6973 103.334H32.6934C32.7871 104.219 33.543 104.828 34.5332 104.828C35.623 104.828 36.3496 104.061 36.3496 102.912C36.3496 101.752 35.6172 100.967 34.5332 100.967C33.7773 100.967 33.1504 101.313 32.8164 101.91H31.8379L32.2656 97.1349H36.8887V98.0665H33.0801L32.8457 100.826H32.9395C33.3555 100.322 33.959 100.059 34.7031 100.059C36.2676 100.059 37.3574 101.225 37.3574 102.889C37.3574 104.6 36.1914 105.76 34.4746 105.76ZM41.7109 102.742V104.793H43.6797V105.59H39.4551V104.793H40.7383V100.029H39.3262V99.2325H41.6992V100.856H41.8281C42.0625 99.6779 42.8535 99.0685 44.0781 99.0685C44.4414 99.0685 44.7871 99.1212 44.998 99.2091V100.328C44.7051 100.223 44.2949 100.152 43.9492 100.152C42.543 100.152 41.7109 101.125 41.7109 102.742ZM51.0977 103.949H52.0645C51.8711 104.998 50.8633 105.707 49.5273 105.707C47.7812 105.707 46.7676 104.658 46.7676 102.848V101.893C46.7676 100.217 47.8398 99.1154 49.457 99.1154C51.1094 99.1154 52.082 100.211 52.082 102.051V102.672H47.752V102.93C47.752 104.096 48.4434 104.846 49.5273 104.846C50.3301 104.846 50.9219 104.506 51.0977 103.949ZM49.4512 99.9708C48.3906 99.9708 47.752 100.697 47.752 101.916H51.0977C51.0977 100.703 50.4766 99.9708 49.4512 99.9708ZM59.8633 100.908V105.59H58.9668V101.201C58.9668 100.428 58.6855 100.024 58.1523 100.024C57.5957 100.024 57.2559 100.51 57.2559 101.301V105.59H56.3652V101.195C56.3652 100.428 56.084 100.024 55.5449 100.024C54.9824 100.024 54.6309 100.51 54.6309 101.301V105.59H53.7344V99.2325H54.625V100.129H54.7305C54.8887 99.4904 55.3457 99.1154 55.9434 99.1154C56.541 99.1154 56.9629 99.4845 57.0977 100.111H57.2031C57.3672 99.5021 57.877 99.1154 58.5156 99.1154C59.4004 99.1154 59.8633 99.7306 59.8633 100.908Z" fill="black"/>
<path d="M70.3574 101.359C70.3574 99.3732 70.9551 97.6447 72.1211 96.3204H73.1113C71.8984 98.0255 71.3887 99.5197 71.3887 101.359C71.3887 103.199 71.8984 104.693 73.1113 106.399H72.1211C70.9551 105.074 70.3574 103.352 70.3574 101.359ZM82.2461 105.59H76.3516V104.682H78.8477V98.3068H78.7539L76.334 99.8712V98.7697L78.8535 97.1349H79.8672V104.682H82.2461V105.59ZM86.4004 105.76C84.8242 105.76 83.7109 104.787 83.623 103.334H84.6191C84.7129 104.219 85.4688 104.828 86.459 104.828C87.5488 104.828 88.2754 104.061 88.2754 102.912C88.2754 101.752 87.543 100.967 86.459 100.967C85.7031 100.967 85.0762 101.313 84.7422 101.91H83.7637L84.1914 97.1349H88.8145V98.0665H85.0059L84.7715 100.826H84.8652C85.2812 100.322 85.8848 100.059 86.6289 100.059C88.1934 100.059 89.2832 101.225 89.2832 102.889C89.2832 104.6 88.1172 105.76 86.4004 105.76ZM94.2871 99.1271C95.7578 99.1271 96.7188 100.188 96.7188 101.822V103.006C96.7188 104.635 95.7578 105.695 94.2871 105.695C93.3672 105.695 92.6934 105.303 92.418 104.606H92.3066V107.734H91.293V99.2325H92.2773V100.205H92.3828C92.7168 99.5021 93.3789 99.1271 94.2871 99.1271ZM94 100.041C92.9512 100.041 92.2832 100.791 92.2832 101.963V102.877C92.2832 104.055 92.9512 104.805 94 104.805C95.0488 104.805 95.7168 104.049 95.7168 102.877V101.963C95.7168 100.791 95.0488 100.041 94 100.041ZM101.33 103.141H101.254L99.6484 105.59H98.5469L100.727 102.408L98.5293 99.2325H99.707L101.289 101.641H101.371L102.947 99.2325H104.066L101.893 102.367L104.084 105.59H102.93L101.33 103.141ZM110.002 101.359C110.002 103.352 109.404 105.074 108.238 106.399H107.248C108.461 104.693 108.971 103.199 108.971 101.359C108.971 99.5197 108.461 98.0255 107.248 96.3204H108.238C109.404 97.6447 110.002 99.3732 110.002 101.359Z" fill="#222222" fill-opacity="0.5"/>
</svg>
