<svg viewBox="0 0 132 125" fill="none" xmlns="http://www.w3.org/2000/svg">
<rect y="0.589966" width="132" height="124" rx="14" fill="#F9F9F9"/>
<rect x="0.5" y="1.08997" width="131" height="123" rx="13.5" stroke="black" stroke-opacity="0.1"/>
<path d="M16.603 70.59L21.5386 57.2028H22.8188V59.3458H22.2993L18.3564 70.59H16.603ZM18.8389 66.7584L19.3677 65.339H25.4072L25.9268 66.7584H18.8389ZM26.3813 70.59L22.4385 59.3458V57.2028H23.1899L28.1348 70.59H26.3813ZM32.8662 70.7662C32.2354 70.7662 31.6694 70.6456 31.1685 70.4044C30.6675 70.1632 30.2716 69.8199 29.981 69.3746C29.6903 68.9293 29.5449 68.4067 29.5449 67.8068V67.7882C29.5449 66.9038 29.8604 66.2111 30.4912 65.7101C31.1221 65.2029 32.0158 64.9153 33.1724 64.8473L36.8369 64.6246V65.9142L33.3672 66.1368C32.6188 66.1801 32.0684 66.3378 31.7158 66.61C31.3695 66.8821 31.1963 67.2625 31.1963 67.7511V67.7697C31.1963 68.2706 31.3849 68.6634 31.7622 68.9479C32.1457 69.2262 32.6281 69.3654 33.2095 69.3654C33.7537 69.3654 34.2362 69.2571 34.6567 69.0406C35.0835 68.818 35.4175 68.518 35.6587 68.1407C35.9061 67.7635 36.0298 67.3398 36.0298 66.8698V63.7711C36.0298 63.1588 35.8411 62.6888 35.4639 62.361C35.0928 62.0332 34.5361 61.8693 33.7939 61.8693C33.194 61.8693 32.7023 61.9806 32.3188 62.2032C31.9354 62.4197 31.6818 62.7259 31.5581 63.1217L31.5488 63.1495H29.9346L29.9438 63.0939C30.0304 62.5682 30.2469 62.1074 30.5933 61.7115C30.9396 61.3095 31.388 60.9972 31.9385 60.7745C32.4951 60.5519 33.1322 60.4406 33.8496 60.4406C34.6598 60.4406 35.3464 60.5735 35.9092 60.8395C36.4782 61.1054 36.908 61.4858 37.1987 61.9806C37.4956 62.4754 37.644 63.0691 37.644 63.7618V70.59H36.0298V69.1056H35.8906C35.6865 69.4581 35.4329 69.7612 35.1299 70.0148C34.8268 70.2622 34.4867 70.4508 34.1094 70.5807C33.7321 70.7044 33.3177 70.7662 32.8662 70.7662Z" fill="black"/>
<path d="M22.9023 105.59H17.0078V104.682H19.5039V98.3068H19.4102L16.9902 99.8712V98.7697L19.5098 97.1349H20.5234V104.682H22.9023V105.59ZM27.127 105.625C26.5469 105.625 26.0664 105.139 26.0664 104.541C26.0664 103.949 26.5469 103.463 27.127 103.463C27.707 103.463 28.1875 103.949 28.1875 104.541C28.1875 105.139 27.707 105.625 27.127 105.625ZM31.6562 99.8478C31.6562 98.172 32.8633 96.9591 34.5332 96.9591C36.2031 96.9591 37.4043 98.1603 37.4043 99.8478C37.4043 100.809 37.0645 101.705 36.2324 102.912C36.1562 103.041 34.4043 105.502 34.3398 105.59H33.1562L35.459 102.42C35.6523 102.156 35.6934 102.08 35.7461 101.986L35.6582 101.94C35.4062 102.279 34.8086 102.531 34.2754 102.531C32.7637 102.531 31.6562 101.395 31.6562 99.8478ZM34.5273 97.879C33.4668 97.879 32.6582 98.7111 32.6582 99.795C32.6582 100.885 33.4668 101.717 34.5273 101.717C35.5938 101.717 36.4023 100.885 36.4023 99.795C36.4023 98.7111 35.5938 97.879 34.5273 97.879ZM41.7109 102.742V104.793H43.6797V105.59H39.4551V104.793H40.7383V100.029H39.3262V99.2325H41.6992V100.856H41.8281C42.0625 99.6779 42.8535 99.0685 44.0781 99.0685C44.4414 99.0685 44.7871 99.1212 44.998 99.2091V100.328C44.7051 100.223 44.2949 100.152 43.9492 100.152C42.543 100.152 41.7109 101.125 41.7109 102.742ZM51.0977 103.949H52.0645C51.8711 104.998 50.8633 105.707 49.5273 105.707C47.7812 105.707 46.7676 104.658 46.7676 102.848V101.893C46.7676 100.217 47.8398 99.1154 49.457 99.1154C51.1094 99.1154 52.082 100.211 52.082 102.051V102.672H47.752V102.93C47.752 104.096 48.4434 104.846 49.5273 104.846C50.3301 104.846 50.9219 104.506 51.0977 103.949ZM49.4512 99.9708C48.3906 99.9708 47.752 100.697 47.752 101.916H51.0977C51.0977 100.703 50.4766 99.9708 49.4512 99.9708ZM59.8633 100.908V105.59H58.9668V101.201C58.9668 100.428 58.6855 100.024 58.1523 100.024C57.5957 100.024 57.2559 100.51 57.2559 101.301V105.59H56.3652V101.195C56.3652 100.428 56.084 100.024 55.5449 100.024C54.9824 100.024 54.6309 100.51 54.6309 101.301V105.59H53.7344V99.2325H54.625V100.129H54.7305C54.8887 99.4904 55.3457 99.1154 55.9434 99.1154C56.541 99.1154 56.9629 99.4845 57.0977 100.111H57.2031C57.3672 99.5021 57.877 99.1154 58.5156 99.1154C59.4004 99.1154 59.8633 99.7306 59.8633 100.908Z" fill="black"/>
<path d="M70.3574 101.359C70.3574 99.3732 70.9551 97.6447 72.1211 96.3204H73.1113C71.8984 98.0255 71.3887 99.5197 71.3887 101.359C71.3887 103.199 71.8984 104.693 73.1113 106.399H72.1211C70.9551 105.074 70.3574 103.352 70.3574 101.359ZM82.2461 105.59H76.3516V104.682H78.8477V98.3068H78.7539L76.334 99.8712V98.7697L78.8535 97.1349H79.8672V104.682H82.2461V105.59ZM83.582 99.8478C83.582 98.172 84.7891 96.9591 86.459 96.9591C88.1289 96.9591 89.3301 98.1603 89.3301 99.8478C89.3301 100.809 88.9902 101.705 88.1582 102.912C88.082 103.041 86.3301 105.502 86.2656 105.59H85.082L87.3848 102.42C87.5781 102.156 87.6191 102.08 87.6719 101.986L87.584 101.94C87.332 102.279 86.7344 102.531 86.2012 102.531C84.6895 102.531 83.582 101.395 83.582 99.8478ZM86.4531 97.879C85.3926 97.879 84.584 98.7111 84.584 99.795C84.584 100.885 85.3926 101.717 86.4531 101.717C87.5195 101.717 88.3281 100.885 88.3281 99.795C88.3281 98.7111 87.5195 97.879 86.4531 97.879ZM94.2871 99.1271C95.7578 99.1271 96.7188 100.188 96.7188 101.822V103.006C96.7188 104.635 95.7578 105.695 94.2871 105.695C93.3672 105.695 92.6934 105.303 92.418 104.606H92.3066V107.734H91.293V99.2325H92.2773V100.205H92.3828C92.7168 99.5021 93.3789 99.1271 94.2871 99.1271ZM94 100.041C92.9512 100.041 92.2832 100.791 92.2832 101.963V102.877C92.2832 104.055 92.9512 104.805 94 104.805C95.0488 104.805 95.7168 104.049 95.7168 102.877V101.963C95.7168 100.791 95.0488 100.041 94 100.041ZM101.33 103.141H101.254L99.6484 105.59H98.5469L100.727 102.408L98.5293 99.2325H99.707L101.289 101.641H101.371L102.947 99.2325H104.066L101.893 102.367L104.084 105.59H102.93L101.33 103.141ZM110.002 101.359C110.002 103.352 109.404 105.074 108.238 106.399H107.248C108.461 104.693 108.971 103.199 108.971 101.359C108.971 99.5197 108.461 98.0255 107.248 96.3204H108.238C109.404 97.6447 110.002 99.3732 110.002 101.359Z" fill="#222222" fill-opacity="0.5"/>
</svg>
