<svg viewBox="0 0 130 125" fill="none" xmlns="http://www.w3.org/2000/svg">
<rect y="0.589966" width="130" height="124" rx="14" fill="#F9F9F9"/>
<rect x="0.5" y="1.08997" width="129" height="123" rx="13.5" stroke="black" stroke-opacity="0.1"/>
<path d="M16.356 72.59L23.4355 53.566H25.189V56.4269H24.5825L18.8477 72.59H16.356ZM19.5991 67.1451L20.3901 65.1281H28.8276L29.6187 67.1451H19.5991ZM30.3569 72.59L24.6353 56.4269V53.566H25.7822L32.8486 72.59H30.3569ZM38.7417 72.8536C37.8364 72.8536 37.041 72.6823 36.3555 72.3395C35.6699 71.9967 35.1338 71.5133 34.7471 70.8893C34.3604 70.2653 34.167 69.5402 34.167 68.714V68.6876C34.167 67.5099 34.6021 66.5739 35.4722 65.8795C36.3511 65.1764 37.5771 64.7809 39.1504 64.693L44.2261 64.403V66.1827L39.4141 66.4728C38.4912 66.5255 37.7749 66.7452 37.2651 67.132C36.7642 67.5187 36.5137 68.0328 36.5137 68.6744V68.7008C36.5137 69.3688 36.7642 69.8961 37.2651 70.2828C37.7661 70.6696 38.4297 70.8629 39.2559 70.8629C39.9766 70.8629 40.6226 70.7135 41.1938 70.4147C41.7739 70.1071 42.231 69.6896 42.5649 69.1622C42.9077 68.6349 43.0791 68.0416 43.0791 67.3824V63.3087C43.0791 62.4738 42.8154 61.819 42.2881 61.3444C41.7695 60.861 41.0312 60.6193 40.0732 60.6193C39.1943 60.6193 38.4824 60.8082 37.9375 61.1862C37.4014 61.5641 37.0674 62.0607 36.9355 62.6759L36.9092 62.7946H34.6812L34.6943 62.6495C34.7734 61.8937 35.0327 61.2125 35.4722 60.6061C35.9204 59.9908 36.5356 59.5031 37.3179 59.1427C38.1001 58.7736 39.0273 58.589 40.0996 58.589C41.1807 58.589 42.1167 58.7736 42.9077 59.1427C43.6987 59.5118 44.3052 60.0348 44.7271 60.7115C45.1577 61.3883 45.373 62.1837 45.373 63.0978V72.59H43.0791V70.3619H43.0264C42.7627 70.8629 42.4111 71.3024 41.9717 71.6803C41.5322 72.0494 41.0356 72.3395 40.4819 72.5504C39.937 72.7526 39.3569 72.8536 38.7417 72.8536Z" fill="black"/>
<path d="M17.0137 99.5138C17.0137 98.0255 18.1152 96.9591 19.6562 96.9591C21.209 96.9591 22.2754 97.92 22.2754 99.3322C22.2754 100.211 21.877 100.914 20.5293 102.385L18.5371 104.553V104.652H22.4102V105.59H17.0605V104.875L19.9199 101.693C20.9922 100.492 21.25 100.041 21.25 99.3732C21.25 98.465 20.6113 97.8673 19.627 97.8673C18.6543 97.8673 18.0098 98.5177 18.0098 99.5138V99.549H17.0137V99.5138ZM27.127 105.625C26.5469 105.625 26.0664 105.139 26.0664 104.541C26.0664 103.949 26.5469 103.463 27.127 103.463C27.707 103.463 28.1875 103.949 28.1875 104.541C28.1875 105.139 27.707 105.625 27.127 105.625ZM32.5176 105.59L36.3555 98.1368V98.0607H31.7676V97.1349H37.4102V98.09L33.6191 105.59H32.5176ZM41.7109 102.742V104.793H43.6797V105.59H39.4551V104.793H40.7383V100.029H39.3262V99.2325H41.6992V100.856H41.8281C42.0625 99.6779 42.8535 99.0685 44.0781 99.0685C44.4414 99.0685 44.7871 99.1212 44.998 99.2091V100.328C44.7051 100.223 44.2949 100.152 43.9492 100.152C42.543 100.152 41.7109 101.125 41.7109 102.742ZM51.0977 103.949H52.0645C51.8711 104.998 50.8633 105.707 49.5273 105.707C47.7812 105.707 46.7676 104.658 46.7676 102.848V101.893C46.7676 100.217 47.8398 99.1154 49.457 99.1154C51.1094 99.1154 52.082 100.211 52.082 102.051V102.672H47.752V102.93C47.752 104.096 48.4434 104.846 49.5273 104.846C50.3301 104.846 50.9219 104.506 51.0977 103.949ZM49.4512 99.9708C48.3906 99.9708 47.752 100.697 47.752 101.916H51.0977C51.0977 100.703 50.4766 99.9708 49.4512 99.9708ZM59.8633 100.908V105.59H58.9668V101.201C58.9668 100.428 58.6855 100.024 58.1523 100.024C57.5957 100.024 57.2559 100.51 57.2559 101.301V105.59H56.3652V101.195C56.3652 100.428 56.084 100.024 55.5449 100.024C54.9824 100.024 54.6309 100.51 54.6309 101.301V105.59H53.7344V99.2325H54.625V100.129H54.7305C54.8887 99.4904 55.3457 99.1154 55.9434 99.1154C56.541 99.1154 56.9629 99.4845 57.0977 100.111H57.2031C57.3672 99.5021 57.877 99.1154 58.5156 99.1154C59.4004 99.1154 59.8633 99.7306 59.8633 100.908Z" fill="black"/>
<path d="M70.3574 101.359C70.3574 99.3732 70.9551 97.6447 72.1211 96.3204H73.1113C71.8984 98.0255 71.3887 99.5197 71.3887 101.359C71.3887 103.199 71.8984 104.693 73.1113 106.399H72.1211C70.9551 105.074 70.3574 103.352 70.3574 101.359ZM76.3574 99.5138C76.3574 98.0255 77.459 96.9591 79 96.9591C80.5527 96.9591 81.6191 97.92 81.6191 99.3322C81.6191 100.211 81.2207 100.914 79.873 102.385L77.8809 104.553V104.652H81.7539V105.59H76.4043V104.875L79.2637 101.693C80.3359 100.492 80.5938 100.041 80.5938 99.3732C80.5938 98.465 79.9551 97.8673 78.9707 97.8673C77.998 97.8673 77.3535 98.5177 77.3535 99.5138V99.549H76.3574V99.5138ZM84.4434 105.59L88.2812 98.1368V98.0607H83.6934V97.1349H89.3359V98.09L85.5449 105.59H84.4434ZM94.2871 99.1271C95.7578 99.1271 96.7188 100.188 96.7188 101.822V103.006C96.7188 104.635 95.7578 105.695 94.2871 105.695C93.3672 105.695 92.6934 105.303 92.418 104.606H92.3066V107.734H91.293V99.2325H92.2773V100.205H92.3828C92.7168 99.5021 93.3789 99.1271 94.2871 99.1271ZM94 100.041C92.9512 100.041 92.2832 100.791 92.2832 101.963V102.877C92.2832 104.055 92.9512 104.805 94 104.805C95.0488 104.805 95.7168 104.049 95.7168 102.877V101.963C95.7168 100.791 95.0488 100.041 94 100.041ZM101.33 103.141H101.254L99.6484 105.59H98.5469L100.727 102.408L98.5293 99.2325H99.707L101.289 101.641H101.371L102.947 99.2325H104.066L101.893 102.367L104.084 105.59H102.93L101.33 103.141ZM110.002 101.359C110.002 103.352 109.404 105.074 108.238 106.399H107.248C108.461 104.693 108.971 103.199 108.971 101.359C108.971 99.5197 108.461 98.0255 107.248 96.3204H108.238C109.404 97.6447 110.002 99.3732 110.002 101.359Z" fill="#222222" fill-opacity="0.5"/>
</svg>
