<svg viewBox="0 0 130 125" fill="none" xmlns="http://www.w3.org/2000/svg">
<rect y="0.589966" width="130" height="124" rx="14" fill="#F9F9F9"/>
<rect x="0.5" y="1.08997" width="129" height="123" rx="13.5" stroke="black" stroke-opacity="0.1"/>
<path d="M16.4639 69.59L26.4277 42.8156H28.8955V46.8234H28.042L19.9707 69.59H16.4639ZM21.0283 61.9269L22.1416 59.088H34.0166L35.1299 61.9269H21.0283ZM36.1689 69.59L28.1162 46.8234V42.8156H29.7305L39.6758 69.59H36.1689ZM47.8955 69.9611C46.6214 69.9611 45.502 69.7198 44.5371 69.2374C43.5723 68.755 42.8177 68.0747 42.2734 67.1964C41.7415 66.3182 41.4756 65.2976 41.4756 64.1349V64.0978C41.4756 62.4526 42.0879 61.1414 43.3125 60.1642C44.5371 59.1746 46.2565 58.618 48.4707 58.4943L55.6143 58.0861V60.5909L48.8418 60.9991C47.5553 61.0734 46.5534 61.3826 45.8359 61.9269C45.1309 62.4712 44.7783 63.1948 44.7783 64.0978V64.1349C44.7783 65.0626 45.1247 65.7986 45.8174 66.3429C46.5225 66.8872 47.4564 67.1593 48.6191 67.1593C49.6335 67.1593 50.5426 66.949 51.3467 66.5284C52.1631 66.0955 52.8063 65.5079 53.2764 64.7657C53.7588 64.0236 54 63.1886 54 62.2609V56.5646C54 55.3894 53.6289 54.4679 52.8867 53.7999C52.1569 53.1196 51.1178 52.7794 49.7695 52.7794C48.5326 52.7794 47.5306 53.0516 46.7637 53.5958C46.0091 54.1277 45.5391 54.8266 45.3535 55.6925L45.3164 55.8595H42.1992L42.2178 55.6554C42.3167 54.5916 42.6755 53.6267 43.2939 52.7609C43.9248 51.895 44.7907 51.2085 45.8916 50.7013C46.9925 50.1818 48.2975 49.922 49.8066 49.922C51.3281 49.922 52.6393 50.1818 53.7402 50.7013C54.8535 51.2208 55.7132 51.9568 56.3193 52.9093C56.9255 53.8494 57.2285 54.9627 57.2285 56.2491V69.59H54V66.4542H53.9258C53.5547 67.1593 53.0599 67.7778 52.4414 68.3097C51.8229 68.8292 51.124 69.2374 50.3447 69.5343C49.5778 69.8188 48.7614 69.9611 47.8955 69.9611Z" fill="black"/>
<path d="M18.6777 101.67V100.803H19.5977C20.5469 100.803 21.209 100.182 21.209 99.297C21.209 98.4357 20.5762 97.8673 19.6211 97.8673C18.6719 97.8673 18.0391 98.424 17.957 99.3322H16.9668C17.0664 97.8673 18.0977 96.9591 19.6621 96.9591C21.1738 96.9591 22.252 97.8673 22.252 99.1505C22.252 100.17 21.7188 100.897 20.8105 101.119V101.213C21.9355 101.359 22.6035 102.151 22.6035 103.305C22.6035 104.74 21.3965 105.766 19.709 105.766C18.0391 105.766 16.8789 104.805 16.8027 103.346H17.7812C17.875 104.248 18.625 104.834 19.6797 104.834C20.8398 104.834 21.5605 104.236 21.5605 103.281C21.5605 102.297 20.8164 101.67 19.6445 101.67H18.6777ZM27.127 105.625C26.5469 105.625 26.0664 105.139 26.0664 104.541C26.0664 103.949 26.5469 103.463 27.127 103.463C27.707 103.463 28.1875 103.949 28.1875 104.541C28.1875 105.139 27.707 105.625 27.127 105.625ZM34.5742 105.777C32.8164 105.777 31.5918 104.77 31.5918 103.328C31.5918 102.279 32.2715 101.424 33.3145 101.172V101.078C32.4648 100.844 31.9316 100.117 31.9316 99.1974C31.9316 97.879 33.0332 96.9474 34.5742 96.9474C36.1152 96.9474 37.2109 97.879 37.2109 99.1974C37.2109 100.117 36.6895 100.838 35.8281 101.078V101.172C36.8535 101.389 37.5508 102.262 37.5508 103.328C37.5508 104.77 36.332 105.777 34.5742 105.777ZM34.5742 100.727C35.5527 100.727 36.1973 100.152 36.1973 99.2853C36.1973 98.424 35.5527 97.8497 34.5742 97.8497C33.5957 97.8497 32.9453 98.424 32.9453 99.2853C32.9453 100.152 33.5957 100.727 34.5742 100.727ZM34.5742 104.881C35.7227 104.881 36.5137 104.213 36.5137 103.246C36.5137 102.279 35.7227 101.611 34.5742 101.611C33.4258 101.611 32.6348 102.279 32.6348 103.246C32.6348 104.213 33.4258 104.881 34.5742 104.881ZM41.7109 102.742V104.793H43.6797V105.59H39.4551V104.793H40.7383V100.029H39.3262V99.2325H41.6992V100.856H41.8281C42.0625 99.6779 42.8535 99.0685 44.0781 99.0685C44.4414 99.0685 44.7871 99.1212 44.998 99.2091V100.328C44.7051 100.223 44.2949 100.152 43.9492 100.152C42.543 100.152 41.7109 101.125 41.7109 102.742ZM51.0977 103.949H52.0645C51.8711 104.998 50.8633 105.707 49.5273 105.707C47.7812 105.707 46.7676 104.658 46.7676 102.848V101.893C46.7676 100.217 47.8398 99.1154 49.457 99.1154C51.1094 99.1154 52.082 100.211 52.082 102.051V102.672H47.752V102.93C47.752 104.096 48.4434 104.846 49.5273 104.846C50.3301 104.846 50.9219 104.506 51.0977 103.949ZM49.4512 99.9708C48.3906 99.9708 47.752 100.697 47.752 101.916H51.0977C51.0977 100.703 50.4766 99.9708 49.4512 99.9708ZM59.8633 100.908V105.59H58.9668V101.201C58.9668 100.428 58.6855 100.024 58.1523 100.024C57.5957 100.024 57.2559 100.51 57.2559 101.301V105.59H56.3652V101.195C56.3652 100.428 56.084 100.024 55.5449 100.024C54.9824 100.024 54.6309 100.51 54.6309 101.301V105.59H53.7344V99.2325H54.625V100.129H54.7305C54.8887 99.4904 55.3457 99.1154 55.9434 99.1154C56.541 99.1154 56.9629 99.4845 57.0977 100.111H57.2031C57.3672 99.5021 57.877 99.1154 58.5156 99.1154C59.4004 99.1154 59.8633 99.7306 59.8633 100.908Z" fill="black"/>
<path d="M70.3574 101.359C70.3574 99.3732 70.9551 97.6447 72.1211 96.3204H73.1113C71.8984 98.0255 71.3887 99.5197 71.3887 101.359C71.3887 103.199 71.8984 104.693 73.1113 106.399H72.1211C70.9551 105.074 70.3574 103.352 70.3574 101.359ZM78.0215 101.67V100.803H78.9414C79.8906 100.803 80.5527 100.182 80.5527 99.297C80.5527 98.4357 79.9199 97.8673 78.9648 97.8673C78.0156 97.8673 77.3828 98.424 77.3008 99.3322H76.3105C76.4102 97.8673 77.4414 96.9591 79.0059 96.9591C80.5176 96.9591 81.5957 97.8673 81.5957 99.1505C81.5957 100.17 81.0625 100.897 80.1543 101.119V101.213C81.2793 101.359 81.9473 102.151 81.9473 103.305C81.9473 104.74 80.7402 105.766 79.0527 105.766C77.3828 105.766 76.2227 104.805 76.1465 103.346H77.125C77.2188 104.248 77.9688 104.834 79.0234 104.834C80.1836 104.834 80.9043 104.236 80.9043 103.281C80.9043 102.297 80.1602 101.67 78.9883 101.67H78.0215ZM86.5 105.777C84.7422 105.777 83.5176 104.77 83.5176 103.328C83.5176 102.279 84.1973 101.424 85.2402 101.172V101.078C84.3906 100.844 83.8574 100.117 83.8574 99.1974C83.8574 97.879 84.959 96.9474 86.5 96.9474C88.041 96.9474 89.1367 97.879 89.1367 99.1974C89.1367 100.117 88.6152 100.838 87.7539 101.078V101.172C88.7793 101.389 89.4766 102.262 89.4766 103.328C89.4766 104.77 88.2578 105.777 86.5 105.777ZM86.5 100.727C87.4785 100.727 88.123 100.152 88.123 99.2853C88.123 98.424 87.4785 97.8497 86.5 97.8497C85.5215 97.8497 84.8711 98.424 84.8711 99.2853C84.8711 100.152 85.5215 100.727 86.5 100.727ZM86.5 104.881C87.6484 104.881 88.4395 104.213 88.4395 103.246C88.4395 102.279 87.6484 101.611 86.5 101.611C85.3516 101.611 84.5605 102.279 84.5605 103.246C84.5605 104.213 85.3516 104.881 86.5 104.881ZM94.2871 99.1271C95.7578 99.1271 96.7188 100.188 96.7188 101.822V103.006C96.7188 104.635 95.7578 105.695 94.2871 105.695C93.3672 105.695 92.6934 105.303 92.418 104.606H92.3066V107.734H91.293V99.2325H92.2773V100.205H92.3828C92.7168 99.5021 93.3789 99.1271 94.2871 99.1271ZM94 100.041C92.9512 100.041 92.2832 100.791 92.2832 101.963V102.877C92.2832 104.055 92.9512 104.805 94 104.805C95.0488 104.805 95.7168 104.049 95.7168 102.877V101.963C95.7168 100.791 95.0488 100.041 94 100.041ZM101.33 103.141H101.254L99.6484 105.59H98.5469L100.727 102.408L98.5293 99.2325H99.707L101.289 101.641H101.371L102.947 99.2325H104.066L101.893 102.367L104.084 105.59H102.93L101.33 103.141ZM110.002 101.359C110.002 103.352 109.404 105.074 108.238 106.399H107.248C108.461 104.693 108.971 103.199 108.971 101.359C108.971 99.5197 108.461 98.0255 107.248 96.3204H108.238C109.404 97.6447 110.002 99.3732 110.002 101.359Z" fill="#222222" fill-opacity="0.5"/>
</svg>
