<svg viewBox="0 0 165 146" fill="none" xmlns="http://www.w3.org/2000/svg">
<g clip-path="url(#clip0_347_13510)">
<rect y="0.589844" width="165" height="145" rx="14" fill="#F9F9F9"/>
<path d="M20.2344 84.0898V80.5742H26.6562C28.0104 80.5742 29.0469 80.3034 29.7656 79.7617C30.4844 79.2096 30.8438 78.4128 30.8438 77.3711V77.3398C30.8438 76.6523 30.6771 76.0742 30.3438 75.6055C30.0104 75.1263 29.5156 74.7669 28.8594 74.5273C28.2135 74.2878 27.4115 74.168 26.4531 74.168H20.2344V70.9648H25.8906C27.224 70.9648 28.2344 70.6992 28.9219 70.168C29.6198 69.6263 29.9688 68.8711 29.9688 67.9023V67.8711C29.9688 66.9753 29.6615 66.2826 29.0469 65.793C28.4323 65.293 27.5729 65.043 26.4688 65.043H20.2344V61.543H27.6875C29.1146 61.543 30.3438 61.7721 31.375 62.2305C32.4062 62.6888 33.2031 63.3451 33.7656 64.1992C34.3281 65.043 34.6094 66.043 34.6094 67.1992V67.2305C34.6094 68.0534 34.4167 68.819 34.0312 69.5273C33.6562 70.2253 33.1406 70.8086 32.4844 71.2773C31.8281 71.7357 31.0833 72.0221 30.25 72.1367V72.2305C31.3021 72.3034 32.2344 72.5846 33.0469 73.0742C33.8594 73.5534 34.4948 74.1888 34.9531 74.9805C35.4219 75.7617 35.6562 76.6471 35.6562 77.6367V77.668C35.6562 78.9805 35.3385 80.1159 34.7031 81.0742C34.0781 82.0326 33.1823 82.7773 32.0156 83.3086C30.8594 83.8294 29.474 84.0898 27.8594 84.0898H20.2344ZM17.875 84.0898V61.543H22.5938V84.0898H17.875ZM45.0006 84.4336C43.3027 84.4336 41.834 84.0846 40.5944 83.3867C39.3548 82.6888 38.3965 81.6888 37.7194 80.3867C37.0423 79.0846 36.7038 77.5273 36.7038 75.7148V75.6836C36.7038 73.8815 37.0475 72.3346 37.735 71.043C38.4225 69.7409 39.386 68.7409 40.6256 68.043C41.8652 67.3451 43.3183 66.9961 44.985 66.9961C46.6621 66.9961 48.1204 67.3451 49.36 68.043C50.61 68.7305 51.5788 69.7253 52.2663 71.0273C52.9538 72.319 53.2975 73.8711 53.2975 75.6836V75.7148C53.2975 77.5378 52.9538 79.1003 52.2663 80.4023C51.5892 81.7044 50.6308 82.7044 49.3913 83.4023C48.1517 84.0898 46.6881 84.4336 45.0006 84.4336ZM45.0163 80.8555C45.7558 80.8555 46.3965 80.6576 46.9381 80.2617C47.4902 79.8555 47.9121 79.2721 48.2038 78.5117C48.5058 77.7409 48.6569 76.8086 48.6569 75.7148V75.6836C48.6569 74.6003 48.5058 73.6784 48.2038 72.918C47.9017 72.1576 47.4746 71.5794 46.9225 71.1836C46.3704 70.7773 45.7246 70.5742 44.985 70.5742C44.2558 70.5742 43.6152 70.7773 43.0631 71.1836C42.5215 71.5794 42.0996 72.1576 41.7975 72.918C41.4954 73.6784 41.3444 74.6003 41.3444 75.6836V75.7148C41.3444 76.8086 41.4902 77.7409 41.7819 78.5117C42.084 79.2721 42.511 79.8555 43.0631 80.2617C43.6152 80.6576 44.2663 80.8555 45.0163 80.8555ZM55.1263 84.0898V61.543H59.6888V84.0898H55.1263ZM68.33 84.4336C66.9238 84.4336 65.7102 84.0846 64.6894 83.3867C63.6685 82.6888 62.8821 81.6888 62.33 80.3867C61.7883 79.0846 61.5175 77.5273 61.5175 75.7148V75.6992C61.5175 73.8763 61.7935 72.319 62.3456 71.0273C62.8977 69.7253 63.679 68.7305 64.6894 68.043C65.7102 67.3451 66.9238 66.9961 68.33 66.9961C69.5175 66.9961 70.5592 67.2878 71.455 67.8711C72.3508 68.444 73.0279 69.2357 73.4863 70.2461H73.58V61.543H78.1425V84.0898H73.58V81.2305H73.4863C73.0383 82.2305 72.3665 83.0169 71.4706 83.5898C70.5852 84.1523 69.5383 84.4336 68.33 84.4336ZM69.8613 80.6523C70.6008 80.6523 71.2519 80.4544 71.8144 80.0586C72.3769 79.6523 72.8144 79.0794 73.1269 78.3398C73.4394 77.6003 73.5956 76.7253 73.5956 75.7148V75.6992C73.5956 74.6888 73.4342 73.819 73.1113 73.0898C72.7988 72.3503 72.3613 71.7826 71.7988 71.3867C71.2467 70.9805 70.6008 70.7773 69.8613 70.7773C69.1008 70.7773 68.4446 70.9753 67.8925 71.3711C67.3404 71.7669 66.9133 72.3346 66.6113 73.0742C66.3092 73.8034 66.1581 74.6784 66.1581 75.6992V75.7148C66.1581 76.7253 66.304 77.6003 66.5956 78.3398C66.8977 79.0794 67.3248 79.6523 67.8769 80.0586C68.4394 80.4544 69.1008 80.6523 69.8613 80.6523Z" fill="black"/>
<path opacity="0.07" d="M118.281 115.59V31.0391H150.566C159.043 31.0391 166.27 32.6602 172.246 35.9023C178.262 39.1445 182.871 43.8906 186.074 50.1406C189.277 56.3516 190.879 63.9297 190.879 72.875V72.9922C190.879 81.9375 189.277 89.5938 186.074 95.9609C182.91 102.328 178.32 107.191 172.305 110.551C166.289 113.91 159.043 115.59 150.566 115.59H118.281ZM135.977 100.941H148.457C153.73 100.941 158.184 99.8867 161.816 97.7773C165.449 95.668 168.184 92.543 170.02 88.4023C171.895 84.2617 172.832 79.1445 172.832 73.0508V72.9336C172.832 67.0352 171.875 62.0547 169.961 57.9922C168.086 53.9297 165.332 50.8633 161.699 48.793C158.066 46.6836 153.652 45.6289 148.457 45.6289H135.977V100.941Z" fill="black"/>
</g>
<rect x="0.5" y="1.08984" width="164" height="144" rx="13.5" stroke="black" stroke-opacity="0.1"/>
<defs>
<clipPath id="clip0_347_13510">
<rect y="0.589844" width="165" height="145" rx="14" fill="white"/>
</clipPath>
</defs>
</svg>
