<svg viewBox="0 0 165 146" fill="none" xmlns="http://www.w3.org/2000/svg">
<g clip-path="url(#clip0_347_13504)">
<rect y="0.589844" width="165" height="145" rx="14" fill="#F9F9F9"/>
<path d="M18.0781 84.0898V61.543H22.125L29.4219 79.5273H29.5156L36.8125 61.543H40.875V84.0898H37.6719V67.4648H36.0625L39.7188 62.168L30.7656 84.0898H28.1719L19.2344 62.168L22.8906 67.4648H21.2812V84.0898H18.0781ZM51.0163 84.418C49.4121 84.418 48.0267 84.0742 46.86 83.3867C45.7038 82.6888 44.8131 81.7044 44.1881 80.4336C43.5735 79.1523 43.2663 77.6471 43.2663 75.918V75.9023C43.2663 74.194 43.5788 72.6992 44.2038 71.418C44.8288 70.1263 45.709 69.1263 46.8444 68.418C47.9798 67.6992 49.3131 67.3398 50.8444 67.3398C52.386 67.3398 53.709 67.6836 54.8131 68.3711C55.9277 69.0482 56.7871 70.0117 57.3913 71.2617C57.9954 72.5013 58.2975 73.944 58.2975 75.5898V76.7305H44.9381V74.3398H56.6569L54.985 76.5742V75.2617C54.985 74.1055 54.8079 73.1471 54.4538 72.3867C54.11 71.6159 53.6256 71.043 53.0006 70.668C52.386 70.293 51.6725 70.1055 50.86 70.1055C50.0579 70.1055 49.3392 70.3034 48.7038 70.6992C48.0683 71.0951 47.5683 71.6784 47.2038 72.4492C46.8392 73.2096 46.6569 74.1471 46.6569 75.2617V76.5742C46.6569 77.6367 46.834 78.5482 47.1881 79.3086C47.5527 80.0586 48.0683 80.6367 48.735 81.043C49.4017 81.4388 50.1881 81.6367 51.0944 81.6367C51.761 81.6367 52.3496 81.5378 52.86 81.3398C53.3704 81.1315 53.7923 80.8607 54.1256 80.5273C54.4694 80.1836 54.709 79.8034 54.8444 79.3867L54.8913 79.2617H58.11L58.0788 79.4336C57.9433 80.0794 57.6881 80.6992 57.3131 81.293C56.9381 81.8867 56.4485 82.4232 55.8444 82.9023C55.2506 83.3711 54.5475 83.7409 53.735 84.0117C52.9225 84.2826 52.0163 84.418 51.0163 84.418ZM66.4075 84.418C65.0117 84.418 63.7981 84.069 62.7669 83.3711C61.7356 82.6732 60.9388 81.6888 60.3763 80.418C59.8138 79.1367 59.5325 77.6211 59.5325 75.8711V75.8555C59.5325 74.1055 59.8138 72.5951 60.3763 71.3242C60.9492 70.0534 61.746 69.0742 62.7669 68.3867C63.7981 67.6888 65.0013 67.3398 66.3763 67.3398C67.5325 67.3398 68.5585 67.6159 69.4544 68.168C70.3606 68.7201 71.0638 69.4805 71.5638 70.4492H71.6263V61.543H75.0325V84.0898H71.6263V81.3086H71.5638C71.0742 82.2669 70.3867 83.0273 69.5013 83.5898C68.6158 84.1419 67.5846 84.418 66.4075 84.418ZM67.2981 81.4961C68.1523 81.4961 68.9023 81.2669 69.5481 80.8086C70.2044 80.3398 70.7148 79.6836 71.0794 78.8398C71.4544 77.9961 71.6419 77.0065 71.6419 75.8711V75.8555C71.6419 74.7201 71.4544 73.7357 71.0794 72.9023C70.7044 72.0586 70.194 71.4076 69.5481 70.9492C68.9023 70.4805 68.1523 70.2461 67.2981 70.2461C66.4127 70.2461 65.6471 70.4753 65.0013 70.9336C64.3554 71.3815 63.8554 72.0273 63.5013 72.8711C63.1575 73.7044 62.9856 74.6992 62.9856 75.8555V75.8711C62.9856 77.0273 63.1575 78.0326 63.5013 78.8867C63.8554 79.7305 64.3554 80.3763 65.0013 80.8242C65.6471 81.2721 66.4127 81.4961 67.2981 81.4961ZM77.9706 84.0898V67.6523H81.3769V84.0898H77.9706ZM79.6738 65.1211C79.1321 65.1211 78.6685 64.9336 78.2831 64.5586C77.8977 64.1732 77.705 63.7148 77.705 63.1836C77.705 62.6315 77.8977 62.168 78.2831 61.793C78.6685 61.418 79.1321 61.2305 79.6738 61.2305C80.2258 61.2305 80.6894 61.418 81.0644 61.793C81.4498 62.168 81.6425 62.6315 81.6425 63.1836C81.6425 63.7148 81.4498 64.1732 81.0644 64.5586C80.6894 64.9336 80.2258 65.1211 79.6738 65.1211ZM89.7994 84.418C88.6015 84.418 87.5754 84.1732 86.7213 83.6836C85.8775 83.1836 85.2317 82.4753 84.7838 81.5586C84.3358 80.6419 84.1119 79.5534 84.1119 78.293V67.6523H87.5181V77.6523C87.5181 78.8919 87.8046 79.8451 88.3775 80.5117C88.9608 81.168 89.8358 81.4961 91.0025 81.4961C91.7942 81.4961 92.4817 81.319 93.065 80.9648C93.6588 80.6107 94.1119 80.1159 94.4244 79.4805C94.7473 78.8346 94.9088 78.0898 94.9088 77.2461V67.6523H98.2994V84.0898H94.9088V81.6211H94.8306C94.4035 82.4544 93.7681 83.1315 92.9244 83.6523C92.091 84.1628 91.0494 84.418 89.7994 84.418ZM100.988 84.0898V67.6523H104.394V70.1992H104.456C104.81 69.3346 105.389 68.6419 106.191 68.1211C106.993 67.6003 107.93 67.3398 109.003 67.3398C109.753 67.3398 110.43 67.4648 111.034 67.7148C111.649 67.9648 112.175 68.3346 112.613 68.8242C113.05 69.3034 113.373 69.8867 113.581 70.5742H113.659C113.941 69.9076 114.331 69.3346 114.831 68.8555C115.342 68.3659 115.93 67.9909 116.597 67.7305C117.274 67.4701 118.003 67.3398 118.784 67.3398C119.868 67.3398 120.81 67.569 121.613 68.0273C122.415 68.4753 123.04 69.1055 123.488 69.918C123.935 70.7305 124.159 71.6836 124.159 72.7773V84.0898H120.753V73.6055C120.753 72.543 120.482 71.7201 119.941 71.1367C119.399 70.543 118.623 70.2461 117.613 70.2461C116.946 70.2461 116.357 70.3971 115.847 70.6992C115.347 71.0013 114.951 71.4232 114.659 71.9648C114.378 72.5065 114.238 73.1211 114.238 73.8086V84.0898H110.909V73.3555C110.909 72.3971 110.628 71.6419 110.066 71.0898C109.514 70.5273 108.758 70.2461 107.8 70.2461C107.144 70.2461 106.555 70.4076 106.034 70.7305C105.524 71.043 105.123 71.4753 104.831 72.0273C104.54 72.5794 104.394 73.2148 104.394 73.9336V84.0898H100.988Z" fill="black"/>
<path opacity="0.07" d="M118.543 115.59V31.0391H148.367C156.766 31.0391 163.934 32.6992 169.871 36.0195C175.848 39.3008 180.418 44.0664 183.582 50.3164C186.785 56.5664 188.387 64.1445 188.387 73.0508V73.168C188.387 82.0742 186.805 89.7109 183.641 96.0781C180.477 102.406 175.906 107.25 169.93 110.609C163.992 113.93 156.805 115.59 148.367 115.59H118.543ZM131.668 104.223H147.137C153.113 104.223 158.172 103.031 162.312 100.648C166.453 98.2656 169.598 94.7695 171.746 90.1602C173.895 85.5508 174.969 79.9258 174.969 73.2852V73.168C174.969 66.5664 173.875 60.9805 171.688 56.4102C169.539 51.8008 166.395 48.3242 162.254 45.9805C158.152 43.5977 153.113 42.4062 147.137 42.4062H131.668V104.223Z" fill="black"/>
</g>
<rect x="0.5" y="1.08984" width="164" height="144" rx="13.5" stroke="black" stroke-opacity="0.1"/>
<defs>
<clipPath id="clip0_347_13504">
<rect y="0.589844" width="165" height="145" rx="14" fill="white"/>
</clipPath>
</defs>
</svg>
