<svg viewBox="0 0 165 146" fill="none" xmlns="http://www.w3.org/2000/svg">
<g clip-path="url(#clip0_347_13501)">
<rect y="0.589844" width="165" height="145" rx="14" fill="#F9F9F9"/>
<path d="M18.1875 84.0898V61.543H26.6406C28.0885 61.543 29.349 61.8242 30.4219 62.3867C31.5052 62.9388 32.3438 63.7201 32.9375 64.7305C33.5312 65.7305 33.8281 66.9076 33.8281 68.2617V68.293C33.8281 69.8555 33.4219 71.2096 32.6094 72.3555C31.8073 73.4909 30.7031 74.2826 29.2969 74.7305L34.5156 84.0898H31.2188L26.3906 75.168C26.3594 75.168 26.3281 75.168 26.2969 75.168C26.276 75.168 26.25 75.168 26.2188 75.168H21V84.0898H18.1875ZM21 72.6836H26.3906C27.8385 72.6836 28.9531 72.3086 29.7344 71.5586C30.526 70.8086 30.9219 69.7409 30.9219 68.3555V68.3242C30.9219 66.9805 30.5052 65.9336 29.6719 65.1836C28.849 64.4232 27.7135 64.043 26.2656 64.043H21V72.6836ZM43.0006 84.4023C41.4485 84.4023 40.11 84.0586 38.985 83.3711C37.8704 82.6836 37.011 81.7148 36.4069 80.4648C35.8131 79.2044 35.5163 77.7253 35.5163 76.0273V76.0117C35.5163 74.3346 35.8183 72.8607 36.4225 71.5898C37.0267 70.3086 37.8756 69.3138 38.9694 68.6055C40.0631 67.8867 41.3496 67.5273 42.8288 67.5273C44.3079 67.5273 45.5788 67.8711 46.6413 68.5586C47.7142 69.2357 48.5371 70.1888 49.11 71.418C49.6829 72.6471 49.9694 74.0742 49.9694 75.6992V76.6992H36.8756V74.5742H48.6256L47.2506 76.543V75.4961C47.2506 74.2357 47.0579 73.194 46.6725 72.3711C46.2975 71.5482 45.7767 70.9388 45.11 70.543C44.4433 70.1367 43.6777 69.9336 42.8131 69.9336C41.9485 69.9336 41.1725 70.1471 40.485 70.5742C39.7975 70.9909 39.2558 71.6159 38.86 72.4492C38.4642 73.2721 38.2663 74.2878 38.2663 75.4961V76.543C38.2663 77.6888 38.459 78.668 38.8444 79.4805C39.2402 80.293 39.7975 80.918 40.5163 81.3555C41.235 81.7826 42.084 81.9961 43.0631 81.9961C43.7506 81.9961 44.3652 81.8919 44.9069 81.6836C45.4485 81.4753 45.9017 81.1888 46.2663 80.8242C46.6308 80.4596 46.8913 80.043 47.0475 79.5742L47.0944 79.4336H49.7663L49.735 79.5898C49.5996 80.2565 49.3392 80.8815 48.9538 81.4648C48.5788 82.0482 48.0944 82.5638 47.5006 83.0117C46.9069 83.4492 46.2298 83.793 45.4694 84.043C44.709 84.2826 43.886 84.4023 43.0006 84.4023ZM58.9544 89.8711C57.621 89.8711 56.4544 89.6784 55.4544 89.293C54.4648 88.918 53.6627 88.4023 53.0481 87.7461C52.444 87.1003 52.0533 86.3763 51.8763 85.5742L51.845 85.4336H54.5794L54.6419 85.5742C54.9023 86.1576 55.4023 86.6159 56.1419 86.9492C56.8919 87.293 57.819 87.4648 58.9231 87.4648C60.3502 87.4648 61.4544 87.0951 62.2356 86.3555C63.0169 85.6263 63.4075 84.6315 63.4075 83.3711V81.293H63.345C63.0221 81.8971 62.6054 82.418 62.095 82.8555C61.5846 83.293 60.996 83.6367 60.3294 83.8867C59.6731 84.1263 58.9544 84.2461 58.1731 84.2461C56.8085 84.2461 55.6054 83.9023 54.5638 83.2148C53.5325 82.5169 52.7252 81.543 52.1419 80.293C51.569 79.0326 51.2825 77.5586 51.2825 75.8711V75.8555C51.2825 74.168 51.5742 72.7044 52.1575 71.4648C52.7513 70.2148 53.569 69.2461 54.6106 68.5586C55.6523 67.8711 56.8606 67.5273 58.2356 67.5273C59.0065 67.5273 59.7148 67.6576 60.3606 67.918C61.0065 68.1784 61.5794 68.5378 62.0794 68.9961C62.5898 69.4544 63.0117 69.9857 63.345 70.5898H63.4075V67.8398H66.1263V83.6367C66.1263 84.8971 65.8346 85.9909 65.2513 86.918C64.6679 87.8555 63.8398 88.5794 62.7669 89.0898C61.694 89.6107 60.4231 89.8711 58.9544 89.8711ZM58.7669 81.8398C59.694 81.8398 60.5013 81.5951 61.1888 81.1055C61.8867 80.6055 62.4283 79.9076 62.8138 79.0117C63.2096 78.1159 63.4075 77.069 63.4075 75.8711V75.8555C63.4075 74.6576 63.2096 73.6159 62.8138 72.7305C62.4283 71.8451 61.8867 71.1576 61.1888 70.668C60.4908 70.1784 59.6835 69.9336 58.7669 69.9336C57.8085 69.9336 56.9752 70.1784 56.2669 70.668C55.5585 71.1471 55.0117 71.8294 54.6263 72.7148C54.2513 73.6003 54.0638 74.6471 54.0638 75.8555V75.8711C54.0638 77.1003 54.2513 78.1628 54.6263 79.0586C55.0117 79.944 55.5585 80.6315 56.2669 81.1211C56.9752 81.6003 57.8085 81.8398 58.7669 81.8398ZM74.5488 84.4023C73.3613 84.4023 72.3456 84.1576 71.5019 83.668C70.6685 83.1784 70.0279 82.4857 69.58 81.5898C69.1425 80.6836 68.9238 79.6159 68.9238 78.3867V67.8398H71.6425V77.9023C71.6425 79.2253 71.9498 80.2409 72.5644 80.9492C73.1894 81.6471 74.1269 81.9961 75.3769 81.9961C76.231 81.9961 76.9758 81.8086 77.6113 81.4336C78.2467 81.0482 78.7363 80.5117 79.08 79.8242C79.4342 79.1263 79.6113 78.319 79.6113 77.4023V67.8398H82.33V84.0898H79.6113V81.7773H79.5488C79.1113 82.5378 78.4758 83.168 77.6425 83.668C76.8196 84.1576 75.7883 84.4023 74.5488 84.4023ZM85.3775 84.0898V61.543H88.0963V84.0898H85.3775ZM95.8781 84.4023C94.8052 84.4023 93.8625 84.1992 93.05 83.793C92.2375 83.3867 91.6021 82.8138 91.1438 82.0742C90.6958 81.3346 90.4719 80.4753 90.4719 79.4961V79.4648C90.4719 78.0794 90.9875 76.9753 92.0188 76.1523C93.05 75.319 94.4979 74.8503 96.3625 74.7461L102.378 74.4023V76.5117L96.675 76.8555C95.5917 76.918 94.7479 77.1784 94.1438 77.6367C93.55 78.0951 93.2531 78.7044 93.2531 79.4648V79.4961C93.2531 80.2773 93.5448 80.8971 94.1281 81.3555C94.7219 81.8138 95.5083 82.043 96.4875 82.043C97.3417 82.043 98.1073 81.8659 98.7844 81.5117C99.4719 81.1471 100.014 80.6523 100.409 80.0273C100.816 79.4023 101.019 78.6992 101.019 77.918V73.1211C101.019 72.1315 100.706 71.3555 100.081 70.793C99.4667 70.2201 98.5917 69.9336 97.4563 69.9336C96.4146 69.9336 95.5708 70.1628 94.925 70.6211C94.2896 71.069 93.8938 71.6576 93.7375 72.3867L93.7063 72.5273H91.0813L91.0969 72.3555C91.1802 71.4596 91.4823 70.6471 92.0031 69.918C92.5344 69.1888 93.2635 68.6107 94.1906 68.1836C95.1177 67.7461 96.2167 67.5273 97.4875 67.5273C98.7688 67.5273 99.8729 67.7461 100.8 68.1836C101.738 68.6211 102.461 69.2409 102.972 70.043C103.482 70.8346 103.738 71.7721 103.738 72.8555V84.0898H101.019V81.4492H100.956C100.644 82.043 100.227 82.5638 99.7063 83.0117C99.1854 83.4492 98.5969 83.793 97.9406 84.043C97.2948 84.2826 96.6073 84.4023 95.8781 84.4023ZM106.551 84.0898V67.8398H109.269V70.5898H109.332C109.603 69.6523 110.071 68.9076 110.738 68.3555C111.405 67.8034 112.196 67.5273 113.113 67.5273C113.353 67.5273 113.566 67.543 113.754 67.5742C113.952 67.5951 114.103 67.6159 114.207 67.6367V70.2773C114.103 70.2357 113.915 70.1992 113.644 70.168C113.384 70.1367 113.087 70.1211 112.754 70.1211C112.056 70.1211 111.441 70.2773 110.91 70.5898C110.389 70.9023 109.983 71.3555 109.691 71.9492C109.41 72.5326 109.269 73.2357 109.269 74.0586V84.0898H106.551Z" fill="black"/>
<path opacity="0.07" d="M119.203 115.59V31.0391H147.621C155.98 31.0391 163.129 32.7188 169.066 36.0781C175.004 39.3984 179.555 44.2031 182.719 50.4922C185.922 56.7422 187.523 64.3008 187.523 73.168V73.2852C187.523 82.1523 185.941 89.75 182.777 96.0781C179.613 102.406 175.062 107.25 169.125 110.609C163.188 113.93 156.02 115.59 147.621 115.59H119.203ZM129.75 106.098H146.918C153.324 106.098 158.734 104.828 163.148 102.289C167.602 99.75 170.98 96.0586 173.285 91.2148C175.59 86.332 176.742 80.3945 176.742 73.4023V73.2852C176.742 66.2539 175.59 60.2969 173.285 55.4141C170.98 50.5313 167.602 46.8398 163.148 44.3398C158.734 41.8008 153.324 40.5312 146.918 40.5312H129.75V106.098ZM199.922 85.4141V76.0391H222.07C228.125 76.0391 232.812 74.4766 236.133 71.3516C239.453 68.1875 241.113 63.832 241.113 58.2852V58.168C241.113 52.582 239.453 48.2266 236.133 45.1016C232.812 41.9766 228.125 40.4141 222.07 40.4141H199.922V31.0391H224.766C230.078 31.0391 234.766 32.1719 238.828 34.4375C242.891 36.7031 246.074 39.8672 248.379 43.9297C250.723 47.9922 251.895 52.6992 251.895 58.0508V58.168C251.895 63.5195 250.723 68.2461 248.379 72.3477C246.074 76.4492 242.891 79.6523 238.828 81.957C234.766 84.2617 230.078 85.4141 224.766 85.4141H199.922ZM194.648 115.59V31.0391H205.195V115.59H194.648Z" fill="black"/>
</g>
<rect x="0.5" y="1.08984" width="164" height="144" rx="13.5" stroke="black" stroke-opacity="0.1"/>
<defs>
<clipPath id="clip0_347_13501">
<rect y="0.589844" width="165" height="145" rx="14" fill="white"/>
</clipPath>
</defs>
</svg>
