<svg viewBox="0 0 165 146" fill="none" xmlns="http://www.w3.org/2000/svg">
<g clip-path="url(#clip0_347_13507)">
<rect y="0.589844" width="165" height="145" rx="14" fill="#F9F9F9"/>
<path d="M25.9062 84.4805C24.1771 84.4805 22.6667 84.2201 21.375 83.6992C20.0833 83.1784 19.0625 82.4336 18.3125 81.4648C17.5729 80.4961 17.1562 79.3398 17.0625 77.9961L17.0469 77.7617H20.8906L20.9219 77.9492C21.0365 78.5951 21.3177 79.1523 21.7656 79.6211C22.2135 80.0898 22.8021 80.4544 23.5312 80.7148C24.2708 80.9648 25.1094 81.0898 26.0469 81.0898C26.9948 81.0898 27.8125 80.9596 28.5 80.6992C29.1979 80.4388 29.7344 80.069 30.1094 79.5898C30.4844 79.1003 30.6719 78.5326 30.6719 77.8867V77.8711C30.6719 77.0273 30.3542 76.3607 29.7188 75.8711C29.0938 75.3815 28.0521 74.9805 26.5938 74.668L24.1719 74.168C21.9635 73.7096 20.3073 72.9596 19.2031 71.918C18.099 70.8659 17.5469 69.5013 17.5469 67.8242V67.8086C17.5573 66.4753 17.9167 65.3138 18.625 64.3242C19.3438 63.3242 20.3333 62.5482 21.5938 61.9961C22.8542 61.4336 24.2917 61.1523 25.9062 61.1523C27.5417 61.1523 28.974 61.4232 30.2031 61.9648C31.4323 62.5065 32.3958 63.2617 33.0938 64.2305C33.8021 65.1992 34.1927 66.3242 34.2656 67.6055L34.2812 67.8711H30.4375L30.4062 67.668C30.3125 67.0117 30.0677 66.4544 29.6719 65.9961C29.276 65.5273 28.7552 65.168 28.1094 64.918C27.4635 64.668 26.7188 64.543 25.875 64.543C25 64.543 24.2396 64.6732 23.5938 64.9336C22.9583 65.1836 22.4635 65.5378 22.1094 65.9961C21.7656 66.4544 21.5938 66.9857 21.5938 67.5898V67.6055C21.5938 68.3971 21.9115 69.043 22.5469 69.543C23.1927 70.0326 24.1927 70.418 25.5469 70.6992L27.9688 71.1992C30.3229 71.6888 32.0365 72.4388 33.1094 73.4492C34.1823 74.4492 34.7188 75.8294 34.7188 77.5898V77.6055C34.7188 79.0013 34.3646 80.2148 33.6562 81.2461C32.9583 82.2773 31.9479 83.0742 30.625 83.6367C29.3125 84.1992 27.7396 84.4805 25.9062 84.4805ZM43.985 84.418C42.3288 84.418 40.9017 84.069 39.7038 83.3711C38.5163 82.6732 37.6048 81.6836 36.9694 80.4023C36.334 79.1211 36.0163 77.6055 36.0163 75.8555V75.8398C36.0163 74.1003 36.334 72.5846 36.9694 71.293C37.6152 69.9909 38.5163 68.9805 39.6725 68.2617C40.8392 67.543 42.2142 67.1836 43.7975 67.1836C45.3704 67.1836 46.7298 67.5326 47.8756 68.2305C49.0319 68.918 49.9173 69.8867 50.5319 71.1367C51.1569 72.3867 51.4694 73.8451 51.4694 75.5117V76.7617H37.9381V74.168H49.61L47.735 76.5898V75.0898C47.735 74.0065 47.5683 73.1055 47.235 72.3867C46.9017 71.668 46.4433 71.1315 45.86 70.7773C45.2767 70.4128 44.6048 70.2305 43.8444 70.2305C43.0735 70.2305 42.386 70.418 41.7819 70.793C41.1881 71.1576 40.7194 71.7044 40.3756 72.4336C40.0423 73.1628 39.8756 74.0482 39.8756 75.0898V76.5898C39.8756 77.6003 40.0423 78.4648 40.3756 79.1836C40.7194 79.8919 41.2038 80.4388 41.8288 80.8242C42.4538 81.1992 43.1985 81.3867 44.0631 81.3867C44.709 81.3867 45.2767 81.2878 45.7663 81.0898C46.2558 80.8815 46.6569 80.6159 46.9694 80.293C47.2923 79.9701 47.5163 79.6211 47.6413 79.2461L47.6725 79.1367H51.2975L51.2663 79.3086C51.1308 79.944 50.8808 80.569 50.5163 81.1836C50.1517 81.7878 49.6621 82.3346 49.0475 82.8242C48.4329 83.3138 47.7038 83.7044 46.86 83.9961C46.0163 84.2773 45.0579 84.418 43.985 84.418ZM53.3138 84.0898V67.5273H57.1888V70.1836H57.2825C57.6263 69.2773 58.2044 68.5534 59.0169 68.0117C59.8294 67.4596 60.7825 67.1836 61.8763 67.1836C62.6471 67.1836 63.3398 67.319 63.9544 67.5898C64.569 67.8503 65.0898 68.2305 65.5169 68.7305C65.9544 69.2201 66.2721 69.819 66.47 70.5273H66.5481C66.819 69.8398 67.2044 69.2513 67.7044 68.7617C68.2148 68.2617 68.8085 67.8763 69.4856 67.6055C70.1731 67.3242 70.9127 67.1836 71.7044 67.1836C72.7981 67.1836 73.746 67.418 74.5481 67.8867C75.3606 68.3451 75.9908 68.9909 76.4388 69.8242C76.8971 70.6471 77.1263 71.6159 77.1263 72.7305V84.0898H73.2356V73.6836C73.2356 72.6628 72.9804 71.8711 72.47 71.3086C71.9596 70.7461 71.2252 70.4648 70.2669 70.4648C69.6419 70.4648 69.0898 70.6107 68.6106 70.9023C68.1419 71.1836 67.7721 71.5794 67.5013 72.0898C67.2408 72.6003 67.1106 73.1888 67.1106 73.8555V84.0898H63.3294V73.4805C63.3294 72.543 63.0638 71.8086 62.5325 71.2773C62.0117 70.7357 61.2981 70.4648 60.3919 70.4648C59.7669 70.4648 59.2148 70.6159 58.7356 70.918C58.2565 71.2201 57.8763 71.6315 57.595 72.1523C57.3242 72.6732 57.1888 73.2721 57.1888 73.9492V84.0898H53.3138ZM79.7206 84.0898V67.5273H83.6113V84.0898H79.7206ZM81.6581 65.1523C81.054 65.1523 80.5435 64.944 80.1269 64.5273C79.7102 64.1107 79.5019 63.6107 79.5019 63.0273C79.5019 62.4336 79.7102 61.9336 80.1269 61.5273C80.5435 61.1107 81.054 60.9023 81.6581 60.9023C82.2727 60.9023 82.7883 61.1107 83.205 61.5273C83.6217 61.9336 83.83 62.4336 83.83 63.0273C83.83 63.6107 83.6217 64.1107 83.205 64.5273C82.7883 64.944 82.2727 65.1523 81.6581 65.1523ZM95.5181 84.418C94.3306 84.418 93.2942 84.1419 92.4088 83.5898C91.5233 83.0273 90.841 82.2565 90.3619 81.2773H90.2838V84.0898H86.3931V61.543H90.2838V70.3711H90.3619C90.841 69.3815 91.5285 68.6055 92.4244 68.043C93.3306 67.4701 94.3723 67.1836 95.5494 67.1836C96.9348 67.1836 98.1379 67.5326 99.1588 68.2305C100.18 68.918 100.971 69.9076 101.534 71.1992C102.096 72.4805 102.378 74.0117 102.378 75.793V75.8086C102.378 77.5794 102.096 79.1107 101.534 80.4023C100.982 81.694 100.19 82.6888 99.1588 83.3867C98.1379 84.0742 96.9244 84.418 95.5181 84.418ZM94.3619 81.1523C95.1952 81.1523 95.914 80.9388 96.5181 80.5117C97.1327 80.0742 97.6015 79.4544 97.9244 78.6523C98.2473 77.8503 98.4088 76.9023 98.4088 75.8086V75.793C98.4088 74.6888 98.2421 73.7409 97.9088 72.9492C97.5858 72.1576 97.1223 71.5482 96.5181 71.1211C95.914 70.6836 95.1952 70.4648 94.3619 70.4648C93.5598 70.4648 92.8515 70.6836 92.2369 71.1211C91.6327 71.5586 91.1535 72.1784 90.7994 72.9805C90.4452 73.7721 90.2681 74.7096 90.2681 75.793V75.8086C90.2681 76.8919 90.44 77.8346 90.7838 78.6367C91.1379 79.4388 91.6223 80.0586 92.2369 80.4961C92.8515 80.9336 93.5598 81.1523 94.3619 81.1523ZM111.566 84.418C109.941 84.418 108.529 84.0742 107.331 83.3867C106.133 82.6888 105.201 81.6992 104.534 80.418C103.878 79.1263 103.55 77.5898 103.55 75.8086V75.7773C103.55 74.0065 103.883 72.4805 104.55 71.1992C105.217 69.9076 106.149 68.918 107.347 68.2305C108.545 67.5326 109.946 67.1836 111.55 67.1836C113.165 67.1836 114.571 67.5326 115.769 68.2305C116.977 68.918 117.915 69.9023 118.581 71.1836C119.248 72.4648 119.581 73.9961 119.581 75.7773V75.8086C119.581 77.6003 119.248 79.1419 118.581 80.4336C117.925 81.7148 116.998 82.6992 115.8 83.3867C114.602 84.0742 113.191 84.418 111.566 84.418ZM111.581 81.2773C112.404 81.2773 113.118 81.0638 113.722 80.6367C114.326 80.2096 114.79 79.5898 115.113 78.7773C115.446 77.9544 115.613 76.9648 115.613 75.8086V75.7773C115.613 74.6315 115.446 73.6523 115.113 72.8398C114.779 72.0273 114.305 71.4076 113.691 70.9805C113.086 70.5534 112.373 70.3398 111.55 70.3398C110.748 70.3398 110.04 70.5534 109.425 70.9805C108.821 71.4076 108.347 72.0273 108.003 72.8398C107.67 73.6523 107.503 74.6315 107.503 75.7773V75.8086C107.503 76.9648 107.67 77.9544 108.003 78.7773C108.347 79.5898 108.821 80.2096 109.425 80.6367C110.04 81.0638 110.758 81.2773 111.581 81.2773ZM121.551 84.0898V61.543H125.441V84.0898H121.551ZM134.27 84.418C132.874 84.418 131.661 84.0742 130.629 83.3867C129.609 82.6888 128.817 81.694 128.254 80.4023C127.702 79.1107 127.426 77.5794 127.426 75.8086V75.793C127.426 74.0117 127.707 72.4805 128.27 71.1992C128.832 69.9076 129.624 68.918 130.645 68.2305C131.666 67.5326 132.869 67.1836 134.254 67.1836C135.431 67.1836 136.468 67.4701 137.364 68.043C138.27 68.6055 138.957 69.3815 139.426 70.3711H139.52V61.543H143.395V84.0898H139.52V81.2773H139.426C138.957 82.2565 138.28 83.0273 137.395 83.5898C136.51 84.1419 135.468 84.418 134.27 84.418ZM135.442 81.1523C136.244 81.1523 136.952 80.9336 137.567 80.4961C138.181 80.0586 138.661 79.4388 139.004 78.6367C139.348 77.8346 139.52 76.8919 139.52 75.8086V75.793C139.52 74.7096 139.343 73.7721 138.989 72.9805C138.645 72.1784 138.166 71.5586 137.551 71.1211C136.947 70.6836 136.244 70.4648 135.442 70.4648C134.609 70.4648 133.885 70.6836 133.27 71.1211C132.666 71.5482 132.197 72.1576 131.864 72.9492C131.541 73.7409 131.379 74.6888 131.379 75.793V75.8086C131.379 76.9023 131.541 77.8503 131.864 78.6523C132.197 79.4544 132.666 80.0742 133.27 80.5117C133.885 80.9388 134.609 81.1523 135.442 81.1523Z" fill="black"/>
<path opacity="0.07" d="M118.941 115.59V31.0391H149.82C158.258 31.0391 165.465 32.6797 171.441 35.9609C177.418 39.2422 182.008 44.0078 185.211 50.2578C188.414 56.5078 190.016 64.0859 190.016 72.9922V73.1094C190.016 82.0156 188.414 89.6523 185.211 96.0195C182.047 102.348 177.457 107.191 171.441 110.551C165.465 113.91 158.258 115.59 149.82 115.59H118.941ZM134.059 102.875H148.238C153.941 102.875 158.746 101.742 162.652 99.4766C166.559 97.1719 169.527 93.832 171.559 89.457C173.59 85.043 174.605 79.6133 174.605 73.168V73.0508C174.605 66.7617 173.57 61.4297 171.5 57.0547C169.469 52.6797 166.48 49.3789 162.535 47.1523C158.629 44.8867 153.863 43.7539 148.238 43.7539H134.059V102.875Z" fill="black"/>
</g>
<rect x="0.5" y="1.08984" width="164" height="144" rx="13.5" stroke="black" stroke-opacity="0.1"/>
<defs>
<clipPath id="clip0_347_13507">
<rect y="0.589844" width="165" height="145" rx="14" fill="white"/>
</clipPath>
</defs>
</svg>
