<svg viewBox="0 0 223 109" fill="none" xmlns="http://www.w3.org/2000/svg">
<rect y="0.589966" width="222.5" height="108" rx="14" fill="#F9F9F9"/>
<rect x="0.5" y="1.08997" width="221.5" height="107" rx="13.5" stroke="black" stroke-opacity="0.1"/>
<rect width="190.5" height="15" transform="translate(16 47.59)" fill="black" fill-opacity="0.09"/>
<path d="M16.5054 60.59L20.4019 50.0211H21.4126V51.7277H20.9951L17.8896 60.59H16.5054ZM18.2705 57.5651L18.6807 56.4445H23.4561L23.8662 57.5651H18.2705ZM24.2178 60.59L21.1123 51.7277V50.0211H21.7056L25.6021 60.59H24.2178ZM27.3232 60.59V52.6945H28.5977V60.59H27.3232ZM27.9678 51.171C27.7285 51.171 27.521 51.0856 27.3452 50.9147C27.1743 50.7389 27.0889 50.5314 27.0889 50.2921C27.0889 50.048 27.1743 49.8405 27.3452 49.6696C27.521 49.4987 27.7285 49.4132 27.9678 49.4132C28.2119 49.4132 28.4194 49.4987 28.5903 49.6696C28.7612 49.8405 28.8467 50.048 28.8467 50.2921C28.8467 50.5314 28.7612 50.7389 28.5903 50.9147C28.4194 51.0856 28.2119 51.171 27.9678 51.171ZM38.0239 60.6486C37.2134 60.6486 36.625 60.485 36.2588 60.1578C35.8975 59.8307 35.7168 59.2911 35.7168 58.5392V53.7491H34.4717V52.6945H35.7168V50.651H37.0352V52.6945H38.7637V53.7491H37.0352V58.2169C37.0352 58.6808 37.123 59.0153 37.2988 59.2203C37.4746 59.4205 37.7676 59.5206 38.1777 59.5206C38.29 59.5206 38.3853 59.5182 38.4634 59.5133C38.5464 59.5084 38.6465 59.5011 38.7637 59.4913V60.5753C38.6416 60.5948 38.5195 60.6119 38.3975 60.6266C38.2754 60.6412 38.1509 60.6486 38.0239 60.6486ZM40.7412 60.59V49.5597H42.0156V53.881H42.1328C42.333 53.4611 42.6211 53.1364 42.9971 52.9069C43.373 52.6725 43.8516 52.5553 44.4326 52.5553C45.0234 52.5553 45.5239 52.67 45.9341 52.8995C46.3442 53.1241 46.6567 53.4537 46.8716 53.8883C47.0864 54.3229 47.1938 54.8527 47.1938 55.4777V60.59H45.9194V55.7853C45.9194 55.0724 45.7681 54.545 45.4653 54.2032C45.1675 53.8566 44.7036 53.6832 44.0737 53.6832C43.6538 53.6832 43.29 53.7736 42.9824 53.9542C42.6748 54.1349 42.4355 54.3912 42.2646 54.7233C42.0986 55.0553 42.0156 55.4532 42.0156 55.9171V60.59H40.7412ZM51.6689 60.7291C51.1709 60.7291 50.7217 60.6339 50.3213 60.4435C49.9258 60.2531 49.6108 59.9821 49.3765 59.6305C49.147 59.2789 49.0322 58.8639 49.0322 58.3854V58.3707C49.0322 57.6676 49.2812 57.1183 49.7793 56.7228C50.2822 56.3224 50.9927 56.0953 51.9106 56.0416L54.811 55.8658V56.8839L52.0645 57.0597C51.4639 57.0939 51.0244 57.2184 50.7461 57.4332C50.4727 57.6481 50.3359 57.9508 50.3359 58.3414V58.3561C50.3359 58.7565 50.4873 59.069 50.79 59.2936C51.0928 59.5133 51.4736 59.6232 51.9326 59.6232C52.3672 59.6232 52.7529 59.5377 53.0898 59.3668C53.4268 59.191 53.6904 58.9542 53.8809 58.6564C54.0762 58.3585 54.1738 58.0216 54.1738 57.6456V55.1847C54.1738 54.6964 54.0249 54.3253 53.7271 54.0714C53.4341 53.8126 52.9922 53.6832 52.4014 53.6832C51.9277 53.6832 51.5396 53.7687 51.2368 53.9396C50.9341 54.1056 50.7314 54.3424 50.6289 54.65L50.6216 54.672H49.3472L49.3545 54.6281C49.4229 54.213 49.5938 53.8517 49.8672 53.5441C50.1455 53.2316 50.5044 52.9899 50.9438 52.819C51.3833 52.6432 51.8838 52.5553 52.4453 52.5553C53.0898 52.5553 53.6343 52.6603 54.0786 52.8702C54.5278 53.0802 54.8672 53.3829 55.0967 53.7784C55.3311 54.1691 55.4482 54.6378 55.4482 55.1847V60.59H54.1738V59.4254H54.0566C53.8906 59.7037 53.688 59.9406 53.4487 60.1359C53.2144 60.3312 52.9482 60.4801 52.6504 60.5826C52.3525 60.6803 52.0254 60.7291 51.6689 60.7291ZM60.5825 60.6486C59.772 60.6486 59.1836 60.485 58.8174 60.1578C58.4561 59.8307 58.2754 59.2911 58.2754 58.5392V53.7491H57.0303V52.6945H58.2754V50.651H59.5938V52.6945H61.3223V53.7491H59.5938V58.2169C59.5938 58.6808 59.6816 59.0153 59.8574 59.2203C60.0332 59.4205 60.3262 59.5206 60.7363 59.5206C60.8486 59.5206 60.9438 59.5182 61.022 59.5133C61.105 59.5084 61.2051 59.5011 61.3223 59.4913V60.5753C61.2002 60.5948 61.0781 60.6119 60.9561 60.6266C60.834 60.6412 60.7095 60.6486 60.5825 60.6486ZM68.9688 60.59L66.7568 52.6945H68.0312L69.584 59.0079H69.7012L71.4663 52.6945H72.6748L74.4399 59.0079H74.5571L76.1099 52.6945H77.377L75.165 60.59H73.8833L72.1182 54.4816H72.001L70.2432 60.59H68.9688ZM82.0132 60.7291C81.2661 60.7291 80.6191 60.5656 80.0723 60.2384C79.5303 59.9064 79.1104 59.4352 78.8125 58.8248C78.5195 58.2145 78.373 57.4894 78.373 56.6495V56.6349C78.373 55.7902 78.5195 55.0626 78.8125 54.4523C79.1104 53.8419 79.5303 53.3732 80.0723 53.046C80.6191 52.7189 81.2661 52.5553 82.0132 52.5553C82.7651 52.5553 83.4121 52.7189 83.9541 53.046C84.4961 53.3732 84.9136 53.8419 85.2065 54.4523C85.5044 55.0626 85.6533 55.7902 85.6533 56.6349V56.6495C85.6533 57.4894 85.5044 58.2145 85.2065 58.8248C84.9136 59.4352 84.4961 59.9064 83.9541 60.2384C83.4121 60.5656 82.7651 60.7291 82.0132 60.7291ZM82.0132 59.6012C82.5112 59.6012 82.9336 59.484 83.2803 59.2496C83.627 59.0153 83.8906 58.6783 84.0713 58.2389C84.2568 57.7994 84.3496 57.2697 84.3496 56.6495V56.6349C84.3496 56.0099 84.2568 55.4777 84.0713 55.0382C83.8906 54.5988 83.627 54.2643 83.2803 54.0348C82.9336 53.8004 82.5112 53.6832 82.0132 53.6832C81.5151 53.6832 81.0928 53.8004 80.7461 54.0348C80.3994 54.2643 80.1333 54.5988 79.9478 55.0382C79.7671 55.4777 79.6768 56.0099 79.6768 56.6349V56.6495C79.6768 57.2697 79.7671 57.7994 79.9478 58.2389C80.1333 58.6783 80.3994 59.0153 80.7461 59.2496C81.0928 59.484 81.5151 59.6012 82.0132 59.6012ZM87.6309 60.59V52.6945H88.9053V53.8663H89.0225C89.1738 53.4513 89.4302 53.129 89.7915 52.8995C90.1528 52.67 90.5996 52.5553 91.1318 52.5553C91.2539 52.5553 91.3735 52.5626 91.4907 52.5773C91.6128 52.587 91.7056 52.5968 91.769 52.6066V53.8444C91.6372 53.8199 91.5078 53.8029 91.3809 53.7931C91.2588 53.7784 91.127 53.7711 90.9854 53.7711C90.5801 53.7711 90.2212 53.8517 89.9087 54.0128C89.5962 54.174 89.3496 54.3986 89.1689 54.6866C88.9932 54.9747 88.9053 55.3116 88.9053 55.6974V60.59H87.6309ZM93.417 60.59V49.5597H94.6914V60.59H93.417ZM98.3901 60.59L95.3066 56.7228L96.2441 55.9098L99.9941 60.59H98.3901ZM94.5303 57.7482L94.4717 56.1442H94.8086L98.2217 52.6945H99.7671L96.0171 56.3126L95.7095 56.6129L94.5303 57.7482ZM103.905 60.7291C103.319 60.7291 102.802 60.6412 102.353 60.4655C101.903 60.2848 101.542 60.0333 101.269 59.7111C101 59.3888 100.841 59.0104 100.792 58.5758H102.096C102.204 58.903 102.414 59.1666 102.726 59.3668C103.039 59.567 103.446 59.6671 103.949 59.6671C104.306 59.6671 104.618 59.6158 104.887 59.5133C105.16 59.4059 105.375 59.2618 105.531 59.0812C105.688 58.8956 105.766 58.6832 105.766 58.444V58.4293C105.766 58.1608 105.658 57.9337 105.443 57.7482C105.229 57.5577 104.877 57.4039 104.389 57.2867L103.166 56.9938C102.428 56.818 101.886 56.5616 101.54 56.2247C101.193 55.8829 101.02 55.4288 101.02 54.8624V54.8551C101.02 54.4156 101.146 54.0226 101.4 53.6759C101.659 53.3292 102.011 53.0558 102.455 52.8556C102.899 52.6554 103.4 52.5553 103.957 52.5553C104.508 52.5553 104.997 52.6432 105.421 52.819C105.851 52.9899 106.195 53.234 106.454 53.5514C106.718 53.8688 106.879 54.2423 106.938 54.672H105.685C105.602 54.3595 105.412 54.1056 105.114 53.9103C104.816 53.715 104.428 53.6173 103.949 53.6173C103.637 53.6173 103.358 53.6686 103.114 53.7711C102.87 53.8688 102.677 54.0055 102.536 54.1813C102.394 54.3571 102.323 54.5621 102.323 54.7965V54.8112C102.323 55.0797 102.428 55.3019 102.638 55.4777C102.848 55.6534 103.185 55.7975 103.649 55.9098L104.865 56.2028C105.607 56.3834 106.159 56.6422 106.52 56.9791C106.886 57.316 107.069 57.7677 107.069 58.3341V58.3488C107.069 58.8175 106.93 59.2325 106.652 59.5939C106.374 59.9503 105.995 60.2286 105.517 60.4288C105.043 60.629 104.506 60.7291 103.905 60.7291ZM113.793 60.59V53.7491H112.482V52.6945H113.793V51.8156C113.793 51.0294 113.988 50.4459 114.379 50.0651C114.77 49.6793 115.338 49.4865 116.085 49.4865C116.242 49.4865 116.388 49.4938 116.525 49.5084C116.667 49.5182 116.803 49.5353 116.935 49.5597V50.5778C116.857 50.5631 116.767 50.5533 116.664 50.5485C116.562 50.5436 116.454 50.5411 116.342 50.5411C115.888 50.5411 115.561 50.651 115.36 50.8707C115.165 51.0905 115.067 51.4176 115.067 51.8522V52.6945H116.862V53.7491H115.067V60.59H113.793ZM121.623 60.7291C120.875 60.7291 120.229 60.5656 119.682 60.2384C119.14 59.9064 118.72 59.4352 118.422 58.8248C118.129 58.2145 117.982 57.4894 117.982 56.6495V56.6349C117.982 55.7902 118.129 55.0626 118.422 54.4523C118.72 53.8419 119.14 53.3732 119.682 53.046C120.229 52.7189 120.875 52.5553 121.623 52.5553C122.375 52.5553 123.021 52.7189 123.563 53.046C124.105 53.3732 124.523 53.8419 124.816 54.4523C125.114 55.0626 125.263 55.7902 125.263 56.6349V56.6495C125.263 57.4894 125.114 58.2145 124.816 58.8248C124.523 59.4352 124.105 59.9064 123.563 60.2384C123.021 60.5656 122.375 60.7291 121.623 60.7291ZM121.623 59.6012C122.121 59.6012 122.543 59.484 122.89 59.2496C123.236 59.0153 123.5 58.6783 123.681 58.2389C123.866 57.7994 123.959 57.2697 123.959 56.6495V56.6349C123.959 56.0099 123.866 55.4777 123.681 55.0382C123.5 54.5988 123.236 54.2643 122.89 54.0348C122.543 53.8004 122.121 53.6832 121.623 53.6832C121.125 53.6832 120.702 53.8004 120.355 54.0348C120.009 54.2643 119.743 54.5988 119.557 55.0382C119.376 55.4777 119.286 56.0099 119.286 56.6349V56.6495C119.286 57.2697 119.376 57.7994 119.557 58.2389C119.743 58.6783 120.009 59.0153 120.355 59.2496C120.702 59.484 121.125 59.6012 121.623 59.6012ZM127.24 60.59V52.6945H128.515V53.8663H128.632C128.783 53.4513 129.04 53.129 129.401 52.8995C129.762 52.67 130.209 52.5553 130.741 52.5553C130.863 52.5553 130.983 52.5626 131.1 52.5773C131.222 52.587 131.315 52.5968 131.378 52.6066V53.8444C131.247 53.8199 131.117 53.8029 130.99 53.7931C130.868 53.7784 130.736 53.7711 130.595 53.7711C130.189 53.7711 129.831 53.8517 129.518 54.0128C129.206 54.174 128.959 54.3986 128.778 54.6866C128.603 54.9747 128.515 55.3116 128.515 55.6974V60.59H127.24ZM137.846 63.3585C137.763 63.3585 137.67 63.3536 137.567 63.3439C137.465 63.339 137.37 63.3292 137.282 63.3146V62.2672C137.36 62.2819 137.445 62.2916 137.538 62.2965C137.631 62.3014 137.721 62.3038 137.809 62.3038C138.17 62.3038 138.466 62.2111 138.695 62.0255C138.93 61.84 139.118 61.5201 139.259 61.066L139.406 60.5973L136.483 52.6945H137.846L140.277 59.9894L139.772 59.191H140.373L139.867 59.9894L142.292 52.6945H143.632L140.548 61.0734C140.329 61.6642 140.099 62.1256 139.86 62.4576C139.625 62.7897 139.347 63.0216 139.025 63.1534C138.708 63.2902 138.314 63.3585 137.846 63.3585ZM148.268 60.7291C147.521 60.7291 146.874 60.5656 146.327 60.2384C145.785 59.9064 145.365 59.4352 145.067 58.8248C144.774 58.2145 144.628 57.4894 144.628 56.6495V56.6349C144.628 55.7902 144.774 55.0626 145.067 54.4523C145.365 53.8419 145.785 53.3732 146.327 53.046C146.874 52.7189 147.521 52.5553 148.268 52.5553C149.02 52.5553 149.667 52.7189 150.209 53.046C150.751 53.3732 151.168 53.8419 151.461 54.4523C151.759 55.0626 151.908 55.7902 151.908 56.6349V56.6495C151.908 57.4894 151.759 58.2145 151.461 58.8248C151.168 59.4352 150.751 59.9064 150.209 60.2384C149.667 60.5656 149.02 60.7291 148.268 60.7291ZM148.268 59.6012C148.766 59.6012 149.188 59.484 149.535 59.2496C149.882 59.0153 150.146 58.6783 150.326 58.2389C150.512 57.7994 150.604 57.2697 150.604 56.6495V56.6349C150.604 56.0099 150.512 55.4777 150.326 55.0382C150.146 54.5988 149.882 54.2643 149.535 54.0348C149.188 53.8004 148.766 53.6832 148.268 53.6832C147.77 53.6832 147.348 53.8004 147.001 54.0348C146.654 54.2643 146.388 54.5988 146.203 55.0382C146.022 55.4777 145.932 56.0099 145.932 56.6349V56.6495C145.932 57.2697 146.022 57.7994 146.203 58.2389C146.388 58.6783 146.654 59.0153 147.001 59.2496C147.348 59.484 147.77 59.6012 148.268 59.6012ZM156.53 60.7291C155.934 60.7291 155.434 60.6168 155.028 60.3922C154.623 60.1627 154.318 59.8307 154.113 59.3961C153.913 58.9567 153.812 58.4269 153.812 57.8068V52.6945H155.087V57.4991C155.087 58.2072 155.224 58.7345 155.497 59.0812C155.775 59.4279 156.229 59.6012 156.859 59.6012C157.323 59.6012 157.714 59.5109 158.031 59.3302C158.349 59.1495 158.588 58.8932 158.749 58.5612C158.91 58.2242 158.991 57.8263 158.991 57.3673V52.6945H160.265V60.59H158.991V59.4108H158.874C158.678 59.8307 158.383 60.1554 157.987 60.3849C157.597 60.6144 157.111 60.7291 156.53 60.7291ZM163.686 60.6632C163.427 60.6632 163.202 60.5704 163.012 60.3849C162.826 60.1945 162.733 59.9698 162.733 59.7111C162.733 59.4474 162.826 59.2228 163.012 59.0372C163.202 58.8517 163.427 58.7589 163.686 58.7589C163.949 58.7589 164.174 58.8517 164.359 59.0372C164.545 59.2228 164.638 59.4474 164.638 59.7111C164.638 59.9698 164.545 60.1945 164.359 60.3849C164.174 60.5704 163.949 60.6632 163.686 60.6632Z" fill="black"/>
<path d="M22.9023 89.59H17.0078V88.6818H19.5039V82.3068H19.4102L16.9902 83.8712V82.7697L19.5098 81.1349H20.5234V88.6818H22.9023V89.59ZM27.127 89.6251C26.5469 89.6251 26.0664 89.1388 26.0664 88.5411C26.0664 87.9493 26.5469 87.463 27.127 87.463C27.707 87.463 28.1875 87.9493 28.1875 88.5411C28.1875 89.1388 27.707 89.6251 27.127 89.6251ZM34.5508 89.7833C32.7109 89.7833 31.6973 88.213 31.6973 85.3654C31.6973 82.5177 32.7109 80.9474 34.5508 80.9474C36.3848 80.9474 37.4043 82.5177 37.4043 85.3654C37.4043 88.213 36.3848 89.7833 34.5508 89.7833ZM32.7227 85.3654C32.7227 85.6993 32.7402 86.0099 32.7637 86.297L36.1738 83.4493C35.8984 82.4005 35.3477 81.8615 34.5508 81.8615C33.3555 81.8615 32.7227 83.0685 32.7227 85.3654ZM34.5508 88.8693C35.7461 88.8693 36.373 87.6564 36.373 85.3654C36.373 85.0255 36.3613 84.715 36.332 84.422L32.9336 87.2931C33.209 88.3302 33.7539 88.8693 34.5508 88.8693Z" fill="black"/>
<path d="M48.1035 85.3595C48.1035 83.3732 48.7012 81.6447 49.8672 80.3204H50.8574C49.6445 82.0255 49.1348 83.5197 49.1348 85.3595C49.1348 87.1993 49.6445 88.6935 50.8574 90.3986H49.8672C48.7012 89.0743 48.1035 87.3517 48.1035 85.3595ZM59.9922 89.59H54.0977V88.6818H56.5938V82.3068H56.5L54.0801 83.8712V82.7697L56.5996 81.1349H57.6133V88.6818H59.9922V89.59ZM64.2227 89.7833C62.3828 89.7833 61.3691 88.213 61.3691 85.3654C61.3691 82.5177 62.3828 80.9474 64.2227 80.9474C66.0566 80.9474 67.0762 82.5177 67.0762 85.3654C67.0762 88.213 66.0566 89.7833 64.2227 89.7833ZM62.3945 85.3654C62.3945 85.6993 62.4121 86.0099 62.4355 86.297L65.8457 83.4493C65.5703 82.4005 65.0195 81.8615 64.2227 81.8615C63.0273 81.8615 62.3945 83.0685 62.3945 85.3654ZM64.2227 88.8693C65.418 88.8693 66.0449 87.6564 66.0449 85.3654C66.0449 85.0255 66.0332 84.715 66.0039 84.422L62.6055 87.2931C62.8809 88.3302 63.4258 88.8693 64.2227 88.8693ZM71.6406 89.7833C69.8008 89.7833 68.7871 88.213 68.7871 85.3654C68.7871 82.5177 69.8008 80.9474 71.6406 80.9474C73.4746 80.9474 74.4941 82.5177 74.4941 85.3654C74.4941 88.213 73.4746 89.7833 71.6406 89.7833ZM69.8125 85.3654C69.8125 85.6993 69.8301 86.0099 69.8535 86.297L73.2637 83.4493C72.9883 82.4005 72.4375 81.8615 71.6406 81.8615C70.4453 81.8615 69.8125 83.0685 69.8125 85.3654ZM71.6406 88.8693C72.8359 88.8693 73.4629 87.6564 73.4629 85.3654C73.4629 85.0255 73.4512 84.715 73.4219 84.422L70.0234 87.2931C70.2988 88.3302 70.8438 88.8693 71.6406 88.8693ZM76.9668 85.213C75.9766 85.213 75.3613 84.5216 75.3613 83.4142V82.8107C75.3613 81.715 75.9824 81.0236 76.9668 81.0236C77.9512 81.0236 78.5664 81.715 78.5664 82.8107V83.4142C78.5664 84.5216 77.957 85.213 76.9668 85.213ZM82.7617 81.1349V82.0431L75.3438 89.59V88.6818L82.7617 81.1349ZM76.9668 84.4747C77.5234 84.4747 77.8164 84.0704 77.8164 83.3029V82.9337C77.8164 82.1661 77.5234 81.7618 76.9668 81.7618C76.4043 81.7618 76.1113 82.1661 76.1113 82.9337V83.3029C76.1113 84.0704 76.4043 84.4747 76.9668 84.4747ZM81.1387 89.7013C80.1484 89.7013 79.5391 89.0099 79.5391 87.9025V87.299C79.5391 86.2091 80.1543 85.5118 81.1387 85.5118C82.123 85.5118 82.7441 86.2091 82.7441 87.299V87.9025C82.7441 89.0099 82.1289 89.7013 81.1387 89.7013ZM81.1387 88.9689C81.7012 88.9689 81.9941 88.5587 81.9941 87.7911V87.422C81.9941 86.6544 81.7012 86.2501 81.1387 86.2501C80.582 86.2501 80.2891 86.6544 80.2891 87.422V87.7911C80.2891 88.5587 80.582 88.9689 81.1387 88.9689ZM87.748 85.3595C87.748 87.3517 87.1504 89.0743 85.9844 90.3986H84.9941C86.207 88.6935 86.7168 87.1993 86.7168 85.3595C86.7168 83.5197 86.207 82.0255 84.9941 80.3204H85.9844C87.1504 81.6447 87.748 83.3732 87.748 85.3595Z" fill="#222222" fill-opacity="0.5"/>
</svg>
