<svg viewBox="0 0 223 109" fill="none" xmlns="http://www.w3.org/2000/svg">
<rect x="0.5" y="0.589966" width="222.5" height="108" rx="14" fill="#F9F9F9"/>
<rect x="1" y="1.08997" width="221.5" height="107" rx="13.5" stroke="black" stroke-opacity="0.1"/>
<rect width="190.5" height="18" transform="translate(16.5 44.59)" fill="black" fill-opacity="0.09"/>
<path d="M17.0054 58.59L20.9019 48.0211H21.9126V49.7277H21.4951L18.3896 58.59H17.0054ZM18.7705 55.5651L19.1807 54.4445H23.9561L24.3662 55.5651H18.7705ZM24.7178 58.59L21.6123 49.7277V48.0211H22.2056L26.1021 58.59H24.7178ZM27.8232 58.59V50.6945H29.0977V58.59H27.8232ZM28.4678 49.171C28.2285 49.171 28.021 49.0856 27.8452 48.9147C27.6743 48.7389 27.5889 48.5314 27.5889 48.2921C27.5889 48.048 27.6743 47.8405 27.8452 47.6696C28.021 47.4987 28.2285 47.4132 28.4678 47.4132C28.7119 47.4132 28.9194 47.4987 29.0903 47.6696C29.2612 47.8405 29.3467 48.048 29.3467 48.2921C29.3467 48.5314 29.2612 48.7389 29.0903 48.9147C28.9194 49.0856 28.7119 49.171 28.4678 49.171ZM38.5239 58.6486C37.7134 58.6486 37.125 58.485 36.7588 58.1578C36.3975 57.8307 36.2168 57.2911 36.2168 56.5392V51.7491H34.9717V50.6945H36.2168V48.651H37.5352V50.6945H39.2637V51.7491H37.5352V56.2169C37.5352 56.6808 37.623 57.0153 37.7988 57.2203C37.9746 57.4205 38.2676 57.5206 38.6777 57.5206C38.79 57.5206 38.8853 57.5182 38.9634 57.5133C39.0464 57.5084 39.1465 57.5011 39.2637 57.4913V58.5753C39.1416 58.5948 39.0195 58.6119 38.8975 58.6266C38.7754 58.6412 38.6509 58.6486 38.5239 58.6486ZM41.2412 58.59V47.5597H42.5156V51.881H42.6328C42.833 51.4611 43.1211 51.1364 43.4971 50.9069C43.873 50.6725 44.3516 50.5553 44.9326 50.5553C45.5234 50.5553 46.0239 50.67 46.4341 50.8995C46.8442 51.1241 47.1567 51.4537 47.3716 51.8883C47.5864 52.3229 47.6938 52.8527 47.6938 53.4777V58.59H46.4194V53.7853C46.4194 53.0724 46.2681 52.545 45.9653 52.2032C45.6675 51.8566 45.2036 51.6832 44.5737 51.6832C44.1538 51.6832 43.79 51.7736 43.4824 51.9542C43.1748 52.1349 42.9355 52.3912 42.7646 52.7233C42.5986 53.0553 42.5156 53.4532 42.5156 53.9171V58.59H41.2412ZM52.1689 58.7291C51.6709 58.7291 51.2217 58.6339 50.8213 58.4435C50.4258 58.2531 50.1108 57.9821 49.8765 57.6305C49.647 57.2789 49.5322 56.8639 49.5322 56.3854V56.3707C49.5322 55.6676 49.7812 55.1183 50.2793 54.7228C50.7822 54.3224 51.4927 54.0953 52.4106 54.0416L55.311 53.8658V54.8839L52.5645 55.0597C51.9639 55.0939 51.5244 55.2184 51.2461 55.4332C50.9727 55.6481 50.8359 55.9508 50.8359 56.3414V56.3561C50.8359 56.7565 50.9873 57.069 51.29 57.2936C51.5928 57.5133 51.9736 57.6232 52.4326 57.6232C52.8672 57.6232 53.2529 57.5377 53.5898 57.3668C53.9268 57.191 54.1904 56.9542 54.3809 56.6564C54.5762 56.3585 54.6738 56.0216 54.6738 55.6456V53.1847C54.6738 52.6964 54.5249 52.3253 54.2271 52.0714C53.9341 51.8126 53.4922 51.6832 52.9014 51.6832C52.4277 51.6832 52.0396 51.7687 51.7368 51.9396C51.4341 52.1056 51.2314 52.3424 51.1289 52.65L51.1216 52.672H49.8472L49.8545 52.6281C49.9229 52.213 50.0938 51.8517 50.3672 51.5441C50.6455 51.2316 51.0044 50.9899 51.4438 50.819C51.8833 50.6432 52.3838 50.5553 52.9453 50.5553C53.5898 50.5553 54.1343 50.6603 54.5786 50.8702C55.0278 51.0802 55.3672 51.3829 55.5967 51.7784C55.8311 52.1691 55.9482 52.6378 55.9482 53.1847V58.59H54.6738V57.4254H54.5566C54.3906 57.7037 54.188 57.9406 53.9487 58.1359C53.7144 58.3312 53.4482 58.4801 53.1504 58.5826C52.8525 58.6803 52.5254 58.7291 52.1689 58.7291ZM61.0825 58.6486C60.272 58.6486 59.6836 58.485 59.3174 58.1578C58.9561 57.8307 58.7754 57.2911 58.7754 56.5392V51.7491H57.5303V50.6945H58.7754V48.651H60.0938V50.6945H61.8223V51.7491H60.0938V56.2169C60.0938 56.6808 60.1816 57.0153 60.3574 57.2203C60.5332 57.4205 60.8262 57.5206 61.2363 57.5206C61.3486 57.5206 61.4438 57.5182 61.522 57.5133C61.605 57.5084 61.7051 57.5011 61.8223 57.4913V58.5753C61.7002 58.5948 61.5781 58.6119 61.4561 58.6266C61.334 58.6412 61.2095 58.6486 61.0825 58.6486ZM69.4688 58.59L67.2568 50.6945H68.5312L70.084 57.0079H70.2012L71.9663 50.6945H73.1748L74.9399 57.0079H75.0571L76.6099 50.6945H77.877L75.665 58.59H74.3833L72.6182 52.4816H72.501L70.7432 58.59H69.4688ZM82.5132 58.7291C81.7661 58.7291 81.1191 58.5656 80.5723 58.2384C80.0303 57.9064 79.6104 57.4352 79.3125 56.8248C79.0195 56.2145 78.873 55.4894 78.873 54.6495V54.6349C78.873 53.7902 79.0195 53.0626 79.3125 52.4523C79.6104 51.8419 80.0303 51.3732 80.5723 51.046C81.1191 50.7189 81.7661 50.5553 82.5132 50.5553C83.2651 50.5553 83.9121 50.7189 84.4541 51.046C84.9961 51.3732 85.4136 51.8419 85.7065 52.4523C86.0044 53.0626 86.1533 53.7902 86.1533 54.6349V54.6495C86.1533 55.4894 86.0044 56.2145 85.7065 56.8248C85.4136 57.4352 84.9961 57.9064 84.4541 58.2384C83.9121 58.5656 83.2651 58.7291 82.5132 58.7291ZM82.5132 57.6012C83.0112 57.6012 83.4336 57.484 83.7803 57.2496C84.127 57.0153 84.3906 56.6783 84.5713 56.2389C84.7568 55.7994 84.8496 55.2697 84.8496 54.6495V54.6349C84.8496 54.0099 84.7568 53.4777 84.5713 53.0382C84.3906 52.5988 84.127 52.2643 83.7803 52.0348C83.4336 51.8004 83.0112 51.6832 82.5132 51.6832C82.0151 51.6832 81.5928 51.8004 81.2461 52.0348C80.8994 52.2643 80.6333 52.5988 80.4478 53.0382C80.2671 53.4777 80.1768 54.0099 80.1768 54.6349V54.6495C80.1768 55.2697 80.2671 55.7994 80.4478 56.2389C80.6333 56.6783 80.8994 57.0153 81.2461 57.2496C81.5928 57.484 82.0151 57.6012 82.5132 57.6012ZM88.1309 58.59V50.6945H89.4053V51.8663H89.5225C89.6738 51.4513 89.9302 51.129 90.2915 50.8995C90.6528 50.67 91.0996 50.5553 91.6318 50.5553C91.7539 50.5553 91.8735 50.5626 91.9907 50.5773C92.1128 50.587 92.2056 50.5968 92.269 50.6066V51.8444C92.1372 51.8199 92.0078 51.8029 91.8809 51.7931C91.7588 51.7784 91.627 51.7711 91.4854 51.7711C91.0801 51.7711 90.7212 51.8517 90.4087 52.0128C90.0962 52.174 89.8496 52.3986 89.6689 52.6866C89.4932 52.9747 89.4053 53.3116 89.4053 53.6974V58.59H88.1309ZM93.917 58.59V47.5597H95.1914V58.59H93.917ZM98.8901 58.59L95.8066 54.7228L96.7441 53.9098L100.494 58.59H98.8901ZM95.0303 55.7482L94.9717 54.1442H95.3086L98.7217 50.6945H100.267L96.5171 54.3126L96.2095 54.6129L95.0303 55.7482ZM104.405 58.7291C103.819 58.7291 103.302 58.6412 102.853 58.4655C102.403 58.2848 102.042 58.0333 101.769 57.7111C101.5 57.3888 101.341 57.0104 101.292 56.5758H102.596C102.704 56.903 102.914 57.1666 103.226 57.3668C103.539 57.567 103.946 57.6671 104.449 57.6671C104.806 57.6671 105.118 57.6158 105.387 57.5133C105.66 57.4059 105.875 57.2618 106.031 57.0812C106.188 56.8956 106.266 56.6832 106.266 56.444V56.4293C106.266 56.1608 106.158 55.9337 105.943 55.7482C105.729 55.5577 105.377 55.4039 104.889 55.2867L103.666 54.9938C102.928 54.818 102.386 54.5616 102.04 54.2247C101.693 53.8829 101.52 53.4288 101.52 52.8624V52.8551C101.52 52.4156 101.646 52.0226 101.9 51.6759C102.159 51.3292 102.511 51.0558 102.955 50.8556C103.399 50.6554 103.9 50.5553 104.457 50.5553C105.008 50.5553 105.497 50.6432 105.921 50.819C106.351 50.9899 106.695 51.234 106.954 51.5514C107.218 51.8688 107.379 52.2423 107.438 52.672H106.185C106.102 52.3595 105.912 52.1056 105.614 51.9103C105.316 51.715 104.928 51.6173 104.449 51.6173C104.137 51.6173 103.858 51.6686 103.614 51.7711C103.37 51.8688 103.177 52.0055 103.036 52.1813C102.894 52.3571 102.823 52.5621 102.823 52.7965V52.8112C102.823 53.0797 102.928 53.3019 103.138 53.4777C103.348 53.6534 103.685 53.7975 104.149 53.9098L105.365 54.2028C106.107 54.3834 106.659 54.6422 107.02 54.9791C107.386 55.316 107.569 55.7677 107.569 56.3341V56.3488C107.569 56.8175 107.43 57.2325 107.152 57.5939C106.874 57.9503 106.495 58.2286 106.017 58.4288C105.543 58.629 105.006 58.7291 104.405 58.7291ZM114.293 58.59V51.7491H112.982V50.6945H114.293V49.8156C114.293 49.0294 114.488 48.4459 114.879 48.0651C115.27 47.6793 115.838 47.4865 116.585 47.4865C116.742 47.4865 116.888 47.4938 117.025 47.5084C117.167 47.5182 117.303 47.5353 117.435 47.5597V48.5778C117.357 48.5631 117.267 48.5533 117.164 48.5485C117.062 48.5436 116.954 48.5411 116.842 48.5411C116.388 48.5411 116.061 48.651 115.86 48.8707C115.665 49.0905 115.567 49.4176 115.567 49.8522V50.6945H117.362V51.7491H115.567V58.59H114.293ZM122.123 58.7291C121.375 58.7291 120.729 58.5656 120.182 58.2384C119.64 57.9064 119.22 57.4352 118.922 56.8248C118.629 56.2145 118.482 55.4894 118.482 54.6495V54.6349C118.482 53.7902 118.629 53.0626 118.922 52.4523C119.22 51.8419 119.64 51.3732 120.182 51.046C120.729 50.7189 121.375 50.5553 122.123 50.5553C122.875 50.5553 123.521 50.7189 124.063 51.046C124.605 51.3732 125.023 51.8419 125.316 52.4523C125.614 53.0626 125.763 53.7902 125.763 54.6349V54.6495C125.763 55.4894 125.614 56.2145 125.316 56.8248C125.023 57.4352 124.605 57.9064 124.063 58.2384C123.521 58.5656 122.875 58.7291 122.123 58.7291ZM122.123 57.6012C122.621 57.6012 123.043 57.484 123.39 57.2496C123.736 57.0153 124 56.6783 124.181 56.2389C124.366 55.7994 124.459 55.2697 124.459 54.6495V54.6349C124.459 54.0099 124.366 53.4777 124.181 53.0382C124 52.5988 123.736 52.2643 123.39 52.0348C123.043 51.8004 122.621 51.6832 122.123 51.6832C121.625 51.6832 121.202 51.8004 120.855 52.0348C120.509 52.2643 120.243 52.5988 120.057 53.0382C119.876 53.4777 119.786 54.0099 119.786 54.6349V54.6495C119.786 55.2697 119.876 55.7994 120.057 56.2389C120.243 56.6783 120.509 57.0153 120.855 57.2496C121.202 57.484 121.625 57.6012 122.123 57.6012ZM127.74 58.59V50.6945H129.015V51.8663H129.132C129.283 51.4513 129.54 51.129 129.901 50.8995C130.262 50.67 130.709 50.5553 131.241 50.5553C131.363 50.5553 131.483 50.5626 131.6 50.5773C131.722 50.587 131.815 50.5968 131.878 50.6066V51.8444C131.747 51.8199 131.617 51.8029 131.49 51.7931C131.368 51.7784 131.236 51.7711 131.095 51.7711C130.689 51.7711 130.331 51.8517 130.018 52.0128C129.706 52.174 129.459 52.3986 129.278 52.6866C129.103 52.9747 129.015 53.3116 129.015 53.6974V58.59H127.74ZM138.346 61.3585C138.263 61.3585 138.17 61.3536 138.067 61.3439C137.965 61.339 137.87 61.3292 137.782 61.3146V60.2672C137.86 60.2819 137.945 60.2916 138.038 60.2965C138.131 60.3014 138.221 60.3038 138.309 60.3038C138.67 60.3038 138.966 60.2111 139.195 60.0255C139.43 59.84 139.618 59.5201 139.759 59.066L139.906 58.5973L136.983 50.6945H138.346L140.777 57.9894L140.272 57.191H140.873L140.367 57.9894L142.792 50.6945H144.132L141.048 59.0734C140.829 59.6642 140.599 60.1256 140.36 60.4576C140.125 60.7897 139.847 61.0216 139.525 61.1534C139.208 61.2902 138.814 61.3585 138.346 61.3585ZM148.768 58.7291C148.021 58.7291 147.374 58.5656 146.827 58.2384C146.285 57.9064 145.865 57.4352 145.567 56.8248C145.274 56.2145 145.128 55.4894 145.128 54.6495V54.6349C145.128 53.7902 145.274 53.0626 145.567 52.4523C145.865 51.8419 146.285 51.3732 146.827 51.046C147.374 50.7189 148.021 50.5553 148.768 50.5553C149.52 50.5553 150.167 50.7189 150.709 51.046C151.251 51.3732 151.668 51.8419 151.961 52.4523C152.259 53.0626 152.408 53.7902 152.408 54.6349V54.6495C152.408 55.4894 152.259 56.2145 151.961 56.8248C151.668 57.4352 151.251 57.9064 150.709 58.2384C150.167 58.5656 149.52 58.7291 148.768 58.7291ZM148.768 57.6012C149.266 57.6012 149.688 57.484 150.035 57.2496C150.382 57.0153 150.646 56.6783 150.826 56.2389C151.012 55.7994 151.104 55.2697 151.104 54.6495V54.6349C151.104 54.0099 151.012 53.4777 150.826 53.0382C150.646 52.5988 150.382 52.2643 150.035 52.0348C149.688 51.8004 149.266 51.6832 148.768 51.6832C148.27 51.6832 147.848 51.8004 147.501 52.0348C147.154 52.2643 146.888 52.5988 146.703 53.0382C146.522 53.4777 146.432 54.0099 146.432 54.6349V54.6495C146.432 55.2697 146.522 55.7994 146.703 56.2389C146.888 56.6783 147.154 57.0153 147.501 57.2496C147.848 57.484 148.27 57.6012 148.768 57.6012ZM157.03 58.7291C156.434 58.7291 155.934 58.6168 155.528 58.3922C155.123 58.1627 154.818 57.8307 154.613 57.3961C154.413 56.9567 154.312 56.4269 154.312 55.8068V50.6945H155.587V55.4991C155.587 56.2072 155.724 56.7345 155.997 57.0812C156.275 57.4279 156.729 57.6012 157.359 57.6012C157.823 57.6012 158.214 57.5109 158.531 57.3302C158.849 57.1495 159.088 56.8932 159.249 56.5612C159.41 56.2242 159.491 55.8263 159.491 55.3673V50.6945H160.765V58.59H159.491V57.4108H159.374C159.178 57.8307 158.883 58.1554 158.487 58.3849C158.097 58.6144 157.611 58.7291 157.03 58.7291ZM164.186 58.6632C163.927 58.6632 163.702 58.5704 163.512 58.3849C163.326 58.1945 163.233 57.9698 163.233 57.7111C163.233 57.4474 163.326 57.2228 163.512 57.0372C163.702 56.8517 163.927 56.7589 164.186 56.7589C164.449 56.7589 164.674 56.8517 164.859 57.0372C165.045 57.2228 165.138 57.4474 165.138 57.7111C165.138 57.9698 165.045 58.1945 164.859 58.3849C164.674 58.5704 164.449 58.6632 164.186 58.6632Z" fill="black"/>
<path d="M23.4023 89.59H17.5078V88.6818H20.0039V82.3068H19.9102L17.4902 83.8712V82.7697L20.0098 81.1349H21.0234V88.6818H23.4023V89.59ZM27.627 89.6251C27.0469 89.6251 26.5664 89.1388 26.5664 88.5411C26.5664 87.9493 27.0469 87.463 27.627 87.463C28.207 87.463 28.6875 87.9493 28.6875 88.5411C28.6875 89.1388 28.207 89.6251 27.627 89.6251ZM32.3496 83.5138C32.3496 82.0255 33.4512 80.9591 34.9922 80.9591C36.5449 80.9591 37.6113 81.92 37.6113 83.3322C37.6113 84.2111 37.2129 84.9142 35.8652 86.3849L33.873 88.5529V88.6525H37.7461V89.59H32.3965V88.8751L35.2559 85.6935C36.3281 84.4923 36.5859 84.0411 36.5859 83.3732C36.5859 82.465 35.9473 81.8673 34.9629 81.8673C33.9902 81.8673 33.3457 82.5177 33.3457 83.5138V83.549H32.3496V83.5138Z" fill="black"/>
<path d="M48.6035 85.3595C48.6035 83.3732 49.2012 81.6447 50.3672 80.3204H51.3574C50.1445 82.0255 49.6348 83.5197 49.6348 85.3595C49.6348 87.1993 50.1445 88.6935 51.3574 90.3986H50.3672C49.2012 89.0743 48.6035 87.3517 48.6035 85.3595ZM60.4922 89.59H54.5977V88.6818H57.0938V82.3068H57L54.5801 83.8712V82.7697L57.0996 81.1349H58.1133V88.6818H60.4922V89.59ZM62.0215 83.5138C62.0215 82.0255 63.123 80.9591 64.6641 80.9591C66.2168 80.9591 67.2832 81.92 67.2832 83.3322C67.2832 84.2111 66.8848 84.9142 65.5371 86.3849L63.5449 88.5529V88.6525H67.418V89.59H62.0684V88.8751L64.9277 85.6935C66 84.4923 66.2578 84.0411 66.2578 83.3732C66.2578 82.465 65.6191 81.8673 64.6348 81.8673C63.6621 81.8673 63.0176 82.5177 63.0176 83.5138V83.549H62.0215V83.5138ZM72.1406 89.7833C70.3008 89.7833 69.2871 88.213 69.2871 85.3654C69.2871 82.5177 70.3008 80.9474 72.1406 80.9474C73.9746 80.9474 74.9941 82.5177 74.9941 85.3654C74.9941 88.213 73.9746 89.7833 72.1406 89.7833ZM70.3125 85.3654C70.3125 85.6993 70.3301 86.0099 70.3535 86.297L73.7637 83.4493C73.4883 82.4005 72.9375 81.8615 72.1406 81.8615C70.9453 81.8615 70.3125 83.0685 70.3125 85.3654ZM72.1406 88.8693C73.3359 88.8693 73.9629 87.6564 73.9629 85.3654C73.9629 85.0255 73.9512 84.715 73.9219 84.422L70.5234 87.2931C70.7988 88.3302 71.3438 88.8693 72.1406 88.8693ZM77.4668 85.213C76.4766 85.213 75.8613 84.5216 75.8613 83.4142V82.8107C75.8613 81.715 76.4824 81.0236 77.4668 81.0236C78.4512 81.0236 79.0664 81.715 79.0664 82.8107V83.4142C79.0664 84.5216 78.457 85.213 77.4668 85.213ZM83.2617 81.1349V82.0431L75.8438 89.59V88.6818L83.2617 81.1349ZM77.4668 84.4747C78.0234 84.4747 78.3164 84.0704 78.3164 83.3029V82.9337C78.3164 82.1661 78.0234 81.7618 77.4668 81.7618C76.9043 81.7618 76.6113 82.1661 76.6113 82.9337V83.3029C76.6113 84.0704 76.9043 84.4747 77.4668 84.4747ZM81.6387 89.7013C80.6484 89.7013 80.0391 89.0099 80.0391 87.9025V87.299C80.0391 86.2091 80.6543 85.5118 81.6387 85.5118C82.623 85.5118 83.2441 86.2091 83.2441 87.299V87.9025C83.2441 89.0099 82.6289 89.7013 81.6387 89.7013ZM81.6387 88.9689C82.2012 88.9689 82.4941 88.5587 82.4941 87.7911V87.422C82.4941 86.6544 82.2012 86.2501 81.6387 86.2501C81.082 86.2501 80.7891 86.6544 80.7891 87.422V87.7911C80.7891 88.5587 81.082 88.9689 81.6387 88.9689ZM88.248 85.3595C88.248 87.3517 87.6504 89.0743 86.4844 90.3986H85.4941C86.707 88.6935 87.2168 87.1993 87.2168 85.3595C87.2168 83.5197 86.707 82.0255 85.4941 80.3204H86.4844C87.6504 81.6447 88.248 83.3732 88.248 85.3595Z" fill="#222222" fill-opacity="0.5"/>
</svg>
