<svg viewBox="0 0 223 109" fill="none" xmlns="http://www.w3.org/2000/svg">
<rect y="0.589966" width="222.5" height="108" rx="14" fill="#F9F9F9"/>
<rect x="0.5" y="1.08997" width="221.5" height="107" rx="13.5" stroke="black" stroke-opacity="0.1"/>
<rect width="190.5" height="21" transform="translate(16 41.59)" fill="black" fill-opacity="0.09"/>
<path d="M16.5054 57.59L20.4019 47.0211H21.4126V48.7277H20.9951L17.8896 57.59H16.5054ZM18.2705 54.5651L18.6807 53.4445H23.4561L23.8662 54.5651H18.2705ZM24.2178 57.59L21.1123 48.7277V47.0211H21.7056L25.6021 57.59H24.2178ZM27.3232 57.59V49.6945H28.5977V57.59H27.3232ZM27.9678 48.171C27.7285 48.171 27.521 48.0856 27.3452 47.9147C27.1743 47.7389 27.0889 47.5314 27.0889 47.2921C27.0889 47.048 27.1743 46.8405 27.3452 46.6696C27.521 46.4987 27.7285 46.4132 27.9678 46.4132C28.2119 46.4132 28.4194 46.4987 28.5903 46.6696C28.7612 46.8405 28.8467 47.048 28.8467 47.2921C28.8467 47.5314 28.7612 47.7389 28.5903 47.9147C28.4194 48.0856 28.2119 48.171 27.9678 48.171ZM38.0239 57.6486C37.2134 57.6486 36.625 57.485 36.2588 57.1578C35.8975 56.8307 35.7168 56.2911 35.7168 55.5392V50.7491H34.4717V49.6945H35.7168V47.651H37.0352V49.6945H38.7637V50.7491H37.0352V55.2169C37.0352 55.6808 37.123 56.0153 37.2988 56.2203C37.4746 56.4205 37.7676 56.5206 38.1777 56.5206C38.29 56.5206 38.3853 56.5182 38.4634 56.5133C38.5464 56.5084 38.6465 56.5011 38.7637 56.4913V57.5753C38.6416 57.5948 38.5195 57.6119 38.3975 57.6266C38.2754 57.6412 38.1509 57.6486 38.0239 57.6486ZM40.7412 57.59V46.5597H42.0156V50.881H42.1328C42.333 50.4611 42.6211 50.1364 42.9971 49.9069C43.373 49.6725 43.8516 49.5553 44.4326 49.5553C45.0234 49.5553 45.5239 49.67 45.9341 49.8995C46.3442 50.1241 46.6567 50.4537 46.8716 50.8883C47.0864 51.3229 47.1938 51.8527 47.1938 52.4777V57.59H45.9194V52.7853C45.9194 52.0724 45.7681 51.545 45.4653 51.2032C45.1675 50.8566 44.7036 50.6832 44.0737 50.6832C43.6538 50.6832 43.29 50.7736 42.9824 50.9542C42.6748 51.1349 42.4355 51.3912 42.2646 51.7233C42.0986 52.0553 42.0156 52.4532 42.0156 52.9171V57.59H40.7412ZM51.6689 57.7291C51.1709 57.7291 50.7217 57.6339 50.3213 57.4435C49.9258 57.2531 49.6108 56.9821 49.3765 56.6305C49.147 56.2789 49.0322 55.8639 49.0322 55.3854V55.3707C49.0322 54.6676 49.2812 54.1183 49.7793 53.7228C50.2822 53.3224 50.9927 53.0953 51.9106 53.0416L54.811 52.8658V53.8839L52.0645 54.0597C51.4639 54.0939 51.0244 54.2184 50.7461 54.4332C50.4727 54.6481 50.3359 54.9508 50.3359 55.3414V55.3561C50.3359 55.7565 50.4873 56.069 50.79 56.2936C51.0928 56.5133 51.4736 56.6232 51.9326 56.6232C52.3672 56.6232 52.7529 56.5377 53.0898 56.3668C53.4268 56.191 53.6904 55.9542 53.8809 55.6564C54.0762 55.3585 54.1738 55.0216 54.1738 54.6456V52.1847C54.1738 51.6964 54.0249 51.3253 53.7271 51.0714C53.4341 50.8126 52.9922 50.6832 52.4014 50.6832C51.9277 50.6832 51.5396 50.7687 51.2368 50.9396C50.9341 51.1056 50.7314 51.3424 50.6289 51.65L50.6216 51.672H49.3472L49.3545 51.6281C49.4229 51.213 49.5938 50.8517 49.8672 50.5441C50.1455 50.2316 50.5044 49.9899 50.9438 49.819C51.3833 49.6432 51.8838 49.5553 52.4453 49.5553C53.0898 49.5553 53.6343 49.6603 54.0786 49.8702C54.5278 50.0802 54.8672 50.3829 55.0967 50.7784C55.3311 51.1691 55.4482 51.6378 55.4482 52.1847V57.59H54.1738V56.4254H54.0566C53.8906 56.7037 53.688 56.9406 53.4487 57.1359C53.2144 57.3312 52.9482 57.4801 52.6504 57.5826C52.3525 57.6803 52.0254 57.7291 51.6689 57.7291ZM60.5825 57.6486C59.772 57.6486 59.1836 57.485 58.8174 57.1578C58.4561 56.8307 58.2754 56.2911 58.2754 55.5392V50.7491H57.0303V49.6945H58.2754V47.651H59.5938V49.6945H61.3223V50.7491H59.5938V55.2169C59.5938 55.6808 59.6816 56.0153 59.8574 56.2203C60.0332 56.4205 60.3262 56.5206 60.7363 56.5206C60.8486 56.5206 60.9438 56.5182 61.022 56.5133C61.105 56.5084 61.2051 56.5011 61.3223 56.4913V57.5753C61.2002 57.5948 61.0781 57.6119 60.9561 57.6266C60.834 57.6412 60.7095 57.6486 60.5825 57.6486ZM68.9688 57.59L66.7568 49.6945H68.0312L69.584 56.0079H69.7012L71.4663 49.6945H72.6748L74.4399 56.0079H74.5571L76.1099 49.6945H77.377L75.165 57.59H73.8833L72.1182 51.4816H72.001L70.2432 57.59H68.9688ZM82.0132 57.7291C81.2661 57.7291 80.6191 57.5656 80.0723 57.2384C79.5303 56.9064 79.1104 56.4352 78.8125 55.8248C78.5195 55.2145 78.373 54.4894 78.373 53.6495V53.6349C78.373 52.7902 78.5195 52.0626 78.8125 51.4523C79.1104 50.8419 79.5303 50.3732 80.0723 50.046C80.6191 49.7189 81.2661 49.5553 82.0132 49.5553C82.7651 49.5553 83.4121 49.7189 83.9541 50.046C84.4961 50.3732 84.9136 50.8419 85.2065 51.4523C85.5044 52.0626 85.6533 52.7902 85.6533 53.6349V53.6495C85.6533 54.4894 85.5044 55.2145 85.2065 55.8248C84.9136 56.4352 84.4961 56.9064 83.9541 57.2384C83.4121 57.5656 82.7651 57.7291 82.0132 57.7291ZM82.0132 56.6012C82.5112 56.6012 82.9336 56.484 83.2803 56.2496C83.627 56.0153 83.8906 55.6783 84.0713 55.2389C84.2568 54.7994 84.3496 54.2697 84.3496 53.6495V53.6349C84.3496 53.0099 84.2568 52.4777 84.0713 52.0382C83.8906 51.5988 83.627 51.2643 83.2803 51.0348C82.9336 50.8004 82.5112 50.6832 82.0132 50.6832C81.5151 50.6832 81.0928 50.8004 80.7461 51.0348C80.3994 51.2643 80.1333 51.5988 79.9478 52.0382C79.7671 52.4777 79.6768 53.0099 79.6768 53.6349V53.6495C79.6768 54.2697 79.7671 54.7994 79.9478 55.2389C80.1333 55.6783 80.3994 56.0153 80.7461 56.2496C81.0928 56.484 81.5151 56.6012 82.0132 56.6012ZM87.6309 57.59V49.6945H88.9053V50.8663H89.0225C89.1738 50.4513 89.4302 50.129 89.7915 49.8995C90.1528 49.67 90.5996 49.5553 91.1318 49.5553C91.2539 49.5553 91.3735 49.5626 91.4907 49.5773C91.6128 49.587 91.7056 49.5968 91.769 49.6066V50.8444C91.6372 50.8199 91.5078 50.8029 91.3809 50.7931C91.2588 50.7784 91.127 50.7711 90.9854 50.7711C90.5801 50.7711 90.2212 50.8517 89.9087 51.0128C89.5962 51.174 89.3496 51.3986 89.1689 51.6866C88.9932 51.9747 88.9053 52.3116 88.9053 52.6974V57.59H87.6309ZM93.417 57.59V46.5597H94.6914V57.59H93.417ZM98.3901 57.59L95.3066 53.7228L96.2441 52.9098L99.9941 57.59H98.3901ZM94.5303 54.7482L94.4717 53.1442H94.8086L98.2217 49.6945H99.7671L96.0171 53.3126L95.7095 53.6129L94.5303 54.7482ZM103.905 57.7291C103.319 57.7291 102.802 57.6412 102.353 57.4655C101.903 57.2848 101.542 57.0333 101.269 56.7111C101 56.3888 100.841 56.0104 100.792 55.5758H102.096C102.204 55.903 102.414 56.1666 102.726 56.3668C103.039 56.567 103.446 56.6671 103.949 56.6671C104.306 56.6671 104.618 56.6158 104.887 56.5133C105.16 56.4059 105.375 56.2618 105.531 56.0812C105.688 55.8956 105.766 55.6832 105.766 55.444V55.4293C105.766 55.1608 105.658 54.9337 105.443 54.7482C105.229 54.5577 104.877 54.4039 104.389 54.2867L103.166 53.9938C102.428 53.818 101.886 53.5616 101.54 53.2247C101.193 52.8829 101.02 52.4288 101.02 51.8624V51.8551C101.02 51.4156 101.146 51.0226 101.4 50.6759C101.659 50.3292 102.011 50.0558 102.455 49.8556C102.899 49.6554 103.4 49.5553 103.957 49.5553C104.508 49.5553 104.997 49.6432 105.421 49.819C105.851 49.9899 106.195 50.234 106.454 50.5514C106.718 50.8688 106.879 51.2423 106.938 51.672H105.685C105.602 51.3595 105.412 51.1056 105.114 50.9103C104.816 50.715 104.428 50.6173 103.949 50.6173C103.637 50.6173 103.358 50.6686 103.114 50.7711C102.87 50.8688 102.677 51.0055 102.536 51.1813C102.394 51.3571 102.323 51.5621 102.323 51.7965V51.8112C102.323 52.0797 102.428 52.3019 102.638 52.4777C102.848 52.6534 103.185 52.7975 103.649 52.9098L104.865 53.2028C105.607 53.3834 106.159 53.6422 106.52 53.9791C106.886 54.316 107.069 54.7677 107.069 55.3341V55.3488C107.069 55.8175 106.93 56.2325 106.652 56.5939C106.374 56.9503 105.995 57.2286 105.517 57.4288C105.043 57.629 104.506 57.7291 103.905 57.7291ZM113.793 57.59V50.7491H112.482V49.6945H113.793V48.8156C113.793 48.0294 113.988 47.4459 114.379 47.0651C114.77 46.6793 115.338 46.4865 116.085 46.4865C116.242 46.4865 116.388 46.4938 116.525 46.5084C116.667 46.5182 116.803 46.5353 116.935 46.5597V47.5778C116.857 47.5631 116.767 47.5533 116.664 47.5485C116.562 47.5436 116.454 47.5411 116.342 47.5411C115.888 47.5411 115.561 47.651 115.36 47.8707C115.165 48.0905 115.067 48.4176 115.067 48.8522V49.6945H116.862V50.7491H115.067V57.59H113.793ZM121.623 57.7291C120.875 57.7291 120.229 57.5656 119.682 57.2384C119.14 56.9064 118.72 56.4352 118.422 55.8248C118.129 55.2145 117.982 54.4894 117.982 53.6495V53.6349C117.982 52.7902 118.129 52.0626 118.422 51.4523C118.72 50.8419 119.14 50.3732 119.682 50.046C120.229 49.7189 120.875 49.5553 121.623 49.5553C122.375 49.5553 123.021 49.7189 123.563 50.046C124.105 50.3732 124.523 50.8419 124.816 51.4523C125.114 52.0626 125.263 52.7902 125.263 53.6349V53.6495C125.263 54.4894 125.114 55.2145 124.816 55.8248C124.523 56.4352 124.105 56.9064 123.563 57.2384C123.021 57.5656 122.375 57.7291 121.623 57.7291ZM121.623 56.6012C122.121 56.6012 122.543 56.484 122.89 56.2496C123.236 56.0153 123.5 55.6783 123.681 55.2389C123.866 54.7994 123.959 54.2697 123.959 53.6495V53.6349C123.959 53.0099 123.866 52.4777 123.681 52.0382C123.5 51.5988 123.236 51.2643 122.89 51.0348C122.543 50.8004 122.121 50.6832 121.623 50.6832C121.125 50.6832 120.702 50.8004 120.355 51.0348C120.009 51.2643 119.743 51.5988 119.557 52.0382C119.376 52.4777 119.286 53.0099 119.286 53.6349V53.6495C119.286 54.2697 119.376 54.7994 119.557 55.2389C119.743 55.6783 120.009 56.0153 120.355 56.2496C120.702 56.484 121.125 56.6012 121.623 56.6012ZM127.24 57.59V49.6945H128.515V50.8663H128.632C128.783 50.4513 129.04 50.129 129.401 49.8995C129.762 49.67 130.209 49.5553 130.741 49.5553C130.863 49.5553 130.983 49.5626 131.1 49.5773C131.222 49.587 131.315 49.5968 131.378 49.6066V50.8444C131.247 50.8199 131.117 50.8029 130.99 50.7931C130.868 50.7784 130.736 50.7711 130.595 50.7711C130.189 50.7711 129.831 50.8517 129.518 51.0128C129.206 51.174 128.959 51.3986 128.778 51.6866C128.603 51.9747 128.515 52.3116 128.515 52.6974V57.59H127.24ZM137.846 60.3585C137.763 60.3585 137.67 60.3536 137.567 60.3439C137.465 60.339 137.37 60.3292 137.282 60.3146V59.2672C137.36 59.2819 137.445 59.2916 137.538 59.2965C137.631 59.3014 137.721 59.3038 137.809 59.3038C138.17 59.3038 138.466 59.2111 138.695 59.0255C138.93 58.84 139.118 58.5201 139.259 58.066L139.406 57.5973L136.483 49.6945H137.846L140.277 56.9894L139.772 56.191H140.373L139.867 56.9894L142.292 49.6945H143.632L140.548 58.0734C140.329 58.6642 140.099 59.1256 139.86 59.4576C139.625 59.7897 139.347 60.0216 139.025 60.1534C138.708 60.2902 138.314 60.3585 137.846 60.3585ZM148.268 57.7291C147.521 57.7291 146.874 57.5656 146.327 57.2384C145.785 56.9064 145.365 56.4352 145.067 55.8248C144.774 55.2145 144.628 54.4894 144.628 53.6495V53.6349C144.628 52.7902 144.774 52.0626 145.067 51.4523C145.365 50.8419 145.785 50.3732 146.327 50.046C146.874 49.7189 147.521 49.5553 148.268 49.5553C149.02 49.5553 149.667 49.7189 150.209 50.046C150.751 50.3732 151.168 50.8419 151.461 51.4523C151.759 52.0626 151.908 52.7902 151.908 53.6349V53.6495C151.908 54.4894 151.759 55.2145 151.461 55.8248C151.168 56.4352 150.751 56.9064 150.209 57.2384C149.667 57.5656 149.02 57.7291 148.268 57.7291ZM148.268 56.6012C148.766 56.6012 149.188 56.484 149.535 56.2496C149.882 56.0153 150.146 55.6783 150.326 55.2389C150.512 54.7994 150.604 54.2697 150.604 53.6495V53.6349C150.604 53.0099 150.512 52.4777 150.326 52.0382C150.146 51.5988 149.882 51.2643 149.535 51.0348C149.188 50.8004 148.766 50.6832 148.268 50.6832C147.77 50.6832 147.348 50.8004 147.001 51.0348C146.654 51.2643 146.388 51.5988 146.203 52.0382C146.022 52.4777 145.932 53.0099 145.932 53.6349V53.6495C145.932 54.2697 146.022 54.7994 146.203 55.2389C146.388 55.6783 146.654 56.0153 147.001 56.2496C147.348 56.484 147.77 56.6012 148.268 56.6012ZM156.53 57.7291C155.934 57.7291 155.434 57.6168 155.028 57.3922C154.623 57.1627 154.318 56.8307 154.113 56.3961C153.913 55.9567 153.812 55.4269 153.812 54.8068V49.6945H155.087V54.4991C155.087 55.2072 155.224 55.7345 155.497 56.0812C155.775 56.4279 156.229 56.6012 156.859 56.6012C157.323 56.6012 157.714 56.5109 158.031 56.3302C158.349 56.1495 158.588 55.8932 158.749 55.5612C158.91 55.2242 158.991 54.8263 158.991 54.3673V49.6945H160.265V57.59H158.991V56.4108H158.874C158.678 56.8307 158.383 57.1554 157.987 57.3849C157.597 57.6144 157.111 57.7291 156.53 57.7291ZM163.686 57.6632C163.427 57.6632 163.202 57.5704 163.012 57.3849C162.826 57.1945 162.733 56.9698 162.733 56.7111C162.733 56.4474 162.826 56.2228 163.012 56.0372C163.202 55.8517 163.427 55.7589 163.686 55.7589C163.949 55.7589 164.174 55.8517 164.359 56.0372C164.545 56.2228 164.638 56.4474 164.638 56.7111C164.638 56.9698 164.545 57.1945 164.359 57.3849C164.174 57.5704 163.949 57.6632 163.686 57.6632Z" fill="black"/>
<path d="M22.9023 89.59H17.0078V88.6818H19.5039V82.3068H19.4102L16.9902 83.8712V82.7697L19.5098 81.1349H20.5234V88.6818H22.9023V89.59ZM27.127 89.6251C26.5469 89.6251 26.0664 89.1388 26.0664 88.5411C26.0664 87.9493 26.5469 87.463 27.127 87.463C27.707 87.463 28.1875 87.9493 28.1875 88.5411C28.1875 89.1388 27.707 89.6251 27.127 89.6251ZM35.5352 89.59V87.8029H31.6797V86.965L34.5508 81.1349H35.6055L32.7754 86.8302V86.9064H35.5469V84.4923H36.4844V86.8947H37.7734V87.8029H36.4785V89.59H35.5352Z" fill="black"/>
<path d="M48.1035 85.3595C48.1035 83.3732 48.7012 81.6447 49.8672 80.3204H50.8574C49.6445 82.0255 49.1348 83.5197 49.1348 85.3595C49.1348 87.1993 49.6445 88.6935 50.8574 90.3986H49.8672C48.7012 89.0743 48.1035 87.3517 48.1035 85.3595ZM59.9922 89.59H54.0977V88.6818H56.5938V82.3068H56.5L54.0801 83.8712V82.7697L56.5996 81.1349H57.6133V88.6818H59.9922V89.59ZM65.207 89.59V87.8029H61.3516V86.965L64.2227 81.1349H65.2773L62.4473 86.8302V86.9064H65.2188V84.4923H66.1562V86.8947H67.4453V87.8029H66.1504V89.59H65.207ZM71.6406 89.7833C69.8008 89.7833 68.7871 88.213 68.7871 85.3654C68.7871 82.5177 69.8008 80.9474 71.6406 80.9474C73.4746 80.9474 74.4941 82.5177 74.4941 85.3654C74.4941 88.213 73.4746 89.7833 71.6406 89.7833ZM69.8125 85.3654C69.8125 85.6993 69.8301 86.0099 69.8535 86.297L73.2637 83.4493C72.9883 82.4005 72.4375 81.8615 71.6406 81.8615C70.4453 81.8615 69.8125 83.0685 69.8125 85.3654ZM71.6406 88.8693C72.8359 88.8693 73.4629 87.6564 73.4629 85.3654C73.4629 85.0255 73.4512 84.715 73.4219 84.422L70.0234 87.2931C70.2988 88.3302 70.8438 88.8693 71.6406 88.8693ZM76.9668 85.213C75.9766 85.213 75.3613 84.5216 75.3613 83.4142V82.8107C75.3613 81.715 75.9824 81.0236 76.9668 81.0236C77.9512 81.0236 78.5664 81.715 78.5664 82.8107V83.4142C78.5664 84.5216 77.957 85.213 76.9668 85.213ZM82.7617 81.1349V82.0431L75.3438 89.59V88.6818L82.7617 81.1349ZM76.9668 84.4747C77.5234 84.4747 77.8164 84.0704 77.8164 83.3029V82.9337C77.8164 82.1661 77.5234 81.7618 76.9668 81.7618C76.4043 81.7618 76.1113 82.1661 76.1113 82.9337V83.3029C76.1113 84.0704 76.4043 84.4747 76.9668 84.4747ZM81.1387 89.7013C80.1484 89.7013 79.5391 89.0099 79.5391 87.9025V87.299C79.5391 86.2091 80.1543 85.5118 81.1387 85.5118C82.123 85.5118 82.7441 86.2091 82.7441 87.299V87.9025C82.7441 89.0099 82.1289 89.7013 81.1387 89.7013ZM81.1387 88.9689C81.7012 88.9689 81.9941 88.5587 81.9941 87.7911V87.422C81.9941 86.6544 81.7012 86.2501 81.1387 86.2501C80.582 86.2501 80.2891 86.6544 80.2891 87.422V87.7911C80.2891 88.5587 80.582 88.9689 81.1387 88.9689ZM87.748 85.3595C87.748 87.3517 87.1504 89.0743 85.9844 90.3986H84.9941C86.207 88.6935 86.7168 87.1993 86.7168 85.3595C86.7168 83.5197 86.207 82.0255 84.9941 80.3204H85.9844C87.1504 81.6447 87.748 83.3732 87.748 85.3595Z" fill="#222222" fill-opacity="0.5"/>
</svg>
