<svg viewBox="0 0 223 109" fill="none" xmlns="http://www.w3.org/2000/svg">
<rect y="0.589966" width="222.5" height="108" rx="14" fill="#F9F9F9"/>
<rect x="0.5" y="1.08997" width="221.5" height="107" rx="13.5" stroke="black" stroke-opacity="0.1"/>
<rect width="190.5" height="24" transform="translate(16 38.59)" fill="black" fill-opacity="0.09"/>
<path d="M16.5054 55.59L20.4019 45.0211H21.4126V46.7277H20.9951L17.8896 55.59H16.5054ZM18.2705 52.5651L18.6807 51.4445H23.4561L23.8662 52.5651H18.2705ZM24.2178 55.59L21.1123 46.7277V45.0211H21.7056L25.6021 55.59H24.2178ZM27.3232 55.59V47.6945H28.5977V55.59H27.3232ZM27.9678 46.171C27.7285 46.171 27.521 46.0856 27.3452 45.9147C27.1743 45.7389 27.0889 45.5314 27.0889 45.2921C27.0889 45.048 27.1743 44.8405 27.3452 44.6696C27.521 44.4987 27.7285 44.4132 27.9678 44.4132C28.2119 44.4132 28.4194 44.4987 28.5903 44.6696C28.7612 44.8405 28.8467 45.048 28.8467 45.2921C28.8467 45.5314 28.7612 45.7389 28.5903 45.9147C28.4194 46.0856 28.2119 46.171 27.9678 46.171ZM38.0239 55.6486C37.2134 55.6486 36.625 55.485 36.2588 55.1578C35.8975 54.8307 35.7168 54.2911 35.7168 53.5392V48.7491H34.4717V47.6945H35.7168V45.651H37.0352V47.6945H38.7637V48.7491H37.0352V53.2169C37.0352 53.6808 37.123 54.0153 37.2988 54.2203C37.4746 54.4205 37.7676 54.5206 38.1777 54.5206C38.29 54.5206 38.3853 54.5182 38.4634 54.5133C38.5464 54.5084 38.6465 54.5011 38.7637 54.4913V55.5753C38.6416 55.5948 38.5195 55.6119 38.3975 55.6266C38.2754 55.6412 38.1509 55.6486 38.0239 55.6486ZM40.7412 55.59V44.5597H42.0156V48.881H42.1328C42.333 48.4611 42.6211 48.1364 42.9971 47.9069C43.373 47.6725 43.8516 47.5553 44.4326 47.5553C45.0234 47.5553 45.5239 47.67 45.9341 47.8995C46.3442 48.1241 46.6567 48.4537 46.8716 48.8883C47.0864 49.3229 47.1938 49.8527 47.1938 50.4777V55.59H45.9194V50.7853C45.9194 50.0724 45.7681 49.545 45.4653 49.2032C45.1675 48.8566 44.7036 48.6832 44.0737 48.6832C43.6538 48.6832 43.29 48.7736 42.9824 48.9542C42.6748 49.1349 42.4355 49.3912 42.2646 49.7233C42.0986 50.0553 42.0156 50.4532 42.0156 50.9171V55.59H40.7412ZM51.6689 55.7291C51.1709 55.7291 50.7217 55.6339 50.3213 55.4435C49.9258 55.2531 49.6108 54.9821 49.3765 54.6305C49.147 54.2789 49.0322 53.8639 49.0322 53.3854V53.3707C49.0322 52.6676 49.2812 52.1183 49.7793 51.7228C50.2822 51.3224 50.9927 51.0953 51.9106 51.0416L54.811 50.8658V51.8839L52.0645 52.0597C51.4639 52.0939 51.0244 52.2184 50.7461 52.4332C50.4727 52.6481 50.3359 52.9508 50.3359 53.3414V53.3561C50.3359 53.7565 50.4873 54.069 50.79 54.2936C51.0928 54.5133 51.4736 54.6232 51.9326 54.6232C52.3672 54.6232 52.7529 54.5377 53.0898 54.3668C53.4268 54.191 53.6904 53.9542 53.8809 53.6564C54.0762 53.3585 54.1738 53.0216 54.1738 52.6456V50.1847C54.1738 49.6964 54.0249 49.3253 53.7271 49.0714C53.4341 48.8126 52.9922 48.6832 52.4014 48.6832C51.9277 48.6832 51.5396 48.7687 51.2368 48.9396C50.9341 49.1056 50.7314 49.3424 50.6289 49.65L50.6216 49.672H49.3472L49.3545 49.6281C49.4229 49.213 49.5938 48.8517 49.8672 48.5441C50.1455 48.2316 50.5044 47.9899 50.9438 47.819C51.3833 47.6432 51.8838 47.5553 52.4453 47.5553C53.0898 47.5553 53.6343 47.6603 54.0786 47.8702C54.5278 48.0802 54.8672 48.3829 55.0967 48.7784C55.3311 49.1691 55.4482 49.6378 55.4482 50.1847V55.59H54.1738V54.4254H54.0566C53.8906 54.7037 53.688 54.9406 53.4487 55.1359C53.2144 55.3312 52.9482 55.4801 52.6504 55.5826C52.3525 55.6803 52.0254 55.7291 51.6689 55.7291ZM60.5825 55.6486C59.772 55.6486 59.1836 55.485 58.8174 55.1578C58.4561 54.8307 58.2754 54.2911 58.2754 53.5392V48.7491H57.0303V47.6945H58.2754V45.651H59.5938V47.6945H61.3223V48.7491H59.5938V53.2169C59.5938 53.6808 59.6816 54.0153 59.8574 54.2203C60.0332 54.4205 60.3262 54.5206 60.7363 54.5206C60.8486 54.5206 60.9438 54.5182 61.022 54.5133C61.105 54.5084 61.2051 54.5011 61.3223 54.4913V55.5753C61.2002 55.5948 61.0781 55.6119 60.9561 55.6266C60.834 55.6412 60.7095 55.6486 60.5825 55.6486ZM68.9688 55.59L66.7568 47.6945H68.0312L69.584 54.0079H69.7012L71.4663 47.6945H72.6748L74.4399 54.0079H74.5571L76.1099 47.6945H77.377L75.165 55.59H73.8833L72.1182 49.4816H72.001L70.2432 55.59H68.9688ZM82.0132 55.7291C81.2661 55.7291 80.6191 55.5656 80.0723 55.2384C79.5303 54.9064 79.1104 54.4352 78.8125 53.8248C78.5195 53.2145 78.373 52.4894 78.373 51.6495V51.6349C78.373 50.7902 78.5195 50.0626 78.8125 49.4523C79.1104 48.8419 79.5303 48.3732 80.0723 48.046C80.6191 47.7189 81.2661 47.5553 82.0132 47.5553C82.7651 47.5553 83.4121 47.7189 83.9541 48.046C84.4961 48.3732 84.9136 48.8419 85.2065 49.4523C85.5044 50.0626 85.6533 50.7902 85.6533 51.6349V51.6495C85.6533 52.4894 85.5044 53.2145 85.2065 53.8248C84.9136 54.4352 84.4961 54.9064 83.9541 55.2384C83.4121 55.5656 82.7651 55.7291 82.0132 55.7291ZM82.0132 54.6012C82.5112 54.6012 82.9336 54.484 83.2803 54.2496C83.627 54.0153 83.8906 53.6783 84.0713 53.2389C84.2568 52.7994 84.3496 52.2697 84.3496 51.6495V51.6349C84.3496 51.0099 84.2568 50.4777 84.0713 50.0382C83.8906 49.5988 83.627 49.2643 83.2803 49.0348C82.9336 48.8004 82.5112 48.6832 82.0132 48.6832C81.5151 48.6832 81.0928 48.8004 80.7461 49.0348C80.3994 49.2643 80.1333 49.5988 79.9478 50.0382C79.7671 50.4777 79.6768 51.0099 79.6768 51.6349V51.6495C79.6768 52.2697 79.7671 52.7994 79.9478 53.2389C80.1333 53.6783 80.3994 54.0153 80.7461 54.2496C81.0928 54.484 81.5151 54.6012 82.0132 54.6012ZM87.6309 55.59V47.6945H88.9053V48.8663H89.0225C89.1738 48.4513 89.4302 48.129 89.7915 47.8995C90.1528 47.67 90.5996 47.5553 91.1318 47.5553C91.2539 47.5553 91.3735 47.5626 91.4907 47.5773C91.6128 47.587 91.7056 47.5968 91.769 47.6066V48.8444C91.6372 48.8199 91.5078 48.8029 91.3809 48.7931C91.2588 48.7784 91.127 48.7711 90.9854 48.7711C90.5801 48.7711 90.2212 48.8517 89.9087 49.0128C89.5962 49.174 89.3496 49.3986 89.1689 49.6866C88.9932 49.9747 88.9053 50.3116 88.9053 50.6974V55.59H87.6309ZM93.417 55.59V44.5597H94.6914V55.59H93.417ZM98.3901 55.59L95.3066 51.7228L96.2441 50.9098L99.9941 55.59H98.3901ZM94.5303 52.7482L94.4717 51.1442H94.8086L98.2217 47.6945H99.7671L96.0171 51.3126L95.7095 51.6129L94.5303 52.7482ZM103.905 55.7291C103.319 55.7291 102.802 55.6412 102.353 55.4655C101.903 55.2848 101.542 55.0333 101.269 54.7111C101 54.3888 100.841 54.0104 100.792 53.5758H102.096C102.204 53.903 102.414 54.1666 102.726 54.3668C103.039 54.567 103.446 54.6671 103.949 54.6671C104.306 54.6671 104.618 54.6158 104.887 54.5133C105.16 54.4059 105.375 54.2618 105.531 54.0812C105.688 53.8956 105.766 53.6832 105.766 53.444V53.4293C105.766 53.1608 105.658 52.9337 105.443 52.7482C105.229 52.5577 104.877 52.4039 104.389 52.2867L103.166 51.9938C102.428 51.818 101.886 51.5616 101.54 51.2247C101.193 50.8829 101.02 50.4288 101.02 49.8624V49.8551C101.02 49.4156 101.146 49.0226 101.4 48.6759C101.659 48.3292 102.011 48.0558 102.455 47.8556C102.899 47.6554 103.4 47.5553 103.957 47.5553C104.508 47.5553 104.997 47.6432 105.421 47.819C105.851 47.9899 106.195 48.234 106.454 48.5514C106.718 48.8688 106.879 49.2423 106.938 49.672H105.685C105.602 49.3595 105.412 49.1056 105.114 48.9103C104.816 48.715 104.428 48.6173 103.949 48.6173C103.637 48.6173 103.358 48.6686 103.114 48.7711C102.87 48.8688 102.677 49.0055 102.536 49.1813C102.394 49.3571 102.323 49.5621 102.323 49.7965V49.8112C102.323 50.0797 102.428 50.3019 102.638 50.4777C102.848 50.6534 103.185 50.7975 103.649 50.9098L104.865 51.2028C105.607 51.3834 106.159 51.6422 106.52 51.9791C106.886 52.316 107.069 52.7677 107.069 53.3341V53.3488C107.069 53.8175 106.93 54.2325 106.652 54.5939C106.374 54.9503 105.995 55.2286 105.517 55.4288C105.043 55.629 104.506 55.7291 103.905 55.7291ZM113.793 55.59V48.7491H112.482V47.6945H113.793V46.8156C113.793 46.0294 113.988 45.4459 114.379 45.0651C114.77 44.6793 115.338 44.4865 116.085 44.4865C116.242 44.4865 116.388 44.4938 116.525 44.5084C116.667 44.5182 116.803 44.5353 116.935 44.5597V45.5778C116.857 45.5631 116.767 45.5533 116.664 45.5485C116.562 45.5436 116.454 45.5411 116.342 45.5411C115.888 45.5411 115.561 45.651 115.36 45.8707C115.165 46.0905 115.067 46.4176 115.067 46.8522V47.6945H116.862V48.7491H115.067V55.59H113.793ZM121.623 55.7291C120.875 55.7291 120.229 55.5656 119.682 55.2384C119.14 54.9064 118.72 54.4352 118.422 53.8248C118.129 53.2145 117.982 52.4894 117.982 51.6495V51.6349C117.982 50.7902 118.129 50.0626 118.422 49.4523C118.72 48.8419 119.14 48.3732 119.682 48.046C120.229 47.7189 120.875 47.5553 121.623 47.5553C122.375 47.5553 123.021 47.7189 123.563 48.046C124.105 48.3732 124.523 48.8419 124.816 49.4523C125.114 50.0626 125.263 50.7902 125.263 51.6349V51.6495C125.263 52.4894 125.114 53.2145 124.816 53.8248C124.523 54.4352 124.105 54.9064 123.563 55.2384C123.021 55.5656 122.375 55.7291 121.623 55.7291ZM121.623 54.6012C122.121 54.6012 122.543 54.484 122.89 54.2496C123.236 54.0153 123.5 53.6783 123.681 53.2389C123.866 52.7994 123.959 52.2697 123.959 51.6495V51.6349C123.959 51.0099 123.866 50.4777 123.681 50.0382C123.5 49.5988 123.236 49.2643 122.89 49.0348C122.543 48.8004 122.121 48.6832 121.623 48.6832C121.125 48.6832 120.702 48.8004 120.355 49.0348C120.009 49.2643 119.743 49.5988 119.557 50.0382C119.376 50.4777 119.286 51.0099 119.286 51.6349V51.6495C119.286 52.2697 119.376 52.7994 119.557 53.2389C119.743 53.6783 120.009 54.0153 120.355 54.2496C120.702 54.484 121.125 54.6012 121.623 54.6012ZM127.24 55.59V47.6945H128.515V48.8663H128.632C128.783 48.4513 129.04 48.129 129.401 47.8995C129.762 47.67 130.209 47.5553 130.741 47.5553C130.863 47.5553 130.983 47.5626 131.1 47.5773C131.222 47.587 131.315 47.5968 131.378 47.6066V48.8444C131.247 48.8199 131.117 48.8029 130.99 48.7931C130.868 48.7784 130.736 48.7711 130.595 48.7711C130.189 48.7711 129.831 48.8517 129.518 49.0128C129.206 49.174 128.959 49.3986 128.778 49.6866C128.603 49.9747 128.515 50.3116 128.515 50.6974V55.59H127.24ZM137.846 58.3585C137.763 58.3585 137.67 58.3536 137.567 58.3439C137.465 58.339 137.37 58.3292 137.282 58.3146V57.2672C137.36 57.2819 137.445 57.2916 137.538 57.2965C137.631 57.3014 137.721 57.3038 137.809 57.3038C138.17 57.3038 138.466 57.2111 138.695 57.0255C138.93 56.84 139.118 56.5201 139.259 56.066L139.406 55.5973L136.483 47.6945H137.846L140.277 54.9894L139.772 54.191H140.373L139.867 54.9894L142.292 47.6945H143.632L140.548 56.0734C140.329 56.6642 140.099 57.1256 139.86 57.4576C139.625 57.7897 139.347 58.0216 139.025 58.1534C138.708 58.2902 138.314 58.3585 137.846 58.3585ZM148.268 55.7291C147.521 55.7291 146.874 55.5656 146.327 55.2384C145.785 54.9064 145.365 54.4352 145.067 53.8248C144.774 53.2145 144.628 52.4894 144.628 51.6495V51.6349C144.628 50.7902 144.774 50.0626 145.067 49.4523C145.365 48.8419 145.785 48.3732 146.327 48.046C146.874 47.7189 147.521 47.5553 148.268 47.5553C149.02 47.5553 149.667 47.7189 150.209 48.046C150.751 48.3732 151.168 48.8419 151.461 49.4523C151.759 50.0626 151.908 50.7902 151.908 51.6349V51.6495C151.908 52.4894 151.759 53.2145 151.461 53.8248C151.168 54.4352 150.751 54.9064 150.209 55.2384C149.667 55.5656 149.02 55.7291 148.268 55.7291ZM148.268 54.6012C148.766 54.6012 149.188 54.484 149.535 54.2496C149.882 54.0153 150.146 53.6783 150.326 53.2389C150.512 52.7994 150.604 52.2697 150.604 51.6495V51.6349C150.604 51.0099 150.512 50.4777 150.326 50.0382C150.146 49.5988 149.882 49.2643 149.535 49.0348C149.188 48.8004 148.766 48.6832 148.268 48.6832C147.77 48.6832 147.348 48.8004 147.001 49.0348C146.654 49.2643 146.388 49.5988 146.203 50.0382C146.022 50.4777 145.932 51.0099 145.932 51.6349V51.6495C145.932 52.2697 146.022 52.7994 146.203 53.2389C146.388 53.6783 146.654 54.0153 147.001 54.2496C147.348 54.484 147.77 54.6012 148.268 54.6012ZM156.53 55.7291C155.934 55.7291 155.434 55.6168 155.028 55.3922C154.623 55.1627 154.318 54.8307 154.113 54.3961C153.913 53.9567 153.812 53.4269 153.812 52.8068V47.6945H155.087V52.4991C155.087 53.2072 155.224 53.7345 155.497 54.0812C155.775 54.4279 156.229 54.6012 156.859 54.6012C157.323 54.6012 157.714 54.5109 158.031 54.3302C158.349 54.1495 158.588 53.8932 158.749 53.5612C158.91 53.2242 158.991 52.8263 158.991 52.3673V47.6945H160.265V55.59H158.991V54.4108H158.874C158.678 54.8307 158.383 55.1554 157.987 55.3849C157.597 55.6144 157.111 55.7291 156.53 55.7291ZM163.686 55.6632C163.427 55.6632 163.202 55.5704 163.012 55.3849C162.826 55.1945 162.733 54.9698 162.733 54.7111C162.733 54.4474 162.826 54.2228 163.012 54.0372C163.202 53.8517 163.427 53.7589 163.686 53.7589C163.949 53.7589 164.174 53.8517 164.359 54.0372C164.545 54.2228 164.638 54.4474 164.638 54.7111C164.638 54.9698 164.545 55.1945 164.359 55.3849C164.174 55.5704 163.949 55.6632 163.686 55.6632Z" fill="black"/>
<path d="M22.9023 89.59H17.0078V88.6818H19.5039V82.3068H19.4102L16.9902 83.8712V82.7697L19.5098 81.1349H20.5234V88.6818H22.9023V89.59ZM27.127 89.6251C26.5469 89.6251 26.0664 89.1388 26.0664 88.5411C26.0664 87.9493 26.5469 87.463 27.127 87.463C27.707 87.463 28.1875 87.9493 28.1875 88.5411C28.1875 89.1388 27.707 89.6251 27.127 89.6251ZM37.4453 86.8771C37.4453 88.5529 36.2383 89.7657 34.5625 89.7657C32.8984 89.7657 31.6973 88.5587 31.6973 86.8771C31.6973 85.8868 32.0312 84.9904 32.8398 83.8126C32.916 83.6837 34.6738 81.2228 34.7324 81.1349H35.9219L33.6133 84.3048C33.3555 84.6681 33.3789 84.6447 33.3379 84.7384L33.4258 84.7853C33.6777 84.4454 34.2871 84.1935 34.8262 84.1935C36.332 84.1935 37.4453 85.3361 37.4453 86.8771ZM34.5684 88.8458C35.6348 88.8458 36.4434 88.0138 36.4434 86.9298C36.4434 85.84 35.6348 85.0079 34.5684 85.0079C33.5078 85.0079 32.6992 85.84 32.6992 86.9298C32.6992 88.0138 33.5078 88.8458 34.5684 88.8458Z" fill="black"/>
<path d="M48.1035 85.3595C48.1035 83.3732 48.7012 81.6447 49.8672 80.3204H50.8574C49.6445 82.0255 49.1348 83.5197 49.1348 85.3595C49.1348 87.1993 49.6445 88.6935 50.8574 90.3986H49.8672C48.7012 89.0743 48.1035 87.3517 48.1035 85.3595ZM59.9922 89.59H54.0977V88.6818H56.5938V82.3068H56.5L54.0801 83.8712V82.7697L56.5996 81.1349H57.6133V88.6818H59.9922V89.59ZM67.1172 86.8771C67.1172 88.5529 65.9102 89.7657 64.2344 89.7657C62.5703 89.7657 61.3691 88.5587 61.3691 86.8771C61.3691 85.8868 61.7031 84.9904 62.5117 83.8126C62.5879 83.6837 64.3457 81.2228 64.4043 81.1349H65.5938L63.2852 84.3048C63.0273 84.6681 63.0508 84.6447 63.0098 84.7384L63.0977 84.7853C63.3496 84.4454 63.959 84.1935 64.498 84.1935C66.0039 84.1935 67.1172 85.3361 67.1172 86.8771ZM64.2402 88.8458C65.3066 88.8458 66.1152 88.0138 66.1152 86.9298C66.1152 85.84 65.3066 85.0079 64.2402 85.0079C63.1797 85.0079 62.3711 85.84 62.3711 86.9298C62.3711 88.0138 63.1797 88.8458 64.2402 88.8458ZM71.6406 89.7833C69.8008 89.7833 68.7871 88.213 68.7871 85.3654C68.7871 82.5177 69.8008 80.9474 71.6406 80.9474C73.4746 80.9474 74.4941 82.5177 74.4941 85.3654C74.4941 88.213 73.4746 89.7833 71.6406 89.7833ZM69.8125 85.3654C69.8125 85.6993 69.8301 86.0099 69.8535 86.297L73.2637 83.4493C72.9883 82.4005 72.4375 81.8615 71.6406 81.8615C70.4453 81.8615 69.8125 83.0685 69.8125 85.3654ZM71.6406 88.8693C72.8359 88.8693 73.4629 87.6564 73.4629 85.3654C73.4629 85.0255 73.4512 84.715 73.4219 84.422L70.0234 87.2931C70.2988 88.3302 70.8438 88.8693 71.6406 88.8693ZM76.9668 85.213C75.9766 85.213 75.3613 84.5216 75.3613 83.4142V82.8107C75.3613 81.715 75.9824 81.0236 76.9668 81.0236C77.9512 81.0236 78.5664 81.715 78.5664 82.8107V83.4142C78.5664 84.5216 77.957 85.213 76.9668 85.213ZM82.7617 81.1349V82.0431L75.3438 89.59V88.6818L82.7617 81.1349ZM76.9668 84.4747C77.5234 84.4747 77.8164 84.0704 77.8164 83.3029V82.9337C77.8164 82.1661 77.5234 81.7618 76.9668 81.7618C76.4043 81.7618 76.1113 82.1661 76.1113 82.9337V83.3029C76.1113 84.0704 76.4043 84.4747 76.9668 84.4747ZM81.1387 89.7013C80.1484 89.7013 79.5391 89.0099 79.5391 87.9025V87.299C79.5391 86.2091 80.1543 85.5118 81.1387 85.5118C82.123 85.5118 82.7441 86.2091 82.7441 87.299V87.9025C82.7441 89.0099 82.1289 89.7013 81.1387 89.7013ZM81.1387 88.9689C81.7012 88.9689 81.9941 88.5587 81.9941 87.7911V87.422C81.9941 86.6544 81.7012 86.2501 81.1387 86.2501C80.582 86.2501 80.2891 86.6544 80.2891 87.422V87.7911C80.2891 88.5587 80.582 88.9689 81.1387 88.9689ZM87.748 85.3595C87.748 87.3517 87.1504 89.0743 85.9844 90.3986H84.9941C86.207 88.6935 86.7168 87.1993 86.7168 85.3595C86.7168 83.5197 86.207 82.0255 84.9941 80.3204H85.9844C87.1504 81.6447 87.748 83.3732 87.748 85.3595Z" fill="#222222" fill-opacity="0.5"/>
</svg>
