<svg viewBox="0 0 223 109" fill="none" xmlns="http://www.w3.org/2000/svg">
<rect x="0.5" y="0.589966" width="222.5" height="108" rx="14" fill="#F9F9F9"/>
<rect x="1" y="1.08997" width="221.5" height="107" rx="13.5" stroke="black" stroke-opacity="0.1"/>
<rect width="190.5" height="27" transform="translate(16.5 35.59)" fill="black" fill-opacity="0.09"/>
<path d="M17.0054 54.59L20.9019 44.0211H21.9126V45.7277H21.4951L18.3896 54.59H17.0054ZM18.7705 51.5651L19.1807 50.4445H23.9561L24.3662 51.5651H18.7705ZM24.7178 54.59L21.6123 45.7277V44.0211H22.2056L26.1021 54.59H24.7178ZM27.8232 54.59V46.6945H29.0977V54.59H27.8232ZM28.4678 45.171C28.2285 45.171 28.021 45.0856 27.8452 44.9147C27.6743 44.7389 27.5889 44.5314 27.5889 44.2921C27.5889 44.048 27.6743 43.8405 27.8452 43.6696C28.021 43.4987 28.2285 43.4132 28.4678 43.4132C28.7119 43.4132 28.9194 43.4987 29.0903 43.6696C29.2612 43.8405 29.3467 44.048 29.3467 44.2921C29.3467 44.5314 29.2612 44.7389 29.0903 44.9147C28.9194 45.0856 28.7119 45.171 28.4678 45.171ZM38.5239 54.6486C37.7134 54.6486 37.125 54.485 36.7588 54.1578C36.3975 53.8307 36.2168 53.2911 36.2168 52.5392V47.7491H34.9717V46.6945H36.2168V44.651H37.5352V46.6945H39.2637V47.7491H37.5352V52.2169C37.5352 52.6808 37.623 53.0153 37.7988 53.2203C37.9746 53.4205 38.2676 53.5206 38.6777 53.5206C38.79 53.5206 38.8853 53.5182 38.9634 53.5133C39.0464 53.5084 39.1465 53.5011 39.2637 53.4913V54.5753C39.1416 54.5948 39.0195 54.6119 38.8975 54.6266C38.7754 54.6412 38.6509 54.6486 38.5239 54.6486ZM41.2412 54.59V43.5597H42.5156V47.881H42.6328C42.833 47.4611 43.1211 47.1364 43.4971 46.9069C43.873 46.6725 44.3516 46.5553 44.9326 46.5553C45.5234 46.5553 46.0239 46.67 46.4341 46.8995C46.8442 47.1241 47.1567 47.4537 47.3716 47.8883C47.5864 48.3229 47.6938 48.8527 47.6938 49.4777V54.59H46.4194V49.7853C46.4194 49.0724 46.2681 48.545 45.9653 48.2032C45.6675 47.8566 45.2036 47.6832 44.5737 47.6832C44.1538 47.6832 43.79 47.7736 43.4824 47.9542C43.1748 48.1349 42.9355 48.3912 42.7646 48.7233C42.5986 49.0553 42.5156 49.4532 42.5156 49.9171V54.59H41.2412ZM52.1689 54.7291C51.6709 54.7291 51.2217 54.6339 50.8213 54.4435C50.4258 54.2531 50.1108 53.9821 49.8765 53.6305C49.647 53.2789 49.5322 52.8639 49.5322 52.3854V52.3707C49.5322 51.6676 49.7812 51.1183 50.2793 50.7228C50.7822 50.3224 51.4927 50.0953 52.4106 50.0416L55.311 49.8658V50.8839L52.5645 51.0597C51.9639 51.0939 51.5244 51.2184 51.2461 51.4332C50.9727 51.6481 50.8359 51.9508 50.8359 52.3414V52.3561C50.8359 52.7565 50.9873 53.069 51.29 53.2936C51.5928 53.5133 51.9736 53.6232 52.4326 53.6232C52.8672 53.6232 53.2529 53.5377 53.5898 53.3668C53.9268 53.191 54.1904 52.9542 54.3809 52.6564C54.5762 52.3585 54.6738 52.0216 54.6738 51.6456V49.1847C54.6738 48.6964 54.5249 48.3253 54.2271 48.0714C53.9341 47.8126 53.4922 47.6832 52.9014 47.6832C52.4277 47.6832 52.0396 47.7687 51.7368 47.9396C51.4341 48.1056 51.2314 48.3424 51.1289 48.65L51.1216 48.672H49.8472L49.8545 48.6281C49.9229 48.213 50.0938 47.8517 50.3672 47.5441C50.6455 47.2316 51.0044 46.9899 51.4438 46.819C51.8833 46.6432 52.3838 46.5553 52.9453 46.5553C53.5898 46.5553 54.1343 46.6603 54.5786 46.8702C55.0278 47.0802 55.3672 47.3829 55.5967 47.7784C55.8311 48.1691 55.9482 48.6378 55.9482 49.1847V54.59H54.6738V53.4254H54.5566C54.3906 53.7037 54.188 53.9406 53.9487 54.1359C53.7144 54.3312 53.4482 54.4801 53.1504 54.5826C52.8525 54.6803 52.5254 54.7291 52.1689 54.7291ZM61.0825 54.6486C60.272 54.6486 59.6836 54.485 59.3174 54.1578C58.9561 53.8307 58.7754 53.2911 58.7754 52.5392V47.7491H57.5303V46.6945H58.7754V44.651H60.0938V46.6945H61.8223V47.7491H60.0938V52.2169C60.0938 52.6808 60.1816 53.0153 60.3574 53.2203C60.5332 53.4205 60.8262 53.5206 61.2363 53.5206C61.3486 53.5206 61.4438 53.5182 61.522 53.5133C61.605 53.5084 61.7051 53.5011 61.8223 53.4913V54.5753C61.7002 54.5948 61.5781 54.6119 61.4561 54.6266C61.334 54.6412 61.2095 54.6486 61.0825 54.6486ZM69.4688 54.59L67.2568 46.6945H68.5312L70.084 53.0079H70.2012L71.9663 46.6945H73.1748L74.9399 53.0079H75.0571L76.6099 46.6945H77.877L75.665 54.59H74.3833L72.6182 48.4816H72.501L70.7432 54.59H69.4688ZM82.5132 54.7291C81.7661 54.7291 81.1191 54.5656 80.5723 54.2384C80.0303 53.9064 79.6104 53.4352 79.3125 52.8248C79.0195 52.2145 78.873 51.4894 78.873 50.6495V50.6349C78.873 49.7902 79.0195 49.0626 79.3125 48.4523C79.6104 47.8419 80.0303 47.3732 80.5723 47.046C81.1191 46.7189 81.7661 46.5553 82.5132 46.5553C83.2651 46.5553 83.9121 46.7189 84.4541 47.046C84.9961 47.3732 85.4136 47.8419 85.7065 48.4523C86.0044 49.0626 86.1533 49.7902 86.1533 50.6349V50.6495C86.1533 51.4894 86.0044 52.2145 85.7065 52.8248C85.4136 53.4352 84.9961 53.9064 84.4541 54.2384C83.9121 54.5656 83.2651 54.7291 82.5132 54.7291ZM82.5132 53.6012C83.0112 53.6012 83.4336 53.484 83.7803 53.2496C84.127 53.0153 84.3906 52.6783 84.5713 52.2389C84.7568 51.7994 84.8496 51.2697 84.8496 50.6495V50.6349C84.8496 50.0099 84.7568 49.4777 84.5713 49.0382C84.3906 48.5988 84.127 48.2643 83.7803 48.0348C83.4336 47.8004 83.0112 47.6832 82.5132 47.6832C82.0151 47.6832 81.5928 47.8004 81.2461 48.0348C80.8994 48.2643 80.6333 48.5988 80.4478 49.0382C80.2671 49.4777 80.1768 50.0099 80.1768 50.6349V50.6495C80.1768 51.2697 80.2671 51.7994 80.4478 52.2389C80.6333 52.6783 80.8994 53.0153 81.2461 53.2496C81.5928 53.484 82.0151 53.6012 82.5132 53.6012ZM88.1309 54.59V46.6945H89.4053V47.8663H89.5225C89.6738 47.4513 89.9302 47.129 90.2915 46.8995C90.6528 46.67 91.0996 46.5553 91.6318 46.5553C91.7539 46.5553 91.8735 46.5626 91.9907 46.5773C92.1128 46.587 92.2056 46.5968 92.269 46.6066V47.8444C92.1372 47.8199 92.0078 47.8029 91.8809 47.7931C91.7588 47.7784 91.627 47.7711 91.4854 47.7711C91.0801 47.7711 90.7212 47.8517 90.4087 48.0128C90.0962 48.174 89.8496 48.3986 89.6689 48.6866C89.4932 48.9747 89.4053 49.3116 89.4053 49.6974V54.59H88.1309ZM93.917 54.59V43.5597H95.1914V54.59H93.917ZM98.8901 54.59L95.8066 50.7228L96.7441 49.9098L100.494 54.59H98.8901ZM95.0303 51.7482L94.9717 50.1442H95.3086L98.7217 46.6945H100.267L96.5171 50.3126L96.2095 50.6129L95.0303 51.7482ZM104.405 54.7291C103.819 54.7291 103.302 54.6412 102.853 54.4655C102.403 54.2848 102.042 54.0333 101.769 53.7111C101.5 53.3888 101.341 53.0104 101.292 52.5758H102.596C102.704 52.903 102.914 53.1666 103.226 53.3668C103.539 53.567 103.946 53.6671 104.449 53.6671C104.806 53.6671 105.118 53.6158 105.387 53.5133C105.66 53.4059 105.875 53.2618 106.031 53.0812C106.188 52.8956 106.266 52.6832 106.266 52.444V52.4293C106.266 52.1608 106.158 51.9337 105.943 51.7482C105.729 51.5577 105.377 51.4039 104.889 51.2867L103.666 50.9938C102.928 50.818 102.386 50.5616 102.04 50.2247C101.693 49.8829 101.52 49.4288 101.52 48.8624V48.8551C101.52 48.4156 101.646 48.0226 101.9 47.6759C102.159 47.3292 102.511 47.0558 102.955 46.8556C103.399 46.6554 103.9 46.5553 104.457 46.5553C105.008 46.5553 105.497 46.6432 105.921 46.819C106.351 46.9899 106.695 47.234 106.954 47.5514C107.218 47.8688 107.379 48.2423 107.438 48.672H106.185C106.102 48.3595 105.912 48.1056 105.614 47.9103C105.316 47.715 104.928 47.6173 104.449 47.6173C104.137 47.6173 103.858 47.6686 103.614 47.7711C103.37 47.8688 103.177 48.0055 103.036 48.1813C102.894 48.3571 102.823 48.5621 102.823 48.7965V48.8112C102.823 49.0797 102.928 49.3019 103.138 49.4777C103.348 49.6534 103.685 49.7975 104.149 49.9098L105.365 50.2028C106.107 50.3834 106.659 50.6422 107.02 50.9791C107.386 51.316 107.569 51.7677 107.569 52.3341V52.3488C107.569 52.8175 107.43 53.2325 107.152 53.5939C106.874 53.9503 106.495 54.2286 106.017 54.4288C105.543 54.629 105.006 54.7291 104.405 54.7291ZM114.293 54.59V47.7491H112.982V46.6945H114.293V45.8156C114.293 45.0294 114.488 44.4459 114.879 44.0651C115.27 43.6793 115.838 43.4865 116.585 43.4865C116.742 43.4865 116.888 43.4938 117.025 43.5084C117.167 43.5182 117.303 43.5353 117.435 43.5597V44.5778C117.357 44.5631 117.267 44.5533 117.164 44.5485C117.062 44.5436 116.954 44.5411 116.842 44.5411C116.388 44.5411 116.061 44.651 115.86 44.8707C115.665 45.0905 115.567 45.4176 115.567 45.8522V46.6945H117.362V47.7491H115.567V54.59H114.293ZM122.123 54.7291C121.375 54.7291 120.729 54.5656 120.182 54.2384C119.64 53.9064 119.22 53.4352 118.922 52.8248C118.629 52.2145 118.482 51.4894 118.482 50.6495V50.6349C118.482 49.7902 118.629 49.0626 118.922 48.4523C119.22 47.8419 119.64 47.3732 120.182 47.046C120.729 46.7189 121.375 46.5553 122.123 46.5553C122.875 46.5553 123.521 46.7189 124.063 47.046C124.605 47.3732 125.023 47.8419 125.316 48.4523C125.614 49.0626 125.763 49.7902 125.763 50.6349V50.6495C125.763 51.4894 125.614 52.2145 125.316 52.8248C125.023 53.4352 124.605 53.9064 124.063 54.2384C123.521 54.5656 122.875 54.7291 122.123 54.7291ZM122.123 53.6012C122.621 53.6012 123.043 53.484 123.39 53.2496C123.736 53.0153 124 52.6783 124.181 52.2389C124.366 51.7994 124.459 51.2697 124.459 50.6495V50.6349C124.459 50.0099 124.366 49.4777 124.181 49.0382C124 48.5988 123.736 48.2643 123.39 48.0348C123.043 47.8004 122.621 47.6832 122.123 47.6832C121.625 47.6832 121.202 47.8004 120.855 48.0348C120.509 48.2643 120.243 48.5988 120.057 49.0382C119.876 49.4777 119.786 50.0099 119.786 50.6349V50.6495C119.786 51.2697 119.876 51.7994 120.057 52.2389C120.243 52.6783 120.509 53.0153 120.855 53.2496C121.202 53.484 121.625 53.6012 122.123 53.6012ZM127.74 54.59V46.6945H129.015V47.8663H129.132C129.283 47.4513 129.54 47.129 129.901 46.8995C130.262 46.67 130.709 46.5553 131.241 46.5553C131.363 46.5553 131.483 46.5626 131.6 46.5773C131.722 46.587 131.815 46.5968 131.878 46.6066V47.8444C131.747 47.8199 131.617 47.8029 131.49 47.7931C131.368 47.7784 131.236 47.7711 131.095 47.7711C130.689 47.7711 130.331 47.8517 130.018 48.0128C129.706 48.174 129.459 48.3986 129.278 48.6866C129.103 48.9747 129.015 49.3116 129.015 49.6974V54.59H127.74ZM138.346 57.3585C138.263 57.3585 138.17 57.3536 138.067 57.3439C137.965 57.339 137.87 57.3292 137.782 57.3146V56.2672C137.86 56.2819 137.945 56.2916 138.038 56.2965C138.131 56.3014 138.221 56.3038 138.309 56.3038C138.67 56.3038 138.966 56.2111 139.195 56.0255C139.43 55.84 139.618 55.5201 139.759 55.066L139.906 54.5973L136.983 46.6945H138.346L140.777 53.9894L140.272 53.191H140.873L140.367 53.9894L142.792 46.6945H144.132L141.048 55.0734C140.829 55.6642 140.599 56.1256 140.36 56.4576C140.125 56.7897 139.847 57.0216 139.525 57.1534C139.208 57.2902 138.814 57.3585 138.346 57.3585ZM148.768 54.7291C148.021 54.7291 147.374 54.5656 146.827 54.2384C146.285 53.9064 145.865 53.4352 145.567 52.8248C145.274 52.2145 145.128 51.4894 145.128 50.6495V50.6349C145.128 49.7902 145.274 49.0626 145.567 48.4523C145.865 47.8419 146.285 47.3732 146.827 47.046C147.374 46.7189 148.021 46.5553 148.768 46.5553C149.52 46.5553 150.167 46.7189 150.709 47.046C151.251 47.3732 151.668 47.8419 151.961 48.4523C152.259 49.0626 152.408 49.7902 152.408 50.6349V50.6495C152.408 51.4894 152.259 52.2145 151.961 52.8248C151.668 53.4352 151.251 53.9064 150.709 54.2384C150.167 54.5656 149.52 54.7291 148.768 54.7291ZM148.768 53.6012C149.266 53.6012 149.688 53.484 150.035 53.2496C150.382 53.0153 150.646 52.6783 150.826 52.2389C151.012 51.7994 151.104 51.2697 151.104 50.6495V50.6349C151.104 50.0099 151.012 49.4777 150.826 49.0382C150.646 48.5988 150.382 48.2643 150.035 48.0348C149.688 47.8004 149.266 47.6832 148.768 47.6832C148.27 47.6832 147.848 47.8004 147.501 48.0348C147.154 48.2643 146.888 48.5988 146.703 49.0382C146.522 49.4777 146.432 50.0099 146.432 50.6349V50.6495C146.432 51.2697 146.522 51.7994 146.703 52.2389C146.888 52.6783 147.154 53.0153 147.501 53.2496C147.848 53.484 148.27 53.6012 148.768 53.6012ZM157.03 54.7291C156.434 54.7291 155.934 54.6168 155.528 54.3922C155.123 54.1627 154.818 53.8307 154.613 53.3961C154.413 52.9567 154.312 52.4269 154.312 51.8068V46.6945H155.587V51.4991C155.587 52.2072 155.724 52.7345 155.997 53.0812C156.275 53.4279 156.729 53.6012 157.359 53.6012C157.823 53.6012 158.214 53.5109 158.531 53.3302C158.849 53.1495 159.088 52.8932 159.249 52.5612C159.41 52.2242 159.491 51.8263 159.491 51.3673V46.6945H160.765V54.59H159.491V53.4108H159.374C159.178 53.8307 158.883 54.1554 158.487 54.3849C158.097 54.6144 157.611 54.7291 157.03 54.7291ZM164.186 54.6632C163.927 54.6632 163.702 54.5704 163.512 54.3849C163.326 54.1945 163.233 53.9698 163.233 53.7111C163.233 53.4474 163.326 53.2228 163.512 53.0372C163.702 52.8517 163.927 52.7589 164.186 52.7589C164.449 52.7589 164.674 52.8517 164.859 53.0372C165.045 53.2228 165.138 53.4474 165.138 53.7111C165.138 53.9698 165.045 54.1945 164.859 54.3849C164.674 54.5704 164.449 54.6632 164.186 54.6632Z" fill="black"/>
<path d="M23.4023 89.59H17.5078V88.6818H20.0039V82.3068H19.9102L17.4902 83.8712V82.7697L20.0098 81.1349H21.0234V88.6818H23.4023V89.59ZM27.627 89.6251C27.0469 89.6251 26.5664 89.1388 26.5664 88.5411C26.5664 87.9493 27.0469 87.463 27.627 87.463C28.207 87.463 28.6875 87.9493 28.6875 88.5411C28.6875 89.1388 28.207 89.6251 27.627 89.6251ZM35.0742 89.7775C33.3164 89.7775 32.0918 88.7697 32.0918 87.3282C32.0918 86.2794 32.7715 85.424 33.8145 85.172V85.0782C32.9648 84.8439 32.4316 84.1173 32.4316 83.1974C32.4316 81.879 33.5332 80.9474 35.0742 80.9474C36.6152 80.9474 37.7109 81.879 37.7109 83.1974C37.7109 84.1173 37.1895 84.838 36.3281 85.0782V85.172C37.3535 85.3888 38.0508 86.2618 38.0508 87.3282C38.0508 88.7697 36.832 89.7775 35.0742 89.7775ZM35.0742 84.7267C36.0527 84.7267 36.6973 84.1525 36.6973 83.2853C36.6973 82.424 36.0527 81.8497 35.0742 81.8497C34.0957 81.8497 33.4453 82.424 33.4453 83.2853C33.4453 84.1525 34.0957 84.7267 35.0742 84.7267ZM35.0742 88.881C36.2227 88.881 37.0137 88.213 37.0137 87.2462C37.0137 86.2794 36.2227 85.6115 35.0742 85.6115C33.9258 85.6115 33.1348 86.2794 33.1348 87.2462C33.1348 88.213 33.9258 88.881 35.0742 88.881Z" fill="black"/>
<path d="M48.6035 85.3595C48.6035 83.3732 49.2012 81.6447 50.3672 80.3204H51.3574C50.1445 82.0255 49.6348 83.5197 49.6348 85.3595C49.6348 87.1993 50.1445 88.6935 51.3574 90.3986H50.3672C49.2012 89.0743 48.6035 87.3517 48.6035 85.3595ZM60.4922 89.59H54.5977V88.6818H57.0938V82.3068H57L54.5801 83.8712V82.7697L57.0996 81.1349H58.1133V88.6818H60.4922V89.59ZM64.7461 89.7775C62.9883 89.7775 61.7637 88.7697 61.7637 87.3282C61.7637 86.2794 62.4434 85.424 63.4863 85.172V85.0782C62.6367 84.8439 62.1035 84.1173 62.1035 83.1974C62.1035 81.879 63.2051 80.9474 64.7461 80.9474C66.2871 80.9474 67.3828 81.879 67.3828 83.1974C67.3828 84.1173 66.8613 84.838 66 85.0782V85.172C67.0254 85.3888 67.7227 86.2618 67.7227 87.3282C67.7227 88.7697 66.5039 89.7775 64.7461 89.7775ZM64.7461 84.7267C65.7246 84.7267 66.3691 84.1525 66.3691 83.2853C66.3691 82.424 65.7246 81.8497 64.7461 81.8497C63.7676 81.8497 63.1172 82.424 63.1172 83.2853C63.1172 84.1525 63.7676 84.7267 64.7461 84.7267ZM64.7461 88.881C65.8945 88.881 66.6855 88.213 66.6855 87.2462C66.6855 86.2794 65.8945 85.6115 64.7461 85.6115C63.5977 85.6115 62.8066 86.2794 62.8066 87.2462C62.8066 88.213 63.5977 88.881 64.7461 88.881ZM72.1406 89.7833C70.3008 89.7833 69.2871 88.213 69.2871 85.3654C69.2871 82.5177 70.3008 80.9474 72.1406 80.9474C73.9746 80.9474 74.9941 82.5177 74.9941 85.3654C74.9941 88.213 73.9746 89.7833 72.1406 89.7833ZM70.3125 85.3654C70.3125 85.6993 70.3301 86.0099 70.3535 86.297L73.7637 83.4493C73.4883 82.4005 72.9375 81.8615 72.1406 81.8615C70.9453 81.8615 70.3125 83.0685 70.3125 85.3654ZM72.1406 88.8693C73.3359 88.8693 73.9629 87.6564 73.9629 85.3654C73.9629 85.0255 73.9512 84.715 73.9219 84.422L70.5234 87.2931C70.7988 88.3302 71.3438 88.8693 72.1406 88.8693ZM77.4668 85.213C76.4766 85.213 75.8613 84.5216 75.8613 83.4142V82.8107C75.8613 81.715 76.4824 81.0236 77.4668 81.0236C78.4512 81.0236 79.0664 81.715 79.0664 82.8107V83.4142C79.0664 84.5216 78.457 85.213 77.4668 85.213ZM83.2617 81.1349V82.0431L75.8438 89.59V88.6818L83.2617 81.1349ZM77.4668 84.4747C78.0234 84.4747 78.3164 84.0704 78.3164 83.3029V82.9337C78.3164 82.1661 78.0234 81.7618 77.4668 81.7618C76.9043 81.7618 76.6113 82.1661 76.6113 82.9337V83.3029C76.6113 84.0704 76.9043 84.4747 77.4668 84.4747ZM81.6387 89.7013C80.6484 89.7013 80.0391 89.0099 80.0391 87.9025V87.299C80.0391 86.2091 80.6543 85.5118 81.6387 85.5118C82.623 85.5118 83.2441 86.2091 83.2441 87.299V87.9025C83.2441 89.0099 82.6289 89.7013 81.6387 89.7013ZM81.6387 88.9689C82.2012 88.9689 82.4941 88.5587 82.4941 87.7911V87.422C82.4941 86.6544 82.2012 86.2501 81.6387 86.2501C81.082 86.2501 80.7891 86.6544 80.7891 87.422V87.7911C80.7891 88.5587 81.082 88.9689 81.6387 88.9689ZM88.248 85.3595C88.248 87.3517 87.6504 89.0743 86.4844 90.3986H85.4941C86.707 88.6935 87.2168 87.1993 87.2168 85.3595C87.2168 83.5197 86.707 82.0255 85.4941 80.3204H86.4844C87.6504 81.6447 88.248 83.3732 88.248 85.3595Z" fill="#222222" fill-opacity="0.5"/>
</svg>
