<svg viewBox="0 0 223 109" fill="none" xmlns="http://www.w3.org/2000/svg">
<rect y="0.589966" width="222.5" height="108" rx="14" fill="#F9F9F9"/>
<rect x="0.5" y="1.08997" width="221.5" height="107" rx="13.5" stroke="black" stroke-opacity="0.1"/>
<rect width="190.5" height="30" transform="translate(16 32.59)" fill="black" fill-opacity="0.09"/>
<path d="M16.5054 52.59L20.4019 42.0211H21.4126V43.7277H20.9951L17.8896 52.59H16.5054ZM18.2705 49.5651L18.6807 48.4445H23.4561L23.8662 49.5651H18.2705ZM24.2178 52.59L21.1123 43.7277V42.0211H21.7056L25.6021 52.59H24.2178ZM27.3232 52.59V44.6945H28.5977V52.59H27.3232ZM27.9678 43.171C27.7285 43.171 27.521 43.0856 27.3452 42.9147C27.1743 42.7389 27.0889 42.5314 27.0889 42.2921C27.0889 42.048 27.1743 41.8405 27.3452 41.6696C27.521 41.4987 27.7285 41.4132 27.9678 41.4132C28.2119 41.4132 28.4194 41.4987 28.5903 41.6696C28.7612 41.8405 28.8467 42.048 28.8467 42.2921C28.8467 42.5314 28.7612 42.7389 28.5903 42.9147C28.4194 43.0856 28.2119 43.171 27.9678 43.171ZM38.0239 52.6486C37.2134 52.6486 36.625 52.485 36.2588 52.1578C35.8975 51.8307 35.7168 51.2911 35.7168 50.5392V45.7491H34.4717V44.6945H35.7168V42.651H37.0352V44.6945H38.7637V45.7491H37.0352V50.2169C37.0352 50.6808 37.123 51.0153 37.2988 51.2203C37.4746 51.4205 37.7676 51.5206 38.1777 51.5206C38.29 51.5206 38.3853 51.5182 38.4634 51.5133C38.5464 51.5084 38.6465 51.5011 38.7637 51.4913V52.5753C38.6416 52.5948 38.5195 52.6119 38.3975 52.6266C38.2754 52.6412 38.1509 52.6486 38.0239 52.6486ZM40.7412 52.59V41.5597H42.0156V45.881H42.1328C42.333 45.4611 42.6211 45.1364 42.9971 44.9069C43.373 44.6725 43.8516 44.5553 44.4326 44.5553C45.0234 44.5553 45.5239 44.67 45.9341 44.8995C46.3442 45.1241 46.6567 45.4537 46.8716 45.8883C47.0864 46.3229 47.1938 46.8527 47.1938 47.4777V52.59H45.9194V47.7853C45.9194 47.0724 45.7681 46.545 45.4653 46.2032C45.1675 45.8566 44.7036 45.6832 44.0737 45.6832C43.6538 45.6832 43.29 45.7736 42.9824 45.9542C42.6748 46.1349 42.4355 46.3912 42.2646 46.7233C42.0986 47.0553 42.0156 47.4532 42.0156 47.9171V52.59H40.7412ZM51.6689 52.7291C51.1709 52.7291 50.7217 52.6339 50.3213 52.4435C49.9258 52.2531 49.6108 51.9821 49.3765 51.6305C49.147 51.2789 49.0322 50.8639 49.0322 50.3854V50.3707C49.0322 49.6676 49.2812 49.1183 49.7793 48.7228C50.2822 48.3224 50.9927 48.0953 51.9106 48.0416L54.811 47.8658V48.8839L52.0645 49.0597C51.4639 49.0939 51.0244 49.2184 50.7461 49.4332C50.4727 49.6481 50.3359 49.9508 50.3359 50.3414V50.3561C50.3359 50.7565 50.4873 51.069 50.79 51.2936C51.0928 51.5133 51.4736 51.6232 51.9326 51.6232C52.3672 51.6232 52.7529 51.5377 53.0898 51.3668C53.4268 51.191 53.6904 50.9542 53.8809 50.6564C54.0762 50.3585 54.1738 50.0216 54.1738 49.6456V47.1847C54.1738 46.6964 54.0249 46.3253 53.7271 46.0714C53.4341 45.8126 52.9922 45.6832 52.4014 45.6832C51.9277 45.6832 51.5396 45.7687 51.2368 45.9396C50.9341 46.1056 50.7314 46.3424 50.6289 46.65L50.6216 46.672H49.3472L49.3545 46.6281C49.4229 46.213 49.5938 45.8517 49.8672 45.5441C50.1455 45.2316 50.5044 44.9899 50.9438 44.819C51.3833 44.6432 51.8838 44.5553 52.4453 44.5553C53.0898 44.5553 53.6343 44.6603 54.0786 44.8702C54.5278 45.0802 54.8672 45.3829 55.0967 45.7784C55.3311 46.1691 55.4482 46.6378 55.4482 47.1847V52.59H54.1738V51.4254H54.0566C53.8906 51.7037 53.688 51.9406 53.4487 52.1359C53.2144 52.3312 52.9482 52.4801 52.6504 52.5826C52.3525 52.6803 52.0254 52.7291 51.6689 52.7291ZM60.5825 52.6486C59.772 52.6486 59.1836 52.485 58.8174 52.1578C58.4561 51.8307 58.2754 51.2911 58.2754 50.5392V45.7491H57.0303V44.6945H58.2754V42.651H59.5938V44.6945H61.3223V45.7491H59.5938V50.2169C59.5938 50.6808 59.6816 51.0153 59.8574 51.2203C60.0332 51.4205 60.3262 51.5206 60.7363 51.5206C60.8486 51.5206 60.9438 51.5182 61.022 51.5133C61.105 51.5084 61.2051 51.5011 61.3223 51.4913V52.5753C61.2002 52.5948 61.0781 52.6119 60.9561 52.6266C60.834 52.6412 60.7095 52.6486 60.5825 52.6486ZM68.9688 52.59L66.7568 44.6945H68.0312L69.584 51.0079H69.7012L71.4663 44.6945H72.6748L74.4399 51.0079H74.5571L76.1099 44.6945H77.377L75.165 52.59H73.8833L72.1182 46.4816H72.001L70.2432 52.59H68.9688ZM82.0132 52.7291C81.2661 52.7291 80.6191 52.5656 80.0723 52.2384C79.5303 51.9064 79.1104 51.4352 78.8125 50.8248C78.5195 50.2145 78.373 49.4894 78.373 48.6495V48.6349C78.373 47.7902 78.5195 47.0626 78.8125 46.4523C79.1104 45.8419 79.5303 45.3732 80.0723 45.046C80.6191 44.7189 81.2661 44.5553 82.0132 44.5553C82.7651 44.5553 83.4121 44.7189 83.9541 45.046C84.4961 45.3732 84.9136 45.8419 85.2065 46.4523C85.5044 47.0626 85.6533 47.7902 85.6533 48.6349V48.6495C85.6533 49.4894 85.5044 50.2145 85.2065 50.8248C84.9136 51.4352 84.4961 51.9064 83.9541 52.2384C83.4121 52.5656 82.7651 52.7291 82.0132 52.7291ZM82.0132 51.6012C82.5112 51.6012 82.9336 51.484 83.2803 51.2496C83.627 51.0153 83.8906 50.6783 84.0713 50.2389C84.2568 49.7994 84.3496 49.2697 84.3496 48.6495V48.6349C84.3496 48.0099 84.2568 47.4777 84.0713 47.0382C83.8906 46.5988 83.627 46.2643 83.2803 46.0348C82.9336 45.8004 82.5112 45.6832 82.0132 45.6832C81.5151 45.6832 81.0928 45.8004 80.7461 46.0348C80.3994 46.2643 80.1333 46.5988 79.9478 47.0382C79.7671 47.4777 79.6768 48.0099 79.6768 48.6349V48.6495C79.6768 49.2697 79.7671 49.7994 79.9478 50.2389C80.1333 50.6783 80.3994 51.0153 80.7461 51.2496C81.0928 51.484 81.5151 51.6012 82.0132 51.6012ZM87.6309 52.59V44.6945H88.9053V45.8663H89.0225C89.1738 45.4513 89.4302 45.129 89.7915 44.8995C90.1528 44.67 90.5996 44.5553 91.1318 44.5553C91.2539 44.5553 91.3735 44.5626 91.4907 44.5773C91.6128 44.587 91.7056 44.5968 91.769 44.6066V45.8444C91.6372 45.8199 91.5078 45.8029 91.3809 45.7931C91.2588 45.7784 91.127 45.7711 90.9854 45.7711C90.5801 45.7711 90.2212 45.8517 89.9087 46.0128C89.5962 46.174 89.3496 46.3986 89.1689 46.6866C88.9932 46.9747 88.9053 47.3116 88.9053 47.6974V52.59H87.6309ZM93.417 52.59V41.5597H94.6914V52.59H93.417ZM98.3901 52.59L95.3066 48.7228L96.2441 47.9098L99.9941 52.59H98.3901ZM94.5303 49.7482L94.4717 48.1442H94.8086L98.2217 44.6945H99.7671L96.0171 48.3126L95.7095 48.6129L94.5303 49.7482ZM103.905 52.7291C103.319 52.7291 102.802 52.6412 102.353 52.4655C101.903 52.2848 101.542 52.0333 101.269 51.7111C101 51.3888 100.841 51.0104 100.792 50.5758H102.096C102.204 50.903 102.414 51.1666 102.726 51.3668C103.039 51.567 103.446 51.6671 103.949 51.6671C104.306 51.6671 104.618 51.6158 104.887 51.5133C105.16 51.4059 105.375 51.2618 105.531 51.0812C105.688 50.8956 105.766 50.6832 105.766 50.444V50.4293C105.766 50.1608 105.658 49.9337 105.443 49.7482C105.229 49.5577 104.877 49.4039 104.389 49.2867L103.166 48.9938C102.428 48.818 101.886 48.5616 101.54 48.2247C101.193 47.8829 101.02 47.4288 101.02 46.8624V46.8551C101.02 46.4156 101.146 46.0226 101.4 45.6759C101.659 45.3292 102.011 45.0558 102.455 44.8556C102.899 44.6554 103.4 44.5553 103.957 44.5553C104.508 44.5553 104.997 44.6432 105.421 44.819C105.851 44.9899 106.195 45.234 106.454 45.5514C106.718 45.8688 106.879 46.2423 106.938 46.672H105.685C105.602 46.3595 105.412 46.1056 105.114 45.9103C104.816 45.715 104.428 45.6173 103.949 45.6173C103.637 45.6173 103.358 45.6686 103.114 45.7711C102.87 45.8688 102.677 46.0055 102.536 46.1813C102.394 46.3571 102.323 46.5621 102.323 46.7965V46.8112C102.323 47.0797 102.428 47.3019 102.638 47.4777C102.848 47.6534 103.185 47.7975 103.649 47.9098L104.865 48.2028C105.607 48.3834 106.159 48.6422 106.52 48.9791C106.886 49.316 107.069 49.7677 107.069 50.3341V50.3488C107.069 50.8175 106.93 51.2325 106.652 51.5939C106.374 51.9503 105.995 52.2286 105.517 52.4288C105.043 52.629 104.506 52.7291 103.905 52.7291ZM113.793 52.59V45.7491H112.482V44.6945H113.793V43.8156C113.793 43.0294 113.988 42.4459 114.379 42.0651C114.77 41.6793 115.338 41.4865 116.085 41.4865C116.242 41.4865 116.388 41.4938 116.525 41.5084C116.667 41.5182 116.803 41.5353 116.935 41.5597V42.5778C116.857 42.5631 116.767 42.5533 116.664 42.5485C116.562 42.5436 116.454 42.5411 116.342 42.5411C115.888 42.5411 115.561 42.651 115.36 42.8707C115.165 43.0905 115.067 43.4176 115.067 43.8522V44.6945H116.862V45.7491H115.067V52.59H113.793ZM121.623 52.7291C120.875 52.7291 120.229 52.5656 119.682 52.2384C119.14 51.9064 118.72 51.4352 118.422 50.8248C118.129 50.2145 117.982 49.4894 117.982 48.6495V48.6349C117.982 47.7902 118.129 47.0626 118.422 46.4523C118.72 45.8419 119.14 45.3732 119.682 45.046C120.229 44.7189 120.875 44.5553 121.623 44.5553C122.375 44.5553 123.021 44.7189 123.563 45.046C124.105 45.3732 124.523 45.8419 124.816 46.4523C125.114 47.0626 125.263 47.7902 125.263 48.6349V48.6495C125.263 49.4894 125.114 50.2145 124.816 50.8248C124.523 51.4352 124.105 51.9064 123.563 52.2384C123.021 52.5656 122.375 52.7291 121.623 52.7291ZM121.623 51.6012C122.121 51.6012 122.543 51.484 122.89 51.2496C123.236 51.0153 123.5 50.6783 123.681 50.2389C123.866 49.7994 123.959 49.2697 123.959 48.6495V48.6349C123.959 48.0099 123.866 47.4777 123.681 47.0382C123.5 46.5988 123.236 46.2643 122.89 46.0348C122.543 45.8004 122.121 45.6832 121.623 45.6832C121.125 45.6832 120.702 45.8004 120.355 46.0348C120.009 46.2643 119.743 46.5988 119.557 47.0382C119.376 47.4777 119.286 48.0099 119.286 48.6349V48.6495C119.286 49.2697 119.376 49.7994 119.557 50.2389C119.743 50.6783 120.009 51.0153 120.355 51.2496C120.702 51.484 121.125 51.6012 121.623 51.6012ZM127.24 52.59V44.6945H128.515V45.8663H128.632C128.783 45.4513 129.04 45.129 129.401 44.8995C129.762 44.67 130.209 44.5553 130.741 44.5553C130.863 44.5553 130.983 44.5626 131.1 44.5773C131.222 44.587 131.315 44.5968 131.378 44.6066V45.8444C131.247 45.8199 131.117 45.8029 130.99 45.7931C130.868 45.7784 130.736 45.7711 130.595 45.7711C130.189 45.7711 129.831 45.8517 129.518 46.0128C129.206 46.174 128.959 46.3986 128.778 46.6866C128.603 46.9747 128.515 47.3116 128.515 47.6974V52.59H127.24ZM137.846 55.3585C137.763 55.3585 137.67 55.3536 137.567 55.3439C137.465 55.339 137.37 55.3292 137.282 55.3146V54.2672C137.36 54.2819 137.445 54.2916 137.538 54.2965C137.631 54.3014 137.721 54.3038 137.809 54.3038C138.17 54.3038 138.466 54.2111 138.695 54.0255C138.93 53.84 139.118 53.5201 139.259 53.066L139.406 52.5973L136.483 44.6945H137.846L140.277 51.9894L139.772 51.191H140.373L139.867 51.9894L142.292 44.6945H143.632L140.548 53.0734C140.329 53.6642 140.099 54.1256 139.86 54.4576C139.625 54.7897 139.347 55.0216 139.025 55.1534C138.708 55.2902 138.314 55.3585 137.846 55.3585ZM148.268 52.7291C147.521 52.7291 146.874 52.5656 146.327 52.2384C145.785 51.9064 145.365 51.4352 145.067 50.8248C144.774 50.2145 144.628 49.4894 144.628 48.6495V48.6349C144.628 47.7902 144.774 47.0626 145.067 46.4523C145.365 45.8419 145.785 45.3732 146.327 45.046C146.874 44.7189 147.521 44.5553 148.268 44.5553C149.02 44.5553 149.667 44.7189 150.209 45.046C150.751 45.3732 151.168 45.8419 151.461 46.4523C151.759 47.0626 151.908 47.7902 151.908 48.6349V48.6495C151.908 49.4894 151.759 50.2145 151.461 50.8248C151.168 51.4352 150.751 51.9064 150.209 52.2384C149.667 52.5656 149.02 52.7291 148.268 52.7291ZM148.268 51.6012C148.766 51.6012 149.188 51.484 149.535 51.2496C149.882 51.0153 150.146 50.6783 150.326 50.2389C150.512 49.7994 150.604 49.2697 150.604 48.6495V48.6349C150.604 48.0099 150.512 47.4777 150.326 47.0382C150.146 46.5988 149.882 46.2643 149.535 46.0348C149.188 45.8004 148.766 45.6832 148.268 45.6832C147.77 45.6832 147.348 45.8004 147.001 46.0348C146.654 46.2643 146.388 46.5988 146.203 47.0382C146.022 47.4777 145.932 48.0099 145.932 48.6349V48.6495C145.932 49.2697 146.022 49.7994 146.203 50.2389C146.388 50.6783 146.654 51.0153 147.001 51.2496C147.348 51.484 147.77 51.6012 148.268 51.6012ZM156.53 52.7291C155.934 52.7291 155.434 52.6168 155.028 52.3922C154.623 52.1627 154.318 51.8307 154.113 51.3961C153.913 50.9567 153.812 50.4269 153.812 49.8068V44.6945H155.087V49.4991C155.087 50.2072 155.224 50.7345 155.497 51.0812C155.775 51.4279 156.229 51.6012 156.859 51.6012C157.323 51.6012 157.714 51.5109 158.031 51.3302C158.349 51.1495 158.588 50.8932 158.749 50.5612C158.91 50.2242 158.991 49.8263 158.991 49.3673V44.6945H160.265V52.59H158.991V51.4108H158.874C158.678 51.8307 158.383 52.1554 157.987 52.3849C157.597 52.6144 157.111 52.7291 156.53 52.7291ZM163.686 52.6632C163.427 52.6632 163.202 52.5704 163.012 52.3849C162.826 52.1945 162.733 51.9698 162.733 51.7111C162.733 51.4474 162.826 51.2228 163.012 51.0372C163.202 50.8517 163.427 50.7589 163.686 50.7589C163.949 50.7589 164.174 50.8517 164.359 51.0372C164.545 51.2228 164.638 51.4474 164.638 51.7111C164.638 51.9698 164.545 52.1945 164.359 52.3849C164.174 52.5704 163.949 52.6632 163.686 52.6632Z" fill="black"/>
<path d="M17.0137 83.5138C17.0137 82.0255 18.1152 80.9591 19.6562 80.9591C21.209 80.9591 22.2754 81.92 22.2754 83.3322C22.2754 84.2111 21.877 84.9142 20.5293 86.3849L18.5371 88.5529V88.6525H22.4102V89.59H17.0605V88.8751L19.9199 85.6935C20.9922 84.4923 21.25 84.0411 21.25 83.3732C21.25 82.465 20.6113 81.8673 19.627 81.8673C18.6543 81.8673 18.0098 82.5177 18.0098 83.5138V83.549H17.0137V83.5138ZM27.127 89.6251C26.5469 89.6251 26.0664 89.1388 26.0664 88.5411C26.0664 87.9493 26.5469 87.463 27.127 87.463C27.707 87.463 28.1875 87.9493 28.1875 88.5411C28.1875 89.1388 27.707 89.6251 27.127 89.6251ZM34.5508 89.7833C32.7109 89.7833 31.6973 88.213 31.6973 85.3654C31.6973 82.5177 32.7109 80.9474 34.5508 80.9474C36.3848 80.9474 37.4043 82.5177 37.4043 85.3654C37.4043 88.213 36.3848 89.7833 34.5508 89.7833ZM32.7227 85.3654C32.7227 85.6993 32.7402 86.0099 32.7637 86.297L36.1738 83.4493C35.8984 82.4005 35.3477 81.8615 34.5508 81.8615C33.3555 81.8615 32.7227 83.0685 32.7227 85.3654ZM34.5508 88.8693C35.7461 88.8693 36.373 87.6564 36.373 85.3654C36.373 85.0255 36.3613 84.715 36.332 84.422L32.9336 87.2931C33.209 88.3302 33.7539 88.8693 34.5508 88.8693Z" fill="black"/>
<path d="M48.1035 85.3595C48.1035 83.3732 48.7012 81.6447 49.8672 80.3204H50.8574C49.6445 82.0255 49.1348 83.5197 49.1348 85.3595C49.1348 87.1993 49.6445 88.6935 50.8574 90.3986H49.8672C48.7012 89.0743 48.1035 87.3517 48.1035 85.3595ZM54.1035 83.5138C54.1035 82.0255 55.2051 80.9591 56.7461 80.9591C58.2988 80.9591 59.3652 81.92 59.3652 83.3322C59.3652 84.2111 58.9668 84.9142 57.6191 86.3849L55.627 88.5529V88.6525H59.5V89.59H54.1504V88.8751L57.0098 85.6935C58.082 84.4923 58.3398 84.0411 58.3398 83.3732C58.3398 82.465 57.7012 81.8673 56.7168 81.8673C55.7441 81.8673 55.0996 82.5177 55.0996 83.5138V83.549H54.1035V83.5138ZM64.2227 89.7833C62.3828 89.7833 61.3691 88.213 61.3691 85.3654C61.3691 82.5177 62.3828 80.9474 64.2227 80.9474C66.0566 80.9474 67.0762 82.5177 67.0762 85.3654C67.0762 88.213 66.0566 89.7833 64.2227 89.7833ZM62.3945 85.3654C62.3945 85.6993 62.4121 86.0099 62.4355 86.297L65.8457 83.4493C65.5703 82.4005 65.0195 81.8615 64.2227 81.8615C63.0273 81.8615 62.3945 83.0685 62.3945 85.3654ZM64.2227 88.8693C65.418 88.8693 66.0449 87.6564 66.0449 85.3654C66.0449 85.0255 66.0332 84.715 66.0039 84.422L62.6055 87.2931C62.8809 88.3302 63.4258 88.8693 64.2227 88.8693ZM71.6406 89.7833C69.8008 89.7833 68.7871 88.213 68.7871 85.3654C68.7871 82.5177 69.8008 80.9474 71.6406 80.9474C73.4746 80.9474 74.4941 82.5177 74.4941 85.3654C74.4941 88.213 73.4746 89.7833 71.6406 89.7833ZM69.8125 85.3654C69.8125 85.6993 69.8301 86.0099 69.8535 86.297L73.2637 83.4493C72.9883 82.4005 72.4375 81.8615 71.6406 81.8615C70.4453 81.8615 69.8125 83.0685 69.8125 85.3654ZM71.6406 88.8693C72.8359 88.8693 73.4629 87.6564 73.4629 85.3654C73.4629 85.0255 73.4512 84.715 73.4219 84.422L70.0234 87.2931C70.2988 88.3302 70.8438 88.8693 71.6406 88.8693ZM76.9668 85.213C75.9766 85.213 75.3613 84.5216 75.3613 83.4142V82.8107C75.3613 81.715 75.9824 81.0236 76.9668 81.0236C77.9512 81.0236 78.5664 81.715 78.5664 82.8107V83.4142C78.5664 84.5216 77.957 85.213 76.9668 85.213ZM82.7617 81.1349V82.0431L75.3438 89.59V88.6818L82.7617 81.1349ZM76.9668 84.4747C77.5234 84.4747 77.8164 84.0704 77.8164 83.3029V82.9337C77.8164 82.1661 77.5234 81.7618 76.9668 81.7618C76.4043 81.7618 76.1113 82.1661 76.1113 82.9337V83.3029C76.1113 84.0704 76.4043 84.4747 76.9668 84.4747ZM81.1387 89.7013C80.1484 89.7013 79.5391 89.0099 79.5391 87.9025V87.299C79.5391 86.2091 80.1543 85.5118 81.1387 85.5118C82.123 85.5118 82.7441 86.2091 82.7441 87.299V87.9025C82.7441 89.0099 82.1289 89.7013 81.1387 89.7013ZM81.1387 88.9689C81.7012 88.9689 81.9941 88.5587 81.9941 87.7911V87.422C81.9941 86.6544 81.7012 86.2501 81.1387 86.2501C80.582 86.2501 80.2891 86.6544 80.2891 87.422V87.7911C80.2891 88.5587 80.582 88.9689 81.1387 88.9689ZM87.748 85.3595C87.748 87.3517 87.1504 89.0743 85.9844 90.3986H84.9941C86.207 88.6935 86.7168 87.1993 86.7168 85.3595C86.7168 83.5197 86.207 82.0255 84.9941 80.3204H85.9844C87.1504 81.6447 87.748 83.3732 87.748 85.3595Z" fill="#222222" fill-opacity="0.5"/>
</svg>
