<svg width="165" height="146" viewBox="0 0 165 146" fill="none" xmlns="http://www.w3.org/2000/svg">
<g clip-path="url(#clip0_347_13501)">
<rect y="0.589844" width="165" height="145" rx="14" fill="white" fill-opacity="0.6"/>
<path d="M18.0156 85.0586H32.0586V87.0898H15.5938V58.6523H18.0156V85.0586ZM36.7578 87.0898H34.4141V65.957H36.7578V87.0898ZM34.0039 59.8438C34.0039 59.401 34.1471 59.0299 34.4336 58.7305C34.7201 58.418 35.1107 58.2617 35.6055 58.2617C36.1003 58.2617 36.4909 58.418 36.7773 58.7305C37.0768 59.0299 37.2266 59.401 37.2266 59.8438C37.2266 60.2865 37.0768 60.6576 36.7773 60.957C36.4909 61.2565 36.1003 61.4062 35.6055 61.4062C35.1107 61.4062 34.7201 61.2565 34.4336 60.957C34.1471 60.6576 34.0039 60.2865 34.0039 59.8438ZM40.1875 76.3281C40.1875 73.0208 40.9167 70.4036 42.375 68.4766C43.8464 66.5365 45.8385 65.5664 48.3516 65.5664C51.2292 65.5664 53.4167 66.7122 54.9141 69.0039L55.0312 65.957H57.2188V86.6602C57.2188 89.3815 56.457 91.5365 54.9336 93.125C53.4102 94.7135 51.3464 95.5078 48.7422 95.5078C47.2708 95.5078 45.8646 95.1758 44.5234 94.5117C43.1953 93.8607 42.1471 92.9883 41.3789 91.8945L42.6875 90.4883C44.3411 92.5195 46.3073 93.5352 48.5859 93.5352C50.5391 93.5352 52.0625 92.9557 53.1562 91.7969C54.25 90.651 54.8164 89.056 54.8555 87.0117V84.3555C53.3581 86.4388 51.1771 87.4805 48.3125 87.4805C45.8646 87.4805 43.8984 86.5039 42.4141 84.5508C40.9297 82.5977 40.1875 79.9609 40.1875 76.6406V76.3281ZM42.5508 76.7383C42.5508 79.4336 43.0911 81.5625 44.1719 83.125C45.2526 84.6745 46.776 85.4492 48.7422 85.4492C51.6198 85.4492 53.6576 84.1602 54.8555 81.582V71.7578C54.3086 70.4036 53.5208 69.375 52.4922 68.6719C51.4635 67.9557 50.2266 67.5977 48.7812 67.5977C46.8151 67.5977 45.2852 68.3724 44.1914 69.9219C43.0977 71.4583 42.5508 73.7305 42.5508 76.7383ZM63.6367 69.5312C64.4049 68.2682 65.388 67.2917 66.5859 66.6016C67.7839 65.9115 69.0924 65.5664 70.5117 65.5664C72.7773 65.5664 74.4635 66.2044 75.5703 67.4805C76.6771 68.7565 77.237 70.6706 77.25 73.2227V87.0898H74.9258V73.2031C74.9128 71.3151 74.5091 69.9089 73.7148 68.9844C72.9336 68.0599 71.6771 67.5977 69.9453 67.5977C68.5 67.5977 67.2174 68.0534 66.0977 68.9648C64.9909 69.8633 64.1706 71.0807 63.6367 72.6172V87.0898H61.3125V57.0898H63.6367V69.5312ZM84.8984 60.5469V65.957H89.2734V67.8711H84.8984V81.9531C84.8984 83.125 85.1068 83.9974 85.5234 84.5703C85.9531 85.1432 86.6628 85.4297 87.6523 85.4297C88.043 85.4297 88.6745 85.3646 89.5469 85.2344L89.6445 87.1484C89.0326 87.3698 88.1992 87.4805 87.1445 87.4805C85.543 87.4805 84.3776 87.0182 83.6484 86.0938C82.9193 85.1562 82.5547 83.7826 82.5547 81.9727V67.8711H78.668V65.957H82.5547V60.5469H84.8984Z" fill="black"/>
<path opacity="0.07" d="M121.781 114.59V29.2773H145.629C152.621 29.2773 158.891 30.8789 164.438 34.082C169.984 37.2461 174.301 41.7969 177.387 47.7344C180.512 53.6719 182.074 60.4297 182.074 68.0078V75.8594C182.074 83.4766 180.531 90.2344 177.445 96.1328C174.359 102.031 170.004 106.582 164.379 109.785C158.793 112.988 152.367 114.59 145.102 114.59H121.781ZM128.988 35.4297V108.496H145.16C154.145 108.496 161.352 105.527 166.781 99.5898C172.211 93.6133 174.926 85.5469 174.926 75.3906V67.8906C174.926 58.0859 172.25 50.2344 166.898 44.3359C161.547 38.4375 154.496 35.4688 145.746 35.4297H128.988ZM201.621 79.8438V114.59H194.414V29.2773H223.477C232.344 29.2773 239.336 31.543 244.453 36.0742C249.609 40.6055 252.188 46.8359 252.188 54.7656C252.188 62.7734 249.707 68.9648 244.746 73.3398C239.824 77.6758 232.676 79.8438 223.301 79.8438H201.621ZM201.621 73.75H223.477C230.469 73.75 235.801 72.0898 239.473 68.7695C243.145 65.4492 244.98 60.8203 244.98 54.8828C244.98 48.9844 243.145 44.2969 239.473 40.8203C235.84 37.3047 230.664 35.5078 223.945 35.4297H201.621V73.75Z" fill="black"/>
</g>
<rect x="0.5" y="1.08984" width="164" height="144" rx="13.5" stroke="black" stroke-opacity="0.1"/>
<defs>
<clipPath id="clip0_347_13501">
<rect y="0.589844" width="165" height="145" rx="14" fill="white"/>
</clipPath>
</defs>
</svg>
