<svg width="165" height="146" viewBox="0 0 165 146" fill="none" xmlns="http://www.w3.org/2000/svg">
<rect y="0.589966" width="165" height="145" rx="14" fill="white" fill-opacity="0.6"/>
<rect x="0.5" y="1.08997" width="164" height="144" rx="13.5" stroke="black" stroke-opacity="0.1"/>
<path d="M38.856 74.59C38.3016 73.1224 37.7798 71.6875 37.2906 70.2852C36.8014 68.8503 36.296 67.399 35.7742 65.9315H20.4139L17.3321 74.59H12.3913C13.6958 71.0026 14.9188 67.6925 16.0602 64.6596C17.2016 61.5941 18.3104 58.6916 19.3866 55.9522C20.4954 53.2128 21.5879 50.6038 22.6641 48.1253C23.7403 45.6142 24.8654 43.1357 26.0395 40.6898H30.3932C31.5672 43.1357 32.6923 45.6142 33.7685 48.1253C34.8447 50.6038 35.9209 53.2128 36.9971 55.9522C38.1059 58.6916 39.231 61.5941 40.3725 64.6596C41.5139 67.6925 42.7368 71.0026 44.0413 74.59H38.856ZM34.4045 62.018C33.3609 59.1808 32.3173 56.4414 31.2737 53.7998C30.2627 51.1256 29.2028 48.5656 28.094 46.1197C26.9526 48.5656 25.8601 51.1256 24.8165 53.7998C23.8056 56.4414 22.7946 59.1808 21.7836 62.018H34.4045ZM54.514 71.3125C55.5902 71.3125 56.5359 71.2962 57.3512 71.2635C58.1991 71.1983 58.9003 71.1005 59.4547 70.97V63.3877C59.1286 63.2247 58.5905 63.0942 57.8404 62.9964C57.1229 62.8659 56.2424 62.8007 55.1988 62.8007C54.514 62.8007 53.7802 62.8496 52.9975 62.9475C52.2474 63.0453 51.5463 63.2573 50.894 63.5834C50.2744 63.8769 49.7526 64.3009 49.3287 64.8553C48.9047 65.3771 48.6927 66.0782 48.6927 66.9588C48.6927 68.5894 49.2145 69.7308 50.2581 70.383C51.3017 71.0026 52.7203 71.3125 54.514 71.3125ZM54.1226 48.5167C55.9489 48.5167 57.4817 48.7612 58.7209 49.2504C59.9928 49.707 61.0038 50.3755 61.7538 51.2561C62.5365 52.104 63.0909 53.1313 63.4171 54.3379C63.7432 55.5119 63.9062 56.8164 63.9062 58.2513V74.1497C63.5149 74.2149 62.9605 74.3128 62.243 74.4432C61.5582 74.541 60.7755 74.6389 59.895 74.7367C59.0144 74.8346 58.0524 74.9161 57.0088 74.9813C55.9978 75.0791 54.9868 75.1281 53.9759 75.1281C52.5409 75.1281 51.2202 74.9813 50.0135 74.6878C48.8069 74.3943 47.7633 73.9377 46.8828 73.3181C46.0022 72.6659 45.3174 71.8179 44.8282 70.7744C44.339 69.7308 44.0944 68.4752 44.0944 67.0077C44.0944 65.6054 44.3716 64.3987 44.926 63.3877C45.5131 62.3768 46.2957 61.5615 47.2741 60.9418C48.2525 60.3222 49.3939 59.8656 50.6984 59.5721C52.0028 59.2786 53.3726 59.1319 54.8075 59.1319C55.2641 59.1319 55.7369 59.1645 56.2261 59.2297C56.7153 59.2623 57.1719 59.3275 57.5958 59.4254C58.0524 59.4906 58.4437 59.5558 58.7698 59.621C59.096 59.6863 59.3242 59.7352 59.4547 59.7678V58.4959C59.4547 57.7459 59.3732 57.0121 59.2101 56.2946C59.047 55.5445 58.7535 54.8923 58.3296 54.3379C57.9056 53.7509 57.3186 53.2943 56.5685 52.9682C55.8511 52.6095 54.9053 52.4301 53.7313 52.4301C52.2311 52.4301 50.9103 52.5442 49.7689 52.7725C48.6601 52.9682 47.8285 53.1802 47.2741 53.4085L46.736 49.6418C47.323 49.3809 48.3014 49.1363 49.6711 48.908C51.0408 48.6471 52.5246 48.5167 54.1226 48.5167Z" fill="black"/>
<path d="M14.1211 97.67H18.1641V98.59H12.9902V90.0587H14.1211V97.67ZM20.4551 98.59H19.3711V92.2501H20.4551V98.59ZM19.2832 90.5685C19.2832 90.3927 19.3359 90.2443 19.4414 90.1232C19.5508 90.0021 19.7109 89.9415 19.9219 89.9415C20.1328 89.9415 20.293 90.0021 20.4023 90.1232C20.5117 90.2443 20.5664 90.3927 20.5664 90.5685C20.5664 90.7443 20.5117 90.8907 20.4023 91.0079C20.293 91.1251 20.1328 91.1837 19.9219 91.1837C19.7109 91.1837 19.5508 91.1251 19.4414 91.0079C19.3359 90.8907 19.2832 90.7443 19.2832 90.5685ZM23.2207 92.2501L23.2559 93.047C23.7402 92.4376 24.373 92.1329 25.1543 92.1329C26.4941 92.1329 27.1699 92.8888 27.1816 94.4005V98.59H26.0977V94.3947C26.0938 93.9376 25.9883 93.5997 25.7812 93.381C25.5781 93.1622 25.2598 93.0529 24.8262 93.0529C24.4746 93.0529 24.166 93.1466 23.9004 93.3341C23.6348 93.5216 23.4277 93.7677 23.2793 94.0724V98.59H22.1953V92.2501H23.2207ZM32.7305 97.963C32.3086 98.4591 31.6895 98.7072 30.873 98.7072C30.1973 98.7072 29.6816 98.5118 29.3262 98.1212C28.9746 97.7267 28.7969 97.1447 28.793 96.3751V92.2501H29.877V96.3458C29.877 97.3068 30.2676 97.7872 31.0488 97.7872C31.877 97.7872 32.4277 97.4786 32.7012 96.8615V92.2501H33.7852V98.59H32.7539L32.7305 97.963ZM37.5645 94.5646L38.9707 92.2501H40.2363L38.1621 95.3849L40.3008 98.59H39.0469L37.582 96.2169L36.1172 98.59H34.8574L36.9961 95.3849L34.9219 92.2501H36.1758L37.5645 94.5646ZM44.3262 95.1271C44.3262 94.2443 44.4434 93.3966 44.6777 92.5841C44.916 91.7716 45.2695 91.0333 45.7383 90.3693C46.207 89.7052 46.6934 89.2365 47.1973 88.963L47.4199 89.6779C46.8496 90.1154 46.3809 90.7833 46.0137 91.6818C45.6504 92.5802 45.4512 93.5861 45.416 94.6993L45.4102 95.1974C45.4102 96.7052 45.6855 98.0138 46.2363 99.1232C46.5684 99.7872 46.9629 100.307 47.4199 100.682L47.1973 101.344C46.6777 101.055 46.1816 100.57 45.709 99.8907C44.7871 98.5626 44.3262 96.9747 44.3262 95.1271ZM54.6445 90.0587V95.8595C54.6406 96.6642 54.3867 97.3224 53.8828 97.8341C53.3828 98.3458 52.7031 98.6329 51.8438 98.6954L51.5449 98.7072C50.6113 98.7072 49.8672 98.4552 49.3125 97.9513C48.7578 97.4474 48.4766 96.754 48.4688 95.8712V90.0587H49.582V95.8361C49.582 96.4532 49.752 96.9337 50.0918 97.2775C50.4316 97.6173 50.916 97.7872 51.5449 97.7872C52.1816 97.7872 52.668 97.6173 53.0039 97.2775C53.3438 96.9376 53.5137 96.4591 53.5137 95.8419V90.0587H54.6445ZM61.6172 95.4904C61.6172 96.4591 61.3945 97.2384 60.9492 97.8282C60.5039 98.4142 59.9062 98.7072 59.1562 98.7072C58.3555 98.7072 57.7363 98.424 57.2988 97.8575L57.2461 98.59H56.25V89.59H57.334V92.9474C57.7715 92.4044 58.375 92.1329 59.1445 92.1329C59.9141 92.1329 60.5176 92.424 60.9551 93.006C61.3965 93.588 61.6172 94.3849 61.6172 95.3966V95.4904ZM60.5332 95.3673C60.5332 94.629 60.3906 94.0587 60.1055 93.6564C59.8203 93.254 59.4102 93.0529 58.875 93.0529C58.1602 93.0529 57.6465 93.3849 57.334 94.049V96.7911C57.666 97.4552 58.1836 97.7872 58.8867 97.7872C59.4062 97.7872 59.8105 97.5861 60.0996 97.1837C60.3887 96.7814 60.5332 96.1759 60.5332 95.3673ZM66.9023 97.963C66.4805 98.4591 65.8613 98.7072 65.0449 98.7072C64.3691 98.7072 63.8535 98.5118 63.498 98.1212C63.1465 97.7267 62.9688 97.1447 62.9648 96.3751V92.2501H64.0488V96.3458C64.0488 97.3068 64.4395 97.7872 65.2207 97.7872C66.0488 97.7872 66.5996 97.4786 66.873 96.8615V92.2501H67.957V98.59H66.9258L66.9023 97.963ZM70.6348 92.2501L70.6699 93.047C71.1543 92.4376 71.7871 92.1329 72.5684 92.1329C73.9082 92.1329 74.584 92.8888 74.5957 94.4005V98.59H73.5117V94.3947C73.5078 93.9376 73.4023 93.5997 73.1953 93.381C72.9922 93.1622 72.6738 93.0529 72.2402 93.0529C71.8887 93.0529 71.5801 93.1466 71.3145 93.3341C71.0488 93.5216 70.8418 93.7677 70.6934 94.0724V98.59H69.6094V92.2501H70.6348ZM77.7012 90.715V92.2501H78.8848V93.088H77.7012V97.0197C77.7012 97.2736 77.7539 97.465 77.8594 97.5939C77.9648 97.7189 78.1445 97.7814 78.3984 97.7814C78.5234 97.7814 78.6953 97.7579 78.9141 97.7111V98.59C78.6289 98.6681 78.3516 98.7072 78.082 98.7072C77.5977 98.7072 77.2324 98.5607 76.9863 98.2677C76.7402 97.9747 76.6172 97.5587 76.6172 97.0197V93.088H75.4629V92.2501H76.6172V90.715H77.7012ZM84.0703 97.963C83.6484 98.4591 83.0293 98.7072 82.2129 98.7072C81.5371 98.7072 81.0215 98.5118 80.666 98.1212C80.3145 97.7267 80.1367 97.1447 80.1328 96.3751V92.2501H81.2168V96.3458C81.2168 97.3068 81.6074 97.7872 82.3887 97.7872C83.2168 97.7872 83.7676 97.4786 84.041 96.8615V92.2501H85.125V98.59H84.0938L84.0703 97.963ZM89.2793 95.1857C89.2793 96.0568 89.1641 96.8927 88.9336 97.6935C88.707 98.4904 88.3574 99.2267 87.8848 99.9025C87.416 100.578 86.9238 101.059 86.4082 101.344L86.1797 100.682C86.7812 100.221 87.2637 99.506 87.627 98.5372C87.9941 97.5646 88.1816 96.4865 88.1895 95.3029V95.1154C88.1895 94.295 88.1035 93.5333 87.9316 92.8302C87.7598 92.1232 87.5195 91.4904 87.2109 90.9318C86.9062 90.3732 86.5625 89.9376 86.1797 89.6251L86.4082 88.963C86.9238 89.2482 87.4141 89.7247 87.8789 90.3927C88.3477 91.0607 88.6973 91.797 88.9277 92.6017C89.1621 93.4064 89.2793 94.2677 89.2793 95.1857Z" fill="black"/>
<path d="M12.9902 115.59V107.059H15.3984C16.1406 107.059 16.7969 107.223 17.3672 107.551C17.9375 107.879 18.377 108.346 18.6855 108.951C18.998 109.557 19.1562 110.252 19.1602 111.037V111.582C19.1602 112.387 19.0039 113.092 18.6914 113.697C18.3828 114.303 17.9395 114.768 17.3613 115.092C16.7871 115.416 16.1172 115.582 15.3516 115.59H12.9902ZM14.1152 107.984V114.67H15.2988C16.166 114.67 16.8398 114.401 17.3203 113.861C17.8047 113.322 18.0469 112.555 18.0469 111.559V111.061C18.0469 110.092 17.8184 109.34 17.3613 108.805C16.9082 108.266 16.2637 107.992 15.4277 107.984H14.1152ZM23.3262 115.707C22.4668 115.707 21.7676 115.426 21.2285 114.863C20.6895 114.297 20.4199 113.541 20.4199 112.596V112.397C20.4199 111.768 20.5391 111.207 20.7773 110.715C21.0195 110.219 21.3555 109.832 21.7852 109.555C22.2188 109.274 22.6875 109.133 23.1914 109.133C24.0156 109.133 24.6562 109.404 25.1133 109.947C25.5703 110.49 25.7988 111.268 25.7988 112.279V112.731H21.5039C21.5195 113.356 21.7012 113.861 22.0488 114.248C22.4004 114.631 22.8457 114.822 23.3848 114.822C23.7676 114.822 24.0918 114.744 24.3574 114.588C24.623 114.432 24.8555 114.225 25.0547 113.967L25.7168 114.483C25.1855 115.299 24.3887 115.707 23.3262 115.707ZM23.1914 110.024C22.7539 110.024 22.3867 110.184 22.0898 110.504C21.793 110.82 21.6094 111.266 21.5391 111.84H24.7148V111.758C24.6836 111.207 24.5352 110.781 24.2695 110.481C24.0039 110.176 23.6445 110.024 23.1914 110.024ZM27.5918 115.59V110.088H26.5898V109.25H27.5918V108.6C27.5918 107.92 27.7734 107.395 28.1367 107.024C28.5 106.652 29.0137 106.467 29.6777 106.467C29.9277 106.467 30.1758 106.5 30.4219 106.567L30.3633 107.445C30.1797 107.41 29.9844 107.393 29.7773 107.393C29.4258 107.393 29.1543 107.496 28.9629 107.703C28.7715 107.906 28.6758 108.199 28.6758 108.582V109.25H30.0293V110.088H28.6758V115.59H27.5918ZM35.1445 115.59C35.082 115.465 35.0312 115.242 34.9922 114.922C34.4883 115.445 33.8867 115.707 33.1875 115.707C32.5625 115.707 32.0488 115.531 31.6465 115.18C31.248 114.824 31.0488 114.375 31.0488 113.832C31.0488 113.172 31.2988 112.66 31.7988 112.297C32.3027 111.93 33.0098 111.746 33.9199 111.746H34.9746V111.248C34.9746 110.869 34.8613 110.568 34.6348 110.346C34.4082 110.119 34.0742 110.006 33.6328 110.006C33.2461 110.006 32.9219 110.104 32.6602 110.299C32.3984 110.494 32.2676 110.731 32.2676 111.008H31.1777C31.1777 110.692 31.2891 110.387 31.5117 110.094C31.7383 109.797 32.043 109.563 32.4258 109.391C32.8125 109.219 33.2363 109.133 33.6973 109.133C34.4277 109.133 35 109.317 35.4141 109.684C35.8281 110.047 36.043 110.549 36.0586 111.19V114.108C36.0586 114.69 36.1328 115.152 36.2812 115.496V115.59H35.1445ZM33.3457 114.764C33.6855 114.764 34.0078 114.676 34.3125 114.5C34.6172 114.324 34.8379 114.096 34.9746 113.815V112.514H34.125C32.7969 112.514 32.1328 112.902 32.1328 113.68C32.1328 114.02 32.2461 114.285 32.4727 114.477C32.6992 114.668 32.9902 114.764 33.3457 114.764ZM41.6719 114.963C41.25 115.459 40.6309 115.707 39.8145 115.707C39.1387 115.707 38.623 115.512 38.2676 115.121C37.916 114.727 37.7383 114.145 37.7344 113.375V109.25H38.8184V113.346C38.8184 114.307 39.209 114.787 39.9902 114.787C40.8184 114.787 41.3691 114.479 41.6426 113.861V109.25H42.7266V115.59H41.6953L41.6719 114.963ZM45.5566 115.59H44.4727V106.59H45.5566V115.59ZM48.7676 107.715V109.25H49.9512V110.088H48.7676V114.02C48.7676 114.274 48.8203 114.465 48.9258 114.594C49.0312 114.719 49.2109 114.781 49.4648 114.781C49.5898 114.781 49.7617 114.758 49.9805 114.711V115.59C49.6953 115.668 49.418 115.707 49.1484 115.707C48.6641 115.707 48.2988 115.561 48.0527 115.268C47.8066 114.975 47.6836 114.559 47.6836 114.02V110.088H46.5293V109.25H47.6836V107.715H48.7676ZM57.8906 113.908C57.8906 113.615 57.7793 113.389 57.5566 113.229C57.3379 113.065 56.9531 112.924 56.4023 112.807C55.8555 112.69 55.4199 112.549 55.0957 112.385C54.7754 112.221 54.5371 112.026 54.3809 111.799C54.2285 111.572 54.1523 111.303 54.1523 110.99C54.1523 110.471 54.3711 110.031 54.8086 109.672C55.25 109.313 55.8125 109.133 56.4961 109.133C57.2148 109.133 57.7969 109.318 58.2422 109.69C58.6914 110.061 58.916 110.535 58.916 111.113H57.8262C57.8262 110.817 57.6992 110.561 57.4453 110.346C57.1953 110.131 56.8789 110.024 56.4961 110.024C56.1016 110.024 55.793 110.109 55.5703 110.281C55.3477 110.453 55.2363 110.678 55.2363 110.955C55.2363 111.217 55.3398 111.414 55.5469 111.547C55.7539 111.68 56.127 111.807 56.666 111.928C57.209 112.049 57.6484 112.193 57.9844 112.361C58.3203 112.529 58.5684 112.733 58.7285 112.971C58.8926 113.205 58.9746 113.492 58.9746 113.832C58.9746 114.399 58.748 114.854 58.2949 115.197C57.8418 115.537 57.2539 115.707 56.5312 115.707C56.0234 115.707 55.5742 115.617 55.1836 115.438C54.793 115.258 54.4863 115.008 54.2637 114.688C54.0449 114.363 53.9355 114.014 53.9355 113.639H55.0195C55.0391 114.002 55.1836 114.291 55.4531 114.506C55.7266 114.717 56.0859 114.822 56.5312 114.822C56.9414 114.822 57.2695 114.74 57.5156 114.576C57.7656 114.408 57.8906 114.186 57.8906 113.908ZM64.3008 115.59C64.2383 115.465 64.1875 115.242 64.1484 114.922C63.6445 115.445 63.043 115.707 62.3438 115.707C61.7188 115.707 61.2051 115.531 60.8027 115.18C60.4043 114.824 60.2051 114.375 60.2051 113.832C60.2051 113.172 60.4551 112.66 60.9551 112.297C61.459 111.93 62.166 111.746 63.0762 111.746H64.1309V111.248C64.1309 110.869 64.0176 110.568 63.791 110.346C63.5645 110.119 63.2305 110.006 62.7891 110.006C62.4023 110.006 62.0781 110.104 61.8164 110.299C61.5547 110.494 61.4238 110.731 61.4238 111.008H60.334C60.334 110.692 60.4453 110.387 60.668 110.094C60.8945 109.797 61.1992 109.563 61.582 109.391C61.9688 109.219 62.3926 109.133 62.8535 109.133C63.584 109.133 64.1562 109.317 64.5703 109.684C64.9844 110.047 65.1992 110.549 65.2148 111.19V114.108C65.2148 114.69 65.2891 115.152 65.4375 115.496V115.59H64.3008ZM62.502 114.764C62.8418 114.764 63.1641 114.676 63.4688 114.5C63.7734 114.324 63.9941 114.096 64.1309 113.815V112.514H63.2812C61.9531 112.514 61.2891 112.902 61.2891 113.68C61.2891 114.02 61.4023 114.285 61.6289 114.477C61.8555 114.668 62.1465 114.764 62.502 114.764ZM67.9395 109.25L67.9746 110.047C68.459 109.438 69.0918 109.133 69.873 109.133C71.2129 109.133 71.8887 109.889 71.9004 111.401V115.59H70.8164V111.395C70.8125 110.938 70.707 110.6 70.5 110.381C70.2969 110.162 69.9785 110.053 69.5449 110.053C69.1934 110.053 68.8848 110.147 68.6191 110.334C68.3535 110.522 68.1465 110.768 67.998 111.072V115.59H66.9141V109.25H67.9395ZM77.2266 113.908C77.2266 113.615 77.1152 113.389 76.8926 113.229C76.6738 113.065 76.2891 112.924 75.7383 112.807C75.1914 112.69 74.7559 112.549 74.4316 112.385C74.1113 112.221 73.873 112.026 73.7168 111.799C73.5645 111.572 73.4883 111.303 73.4883 110.99C73.4883 110.471 73.707 110.031 74.1445 109.672C74.5859 109.313 75.1484 109.133 75.832 109.133C76.5508 109.133 77.1328 109.318 77.5781 109.69C78.0273 110.061 78.252 110.535 78.252 111.113H77.1621C77.1621 110.817 77.0352 110.561 76.7812 110.346C76.5312 110.131 76.2148 110.024 75.832 110.024C75.4375 110.024 75.1289 110.109 74.9062 110.281C74.6836 110.453 74.5723 110.678 74.5723 110.955C74.5723 111.217 74.6758 111.414 74.8828 111.547C75.0898 111.68 75.4629 111.807 76.002 111.928C76.5449 112.049 76.9844 112.193 77.3203 112.361C77.6562 112.529 77.9043 112.733 78.0645 112.971C78.2285 113.205 78.3105 113.492 78.3105 113.832C78.3105 114.399 78.084 114.854 77.6309 115.197C77.1777 115.537 76.5898 115.707 75.8672 115.707C75.3594 115.707 74.9102 115.617 74.5195 115.438C74.1289 115.258 73.8223 115.008 73.5996 114.688C73.3809 114.363 73.2715 114.014 73.2715 113.639H74.3555C74.375 114.002 74.5195 114.291 74.7891 114.506C75.0625 114.717 75.4219 114.822 75.8672 114.822C76.2773 114.822 76.6055 114.74 76.8516 114.576C77.1016 114.408 77.2266 114.186 77.2266 113.908ZM81.9785 112.408H79.1191V111.524H81.9785V112.408ZM86.7305 113.908C86.7305 113.615 86.6191 113.389 86.3965 113.229C86.1777 113.065 85.793 112.924 85.2422 112.807C84.6953 112.69 84.2598 112.549 83.9355 112.385C83.6152 112.221 83.377 112.026 83.2207 111.799C83.0684 111.572 82.9922 111.303 82.9922 110.99C82.9922 110.471 83.2109 110.031 83.6484 109.672C84.0898 109.313 84.6523 109.133 85.3359 109.133C86.0547 109.133 86.6367 109.318 87.082 109.69C87.5312 110.061 87.7559 110.535 87.7559 111.113H86.666C86.666 110.817 86.5391 110.561 86.2852 110.346C86.0352 110.131 85.7188 110.024 85.3359 110.024C84.9414 110.024 84.6328 110.109 84.4102 110.281C84.1875 110.453 84.0762 110.678 84.0762 110.955C84.0762 111.217 84.1797 111.414 84.3867 111.547C84.5938 111.68 84.9668 111.807 85.5059 111.928C86.0488 112.049 86.4883 112.193 86.8242 112.361C87.1602 112.529 87.4082 112.733 87.5684 112.971C87.7324 113.205 87.8145 113.492 87.8145 113.832C87.8145 114.399 87.5879 114.854 87.1348 115.197C86.6816 115.537 86.0938 115.707 85.3711 115.707C84.8633 115.707 84.4141 115.617 84.0234 115.438C83.6328 115.258 83.3262 115.008 83.1035 114.688C82.8848 114.363 82.7754 114.014 82.7754 113.639H83.8594C83.8789 114.002 84.0234 114.291 84.293 114.506C84.5664 114.717 84.9258 114.822 85.3711 114.822C85.7812 114.822 86.1094 114.74 86.3555 114.576C86.6055 114.408 86.7305 114.186 86.7305 113.908ZM91.8574 115.707C90.998 115.707 90.2988 115.426 89.7598 114.863C89.2207 114.297 88.9512 113.541 88.9512 112.596V112.397C88.9512 111.768 89.0703 111.207 89.3086 110.715C89.5508 110.219 89.8867 109.832 90.3164 109.555C90.75 109.274 91.2188 109.133 91.7227 109.133C92.5469 109.133 93.1875 109.404 93.6445 109.947C94.1016 110.49 94.3301 111.268 94.3301 112.279V112.731H90.0352C90.0508 113.356 90.2324 113.861 90.5801 114.248C90.9316 114.631 91.377 114.822 91.916 114.822C92.2988 114.822 92.623 114.744 92.8887 114.588C93.1543 114.432 93.3867 114.225 93.5859 113.967L94.248 114.483C93.7168 115.299 92.9199 115.707 91.8574 115.707ZM91.7227 110.024C91.2852 110.024 90.918 110.184 90.6211 110.504C90.3242 110.82 90.1406 111.266 90.0703 111.84H93.2461V111.758C93.2148 111.207 93.0664 110.781 92.8008 110.481C92.5352 110.176 92.1758 110.024 91.7227 110.024ZM98.6543 110.223C98.4902 110.195 98.3125 110.182 98.1211 110.182C97.4102 110.182 96.9277 110.484 96.6738 111.09V115.59H95.5898V109.25H96.6445L96.6621 109.983C97.0176 109.416 97.5215 109.133 98.1738 109.133C98.3848 109.133 98.5449 109.16 98.6543 109.215V110.223ZM100.834 115.59H99.75V109.25H100.834V115.59ZM99.6621 107.568C99.6621 107.393 99.7148 107.244 99.8203 107.123C99.9297 107.002 100.09 106.942 100.301 106.942C100.512 106.942 100.672 107.002 100.781 107.123C100.891 107.244 100.945 107.393 100.945 107.568C100.945 107.744 100.891 107.891 100.781 108.008C100.672 108.125 100.512 108.184 100.301 108.184C100.09 108.184 99.9297 108.125 99.8203 108.008C99.7148 107.891 99.6621 107.744 99.6621 107.568ZM103.107 115.59V110.088H102.105V109.25H103.107V108.6C103.107 107.92 103.289 107.395 103.652 107.024C104.016 106.652 104.529 106.467 105.193 106.467C105.443 106.467 105.691 106.5 105.938 106.567L105.879 107.445C105.695 107.41 105.5 107.393 105.293 107.393C104.941 107.393 104.67 107.496 104.479 107.703C104.287 107.906 104.191 108.199 104.191 108.582V109.25H105.545V110.088H104.191V115.59H103.107ZM110.256 115.59V110.088H109.254V109.25H110.256V108.6C110.256 107.92 110.438 107.395 110.801 107.024C111.164 106.652 111.678 106.467 112.342 106.467C112.592 106.467 112.84 106.5 113.086 106.567L113.027 107.445C112.844 107.41 112.648 107.393 112.441 107.393C112.09 107.393 111.818 107.496 111.627 107.703C111.436 107.906 111.34 108.199 111.34 108.582V109.25H112.693V110.088H111.34V115.59H110.256ZM113.607 112.361C113.607 111.74 113.729 111.182 113.971 110.686C114.217 110.19 114.557 109.807 114.99 109.537C115.428 109.268 115.926 109.133 116.484 109.133C117.348 109.133 118.045 109.432 118.576 110.029C119.111 110.627 119.379 111.422 119.379 112.414V112.49C119.379 113.108 119.26 113.662 119.021 114.154C118.787 114.643 118.449 115.024 118.008 115.297C117.57 115.57 117.066 115.707 116.496 115.707C115.637 115.707 114.939 115.408 114.404 114.811C113.873 114.213 113.607 113.422 113.607 112.438V112.361ZM114.697 112.49C114.697 113.193 114.859 113.758 115.184 114.184C115.512 114.609 115.949 114.822 116.496 114.822C117.047 114.822 117.484 114.608 117.809 114.178C118.133 113.744 118.295 113.139 118.295 112.361C118.295 111.666 118.129 111.104 117.797 110.674C117.469 110.24 117.031 110.024 116.484 110.024C115.949 110.024 115.518 110.236 115.189 110.662C114.861 111.088 114.697 111.697 114.697 112.49ZM121.764 109.25L121.799 110.047C122.283 109.438 122.916 109.133 123.697 109.133C125.037 109.133 125.713 109.889 125.725 111.401V115.59H124.641V111.395C124.637 110.938 124.531 110.6 124.324 110.381C124.121 110.162 123.803 110.053 123.369 110.053C123.018 110.053 122.709 110.147 122.443 110.334C122.178 110.522 121.971 110.768 121.822 111.072V115.59H120.738V109.25H121.764ZM128.83 107.715V109.25H130.014V110.088H128.83V114.02C128.83 114.274 128.883 114.465 128.988 114.594C129.094 114.719 129.273 114.781 129.527 114.781C129.652 114.781 129.824 114.758 130.043 114.711V115.59C129.758 115.668 129.48 115.707 129.211 115.707C128.727 115.707 128.361 115.561 128.115 115.268C127.869 114.975 127.746 114.559 127.746 114.02V110.088H126.592V109.25H127.746V107.715H128.83Z" fill="black"/>
</svg>
