<svg width="165" height="146" viewBox="0 0 165 146" fill="none" xmlns="http://www.w3.org/2000/svg">
<g clip-path="url(#clip0_347_13507)">
<rect y="0.589844" width="165" height="145" rx="14" fill="white" fill-opacity="0.6"/>
<path d="M21.2969 58.6523L29.5 80.4492L37.6836 58.6523H44.0703V87.0898H39.1484V77.7148L39.6367 65.1758L31.2383 87.0898H27.7031L19.3242 65.1953L19.8125 77.7148V87.0898H14.8906V58.6523H21.2969ZM56.7773 87.4805C53.7695 87.4805 51.3281 86.5365 49.4531 84.6484C47.5911 82.7474 46.6602 80.2214 46.6602 77.0703V76.4844C46.6602 74.375 47.0638 72.4935 47.8711 70.8398C48.6914 69.1732 49.8372 67.8776 51.3086 66.9531C52.7799 66.0286 54.4206 65.5664 56.2305 65.5664C59.1081 65.5664 61.3281 66.4844 62.8906 68.3203C64.4661 70.1562 65.2539 72.7539 65.2539 76.1133V78.0273H51.4453C51.5885 79.7721 52.168 81.1523 53.1836 82.168C54.2122 83.1836 55.5013 83.6914 57.0508 83.6914C59.2253 83.6914 60.9961 82.8125 62.3633 81.0547L64.9219 83.4961C64.0755 84.7591 62.9427 85.7422 61.5234 86.4453C60.1172 87.1354 58.5352 87.4805 56.7773 87.4805ZM56.2109 69.375C54.9089 69.375 53.8542 69.8307 53.0469 70.7422C52.2526 71.6536 51.7448 72.9232 51.5234 74.5508H60.5664V74.1992C60.4622 72.6107 60.0391 71.4128 59.2969 70.6055C58.5547 69.7852 57.526 69.375 56.2109 69.375ZM66.0664 76.3672C66.0664 73.112 66.8216 70.5013 68.332 68.5352C69.8424 66.556 71.8672 65.5664 74.4062 65.5664C76.6458 65.5664 78.4557 66.3477 79.8359 67.9102V57.0898H84.582V87.0898H80.2852L80.0508 84.9023C78.6315 86.6211 76.737 87.4805 74.3672 87.4805C71.8932 87.4805 69.888 86.4844 68.3516 84.4922C66.8281 82.5 66.0664 79.7917 66.0664 76.3672ZM70.8125 76.7773C70.8125 78.9258 71.2227 80.6055 72.043 81.8164C72.8763 83.0143 74.0547 83.6133 75.5781 83.6133C77.5182 83.6133 78.9375 82.7474 79.8359 81.0156V71.9922C78.9635 70.2995 77.5573 69.4531 75.6172 69.4531C74.0807 69.4531 72.8958 70.0651 72.0625 71.2891C71.2292 72.5 70.8125 74.3294 70.8125 76.7773ZM92.582 87.0898H87.8359V65.957H92.582V87.0898ZM87.543 60.4688C87.543 59.7396 87.7708 59.1341 88.2266 58.6523C88.6953 58.1706 89.3594 57.9297 90.2188 57.9297C91.0781 57.9297 91.7422 58.1706 92.2109 58.6523C92.6797 59.1341 92.9141 59.7396 92.9141 60.4688C92.9141 61.1849 92.6797 61.7839 92.2109 62.2656C91.7422 62.7344 91.0781 62.9688 90.2188 62.9688C89.3594 62.9688 88.6953 62.7344 88.2266 62.2656C87.7708 61.7839 87.543 61.1849 87.543 60.4688ZM108.57 85.0195C107.177 86.6602 105.198 87.4805 102.633 87.4805C100.341 87.4805 98.6029 86.8099 97.418 85.4688C96.2461 84.1276 95.6602 82.1875 95.6602 79.6484V65.957H100.406V79.5898C100.406 82.2721 101.52 83.6133 103.746 83.6133C106.051 83.6133 107.607 82.7865 108.414 81.1328V65.957H113.16V87.0898H108.688L108.57 85.0195ZM120.457 65.957L120.594 68.1641C122.078 66.4323 124.109 65.5664 126.688 65.5664C129.513 65.5664 131.447 66.6471 132.488 68.8086C134.025 66.6471 136.186 65.5664 138.973 65.5664C141.303 65.5664 143.035 66.2109 144.168 67.5C145.314 68.7891 145.9 70.6901 145.926 73.2031V87.0898H141.18V73.3398C141.18 71.9987 140.887 71.0156 140.301 70.3906C139.715 69.7656 138.745 69.4531 137.391 69.4531C136.31 69.4531 135.424 69.7461 134.734 70.332C134.057 70.9049 133.582 71.6602 133.309 72.5977L133.328 87.0898H128.582V73.1836C128.517 70.6966 127.247 69.4531 124.773 69.4531C122.872 69.4531 121.525 70.2279 120.73 71.7773V87.0898H115.984V65.957H120.457Z" fill="black"/>
<path opacity="0.07" d="M120.172 114.59V29.2773H145.367C152.906 29.2773 159.586 30.957 165.406 34.3164C171.266 37.6758 175.797 42.4414 179 48.6133C182.203 54.7852 183.805 61.8555 183.805 69.8242V74.1016C183.805 82.1875 182.184 89.2969 178.941 95.4297C175.738 101.562 171.148 106.289 165.172 109.609C159.234 112.93 152.418 114.59 144.723 114.59H120.172ZM134.996 41.2305V102.754H144.664C152.438 102.754 158.395 100.332 162.535 95.4883C166.715 90.6055 168.844 83.6133 168.922 74.5117V69.7656C168.922 60.5078 166.91 53.4375 162.887 48.5547C158.863 43.6719 153.023 41.2305 145.367 41.2305H134.996Z" fill="black"/>
</g>
<rect x="0.5" y="1.08984" width="164" height="144" rx="13.5" stroke="black" stroke-opacity="0.1"/>
<defs>
<clipPath id="clip0_347_13507">
<rect y="0.589844" width="165" height="145" rx="14" fill="white"/>
</clipPath>
</defs>
</svg>
