<svg width="165" height="146" viewBox="0 0 165 146" fill="none" xmlns="http://www.w3.org/2000/svg">
<g clip-path="url(#clip0_347_13504)">
<rect y="0.589844" width="165" height="145" rx="14" fill="white" fill-opacity="0.6"/>
<path d="M25.7305 75.5859H19.0508V87.0898H15.2812V58.6523H24.6953C27.8984 58.6523 30.3594 59.3815 32.0781 60.8398C33.8099 62.2982 34.6758 64.4206 34.6758 67.207C34.6758 68.9779 34.194 70.5208 33.2305 71.8359C32.2799 73.151 30.9518 74.1341 29.2461 74.7852L35.9258 86.8555V87.0898H31.9023L25.7305 75.5859ZM19.0508 72.5195H24.8125C26.6745 72.5195 28.1523 72.0378 29.2461 71.0742C30.3529 70.1107 30.9062 68.8216 30.9062 67.207C30.9062 65.4492 30.3789 64.1016 29.3242 63.1641C28.2826 62.2266 26.7721 61.7513 24.793 61.7383H19.0508V72.5195ZM46.1523 87.4805C43.2878 87.4805 40.957 86.543 39.1602 84.668C37.3633 82.7799 36.4648 80.2604 36.4648 77.1094V76.4453C36.4648 74.349 36.862 72.4805 37.6562 70.8398C38.4635 69.1862 39.5833 67.8971 41.0156 66.9727C42.4609 66.0352 44.0234 65.5664 45.7031 65.5664C48.4505 65.5664 50.5859 66.4714 52.1094 68.2812C53.6328 70.0911 54.3945 72.6823 54.3945 76.0547V77.5586H40.0781C40.1302 79.6419 40.7357 81.3281 41.8945 82.6172C43.0664 83.8932 44.5508 84.5312 46.3477 84.5312C47.6237 84.5312 48.7044 84.2708 49.5898 83.75C50.4753 83.2292 51.25 82.5391 51.9141 81.6797L54.1211 83.3984C52.3503 86.1198 49.694 87.4805 46.1523 87.4805ZM45.7031 68.5352C44.2448 68.5352 43.0208 69.069 42.0312 70.1367C41.0417 71.1914 40.4297 72.6758 40.1953 74.5898H50.7812V74.3164C50.6771 72.4805 50.1823 71.0612 49.2969 70.0586C48.4115 69.043 47.2135 68.5352 45.7031 68.5352ZM55.7344 76.3477C55.7344 73.0534 56.4961 70.4362 58.0195 68.4961C59.543 66.543 61.5612 65.5664 64.0742 65.5664C66.6523 65.5664 68.6641 66.4779 70.1094 68.3008L70.2852 65.957H73.5859V86.582C73.5859 89.3164 72.7721 91.4714 71.1445 93.0469C69.5299 94.6224 67.3555 95.4102 64.6211 95.4102C63.0977 95.4102 61.6068 95.0846 60.1484 94.4336C58.6901 93.7826 57.5768 92.8906 56.8086 91.7578L58.6836 89.5898C60.2331 91.5039 62.1276 92.4609 64.3672 92.4609C66.125 92.4609 67.4922 91.9661 68.4688 90.9766C69.4583 89.987 69.9531 88.5938 69.9531 86.7969V84.9805C68.5078 86.6471 66.5352 87.4805 64.0352 87.4805C61.5612 87.4805 59.556 86.4844 58.0195 84.4922C56.4961 82.5 55.7344 79.7852 55.7344 76.3477ZM59.3672 76.7578C59.3672 79.1406 59.8555 81.0156 60.832 82.3828C61.8086 83.737 63.1758 84.4141 64.9336 84.4141C67.2122 84.4141 68.8854 83.3789 69.9531 81.3086V71.6602C68.8464 69.6419 67.1862 68.6328 64.9727 68.6328C63.2148 68.6328 61.8411 69.3164 60.8516 70.6836C59.862 72.0508 59.3672 74.0755 59.3672 76.7578ZM90.1016 85C88.6953 86.6536 86.6315 87.4805 83.9102 87.4805C81.6576 87.4805 79.9388 86.8294 78.7539 85.5273C77.582 84.2122 76.9896 82.2721 76.9766 79.707V65.957H80.5898V79.6094C80.5898 82.8125 81.8919 84.4141 84.4961 84.4141C87.2565 84.4141 89.0924 83.3854 90.0039 81.3281V65.957H93.6172V87.0898H90.1797L90.1016 85ZM101.051 87.0898H97.4375V57.0898H101.051V87.0898ZM117.898 87.0898C117.69 86.6732 117.521 85.931 117.391 84.8633C115.711 86.6081 113.706 87.4805 111.375 87.4805C109.292 87.4805 107.579 86.8945 106.238 85.7227C104.91 84.5378 104.246 83.0404 104.246 81.2305C104.246 79.0299 105.079 77.3242 106.746 76.1133C108.426 74.8893 110.783 74.2773 113.816 74.2773H117.332V72.6172C117.332 71.3542 116.954 70.3516 116.199 69.6094C115.444 68.8542 114.331 68.4766 112.859 68.4766C111.57 68.4766 110.49 68.8021 109.617 69.4531C108.745 70.1042 108.309 70.8919 108.309 71.8164H104.676C104.676 70.7617 105.047 69.7461 105.789 68.7695C106.544 67.7799 107.56 66.9987 108.836 66.4258C110.125 65.8529 111.538 65.5664 113.074 65.5664C115.509 65.5664 117.417 66.1784 118.797 67.4023C120.177 68.6133 120.893 70.2865 120.945 72.4219V82.1484C120.945 84.0885 121.193 85.6315 121.688 86.7773V87.0898H117.898ZM111.902 84.3359C113.035 84.3359 114.109 84.043 115.125 83.457C116.141 82.8711 116.876 82.1094 117.332 81.1719V76.8359H114.5C110.073 76.8359 107.859 78.1315 107.859 80.7227C107.859 81.8555 108.237 82.7409 108.992 83.3789C109.747 84.0169 110.717 84.3359 111.902 84.3359ZM134.824 69.1992C134.277 69.1081 133.685 69.0625 133.047 69.0625C130.677 69.0625 129.069 70.0716 128.223 72.0898V87.0898H124.609V65.957H128.125L128.184 68.3984C129.368 66.5104 131.048 65.5664 133.223 65.5664C133.926 65.5664 134.46 65.6576 134.824 65.8398V69.1992Z" fill="black"/>
<path opacity="0.07" d="M120.652 114.59V29.2773H144.734C152.156 29.2773 158.719 30.918 164.422 34.1992C170.125 37.4805 174.52 42.1484 177.605 48.2031C180.73 54.2578 182.312 61.2109 182.352 69.0625V74.5117C182.352 82.5586 180.789 89.6094 177.664 95.6641C174.578 101.719 170.145 106.367 164.363 109.609C158.621 112.852 151.922 114.512 144.266 114.59H120.652ZM131.902 38.5352V105.391H143.738C152.41 105.391 159.148 102.695 163.953 97.3047C168.797 91.9141 171.219 84.2383 171.219 74.2773V69.2969C171.219 59.6094 168.934 52.0898 164.363 46.7383C159.832 41.3477 153.387 38.6133 145.027 38.5352H131.902Z" fill="black"/>
</g>
<rect x="0.5" y="1.08984" width="164" height="144" rx="13.5" stroke="black" stroke-opacity="0.1"/>
<defs>
<clipPath id="clip0_347_13504">
<rect y="0.589844" width="165" height="145" rx="14" fill="white"/>
</clipPath>
</defs>
</svg>
