<svg width="746" height="310" viewBox="0 0 746 310" fill="none" xmlns="http://www.w3.org/2000/svg">
<g clip-path="url(#clip0_2341_22904)">
<rect width="746" height="309.011" rx="14" fill="white"/>
<rect width="746" height="309.011" rx="14" fill="url(#paint0_radial_2341_22904)" fill-opacity="0.16"/>
<g clip-path="url(#clip1_2341_22904)">
<rect width="357" height="336" transform="translate(190 47)" fill="white" fill-opacity="0.07"/>
<path d="M307.5 47.5H539C543.142 47.5 546.5 50.8579 546.5 55V286.5H315C310.858 286.5 307.5 283.142 307.5 279V47.5Z" stroke="#DAC7FF"/>
<path d="M259.5 47.5H539C543.142 47.5 546.5 50.8579 546.5 55V334.5H267C262.858 334.5 259.5 331.142 259.5 327V47.5Z" stroke="#DAC7FF"/>
<path d="M190.5 47.5H539C543.142 47.5 546.5 50.8579 546.5 55V382.5H198C193.858 382.5 190.5 379.142 190.5 375V47.5Z" stroke="#DAC7FF"/>
<path d="M403.5 47.5H539C543.142 47.5 546.5 50.8579 546.5 55V190.5H411C406.858 190.5 403.5 187.142 403.5 183V47.5Z" stroke="#DAC7FF"/>
<path d="M475.5 47.5H539C543.142 47.5 546.5 50.8579 546.5 55V118.5H483C478.858 118.5 475.5 115.142 475.5 111V47.5Z" stroke="#DAC7FF"/>
<path d="M499.5 47.5H539C543.142 47.5 546.5 50.8579 546.5 55V94.5H507C502.858 94.5 499.5 91.1421 499.5 87V47.5Z" stroke="#DAC7FF"/>
<path d="M451.5 47.5H539C543.142 47.5 546.5 50.8579 546.5 55V142.5H459C454.858 142.5 451.5 139.142 451.5 135V47.5Z" stroke="#DAC7FF"/>
<path d="M523.5 47.5H539C543.142 47.5 546.5 50.8579 546.5 55V70.5H531C526.858 70.5 523.5 67.1421 523.5 63V47.5Z" stroke="#DAC7FF"/>
<path d="M355.5 47.5H539C543.142 47.5 546.5 50.8579 546.5 55V238.5H363C358.858 238.5 355.5 235.142 355.5 231V47.5Z" fill="url(#paint1_linear_2341_22904)" fill-opacity="0.6"/>
<path d="M355.5 47.5H539C543.142 47.5 546.5 50.8579 546.5 55V238.5H363C358.858 238.5 355.5 235.142 355.5 231V47.5Z" stroke="#7C52FF"/>
<path fill-rule="evenodd" clip-rule="evenodd" d="M498.181 64C502.574 64 506.136 67.5593 506.136 71.95V79.9L514.091 79.9C518.484 79.9 522.045 83.4593 522.045 87.85C522.045 92.2407 518.484 95.8 514.091 95.8H506.136V103.75C506.136 108.141 502.574 111.7 498.181 111.7C493.788 111.7 490.226 108.141 490.226 103.75V95.8H482.272C477.878 95.8 474.317 92.2407 474.317 87.85C474.317 83.4593 477.878 79.9 482.272 79.9H490.226V71.95C490.226 67.5593 493.788 64 498.181 64ZM441.785 84.5603L457.951 120.106L493.518 136.263C499.609 139.03 499.609 147.97 493.518 150.737L457.951 166.894L441.785 202.44C439.016 208.527 430.07 208.527 427.301 202.44L411.135 166.894L375.568 150.737C369.477 147.97 369.477 139.03 375.568 136.263L411.135 120.106L427.301 84.5603C430.07 78.4729 439.016 78.4729 441.785 84.5603ZM434.543 107.062C423.863 130.545 421.58 132.826 398.083 143.5C421.58 154.174 423.863 156.455 434.543 179.938C445.223 156.455 447.506 154.174 471.003 143.5C447.506 132.826 445.223 130.545 434.543 107.062ZM506.136 175.3C510.529 175.3 514.091 178.859 514.091 183.25V191.2H522.045C526.439 191.2 530 194.759 530 199.15C530 203.541 526.439 207.1 522.045 207.1H514.091V215.05C514.091 219.441 510.529 223 506.136 223C501.743 223 498.181 219.441 498.181 215.05V207.1H490.226C485.833 207.1 482.272 203.541 482.272 199.15C482.272 194.759 485.833 191.2 490.226 191.2H498.181V183.25C498.181 178.859 501.743 175.3 506.136 175.3Z" fill="url(#paint2_linear_2341_22904)"/>
<path d="M370.45 224C370.45 223.751 370.249 223.55 370 223.55H365.95C365.701 223.55 365.5 223.751 365.5 224C365.5 224.249 365.701 224.45 365.95 224.45H369.55V228.05C369.55 228.299 369.751 228.5 370 228.5C370.249 228.5 370.45 228.299 370.45 228.05V224ZM359.55 234C359.55 234.249 359.751 234.45 360 234.45H364.05C364.299 234.45 364.5 234.249 364.5 234C364.5 233.751 364.299 233.55 364.05 233.55H360.45V229.95C360.45 229.701 360.249 229.5 360 229.5C359.751 229.5 359.55 229.701 359.55 229.95V234ZM369.682 223.682L359.682 233.682L360.318 234.318L370.318 224.318L369.682 223.682Z" fill="#7C52FF"/>
</g>
<g opacity="0.8">
<path d="M40.8971 71.4501L40 71.4501V70.5501L40.8971 70.5501V71.4501Z" fill="#7C52FF"/>
<path d="M44.4853 71.4501L42.6912 71.4501V70.5501L44.4853 70.5501V71.4501Z" fill="#7C52FF"/>
<path d="M48.0735 71.4501L46.2794 71.4501V70.5501L48.0735 70.5501V71.4501Z" fill="#7C52FF"/>
<path d="M51.6618 71.4501L49.8676 71.4501V70.5501L51.6618 70.5501V71.4501Z" fill="#7C52FF"/>
<path d="M55.25 71.4501L53.4559 71.4501V70.5501L55.25 70.5501V71.4501Z" fill="#7C52FF"/>
<path d="M58.8382 71.4501L57.0441 71.4501V70.5501L58.8382 70.5501V71.4501Z" fill="#7C52FF"/>
<path d="M62.4265 71.4501L60.6324 71.4501V70.5501L62.4265 70.5501V71.4501Z" fill="#7C52FF"/>
<path d="M66.0147 71.4501L64.2206 71.4501V70.5501L66.0147 70.5501V71.4501Z" fill="#7C52FF"/>
<path d="M69.6029 71.4501L67.8088 71.4501V70.5501L69.6029 70.5501V71.4501Z" fill="#7C52FF"/>
<path d="M73.1912 71.4501L71.3971 71.4501V70.5501L73.1912 70.5501V71.4501Z" fill="#7C52FF"/>
<path d="M76.7794 71.4501L74.9853 71.4501V70.5501L76.7794 70.5501V71.4501Z" fill="#7C52FF"/>
<path d="M80.3676 71.4501L78.5735 71.4501V70.5501L80.3676 70.5501V71.4501Z" fill="#7C52FF"/>
<path d="M83.9559 71.4501L82.1618 71.4501V70.5501L83.9559 70.5501V71.4501Z" fill="#7C52FF"/>
<path d="M87.5441 71.4501L85.75 71.4501V70.5501L87.5441 70.5501V71.4501Z" fill="#7C52FF"/>
<path d="M91.1323 71.4501L89.3382 71.4501V70.5501L91.1323 70.5501V71.4501Z" fill="#7C52FF"/>
<path d="M94.7206 71.4501L92.9265 71.4501V70.5501L94.7206 70.5501V71.4501Z" fill="#7C52FF"/>
<path d="M98.3088 71.4501L96.5147 71.4501V70.5501L98.3088 70.5501V71.4501Z" fill="#7C52FF"/>
<path d="M101.897 71.4501L100.103 71.4501V70.5501L101.897 70.5501V71.4501Z" fill="#7C52FF"/>
<path d="M105.485 71.4501L103.691 71.4501V70.5501L105.485 70.5501V71.4501Z" fill="#7C52FF"/>
<path d="M109.074 71.4501L107.279 71.4501V70.5501L109.074 70.5501V71.4501Z" fill="#7C52FF"/>
<path d="M112.662 71.4501L110.868 71.4501V70.5501L112.662 70.5501V71.4501Z" fill="#7C52FF"/>
<path d="M116.25 71.4501L114.456 71.4501V70.5501L116.25 70.5501V71.4501Z" fill="#7C52FF"/>
<path d="M119.838 71.4501L118.044 71.4501V70.5501L119.838 70.5501V71.4501Z" fill="#7C52FF"/>
<path d="M123.426 71.4501L121.632 71.4501V70.5501L123.426 70.5501V71.4501Z" fill="#7C52FF"/>
<path d="M127.015 71.4501L125.221 71.4501V70.5501L127.015 70.5501V71.4501Z" fill="#7C52FF"/>
<path d="M130.603 71.4501L128.809 71.4501V70.5501L130.603 70.5501V71.4501Z" fill="#7C52FF"/>
<path d="M134.191 71.4501L132.397 71.4501V70.5501L134.191 70.5501V71.4501Z" fill="#7C52FF"/>
<path d="M137.779 71.4501L135.985 71.4501V70.5501L137.779 70.5501V71.4501Z" fill="#7C52FF"/>
<path d="M141.368 71.4501L139.574 71.4501V70.5501L141.368 70.5501V71.4501Z" fill="#7C52FF"/>
<path d="M144.956 71.4501L143.162 71.4501V70.5501L144.956 70.5501V71.4501Z" fill="#7C52FF"/>
<path d="M148.544 71.4501L146.75 71.4501V70.5501L148.544 70.5501V71.4501Z" fill="#7C52FF"/>
<path d="M152.132 71.4501L150.338 71.4501V70.5501L152.132 70.5501V71.4501Z" fill="#7C52FF"/>
<path d="M155.721 71.45L153.927 71.45V70.55L155.721 70.55V71.45Z" fill="#7C52FF"/>
<path d="M159.309 71.45L157.515 71.45V70.55L159.309 70.55V71.45Z" fill="#7C52FF"/>
<path d="M162 71.45L161.103 71.45V70.55L162 70.55V71.45Z" fill="#7C52FF"/>
<path d="M40 95.4501H40.8971V94.5501H40V95.4501Z" fill="#7C52FF"/>
<path d="M42.6912 95.4501H44.4853V94.5501H42.6912V95.4501Z" fill="#7C52FF"/>
<path d="M46.2794 95.4501H48.0735V94.5501H46.2794V95.4501Z" fill="#7C52FF"/>
<path d="M49.8676 95.4501H51.6618V94.5501H49.8676V95.4501Z" fill="#7C52FF"/>
<path d="M53.4559 95.4501H55.25V94.5501H53.4559V95.4501Z" fill="#7C52FF"/>
<path d="M57.0441 95.4501H58.8382V94.5501H57.0441V95.4501Z" fill="#7C52FF"/>
<path d="M60.6324 95.4501H62.4265V94.5501H60.6324V95.4501Z" fill="#7C52FF"/>
<path d="M64.2206 95.4501H66.0147V94.5501H64.2206V95.4501Z" fill="#7C52FF"/>
<path d="M67.8088 95.4501H69.6029V94.5501H67.8088V95.4501Z" fill="#7C52FF"/>
<path d="M71.3971 95.4501H73.1912V94.5501H71.3971V95.4501Z" fill="#7C52FF"/>
<path d="M74.9853 95.4501H76.7794V94.5501H74.9853V95.4501Z" fill="#7C52FF"/>
<path d="M78.5735 95.4501H80.3676V94.5501H78.5735V95.4501Z" fill="#7C52FF"/>
<path d="M82.1618 95.4501H83.9559V94.5501H82.1618V95.4501Z" fill="#7C52FF"/>
<path d="M85.75 95.4501H87.5441V94.5501H85.75V95.4501Z" fill="#7C52FF"/>
<path d="M89.3382 95.4501H91.1323V94.5501H89.3382V95.4501Z" fill="#7C52FF"/>
<path d="M92.9265 95.4501H94.7206V94.5501H92.9265V95.4501Z" fill="#7C52FF"/>
<path d="M96.5147 95.4501H98.3088V94.5501H96.5147V95.4501Z" fill="#7C52FF"/>
<path d="M100.103 95.4501H101.897V94.5501H100.103V95.4501Z" fill="#7C52FF"/>
<path d="M103.691 95.4501H105.485V94.5501H103.691V95.4501Z" fill="#7C52FF"/>
<path d="M107.279 95.4501H109.074V94.5501H107.279V95.4501Z" fill="#7C52FF"/>
<path d="M110.868 95.4501H112.662V94.5501H110.868V95.4501Z" fill="#7C52FF"/>
<path d="M114.456 95.4501H116.25V94.5501H114.456V95.4501Z" fill="#7C52FF"/>
<path d="M118.044 95.4501H119.838V94.5501H118.044V95.4501Z" fill="#7C52FF"/>
<path d="M121.632 95.4501H123.426V94.5501H121.632V95.4501Z" fill="#7C52FF"/>
<path d="M125.221 95.4501H127.015V94.5501H125.221V95.4501Z" fill="#7C52FF"/>
<path d="M128.809 95.4501H130.603V94.5501H128.809V95.4501Z" fill="#7C52FF"/>
<path d="M132.397 95.4501H134.191V94.5501H132.397V95.4501Z" fill="#7C52FF"/>
<path d="M135.985 95.4501H137.779V94.5501H135.985V95.4501Z" fill="#7C52FF"/>
<path d="M139.574 95.4501H141.368V94.5501H139.574V95.4501Z" fill="#7C52FF"/>
<path d="M143.162 95.4501H144.956V94.5501H143.162V95.4501Z" fill="#7C52FF"/>
<path d="M146.75 95.4501H148.544V94.5501H146.75V95.4501Z" fill="#7C52FF"/>
<path d="M150.338 95.4501H152.132V94.5501H150.338V95.4501Z" fill="#7C52FF"/>
<path d="M153.927 95.4501H155.721V94.55H153.927V95.4501Z" fill="#7C52FF"/>
<path d="M157.515 95.45H159.309V94.55H157.515V95.45Z" fill="#7C52FF"/>
<path d="M161.103 95.45H162V94.55H161.103V95.45Z" fill="#7C52FF"/>
<path d="M40.8971 119.45H40V118.55H40.8971V119.45Z" fill="#7C52FF"/>
<path d="M44.4853 119.45H42.6912V118.55H44.4853V119.45Z" fill="#7C52FF"/>
<path d="M48.0735 119.45H46.2794V118.55H48.0735V119.45Z" fill="#7C52FF"/>
<path d="M51.6618 119.45H49.8676V118.55H51.6618V119.45Z" fill="#7C52FF"/>
<path d="M55.25 119.45H53.4559V118.55H55.25V119.45Z" fill="#7C52FF"/>
<path d="M58.8382 119.45H57.0441V118.55H58.8382V119.45Z" fill="#7C52FF"/>
<path d="M62.4265 119.45H60.6324V118.55H62.4265V119.45Z" fill="#7C52FF"/>
<path d="M66.0147 119.45H64.2206V118.55H66.0147V119.45Z" fill="#7C52FF"/>
<path d="M69.6029 119.45H67.8088V118.55H69.6029V119.45Z" fill="#7C52FF"/>
<path d="M73.1912 119.45H71.3971V118.55H73.1912V119.45Z" fill="#7C52FF"/>
<path d="M76.7794 119.45H74.9853V118.55H76.7794V119.45Z" fill="#7C52FF"/>
<path d="M80.3676 119.45H78.5735V118.55H80.3676V119.45Z" fill="#7C52FF"/>
<path d="M83.9559 119.45H82.1618V118.55H83.9559V119.45Z" fill="#7C52FF"/>
<path d="M87.5441 119.45H85.75V118.55H87.5441V119.45Z" fill="#7C52FF"/>
<path d="M91.1323 119.45H89.3382V118.55H91.1323V119.45Z" fill="#7C52FF"/>
<path d="M94.7206 119.45H92.9265V118.55H94.7206V119.45Z" fill="#7C52FF"/>
<path d="M98.3088 119.45H96.5147V118.55H98.3088V119.45Z" fill="#7C52FF"/>
<path d="M101.897 119.45H100.103V118.55H101.897V119.45Z" fill="#7C52FF"/>
<path d="M105.485 119.45H103.691V118.55H105.485V119.45Z" fill="#7C52FF"/>
<path d="M109.074 119.45H107.279V118.55H109.074V119.45Z" fill="#7C52FF"/>
<path d="M112.662 119.45H110.868V118.55H112.662V119.45Z" fill="#7C52FF"/>
<path d="M116.25 119.45H114.456V118.55H116.25V119.45Z" fill="#7C52FF"/>
<path d="M119.838 119.45H118.044V118.55H119.838V119.45Z" fill="#7C52FF"/>
<path d="M123.426 119.45H121.632V118.55H123.426V119.45Z" fill="#7C52FF"/>
<path d="M127.015 119.45H125.221V118.55H127.015V119.45Z" fill="#7C52FF"/>
<path d="M130.603 119.45H128.809V118.55H130.603V119.45Z" fill="#7C52FF"/>
<path d="M134.191 119.45H132.397V118.55H134.191V119.45Z" fill="#7C52FF"/>
<path d="M137.779 119.45H135.985V118.55H137.779V119.45Z" fill="#7C52FF"/>
<path d="M141.368 119.45H139.574V118.55H141.368V119.45Z" fill="#7C52FF"/>
<path d="M144.956 119.45H143.162V118.55H144.956V119.45Z" fill="#7C52FF"/>
<path d="M148.544 119.45H146.75V118.55H148.544V119.45Z" fill="#7C52FF"/>
<path d="M152.132 119.45H150.338V118.55H152.132V119.45Z" fill="#7C52FF"/>
<path d="M155.721 119.45H153.927V118.55H155.721V119.45Z" fill="#7C52FF"/>
<path d="M159.309 119.45H157.515V118.55H159.309V119.45Z" fill="#7C52FF"/>
<path d="M162 119.45H161.103V118.55H162V119.45Z" fill="#7C52FF"/>
<path d="M40 143.45H40.8971V142.55H40V143.45Z" fill="#7C52FF"/>
<path d="M42.6912 143.45H44.4853V142.55H42.6912V143.45Z" fill="#7C52FF"/>
<path d="M46.2794 143.45H48.0735V142.55H46.2794V143.45Z" fill="#7C52FF"/>
<path d="M49.8676 143.45H51.6618V142.55H49.8676V143.45Z" fill="#7C52FF"/>
<path d="M53.4559 143.45H55.25V142.55H53.4559V143.45Z" fill="#7C52FF"/>
<path d="M57.0441 143.45H58.8382V142.55H57.0441V143.45Z" fill="#7C52FF"/>
<path d="M60.6324 143.45H62.4265V142.55H60.6324V143.45Z" fill="#7C52FF"/>
<path d="M64.2206 143.45H66.0147V142.55H64.2206V143.45Z" fill="#7C52FF"/>
<path d="M67.8088 143.45H69.6029V142.55H67.8088V143.45Z" fill="#7C52FF"/>
<path d="M71.3971 143.45H73.1912V142.55H71.3971V143.45Z" fill="#7C52FF"/>
<path d="M74.9853 143.45H76.7794V142.55H74.9853V143.45Z" fill="#7C52FF"/>
<path d="M78.5735 143.45H80.3676V142.55H78.5735V143.45Z" fill="#7C52FF"/>
<path d="M82.1618 143.45H83.9559V142.55H82.1618V143.45Z" fill="#7C52FF"/>
<path d="M85.75 143.45H87.5441V142.55H85.75V143.45Z" fill="#7C52FF"/>
<path d="M89.3382 143.45H91.1323V142.55H89.3382V143.45Z" fill="#7C52FF"/>
<path d="M92.9265 143.45H94.7206V142.55H92.9265V143.45Z" fill="#7C52FF"/>
<path d="M96.5147 143.45H98.3088V142.55H96.5147V143.45Z" fill="#7C52FF"/>
<path d="M100.103 143.45H101.897V142.55H100.103V143.45Z" fill="#7C52FF"/>
<path d="M103.691 143.45H105.485V142.55H103.691V143.45Z" fill="#7C52FF"/>
<path d="M107.279 143.45H109.074V142.55H107.279V143.45Z" fill="#7C52FF"/>
<path d="M110.868 143.45H112.662V142.55H110.868V143.45Z" fill="#7C52FF"/>
<path d="M114.456 143.45H116.25V142.55H114.456V143.45Z" fill="#7C52FF"/>
<path d="M118.044 143.45H119.838V142.55H118.044V143.45Z" fill="#7C52FF"/>
<path d="M121.632 143.45H123.426V142.55H121.632V143.45Z" fill="#7C52FF"/>
<path d="M125.221 143.45H127.015V142.55H125.221V143.45Z" fill="#7C52FF"/>
<path d="M128.809 143.45H130.603V142.55H128.809V143.45Z" fill="#7C52FF"/>
<path d="M132.397 143.45H134.191V142.55H132.397V143.45Z" fill="#7C52FF"/>
<path d="M135.985 143.45H137.779V142.55H135.985V143.45Z" fill="#7C52FF"/>
<path d="M139.574 143.45H141.368V142.55H139.574V143.45Z" fill="#7C52FF"/>
<path d="M143.162 143.45H144.956V142.55H143.162V143.45Z" fill="#7C52FF"/>
<path d="M146.75 143.45H148.544V142.55H146.75V143.45Z" fill="#7C52FF"/>
<path d="M150.338 143.45H152.132V142.55H150.338V143.45Z" fill="#7C52FF"/>
<path d="M153.927 143.45H155.721V142.55H153.927V143.45Z" fill="#7C52FF"/>
<path d="M157.515 143.45H159.309V142.55H157.515V143.45Z" fill="#7C52FF"/>
<path d="M161.103 143.45H162V142.55H161.103V143.45Z" fill="#7C52FF"/>
<path d="M40 191.45H40.8971V190.55H40V191.45Z" fill="#7C52FF"/>
<path d="M42.6912 191.45H44.4853V190.55H42.6912V191.45Z" fill="#7C52FF"/>
<path d="M46.2794 191.45H48.0735V190.55H46.2794V191.45Z" fill="#7C52FF"/>
<path d="M49.8676 191.45H51.6618V190.55H49.8676V191.45Z" fill="#7C52FF"/>
<path d="M53.4559 191.45H55.25V190.55H53.4559V191.45Z" fill="#7C52FF"/>
<path d="M57.0441 191.45H58.8382V190.55H57.0441V191.45Z" fill="#7C52FF"/>
<path d="M60.6324 191.45H62.4265V190.55H60.6324V191.45Z" fill="#7C52FF"/>
<path d="M64.2206 191.45H66.0147V190.55H64.2206V191.45Z" fill="#7C52FF"/>
<path d="M67.8088 191.45H69.6029V190.55H67.8088V191.45Z" fill="#7C52FF"/>
<path d="M71.3971 191.45H73.1912V190.55H71.3971V191.45Z" fill="#7C52FF"/>
<path d="M74.9853 191.45H76.7794V190.55H74.9853V191.45Z" fill="#7C52FF"/>
<path d="M78.5735 191.45H80.3676V190.55H78.5735V191.45Z" fill="#7C52FF"/>
<path d="M82.1618 191.45H83.9559V190.55H82.1618V191.45Z" fill="#7C52FF"/>
<path d="M85.75 191.45H87.5441V190.55H85.75V191.45Z" fill="#7C52FF"/>
<path d="M89.3382 191.45H91.1323V190.55H89.3382V191.45Z" fill="#7C52FF"/>
<path d="M92.9265 191.45H94.7206V190.55H92.9265V191.45Z" fill="#7C52FF"/>
<path d="M96.5147 191.45H98.3088V190.55H96.5147V191.45Z" fill="#7C52FF"/>
<path d="M100.103 191.45H101.897V190.55H100.103V191.45Z" fill="#7C52FF"/>
<path d="M103.691 191.45H105.485V190.55H103.691V191.45Z" fill="#7C52FF"/>
<path d="M107.279 191.45H109.074V190.55H107.279V191.45Z" fill="#7C52FF"/>
<path d="M110.868 191.45H112.662V190.55H110.868V191.45Z" fill="#7C52FF"/>
<path d="M114.456 191.45H116.25V190.55H114.456V191.45Z" fill="#7C52FF"/>
<path d="M118.044 191.45H119.838V190.55H118.044V191.45Z" fill="#7C52FF"/>
<path d="M121.632 191.45H123.426V190.55H121.632V191.45Z" fill="#7C52FF"/>
<path d="M125.221 191.45H127.015V190.55H125.221V191.45Z" fill="#7C52FF"/>
<path d="M128.809 191.45H130.603V190.55H128.809V191.45Z" fill="#7C52FF"/>
<path d="M132.397 191.45H134.191V190.55H132.397V191.45Z" fill="#7C52FF"/>
<path d="M135.985 191.45H137.779V190.55H135.985V191.45Z" fill="#7C52FF"/>
<path d="M139.574 191.45H141.368V190.55H139.574V191.45Z" fill="#7C52FF"/>
<path d="M143.162 191.45H144.956V190.55H143.162V191.45Z" fill="#7C52FF"/>
<path d="M146.75 191.45H148.544V190.55H146.75V191.45Z" fill="#7C52FF"/>
<path d="M150.338 191.45H152.132V190.55H150.338V191.45Z" fill="#7C52FF"/>
<path d="M153.927 191.45H155.721V190.55H153.927V191.45Z" fill="#7C52FF"/>
<path d="M157.515 191.45H159.309V190.55H157.515V191.45Z" fill="#7C52FF"/>
<path d="M161.103 191.45H162V190.55H161.103V191.45Z" fill="#7C52FF"/>
<path d="M40.8971 239.45H40V238.55H40.8971V239.45Z" fill="#7C52FF"/>
<path d="M44.4853 239.45H42.6912V238.55H44.4853V239.45Z" fill="#7C52FF"/>
<path d="M48.0735 239.45H46.2794V238.55H48.0735V239.45Z" fill="#7C52FF"/>
<path d="M51.6618 239.45H49.8676V238.55H51.6618V239.45Z" fill="#7C52FF"/>
<path d="M55.25 239.45H53.4559V238.55H55.25V239.45Z" fill="#7C52FF"/>
<path d="M58.8382 239.45H57.0441V238.55H58.8382V239.45Z" fill="#7C52FF"/>
<path d="M62.4265 239.45H60.6324V238.55H62.4265V239.45Z" fill="#7C52FF"/>
<path d="M66.0147 239.45H64.2206V238.55H66.0147V239.45Z" fill="#7C52FF"/>
<path d="M69.6029 239.45H67.8088V238.55H69.6029V239.45Z" fill="#7C52FF"/>
<path d="M73.1912 239.45H71.3971V238.55H73.1912V239.45Z" fill="#7C52FF"/>
<path d="M76.7794 239.45H74.9853V238.55H76.7794V239.45Z" fill="#7C52FF"/>
<path d="M80.3676 239.45H78.5735V238.55H80.3676V239.45Z" fill="#7C52FF"/>
<path d="M83.9559 239.45H82.1618V238.55H83.9559V239.45Z" fill="#7C52FF"/>
<path d="M87.5441 239.45H85.75V238.55H87.5441V239.45Z" fill="#7C52FF"/>
<path d="M91.1323 239.45H89.3382V238.55H91.1323V239.45Z" fill="#7C52FF"/>
<path d="M94.7206 239.45H92.9265V238.55H94.7206V239.45Z" fill="#7C52FF"/>
<path d="M98.3088 239.45H96.5147V238.55H98.3088V239.45Z" fill="#7C52FF"/>
<path d="M101.897 239.45H100.103V238.55H101.897V239.45Z" fill="#7C52FF"/>
<path d="M105.485 239.45H103.691V238.55H105.485V239.45Z" fill="#7C52FF"/>
<path d="M109.074 239.45H107.279V238.55H109.074V239.45Z" fill="#7C52FF"/>
<path d="M112.662 239.45H110.868V238.55H112.662V239.45Z" fill="#7C52FF"/>
<path d="M116.25 239.45H114.456V238.55H116.25V239.45Z" fill="#7C52FF"/>
<path d="M119.838 239.45H118.044V238.55H119.838V239.45Z" fill="#7C52FF"/>
<path d="M123.426 239.45H121.632V238.55H123.426V239.45Z" fill="#7C52FF"/>
<path d="M127.015 239.45H125.221V238.55H127.015V239.45Z" fill="#7C52FF"/>
<path d="M130.603 239.45H128.809V238.55H130.603V239.45Z" fill="#7C52FF"/>
<path d="M134.191 239.45H132.397V238.55H134.191V239.45Z" fill="#7C52FF"/>
<path d="M137.779 239.45H135.985V238.55H137.779V239.45Z" fill="#7C52FF"/>
<path d="M141.368 239.45H139.574V238.55H141.368V239.45Z" fill="#7C52FF"/>
<path d="M144.956 239.45H143.162V238.55H144.956V239.45Z" fill="#7C52FF"/>
<path d="M148.544 239.45H146.75V238.55H148.544V239.45Z" fill="#7C52FF"/>
<path d="M152.132 239.45H150.338V238.55H152.132V239.45Z" fill="#7C52FF"/>
<path d="M155.721 239.45H153.927V238.55H155.721V239.45Z" fill="#7C52FF"/>
<path d="M159.309 239.45H157.515V238.55H159.309V239.45Z" fill="#7C52FF"/>
<path d="M162 239.45H161.103V238.55H162V239.45Z" fill="#7C52FF"/>
<path d="M40 286.45H40.8971V285.55H40V286.45Z" fill="#7C52FF"/>
<path d="M42.6912 286.45H44.4853V285.55H42.6912V286.45Z" fill="#7C52FF"/>
<path d="M46.2794 286.45H48.0735V285.55H46.2794V286.45Z" fill="#7C52FF"/>
<path d="M49.8676 286.45H51.6618V285.55H49.8676V286.45Z" fill="#7C52FF"/>
<path d="M53.4559 286.45H55.25V285.55H53.4559V286.45Z" fill="#7C52FF"/>
<path d="M57.0441 286.45H58.8382V285.55H57.0441V286.45Z" fill="#7C52FF"/>
<path d="M60.6324 286.45H62.4265V285.55H60.6324V286.45Z" fill="#7C52FF"/>
<path d="M64.2206 286.45H66.0147V285.55H64.2206V286.45Z" fill="#7C52FF"/>
<path d="M67.8088 286.45H69.6029V285.55H67.8088V286.45Z" fill="#7C52FF"/>
<path d="M71.3971 286.45H73.1912V285.55H71.3971V286.45Z" fill="#7C52FF"/>
<path d="M74.9853 286.45H76.7794V285.55H74.9853V286.45Z" fill="#7C52FF"/>
<path d="M78.5735 286.45H80.3676V285.55H78.5735V286.45Z" fill="#7C52FF"/>
<path d="M82.1618 286.45H83.9559V285.55H82.1618V286.45Z" fill="#7C52FF"/>
<path d="M85.75 286.45H87.5441V285.55H85.75V286.45Z" fill="#7C52FF"/>
<path d="M89.3382 286.45H91.1323V285.55H89.3382V286.45Z" fill="#7C52FF"/>
<path d="M92.9265 286.45H94.7206V285.55H92.9265V286.45Z" fill="#7C52FF"/>
<path d="M96.5147 286.45H98.3088V285.55H96.5147V286.45Z" fill="#7C52FF"/>
<path d="M100.103 286.45H101.897V285.55H100.103V286.45Z" fill="#7C52FF"/>
<path d="M103.691 286.45H105.485V285.55H103.691V286.45Z" fill="#7C52FF"/>
<path d="M107.279 286.45H109.074V285.55H107.279V286.45Z" fill="#7C52FF"/>
<path d="M110.868 286.45H112.662V285.55H110.868V286.45Z" fill="#7C52FF"/>
<path d="M114.456 286.45H116.25V285.55H114.456V286.45Z" fill="#7C52FF"/>
<path d="M118.044 286.45H119.838V285.55H118.044V286.45Z" fill="#7C52FF"/>
<path d="M121.632 286.45H123.426V285.55H121.632V286.45Z" fill="#7C52FF"/>
<path d="M125.221 286.45H127.015V285.55H125.221V286.45Z" fill="#7C52FF"/>
<path d="M128.809 286.45H130.603V285.55H128.809V286.45Z" fill="#7C52FF"/>
<path d="M132.397 286.45H134.191V285.55H132.397V286.45Z" fill="#7C52FF"/>
<path d="M135.985 286.45H137.779V285.55H135.985V286.45Z" fill="#7C52FF"/>
<path d="M139.574 286.45H141.368V285.55H139.574V286.45Z" fill="#7C52FF"/>
<path d="M143.162 286.45H144.956V285.55H143.162V286.45Z" fill="#7C52FF"/>
<path d="M146.75 286.45H148.544V285.55H146.75V286.45Z" fill="#7C52FF"/>
<path d="M150.338 286.45H152.132V285.55H150.338V286.45Z" fill="#7C52FF"/>
<path d="M153.927 286.45H155.721V285.55H153.927V286.45Z" fill="#7C52FF"/>
<path d="M157.515 286.45H159.309V285.55H157.515V286.45Z" fill="#7C52FF"/>
<path d="M161.103 286.45H162V285.55H161.103V286.45Z" fill="#7C52FF"/>
<path d="M561 191.45H561.898V190.55H561V191.45Z" fill="#7C52FF"/>
<path d="M563.693 191.45H565.489V190.55H563.693V191.45Z" fill="#7C52FF"/>
<path d="M567.284 191.45H569.08V190.55H567.284V191.45Z" fill="#7C52FF"/>
<path d="M570.875 191.45H572.67V190.55H570.875V191.45Z" fill="#7C52FF"/>
<path d="M574.466 191.45H576.261V190.55H574.466V191.45Z" fill="#7C52FF"/>
<path d="M578.057 191.45H579.852V190.55H578.057V191.45Z" fill="#7C52FF"/>
<path d="M581.648 191.45H583.443V190.55H581.648V191.45Z" fill="#7C52FF"/>
<path d="M585.239 191.45H587.034V190.55H585.239V191.45Z" fill="#7C52FF"/>
<path d="M588.83 191.45H590.625V190.55H588.83V191.45Z" fill="#7C52FF"/>
<path d="M592.42 191.45H594.216V190.55H592.42V191.45Z" fill="#7C52FF"/>
<path d="M596.011 191.45H597.807V190.55H596.011V191.45Z" fill="#7C52FF"/>
<path d="M599.602 191.45H601.398V190.55H599.602V191.45Z" fill="#7C52FF"/>
<path d="M603.193 191.45H604.989V190.55H603.193V191.45Z" fill="#7C52FF"/>
<path d="M606.784 191.45H608.58V190.55H606.784V191.45Z" fill="#7C52FF"/>
<path d="M610.375 191.45H612.17V190.55H610.375V191.45Z" fill="#7C52FF"/>
<path d="M613.966 191.45H615.761V190.55H613.966V191.45Z" fill="#7C52FF"/>
<path d="M617.557 191.45H619.352V190.55H617.557V191.45Z" fill="#7C52FF"/>
<path d="M621.148 191.45H622.943V190.55H621.148V191.45Z" fill="#7C52FF"/>
<path d="M624.739 191.45H626.534V190.55H624.739V191.45Z" fill="#7C52FF"/>
<path d="M628.33 191.45H630.125V190.55H628.33V191.45Z" fill="#7C52FF"/>
<path d="M631.92 191.45H633.716V190.55H631.92V191.45Z" fill="#7C52FF"/>
<path d="M635.511 191.45H637.307V190.55H635.511V191.45Z" fill="#7C52FF"/>
<path d="M639.102 191.45H640.898V190.55H639.102V191.45Z" fill="#7C52FF"/>
<path d="M642.693 191.45H644.489V190.55H642.693V191.45Z" fill="#7C52FF"/>
<path d="M646.284 191.45H648.08V190.55H646.284V191.45Z" fill="#7C52FF"/>
<path d="M649.875 191.45H651.67V190.55H649.875V191.45Z" fill="#7C52FF"/>
<path d="M653.466 191.45H655.261V190.55L653.466 190.55V191.45Z" fill="#7C52FF"/>
<path d="M657.057 191.45H658.852L658.852 190.55H657.057V191.45Z" fill="#7C52FF"/>
<path d="M660.648 191.45H662.443V190.55H660.648V191.45Z" fill="#7C52FF"/>
<path d="M664.239 191.45H666.034V190.55H664.239V191.45Z" fill="#7C52FF"/>
<path d="M667.83 191.45H669.625V190.55H667.83V191.45Z" fill="#7C52FF"/>
<path d="M671.421 191.45H673.216V190.55H671.421V191.45Z" fill="#7C52FF"/>
<path d="M675.011 191.45H676.807V190.55H675.011V191.45Z" fill="#7C52FF"/>
<path d="M678.602 191.45H680.398L680.398 190.55H678.602V191.45Z" fill="#7C52FF"/>
<path d="M682.193 191.45H683.989V190.55H682.193V191.45Z" fill="#7C52FF"/>
<path d="M685.784 191.45H687.58V190.55H685.784V191.45Z" fill="#7C52FF"/>
<path d="M689.375 191.45H691.171V190.55H689.375V191.45Z" fill="#7C52FF"/>
<path d="M692.966 191.45H694.761V190.55H692.966L692.966 191.45Z" fill="#7C52FF"/>
<path d="M696.557 191.45H698.352V190.55H696.557V191.45Z" fill="#7C52FF"/>
<path d="M700.148 191.45H701.943V190.55H700.148L700.148 191.45Z" fill="#7C52FF"/>
<path d="M703.739 191.45H705.534V190.55H703.739V191.45Z" fill="#7C52FF"/>
<path d="M707.33 191.45H709.125V190.55H707.33L707.33 191.45Z" fill="#7C52FF"/>
<path d="M710.921 191.45H712.716V190.55H710.921V191.45Z" fill="#7C52FF"/>
<path d="M714.511 191.45H716.307V190.55H714.511L714.511 191.45Z" fill="#7C52FF"/>
<path d="M718.102 191.45H719V190.55H718.102V191.45Z" fill="#7C52FF"/>
<path d="M561.898 143.45H561V142.55H561.898V143.45Z" fill="#7C52FF"/>
<path d="M565.489 143.45H563.693V142.55H565.489V143.45Z" fill="#7C52FF"/>
<path d="M569.08 143.45H567.284V142.55H569.08V143.45Z" fill="#7C52FF"/>
<path d="M572.67 143.45H570.875V142.55H572.67V143.45Z" fill="#7C52FF"/>
<path d="M576.261 143.45H574.466V142.55H576.261V143.45Z" fill="#7C52FF"/>
<path d="M579.852 143.45H578.057V142.55H579.852V143.45Z" fill="#7C52FF"/>
<path d="M583.443 143.45H581.648V142.55H583.443V143.45Z" fill="#7C52FF"/>
<path d="M587.034 143.45H585.239V142.55H587.034V143.45Z" fill="#7C52FF"/>
<path d="M590.625 143.45H588.83V142.55H590.625V143.45Z" fill="#7C52FF"/>
<path d="M594.216 143.45H592.42V142.55H594.216V143.45Z" fill="#7C52FF"/>
<path d="M597.807 143.45H596.011V142.55H597.807V143.45Z" fill="#7C52FF"/>
<path d="M601.398 143.45H599.602V142.55H601.398V143.45Z" fill="#7C52FF"/>
<path d="M604.989 143.45H603.193V142.55H604.989V143.45Z" fill="#7C52FF"/>
<path d="M608.58 143.45H606.784V142.55H608.58V143.45Z" fill="#7C52FF"/>
<path d="M612.17 143.45H610.375V142.55H612.17V143.45Z" fill="#7C52FF"/>
<path d="M615.761 143.45H613.966V142.55H615.761V143.45Z" fill="#7C52FF"/>
<path d="M619.352 143.45H617.557V142.55H619.352V143.45Z" fill="#7C52FF"/>
<path d="M622.943 143.45H621.148V142.55H622.943V143.45Z" fill="#7C52FF"/>
<path d="M626.534 143.45H624.739V142.55H626.534V143.45Z" fill="#7C52FF"/>
<path d="M630.125 143.45H628.33V142.55H630.125V143.45Z" fill="#7C52FF"/>
<path d="M633.716 143.45H631.92V142.55H633.716V143.45Z" fill="#7C52FF"/>
<path d="M637.307 143.45H635.511V142.55H637.307V143.45Z" fill="#7C52FF"/>
<path d="M640.898 143.45H639.102V142.55H640.898V143.45Z" fill="#7C52FF"/>
<path d="M644.489 143.45H642.693V142.55H644.489V143.45Z" fill="#7C52FF"/>
<path d="M648.08 143.45H646.284V142.55H648.08V143.45Z" fill="#7C52FF"/>
<path d="M651.67 143.45H649.875V142.55H651.67V143.45Z" fill="#7C52FF"/>
<path d="M655.261 143.45H653.466V142.55L655.261 142.55V143.45Z" fill="#7C52FF"/>
<path d="M658.852 143.45H657.057V142.55H658.852L658.852 143.45Z" fill="#7C52FF"/>
<path d="M662.443 143.45H660.648V142.55H662.443V143.45Z" fill="#7C52FF"/>
<path d="M666.034 143.45H664.239V142.55H666.034V143.45Z" fill="#7C52FF"/>
<path d="M669.625 143.45H667.83V142.55H669.625V143.45Z" fill="#7C52FF"/>
<path d="M673.216 143.45H671.421V142.55H673.216V143.45Z" fill="#7C52FF"/>
<path d="M676.807 143.45H675.011V142.55H676.807V143.45Z" fill="#7C52FF"/>
<path d="M680.398 143.45H678.602V142.55H680.398L680.398 143.45Z" fill="#7C52FF"/>
<path d="M683.989 143.45H682.193V142.55H683.989V143.45Z" fill="#7C52FF"/>
<path d="M687.58 143.45H685.784V142.55H687.58V143.45Z" fill="#7C52FF"/>
<path d="M691.171 143.45H689.375V142.55H691.171V143.45Z" fill="#7C52FF"/>
<path d="M694.761 143.45H692.966L692.966 142.55H694.761V143.45Z" fill="#7C52FF"/>
<path d="M698.352 143.45H696.557V142.55H698.352V143.45Z" fill="#7C52FF"/>
<path d="M701.943 143.45H700.148L700.148 142.55H701.943V143.45Z" fill="#7C52FF"/>
<path d="M705.534 143.45H703.739V142.55H705.534V143.45Z" fill="#7C52FF"/>
<path d="M709.125 143.45H707.33L707.33 142.55H709.125V143.45Z" fill="#7C52FF"/>
<path d="M712.716 143.45H710.921V142.55H712.716V143.45Z" fill="#7C52FF"/>
<path d="M716.307 143.45H714.511L714.511 142.55H716.307V143.45Z" fill="#7C52FF"/>
<path d="M719 143.45H718.102V142.55H719V143.45Z" fill="#7C52FF"/>
<path d="M561 239.45H561.898V238.55H561V239.45Z" fill="#7C52FF"/>
<path d="M563.693 239.45H565.489V238.55H563.693V239.45Z" fill="#7C52FF"/>
<path d="M567.284 239.45H569.08V238.55H567.284V239.45Z" fill="#7C52FF"/>
<path d="M570.875 239.45H572.67V238.55H570.875V239.45Z" fill="#7C52FF"/>
<path d="M574.466 239.45H576.261V238.55H574.466V239.45Z" fill="#7C52FF"/>
<path d="M578.057 239.45H579.852V238.55H578.057V239.45Z" fill="#7C52FF"/>
<path d="M581.648 239.45H583.443V238.55H581.648V239.45Z" fill="#7C52FF"/>
<path d="M585.239 239.45H587.034V238.55H585.239V239.45Z" fill="#7C52FF"/>
<path d="M588.83 239.45H590.625V238.55H588.83V239.45Z" fill="#7C52FF"/>
<path d="M592.42 239.45H594.216V238.55H592.42V239.45Z" fill="#7C52FF"/>
<path d="M596.011 239.45H597.807V238.55H596.011V239.45Z" fill="#7C52FF"/>
<path d="M599.602 239.45H601.398V238.55H599.602V239.45Z" fill="#7C52FF"/>
<path d="M603.193 239.45H604.989V238.55H603.193V239.45Z" fill="#7C52FF"/>
<path d="M606.784 239.45H608.58V238.55H606.784V239.45Z" fill="#7C52FF"/>
<path d="M610.375 239.45H612.17V238.55L610.375 238.55V239.45Z" fill="#7C52FF"/>
<path d="M613.966 239.45H615.761V238.55H613.966V239.45Z" fill="#7C52FF"/>
<path d="M617.557 239.45H619.352V238.55H617.557V239.45Z" fill="#7C52FF"/>
<path d="M621.148 239.45H622.943V238.55H621.148V239.45Z" fill="#7C52FF"/>
<path d="M624.739 239.45H626.534V238.55H624.739V239.45Z" fill="#7C52FF"/>
<path d="M628.33 239.45H630.125V238.55H628.33V239.45Z" fill="#7C52FF"/>
<path d="M631.92 239.45H633.716V238.55H631.92V239.45Z" fill="#7C52FF"/>
<path d="M635.511 239.45H637.307V238.55H635.511V239.45Z" fill="#7C52FF"/>
<path d="M639.102 239.45H640.898V238.55H639.102V239.45Z" fill="#7C52FF"/>
<path d="M642.693 239.45H644.489V238.55H642.693V239.45Z" fill="#7C52FF"/>
<path d="M646.284 239.45H648.08V238.55H646.284V239.45Z" fill="#7C52FF"/>
<path d="M649.875 239.45H651.67V238.55H649.875V239.45Z" fill="#7C52FF"/>
<path d="M653.466 239.45H655.261V238.55H653.466V239.45Z" fill="#7C52FF"/>
<path d="M657.057 239.45H658.852L658.852 238.55H657.057V239.45Z" fill="#7C52FF"/>
<path d="M660.648 239.45H662.443V238.55H660.648V239.45Z" fill="#7C52FF"/>
<path d="M664.239 239.45H666.034V238.55H664.239V239.45Z" fill="#7C52FF"/>
<path d="M667.83 239.45H669.625V238.55H667.83V239.45Z" fill="#7C52FF"/>
<path d="M671.421 239.45H673.216V238.55H671.421V239.45Z" fill="#7C52FF"/>
<path d="M675.011 239.45H676.807V238.55H675.011V239.45Z" fill="#7C52FF"/>
<path d="M678.602 239.45L680.398 239.45L680.398 238.55H678.602V239.45Z" fill="#7C52FF"/>
<path d="M682.193 239.45H683.989V238.55H682.193V239.45Z" fill="#7C52FF"/>
<path d="M685.784 239.45H687.58V238.55H685.784V239.45Z" fill="#7C52FF"/>
<path d="M689.375 239.45H691.171V238.55H689.375V239.45Z" fill="#7C52FF"/>
<path d="M692.966 239.45H694.761V238.55H692.966L692.966 239.45Z" fill="#7C52FF"/>
<path d="M696.557 239.45H698.352V238.55H696.557V239.45Z" fill="#7C52FF"/>
<path d="M700.148 239.45H701.943V238.55H700.148L700.148 239.45Z" fill="#7C52FF"/>
<path d="M703.739 239.45H705.534V238.55H703.739V239.45Z" fill="#7C52FF"/>
<path d="M707.33 239.45H709.125V238.55H707.33L707.33 239.45Z" fill="#7C52FF"/>
<path d="M710.921 239.45H712.716V238.55H710.921V239.45Z" fill="#7C52FF"/>
<path d="M714.511 239.45H716.307V238.55H714.511L714.511 239.45Z" fill="#7C52FF"/>
<path d="M718.102 239.45H719V238.55H718.102V239.45Z" fill="#7C52FF"/>
<path d="M561.898 286.45H561V285.55H561.898V286.45Z" fill="#7C52FF"/>
<path d="M565.489 286.45H563.693V285.55H565.489V286.45Z" fill="#7C52FF"/>
<path d="M569.08 286.45H567.284V285.55H569.08V286.45Z" fill="#7C52FF"/>
<path d="M572.67 286.45H570.875V285.55H572.67V286.45Z" fill="#7C52FF"/>
<path d="M576.261 286.45H574.466V285.55H576.261V286.45Z" fill="#7C52FF"/>
<path d="M579.852 286.45H578.057V285.55H579.852V286.45Z" fill="#7C52FF"/>
<path d="M583.443 286.45H581.648V285.55H583.443V286.45Z" fill="#7C52FF"/>
<path d="M587.034 286.45H585.239V285.55H587.034V286.45Z" fill="#7C52FF"/>
<path d="M590.625 286.45H588.83V285.55H590.625V286.45Z" fill="#7C52FF"/>
<path d="M594.216 286.45H592.42V285.55H594.216V286.45Z" fill="#7C52FF"/>
<path d="M597.807 286.45H596.011V285.55H597.807V286.45Z" fill="#7C52FF"/>
<path d="M601.398 286.45H599.602V285.55H601.398V286.45Z" fill="#7C52FF"/>
<path d="M604.989 286.45H603.193V285.55H604.989V286.45Z" fill="#7C52FF"/>
<path d="M608.58 286.45H606.784V285.55H608.58V286.45Z" fill="#7C52FF"/>
<path d="M612.17 286.45H610.375V285.55L612.17 285.55V286.45Z" fill="#7C52FF"/>
<path d="M615.761 286.45H613.966V285.55H615.761V286.45Z" fill="#7C52FF"/>
<path d="M619.352 286.45H617.557V285.55H619.352V286.45Z" fill="#7C52FF"/>
<path d="M622.943 286.45H621.148V285.55H622.943V286.45Z" fill="#7C52FF"/>
<path d="M626.534 286.45H624.739V285.55H626.534V286.45Z" fill="#7C52FF"/>
<path d="M630.125 286.45H628.33V285.55H630.125V286.45Z" fill="#7C52FF"/>
<path d="M633.716 286.45H631.92V285.55H633.716V286.45Z" fill="#7C52FF"/>
<path d="M637.307 286.45H635.511V285.55H637.307V286.45Z" fill="#7C52FF"/>
<path d="M640.898 286.45H639.102V285.55H640.898V286.45Z" fill="#7C52FF"/>
<path d="M644.489 286.45H642.693V285.55H644.489V286.45Z" fill="#7C52FF"/>
<path d="M648.08 286.45H646.284V285.55H648.08V286.45Z" fill="#7C52FF"/>
<path d="M651.67 286.45H649.875V285.55H651.67V286.45Z" fill="#7C52FF"/>
<path d="M655.261 286.45H653.466V285.55H655.261V286.45Z" fill="#7C52FF"/>
<path d="M658.852 286.45H657.057V285.55H658.852L658.852 286.45Z" fill="#7C52FF"/>
<path d="M662.443 286.45H660.648V285.55H662.443V286.45Z" fill="#7C52FF"/>
<path d="M666.034 286.45H664.239V285.55H666.034V286.45Z" fill="#7C52FF"/>
<path d="M669.625 286.45H667.83V285.55H669.625V286.45Z" fill="#7C52FF"/>
<path d="M673.216 286.45H671.421V285.55H673.216V286.45Z" fill="#7C52FF"/>
<path d="M676.807 286.45H675.011V285.55H676.807V286.45Z" fill="#7C52FF"/>
<path d="M680.398 286.45L678.602 286.45V285.55H680.398L680.398 286.45Z" fill="#7C52FF"/>
<path d="M683.989 286.45H682.193V285.55H683.989V286.45Z" fill="#7C52FF"/>
<path d="M687.58 286.45H685.784V285.55H687.58V286.45Z" fill="#7C52FF"/>
<path d="M691.171 286.45H689.375V285.55H691.171V286.45Z" fill="#7C52FF"/>
<path d="M694.761 286.45H692.966L692.966 285.55H694.761V286.45Z" fill="#7C52FF"/>
<path d="M698.352 286.45H696.557V285.55H698.352V286.45Z" fill="#7C52FF"/>
<path d="M701.943 286.45H700.148L700.148 285.55H701.943V286.45Z" fill="#7C52FF"/>
<path d="M705.534 286.45H703.739V285.55H705.534V286.45Z" fill="#7C52FF"/>
<path d="M709.125 286.45H707.33L707.33 285.55H709.125V286.45Z" fill="#7C52FF"/>
<path d="M712.716 286.45H710.921V285.55H712.716V286.45Z" fill="#7C52FF"/>
<path d="M716.307 286.45H714.511L714.511 285.55H716.307V286.45Z" fill="#7C52FF"/>
<path d="M719 286.45H718.102V285.55H719V286.45Z" fill="#7C52FF"/>
<path d="M561 119.45H561.898V118.55H561V119.45Z" fill="#7C52FF"/>
<path d="M563.693 119.45H565.489V118.55H563.693V119.45Z" fill="#7C52FF"/>
<path d="M567.284 119.45H569.08V118.55H567.284V119.45Z" fill="#7C52FF"/>
<path d="M570.875 119.45H572.67V118.55H570.875V119.45Z" fill="#7C52FF"/>
<path d="M574.466 119.45H576.261V118.55H574.466V119.45Z" fill="#7C52FF"/>
<path d="M578.057 119.45H579.852V118.55H578.057V119.45Z" fill="#7C52FF"/>
<path d="M581.648 119.45H583.443V118.55H581.648V119.45Z" fill="#7C52FF"/>
<path d="M585.239 119.45H587.034V118.55H585.239V119.45Z" fill="#7C52FF"/>
<path d="M588.83 119.45H590.625V118.55L588.83 118.55V119.45Z" fill="#7C52FF"/>
<path d="M592.42 119.45H594.216V118.55H592.42V119.45Z" fill="#7C52FF"/>
<path d="M596.011 119.45H597.807V118.55H596.011V119.45Z" fill="#7C52FF"/>
<path d="M599.602 119.45H601.398V118.55H599.602V119.45Z" fill="#7C52FF"/>
<path d="M603.193 119.45H604.989V118.55H603.193V119.45Z" fill="#7C52FF"/>
<path d="M606.784 119.45H608.58V118.55H606.784V119.45Z" fill="#7C52FF"/>
<path d="M610.375 119.45H612.17V118.55H610.375V119.45Z" fill="#7C52FF"/>
<path d="M613.966 119.45H615.761V118.55H613.966V119.45Z" fill="#7C52FF"/>
<path d="M617.557 119.45H619.352V118.55H617.557V119.45Z" fill="#7C52FF"/>
<path d="M621.148 119.45H622.943V118.55H621.148V119.45Z" fill="#7C52FF"/>
<path d="M624.739 119.45H626.534V118.55H624.739V119.45Z" fill="#7C52FF"/>
<path d="M628.33 119.45H630.125V118.55H628.33V119.45Z" fill="#7C52FF"/>
<path d="M631.92 119.45H633.716V118.55L631.92 118.55V119.45Z" fill="#7C52FF"/>
<path d="M635.511 119.45H637.307V118.55H635.511V119.45Z" fill="#7C52FF"/>
<path d="M639.102 119.45H640.898V118.55H639.102V119.45Z" fill="#7C52FF"/>
<path d="M642.693 119.45H644.489V118.55H642.693V119.45Z" fill="#7C52FF"/>
<path d="M646.284 119.45H648.08V118.55H646.284V119.45Z" fill="#7C52FF"/>
<path d="M649.875 119.45H651.67V118.55H649.875V119.45Z" fill="#7C52FF"/>
<path d="M653.466 119.45H655.261V118.55H653.466V119.45Z" fill="#7C52FF"/>
<path d="M657.057 119.45H658.852L658.852 118.55H657.057V119.45Z" fill="#7C52FF"/>
<path d="M660.648 119.45H662.443V118.55H660.648V119.45Z" fill="#7C52FF"/>
<path d="M664.239 119.45H666.034V118.55H664.239V119.45Z" fill="#7C52FF"/>
<path d="M667.83 119.45H669.625V118.55H667.83V119.45Z" fill="#7C52FF"/>
<path d="M671.421 119.45H673.216V118.55H671.421V119.45Z" fill="#7C52FF"/>
<path d="M675.011 119.45H676.807V118.55L675.011 118.55V119.45Z" fill="#7C52FF"/>
<path d="M678.602 119.45H680.398L680.398 118.55H678.602V119.45Z" fill="#7C52FF"/>
<path d="M682.193 119.45H683.989V118.55H682.193V119.45Z" fill="#7C52FF"/>
<path d="M685.784 119.45H687.58V118.55H685.784V119.45Z" fill="#7C52FF"/>
<path d="M689.375 119.45H691.171V118.55H689.375V119.45Z" fill="#7C52FF"/>
<path d="M692.966 119.45H694.761V118.55H692.966L692.966 119.45Z" fill="#7C52FF"/>
<path d="M696.557 119.45H698.352V118.55H696.557V119.45Z" fill="#7C52FF"/>
<path d="M700.148 119.45L701.943 119.45V118.55H700.148L700.148 119.45Z" fill="#7C52FF"/>
<path d="M703.739 119.45H705.534V118.55H703.739V119.45Z" fill="#7C52FF"/>
<path d="M707.33 119.45H709.125V118.55H707.33L707.33 119.45Z" fill="#7C52FF"/>
<path d="M710.921 119.45H712.716V118.55H710.921V119.45Z" fill="#7C52FF"/>
<path d="M714.511 119.45H716.307V118.55H714.511L714.511 119.45Z" fill="#7C52FF"/>
<path d="M718.102 119.45H719V118.55L718.102 118.55V119.45Z" fill="#7C52FF"/>
<path d="M561.898 95.4501H561V94.5501H561.898V95.4501Z" fill="#7C52FF"/>
<path d="M565.489 95.4501H563.693V94.5501H565.489V95.4501Z" fill="#7C52FF"/>
<path d="M569.08 95.4501H567.284V94.5501H569.08V95.4501Z" fill="#7C52FF"/>
<path d="M572.67 95.4501H570.875V94.5501H572.67V95.4501Z" fill="#7C52FF"/>
<path d="M576.261 95.4501H574.466V94.5501H576.261V95.4501Z" fill="#7C52FF"/>
<path d="M579.852 95.4501H578.057V94.5501H579.852V95.4501Z" fill="#7C52FF"/>
<path d="M583.443 95.4501H581.648V94.5501H583.443V95.4501Z" fill="#7C52FF"/>
<path d="M587.034 95.4501H585.239V94.5501H587.034V95.4501Z" fill="#7C52FF"/>
<path d="M590.625 95.4501H588.83V94.5501H590.625V95.4501Z" fill="#7C52FF"/>
<path d="M594.216 95.4501H592.42V94.5501H594.216V95.4501Z" fill="#7C52FF"/>
<path d="M597.807 95.4501H596.011V94.5501H597.807V95.4501Z" fill="#7C52FF"/>
<path d="M601.398 95.4501H599.602V94.5501L601.398 94.5501V95.4501Z" fill="#7C52FF"/>
<path d="M604.989 95.4501H603.193V94.5501H604.989V95.4501Z" fill="#7C52FF"/>
<path d="M608.58 95.4501H606.784V94.5501H608.58V95.4501Z" fill="#7C52FF"/>
<path d="M612.17 95.4501H610.375V94.5501H612.17V95.4501Z" fill="#7C52FF"/>
<path d="M615.761 95.4501H613.966V94.5501H615.761V95.4501Z" fill="#7C52FF"/>
<path d="M619.352 95.4501H617.557V94.5501H619.352V95.4501Z" fill="#7C52FF"/>
<path d="M622.943 95.4501H621.148V94.5501L622.943 94.5501V95.4501Z" fill="#7C52FF"/>
<path d="M626.534 95.4501H624.739V94.5501H626.534V95.4501Z" fill="#7C52FF"/>
<path d="M630.125 95.4501H628.33V94.5501H630.125V95.4501Z" fill="#7C52FF"/>
<path d="M633.716 95.4501H631.92V94.5501H633.716V95.4501Z" fill="#7C52FF"/>
<path d="M637.307 95.4501H635.511V94.5501H637.307V95.4501Z" fill="#7C52FF"/>
<path d="M640.898 95.4501H639.102V94.5501H640.898V95.4501Z" fill="#7C52FF"/>
<path d="M644.489 95.4501H642.693V94.5501L644.489 94.5501V95.4501Z" fill="#7C52FF"/>
<path d="M648.08 95.4501H646.284V94.5501H648.08V95.4501Z" fill="#7C52FF"/>
<path d="M651.67 95.4501H649.875V94.5501H651.67V95.4501Z" fill="#7C52FF"/>
<path d="M655.261 95.4501H653.466V94.5501H655.261V95.4501Z" fill="#7C52FF"/>
<path d="M658.852 95.4501H657.057V94.5501H658.852L658.852 95.4501Z" fill="#7C52FF"/>
<path d="M662.443 95.4501H660.648V94.5501H662.443V95.4501Z" fill="#7C52FF"/>
<path d="M666.034 95.4501H664.239V94.5501L666.034 94.5501V95.4501Z" fill="#7C52FF"/>
<path d="M669.625 95.4501H667.83V94.5501H669.625V95.4501Z" fill="#7C52FF"/>
<path d="M673.216 95.4501H671.421V94.5501H673.216V95.4501Z" fill="#7C52FF"/>
<path d="M676.807 95.4501H675.011V94.5501H676.807V95.4501Z" fill="#7C52FF"/>
<path d="M680.398 95.4501H678.602V94.5501H680.398L680.398 95.4501Z" fill="#7C52FF"/>
<path d="M683.989 95.4501H682.193V94.5501H683.989V95.4501Z" fill="#7C52FF"/>
<path d="M687.58 95.4501H685.784V94.5501L687.58 94.5501V95.4501Z" fill="#7C52FF"/>
<path d="M691.171 95.4501L689.375 95.4501V94.5501H691.171V95.4501Z" fill="#7C52FF"/>
<path d="M694.761 95.4501H692.966L692.966 94.5501H694.761V95.4501Z" fill="#7C52FF"/>
<path d="M698.352 95.4501H696.557V94.5501H698.352V95.4501Z" fill="#7C52FF"/>
<path d="M701.943 95.4501H700.148L700.148 94.5501H701.943V95.4501Z" fill="#7C52FF"/>
<path d="M705.534 95.4501H703.739V94.5501H705.534V95.4501Z" fill="#7C52FF"/>
<path d="M709.125 95.4501H707.33L707.33 94.5501L709.125 94.5501V95.4501Z" fill="#7C52FF"/>
<path d="M712.716 95.4501L710.921 95.4501V94.5501H712.716V95.4501Z" fill="#7C52FF"/>
<path d="M716.307 95.4501H714.511L714.511 94.5501H716.307V95.4501Z" fill="#7C52FF"/>
<path d="M719 95.4501H718.102V94.5501H719V95.4501Z" fill="#7C52FF"/>
<path d="M561 71.4501L561.898 71.4501V70.5501L561 70.5501V71.4501Z" fill="#7C52FF"/>
<path d="M563.693 71.4501L565.489 71.4501V70.5501L563.693 70.5501V71.4501Z" fill="#7C52FF"/>
<path d="M567.284 71.4501L569.08 71.4501V70.5501L567.284 70.5501V71.4501Z" fill="#7C52FF"/>
<path d="M570.875 71.4501L572.67 71.4501V70.5501L570.875 70.5501V71.4501Z" fill="#7C52FF"/>
<path d="M574.466 71.4501L576.261 71.4501V70.5501L574.466 70.5501V71.4501Z" fill="#7C52FF"/>
<path d="M578.057 71.4501L579.852 71.4501V70.5501L578.057 70.5501V71.4501Z" fill="#7C52FF"/>
<path d="M581.648 71.4501L583.443 71.4501V70.5501L581.648 70.5501V71.4501Z" fill="#7C52FF"/>
<path d="M585.239 71.4501L587.034 71.4501V70.5501L585.239 70.5501V71.4501Z" fill="#7C52FF"/>
<path d="M588.83 71.4501L590.625 71.4501V70.5501L588.83 70.5501V71.4501Z" fill="#7C52FF"/>
<path d="M592.42 71.4501L594.216 71.4501V70.5501L592.42 70.5501V71.4501Z" fill="#7C52FF"/>
<path d="M596.011 71.4501L597.807 71.4501V70.5501L596.011 70.5501V71.4501Z" fill="#7C52FF"/>
<path d="M599.602 71.4501L601.398 71.4501V70.5501L599.602 70.5501V71.4501Z" fill="#7C52FF"/>
<path d="M603.193 71.4501L604.989 71.4501V70.5501L603.193 70.5501V71.4501Z" fill="#7C52FF"/>
<path d="M606.784 71.4501L608.58 71.4501V70.5501L606.784 70.5501V71.4501Z" fill="#7C52FF"/>
<path d="M610.375 71.4501L612.17 71.4501V70.5501L610.375 70.5501V71.4501Z" fill="#7C52FF"/>
<path d="M613.966 71.4501L615.761 71.4501V70.5501L613.966 70.5501V71.4501Z" fill="#7C52FF"/>
<path d="M617.557 71.4501L619.352 71.4501V70.5501L617.557 70.5501V71.4501Z" fill="#7C52FF"/>
<path d="M621.148 71.4501L622.943 71.4501V70.5501L621.148 70.5501V71.4501Z" fill="#7C52FF"/>
<path d="M624.739 71.4501L626.534 71.4501V70.5501L624.739 70.5501V71.4501Z" fill="#7C52FF"/>
<path d="M628.33 71.4501L630.125 71.4501V70.5501L628.33 70.5501V71.4501Z" fill="#7C52FF"/>
<path d="M631.92 71.4501L633.716 71.4501V70.5501L631.92 70.5501V71.4501Z" fill="#7C52FF"/>
<path d="M635.511 71.4501L637.307 71.4501V70.5501L635.511 70.5501V71.4501Z" fill="#7C52FF"/>
<path d="M639.102 71.4501L640.898 71.4501V70.5501L639.102 70.5501V71.4501Z" fill="#7C52FF"/>
<path d="M642.693 71.4501L644.489 71.4501V70.5501L642.693 70.5501V71.4501Z" fill="#7C52FF"/>
<path d="M646.284 71.4501L648.08 71.4501V70.5501L646.284 70.5501V71.4501Z" fill="#7C52FF"/>
<path d="M649.875 71.4501L651.67 71.4501V70.5501L649.875 70.5501V71.4501Z" fill="#7C52FF"/>
<path d="M653.466 71.4501L655.261 71.4501V70.5501L653.466 70.5501V71.4501Z" fill="#7C52FF"/>
<path d="M657.057 71.4501L658.852 71.4501L658.852 70.5501L657.057 70.5501V71.4501Z" fill="#7C52FF"/>
<path d="M660.648 71.4501L662.443 71.4501V70.5501L660.648 70.5501V71.4501Z" fill="#7C52FF"/>
<path d="M664.239 71.4501L666.034 71.4501V70.5501L664.239 70.5501V71.4501Z" fill="#7C52FF"/>
<path d="M667.83 71.4501L669.625 71.4501V70.5501L667.83 70.5501V71.4501Z" fill="#7C52FF"/>
<path d="M671.421 71.4501L673.216 71.4501V70.5501L671.421 70.5501V71.4501Z" fill="#7C52FF"/>
<path d="M675.011 71.4501L676.807 71.4501V70.5501L675.011 70.5501V71.4501Z" fill="#7C52FF"/>
<path d="M678.602 71.4501L680.398 71.4501L680.398 70.5501L678.602 70.5501V71.4501Z" fill="#7C52FF"/>
<path d="M682.193 71.4501L683.989 71.4501V70.5501L682.193 70.5501V71.4501Z" fill="#7C52FF"/>
<path d="M685.784 71.4501L687.58 71.4501V70.5501L685.784 70.5501V71.4501Z" fill="#7C52FF"/>
<path d="M689.375 71.4501L691.171 71.4501V70.5501L689.375 70.5501V71.4501Z" fill="#7C52FF"/>
<path d="M692.966 71.4501L694.761 71.4501V70.5501L692.966 70.5501L692.966 71.4501Z" fill="#7C52FF"/>
<path d="M696.557 71.4501L698.352 71.4501V70.5501L696.557 70.5501V71.4501Z" fill="#7C52FF"/>
<path d="M700.148 71.4501L701.943 71.4501V70.5501L700.148 70.5501L700.148 71.4501Z" fill="#7C52FF"/>
<path d="M703.739 71.4501L705.534 71.4501V70.5501L703.739 70.5501V71.4501Z" fill="#7C52FF"/>
<path d="M707.33 71.4501L709.125 71.4501V70.5501L707.33 70.5501L707.33 71.4501Z" fill="#7C52FF"/>
<path d="M710.921 71.4501L712.716 71.4501V70.5501L710.921 70.5501V71.4501Z" fill="#7C52FF"/>
<path d="M714.511 71.4501L716.307 71.4501V70.5501L714.511 70.5501L714.511 71.4501Z" fill="#7C52FF"/>
<path d="M718.102 71.4501L719 71.4501V70.5501L718.102 70.5501V71.4501Z" fill="#7C52FF"/>
</g>
<path d="M190 38.64C190 35.6157 190 34.1036 190.589 32.9485C191.106 31.9324 191.932 31.1063 192.948 30.5886C194.104 30 195.616 30 198.64 30H341.2V42.84C341.2 44.8562 341.2 45.8643 340.808 46.6344C340.462 47.3117 339.912 47.8625 339.234 48.2076C338.464 48.6 337.456 48.6 335.44 48.6H190V38.64Z" fill="#DAC7FF"/>
<path d="M195.803 42.8L194.034 36.4836H195.053L196.295 41.5344H196.389L197.801 36.4836H198.768L200.18 41.5344H200.274L201.516 36.4836H202.53L200.76 42.8H199.735L198.323 37.9133H198.229L196.823 42.8H195.803ZM203.901 42.8V36.4836H204.92V42.8H203.901ZM204.417 35.2649C204.225 35.2649 204.059 35.1965 203.918 35.0598C203.782 34.9192 203.713 34.7532 203.713 34.5618C203.713 34.3665 203.782 34.2004 203.918 34.0637C204.059 33.927 204.225 33.8586 204.417 33.8586C204.612 33.8586 204.778 33.927 204.915 34.0637C205.051 34.2004 205.12 34.3665 205.12 34.5618C205.12 34.7532 205.051 34.9192 204.915 35.0598C204.778 35.1965 204.612 35.2649 204.417 35.2649ZM209.174 42.9114C208.643 42.9114 208.178 42.7766 207.78 42.5071C207.381 42.2375 207.073 41.8586 206.854 41.3704C206.635 40.8782 206.526 40.304 206.526 39.6477V39.636C206.526 38.9758 206.635 38.4016 206.854 37.9133C207.073 37.425 207.379 37.0461 207.774 36.7766C208.172 36.5071 208.639 36.3723 209.174 36.3723C209.608 36.3723 210 36.4739 210.352 36.677C210.708 36.8762 210.971 37.1438 211.143 37.4797H211.237V33.9758H212.256V42.8H211.237V41.7922H211.143C210.952 42.1438 210.686 42.4192 210.346 42.6184C210.006 42.8137 209.616 42.9114 209.174 42.9114ZM209.409 42.009C209.792 42.009 210.122 41.9133 210.399 41.7219C210.676 41.5305 210.889 41.259 211.038 40.9075C211.186 40.552 211.26 40.1321 211.26 39.6477V39.636C211.26 39.1477 211.186 38.7278 211.038 38.3762C210.889 38.0247 210.676 37.7532 210.399 37.5618C210.122 37.3704 209.792 37.2747 209.409 37.2747C209.026 37.2747 208.696 37.3704 208.418 37.5618C208.145 37.7493 207.934 38.0188 207.786 38.3704C207.641 38.7219 207.569 39.1438 207.569 39.636V39.6477C207.569 40.136 207.641 40.5579 207.786 40.9133C207.934 41.2649 208.145 41.5364 208.418 41.7278C208.696 41.9153 209.026 42.009 209.409 42.009ZM216.458 42.8469C215.809 42.8469 215.338 42.7161 215.045 42.4543C214.756 42.1926 214.612 41.761 214.612 41.1594V37.3274H213.616V36.4836H214.612V34.8489H215.667V36.4836H217.049V37.3274H215.667V40.9016C215.667 41.2727 215.737 41.5403 215.877 41.7043C216.018 41.8645 216.252 41.9446 216.581 41.9446C216.67 41.9446 216.747 41.9426 216.809 41.9387C216.875 41.9348 216.956 41.929 217.049 41.9211V42.7883C216.952 42.804 216.854 42.8176 216.756 42.8293C216.659 42.8411 216.559 42.8469 216.458 42.8469ZM218.631 42.8V33.9758H219.651V37.4329H219.745C219.905 37.0969 220.135 36.8372 220.436 36.6536C220.737 36.4661 221.12 36.3723 221.584 36.3723C222.057 36.3723 222.458 36.4641 222.786 36.6477C223.114 36.8274 223.364 37.0911 223.536 37.4387C223.708 37.7864 223.793 38.2102 223.793 38.7102V42.8H222.774V38.9563C222.774 38.386 222.653 37.9641 222.411 37.6907C222.172 37.4133 221.801 37.2747 221.297 37.2747C220.961 37.2747 220.67 37.3469 220.424 37.4915C220.178 37.636 219.987 37.8411 219.85 38.1067C219.717 38.3723 219.651 38.6907 219.651 39.0618V42.8H218.631ZM226.471 42.8586C226.264 42.8586 226.084 42.7844 225.932 42.636C225.784 42.4836 225.709 42.304 225.709 42.0969C225.709 41.886 225.784 41.7063 225.932 41.5579C226.084 41.4094 226.264 41.3352 226.471 41.3352C226.682 41.3352 226.862 41.4094 227.01 41.5579C227.159 41.7063 227.233 41.886 227.233 42.0969C227.233 42.304 227.159 42.4836 227.01 42.636C226.862 42.7844 226.682 42.8586 226.471 42.8586ZM226.471 38.3235C226.264 38.3235 226.084 38.2493 225.932 38.1008C225.784 37.9485 225.709 37.7688 225.709 37.5618C225.709 37.3508 225.784 37.1711 225.932 37.0227C226.084 36.8743 226.264 36.8 226.471 36.8C226.682 36.8 226.862 36.8743 227.01 37.0227C227.159 37.1711 227.233 37.3508 227.233 37.5618C227.233 37.7688 227.159 37.9485 227.01 38.1008C226.862 38.2493 226.682 38.3235 226.471 38.3235ZM234.364 42.8L232.026 36.4836H233.104L234.833 41.6868H234.926L236.655 36.4836H237.733L235.395 42.8H234.364ZM240.581 42.9114C240.182 42.9114 239.823 42.8352 239.502 42.6829C239.186 42.5305 238.934 42.3137 238.747 42.0325C238.563 41.7512 238.471 41.4192 238.471 41.0364V41.0247C238.471 40.4622 238.67 40.0227 239.069 39.7063C239.471 39.386 240.04 39.2043 240.774 39.1614L243.094 39.0208V39.8352L240.897 39.9758C240.417 40.0032 240.065 40.1028 239.842 40.2747C239.624 40.4465 239.514 40.6887 239.514 41.0012V41.0129C239.514 41.3333 239.635 41.5833 239.877 41.7629C240.12 41.9387 240.424 42.0266 240.792 42.0266C241.139 42.0266 241.448 41.9583 241.717 41.8215C241.987 41.6809 242.198 41.4915 242.35 41.2532C242.506 41.0149 242.584 40.7454 242.584 40.4446V38.4758C242.584 38.0852 242.465 37.7883 242.227 37.5852C241.993 37.3782 241.639 37.2747 241.167 37.2747C240.788 37.2747 240.477 37.343 240.235 37.4797C239.993 37.6125 239.831 37.802 239.749 38.0481L239.743 38.0657H238.723L238.729 38.0305C238.784 37.6985 238.92 37.4094 239.139 37.1633C239.362 36.9133 239.649 36.72 240 36.5833C240.352 36.4426 240.752 36.3723 241.202 36.3723C241.717 36.3723 242.153 36.4563 242.508 36.6243C242.868 36.7922 243.139 37.0344 243.323 37.3508C243.51 37.6633 243.604 38.0383 243.604 38.4758V42.8H242.584V41.8684H242.491C242.358 42.0911 242.196 42.2805 242.004 42.4368C241.817 42.593 241.604 42.7122 241.366 42.7942C241.127 42.8723 240.866 42.9114 240.581 42.9114ZM245.467 42.8V36.4836H246.487V37.4211H246.581C246.702 37.0891 246.907 36.8313 247.196 36.6477C247.485 36.4641 247.842 36.3723 248.268 36.3723C248.366 36.3723 248.461 36.3782 248.555 36.3899C248.653 36.3977 248.727 36.4055 248.778 36.4133V37.4036C248.672 37.384 248.569 37.3704 248.467 37.3625C248.37 37.3508 248.264 37.345 248.151 37.345C247.827 37.345 247.54 37.4094 247.29 37.5383C247.04 37.6672 246.842 37.8469 246.698 38.0774C246.557 38.3079 246.487 38.5774 246.487 38.886V42.8H245.467ZM252.17 44.9094C251.792 44.4055 251.479 43.8704 251.233 43.304C250.987 42.7375 250.803 42.134 250.682 41.4934C250.565 40.8528 250.506 40.1692 250.506 39.4426C250.506 38.7161 250.565 38.0344 250.682 37.3977C250.799 36.7571 250.981 36.1536 251.227 35.5872C251.473 35.0168 251.788 34.4797 252.17 33.9758H253.026C252.815 34.2454 252.618 34.5852 252.434 34.9954C252.254 35.4055 252.098 35.8586 251.965 36.3547C251.833 36.8469 251.729 37.3586 251.655 37.8899C251.581 38.4172 251.543 38.9348 251.543 39.4426C251.543 39.9543 251.581 40.4758 251.655 41.0071C251.729 41.5344 251.833 42.0461 251.965 42.5422C252.098 43.0344 252.254 43.4836 252.434 43.8899C252.618 44.3 252.815 44.6399 253.026 44.9094H252.17ZM254.532 39.8704V38.9211H258.469V39.8704H254.532ZM260.192 39.8704V38.9211H264.129V39.8704H260.192ZM268.272 42.9114C267.741 42.9114 267.276 42.7766 266.877 42.5071C266.479 42.2375 266.17 41.8586 265.952 41.3704C265.733 40.8782 265.624 40.304 265.624 39.6477V39.636C265.624 38.9758 265.733 38.4016 265.952 37.9133C266.17 37.425 266.477 37.0461 266.872 36.7766C267.27 36.5071 267.737 36.3723 268.272 36.3723C268.706 36.3723 269.098 36.4739 269.45 36.677C269.805 36.8762 270.069 37.1438 270.241 37.4797H270.334V33.9758H271.354V42.8H270.334V41.7922H270.241C270.049 42.1438 269.784 42.4192 269.444 42.6184C269.104 42.8137 268.713 42.9114 268.272 42.9114ZM268.506 42.009C268.889 42.009 269.219 41.9133 269.497 41.7219C269.774 41.5305 269.987 41.259 270.135 40.9075C270.284 40.552 270.358 40.1321 270.358 39.6477V39.636C270.358 39.1477 270.284 38.7278 270.135 38.3762C269.987 38.0247 269.774 37.7532 269.497 37.5618C269.219 37.3704 268.889 37.2747 268.506 37.2747C268.124 37.2747 267.793 37.3704 267.516 37.5618C267.243 37.7493 267.032 38.0188 266.883 38.3704C266.739 38.7219 266.667 39.1438 266.667 39.636V39.6477C266.667 40.136 266.739 40.5579 266.883 40.9133C267.032 41.2649 267.243 41.5364 267.516 41.7278C267.793 41.9153 268.124 42.009 268.506 42.009ZM275.555 42.8469C274.907 42.8469 274.436 42.7161 274.143 42.4543C273.854 42.1926 273.709 41.761 273.709 41.1594V37.3274H272.713V36.4836H273.709V34.8489H274.764V36.4836H276.147V37.3274H274.764V40.9016C274.764 41.2727 274.834 41.5403 274.975 41.7043C275.116 41.8645 275.35 41.9446 275.678 41.9446C275.768 41.9446 275.844 41.9426 275.907 41.9387C275.973 41.9348 276.053 41.929 276.147 41.9211V42.7883C276.049 42.804 275.952 42.8176 275.854 42.8293C275.756 42.8411 275.657 42.8469 275.555 42.8469ZM277.348 39.8704V38.9211H281.286V39.8704H277.348ZM285.264 42.9114C284.795 42.9114 284.381 42.8411 284.022 42.7004C283.663 42.5559 283.374 42.3547 283.155 42.0969C282.94 41.8391 282.813 41.5364 282.774 41.1887H283.817C283.903 41.4504 284.071 41.6614 284.321 41.8215C284.571 41.9817 284.897 42.0618 285.299 42.0618C285.584 42.0618 285.834 42.0208 286.049 41.9387C286.268 41.8528 286.44 41.7375 286.565 41.593C286.69 41.4446 286.752 41.2747 286.752 41.0833V41.0715C286.752 40.8567 286.667 40.675 286.495 40.5266C286.323 40.3743 286.042 40.2512 285.651 40.1575L284.672 39.9231C284.083 39.7825 283.649 39.5774 283.372 39.3079C283.094 39.0344 282.956 38.6711 282.956 38.218V38.2122C282.956 37.8606 283.057 37.5461 283.26 37.2688C283.467 36.9915 283.749 36.7727 284.104 36.6125C284.459 36.4524 284.86 36.3723 285.305 36.3723C285.747 36.3723 286.137 36.4426 286.477 36.5833C286.821 36.72 287.096 36.9153 287.303 37.1692C287.514 37.4231 287.643 37.7219 287.69 38.0657H286.688C286.622 37.8157 286.469 37.6125 286.231 37.4563C285.993 37.3 285.682 37.2219 285.299 37.2219C285.049 37.2219 284.827 37.2629 284.631 37.345C284.436 37.4231 284.282 37.5325 284.168 37.6731C284.055 37.8137 283.999 37.9778 283.999 38.1653V38.177C283.999 38.3918 284.083 38.5696 284.25 38.7102C284.418 38.8508 284.688 38.9661 285.059 39.0559L286.032 39.2903C286.625 39.4348 287.067 39.6418 287.356 39.9114C287.649 40.1809 287.795 40.5422 287.795 40.9954V41.0071C287.795 41.3821 287.684 41.7141 287.461 42.0032C287.239 42.2883 286.936 42.511 286.553 42.6711C286.174 42.8313 285.745 42.9114 285.264 42.9114ZM289.401 42.8V36.4836H290.42V42.8H289.401ZM289.917 35.2649C289.725 35.2649 289.559 35.1965 289.418 35.0598C289.282 34.9192 289.213 34.7532 289.213 34.5618C289.213 34.3665 289.282 34.2004 289.418 34.0637C289.559 33.927 289.725 33.8586 289.917 33.8586C290.112 33.8586 290.278 33.927 290.415 34.0637C290.551 34.2004 290.62 34.3665 290.62 34.5618C290.62 34.7532 290.551 34.9192 290.415 35.0598C290.278 35.1965 290.112 35.2649 289.917 35.2649ZM292.196 42.8V42.0618L295.84 37.4211V37.3274H292.202V36.4836H297.042V37.2395L293.415 41.8625V41.9563H297.059V42.8H292.196ZM301.213 42.9114C300.612 42.9114 300.094 42.7786 299.661 42.5129C299.231 42.2473 298.899 41.8723 298.665 41.3879C298.434 40.8997 298.319 40.3254 298.319 39.6653V39.6594C298.319 39.0071 298.434 38.4348 298.665 37.9426C298.899 37.4504 299.229 37.0657 299.655 36.7883C300.081 36.511 300.579 36.3723 301.149 36.3723C301.723 36.3723 302.215 36.5051 302.625 36.7708C303.04 37.0364 303.356 37.4075 303.575 37.884C303.797 38.3567 303.909 38.9075 303.909 39.5364V39.9348H298.846V39.1204H303.387L302.883 39.8645V39.4602C302.883 38.9641 302.809 38.5559 302.661 38.2356C302.512 37.9153 302.307 37.677 302.045 37.5208C301.784 37.3606 301.483 37.2805 301.143 37.2805C300.803 37.2805 300.499 37.3645 300.229 37.5325C299.963 37.6965 299.752 37.9407 299.596 38.2649C299.44 38.5891 299.362 38.9875 299.362 39.4602V39.8645C299.362 40.3137 299.438 40.6985 299.59 41.0188C299.743 41.3352 299.959 41.5793 300.241 41.7512C300.522 41.9192 300.854 42.0032 301.237 42.0032C301.522 42.0032 301.77 41.9641 301.981 41.886C302.192 41.8079 302.366 41.7083 302.502 41.5872C302.639 41.4661 302.735 41.343 302.79 41.218L302.813 41.1653H303.833L303.821 41.2122C303.766 41.427 303.668 41.636 303.528 41.8391C303.391 42.0383 303.213 42.22 302.995 42.384C302.776 42.5442 302.516 42.6731 302.215 42.7708C301.918 42.8645 301.584 42.9114 301.213 42.9114ZM305.403 39.8704V38.9211H309.34V39.8704H305.403ZM314.034 42.9407C313.436 42.9407 312.907 42.8372 312.446 42.6301C311.985 42.4231 311.622 42.1379 311.356 41.7747C311.094 41.4075 310.963 40.9875 310.963 40.5149V40.5032C310.963 40.1555 311.04 39.8333 311.192 39.5364C311.344 39.2395 311.557 38.9875 311.831 38.7805C312.104 38.5696 312.42 38.4231 312.78 38.3411V38.3176C312.319 38.1731 311.952 37.9348 311.678 37.6028C311.405 37.2708 311.268 36.8821 311.268 36.4368V36.425C311.268 35.9993 311.387 35.6204 311.625 35.2883C311.864 34.9524 312.192 34.6887 312.61 34.4973C313.028 34.302 313.502 34.2043 314.034 34.2043C314.569 34.2043 315.043 34.302 315.458 34.4973C315.875 34.6887 316.204 34.9524 316.442 35.2883C316.68 35.6204 316.799 35.9993 316.799 36.425V36.4368C316.799 36.8821 316.663 37.2708 316.389 37.6028C316.12 37.9348 315.752 38.1731 315.288 38.3176V38.3411C315.651 38.4231 315.967 38.5696 316.237 38.7805C316.51 38.9875 316.723 39.2395 316.875 39.5364C317.028 39.8333 317.104 40.1555 317.104 40.5032V40.5149C317.104 40.9875 316.973 41.4075 316.711 41.7747C316.45 42.1379 316.086 42.4231 315.622 42.6301C315.161 42.8372 314.631 42.9407 314.034 42.9407ZM314.034 42.0208C314.424 42.0208 314.768 41.9543 315.065 41.8215C315.366 41.6848 315.602 41.4993 315.774 41.2649C315.946 41.0266 316.032 40.7551 316.032 40.4504V40.4387C316.032 40.1301 315.946 39.8567 315.774 39.6184C315.606 39.3801 315.372 39.1926 315.071 39.0559C314.77 38.9192 314.424 38.8508 314.034 38.8508C313.643 38.8508 313.297 38.9192 312.997 39.0559C312.696 39.1926 312.459 39.3801 312.288 39.6184C312.12 39.8567 312.036 40.1301 312.036 40.4387V40.4504C312.036 40.7551 312.122 41.0266 312.293 41.2649C312.465 41.4993 312.702 41.6848 313.002 41.8215C313.303 41.9543 313.647 42.0208 314.034 42.0208ZM314.034 37.925C314.374 37.925 314.672 37.8665 314.93 37.7493C315.188 37.6282 315.389 37.4622 315.534 37.2512C315.678 37.0403 315.75 36.7981 315.75 36.5247V36.5129C315.75 36.2395 315.678 35.9973 315.534 35.7864C315.389 35.5754 315.188 35.4114 314.93 35.2942C314.672 35.1731 314.374 35.1125 314.034 35.1125C313.694 35.1125 313.395 35.1731 313.137 35.2942C312.879 35.4114 312.678 35.5754 312.534 35.7864C312.389 35.9973 312.317 36.2395 312.317 36.5129V36.5247C312.317 36.7981 312.389 37.0403 312.534 37.2512C312.678 37.4622 312.879 37.6282 313.137 37.7493C313.395 37.8665 313.694 37.925 314.034 37.925ZM321.639 42.9993C321.014 42.9993 320.479 42.8196 320.034 42.4602C319.592 42.1008 319.252 41.5911 319.014 40.9309C318.776 40.2668 318.657 39.4817 318.657 38.5754V38.5637C318.657 37.6575 318.776 36.8743 319.014 36.2141C319.252 35.554 319.592 35.0442 320.034 34.6848C320.479 34.3254 321.014 34.1458 321.639 34.1458C322.264 34.1458 322.799 34.3254 323.245 34.6848C323.69 35.0442 324.032 35.554 324.27 36.2141C324.512 36.8743 324.633 37.6575 324.633 38.5637V38.5754C324.633 39.4817 324.512 40.2668 324.27 40.9309C324.032 41.5911 323.69 42.1008 323.245 42.4602C322.799 42.8196 322.264 42.9993 321.639 42.9993ZM321.639 42.0793C322.045 42.0793 322.391 41.9368 322.676 41.6516C322.965 41.3665 323.186 40.9622 323.338 40.4387C323.495 39.9153 323.573 39.2942 323.573 38.5754V38.5637C323.573 37.845 323.495 37.2258 323.338 36.7063C323.186 36.1829 322.965 35.7805 322.676 35.4993C322.391 35.2141 322.045 35.0715 321.639 35.0715C321.237 35.0715 320.891 35.2141 320.602 35.4993C320.317 35.7805 320.098 36.1829 319.946 36.7063C319.793 37.2258 319.717 37.845 319.717 38.5637V38.5754C319.717 39.2942 319.793 39.9153 319.946 40.4387C320.098 40.9622 320.317 41.3665 320.602 41.6516C320.891 41.9368 321.237 42.0793 321.639 42.0793ZM329.198 42.9993C328.573 42.9993 328.038 42.8196 327.592 42.4602C327.151 42.1008 326.811 41.5911 326.573 40.9309C326.334 40.2668 326.215 39.4817 326.215 38.5754V38.5637C326.215 37.6575 326.334 36.8743 326.573 36.2141C326.811 35.554 327.151 35.0442 327.592 34.6848C328.038 34.3254 328.573 34.1458 329.198 34.1458C329.823 34.1458 330.358 34.3254 330.803 34.6848C331.249 35.0442 331.59 35.554 331.829 36.2141C332.071 36.8743 332.192 37.6575 332.192 38.5637V38.5754C332.192 39.4817 332.071 40.2668 331.829 40.9309C331.59 41.5911 331.249 42.1008 330.803 42.4602C330.358 42.8196 329.823 42.9993 329.198 42.9993ZM329.198 42.0793C329.604 42.0793 329.95 41.9368 330.235 41.6516C330.524 41.3665 330.745 40.9622 330.897 40.4387C331.053 39.9153 331.131 39.2942 331.131 38.5754V38.5637C331.131 37.845 331.053 37.2258 330.897 36.7063C330.745 36.1829 330.524 35.7805 330.235 35.4993C329.95 35.2141 329.604 35.0715 329.198 35.0715C328.795 35.0715 328.45 35.2141 328.161 35.4993C327.875 35.7805 327.657 36.1829 327.504 36.7063C327.352 37.2258 327.276 37.845 327.276 38.5637V38.5754C327.276 39.2942 327.352 39.9153 327.504 40.4387C327.657 40.9622 327.875 41.3665 328.161 41.6516C328.45 41.9368 328.795 42.0793 329.198 42.0793ZM334.483 44.9094H333.627C333.838 44.6399 334.034 44.3 334.213 43.8899C334.397 43.4836 334.555 43.0344 334.688 42.5422C334.821 42.0461 334.924 41.5344 334.999 41.0071C335.073 40.4758 335.11 39.9543 335.11 39.4426C335.11 38.9348 335.073 38.4172 334.999 37.8899C334.924 37.3586 334.821 36.8469 334.688 36.3547C334.555 35.8586 334.397 35.4055 334.213 34.9954C334.034 34.5852 333.838 34.2454 333.627 33.9758H334.483C334.866 34.4797 335.18 35.0168 335.426 35.5872C335.672 36.1536 335.854 36.7571 335.971 37.3977C336.088 38.0344 336.147 38.7161 336.147 39.4426C336.147 40.1692 336.086 40.8528 335.965 41.4934C335.848 42.134 335.667 42.7375 335.42 43.304C335.178 43.8704 334.866 44.4055 334.483 44.9094Z" fill="white"/>
<path d="M355 38.64C355 35.6157 355 34.1036 355.589 32.9485C356.106 31.9324 356.932 31.1063 357.948 30.5886C359.104 30 360.616 30 363.64 30H506.2V42.84C506.2 44.8562 506.2 45.8643 505.808 46.6344C505.462 47.3117 504.912 47.8625 504.234 48.2076C503.464 48.6 502.456 48.6 500.44 48.6H355V38.64Z" fill="#7C52FF"/>
<path d="M360.874 42.8L359.104 36.4836H360.124L361.366 41.5344H361.459L362.872 36.4836H363.838L365.25 41.5344H365.344L366.586 36.4836H367.6L365.831 42.8H364.805L363.393 37.9133H363.299L361.893 42.8H360.874ZM368.971 42.8V36.4836H369.991V42.8H368.971ZM369.487 35.2649C369.295 35.2649 369.129 35.1965 368.989 35.0598C368.852 34.9192 368.784 34.7532 368.784 34.5618C368.784 34.3665 368.852 34.2004 368.989 34.0637C369.129 33.927 369.295 33.8586 369.487 33.8586C369.682 33.8586 369.848 33.927 369.985 34.0637C370.122 34.2004 370.19 34.3665 370.19 34.5618C370.19 34.7532 370.122 34.9192 369.985 35.0598C369.848 35.1965 369.682 35.2649 369.487 35.2649ZM374.245 42.9114C373.713 42.9114 373.249 42.7766 372.85 42.5071C372.452 42.2375 372.143 41.8586 371.924 41.3704C371.706 40.8782 371.596 40.304 371.596 39.6477V39.636C371.596 38.9758 371.706 38.4016 371.924 37.9133C372.143 37.425 372.45 37.0461 372.844 36.7766C373.243 36.5071 373.709 36.3723 374.245 36.3723C374.678 36.3723 375.071 36.4739 375.422 36.677C375.778 36.8762 376.042 37.1438 376.213 37.4797H376.307V33.9758H377.327V42.8H376.307V41.7922H376.213C376.022 42.1438 375.756 42.4192 375.417 42.6184C375.077 42.8137 374.686 42.9114 374.245 42.9114ZM374.479 42.009C374.862 42.009 375.192 41.9133 375.469 41.7219C375.747 41.5305 375.959 41.259 376.108 40.9075C376.256 40.552 376.331 40.1321 376.331 39.6477V39.636C376.331 39.1477 376.256 38.7278 376.108 38.3762C375.959 38.0247 375.747 37.7532 375.469 37.5618C375.192 37.3704 374.862 37.2747 374.479 37.2747C374.096 37.2747 373.766 37.3704 373.489 37.5618C373.215 37.7493 373.004 38.0188 372.856 38.3704C372.711 38.7219 372.639 39.1438 372.639 39.636V39.6477C372.639 40.136 372.711 40.5579 372.856 40.9133C373.004 41.2649 373.215 41.5364 373.489 41.7278C373.766 41.9153 374.096 42.009 374.479 42.009ZM381.528 42.8469C380.879 42.8469 380.409 42.7161 380.116 42.4543C379.827 42.1926 379.682 41.761 379.682 41.1594V37.3274H378.686V36.4836H379.682V34.8489H380.737V36.4836H382.12V37.3274H380.737V40.9016C380.737 41.2727 380.807 41.5403 380.948 41.7043C381.088 41.8645 381.323 41.9446 381.651 41.9446C381.741 41.9446 381.817 41.9426 381.879 41.9387C381.946 41.9348 382.026 41.929 382.12 41.9211V42.7883C382.022 42.804 381.924 42.8176 381.827 42.8293C381.729 42.8411 381.629 42.8469 381.528 42.8469ZM383.702 42.8V33.9758H384.721V37.4329H384.815C384.975 37.0969 385.206 36.8372 385.506 36.6536C385.807 36.4661 386.19 36.3723 386.655 36.3723C387.127 36.3723 387.528 36.4641 387.856 36.6477C388.184 36.8274 388.434 37.0911 388.606 37.4387C388.778 37.7864 388.864 38.2102 388.864 38.7102V42.8H387.844V38.9563C387.844 38.386 387.723 37.9641 387.481 37.6907C387.243 37.4133 386.872 37.2747 386.368 37.2747C386.032 37.2747 385.741 37.3469 385.495 37.4915C385.249 37.636 385.057 37.8411 384.92 38.1067C384.788 38.3723 384.721 38.6907 384.721 39.0618V42.8H383.702ZM391.542 42.8586C391.334 42.8586 391.155 42.7844 391.002 42.636C390.854 42.4836 390.78 42.304 390.78 42.0969C390.78 41.886 390.854 41.7063 391.002 41.5579C391.155 41.4094 391.334 41.3352 391.542 41.3352C391.752 41.3352 391.932 41.4094 392.081 41.5579C392.229 41.7063 392.303 41.886 392.303 42.0969C392.303 42.304 392.229 42.4836 392.081 42.636C391.932 42.7844 391.752 42.8586 391.542 42.8586ZM391.542 38.3235C391.334 38.3235 391.155 38.2493 391.002 38.1008C390.854 37.9485 390.78 37.7688 390.78 37.5618C390.78 37.3508 390.854 37.1711 391.002 37.0227C391.155 36.8743 391.334 36.8 391.542 36.8C391.752 36.8 391.932 36.8743 392.081 37.0227C392.229 37.1711 392.303 37.3508 392.303 37.5618C392.303 37.7688 392.229 37.9485 392.081 38.1008C391.932 38.2493 391.752 38.3235 391.542 38.3235ZM399.434 42.8L397.096 36.4836H398.174L399.903 41.6868H399.997L401.725 36.4836H402.803L400.465 42.8H399.434ZM405.651 42.9114C405.252 42.9114 404.893 42.8352 404.573 42.6829C404.256 42.5305 404.004 42.3137 403.817 42.0325C403.633 41.7512 403.542 41.4192 403.542 41.0364V41.0247C403.542 40.4622 403.741 40.0227 404.139 39.7063C404.542 39.386 405.11 39.2043 405.844 39.1614L408.165 39.0208V39.8352L405.967 39.9758C405.487 40.0032 405.135 40.1028 404.913 40.2747C404.694 40.4465 404.584 40.6887 404.584 41.0012V41.0129C404.584 41.3333 404.706 41.5833 404.948 41.7629C405.19 41.9387 405.495 42.0266 405.862 42.0266C406.209 42.0266 406.518 41.9583 406.788 41.8215C407.057 41.6809 407.268 41.4915 407.42 41.2532C407.577 41.0149 407.655 40.7454 407.655 40.4446V38.4758C407.655 38.0852 407.536 37.7883 407.297 37.5852C407.063 37.3782 406.709 37.2747 406.237 37.2747C405.858 37.2747 405.547 37.343 405.305 37.4797C405.063 37.6125 404.901 37.802 404.819 38.0481L404.813 38.0657H403.793L403.799 38.0305C403.854 37.6985 403.991 37.4094 404.209 37.1633C404.432 36.9133 404.719 36.72 405.071 36.5833C405.422 36.4426 405.823 36.3723 406.272 36.3723C406.788 36.3723 407.223 36.4563 407.579 36.6243C407.938 36.7922 408.209 37.0344 408.393 37.3508C408.581 37.6633 408.674 38.0383 408.674 38.4758V42.8H407.655V41.8684H407.561C407.428 42.0911 407.266 42.2805 407.075 42.4368C406.887 42.593 406.674 42.7122 406.436 42.7942C406.198 42.8723 405.936 42.9114 405.651 42.9114ZM410.538 42.8V36.4836H411.557V37.4211H411.651C411.772 37.0891 411.977 36.8313 412.266 36.6477C412.555 36.4641 412.913 36.3723 413.338 36.3723C413.436 36.3723 413.532 36.3782 413.625 36.3899C413.723 36.3977 413.797 36.4055 413.848 36.4133V37.4036C413.743 37.384 413.639 37.3704 413.538 37.3625C413.44 37.3508 413.334 37.345 413.221 37.345C412.897 37.345 412.61 37.4094 412.36 37.5383C412.11 37.6672 411.913 37.8469 411.768 38.0774C411.627 38.3079 411.557 38.5774 411.557 38.886V42.8H410.538ZM417.241 44.9094C416.862 44.4055 416.549 43.8704 416.303 43.304C416.057 42.7375 415.874 42.134 415.752 41.4934C415.635 40.8528 415.577 40.1692 415.577 39.4426C415.577 38.7161 415.635 38.0344 415.752 37.3977C415.87 36.7571 416.051 36.1536 416.297 35.5872C416.543 35.0168 416.858 34.4797 417.241 33.9758H418.096C417.885 34.2454 417.688 34.5852 417.504 34.9954C417.325 35.4055 417.168 35.8586 417.036 36.3547C416.903 36.8469 416.799 37.3586 416.725 37.8899C416.651 38.4172 416.614 38.9348 416.614 39.4426C416.614 39.9543 416.651 40.4758 416.725 41.0071C416.799 41.5344 416.903 42.0461 417.036 42.5422C417.168 43.0344 417.325 43.4836 417.504 43.8899C417.688 44.3 417.885 44.6399 418.096 44.9094H417.241ZM419.602 39.8704V38.9211H423.54V39.8704H419.602ZM425.262 39.8704V38.9211H429.2V39.8704H425.262ZM433.342 42.9114C432.811 42.9114 432.346 42.7766 431.948 42.5071C431.549 42.2375 431.241 41.8586 431.022 41.3704C430.803 40.8782 430.694 40.304 430.694 39.6477V39.636C430.694 38.9758 430.803 38.4016 431.022 37.9133C431.241 37.425 431.547 37.0461 431.942 36.7766C432.34 36.5071 432.807 36.3723 433.342 36.3723C433.776 36.3723 434.168 36.4739 434.52 36.677C434.875 36.8762 435.139 37.1438 435.311 37.4797H435.405V33.9758H436.424V42.8H435.405V41.7922H435.311C435.12 42.1438 434.854 42.4192 434.514 42.6184C434.174 42.8137 433.784 42.9114 433.342 42.9114ZM433.577 42.009C433.959 42.009 434.29 41.9133 434.567 41.7219C434.844 41.5305 435.057 41.259 435.206 40.9075C435.354 40.552 435.428 40.1321 435.428 39.6477V39.636C435.428 39.1477 435.354 38.7278 435.206 38.3762C435.057 38.0247 434.844 37.7532 434.567 37.5618C434.29 37.3704 433.959 37.2747 433.577 37.2747C433.194 37.2747 432.864 37.3704 432.586 37.5618C432.313 37.7493 432.102 38.0188 431.954 38.3704C431.809 38.7219 431.737 39.1438 431.737 39.636V39.6477C431.737 40.136 431.809 40.5579 431.954 40.9133C432.102 41.2649 432.313 41.5364 432.586 41.7278C432.864 41.9153 433.194 42.009 433.577 42.009ZM440.625 42.8469C439.977 42.8469 439.506 42.7161 439.213 42.4543C438.924 42.1926 438.78 41.761 438.78 41.1594V37.3274H437.784V36.4836H438.78V34.8489H439.834V36.4836H441.217V37.3274H439.834V40.9016C439.834 41.2727 439.905 41.5403 440.045 41.7043C440.186 41.8645 440.42 41.9446 440.749 41.9446C440.838 41.9446 440.915 41.9426 440.977 41.9387C441.043 41.9348 441.124 41.929 441.217 41.9211V42.7883C441.12 42.804 441.022 42.8176 440.924 42.8293C440.827 42.8411 440.727 42.8469 440.625 42.8469ZM442.418 39.8704V38.9211H446.356V39.8704H442.418ZM450.334 42.9114C449.866 42.9114 449.452 42.8411 449.092 42.7004C448.733 42.5559 448.444 42.3547 448.225 42.0969C448.01 41.8391 447.883 41.5364 447.844 41.1887H448.887C448.973 41.4504 449.141 41.6614 449.391 41.8215C449.641 41.9817 449.967 42.0618 450.37 42.0618C450.655 42.0618 450.905 42.0208 451.12 41.9387C451.338 41.8528 451.51 41.7375 451.635 41.593C451.76 41.4446 451.823 41.2747 451.823 41.0833V41.0715C451.823 40.8567 451.737 40.675 451.565 40.5266C451.393 40.3743 451.112 40.2512 450.721 40.1575L449.743 39.9231C449.153 39.7825 448.719 39.5774 448.442 39.3079C448.165 39.0344 448.026 38.6711 448.026 38.218V38.2122C448.026 37.8606 448.127 37.5461 448.331 37.2688C448.538 36.9915 448.819 36.7727 449.174 36.6125C449.53 36.4524 449.93 36.3723 450.375 36.3723C450.817 36.3723 451.208 36.4426 451.547 36.5833C451.891 36.72 452.167 36.9153 452.374 37.1692C452.584 37.4231 452.713 37.7219 452.76 38.0657H451.758C451.692 37.8157 451.54 37.6125 451.301 37.4563C451.063 37.3 450.752 37.2219 450.37 37.2219C450.12 37.2219 449.897 37.2629 449.702 37.345C449.506 37.4231 449.352 37.5325 449.239 37.6731C449.125 37.8137 449.069 37.9778 449.069 38.1653V38.177C449.069 38.3918 449.153 38.5696 449.321 38.7102C449.489 38.8508 449.758 38.9661 450.129 39.0559L451.102 39.2903C451.696 39.4348 452.137 39.6418 452.426 39.9114C452.719 40.1809 452.866 40.5422 452.866 40.9954V41.0071C452.866 41.3821 452.754 41.7141 452.532 42.0032C452.309 42.2883 452.006 42.511 451.624 42.6711C451.245 42.8313 450.815 42.9114 450.334 42.9114ZM454.471 42.8V36.4836H455.491V42.8H454.471ZM454.987 35.2649C454.795 35.2649 454.629 35.1965 454.489 35.0598C454.352 34.9192 454.284 34.7532 454.284 34.5618C454.284 34.3665 454.352 34.2004 454.489 34.0637C454.629 33.927 454.795 33.8586 454.987 33.8586C455.182 33.8586 455.348 33.927 455.485 34.0637C455.622 34.2004 455.69 34.3665 455.69 34.5618C455.69 34.7532 455.622 34.9192 455.485 35.0598C455.348 35.1965 455.182 35.2649 454.987 35.2649ZM457.266 42.8V42.0618L460.911 37.4211V37.3274H457.272V36.4836H462.112V37.2395L458.485 41.8625V41.9563H462.129V42.8H457.266ZM466.284 42.9114C465.682 42.9114 465.165 42.7786 464.731 42.5129C464.301 42.2473 463.969 41.8723 463.735 41.3879C463.504 40.8997 463.389 40.3254 463.389 39.6653V39.6594C463.389 39.0071 463.504 38.4348 463.735 37.9426C463.969 37.4504 464.299 37.0657 464.725 36.7883C465.151 36.511 465.649 36.3723 466.219 36.3723C466.793 36.3723 467.286 36.5051 467.696 36.7708C468.11 37.0364 468.426 37.4075 468.645 37.884C468.868 38.3567 468.979 38.9075 468.979 39.5364V39.9348H463.917V39.1204H468.458L467.954 39.8645V39.4602C467.954 38.9641 467.879 38.5559 467.731 38.2356C467.583 37.9153 467.377 37.677 467.116 37.5208C466.854 37.3606 466.553 37.2805 466.213 37.2805C465.874 37.2805 465.569 37.3645 465.299 37.5325C465.034 37.6965 464.823 37.9407 464.667 38.2649C464.51 38.5891 464.432 38.9875 464.432 39.4602V39.8645C464.432 40.3137 464.508 40.6985 464.661 41.0188C464.813 41.3352 465.03 41.5793 465.311 41.7512C465.592 41.9192 465.924 42.0032 466.307 42.0032C466.592 42.0032 466.84 41.9641 467.051 41.886C467.262 41.8079 467.436 41.7083 467.573 41.5872C467.709 41.4661 467.805 41.343 467.86 41.218L467.883 41.1653H468.903L468.891 41.2122C468.836 41.427 468.739 41.636 468.598 41.8391C468.461 42.0383 468.284 42.22 468.065 42.384C467.846 42.5442 467.586 42.6731 467.286 42.7708C466.989 42.8645 466.655 42.9114 466.284 42.9114ZM470.473 39.8704V38.9211H474.411V39.8704H470.473ZM479.092 42.9407C478.51 42.9407 478.002 42.8411 477.569 42.6418C477.135 42.4426 476.792 42.1692 476.538 41.8215C476.288 41.4739 476.143 41.0774 476.104 40.6321L476.098 40.5618H477.112L477.118 40.6204C477.161 41.0344 477.36 41.3723 477.715 41.634C478.071 41.8958 478.53 42.0266 479.092 42.0266C479.463 42.0266 479.788 41.9622 480.065 41.8333C480.346 41.7043 480.565 41.5266 480.721 41.3C480.877 41.0696 480.956 40.8059 480.956 40.509V40.4973C480.956 39.9778 480.782 39.5793 480.434 39.302C480.09 39.0208 479.622 38.8801 479.028 38.8801H477.967V37.9895H478.981C479.317 37.9895 479.614 37.927 479.872 37.802C480.129 37.6731 480.331 37.4993 480.475 37.2805C480.62 37.0579 480.692 36.8059 480.692 36.5247V36.5129C480.692 36.2161 480.629 35.9641 480.504 35.7571C480.379 35.55 480.196 35.3918 479.954 35.2825C479.715 35.1731 479.424 35.1184 479.081 35.1184C478.749 35.1184 478.452 35.175 478.19 35.2883C477.932 35.3977 477.725 35.5559 477.569 35.7629C477.413 35.97 477.319 36.2161 477.288 36.5012L477.282 36.5598H476.268L476.274 36.5012C476.321 36.0403 476.465 35.6379 476.708 35.2942C476.954 34.9504 477.278 34.6829 477.68 34.4915C478.086 34.3 478.553 34.2043 479.081 34.2043C479.62 34.2043 480.088 34.2981 480.487 34.4856C480.889 34.6692 481.2 34.925 481.418 35.2532C481.641 35.5774 481.752 35.9543 481.752 36.384V36.3958C481.752 36.7434 481.676 37.052 481.524 37.3215C481.372 37.5911 481.161 37.8157 480.891 37.9954C480.622 38.175 480.311 38.302 479.959 38.3762V38.3997C480.577 38.4504 481.075 38.6594 481.454 39.0266C481.836 39.3899 482.028 39.8723 482.028 40.4739V40.4856C482.028 40.9543 481.901 41.3743 481.647 41.7454C481.393 42.1165 481.045 42.4094 480.604 42.6243C480.163 42.8352 479.659 42.9407 479.092 42.9407ZM486.569 42.9993C485.944 42.9993 485.409 42.8196 484.963 42.4602C484.522 42.1008 484.182 41.5911 483.944 40.9309C483.706 40.2668 483.586 39.4817 483.586 38.5754V38.5637C483.586 37.6575 483.706 36.8743 483.944 36.2141C484.182 35.554 484.522 35.0442 484.963 34.6848C485.409 34.3254 485.944 34.1458 486.569 34.1458C487.194 34.1458 487.729 34.3254 488.174 34.6848C488.62 35.0442 488.961 35.554 489.2 36.2141C489.442 36.8743 489.563 37.6575 489.563 38.5637V38.5754C489.563 39.4817 489.442 40.2668 489.2 40.9309C488.961 41.5911 488.62 42.1008 488.174 42.4602C487.729 42.8196 487.194 42.9993 486.569 42.9993ZM486.569 42.0793C486.975 42.0793 487.321 41.9368 487.606 41.6516C487.895 41.3665 488.116 40.9622 488.268 40.4387C488.424 39.9153 488.502 39.2942 488.502 38.5754V38.5637C488.502 37.845 488.424 37.2258 488.268 36.7063C488.116 36.1829 487.895 35.7805 487.606 35.4993C487.321 35.2141 486.975 35.0715 486.569 35.0715C486.167 35.0715 485.821 35.2141 485.532 35.4993C485.247 35.7805 485.028 36.1829 484.875 36.7063C484.723 37.2258 484.647 37.845 484.647 38.5637V38.5754C484.647 39.2942 484.723 39.9153 484.875 40.4387C485.028 40.9622 485.247 41.3665 485.532 41.6516C485.821 41.9368 486.167 42.0793 486.569 42.0793ZM494.127 42.9993C493.502 42.9993 492.967 42.8196 492.522 42.4602C492.081 42.1008 491.741 41.5911 491.502 40.9309C491.264 40.2668 491.145 39.4817 491.145 38.5754V38.5637C491.145 37.6575 491.264 36.8743 491.502 36.2141C491.741 35.554 492.081 35.0442 492.522 34.6848C492.967 34.3254 493.502 34.1458 494.127 34.1458C494.752 34.1458 495.288 34.3254 495.733 34.6848C496.178 35.0442 496.52 35.554 496.758 36.2141C497 36.8743 497.122 37.6575 497.122 38.5637V38.5754C497.122 39.4817 497 40.2668 496.758 40.9309C496.52 41.5911 496.178 42.1008 495.733 42.4602C495.288 42.8196 494.752 42.9993 494.127 42.9993ZM494.127 42.0793C494.534 42.0793 494.879 41.9368 495.165 41.6516C495.454 41.3665 495.674 40.9622 495.827 40.4387C495.983 39.9153 496.061 39.2942 496.061 38.5754V38.5637C496.061 37.845 495.983 37.2258 495.827 36.7063C495.674 36.1829 495.454 35.7805 495.165 35.4993C494.879 35.2141 494.534 35.0715 494.127 35.0715C493.725 35.0715 493.379 35.2141 493.09 35.4993C492.805 35.7805 492.586 36.1829 492.434 36.7063C492.282 37.2258 492.206 37.845 492.206 38.5637V38.5754C492.206 39.2942 492.282 39.9153 492.434 40.4387C492.586 40.9622 492.805 41.3665 493.09 41.6516C493.379 41.9368 493.725 42.0793 494.127 42.0793ZM499.413 44.9094H498.557C498.768 44.6399 498.963 44.3 499.143 43.8899C499.327 43.4836 499.485 43.0344 499.618 42.5422C499.75 42.0461 499.854 41.5344 499.928 41.0071C500.002 40.4758 500.04 39.9543 500.04 39.4426C500.04 38.9348 500.002 38.4172 499.928 37.8899C499.854 37.3586 499.75 36.8469 499.618 36.3547C499.485 35.8586 499.327 35.4055 499.143 34.9954C498.963 34.5852 498.768 34.2454 498.557 33.9758H499.413C499.795 34.4797 500.11 35.0168 500.356 35.5872C500.602 36.1536 500.784 36.7571 500.901 37.3977C501.018 38.0344 501.077 38.7161 501.077 39.4426C501.077 40.1692 501.016 40.8528 500.895 41.4934C500.778 42.134 500.596 42.7375 500.35 43.304C500.108 43.8704 499.795 44.4055 499.413 44.9094Z" fill="white"/>
</g>
<rect x="0.25" y="0.25" width="745.5" height="308.511" rx="13.75" stroke="black" stroke-opacity="0.1" stroke-width="0.5"/>
<defs>
<radialGradient id="paint0_radial_2341_22904" cx="0" cy="0" r="1" gradientUnits="userSpaceOnUse" gradientTransform="translate(-7.6808e-06 0.410008) rotate(22.4998) scale(807.463 615.34)">
<stop stop-color="#AB7EFF"/>
<stop offset="0.85474" stop-color="#6EBFF4" stop-opacity="0.7"/>
<stop offset="1" stop-color="#4690D5" stop-opacity="0.5"/>
</radialGradient>
<linearGradient id="paint1_linear_2341_22904" x1="530.5" y1="-34.5" x2="456.84" y2="379.384" gradientUnits="userSpaceOnUse">
<stop offset="0.0166232" stop-color="#7C52FF" stop-opacity="0.41"/>
<stop offset="0.604167" stop-color="#D9B3FF" stop-opacity="0.09"/>
<stop offset="1" stop-color="#FEFEFE" stop-opacity="0.03"/>
</linearGradient>
<linearGradient id="paint2_linear_2341_22904" x1="371" y1="64" x2="530" y2="223" gradientUnits="userSpaceOnUse">
<stop offset="0.1" stop-color="#F9008E"/>
<stop offset="0.9" stop-color="#7C52FF"/>
</linearGradient>
<clipPath id="clip0_2341_22904">
<rect width="746" height="309.011" rx="14" fill="white"/>
</clipPath>
<clipPath id="clip1_2341_22904">
<rect width="357" height="336" fill="white" transform="translate(190 47)"/>
</clipPath>
</defs>
</svg>
