<svg width="746" height="310" viewBox="0 0 746 310" fill="none" xmlns="http://www.w3.org/2000/svg">
<rect width="746" height="309.011" rx="14" fill="white"/>
<rect width="746" height="309.011" rx="14" fill="url(#paint0_radial_2341_22875)" fill-opacity="0.16"/>
<rect x="0.25" y="0.25" width="745.5" height="308.511" rx="13.75" stroke="black" stroke-opacity="0.1" stroke-width="0.5"/>
<rect x="357.59" y="82.5498" width="249.96" height="50.16" rx="14.4" fill="white"/>
<rect x="358.13" y="83.0898" width="248.88" height="49.08" rx="13.86" stroke="black" stroke-opacity="0.1" stroke-width="1.08"/>
<rect x="374.87" y="99.8298" width="69.6" height="15.6" rx="7.8" fill="#222222" fill-opacity="0.5"/>
<rect x="453.11" y="99.8298" width="137.16" height="15.12" rx="7.56" fill="#8051FE"/>
<rect x="136.61" y="168.95" width="470.88" height="59.4" rx="14.4" fill="white"/>
<rect x="137.15" y="169.49" width="469.8" height="58.32" rx="13.86" stroke="black" stroke-opacity="0.1" stroke-width="1.08"/>
<rect x="153.891" y="191.09" width="225.72" height="15.12" rx="7.56" fill="#222222" fill-opacity="0.5"/>
<path d="M587.707 198.65H567.301M587.707 198.65L562.663 210.708L567.301 198.65M587.707 198.65L562.663 186.592L567.301 198.65" stroke="#121212" stroke-opacity="0.5" stroke-width="2.29559" stroke-linecap="round" stroke-linejoin="round"/>
<path d="M136.011 91.1902V211.07C136.011 220.945 144.016 228.95 153.891 228.95H590.211C600.086 228.95 608.091 220.945 608.091 211.07V99.8302C608.091 89.9554 600.086 81.9502 590.211 81.9502H145.251C140.148 81.9502 136.011 86.0871 136.011 91.1902ZM102.651 56.6302C102.651 52.1899 106.25 48.5902 110.691 48.5902H633.411C637.851 48.5902 641.451 52.1899 641.451 56.6302V254.27C641.451 258.711 637.851 262.31 633.411 262.31H110.691C106.25 262.31 102.651 258.711 102.651 254.27V56.6302Z" fill="#F5F0FF" stroke="#7C52FF" stroke-width="1.2"/>
<g opacity="0.24">
<path d="M102.051 113.871V112.343L136.611 146.903V148.431L102.051 113.871Z" fill="#DAC7FF"/>
<path d="M102.051 120.351V118.823L136.611 153.383V154.911L102.051 120.351Z" fill="#DAC7FF"/>
<path d="M102.051 126.831V125.303L136.611 159.863V161.399L136.156 160.944L136.16 160.94L102.051 126.831Z" fill="#DAC7FF"/>
<path d="M102.051 133.311V131.783L136.611 166.343V167.879L129.676 160.944L129.68 160.94L102.051 133.311Z" fill="#DAC7FF"/>
<path d="M102.051 139.791V138.263L136.611 172.823V174.359L123.196 160.944L123.2 160.94L102.051 139.791Z" fill="#DAC7FF"/>
<path d="M102.051 146.271V144.743L135.222 177.914L135.218 177.919L136.611 179.312V180.839L116.716 160.944L116.72 160.94L102.051 146.271Z" fill="#DAC7FF"/>
<path d="M102.051 152.751V151.223L128.742 177.914L128.738 177.919L136.611 185.792V187.319L110.236 160.944L110.24 160.94L102.051 152.751Z" fill="#DAC7FF"/>
<path d="M102.051 159.231V157.703L122.262 177.914L122.258 177.919L136.611 192.272V193.799L103.756 160.944L103.76 160.94L102.051 159.231Z" fill="#DAC7FF"/>
<path d="M102.051 165.719V164.183L115.782 177.914L115.778 177.919L136.611 198.752V200.279L102.051 165.719Z" fill="#DAC7FF"/>
<path d="M102.051 172.199V170.663L109.302 177.914L109.298 177.919L136.611 205.232V206.759L102.051 172.199Z" fill="#DAC7FF"/>
<path d="M102.051 178.679V177.143L102.822 177.914L102.818 177.919L136.623 211.724C136.644 212.288 136.692 212.845 136.766 213.394L102.051 178.679Z" fill="#DAC7FF"/>
<path d="M102.051 185.159V183.632L141.023 222.604C141.443 223.072 141.889 223.518 142.357 223.938L181.329 262.91H179.802L102.051 185.159Z" fill="#DAC7FF"/>
<path d="M102.051 191.639V190.112L174.849 262.91H173.322L102.051 191.639Z" fill="#DAC7FF"/>
<path d="M102.051 198.119V196.592L168.369 262.91H166.842L102.051 198.119Z" fill="#DAC7FF"/>
<path d="M102.051 204.599V203.072L161.889 262.91H160.362L102.051 204.599Z" fill="#DAC7FF"/>
<path d="M102.051 211.079V209.552L155.409 262.91H153.882L102.051 211.079Z" fill="#DAC7FF"/>
<path d="M102.051 217.559V216.032L148.929 262.91H147.402L102.051 217.559Z" fill="#DAC7FF"/>
<path d="M102.051 224.039V222.512L142.449 262.91H140.922L102.051 224.039Z" fill="#DAC7FF"/>
<path d="M102.051 230.519V228.992L135.969 262.91H134.442L102.051 230.519Z" fill="#DAC7FF"/>
<path d="M102.051 236.999V235.472L129.489 262.91H127.962L102.051 236.999Z" fill="#DAC7FF"/>
<path d="M102.051 243.479V241.952L123.009 262.91H121.482L102.051 243.479Z" fill="#DAC7FF"/>
<path d="M102.051 249.959V248.432L116.529 262.91H115.002L102.051 249.959Z" fill="#DAC7FF"/>
<path d="M102.434 256.822C102.248 256.219 102.126 255.588 102.076 254.937L110.024 262.885C109.373 262.835 108.742 262.713 108.139 262.527L102.434 256.822Z" fill="#DAC7FF"/>
<path d="M187.809 262.91H186.282L151.567 228.195C152.116 228.269 152.673 228.317 153.237 228.338L187.809 262.91Z" fill="#DAC7FF"/>
<path d="M194.289 262.91H192.762L158.202 228.35H159.729L194.289 262.91Z" fill="#DAC7FF"/>
<path d="M200.769 262.91H199.242L164.682 228.35H166.209L200.769 262.91Z" fill="#DAC7FF"/>
<path d="M207.249 262.91H205.722L171.162 228.35H172.689L207.249 262.91Z" fill="#DAC7FF"/>
<path d="M213.729 262.91H212.202L177.642 228.35H179.169L213.729 262.91Z" fill="#DAC7FF"/>
<path d="M220.209 262.91H218.682L184.122 228.35H185.649L220.209 262.91Z" fill="#DAC7FF"/>
<path d="M226.689 262.91H225.162L190.602 228.35H192.129L226.689 262.91Z" fill="#DAC7FF"/>
<path d="M233.169 262.91H231.642L197.082 228.35H198.609L233.169 262.91Z" fill="#DAC7FF"/>
<path d="M239.649 262.91H238.122L203.562 228.35H205.089L239.649 262.91Z" fill="#DAC7FF"/>
<path d="M246.129 262.91H244.602L210.042 228.35H211.569L246.129 262.91Z" fill="#DAC7FF"/>
<path d="M252.609 262.91H251.082L216.522 228.35H218.049L252.609 262.91Z" fill="#DAC7FF"/>
<path d="M259.089 262.91H257.562L223.002 228.35H224.529L259.089 262.91Z" fill="#DAC7FF"/>
<path d="M265.569 262.91H264.042L229.482 228.35H231.009L265.569 262.91Z" fill="#DAC7FF"/>
<path d="M272.049 262.91H270.522L235.962 228.35H237.489L272.049 262.91Z" fill="#DAC7FF"/>
<path d="M278.529 262.91H277.002L242.442 228.35H243.969L278.529 262.91Z" fill="#DAC7FF"/>
<path d="M285.009 262.91H283.482L248.922 228.35H250.449L285.009 262.91Z" fill="#DAC7FF"/>
<path d="M291.489 262.91H289.962L255.402 228.35H256.929L291.489 262.91Z" fill="#DAC7FF"/>
<path d="M297.969 262.91H296.442L261.882 228.35H263.409L297.969 262.91Z" fill="#DAC7FF"/>
<path d="M304.449 262.91H302.922L268.362 228.35H269.889L304.449 262.91Z" fill="#DAC7FF"/>
<path d="M310.929 262.91H309.402L274.842 228.35H276.369L310.929 262.91Z" fill="#DAC7FF"/>
<path d="M317.409 262.91H315.882L281.322 228.35H282.849L317.409 262.91Z" fill="#DAC7FF"/>
<path d="M323.889 262.91H322.362L287.802 228.35H289.329L323.889 262.91Z" fill="#DAC7FF"/>
<path d="M330.369 262.91H328.842L294.282 228.35H295.809L330.369 262.91Z" fill="#DAC7FF"/>
<path d="M336.849 262.91H335.322L300.762 228.35H302.289L336.849 262.91Z" fill="#DAC7FF"/>
<path d="M343.329 262.91H341.802L307.242 228.35H308.769L343.329 262.91Z" fill="#DAC7FF"/>
<path d="M349.809 262.91H348.282L313.722 228.35H315.249L349.809 262.91Z" fill="#DAC7FF"/>
<path d="M356.289 262.91H354.762L320.202 228.35H321.729L356.289 262.91Z" fill="#DAC7FF"/>
<path d="M362.769 262.91H361.242L326.682 228.35H328.209L362.769 262.91Z" fill="#DAC7FF"/>
<path d="M368.933 262.91H367.406L336.72 232.224L336.878 232.066L333.162 228.35H334.689L342.582 236.243L342.424 236.401L368.933 262.91Z" fill="#DAC7FF"/>
<path d="M375.413 262.91H373.886L343.2 232.224L343.358 232.066L339.642 228.35H341.169L349.062 236.243L348.904 236.401L375.413 262.91Z" fill="#DAC7FF"/>
<path d="M381.893 262.91H380.366L349.68 232.224L349.838 232.066L346.122 228.35H347.649L355.542 236.243L355.384 236.401L381.893 262.91Z" fill="#DAC7FF"/>
<path d="M388.373 262.91H386.846L356.16 232.224L356.318 232.066L352.602 228.35H354.129L362.022 236.243L361.864 236.401L388.373 262.91Z" fill="#DAC7FF"/>
<path d="M394.853 262.91H393.326L362.64 232.224L362.798 232.066L359.082 228.35H360.609L368.502 236.243L368.344 236.401L394.853 262.91Z" fill="#DAC7FF"/>
<path d="M401.333 262.91H399.806L369.12 232.224L369.278 232.066L365.562 228.35H367.089L374.982 236.243L374.824 236.401L401.333 262.91Z" fill="#DAC7FF"/>
<path d="M407.813 262.91H406.286L375.6 232.224L375.758 232.066L372.042 228.35H373.569L381.462 236.243L381.304 236.401L407.813 262.91Z" fill="#DAC7FF"/>
<path d="M414.293 262.91H412.766L382.08 232.224L382.238 232.066L378.522 228.35H380.049L387.942 236.243L387.784 236.401L414.293 262.91Z" fill="#DAC7FF"/>
<path d="M420.773 262.91H419.246L388.56 232.224L388.718 232.066L385.002 228.35H386.529L394.422 236.243L394.264 236.401L420.773 262.91Z" fill="#DAC7FF"/>
<path d="M427.253 262.91H425.726L395.04 232.224L395.198 232.066L391.482 228.35H393.009L400.902 236.243L400.744 236.401L427.253 262.91Z" fill="#DAC7FF"/>
<path d="M433.733 262.91H432.206L401.52 232.224L401.678 232.066L397.962 228.35H399.489L407.382 236.243L407.224 236.401L433.733 262.91Z" fill="#DAC7FF"/>
<path d="M440.213 262.91H438.686L404.126 228.35H405.653L440.213 262.91Z" fill="#DAC7FF"/>
<path d="M446.693 262.91H445.166L410.606 228.35H412.133L446.693 262.91Z" fill="#DAC7FF"/>
<path d="M453.173 262.91H451.646L417.086 228.35H418.613L453.173 262.91Z" fill="#DAC7FF"/>
<path d="M459.653 262.91H458.126L423.566 228.35H425.093L459.653 262.91Z" fill="#DAC7FF"/>
<path d="M466.133 262.91H464.606L430.046 228.35H431.573L466.133 262.91Z" fill="#DAC7FF"/>
<path d="M472.613 262.91H471.086L436.526 228.35H438.053L472.613 262.91Z" fill="#DAC7FF"/>
<path d="M479.093 262.91H477.566L443.006 228.35H444.533L479.093 262.91Z" fill="#DAC7FF"/>
<path d="M485.573 262.91H484.046L449.486 228.35H451.013L485.573 262.91Z" fill="#DAC7FF"/>
<path d="M492.053 262.91H490.526L455.966 228.35H457.493L492.053 262.91Z" fill="#DAC7FF"/>
<path d="M498.533 262.91H497.006L462.446 228.35H463.973L498.533 262.91Z" fill="#DAC7FF"/>
<path d="M505.013 262.91H503.486L468.926 228.35H470.453L505.013 262.91Z" fill="#DAC7FF"/>
<path d="M511.493 262.91H509.966L475.406 228.35H476.933L511.493 262.91Z" fill="#DAC7FF"/>
<path d="M517.973 262.91H516.446L481.886 228.35H483.413L517.973 262.91Z" fill="#DAC7FF"/>
<path d="M524.453 262.91H522.926L488.366 228.35H489.893L524.453 262.91Z" fill="#DAC7FF"/>
<path d="M530.933 262.91H529.406L494.846 228.35H496.373L530.933 262.91Z" fill="#DAC7FF"/>
<path d="M537.413 262.91H535.886L501.326 228.35H502.853L537.413 262.91Z" fill="#DAC7FF"/>
<path d="M543.893 262.91H542.366L507.806 228.35H509.333L543.893 262.91Z" fill="#DAC7FF"/>
<path d="M550.373 262.91H548.846L514.286 228.35H515.813L550.373 262.91Z" fill="#DAC7FF"/>
<path d="M556.853 262.91H555.326L520.766 228.35H522.293L556.853 262.91Z" fill="#DAC7FF"/>
<path d="M563.333 262.91H561.806L527.246 228.35H528.773L563.333 262.91Z" fill="#DAC7FF"/>
<path d="M569.813 262.91H568.286L533.726 228.35H535.253L569.813 262.91Z" fill="#DAC7FF"/>
<path d="M576.293 262.91H574.766L540.206 228.35H541.733L576.293 262.91Z" fill="#DAC7FF"/>
<path d="M582.773 262.91H581.246L546.686 228.35H548.213L582.773 262.91Z" fill="#DAC7FF"/>
<path d="M589.253 262.91H587.726L553.166 228.35H554.693L589.253 262.91Z" fill="#DAC7FF"/>
<path d="M595.733 262.91H594.206L559.646 228.35H561.173L595.733 262.91Z" fill="#DAC7FF"/>
<path d="M602.213 262.91H600.686L566.126 228.35H567.653L602.213 262.91Z" fill="#DAC7FF"/>
<path d="M608.693 262.91H607.166L572.606 228.35H574.133L608.693 262.91Z" fill="#DAC7FF"/>
<path d="M615.173 262.91H613.646L579.086 228.35H580.613L615.173 262.91Z" fill="#DAC7FF"/>
<path d="M621.653 262.91H620.126L585.566 228.35H587.093L621.653 262.91Z" fill="#DAC7FF"/>
<path d="M628.133 262.91H626.606L591.958 228.263C592.41 228.218 592.857 228.155 593.298 228.075L628.133 262.91Z" fill="#DAC7FF"/>
<path d="M634.54 262.837C634.17 262.885 633.794 262.91 633.411 262.91H633.086L597.099 226.923C597.45 226.77 597.795 226.606 598.134 226.431L634.54 262.837Z" fill="#DAC7FF"/>
<path d="M639.023 260.84C638.747 261.076 638.455 261.295 638.151 261.495L601.124 224.469C601.404 224.24 601.677 224.004 601.941 223.759L639.023 260.84Z" fill="#DAC7FF"/>
<path d="M641.624 256.961C641.501 257.335 641.354 257.698 641.183 258.048L604.264 221.128C604.477 220.83 604.682 220.525 604.876 220.213L641.624 256.961Z" fill="#DAC7FF"/>
<path d="M642.051 250.908V252.435L606.491 216.876C606.627 216.495 606.75 216.108 606.859 215.716L642.051 250.908Z" fill="#DAC7FF"/>
<path d="M642.051 244.428V245.955L607.488 211.392C607.49 211.285 607.491 211.178 607.491 211.07V209.868L642.051 244.428Z" fill="#DAC7FF"/>
<path d="M642.051 237.948V239.475L607.491 204.915V203.388L642.051 237.948Z" fill="#DAC7FF"/>
<path d="M642.051 231.468V232.995L607.491 198.435V196.908L642.051 231.468Z" fill="#DAC7FF"/>
<path d="M642.051 224.988V226.515L607.491 191.955V190.428L642.051 224.988Z" fill="#DAC7FF"/>
<path d="M642.051 218.508V220.035L607.491 185.475V183.948L642.051 218.508Z" fill="#DAC7FF"/>
<path d="M642.051 212.028V213.555L607.491 178.995V177.46L607.946 177.914L607.941 177.919L642.051 212.028Z" fill="#DAC7FF"/>
<path d="M642.051 205.548V207.075L607.491 172.515V170.98L614.426 177.914L614.421 177.919L642.051 205.548Z" fill="#DAC7FF"/>
<path d="M642.051 199.068V200.595L607.491 166.035V164.5L620.906 177.914L620.901 177.919L642.051 199.068Z" fill="#DAC7FF"/>
<path d="M642.051 192.588V194.115L608.88 160.944L608.884 160.94L607.491 159.547V158.02L627.386 177.914L627.381 177.919L642.051 192.588Z" fill="#DAC7FF"/>
<path d="M642.051 186.108V187.635L615.36 160.944L615.364 160.94L607.491 153.067V151.54L633.866 177.914L633.861 177.919L642.051 186.108Z" fill="#DAC7FF"/>
<path d="M642.051 179.628V181.155L621.84 160.944L621.844 160.94L607.491 146.587V145.06L640.346 177.914L640.341 177.919L642.051 179.628Z" fill="#DAC7FF"/>
<path d="M642.051 173.14V174.675L628.32 160.944L628.324 160.94L607.491 140.107V138.58L642.051 173.14Z" fill="#DAC7FF"/>
<path d="M642.051 166.66V168.195L634.8 160.944L634.804 160.94L607.491 133.627V132.1L642.051 166.66Z" fill="#DAC7FF"/>
<path d="M642.051 160.18V161.715L641.28 160.944L641.284 160.94L607.491 127.147V125.62L642.051 160.18Z" fill="#DAC7FF"/>
<path d="M642.051 153.7V155.227L607.491 120.667V119.14L642.051 153.7Z" fill="#DAC7FF"/>
<path d="M642.051 147.22V148.747L607.491 114.187V112.66L642.051 147.22Z" fill="#DAC7FF"/>
<path d="M642.051 140.74V142.267L607.491 107.707V106.172L607.946 106.626L607.942 106.63L642.051 140.74Z" fill="#DAC7FF"/>
<path d="M642.051 134.26V135.787L608.88 102.616L608.884 102.612L607.491 101.219V99.8302C607.491 99.7838 607.491 99.7374 607.49 99.6911L614.426 106.626L614.422 106.63L642.051 134.26Z" fill="#DAC7FF"/>
<path d="M642.051 127.78V129.307L615.36 102.616L615.364 102.612L606.322 93.5702C605.893 92.4674 605.354 91.4195 604.719 90.44L620.906 106.626L620.902 106.63L642.051 127.78Z" fill="#DAC7FF"/>
<path d="M642.051 121.3V122.827L621.84 102.616L621.844 102.612L567.222 47.9902H568.749L627.386 106.626L627.382 106.63L642.051 121.3Z" fill="#DAC7FF"/>
<path d="M642.051 114.82V116.347L628.32 102.616L628.324 102.612L573.702 47.9902H575.229L633.866 106.626L633.862 106.63L642.051 114.82Z" fill="#DAC7FF"/>
<path d="M642.051 108.34V109.867L634.8 102.616L634.804 102.612L580.182 47.9902H581.709L640.346 106.626L640.342 106.63L642.051 108.34Z" fill="#DAC7FF"/>
<path d="M642.051 101.852V103.387L641.28 102.616L641.284 102.612L586.662 47.9902H588.189L642.051 101.852Z" fill="#DAC7FF"/>
<path d="M642.051 95.3717V96.899L593.142 47.9902H594.669L642.051 95.3717Z" fill="#DAC7FF"/>
<path d="M642.051 88.8916V90.419L599.622 47.9902H601.149L642.051 88.8916Z" fill="#DAC7FF"/>
<path d="M642.051 82.4117V83.939L606.102 47.9902H607.629L642.051 82.4117Z" fill="#DAC7FF"/>
<path d="M642.051 75.9317V77.459L612.582 47.9902H614.109L642.051 75.9317Z" fill="#DAC7FF"/>
<path d="M642.051 69.4517V70.979L619.062 47.9902H620.589L642.051 69.4517Z" fill="#DAC7FF"/>
<path d="M642.051 62.9717V64.499L625.542 47.9902H627.069L642.051 62.9717Z" fill="#DAC7FF"/>
<path d="M642.05 56.4906C642.05 56.537 642.051 56.5836 642.051 56.6302V58.019L632.022 47.9902H633.411C633.457 47.9902 633.504 47.9906 633.55 47.9913L642.05 56.4906Z" fill="#DAC7FF"/>
<path d="M560.742 47.9902H562.269L599.601 85.3218C598.621 84.6866 597.574 84.1478 596.471 83.719L560.742 47.9902Z" fill="#DAC7FF"/>
<path d="M554.262 47.9902H555.789L590.35 82.5508C590.304 82.5504 590.257 82.5502 590.211 82.5502H588.822L554.262 47.9902Z" fill="#DAC7FF"/>
<path d="M547.782 47.9902H549.309L583.869 82.5502H582.342L547.782 47.9902Z" fill="#DAC7FF"/>
<path d="M541.302 47.9902H542.829L577.389 82.5502H575.862L541.302 47.9902Z" fill="#DAC7FF"/>
<path d="M534.822 47.9902H536.349L570.909 82.5502H569.382L534.822 47.9902Z" fill="#DAC7FF"/>
<path d="M528.342 47.9902H529.869L564.429 82.5502H562.902L528.342 47.9902Z" fill="#DAC7FF"/>
<path d="M521.862 47.9902H523.389L557.949 82.5502H556.422L521.862 47.9902Z" fill="#DAC7FF"/>
<path d="M515.382 47.9902H516.909L551.469 82.5502H549.942L515.382 47.9902Z" fill="#DAC7FF"/>
<path d="M508.902 47.9902H510.429L544.989 82.5502H543.462L508.902 47.9902Z" fill="#DAC7FF"/>
<path d="M502.422 47.9902H503.949L538.509 82.5502H536.982L502.422 47.9902Z" fill="#DAC7FF"/>
<path d="M495.942 47.9902H497.469L532.029 82.5502H530.502L495.942 47.9902Z" fill="#DAC7FF"/>
<path d="M489.462 47.9902H490.989L525.549 82.5502H524.022L489.462 47.9902Z" fill="#DAC7FF"/>
<path d="M482.982 47.9902H484.509L519.069 82.5502H517.542L482.982 47.9902Z" fill="#DAC7FF"/>
<path d="M476.502 47.9902H478.029L512.589 82.5502H511.062L476.502 47.9902Z" fill="#DAC7FF"/>
<path d="M470.022 47.9902H471.549L506.109 82.5502H504.582L470.022 47.9902Z" fill="#DAC7FF"/>
<path d="M463.542 47.9902H465.069L499.629 82.5502H498.102L463.542 47.9902Z" fill="#DAC7FF"/>
<path d="M457.062 47.9902H458.589L493.149 82.5502H491.622L457.062 47.9902Z" fill="#DAC7FF"/>
<path d="M450.582 47.9902H452.109L486.669 82.5502H485.142L450.582 47.9902Z" fill="#DAC7FF"/>
<path d="M444.102 47.9902H445.629L480.189 82.5502H478.662L444.102 47.9902Z" fill="#DAC7FF"/>
<path d="M437.622 47.9902H439.149L473.709 82.5502H472.182L437.622 47.9902Z" fill="#DAC7FF"/>
<path d="M431.142 47.9902H432.669L467.229 82.5502H465.702L431.142 47.9902Z" fill="#DAC7FF"/>
<path d="M424.662 47.9902H426.189L460.749 82.5502H459.222L424.662 47.9902Z" fill="#DAC7FF"/>
<path d="M418.182 47.9902H419.709L454.269 82.5502H452.742L418.182 47.9902Z" fill="#DAC7FF"/>
<path d="M411.702 47.9902H413.229L447.789 82.5502H446.262L411.702 47.9902Z" fill="#DAC7FF"/>
<path d="M405.222 47.9902H406.749L441.309 82.5502H439.782L405.222 47.9902Z" fill="#DAC7FF"/>
<path d="M398.742 47.9902H400.269L434.829 82.5502H433.302L398.742 47.9902Z" fill="#DAC7FF"/>
<path d="M392.262 47.9902H393.789L428.349 82.5502H426.822L392.262 47.9902Z" fill="#DAC7FF"/>
<path d="M385.782 47.9902H387.309L421.869 82.5502H420.342L385.782 47.9902Z" fill="#DAC7FF"/>
<path d="M379.302 47.9902H380.829L415.389 82.5502H413.862L379.302 47.9902Z" fill="#DAC7FF"/>
<path d="M372.822 47.9902H374.349L408.909 82.5502H407.382L372.822 47.9902Z" fill="#DAC7FF"/>
<path d="M366.342 47.9902H367.869L402.429 82.5502H400.902L366.342 47.9902Z" fill="#DAC7FF"/>
<path d="M359.862 47.9902H361.389L395.949 82.5502H394.422L359.862 47.9902Z" fill="#DAC7FF"/>
<path d="M353.382 47.9902H354.909L389.469 82.5502H387.942L353.382 47.9902Z" fill="#DAC7FF"/>
<path d="M347.218 47.9902H348.746L383.306 82.5502H381.778L347.218 47.9902Z" fill="#DAC7FF"/>
<path d="M340.738 47.9902H342.266L376.826 82.5502H375.298L340.738 47.9902Z" fill="#DAC7FF"/>
<path d="M334.258 47.9902H335.786L370.346 82.5502H368.818L334.258 47.9902Z" fill="#DAC7FF"/>
<path d="M327.778 47.9902H329.306L363.866 82.5502H362.338L327.778 47.9902Z" fill="#DAC7FF"/>
<path d="M321.298 47.9902H322.826L357.386 82.5502H355.858L321.298 47.9902Z" fill="#DAC7FF"/>
<path d="M314.818 47.9902H316.346L350.906 82.5502H349.378L314.818 47.9902Z" fill="#DAC7FF"/>
<path d="M308.338 47.9902H309.866L344.426 82.5502H342.898L308.338 47.9902Z" fill="#DAC7FF"/>
<path d="M301.858 47.9902H303.386L337.946 82.5502H336.418L301.858 47.9902Z" fill="#DAC7FF"/>
<path d="M295.378 47.9902H296.906L331.466 82.5502H329.938L295.378 47.9902Z" fill="#DAC7FF"/>
<path d="M288.898 47.9902H290.426L324.986 82.5502H323.458L288.898 47.9902Z" fill="#DAC7FF"/>
<path d="M282.418 47.9902H283.946L318.506 82.5502H316.978L282.418 47.9902Z" fill="#DAC7FF"/>
<path d="M275.938 47.9902H277.466L312.026 82.5502H310.498L275.938 47.9902Z" fill="#DAC7FF"/>
<path d="M269.458 47.9902H270.986L305.546 82.5502H304.018L269.458 47.9902Z" fill="#DAC7FF"/>
<path d="M262.978 47.9902H264.506L299.066 82.5502H297.538L262.978 47.9902Z" fill="#DAC7FF"/>
<path d="M256.498 47.9902H258.026L292.586 82.5502H291.058L256.498 47.9902Z" fill="#DAC7FF"/>
<path d="M250.018 47.9902H251.546L286.106 82.5502H284.578L250.018 47.9902Z" fill="#DAC7FF"/>
<path d="M243.538 47.9902H245.066L279.626 82.5502H278.098L243.538 47.9902Z" fill="#DAC7FF"/>
<path d="M237.058 47.9902H238.586L273.146 82.5502H271.618L237.058 47.9902Z" fill="#DAC7FF"/>
<path d="M230.578 47.9902H232.106L266.666 82.5502H265.138L230.578 47.9902Z" fill="#DAC7FF"/>
<path d="M224.098 47.9902H225.626L260.186 82.5502H258.658L224.098 47.9902Z" fill="#DAC7FF"/>
<path d="M217.618 47.9902H219.146L253.706 82.5502H252.178L217.618 47.9902Z" fill="#DAC7FF"/>
<path d="M211.138 47.9902H212.666L247.226 82.5502H245.698L211.138 47.9902Z" fill="#DAC7FF"/>
<path d="M204.658 47.9902H206.186L240.746 82.5502H239.218L204.658 47.9902Z" fill="#DAC7FF"/>
<path d="M198.178 47.9902H199.706L234.266 82.5502H232.738L198.178 47.9902Z" fill="#DAC7FF"/>
<path d="M191.698 47.9902H193.226L227.786 82.5502H226.258L191.698 47.9902Z" fill="#DAC7FF"/>
<path d="M185.218 47.9902H186.746L221.306 82.5502H219.778L185.218 47.9902Z" fill="#DAC7FF"/>
<path d="M178.738 47.9902H180.266L214.826 82.5502H213.298L178.738 47.9902Z" fill="#DAC7FF"/>
<path d="M172.258 47.9902H173.786L208.346 82.5502H206.818L172.258 47.9902Z" fill="#DAC7FF"/>
<path d="M165.778 47.9902H167.306L201.866 82.5502H200.338L165.778 47.9902Z" fill="#DAC7FF"/>
<path d="M159.298 47.9902H160.826L195.386 82.5502H193.858L159.298 47.9902Z" fill="#DAC7FF"/>
<path d="M152.818 47.9902H154.346L188.906 82.5502H187.378L152.818 47.9902Z" fill="#DAC7FF"/>
<path d="M146.338 47.9902H147.866L182.426 82.5502H180.898L146.338 47.9902Z" fill="#DAC7FF"/>
<path d="M139.858 47.9902H141.386L175.946 82.5502H174.418L139.858 47.9902Z" fill="#DAC7FF"/>
<path d="M133.378 47.9902H134.906L169.466 82.5502H167.938L133.378 47.9902Z" fill="#DAC7FF"/>
<path d="M126.898 47.9902H128.426L162.986 82.5502H161.458L126.898 47.9902Z" fill="#DAC7FF"/>
<path d="M120.418 47.9902H121.946L156.506 82.5502H154.978L120.418 47.9902Z" fill="#DAC7FF"/>
<path d="M113.938 47.9902H115.466L150.026 82.5502H148.498L113.938 47.9902Z" fill="#DAC7FF"/>
<path d="M107.914 48.4461C108.306 48.313 108.711 48.2074 109.127 48.1314L143.687 82.6914C143.271 82.7674 142.866 82.873 142.474 83.0061L107.914 48.4461Z" fill="#DAC7FF"/>
<path d="M104.069 51.0805C104.3 50.8043 104.549 50.5428 104.813 50.2976L139.373 84.8576C139.109 85.1028 138.86 85.3643 138.629 85.6405L104.069 51.0805Z" fill="#DAC7FF"/>
<path d="M102.111 55.6031C102.163 55.1666 102.247 54.7401 102.361 54.326L136.921 88.886C136.807 89.3001 136.723 89.7266 136.671 90.1631L102.111 55.6031Z" fill="#DAC7FF"/>
<path d="M102.051 62.0227V60.4954L136.611 95.0554V96.5827L102.051 62.0227Z" fill="#DAC7FF"/>
<path d="M102.051 68.5027V66.9754L136.611 101.535V103.071L136.156 102.616L136.16 102.612L102.051 68.5027Z" fill="#DAC7FF"/>
<path d="M102.051 74.9827V73.4554L135.222 106.626L135.218 106.63L136.611 108.023V109.551L129.676 102.616L129.68 102.612L102.051 74.9827Z" fill="#DAC7FF"/>
<path d="M102.051 81.4627V79.9354L128.742 106.626L128.738 106.63L136.611 114.503V116.031L123.196 102.616L123.2 102.612L102.051 81.4627Z" fill="#DAC7FF"/>
<path d="M102.051 87.9427V86.4154L122.262 106.626L122.258 106.63L136.611 120.983V122.511L116.716 102.616L116.72 102.612L102.051 87.9427Z" fill="#DAC7FF"/>
<path d="M102.051 94.4227V92.8954L115.782 106.626L115.778 106.63L136.611 127.463V128.991L110.236 102.616L110.24 102.612L102.051 94.4227Z" fill="#DAC7FF"/>
<path d="M102.051 100.903V99.3754L109.302 106.626L109.298 106.63L136.611 133.943V135.471L103.756 102.616L103.76 102.612L102.051 100.903Z" fill="#DAC7FF"/>
<path d="M102.051 105.855V107.391L136.611 141.951V140.423L102.818 106.63L102.822 106.626L102.051 105.855Z" fill="#DAC7FF"/>
</g>
<g clip-path="url(#clip0_2341_22875)">
<rect x="136.61" y="132.23" width="470.88" height="36.72" rx="4.8" fill="#FFE0F2"/>
<g opacity="0.24">
<path d="M63.1704 200.732L139.232 124.67L138.469 123.906L62.4067 199.968L63.1704 200.732Z" fill="#F985C7"/>
<path d="M218.69 200.732L294.752 124.67L293.989 123.906L217.927 199.968L218.69 200.732Z" fill="#F985C7"/>
<path d="M216.992 124.67L140.93 200.732L140.167 199.968L216.229 123.906L216.992 124.67Z" fill="#F985C7"/>
<path d="M296.45 200.732L372.512 124.67L371.749 123.906L295.687 199.968L296.45 200.732Z" fill="#F985C7"/>
<path d="M178.112 124.67L102.05 200.732L101.287 199.968L177.349 123.906L178.112 124.67Z" fill="#F985C7"/>
<path d="M257.57 200.732L333.632 124.67L332.869 123.906L256.807 199.968L257.57 200.732Z" fill="#F985C7"/>
<path d="M255.872 124.67L179.81 200.732L179.047 199.968L255.109 123.906L255.872 124.67Z" fill="#F985C7"/>
<path d="M335.33 200.732L411.392 124.67L410.629 123.906L334.567 199.968L335.33 200.732Z" fill="#F985C7"/>
<path d="M158.672 124.67L82.6104 200.732L81.8467 199.968L157.909 123.906L158.672 124.67Z" fill="#F985C7"/>
<path d="M238.13 200.732L314.192 124.67L313.429 123.906L237.367 199.968L238.13 200.732Z" fill="#F985C7"/>
<path d="M236.432 124.67L160.37 200.732L159.607 199.968L235.669 123.906L236.432 124.67Z" fill="#F985C7"/>
<path d="M315.89 200.732L391.952 124.67L391.189 123.906L315.127 199.968L315.89 200.732Z" fill="#F985C7"/>
<path d="M197.552 124.67L121.49 200.732L120.727 199.968L196.789 123.906L197.552 124.67Z" fill="#F985C7"/>
<path d="M277.01 200.732L353.072 124.67L352.309 123.906L276.247 199.968L277.01 200.732Z" fill="#F985C7"/>
<path d="M275.312 124.67L199.25 200.732L198.487 199.968L274.549 123.906L275.312 124.67Z" fill="#F985C7"/>
<path d="M354.77 200.732L430.832 124.67L430.069 123.906L354.007 199.968L354.77 200.732Z" fill="#F985C7"/>
<path d="M145.712 124.67L69.6504 200.732L68.8867 199.968L144.949 123.906L145.712 124.67Z" fill="#F985C7"/>
<path d="M225.17 200.732L301.232 124.67L300.469 123.906L224.407 199.968L225.17 200.732Z" fill="#F985C7"/>
<path d="M223.472 124.67L147.41 200.732L146.647 199.968L222.709 123.906L223.472 124.67Z" fill="#F985C7"/>
<path d="M302.93 200.732L378.992 124.67L378.229 123.906L302.167 199.968L302.93 200.732Z" fill="#F985C7"/>
<path d="M184.592 124.67L108.53 200.732L107.767 199.968L183.829 123.906L184.592 124.67Z" fill="#F985C7"/>
<path d="M264.05 200.732L340.112 124.67L339.349 123.906L263.287 199.968L264.05 200.732Z" fill="#F985C7"/>
<path d="M262.352 124.67L186.29 200.732L185.527 199.968L261.589 123.906L262.352 124.67Z" fill="#F985C7"/>
<path d="M341.81 200.732L417.872 124.67L417.109 123.906L341.047 199.968L341.81 200.732Z" fill="#F985C7"/>
<path d="M165.152 124.67L89.0904 200.732L88.3267 199.968L164.389 123.906L165.152 124.67Z" fill="#F985C7"/>
<path d="M244.61 200.732L320.672 124.67L319.909 123.906L243.847 199.968L244.61 200.732Z" fill="#F985C7"/>
<path d="M242.912 124.67L166.85 200.732L166.087 199.968L242.149 123.906L242.912 124.67Z" fill="#F985C7"/>
<path d="M322.37 200.732L398.432 124.67L397.669 123.906L321.607 199.968L322.37 200.732Z" fill="#F985C7"/>
<path d="M204.032 124.67L127.97 200.732L127.207 199.968L203.269 123.906L204.032 124.67Z" fill="#F985C7"/>
<path d="M283.49 200.732L359.552 124.67L358.789 123.906L282.727 199.968L283.49 200.732Z" fill="#F985C7"/>
<path d="M281.792 124.67L205.73 200.732L204.967 199.968L281.029 123.906L281.792 124.67Z" fill="#F985C7"/>
<path d="M361.25 200.732L437.312 124.67L436.549 123.906L360.487 199.968L361.25 200.732Z" fill="#F985C7"/>
<path d="M152.192 124.67L76.1304 200.732L75.3667 199.968L151.429 123.906L152.192 124.67Z" fill="#F985C7"/>
<path d="M231.65 200.732L307.712 124.67L306.949 123.906L230.887 199.968L231.65 200.732Z" fill="#F985C7"/>
<path d="M229.952 124.67L153.89 200.732L153.127 199.968L229.189 123.906L229.952 124.67Z" fill="#F985C7"/>
<path d="M309.41 200.732L385.472 124.67L384.709 123.906L308.647 199.968L309.41 200.732Z" fill="#F985C7"/>
<path d="M191.072 124.67L115.01 200.732L114.247 199.968L190.309 123.906L191.072 124.67Z" fill="#F985C7"/>
<path d="M270.53 200.732L346.592 124.67L345.829 123.906L269.767 199.968L270.53 200.732Z" fill="#F985C7"/>
<path d="M268.832 124.67L192.77 200.732L192.007 199.968L268.069 123.906L268.832 124.67Z" fill="#F985C7"/>
<path d="M348.29 200.732L424.352 124.67L423.589 123.906L347.527 199.968L348.29 200.732Z" fill="#F985C7"/>
<path d="M171.632 124.67L95.5704 200.732L94.8067 199.968L170.869 123.906L171.632 124.67Z" fill="#F985C7"/>
<path d="M251.09 200.732L327.152 124.67L326.389 123.906L250.327 199.968L251.09 200.732Z" fill="#F985C7"/>
<path d="M249.392 124.67L173.33 200.732L172.567 199.968L248.629 123.906L249.392 124.67Z" fill="#F985C7"/>
<path d="M328.85 200.732L404.912 124.67L404.149 123.906L328.087 199.968L328.85 200.732Z" fill="#F985C7"/>
<path d="M210.512 124.67L134.45 200.732L133.687 199.968L209.749 123.906L210.512 124.67Z" fill="#F985C7"/>
<path d="M289.97 200.732L366.032 124.67L365.269 123.906L289.207 199.968L289.97 200.732Z" fill="#F985C7"/>
<path d="M288.272 124.67L212.21 200.732L211.447 199.968L287.509 123.906L288.272 124.67Z" fill="#F985C7"/>
<path d="M367.73 200.732L443.792 124.67L443.029 123.906L366.967 199.968L367.73 200.732Z" fill="#F985C7"/>
<path d="M373.894 200.732L449.956 124.67L449.193 123.906L373.13 199.968L373.894 200.732Z" fill="#F985C7"/>
<path d="M529.414 200.732L605.476 124.67L604.713 123.906L528.65 199.968L529.414 200.732Z" fill="#F985C7"/>
<path d="M527.716 124.67L451.654 200.732L450.89 199.968L526.953 123.906L527.716 124.67Z" fill="#F985C7"/>
<path d="M607.174 200.732L683.236 124.67L682.473 123.906L606.41 199.968L607.174 200.732Z" fill="#F985C7"/>
<path d="M488.836 124.67L412.774 200.732L412.01 199.968L488.073 123.906L488.836 124.67Z" fill="#F985C7"/>
<path d="M568.294 200.732L644.356 124.67L643.593 123.906L567.53 199.968L568.294 200.732Z" fill="#F985C7"/>
<path d="M566.596 124.67L490.534 200.732L489.77 199.968L565.833 123.906L566.596 124.67Z" fill="#F985C7"/>
<path d="M646.054 200.732L722.116 124.67L721.353 123.906L645.29 199.968L646.054 200.732Z" fill="#F985C7"/>
<path d="M469.396 124.67L393.334 200.732L392.57 199.968L468.633 123.906L469.396 124.67Z" fill="#F985C7"/>
<path d="M548.854 200.732L624.916 124.67L624.153 123.906L548.09 199.968L548.854 200.732Z" fill="#F985C7"/>
<path d="M547.156 124.67L471.094 200.732L470.33 199.968L546.393 123.906L547.156 124.67Z" fill="#F985C7"/>
<path d="M626.614 200.732L702.676 124.67L701.913 123.906L625.85 199.968L626.614 200.732Z" fill="#F985C7"/>
<path d="M508.276 124.67L432.214 200.732L431.45 199.968L507.513 123.906L508.276 124.67Z" fill="#F985C7"/>
<path d="M587.734 200.732L663.796 124.67L663.033 123.906L586.97 199.968L587.734 200.732Z" fill="#F985C7"/>
<path d="M586.036 124.67L509.974 200.732L509.21 199.968L585.273 123.906L586.036 124.67Z" fill="#F985C7"/>
<path d="M665.494 200.732L741.556 124.67L740.793 123.906L664.73 199.968L665.494 200.732Z" fill="#F985C7"/>
<path d="M456.436 124.67L380.374 200.732L379.61 199.968L455.673 123.906L456.436 124.67Z" fill="#F985C7"/>
<path d="M535.894 200.732L611.956 124.67L611.193 123.906L535.13 199.968L535.894 200.732Z" fill="#F985C7"/>
<path d="M534.196 124.67L458.134 200.732L457.37 199.968L533.433 123.906L534.196 124.67Z" fill="#F985C7"/>
<path d="M613.654 200.732L689.716 124.67L688.953 123.906L612.89 199.968L613.654 200.732Z" fill="#F985C7"/>
<path d="M495.316 124.67L419.254 200.732L418.49 199.968L494.553 123.906L495.316 124.67Z" fill="#F985C7"/>
<path d="M574.774 200.732L650.836 124.67L650.073 123.906L574.01 199.968L574.774 200.732Z" fill="#F985C7"/>
<path d="M573.076 124.67L497.014 200.732L496.25 199.968L572.313 123.906L573.076 124.67Z" fill="#F985C7"/>
<path d="M652.534 200.732L728.596 124.67L727.833 123.906L651.77 199.968L652.534 200.732Z" fill="#F985C7"/>
<path d="M475.876 124.67L399.814 200.732L399.05 199.968L475.113 123.906L475.876 124.67Z" fill="#F985C7"/>
<path d="M555.334 200.732L631.396 124.67L630.633 123.906L554.57 199.968L555.334 200.732Z" fill="#F985C7"/>
<path d="M553.636 124.67L477.574 200.732L476.81 199.968L552.873 123.906L553.636 124.67Z" fill="#F985C7"/>
<path d="M633.094 200.732L709.156 124.67L708.393 123.906L632.33 199.968L633.094 200.732Z" fill="#F985C7"/>
<path d="M514.756 124.67L438.694 200.732L437.93 199.968L513.993 123.906L514.756 124.67Z" fill="#F985C7"/>
<path d="M594.214 200.732L670.276 124.67L669.513 123.906L593.45 199.968L594.214 200.732Z" fill="#F985C7"/>
<path d="M592.516 124.67L516.454 200.732L515.69 199.968L591.753 123.906L592.516 124.67Z" fill="#F985C7"/>
<path d="M671.974 200.732L748.036 124.67L747.273 123.906L671.21 199.968L671.974 200.732Z" fill="#F985C7"/>
<path d="M462.916 124.67L386.854 200.732L386.09 199.968L462.153 123.906L462.916 124.67Z" fill="#F985C7"/>
<path d="M542.374 200.732L618.436 124.67L617.673 123.906L541.61 199.968L542.374 200.732Z" fill="#F985C7"/>
<path d="M540.676 124.67L464.614 200.732L463.85 199.968L539.913 123.906L540.676 124.67Z" fill="#F985C7"/>
<path d="M620.134 200.732L696.196 124.67L695.433 123.906L619.37 199.968L620.134 200.732Z" fill="#F985C7"/>
<path d="M501.796 124.67L425.734 200.732L424.97 199.968L501.033 123.906L501.796 124.67Z" fill="#F985C7"/>
<path d="M581.254 200.732L657.316 124.67L656.553 123.906L580.49 199.968L581.254 200.732Z" fill="#F985C7"/>
<path d="M579.556 124.67L503.494 200.732L502.73 199.968L578.793 123.906L579.556 124.67Z" fill="#F985C7"/>
<path d="M659.014 200.732L735.076 124.67L734.313 123.906L658.25 199.968L659.014 200.732Z" fill="#F985C7"/>
<path d="M482.356 124.67L406.294 200.732L405.53 199.968L481.593 123.906L482.356 124.67Z" fill="#F985C7"/>
<path d="M561.814 200.732L637.876 124.67L637.113 123.906L561.05 199.968L561.814 200.732Z" fill="#F985C7"/>
<path d="M560.116 124.67L484.054 200.732L483.29 199.968L559.353 123.906L560.116 124.67Z" fill="#F985C7"/>
<path d="M639.574 200.732L715.636 124.67L714.873 123.906L638.81 199.968L639.574 200.732Z" fill="#F985C7"/>
<path d="M521.236 124.67L445.174 200.732L444.41 199.968L520.473 123.906L521.236 124.67Z" fill="#F985C7"/>
<path d="M600.694 200.732L676.756 124.67L675.993 123.906L599.93 199.968L600.694 200.732Z" fill="#F985C7"/>
<path d="M598.996 124.67L522.934 200.732L522.17 199.968L598.233 123.906L598.996 124.67Z" fill="#F985C7"/>
<path d="M678.454 200.732L754.516 124.67L753.753 123.906L677.69 199.968L678.454 200.732Z" fill="#F985C7"/>
</g>
</g>
<rect x="136.73" y="132.35" width="470.64" height="36.48" rx="4.68" stroke="#F9008E" stroke-width="0.24"/>
<path d="M373.512 131.848C373.301 131.637 372.959 131.637 372.748 131.848L369.312 135.284C369.101 135.495 369.101 135.837 369.312 136.048C369.522 136.259 369.864 136.259 370.075 136.048L373.13 132.993L376.185 136.048C376.395 136.259 376.737 136.259 376.948 136.048C377.159 135.837 377.159 135.495 376.948 135.284L373.512 131.848ZM372.748 169.332C372.959 169.542 373.301 169.542 373.512 169.332L376.948 165.895C377.159 165.684 377.159 165.342 376.948 165.131C376.737 164.92 376.395 164.92 376.185 165.131L373.13 168.186L370.075 165.131C369.864 164.92 369.522 164.92 369.312 165.131C369.101 165.342 369.101 165.684 369.312 165.895L372.748 169.332ZM372.59 132.23L372.59 168.95L373.67 168.95L373.67 132.23L372.59 132.23Z" fill="#F9008E"/>
<path d="M372.433 47.6084C372.222 47.3975 371.88 47.3975 371.669 47.6084L368.232 51.0449C368.021 51.2558 368.021 51.5977 368.232 51.8086C368.443 52.0195 368.785 52.0195 368.996 51.8086L372.051 48.7539L375.105 51.8086C375.316 52.0195 375.658 52.0195 375.869 51.8086C376.08 51.5977 376.08 51.2558 375.869 51.0449L372.433 47.6084ZM371.669 82.9321C371.88 83.143 372.222 83.143 372.433 82.9321L375.869 79.4955C376.08 79.2847 376.08 78.9427 375.869 78.7319C375.658 78.521 375.316 78.521 375.105 78.7319L372.051 81.7866L368.996 78.7319C368.785 78.521 368.443 78.521 368.232 78.7319C368.021 78.9427 368.021 79.2847 368.232 79.4955L371.669 82.9321ZM372.433 227.968C372.222 227.757 371.88 227.757 371.669 227.968L368.232 231.405C368.021 231.616 368.021 231.958 368.232 232.168C368.443 232.379 368.785 232.379 368.996 232.168L372.051 229.114L375.105 232.168C375.316 232.379 375.658 232.379 375.869 232.168C376.08 231.958 376.08 231.616 375.869 231.405L372.433 227.968ZM371.669 263.292C371.88 263.503 372.222 263.503 372.433 263.292L375.869 259.855C376.08 259.644 376.08 259.303 375.869 259.092C375.658 258.881 375.316 258.881 375.105 259.092L372.051 262.146L368.996 259.092C368.785 258.881 368.443 258.881 368.232 259.092C368.021 259.303 368.021 259.644 368.232 259.855L371.669 263.292ZM102.17 153.926C101.96 154.137 101.96 154.479 102.17 154.69L105.607 158.126C105.818 158.337 106.16 158.337 106.371 158.126C106.582 157.916 106.582 157.574 106.371 157.363L103.316 154.308L106.371 151.253C106.582 151.042 106.582 150.701 106.371 150.49C106.16 150.279 105.818 150.279 105.607 150.49L102.17 153.926ZM136.418 154.69C136.629 154.479 136.629 154.137 136.418 153.926L132.982 150.49C132.771 150.279 132.429 150.279 132.218 150.49C132.007 150.701 132.007 151.042 132.218 151.253L135.273 154.308L132.218 157.363C132.007 157.574 132.007 157.916 132.218 158.126C132.429 158.337 132.771 158.337 132.982 158.126L136.418 154.69ZM608.008 154.528C607.797 154.739 607.797 155.081 608.008 155.292L611.445 158.728C611.656 158.939 611.997 158.939 612.208 158.728C612.419 158.518 612.419 158.176 612.208 157.965L609.154 154.91L612.208 151.855C612.419 151.644 612.419 151.303 612.208 151.092C611.997 150.881 611.656 150.881 611.445 151.092L608.008 154.528ZM642.256 155.292C642.467 155.081 642.467 154.739 642.256 154.528L638.82 151.092C638.609 150.881 638.267 150.881 638.056 151.092C637.845 151.303 637.845 151.644 638.056 151.855L641.111 154.91L638.056 157.965C637.845 158.176 637.845 158.518 638.056 158.728C638.267 158.939 638.609 158.939 638.82 158.728L642.256 155.292ZM371.511 47.9902V82.5502H372.591V47.9902H371.511ZM371.511 228.35V262.91H372.591V228.35H371.511ZM102.552 154.848H136.036V153.768H102.552V154.848ZM608.39 155.45H641.874V154.37H608.39V155.45Z" fill="#7C52FF"/>
<path d="M136.61 139.91C136.61 137.221 136.61 135.877 137.134 134.851C137.594 133.947 138.328 133.213 139.231 132.753C140.258 132.23 141.602 132.23 144.29 132.23H291.25V144.638C291.25 147.057 291.25 148.267 290.779 149.191C290.365 150.004 289.704 150.665 288.892 151.079C287.967 151.55 286.758 151.55 284.338 151.55H136.61V139.91Z" fill="#F9008E"/>
<path d="M144.907 147.616C144.399 147.616 143.956 147.544 143.577 147.399C143.198 147.259 142.895 147.058 142.668 146.796C142.446 146.538 142.307 146.237 142.252 145.894L142.264 145.888H143.319L143.325 145.894C143.379 146.132 143.543 146.327 143.817 146.479C144.09 146.636 144.454 146.714 144.907 146.714C145.473 146.714 145.915 146.585 146.231 146.327C146.551 146.073 146.711 145.714 146.711 145.249V143.972H146.618C146.485 144.202 146.319 144.399 146.12 144.563C145.92 144.728 145.696 144.853 145.446 144.938C145.196 145.021 144.926 145.062 144.637 145.062C144.094 145.062 143.624 144.933 143.225 144.675C142.831 144.413 142.526 144.054 142.311 143.597C142.096 143.14 141.989 142.616 141.989 142.026V142.015C141.989 141.425 142.096 140.901 142.311 140.444C142.53 139.983 142.838 139.622 143.237 139.36C143.635 139.095 144.11 138.962 144.661 138.962C144.958 138.962 145.231 139.009 145.481 139.103C145.731 139.196 145.952 139.329 146.143 139.501C146.338 139.673 146.5 139.878 146.629 140.116H146.7V139.073H147.719V145.302C147.719 145.771 147.604 146.179 147.374 146.526C147.147 146.874 146.823 147.142 146.401 147.329C145.979 147.521 145.481 147.616 144.907 147.616ZM144.86 144.159C145.25 144.159 145.584 144.069 145.862 143.89C146.143 143.706 146.358 143.454 146.506 143.134C146.659 142.813 146.735 142.444 146.735 142.026V142.015C146.735 141.597 146.659 141.226 146.506 140.901C146.358 140.577 146.143 140.323 145.862 140.14C145.584 139.956 145.25 139.864 144.86 139.864C144.469 139.864 144.137 139.956 143.864 140.14C143.594 140.323 143.387 140.577 143.243 140.901C143.102 141.226 143.032 141.597 143.032 142.015V142.026C143.032 142.444 143.102 142.813 143.243 143.134C143.387 143.454 143.594 143.706 143.864 143.89C144.137 144.069 144.469 144.159 144.86 144.159ZM151.352 145.501C150.954 145.501 150.594 145.425 150.274 145.272C149.958 145.12 149.706 144.903 149.518 144.622C149.334 144.341 149.243 144.009 149.243 143.626V143.614C149.243 143.052 149.442 142.612 149.84 142.296C150.243 141.976 150.811 141.794 151.545 141.751L153.866 141.61V142.425L151.668 142.565C151.188 142.593 150.836 142.692 150.614 142.864C150.395 143.036 150.286 143.278 150.286 143.591V143.603C150.286 143.923 150.407 144.173 150.649 144.353C150.891 144.528 151.196 144.616 151.563 144.616C151.911 144.616 152.219 144.548 152.489 144.411C152.758 144.271 152.969 144.081 153.122 143.843C153.278 143.604 153.356 143.335 153.356 143.034V141.065C153.356 140.675 153.237 140.378 152.999 140.175C152.764 139.968 152.411 139.864 151.938 139.864C151.559 139.864 151.249 139.933 151.006 140.069C150.764 140.202 150.602 140.392 150.52 140.638L150.514 140.655H149.495L149.5 140.62C149.555 140.288 149.692 139.999 149.911 139.753C150.133 139.503 150.42 139.31 150.772 139.173C151.124 139.032 151.524 138.962 151.973 138.962C152.489 138.962 152.924 139.046 153.28 139.214C153.639 139.382 153.911 139.624 154.094 139.94C154.282 140.253 154.375 140.628 154.375 141.065V145.39H153.356V144.458H153.262C153.129 144.681 152.967 144.87 152.776 145.026C152.588 145.183 152.375 145.302 152.137 145.384C151.899 145.462 151.637 145.501 151.352 145.501ZM156.239 147.499V139.073H157.258V140.081H157.352C157.481 139.847 157.643 139.647 157.838 139.483C158.034 139.315 158.256 139.187 158.506 139.097C158.756 139.007 159.028 138.962 159.321 138.962C159.856 138.962 160.321 139.099 160.715 139.372C161.114 139.642 161.422 140.021 161.641 140.509C161.86 140.997 161.969 141.569 161.969 142.226V142.237C161.969 142.897 161.86 143.472 161.641 143.96C161.422 144.448 161.114 144.827 160.715 145.097C160.321 145.366 159.856 145.501 159.321 145.501C159.032 145.501 158.758 145.456 158.5 145.366C158.247 145.272 158.02 145.144 157.821 144.979C157.625 144.815 157.469 144.62 157.352 144.394H157.258V147.499H156.239ZM159.086 144.599C159.473 144.599 159.803 144.505 160.077 144.317C160.35 144.126 160.559 143.854 160.704 143.503C160.852 143.147 160.926 142.726 160.926 142.237V142.226C160.926 141.733 160.852 141.312 160.704 140.96C160.559 140.608 160.35 140.339 160.077 140.151C159.803 139.96 159.473 139.864 159.086 139.864C158.704 139.864 158.374 139.96 158.096 140.151C157.819 140.343 157.606 140.614 157.458 140.966C157.309 141.317 157.235 141.737 157.235 142.226V142.237C157.235 142.722 157.309 143.142 157.458 143.497C157.606 143.849 157.819 144.12 158.096 144.312C158.374 144.503 158.704 144.599 159.086 144.599ZM164.395 145.448C164.188 145.448 164.008 145.374 163.856 145.226C163.708 145.073 163.633 144.894 163.633 144.687C163.633 144.476 163.708 144.296 163.856 144.147C164.008 143.999 164.188 143.925 164.395 143.925C164.606 143.925 164.786 143.999 164.934 144.147C165.083 144.296 165.157 144.476 165.157 144.687C165.157 144.894 165.083 145.073 164.934 145.226C164.786 145.374 164.606 145.448 164.395 145.448ZM164.395 140.913C164.188 140.913 164.008 140.839 163.856 140.69C163.708 140.538 163.633 140.358 163.633 140.151C163.633 139.94 163.708 139.761 163.856 139.612C164.008 139.464 164.188 139.39 164.395 139.39C164.606 139.39 164.786 139.464 164.934 139.612C165.083 139.761 165.157 139.94 165.157 140.151C165.157 140.358 165.083 140.538 164.934 140.69C164.786 140.839 164.606 140.913 164.395 140.913ZM172.288 145.39L169.95 139.073H171.028L172.756 144.276H172.85L174.579 139.073H175.657L173.319 145.39H172.288ZM178.504 145.501C178.106 145.501 177.747 145.425 177.426 145.272C177.11 145.12 176.858 144.903 176.67 144.622C176.487 144.341 176.395 144.009 176.395 143.626V143.614C176.395 143.052 176.594 142.612 176.993 142.296C177.395 141.976 177.963 141.794 178.698 141.751L181.018 141.61V142.425L178.821 142.565C178.34 142.593 177.989 142.692 177.766 142.864C177.547 143.036 177.438 143.278 177.438 143.591V143.603C177.438 143.923 177.559 144.173 177.801 144.353C178.043 144.528 178.348 144.616 178.715 144.616C179.063 144.616 179.372 144.548 179.641 144.411C179.911 144.271 180.122 144.081 180.274 143.843C180.43 143.604 180.508 143.335 180.508 143.034V141.065C180.508 140.675 180.389 140.378 180.151 140.175C179.917 139.968 179.563 139.864 179.09 139.864C178.711 139.864 178.401 139.933 178.159 140.069C177.917 140.202 177.754 140.392 177.672 140.638L177.667 140.655H176.647L176.653 140.62C176.708 140.288 176.844 139.999 177.063 139.753C177.286 139.503 177.573 139.31 177.924 139.173C178.276 139.032 178.676 138.962 179.125 138.962C179.641 138.962 180.077 139.046 180.432 139.214C180.792 139.382 181.063 139.624 181.247 139.94C181.434 140.253 181.528 140.628 181.528 141.065V145.39H180.508V144.458H180.415C180.282 144.681 180.12 144.87 179.928 145.026C179.741 145.183 179.528 145.302 179.29 145.384C179.051 145.462 178.79 145.501 178.504 145.501ZM183.391 145.39V139.073H184.411V140.011H184.504C184.625 139.679 184.831 139.421 185.12 139.237C185.409 139.054 185.766 138.962 186.192 138.962C186.29 138.962 186.385 138.968 186.479 138.979C186.577 138.987 186.651 138.995 186.702 139.003V139.993C186.596 139.974 186.493 139.96 186.391 139.952C186.293 139.94 186.188 139.935 186.075 139.935C185.75 139.935 185.463 139.999 185.213 140.128C184.963 140.257 184.766 140.437 184.622 140.667C184.481 140.897 184.411 141.167 184.411 141.476V145.39H183.391ZM190.094 147.499C189.715 146.995 189.403 146.46 189.157 145.894C188.911 145.327 188.727 144.724 188.606 144.083C188.489 143.442 188.43 142.759 188.43 142.032C188.43 141.306 188.489 140.624 188.606 139.987C188.723 139.347 188.905 138.743 189.151 138.177C189.397 137.606 189.711 137.069 190.094 136.565H190.95C190.739 136.835 190.542 137.175 190.358 137.585C190.178 137.995 190.022 138.448 189.889 138.944C189.756 139.437 189.653 139.948 189.579 140.479C189.504 141.007 189.467 141.524 189.467 142.032C189.467 142.544 189.504 143.065 189.579 143.597C189.653 144.124 189.756 144.636 189.889 145.132C190.022 145.624 190.178 146.073 190.358 146.479C190.542 146.89 190.739 147.229 190.95 147.499H190.094ZM192.456 142.46V141.511H196.393V142.46H192.456ZM198.116 142.46V141.511H202.053V142.46H198.116ZM206.196 145.501C205.665 145.501 205.2 145.366 204.801 145.097C204.403 144.827 204.094 144.448 203.875 143.96C203.657 143.468 203.547 142.894 203.547 142.237V142.226C203.547 141.565 203.657 140.991 203.875 140.503C204.094 140.015 204.401 139.636 204.795 139.366C205.194 139.097 205.661 138.962 206.196 138.962C206.629 138.962 207.022 139.063 207.374 139.267C207.729 139.466 207.993 139.733 208.165 140.069H208.258V136.565H209.278V145.39H208.258V144.382H208.165C207.973 144.733 207.708 145.009 207.368 145.208C207.028 145.403 206.637 145.501 206.196 145.501ZM206.43 144.599C206.813 144.599 207.143 144.503 207.42 144.312C207.698 144.12 207.911 143.849 208.059 143.497C208.208 143.142 208.282 142.722 208.282 142.237V142.226C208.282 141.737 208.208 141.317 208.059 140.966C207.911 140.614 207.698 140.343 207.42 140.151C207.143 139.96 206.813 139.864 206.43 139.864C206.047 139.864 205.717 139.96 205.44 140.151C205.167 140.339 204.956 140.608 204.807 140.96C204.663 141.312 204.59 141.733 204.59 142.226V142.237C204.59 142.726 204.663 143.147 204.807 143.503C204.956 143.854 205.167 144.126 205.44 144.317C205.717 144.505 206.047 144.599 206.43 144.599ZM213.479 145.437C212.831 145.437 212.36 145.306 212.067 145.044C211.778 144.782 211.633 144.351 211.633 143.749V139.917H210.637V139.073H211.633V137.438H212.688V139.073H214.071V139.917H212.688V143.491C212.688 143.862 212.758 144.13 212.899 144.294C213.04 144.454 213.274 144.534 213.602 144.534C213.692 144.534 213.768 144.532 213.831 144.528C213.897 144.524 213.977 144.519 214.071 144.511V145.378C213.973 145.394 213.875 145.407 213.778 145.419C213.68 145.431 213.581 145.437 213.479 145.437ZM215.272 142.46V141.511H219.209V142.46H215.272ZM223.188 145.501C222.719 145.501 222.305 145.431 221.946 145.29C221.586 145.146 221.297 144.944 221.079 144.687C220.864 144.429 220.737 144.126 220.698 143.778H221.741C221.827 144.04 221.995 144.251 222.245 144.411C222.495 144.571 222.821 144.651 223.223 144.651C223.508 144.651 223.758 144.61 223.973 144.528C224.192 144.442 224.364 144.327 224.489 144.183C224.614 144.034 224.676 143.864 224.676 143.673V143.661C224.676 143.446 224.59 143.265 224.418 143.116C224.247 142.964 223.965 142.841 223.575 142.747L222.596 142.513C222.006 142.372 221.573 142.167 221.295 141.897C221.018 141.624 220.879 141.261 220.879 140.808V140.802C220.879 140.45 220.981 140.136 221.184 139.858C221.391 139.581 221.672 139.362 222.028 139.202C222.383 139.042 222.784 138.962 223.229 138.962C223.67 138.962 224.061 139.032 224.401 139.173C224.745 139.31 225.02 139.505 225.227 139.759C225.438 140.013 225.567 140.312 225.614 140.655H224.612C224.545 140.405 224.393 140.202 224.155 140.046C223.917 139.89 223.606 139.812 223.223 139.812C222.973 139.812 222.75 139.853 222.555 139.935C222.36 140.013 222.206 140.122 222.092 140.263C221.979 140.403 221.922 140.567 221.922 140.755V140.767C221.922 140.981 222.006 141.159 222.174 141.3C222.342 141.44 222.612 141.556 222.983 141.646L223.956 141.88C224.549 142.024 224.991 142.231 225.28 142.501C225.573 142.771 225.719 143.132 225.719 143.585V143.597C225.719 143.972 225.608 144.304 225.385 144.593C225.163 144.878 224.86 145.101 224.477 145.261C224.098 145.421 223.668 145.501 223.188 145.501ZM227.301 147.499V139.073H228.321V140.081H228.415C228.543 139.847 228.706 139.647 228.901 139.483C229.096 139.315 229.319 139.187 229.569 139.097C229.819 139.007 230.09 138.962 230.383 138.962C230.918 138.962 231.383 139.099 231.778 139.372C232.176 139.642 232.485 140.021 232.704 140.509C232.922 140.997 233.032 141.569 233.032 142.226V142.237C233.032 142.897 232.922 143.472 232.704 143.96C232.485 144.448 232.176 144.827 231.778 145.097C231.383 145.366 230.918 145.501 230.383 145.501C230.094 145.501 229.821 145.456 229.563 145.366C229.309 145.272 229.083 145.144 228.883 144.979C228.688 144.815 228.532 144.62 228.415 144.394H228.321V147.499H227.301ZM230.149 144.599C230.536 144.599 230.866 144.505 231.139 144.317C231.413 144.126 231.622 143.854 231.766 143.503C231.915 143.147 231.989 142.726 231.989 142.237V142.226C231.989 141.733 231.915 141.312 231.766 140.96C231.622 140.608 231.413 140.339 231.139 140.151C230.866 139.96 230.536 139.864 230.149 139.864C229.766 139.864 229.436 139.96 229.159 140.151C228.881 140.343 228.668 140.614 228.52 140.966C228.372 141.317 228.297 141.737 228.297 142.226V142.237C228.297 142.722 228.372 143.142 228.52 143.497C228.668 143.849 228.881 144.12 229.159 144.312C229.436 144.503 229.766 144.599 230.149 144.599ZM236.36 145.501C235.961 145.501 235.602 145.425 235.282 145.272C234.965 145.12 234.713 144.903 234.526 144.622C234.342 144.341 234.25 144.009 234.25 143.626V143.614C234.25 143.052 234.45 142.612 234.848 142.296C235.25 141.976 235.819 141.794 236.553 141.751L238.874 141.61V142.425L236.676 142.565C236.196 142.593 235.844 142.692 235.622 142.864C235.403 143.036 235.293 143.278 235.293 143.591V143.603C235.293 143.923 235.415 144.173 235.657 144.353C235.899 144.528 236.204 144.616 236.571 144.616C236.918 144.616 237.227 144.548 237.497 144.411C237.766 144.271 237.977 144.081 238.129 143.843C238.286 143.604 238.364 143.335 238.364 143.034V141.065C238.364 140.675 238.245 140.378 238.006 140.175C237.772 139.968 237.418 139.864 236.946 139.864C236.567 139.864 236.256 139.933 236.014 140.069C235.772 140.202 235.61 140.392 235.528 140.638L235.522 140.655H234.502L234.508 140.62C234.563 140.288 234.7 139.999 234.918 139.753C235.141 139.503 235.428 139.31 235.78 139.173C236.131 139.032 236.532 138.962 236.981 138.962C237.497 138.962 237.932 139.046 238.288 139.214C238.647 139.382 238.918 139.624 239.102 139.94C239.29 140.253 239.383 140.628 239.383 141.065V145.39H238.364V144.458H238.27C238.137 144.681 237.975 144.87 237.784 145.026C237.596 145.183 237.383 145.302 237.145 145.384C236.907 145.462 236.645 145.501 236.36 145.501ZM243.831 145.501C243.241 145.501 242.729 145.366 242.295 145.097C241.862 144.827 241.526 144.446 241.288 143.954C241.049 143.462 240.93 142.882 240.93 142.214V142.202C240.93 141.546 241.047 140.976 241.282 140.491C241.52 140.007 241.856 139.632 242.29 139.366C242.723 139.097 243.235 138.962 243.825 138.962C244.336 138.962 244.778 139.052 245.149 139.231C245.52 139.411 245.817 139.653 246.04 139.958C246.262 140.259 246.405 140.597 246.467 140.972L246.473 141.007H245.459L245.454 140.989C245.375 140.677 245.198 140.411 244.92 140.192C244.643 139.974 244.278 139.864 243.825 139.864C243.446 139.864 243.118 139.96 242.84 140.151C242.563 140.343 242.348 140.614 242.196 140.966C242.047 141.313 241.973 141.726 241.973 142.202V142.214C241.973 142.698 242.049 143.12 242.202 143.479C242.354 143.835 242.569 144.11 242.846 144.306C243.124 144.501 243.45 144.599 243.825 144.599C244.25 144.599 244.598 144.507 244.868 144.323C245.137 144.14 245.331 143.872 245.448 143.521L245.459 143.485L246.467 143.479L246.456 143.544C246.37 143.923 246.217 144.261 245.999 144.558C245.78 144.851 245.491 145.081 245.131 145.249C244.772 145.417 244.338 145.501 243.831 145.501ZM250.54 145.501C249.938 145.501 249.42 145.368 248.987 145.103C248.557 144.837 248.225 144.462 247.991 143.978C247.76 143.489 247.645 142.915 247.645 142.255V142.249C247.645 141.597 247.76 141.024 247.991 140.532C248.225 140.04 248.555 139.655 248.981 139.378C249.407 139.101 249.905 138.962 250.475 138.962C251.049 138.962 251.542 139.095 251.952 139.36C252.366 139.626 252.682 139.997 252.901 140.474C253.124 140.946 253.235 141.497 253.235 142.126V142.524H248.172V141.71H252.713L252.209 142.454V142.05C252.209 141.554 252.135 141.146 251.987 140.825C251.838 140.505 251.633 140.267 251.372 140.11C251.11 139.95 250.809 139.87 250.469 139.87C250.129 139.87 249.825 139.954 249.555 140.122C249.29 140.286 249.079 140.53 248.922 140.854C248.766 141.179 248.688 141.577 248.688 142.05V142.454C248.688 142.903 248.764 143.288 248.917 143.608C249.069 143.925 249.286 144.169 249.567 144.341C249.848 144.509 250.18 144.593 250.563 144.593C250.848 144.593 251.096 144.554 251.307 144.476C251.518 144.397 251.692 144.298 251.829 144.177C251.965 144.056 252.061 143.933 252.116 143.808L252.139 143.755H253.159L253.147 143.802C253.092 144.017 252.995 144.226 252.854 144.429C252.717 144.628 252.54 144.81 252.321 144.974C252.102 145.134 251.842 145.263 251.542 145.36C251.245 145.454 250.911 145.501 250.54 145.501ZM254.729 142.46V141.511H258.667V142.46H254.729ZM263.249 145.589C262.725 145.589 262.258 145.485 261.848 145.278C261.438 145.071 261.108 144.79 260.858 144.435C260.612 144.075 260.467 143.671 260.424 143.222L260.418 143.157H261.432L261.438 143.204C261.473 143.474 261.571 143.72 261.731 143.942C261.895 144.161 262.108 144.335 262.37 144.464C262.635 144.593 262.932 144.657 263.26 144.657C263.635 144.657 263.965 144.575 264.25 144.411C264.536 144.243 264.758 144.013 264.918 143.72C265.079 143.427 265.159 143.091 265.159 142.712V142.7C265.159 142.325 265.077 141.993 264.913 141.704C264.752 141.411 264.532 141.183 264.25 141.019C263.969 140.854 263.645 140.772 263.278 140.772C262.997 140.772 262.737 140.815 262.499 140.901C262.264 140.987 262.055 141.116 261.872 141.288C261.797 141.358 261.727 141.435 261.661 141.517C261.598 141.599 261.54 141.69 261.485 141.792H260.571L261.016 136.935H265.721V137.878H261.848L261.561 140.737H261.655C261.842 140.452 262.094 140.235 262.411 140.087C262.727 139.935 263.077 139.858 263.459 139.858C263.991 139.858 264.461 139.981 264.872 140.228C265.282 140.47 265.604 140.804 265.838 141.229C266.073 141.651 266.19 142.136 266.19 142.683V142.694C266.19 143.261 266.063 143.763 265.809 144.2C265.559 144.634 265.213 144.974 264.772 145.22C264.331 145.466 263.823 145.589 263.249 145.589ZM270.667 145.589C270.143 145.589 269.676 145.485 269.266 145.278C268.856 145.071 268.526 144.79 268.276 144.435C268.03 144.075 267.885 143.671 267.842 143.222L267.836 143.157H268.85L268.856 143.204C268.891 143.474 268.989 143.72 269.149 143.942C269.313 144.161 269.526 144.335 269.788 144.464C270.053 144.593 270.35 144.657 270.678 144.657C271.053 144.657 271.383 144.575 271.668 144.411C271.954 144.243 272.176 144.013 272.336 143.72C272.497 143.427 272.577 143.091 272.577 142.712V142.7C272.577 142.325 272.495 141.993 272.331 141.704C272.17 141.411 271.95 141.183 271.668 141.019C271.387 140.854 271.063 140.772 270.696 140.772C270.415 140.772 270.155 140.815 269.917 140.901C269.682 140.987 269.473 141.116 269.29 141.288C269.215 141.358 269.145 141.435 269.079 141.517C269.016 141.599 268.958 141.69 268.903 141.792H267.989L268.434 136.935H273.139V137.878H269.266L268.979 140.737H269.073C269.26 140.452 269.512 140.235 269.829 140.087C270.145 139.935 270.495 139.858 270.877 139.858C271.409 139.858 271.879 139.981 272.29 140.228C272.7 140.47 273.022 140.804 273.256 141.229C273.491 141.651 273.608 142.136 273.608 142.683V142.694C273.608 143.261 273.481 143.763 273.227 144.2C272.977 144.634 272.631 144.974 272.19 145.22C271.749 145.466 271.241 145.589 270.667 145.589ZM278.137 145.589C277.512 145.589 276.977 145.409 276.532 145.05C276.09 144.69 275.75 144.181 275.512 143.521C275.274 142.856 275.155 142.071 275.155 141.165V141.153C275.155 140.247 275.274 139.464 275.512 138.804C275.75 138.144 276.09 137.634 276.532 137.274C276.977 136.915 277.512 136.735 278.137 136.735C278.762 136.735 279.297 136.915 279.743 137.274C280.188 137.634 280.53 138.144 280.768 138.804C281.01 139.464 281.131 140.247 281.131 141.153V141.165C281.131 142.071 281.01 142.856 280.768 143.521C280.53 144.181 280.188 144.69 279.743 145.05C279.297 145.409 278.762 145.589 278.137 145.589ZM278.137 144.669C278.543 144.669 278.889 144.526 279.174 144.241C279.463 143.956 279.684 143.552 279.836 143.028C279.993 142.505 280.071 141.884 280.071 141.165V141.153C280.071 140.435 279.993 139.815 279.836 139.296C279.684 138.772 279.463 138.37 279.174 138.089C278.889 137.804 278.543 137.661 278.137 137.661C277.735 137.661 277.389 137.804 277.1 138.089C276.815 138.37 276.596 138.772 276.444 139.296C276.292 139.815 276.215 140.435 276.215 141.153V141.165C276.215 141.884 276.292 142.505 276.444 143.028C276.596 143.552 276.815 143.956 277.1 144.241C277.389 144.526 277.735 144.669 278.137 144.669ZM283.422 147.499H282.567C282.778 147.229 282.973 146.89 283.153 146.479C283.336 146.073 283.495 145.624 283.627 145.132C283.76 144.636 283.864 144.124 283.938 143.597C284.012 143.065 284.049 142.544 284.049 142.032C284.049 141.524 284.012 141.007 283.938 140.479C283.864 139.948 283.76 139.437 283.627 138.944C283.495 138.448 283.336 137.995 283.153 137.585C282.973 137.175 282.778 136.835 282.567 136.565H283.422C283.805 137.069 284.12 137.606 284.366 138.177C284.612 138.743 284.793 139.347 284.911 139.987C285.028 140.624 285.086 141.306 285.086 142.032C285.086 142.759 285.026 143.442 284.905 144.083C284.788 144.724 284.606 145.327 284.36 145.894C284.118 146.46 283.805 146.995 283.422 147.499Z" fill="white"/>
<path d="M102.051 58.3582C102.051 54.7291 102.051 52.9145 102.757 51.5284C103.378 50.3091 104.37 49.3178 105.589 48.6965C106.975 47.9902 108.79 47.9902 112.419 47.9902H280.691V60.3982C280.691 62.8177 280.691 64.0274 280.22 64.9515C279.806 65.7643 279.145 66.4252 278.332 66.8394C277.408 67.3102 276.198 67.3102 273.779 67.3102H102.051V58.3582Z" fill="#7C52FF"/>
<path d="M107.388 63.2595V54.8337H108.408V55.8416H108.501C108.63 55.6072 108.792 55.408 108.988 55.2439C109.183 55.0759 109.406 54.947 109.656 54.8572C109.906 54.7673 110.177 54.7224 110.47 54.7224C111.005 54.7224 111.47 54.8591 111.865 55.1326C112.263 55.4021 112.572 55.781 112.791 56.2693C113.009 56.7576 113.119 57.3298 113.119 57.9861V57.9978C113.119 58.658 113.009 59.2322 112.791 59.7205C112.572 60.2087 112.263 60.5876 111.865 60.8572C111.47 61.1267 111.005 61.2615 110.47 61.2615C110.181 61.2615 109.908 61.2166 109.65 61.1267C109.396 61.033 109.169 60.9041 108.97 60.74C108.775 60.5759 108.619 60.3806 108.501 60.1541H108.408V63.2595H107.388ZM110.236 60.3591C110.623 60.3591 110.953 60.2654 111.226 60.0779C111.5 59.8865 111.708 59.615 111.853 59.2634C112.001 58.908 112.076 58.4861 112.076 57.9978V57.9861C112.076 57.4939 112.001 57.072 111.853 56.7205C111.708 56.3689 111.5 56.0994 111.226 55.9119C110.953 55.7205 110.623 55.6248 110.236 55.6248C109.853 55.6248 109.523 55.7205 109.246 55.9119C108.968 56.1033 108.755 56.3748 108.607 56.7263C108.458 57.0779 108.384 57.4978 108.384 57.9861V57.9978C108.384 58.4822 108.458 58.9021 108.607 59.2576C108.755 59.6091 108.968 59.8806 109.246 60.072C109.523 60.2634 109.853 60.3591 110.236 60.3591ZM116.447 61.2615C116.048 61.2615 115.689 61.1853 115.369 61.033C115.052 60.8806 114.8 60.6638 114.613 60.3826C114.429 60.1013 114.337 59.7693 114.337 59.3865V59.3748C114.337 58.8123 114.537 58.3728 114.935 58.0564C115.337 57.7361 115.906 57.5544 116.64 57.5115L118.96 57.3708V58.1853L116.763 58.3259C116.283 58.3533 115.931 58.4529 115.708 58.6248C115.49 58.7966 115.38 59.0388 115.38 59.3513V59.363C115.38 59.6833 115.501 59.9333 115.744 60.113C115.986 60.2888 116.291 60.3767 116.658 60.3767C117.005 60.3767 117.314 60.3083 117.583 60.1716C117.853 60.031 118.064 59.8416 118.216 59.6033C118.373 59.365 118.451 59.0955 118.451 58.7947V56.8259C118.451 56.4353 118.332 56.1384 118.093 55.9353C117.859 55.7283 117.505 55.6248 117.033 55.6248C116.654 55.6248 116.343 55.6931 116.101 55.8298C115.859 55.9626 115.697 56.1521 115.615 56.3982L115.609 56.4158H114.589L114.595 56.3806C114.65 56.0486 114.787 55.7595 115.005 55.5134C115.228 55.2634 115.515 55.0701 115.867 54.9333C116.218 54.7927 116.619 54.7224 117.068 54.7224C117.583 54.7224 118.019 54.8064 118.375 54.9744C118.734 55.1423 119.005 55.3845 119.189 55.7009C119.376 56.0134 119.47 56.3884 119.47 56.8259V61.1501H118.451V60.2185H118.357C118.224 60.4412 118.062 60.6306 117.871 60.7869C117.683 60.9431 117.47 61.0623 117.232 61.1443C116.994 61.2224 116.732 61.2615 116.447 61.2615ZM123.666 61.2615C123.134 61.2615 122.669 61.1267 122.271 60.8572C121.873 60.5876 121.564 60.2087 121.345 59.7205C121.126 59.2283 121.017 58.6541 121.017 57.9978V57.9861C121.017 57.3259 121.126 56.7517 121.345 56.2634C121.564 55.7751 121.871 55.3962 122.265 55.1267C122.664 54.8572 123.13 54.7224 123.666 54.7224C124.099 54.7224 124.492 54.824 124.843 55.0271C125.199 55.2263 125.462 55.4939 125.634 55.8298H125.728V52.3259H126.748V61.1501H125.728V60.1423H125.634C125.443 60.4939 125.177 60.7693 124.837 60.9685C124.498 61.1638 124.107 61.2615 123.666 61.2615ZM123.9 60.3591C124.283 60.3591 124.613 60.2634 124.89 60.072C125.167 59.8806 125.38 59.6091 125.529 59.2576C125.677 58.9021 125.751 58.4822 125.751 57.9978V57.9861C125.751 57.4978 125.677 57.0779 125.529 56.7263C125.38 56.3748 125.167 56.1033 124.89 55.9119C124.613 55.7205 124.283 55.6248 123.9 55.6248C123.517 55.6248 123.187 55.7205 122.91 55.9119C122.636 56.0994 122.425 56.3689 122.277 56.7205C122.132 57.072 122.06 57.4939 122.06 57.9861V57.9978C122.06 58.4861 122.132 58.908 122.277 59.2634C122.425 59.615 122.636 59.8865 122.91 60.0779C123.187 60.2654 123.517 60.3591 123.9 60.3591ZM131.037 61.2615C130.505 61.2615 130.041 61.1267 129.642 60.8572C129.244 60.5876 128.935 60.2087 128.716 59.7205C128.498 59.2283 128.388 58.6541 128.388 57.9978V57.9861C128.388 57.3259 128.498 56.7517 128.716 56.2634C128.935 55.7751 129.242 55.3962 129.636 55.1267C130.035 54.8572 130.501 54.7224 131.037 54.7224C131.47 54.7224 131.863 54.824 132.214 55.0271C132.57 55.2263 132.833 55.4939 133.005 55.8298H133.099V52.3259H134.119V61.1501H133.099V60.1423H133.005C132.814 60.4939 132.548 60.7693 132.208 60.9685C131.869 61.1638 131.478 61.2615 131.037 61.2615ZM131.271 60.3591C131.654 60.3591 131.984 60.2634 132.261 60.072C132.539 59.8806 132.751 59.6091 132.9 59.2576C133.048 58.9021 133.123 58.4822 133.123 57.9978V57.9861C133.123 57.4978 133.048 57.0779 132.9 56.7263C132.751 56.3748 132.539 56.1033 132.261 55.9119C131.984 55.7205 131.654 55.6248 131.271 55.6248C130.888 55.6248 130.558 55.7205 130.281 55.9119C130.007 56.0994 129.796 56.3689 129.648 56.7205C129.503 57.072 129.431 57.4939 129.431 57.9861V57.9978C129.431 58.4861 129.503 58.908 129.648 59.2634C129.796 59.615 130.007 59.8865 130.281 60.0779C130.558 60.2654 130.888 60.3591 131.271 60.3591ZM136.099 61.1501V54.8337H137.119V61.1501H136.099ZM136.615 53.615C136.423 53.615 136.257 53.5466 136.117 53.4099C135.98 53.2693 135.912 53.1033 135.912 52.9119C135.912 52.7166 135.98 52.5505 136.117 52.4138C136.257 52.2771 136.423 52.2087 136.615 52.2087C136.81 52.2087 136.976 52.2771 137.113 52.4138C137.25 52.5505 137.318 52.7166 137.318 52.9119C137.318 53.1033 137.25 53.2693 137.113 53.4099C136.976 53.5466 136.81 53.615 136.615 53.615ZM139.041 61.1501V54.8337H140.06V55.783H140.154C140.314 55.447 140.544 55.1873 140.845 55.0037C141.146 54.8162 141.529 54.7224 141.994 54.7224C142.705 54.7224 143.25 54.9255 143.628 55.3318C144.011 55.7341 144.203 56.3103 144.203 57.0603V61.1501H143.183V57.3064C143.183 56.7361 143.062 56.3142 142.82 56.0408C142.582 55.7634 142.21 55.6248 141.707 55.6248C141.371 55.6248 141.08 55.697 140.833 55.8416C140.587 55.9861 140.396 56.1912 140.259 56.4568C140.126 56.7224 140.06 57.0408 140.06 57.4119V61.1501H139.041ZM148.65 63.3767C148.142 63.3767 147.699 63.3044 147.32 63.1599C146.941 63.0193 146.638 62.8181 146.412 62.5564C146.189 62.2986 146.05 61.9978 145.996 61.6541L146.007 61.6482H147.062L147.068 61.6541C147.123 61.8923 147.287 62.0876 147.56 62.24C147.833 62.3962 148.197 62.4744 148.65 62.4744C149.216 62.4744 149.658 62.3455 149.974 62.0876C150.294 61.8337 150.455 61.4744 150.455 61.0095V59.7322H150.361C150.228 59.9626 150.062 60.1599 149.863 60.324C149.664 60.488 149.439 60.613 149.189 60.699C148.939 60.781 148.669 60.822 148.38 60.822C147.837 60.822 147.367 60.6931 146.968 60.4353C146.574 60.1736 146.269 59.8142 146.054 59.3572C145.839 58.9001 145.732 58.3767 145.732 57.7869V57.7751C145.732 57.1853 145.839 56.6619 146.054 56.2048C146.273 55.7439 146.582 55.3826 146.98 55.1208C147.378 54.8552 147.853 54.7224 148.404 54.7224C148.701 54.7224 148.974 54.7693 149.224 54.863C149.474 54.9568 149.695 55.0896 149.886 55.2615C150.082 55.4333 150.244 55.6384 150.373 55.8767H150.443V54.8337H151.462V61.0623C151.462 61.531 151.347 61.9392 151.117 62.2869C150.89 62.6345 150.566 62.9021 150.144 63.0896C149.722 63.281 149.224 63.3767 148.65 63.3767ZM148.603 59.9197C148.994 59.9197 149.328 59.8298 149.605 59.6501C149.886 59.4666 150.101 59.2146 150.25 58.8943C150.402 58.574 150.478 58.2048 150.478 57.7869V57.7751C150.478 57.3572 150.402 56.9861 150.25 56.6619C150.101 56.3376 149.886 56.0837 149.605 55.9001C149.328 55.7166 148.994 55.6248 148.603 55.6248C148.212 55.6248 147.88 55.7166 147.607 55.9001C147.337 56.0837 147.13 56.3376 146.986 56.6619C146.845 56.9861 146.775 57.3572 146.775 57.7751V57.7869C146.775 58.2048 146.845 58.574 146.986 58.8943C147.13 59.2146 147.337 59.4666 147.607 59.6501C147.88 59.8298 148.212 59.9197 148.603 59.9197ZM154.193 61.2087C153.986 61.2087 153.806 61.1345 153.654 60.9861C153.505 60.8337 153.431 60.6541 153.431 60.447C153.431 60.2361 153.505 60.0564 153.654 59.908C153.806 59.7595 153.986 59.6853 154.193 59.6853C154.404 59.6853 154.583 59.7595 154.732 59.908C154.88 60.0564 154.955 60.2361 154.955 60.447C154.955 60.6541 154.88 60.8337 154.732 60.9861C154.583 61.1345 154.404 61.2087 154.193 61.2087ZM154.193 56.6736C153.986 56.6736 153.806 56.5994 153.654 56.4509C153.505 56.2986 153.431 56.1189 153.431 55.9119C153.431 55.7009 153.505 55.5212 153.654 55.3728C153.806 55.2244 153.986 55.1501 154.193 55.1501C154.404 55.1501 154.583 55.2244 154.732 55.3728C154.88 55.5212 154.955 55.7009 154.955 55.9119C154.955 56.1189 154.88 56.2986 154.732 56.4509C154.583 56.5994 154.404 56.6736 154.193 56.6736ZM162.085 61.1501L159.748 54.8337H160.826L162.554 60.0369H162.648L164.376 54.8337H165.455L163.117 61.1501H162.085ZM168.302 61.2615C167.904 61.2615 167.544 61.1853 167.224 61.033C166.908 60.8806 166.656 60.6638 166.468 60.3826C166.285 60.1013 166.193 59.7693 166.193 59.3865V59.3748C166.193 58.8123 166.392 58.3728 166.791 58.0564C167.193 57.7361 167.761 57.5544 168.496 57.5115L170.816 57.3708V58.1853L168.619 58.3259C168.138 58.3533 167.787 58.4529 167.564 58.6248C167.345 58.7966 167.236 59.0388 167.236 59.3513V59.363C167.236 59.6833 167.357 59.9333 167.599 60.113C167.841 60.2888 168.146 60.3767 168.513 60.3767C168.861 60.3767 169.169 60.3083 169.439 60.1716C169.708 60.031 169.919 59.8416 170.072 59.6033C170.228 59.365 170.306 59.0955 170.306 58.7947V56.8259C170.306 56.4353 170.187 56.1384 169.949 55.9353C169.714 55.7283 169.361 55.6248 168.888 55.6248C168.509 55.6248 168.199 55.6931 167.957 55.8298C167.714 55.9626 167.552 56.1521 167.47 56.3982L167.464 56.4158H166.445L166.451 56.3806C166.505 56.0486 166.642 55.7595 166.861 55.5134C167.083 55.2634 167.371 55.0701 167.722 54.9333C168.074 54.7927 168.474 54.7224 168.923 54.7224C169.439 54.7224 169.875 54.8064 170.23 54.9744C170.589 55.1423 170.861 55.3845 171.044 55.7009C171.232 56.0134 171.326 56.3884 171.326 56.8259V61.1501H170.306V60.2185H170.212C170.08 60.4412 169.917 60.6306 169.726 60.7869C169.539 60.9431 169.326 61.0623 169.087 61.1443C168.849 61.2224 168.587 61.2615 168.302 61.2615ZM173.189 61.1501V54.8337H174.208V55.7712H174.302C174.423 55.4392 174.628 55.1814 174.917 54.9978C175.207 54.8142 175.564 54.7224 175.99 54.7224C176.087 54.7224 176.183 54.7283 176.277 54.74C176.375 54.7478 176.449 54.7556 176.5 54.7634V55.7537C176.394 55.7341 176.291 55.7205 176.189 55.7126C176.091 55.7009 175.986 55.6951 175.873 55.6951C175.548 55.6951 175.261 55.7595 175.011 55.8884C174.761 56.0173 174.564 56.197 174.419 56.4275C174.279 56.658 174.208 56.9275 174.208 57.2361V61.1501H173.189ZM179.892 63.2595C179.513 62.7556 179.201 62.2205 178.955 61.6541C178.708 61.0876 178.525 60.4841 178.404 59.8435C178.287 59.2029 178.228 58.5193 178.228 57.7927C178.228 57.0662 178.287 56.3845 178.404 55.7478C178.521 55.1072 178.703 54.5037 178.949 53.9373C179.195 53.3669 179.509 52.8298 179.892 52.3259H180.748C180.537 52.5955 180.339 52.9353 180.156 53.3455C179.976 53.7556 179.82 54.2087 179.687 54.7048C179.554 55.197 179.451 55.7087 179.376 56.24C179.302 56.7673 179.265 57.2849 179.265 57.7927C179.265 58.3044 179.302 58.8259 179.376 59.3572C179.451 59.8845 179.554 60.3962 179.687 60.8923C179.82 61.3845 179.976 61.8337 180.156 62.24C180.339 62.6501 180.537 62.99 180.748 63.2595H179.892ZM182.253 58.2205V57.2712H186.191V58.2205H182.253ZM187.914 58.2205V57.2712H191.851V58.2205H187.914ZM195.994 61.2615C195.462 61.2615 194.998 61.1267 194.599 60.8572C194.201 60.5876 193.892 60.2087 193.673 59.7205C193.455 59.2283 193.345 58.6541 193.345 57.9978V57.9861C193.345 57.3259 193.455 56.7517 193.673 56.2634C193.892 55.7751 194.199 55.3962 194.593 55.1267C194.992 54.8572 195.458 54.7224 195.994 54.7224C196.427 54.7224 196.82 54.824 197.171 55.0271C197.527 55.2263 197.791 55.4939 197.962 55.8298H198.056V52.3259H199.076V61.1501H198.056V60.1423H197.962C197.771 60.4939 197.505 60.7693 197.166 60.9685C196.826 61.1638 196.435 61.2615 195.994 61.2615ZM196.228 60.3591C196.611 60.3591 196.941 60.2634 197.218 60.072C197.496 59.8806 197.708 59.6091 197.857 59.2576C198.005 58.9021 198.08 58.4822 198.08 57.9978V57.9861C198.08 57.4978 198.005 57.0779 197.857 56.7263C197.708 56.3748 197.496 56.1033 197.218 55.9119C196.941 55.7205 196.611 55.6248 196.228 55.6248C195.845 55.6248 195.515 55.7205 195.238 55.9119C194.964 56.0994 194.753 56.3689 194.605 56.7205C194.46 57.072 194.388 57.4939 194.388 57.9861V57.9978C194.388 58.4861 194.46 58.908 194.605 59.2634C194.753 59.615 194.964 59.8865 195.238 60.0779C195.515 60.2654 195.845 60.3591 196.228 60.3591ZM203.277 61.197C202.628 61.197 202.158 61.0662 201.865 60.8044C201.576 60.5427 201.431 60.1111 201.431 59.5095V55.6775H200.435V54.8337H201.431V53.199H202.486V54.8337H203.869V55.6775H202.486V59.2517C202.486 59.6228 202.556 59.8904 202.697 60.0544C202.837 60.2146 203.072 60.2947 203.4 60.2947C203.49 60.2947 203.566 60.2927 203.628 60.2888C203.695 60.2849 203.775 60.2791 203.869 60.2712V61.1384C203.771 61.1541 203.673 61.1677 203.576 61.1794C203.478 61.1912 203.378 61.197 203.277 61.197ZM205.07 58.2205V57.2712H209.007V58.2205H205.07ZM212.986 61.2615C212.517 61.2615 212.103 61.1912 211.744 61.0505C211.384 60.906 211.095 60.7048 210.876 60.447C210.662 60.1892 210.535 59.8865 210.496 59.5388H211.539C211.625 59.8005 211.792 60.0115 212.042 60.1716C212.292 60.3318 212.619 60.4119 213.021 60.4119C213.306 60.4119 213.556 60.3708 213.771 60.2888C213.99 60.2029 214.162 60.0876 214.287 59.9431C214.412 59.7947 214.474 59.6248 214.474 59.4333V59.4216C214.474 59.2068 214.388 59.0251 214.216 58.8767C214.044 58.7244 213.763 58.6013 213.373 58.5076L212.394 58.2732C211.804 58.1326 211.371 57.9275 211.093 57.658C210.816 57.3845 210.677 57.0212 210.677 56.5681V56.5623C210.677 56.2107 210.779 55.8962 210.982 55.6189C211.189 55.3416 211.47 55.1228 211.826 54.9626C212.181 54.8025 212.582 54.7224 213.027 54.7224C213.468 54.7224 213.859 54.7927 214.199 54.9333C214.542 55.0701 214.818 55.2654 215.025 55.5193C215.236 55.7732 215.365 56.072 215.412 56.4158H214.41C214.343 56.1658 214.191 55.9626 213.953 55.8064C213.714 55.6501 213.404 55.572 213.021 55.572C212.771 55.572 212.548 55.613 212.353 55.6951C212.158 55.7732 212.003 55.8826 211.89 56.0232C211.777 56.1638 211.72 56.3279 211.72 56.5154V56.5271C211.72 56.7419 211.804 56.9197 211.972 57.0603C212.14 57.2009 212.41 57.3162 212.781 57.406L213.753 57.6404C214.347 57.7849 214.789 57.9919 215.078 58.2615C215.371 58.531 215.517 58.8923 215.517 59.3455V59.3572C215.517 59.7322 215.406 60.0642 215.183 60.3533C214.96 60.6384 214.658 60.8611 214.275 61.0212C213.896 61.1814 213.466 61.2615 212.986 61.2615ZM217.099 63.2595V54.8337H218.119V55.8416H218.212C218.341 55.6072 218.503 55.408 218.699 55.2439C218.894 55.0759 219.117 54.947 219.367 54.8572C219.617 54.7673 219.888 54.7224 220.181 54.7224C220.716 54.7224 221.181 54.8591 221.576 55.1326C221.974 55.4021 222.283 55.781 222.501 56.2693C222.72 56.7576 222.83 57.3298 222.83 57.9861V57.9978C222.83 58.658 222.72 59.2322 222.501 59.7205C222.283 60.2087 221.974 60.5876 221.576 60.8572C221.181 61.1267 220.716 61.2615 220.181 61.2615C219.892 61.2615 219.619 61.2166 219.361 61.1267C219.107 61.033 218.88 60.9041 218.681 60.74C218.486 60.5759 218.33 60.3806 218.212 60.1541H218.119V63.2595H217.099ZM219.947 60.3591C220.333 60.3591 220.664 60.2654 220.937 60.0779C221.21 59.8865 221.419 59.615 221.564 59.2634C221.712 58.908 221.787 58.4861 221.787 57.9978V57.9861C221.787 57.4939 221.712 57.072 221.564 56.7205C221.419 56.3689 221.21 56.0994 220.937 55.9119C220.664 55.7205 220.333 55.6248 219.947 55.6248C219.564 55.6248 219.234 55.7205 218.957 55.9119C218.679 56.1033 218.466 56.3748 218.318 56.7263C218.169 57.0779 218.095 57.4978 218.095 57.9861V57.9978C218.095 58.4822 218.169 58.9021 218.318 59.2576C218.466 59.6091 218.679 59.8806 218.957 60.072C219.234 60.2634 219.564 60.3591 219.947 60.3591ZM226.158 61.2615C225.759 61.2615 225.4 61.1853 225.08 61.033C224.763 60.8806 224.511 60.6638 224.324 60.3826C224.14 60.1013 224.048 59.7693 224.048 59.3865V59.3748C224.048 58.8123 224.248 58.3728 224.646 58.0564C225.048 57.7361 225.617 57.5544 226.351 57.5115L228.671 57.3708V58.1853L226.474 58.3259C225.994 58.3533 225.642 58.4529 225.419 58.6248C225.201 58.7966 225.091 59.0388 225.091 59.3513V59.363C225.091 59.6833 225.212 59.9333 225.455 60.113C225.697 60.2888 226.001 60.3767 226.369 60.3767C226.716 60.3767 227.025 60.3083 227.294 60.1716C227.564 60.031 227.775 59.8416 227.927 59.6033C228.083 59.365 228.162 59.0955 228.162 58.7947V56.8259C228.162 56.4353 228.042 56.1384 227.804 55.9353C227.57 55.7283 227.216 55.6248 226.744 55.6248C226.365 55.6248 226.054 55.6931 225.812 55.8298C225.57 55.9626 225.408 56.1521 225.326 56.3982L225.32 56.4158H224.3L224.306 56.3806C224.361 56.0486 224.498 55.7595 224.716 55.5134C224.939 55.2634 225.226 55.0701 225.578 54.9333C225.929 54.7927 226.33 54.7224 226.779 54.7224C227.294 54.7224 227.73 54.8064 228.085 54.9744C228.445 55.1423 228.716 55.3845 228.9 55.7009C229.087 56.0134 229.181 56.3884 229.181 56.8259V61.1501H228.162V60.2185H228.068C227.935 60.4412 227.773 60.6306 227.582 60.7869C227.394 60.9431 227.181 61.0623 226.943 61.1443C226.705 61.2224 226.443 61.2615 226.158 61.2615ZM233.628 61.2615C233.039 61.2615 232.527 61.1267 232.093 60.8572C231.66 60.5876 231.324 60.2068 231.085 59.7146C230.847 59.2224 230.728 58.6423 230.728 57.9744V57.9626C230.728 57.3064 230.845 56.7361 231.08 56.2517C231.318 55.7673 231.654 55.3923 232.087 55.1267C232.521 54.8572 233.033 54.7224 233.623 54.7224C234.134 54.7224 234.576 54.8123 234.947 54.9919C235.318 55.1716 235.615 55.4138 235.837 55.7185C236.06 56.0193 236.203 56.3572 236.265 56.7322L236.271 56.7673H235.257L235.251 56.7498C235.173 56.4373 234.996 56.1716 234.718 55.9529C234.441 55.7341 234.076 55.6248 233.623 55.6248C233.244 55.6248 232.916 55.7205 232.638 55.9119C232.361 56.1033 232.146 56.3748 231.994 56.7263C231.845 57.074 231.771 57.4861 231.771 57.9626V57.9744C231.771 58.4587 231.847 58.8806 232 59.24C232.152 59.5955 232.367 59.8708 232.644 60.0662C232.921 60.2615 233.248 60.3591 233.623 60.3591C234.048 60.3591 234.396 60.2673 234.666 60.0837C234.935 59.9001 235.128 59.6326 235.246 59.281L235.257 59.2458L236.265 59.24L236.253 59.3044C236.167 59.6833 236.015 60.0212 235.796 60.3181C235.578 60.6111 235.289 60.8416 234.929 61.0095C234.57 61.1775 234.136 61.2615 233.628 61.2615ZM240.337 61.2615C239.736 61.2615 239.218 61.1287 238.785 60.863C238.355 60.5974 238.023 60.2224 237.789 59.738C237.558 59.2498 237.443 58.6755 237.443 58.0154V58.0095C237.443 57.3572 237.558 56.7849 237.789 56.2927C238.023 55.8005 238.353 55.4158 238.779 55.1384C239.205 54.8611 239.703 54.7224 240.273 54.7224C240.847 54.7224 241.339 54.8552 241.75 55.1208C242.164 55.3865 242.48 55.7576 242.699 56.2341C242.921 56.7068 243.033 57.2576 243.033 57.8865V58.2849H237.97V57.4705H242.511L242.007 58.2146V57.8103C242.007 57.3142 241.933 56.906 241.785 56.5857C241.636 56.2654 241.431 56.0271 241.169 55.8708C240.908 55.7107 240.607 55.6306 240.267 55.6306C239.927 55.6306 239.623 55.7146 239.353 55.8826C239.087 56.0466 238.876 56.2908 238.72 56.615C238.564 56.9392 238.486 57.3376 238.486 57.8103V58.2146C238.486 58.6638 238.562 59.0486 238.714 59.3689C238.867 59.6853 239.083 59.9294 239.365 60.1013C239.646 60.2693 239.978 60.3533 240.361 60.3533C240.646 60.3533 240.894 60.3142 241.105 60.2361C241.316 60.158 241.49 60.0583 241.626 59.9373C241.763 59.8162 241.859 59.6931 241.914 59.5681L241.937 59.5154H242.957L242.945 59.5623C242.89 59.7771 242.792 59.9861 242.652 60.1892C242.515 60.3884 242.337 60.5701 242.119 60.7341C241.9 60.8943 241.64 61.0232 241.339 61.1208C241.042 61.2146 240.708 61.2615 240.337 61.2615ZM244.527 58.2205V57.2712H248.464V58.2205H244.527ZM253.046 61.3494C252.523 61.3494 252.056 61.2458 251.646 61.0388C251.236 60.8318 250.906 60.5505 250.656 60.1951C250.41 59.8357 250.265 59.4314 250.222 58.9822L250.216 58.9177H251.23L251.236 58.9646C251.271 59.2341 251.369 59.4802 251.529 59.7029C251.693 59.9216 251.906 60.0955 252.167 60.2244C252.433 60.3533 252.73 60.4177 253.058 60.4177C253.433 60.4177 253.763 60.3357 254.048 60.1716C254.333 60.0037 254.556 59.7732 254.716 59.4802C254.876 59.1873 254.957 58.8513 254.957 58.4724V58.4607C254.957 58.0857 254.875 57.7537 254.71 57.4646C254.55 57.1716 254.33 56.9431 254.048 56.7791C253.767 56.615 253.443 56.533 253.076 56.533C252.794 56.533 252.535 56.5759 252.296 56.6619C252.062 56.7478 251.853 56.8767 251.669 57.0486C251.595 57.1189 251.525 57.1951 251.458 57.2771C251.396 57.3591 251.337 57.4509 251.283 57.5525H250.369L250.814 52.6951H255.519V53.6384H251.646L251.359 56.4978H251.453C251.64 56.2126 251.892 55.9958 252.208 55.8474C252.525 55.6951 252.875 55.6189 253.257 55.6189C253.789 55.6189 254.259 55.7419 254.669 55.988C255.08 56.2302 255.402 56.5642 255.636 56.99C255.871 57.4119 255.988 57.8962 255.988 58.4431V58.4548C255.988 59.0212 255.861 59.5232 255.607 59.9607C255.357 60.3943 255.011 60.7341 254.57 60.9802C254.128 61.2263 253.621 61.3494 253.046 61.3494ZM260.464 61.3494C259.941 61.3494 259.474 61.2458 259.064 61.0388C258.654 60.8318 258.324 60.5505 258.074 60.1951C257.828 59.8357 257.683 59.4314 257.64 58.9822L257.634 58.9177H258.648L258.654 58.9646C258.689 59.2341 258.787 59.4802 258.947 59.7029C259.111 59.9216 259.324 60.0955 259.585 60.2244C259.851 60.3533 260.148 60.4177 260.476 60.4177C260.851 60.4177 261.181 60.3357 261.466 60.1716C261.751 60.0037 261.974 59.7732 262.134 59.4802C262.294 59.1873 262.375 58.8513 262.375 58.4724V58.4607C262.375 58.0857 262.292 57.7537 262.128 57.4646C261.968 57.1716 261.748 56.9431 261.466 56.7791C261.185 56.615 260.861 56.533 260.494 56.533C260.212 56.533 259.953 56.5759 259.714 56.6619C259.48 56.7478 259.271 56.8767 259.087 57.0486C259.013 57.1189 258.943 57.1951 258.876 57.2771C258.814 57.3591 258.755 57.4509 258.701 57.5525H257.787L258.232 52.6951H262.937V53.6384H259.064L258.777 56.4978H258.871C259.058 56.2126 259.31 55.9958 259.626 55.8474C259.943 55.6951 260.292 55.6189 260.675 55.6189C261.207 55.6189 261.677 55.7419 262.087 55.988C262.498 56.2302 262.82 56.5642 263.054 56.99C263.289 57.4119 263.406 57.8962 263.406 58.4431V58.4548C263.406 59.0212 263.279 59.5232 263.025 59.9607C262.775 60.3943 262.429 60.7341 261.988 60.9802C261.546 61.2263 261.039 61.3494 260.464 61.3494ZM267.935 61.3494C267.31 61.3494 266.775 61.1697 266.33 60.8103C265.888 60.4509 265.548 59.9412 265.31 59.281C265.072 58.6169 264.953 57.8318 264.953 56.9255V56.9138C264.953 56.0076 265.072 55.2244 265.31 54.5642C265.548 53.9041 265.888 53.3943 266.33 53.0349C266.775 52.6755 267.31 52.4958 267.935 52.4958C268.56 52.4958 269.095 52.6755 269.541 53.0349C269.986 53.3943 270.328 53.9041 270.566 54.5642C270.808 55.2244 270.929 56.0076 270.929 56.9138V56.9255C270.929 57.8318 270.808 58.6169 270.566 59.281C270.328 59.9412 269.986 60.4509 269.541 60.8103C269.095 61.1697 268.56 61.3494 267.935 61.3494ZM267.935 60.4294C268.341 60.4294 268.687 60.2869 268.972 60.0017C269.261 59.7166 269.482 59.3123 269.634 58.7888C269.791 58.2654 269.869 57.6443 269.869 56.9255V56.9138C269.869 56.1951 269.791 55.5759 269.634 55.0564C269.482 54.533 269.261 54.1306 268.972 53.8494C268.687 53.5642 268.341 53.4216 267.935 53.4216C267.533 53.4216 267.187 53.5642 266.898 53.8494C266.613 54.1306 266.394 54.533 266.242 55.0564C266.089 55.5759 266.013 56.1951 266.013 56.9138V56.9255C266.013 57.6443 266.089 58.2654 266.242 58.7888C266.394 59.3123 266.613 59.7166 266.898 60.0017C267.187 60.2869 267.533 60.4294 267.935 60.4294ZM273.22 63.2595H272.365C272.576 62.99 272.771 62.6501 272.951 62.24C273.134 61.8337 273.292 61.3845 273.425 60.8923C273.558 60.3962 273.662 59.8845 273.736 59.3572C273.81 58.8259 273.847 58.3044 273.847 57.7927C273.847 57.2849 273.81 56.7673 273.736 56.24C273.662 55.7087 273.558 55.197 273.425 54.7048C273.292 54.2087 273.134 53.7556 272.951 53.3455C272.771 52.9353 272.576 52.5955 272.365 52.3259H273.22C273.603 52.8298 273.917 53.3669 274.164 53.9373C274.41 54.5037 274.591 55.1072 274.708 55.7478C274.826 56.3845 274.884 57.0662 274.884 57.7927C274.884 58.5193 274.824 59.2029 274.703 59.8435C274.585 60.4841 274.404 61.0876 274.158 61.6541C273.916 62.2205 273.603 62.7556 273.22 63.2595Z" fill="white"/>
<defs>
<radialGradient id="paint0_radial_2341_22875" cx="0" cy="0" r="1" gradientUnits="userSpaceOnUse" gradientTransform="translate(-7.6808e-06 0.410008) rotate(22.4998) scale(807.463 615.34)">
<stop stop-color="#AB7EFF"/>
<stop offset="0.85474" stop-color="#6EBFF4" stop-opacity="0.7"/>
<stop offset="1" stop-color="#4690D5" stop-opacity="0.5"/>
</radialGradient>
<clipPath id="clip0_2341_22875">
<rect x="136.61" y="132.23" width="470.88" height="36.72" rx="4.8" fill="white"/>
</clipPath>
</defs>
</svg>
