<svg width="171" height="146" viewBox="0 0 171 146" fill="none" xmlns="http://www.w3.org/2000/svg">
<rect y="0.589966" width="170.5" height="145" rx="14" fill="var(--dt-color-surface-secondary)" fill-opacity="0.6"/>
<path d="M35.2408 63.5134H20.6705L17.3982 72.59H12.6688L25.9493 37.8123H29.9621L43.2665 72.59H38.561L35.2408 63.5134ZM22.0559 59.7394H33.8794L27.9557 43.4732L22.0559 59.7394ZM60.7652 72.59C60.5104 72.0804 60.3034 71.1727 60.1441 69.867C58.09 72.0008 55.6377 73.0677 52.7873 73.0677C50.2395 73.0677 48.1455 72.3511 46.5054 70.918C44.8811 69.4689 44.069 67.6377 44.069 65.4242C44.069 62.7331 45.0881 60.6471 47.1264 59.1662C49.1806 57.6693 52.0628 56.9209 55.773 56.9209H60.0725V54.8906C60.0725 53.346 59.6107 52.1199 58.6871 51.2122C57.7635 50.2886 56.402 49.8268 54.6026 49.8268C53.0262 49.8268 51.7045 50.2249 50.6376 51.0211C49.5707 51.8173 49.0373 52.7807 49.0373 53.9113H44.5945C44.5945 52.6215 45.0483 51.3794 45.956 50.1851C46.8796 48.9749 48.1216 48.0195 49.6822 47.3188C51.2586 46.6182 52.9864 46.2679 54.8654 46.2679C57.8431 46.2679 60.176 47.0163 61.8639 48.5131C63.5518 49.994 64.4276 52.0403 64.4913 54.6518V66.5469C64.4913 68.9195 64.7939 70.8065 65.399 72.2078V72.59H60.7652ZM53.4322 69.2221C54.8176 69.2221 56.1313 68.8638 57.3734 68.1472C58.6154 67.4306 59.5151 66.4991 60.0725 65.3526V60.0499H56.609C51.1949 60.0499 48.4879 61.6344 48.4879 64.8032C48.4879 66.1886 48.9497 67.2714 49.8733 68.0517C50.7968 68.8319 51.9832 69.2221 53.4322 69.2221Z" fill="var(--dt-color-foreground-primary)"/>
<path d="M17.7012 96.3634H14.127L13.3242 98.59H12.1641L15.4219 90.0587H16.4062L19.6699 98.59H18.5156L17.7012 96.3634ZM14.4668 95.4376H17.3672L15.9141 91.4474L14.4668 95.4376ZM21.6738 92.2501L21.709 93.047C22.1934 92.4376 22.8262 92.1329 23.6074 92.1329C24.9473 92.1329 25.623 92.8888 25.6348 94.4005V98.59H24.5508V94.3947C24.5469 93.9376 24.4414 93.5997 24.2344 93.381C24.0312 93.1622 23.7129 93.0529 23.2793 93.0529C22.9277 93.0529 22.6191 93.1466 22.3535 93.3341C22.0879 93.5216 21.8809 93.7677 21.7324 94.0724V98.59H20.6484V92.2501H21.6738ZM27.0059 95.3673C27.0059 94.3947 27.2363 93.6134 27.6973 93.0236C28.1582 92.4298 28.7617 92.1329 29.5078 92.1329C30.25 92.1329 30.8379 92.3868 31.2715 92.8947V89.59H32.3555V98.59H31.3594L31.3066 97.9103C30.873 98.4415 30.2695 98.7072 29.4961 98.7072C28.7617 98.7072 28.1621 98.4064 27.6973 97.8048C27.2363 97.2032 27.0059 96.4181 27.0059 95.4493V95.3673ZM28.0898 95.4904C28.0898 96.2091 28.2383 96.7716 28.5352 97.1779C28.832 97.5841 29.2422 97.7872 29.7656 97.7872C30.4531 97.7872 30.9551 97.4786 31.2715 96.8615V93.9493C30.9473 93.3517 30.4492 93.0529 29.7773 93.0529C29.2461 93.0529 28.832 93.2579 28.5352 93.6681C28.2383 94.0782 28.0898 94.6857 28.0898 95.4904ZM37.1074 93.2228C36.9434 93.1954 36.7656 93.1818 36.5742 93.1818C35.8633 93.1818 35.3809 93.4845 35.127 94.09V98.59H34.043V92.2501H35.0977L35.1152 92.9825C35.4707 92.4161 35.9746 92.1329 36.627 92.1329C36.8379 92.1329 36.998 92.1603 37.1074 92.215V93.2228ZM37.7051 95.3615C37.7051 94.7404 37.8262 94.1818 38.0684 93.6857C38.3145 93.1896 38.6543 92.8068 39.0879 92.5372C39.5254 92.2677 40.0234 92.1329 40.582 92.1329C41.4453 92.1329 42.1426 92.4318 42.6738 93.0294C43.209 93.6271 43.4766 94.422 43.4766 95.4142V95.4904C43.4766 96.1075 43.3574 96.6622 43.1191 97.1544C42.8848 97.6427 42.5469 98.0236 42.1055 98.297C41.668 98.5704 41.1641 98.7072 40.5938 98.7072C39.7344 98.7072 39.0371 98.4083 38.502 97.8107C37.9707 97.213 37.7051 96.422 37.7051 95.4376V95.3615ZM38.7949 95.4904C38.7949 96.1935 38.957 96.7579 39.2812 97.1837C39.6094 97.6095 40.0469 97.8224 40.5938 97.8224C41.1445 97.8224 41.582 97.6075 41.9062 97.1779C42.2305 96.7443 42.3926 96.1388 42.3926 95.3615C42.3926 94.6661 42.2266 94.1036 41.8945 93.674C41.5664 93.2404 41.1289 93.0236 40.582 93.0236C40.0469 93.0236 39.6152 93.2365 39.2871 93.6622C38.959 94.088 38.7949 94.6974 38.7949 95.4904ZM46.0137 98.59H44.9297V92.2501H46.0137V98.59ZM44.8418 90.5685C44.8418 90.3927 44.8945 90.2443 45 90.1232C45.1094 90.0021 45.2695 89.9415 45.4805 89.9415C45.6914 89.9415 45.8516 90.0021 45.9609 90.1232C46.0703 90.2443 46.125 90.3927 46.125 90.5685C46.125 90.7443 46.0703 90.8907 45.9609 91.0079C45.8516 91.1251 45.6914 91.1837 45.4805 91.1837C45.2695 91.1837 45.1094 91.1251 45 91.0079C44.8945 90.8907 44.8418 90.7443 44.8418 90.5685ZM47.4902 95.3673C47.4902 94.3947 47.7207 93.6134 48.1816 93.0236C48.6426 92.4298 49.2461 92.1329 49.9922 92.1329C50.7344 92.1329 51.3223 92.3868 51.7559 92.8947V89.59H52.8398V98.59H51.8438L51.791 97.9103C51.3574 98.4415 50.7539 98.7072 49.9805 98.7072C49.2461 98.7072 48.6465 98.4064 48.1816 97.8048C47.7207 97.2032 47.4902 96.4181 47.4902 95.4493V95.3673ZM48.5742 95.4904C48.5742 96.2091 48.7227 96.7716 49.0195 97.1779C49.3164 97.5841 49.7266 97.7872 50.25 97.7872C50.9375 97.7872 51.4395 97.4786 51.7559 96.8615V93.9493C51.4316 93.3517 50.9336 93.0529 50.2617 93.0529C49.7305 93.0529 49.3164 93.2579 49.0195 93.6681C48.7227 94.0782 48.5742 94.6857 48.5742 95.4904Z" fill="var(--dt-color-foreground-primary)"/>
<path d="M16.1191 112.139H14.1152V115.59H12.9844V107.059H15.8086C16.7695 107.059 17.5078 107.277 18.0234 107.715C18.543 108.152 18.8027 108.789 18.8027 109.625C18.8027 110.156 18.6582 110.619 18.3691 111.014C18.084 111.408 17.6855 111.703 17.1738 111.899L19.1777 115.52V115.59H17.9707L16.1191 112.139ZM14.1152 111.219H15.8438C16.4023 111.219 16.8457 111.074 17.1738 110.785C17.5059 110.496 17.6719 110.109 17.6719 109.625C17.6719 109.098 17.5137 108.693 17.1973 108.412C16.8848 108.131 16.4316 107.988 15.8379 107.984H14.1152V111.219ZM19.9277 112.361C19.9277 111.74 20.0488 111.182 20.291 110.686C20.5371 110.19 20.877 109.807 21.3105 109.537C21.748 109.268 22.2461 109.133 22.8047 109.133C23.668 109.133 24.3652 109.432 24.8965 110.029C25.4316 110.627 25.6992 111.422 25.6992 112.414V112.49C25.6992 113.108 25.5801 113.662 25.3418 114.154C25.1074 114.643 24.7695 115.024 24.3281 115.297C23.8906 115.57 23.3867 115.707 22.8164 115.707C21.957 115.707 21.2598 115.408 20.7246 114.811C20.1934 114.213 19.9277 113.422 19.9277 112.438V112.361ZM21.0176 112.49C21.0176 113.193 21.1797 113.758 21.5039 114.184C21.832 114.609 22.2695 114.822 22.8164 114.822C23.3672 114.822 23.8047 114.608 24.1289 114.178C24.4531 113.744 24.6152 113.139 24.6152 112.361C24.6152 111.666 24.4492 111.104 24.1172 110.674C23.7891 110.24 23.3516 110.024 22.8047 110.024C22.2695 110.024 21.8379 110.236 21.5098 110.662C21.1816 111.088 21.0176 111.697 21.0176 112.49ZM32.4258 112.49C32.4258 113.459 32.2031 114.238 31.7578 114.828C31.3125 115.414 30.7148 115.707 29.9648 115.707C29.1641 115.707 28.5449 115.424 28.1074 114.858L28.0547 115.59H27.0586V106.59H28.1426V109.947C28.5801 109.404 29.1836 109.133 29.9531 109.133C30.7227 109.133 31.3262 109.424 31.7637 110.006C32.2051 110.588 32.4258 111.385 32.4258 112.397V112.49ZM31.3418 112.367C31.3418 111.629 31.1992 111.059 30.9141 110.656C30.6289 110.254 30.2188 110.053 29.6836 110.053C28.9688 110.053 28.4551 110.385 28.1426 111.049V113.791C28.4746 114.455 28.9922 114.787 29.6953 114.787C30.2148 114.787 30.6191 114.586 30.9082 114.184C31.1973 113.781 31.3418 113.176 31.3418 112.367ZM33.5098 112.361C33.5098 111.74 33.6309 111.182 33.873 110.686C34.1191 110.19 34.459 109.807 34.8926 109.537C35.3301 109.268 35.8281 109.133 36.3867 109.133C37.25 109.133 37.9473 109.432 38.4785 110.029C39.0137 110.627 39.2812 111.422 39.2812 112.414V112.49C39.2812 113.108 39.1621 113.662 38.9238 114.154C38.6895 114.643 38.3516 115.024 37.9102 115.297C37.4727 115.57 36.9688 115.707 36.3984 115.707C35.5391 115.707 34.8418 115.408 34.3066 114.811C33.7754 114.213 33.5098 113.422 33.5098 112.438V112.361ZM34.5996 112.49C34.5996 113.193 34.7617 113.758 35.0859 114.184C35.4141 114.609 35.8516 114.822 36.3984 114.822C36.9492 114.822 37.3867 114.608 37.7109 114.178C38.0352 113.744 38.1973 113.139 38.1973 112.361C38.1973 111.666 38.0312 111.104 37.6992 110.674C37.3711 110.24 36.9336 110.024 36.3867 110.024C35.8516 110.024 35.4199 110.236 35.0918 110.662C34.7637 111.088 34.5996 111.697 34.5996 112.49ZM42.1113 107.715V109.25H43.2949V110.088H42.1113V114.02C42.1113 114.274 42.1641 114.465 42.2695 114.594C42.375 114.719 42.5547 114.781 42.8086 114.781C42.9336 114.781 43.1055 114.758 43.3242 114.711V115.59C43.0391 115.668 42.7617 115.707 42.4922 115.707C42.0078 115.707 41.6426 115.561 41.3965 115.268C41.1504 114.975 41.0273 114.559 41.0273 114.02V110.088H39.873V109.25H41.0273V107.715H42.1113ZM44.1621 112.361C44.1621 111.74 44.2832 111.182 44.5254 110.686C44.7715 110.19 45.1113 109.807 45.5449 109.537C45.9824 109.268 46.4805 109.133 47.0391 109.133C47.9023 109.133 48.5996 109.432 49.1309 110.029C49.666 110.627 49.9336 111.422 49.9336 112.414V112.49C49.9336 113.108 49.8145 113.662 49.5762 114.154C49.3418 114.643 49.0039 115.024 48.5625 115.297C48.125 115.57 47.6211 115.707 47.0508 115.707C46.1914 115.707 45.4941 115.408 44.959 114.811C44.4277 114.213 44.1621 113.422 44.1621 112.438V112.361ZM45.252 112.49C45.252 113.193 45.4141 113.758 45.7383 114.184C46.0664 114.609 46.5039 114.822 47.0508 114.822C47.6016 114.822 48.0391 114.608 48.3633 114.178C48.6875 113.744 48.8496 113.139 48.8496 112.361C48.8496 111.666 48.6836 111.104 48.3516 110.674C48.0234 110.24 47.5859 110.024 47.0391 110.024C46.5039 110.024 46.0723 110.236 45.7441 110.662C45.416 111.088 45.252 111.697 45.252 112.49Z" fill="var(--dt-color-foreground-primary)"/>
<rect x="0.5" y="1.08997" width="169.5" height="144" rx="13.5" stroke="var(--dt-color-foreground-primary)" stroke-opacity="0.1"/>
</svg>
<svg width="171" height="146" viewBox="0 0 171 146" fill="none" xmlns="http://www.w3.org/2000/svg">
<rect y="0.589966" width="170.5" height="145" rx="14" fill="var(--dt-color-surface-secondary)" fill-opacity="0.6"/>
<path d="M35.2408 63.5134H20.6705L17.3982 72.59H12.6688L25.9493 37.8123H29.9621L43.2665 72.59H38.561L35.2408 63.5134ZM22.0559 59.7394H33.8794L27.9557 43.4732L22.0559 59.7394ZM60.7652 72.59C60.5104 72.0804 60.3034 71.1727 60.1441 69.867C58.09 72.0008 55.6377 73.0677 52.7873 73.0677C50.2395 73.0677 48.1455 72.3511 46.5054 70.918C44.8811 69.4689 44.069 67.6377 44.069 65.4242C44.069 62.7331 45.0881 60.6471 47.1264 59.1662C49.1806 57.6693 52.0628 56.9209 55.773 56.9209H60.0725V54.8906C60.0725 53.346 59.6107 52.1199 58.6871 51.2122C57.7635 50.2886 56.402 49.8268 54.6026 49.8268C53.0262 49.8268 51.7045 50.2249 50.6376 51.0211C49.5707 51.8173 49.0373 52.7807 49.0373 53.9113H44.5945C44.5945 52.6215 45.0483 51.3794 45.956 50.1851C46.8796 48.9749 48.1216 48.0195 49.6822 47.3188C51.2586 46.6182 52.9864 46.2679 54.8654 46.2679C57.8431 46.2679 60.176 47.0163 61.8639 48.5131C63.5518 49.994 64.4276 52.0403 64.4913 54.6518V66.5469C64.4913 68.9195 64.7939 70.8065 65.399 72.2078V72.59H60.7652ZM53.4322 69.2221C54.8176 69.2221 56.1313 68.8638 57.3734 68.1472C58.6154 67.4306 59.5151 66.4991 60.0725 65.3526V60.0499H56.609C51.1949 60.0499 48.4879 61.6344 48.4879 64.8032C48.4879 66.1886 48.9497 67.2714 49.8733 68.0517C50.7968 68.8319 51.9832 69.2221 53.4322 69.2221Z" fill="var(--dt-color-foreground-primary)"/>
<path d="M17.7012 96.3634H14.127L13.3242 98.59H12.1641L15.4219 90.0587H16.4062L19.6699 98.59H18.5156L17.7012 96.3634ZM14.4668 95.4376H17.3672L15.9141 91.4474L14.4668 95.4376ZM26.0039 95.4904C26.0039 96.4552 25.7832 97.2325 25.3418 97.8224C24.9004 98.4122 24.3027 98.7072 23.5488 98.7072C22.7793 98.7072 22.1738 98.463 21.7324 97.9747V101.027H20.6484V92.2501H21.6387L21.6914 92.9532C22.1328 92.4064 22.7461 92.1329 23.5312 92.1329C24.293 92.1329 24.8945 92.42 25.3359 92.9943C25.7812 93.5685 26.0039 94.3673 26.0039 95.3907V95.4904ZM24.9199 95.3673C24.9199 94.6525 24.7676 94.088 24.4629 93.674C24.1582 93.2599 23.7402 93.0529 23.209 93.0529C22.5527 93.0529 22.0605 93.3439 21.7324 93.9259V96.9552C22.0566 97.5333 22.5527 97.8224 23.2207 97.8224C23.7402 97.8224 24.1523 97.6173 24.457 97.2072C24.7656 96.7931 24.9199 96.1798 24.9199 95.3673ZM32.7422 95.4904C32.7422 96.4552 32.5215 97.2325 32.0801 97.8224C31.6387 98.4122 31.041 98.7072 30.2871 98.7072C29.5176 98.7072 28.9121 98.463 28.4707 97.9747V101.027H27.3867V92.2501H28.377L28.4297 92.9532C28.8711 92.4064 29.4844 92.1329 30.2695 92.1329C31.0312 92.1329 31.6328 92.42 32.0742 92.9943C32.5195 93.5685 32.7422 94.3673 32.7422 95.3907V95.4904ZM31.6582 95.3673C31.6582 94.6525 31.5059 94.088 31.2012 93.674C30.8965 93.2599 30.4785 93.0529 29.9473 93.0529C29.291 93.0529 28.7988 93.3439 28.4707 93.9259V96.9552C28.7949 97.5333 29.291 97.8224 29.959 97.8224C30.4785 97.8224 30.8906 97.6173 31.1953 97.2072C31.5039 96.7931 31.6582 96.1798 31.6582 95.3673ZM35.3027 98.59H34.2188V89.59H35.3027V98.59ZM39.6738 98.7072C38.8145 98.7072 38.1152 98.4259 37.5762 97.8634C37.0371 97.297 36.7676 96.5411 36.7676 95.5958V95.3966C36.7676 94.7677 36.8867 94.2072 37.125 93.715C37.3672 93.2189 37.7031 92.8322 38.1328 92.5548C38.5664 92.2736 39.0352 92.1329 39.5391 92.1329C40.3633 92.1329 41.0039 92.4044 41.4609 92.9474C41.918 93.4904 42.1465 94.2677 42.1465 95.2794V95.7306H37.8516C37.8672 96.3556 38.0488 96.8615 38.3965 97.2482C38.748 97.631 39.1934 97.8224 39.7324 97.8224C40.1152 97.8224 40.4395 97.7443 40.7051 97.588C40.9707 97.4318 41.2031 97.2247 41.4023 96.9669L42.0645 97.4825C41.5332 98.299 40.7363 98.7072 39.6738 98.7072ZM39.5391 93.0236C39.1016 93.0236 38.7344 93.1837 38.4375 93.504C38.1406 93.8204 37.957 94.2657 37.8867 94.84H41.0625V94.7579C41.0312 94.2072 40.8828 93.7814 40.6172 93.4806C40.3516 93.1759 39.9922 93.0236 39.5391 93.0236Z" fill="var(--dt-color-foreground-primary)"/>
<path d="M15.5039 111.787C14.5391 111.51 13.8359 111.17 13.3945 110.768C12.957 110.361 12.7383 109.861 12.7383 109.268C12.7383 108.596 13.0059 108.041 13.541 107.604C14.0801 107.162 14.7793 106.942 15.6387 106.942C16.2246 106.942 16.7461 107.055 17.2031 107.281C17.6641 107.508 18.0195 107.82 18.2695 108.219C18.5234 108.617 18.6504 109.053 18.6504 109.526H17.5195C17.5195 109.01 17.3555 108.606 17.0273 108.313C16.6992 108.016 16.2363 107.867 15.6387 107.867C15.084 107.867 14.6504 107.99 14.3379 108.236C14.0293 108.479 13.875 108.817 13.875 109.25C13.875 109.598 14.0215 109.893 14.3145 110.135C14.6113 110.373 15.1133 110.592 15.8203 110.791C16.5312 110.99 17.0859 111.211 17.4844 111.453C17.8867 111.692 18.1836 111.971 18.375 112.291C18.5703 112.611 18.668 112.988 18.668 113.422C18.668 114.113 18.3984 114.668 17.8594 115.086C17.3203 115.5 16.5996 115.707 15.6973 115.707C15.1113 115.707 14.5645 115.596 14.0566 115.373C13.5488 115.147 13.1562 114.838 12.8789 114.447C12.6055 114.057 12.4688 113.613 12.4688 113.117H13.5996C13.5996 113.633 13.7891 114.041 14.168 114.342C14.5508 114.639 15.0605 114.787 15.6973 114.787C16.291 114.787 16.7461 114.666 17.0625 114.424C17.3789 114.182 17.5371 113.852 17.5371 113.434C17.5371 113.016 17.3906 112.693 17.0977 112.467C16.8047 112.236 16.2734 112.01 15.5039 111.787ZM23.8594 115.59C23.7969 115.465 23.7461 115.242 23.707 114.922C23.2031 115.445 22.6016 115.707 21.9023 115.707C21.2773 115.707 20.7637 115.531 20.3613 115.18C19.9629 114.824 19.7637 114.375 19.7637 113.832C19.7637 113.172 20.0137 112.66 20.5137 112.297C21.0176 111.93 21.7246 111.746 22.6348 111.746H23.6895V111.248C23.6895 110.869 23.5762 110.568 23.3496 110.346C23.123 110.119 22.7891 110.006 22.3477 110.006C21.9609 110.006 21.6367 110.104 21.375 110.299C21.1133 110.494 20.9824 110.731 20.9824 111.008H19.8926C19.8926 110.692 20.0039 110.387 20.2266 110.094C20.4531 109.797 20.7578 109.563 21.1406 109.391C21.5273 109.219 21.9512 109.133 22.4121 109.133C23.1426 109.133 23.7148 109.317 24.1289 109.684C24.543 110.047 24.7578 110.549 24.7734 111.19V114.108C24.7734 114.69 24.8477 115.152 24.9961 115.496V115.59H23.8594ZM22.0605 114.764C22.4004 114.764 22.7227 114.676 23.0273 114.5C23.332 114.324 23.5527 114.096 23.6895 113.815V112.514H22.8398C21.5117 112.514 20.8477 112.902 20.8477 113.68C20.8477 114.02 20.9609 114.285 21.1875 114.477C21.4141 114.668 21.7051 114.764 22.0605 114.764ZM27.498 109.25L27.5332 110.047C28.0176 109.438 28.6504 109.133 29.4316 109.133C30.7715 109.133 31.4473 109.889 31.459 111.401V115.59H30.375V111.395C30.3711 110.938 30.2656 110.6 30.0586 110.381C29.8555 110.162 29.5371 110.053 29.1035 110.053C28.752 110.053 28.4434 110.147 28.1777 110.334C27.9121 110.522 27.7051 110.768 27.5566 111.072V115.59H26.4727V109.25H27.498ZM40.9453 111.822H37.3652V115.59H36.2402V107.059H41.5254V107.984H37.3652V110.902H40.9453V111.822ZM45.6152 110.223C45.4512 110.195 45.2734 110.182 45.082 110.182C44.3711 110.182 43.8887 110.484 43.6348 111.09V115.59H42.5508V109.25H43.6055L43.623 109.983C43.9785 109.416 44.4824 109.133 45.1348 109.133C45.3457 109.133 45.5059 109.16 45.6152 109.215V110.223ZM50.2969 115.59C50.2344 115.465 50.1836 115.242 50.1445 114.922C49.6406 115.445 49.0391 115.707 48.3398 115.707C47.7148 115.707 47.2012 115.531 46.7988 115.18C46.4004 114.824 46.2012 114.375 46.2012 113.832C46.2012 113.172 46.4512 112.66 46.9512 112.297C47.4551 111.93 48.1621 111.746 49.0723 111.746H50.127V111.248C50.127 110.869 50.0137 110.568 49.7871 110.346C49.5605 110.119 49.2266 110.006 48.7852 110.006C48.3984 110.006 48.0742 110.104 47.8125 110.299C47.5508 110.494 47.4199 110.731 47.4199 111.008H46.3301C46.3301 110.692 46.4414 110.387 46.6641 110.094C46.8906 109.797 47.1953 109.563 47.5781 109.391C47.9648 109.219 48.3887 109.133 48.8496 109.133C49.5801 109.133 50.1523 109.317 50.5664 109.684C50.9805 110.047 51.1953 110.549 51.2109 111.19V114.108C51.2109 114.69 51.2852 115.152 51.4336 115.496V115.59H50.2969ZM48.498 114.764C48.8379 114.764 49.1602 114.676 49.4648 114.5C49.7695 114.324 49.9902 114.096 50.127 113.815V112.514H49.2773C47.9492 112.514 47.2852 112.902 47.2852 113.68C47.2852 114.02 47.3984 114.285 47.625 114.477C47.8516 114.668 48.1426 114.764 48.498 114.764ZM53.9355 109.25L53.9707 110.047C54.4551 109.438 55.0879 109.133 55.8691 109.133C57.209 109.133 57.8848 109.889 57.8965 111.401V115.59H56.8125V111.395C56.8086 110.938 56.7031 110.6 56.4961 110.381C56.293 110.162 55.9746 110.053 55.541 110.053C55.1895 110.053 54.8809 110.147 54.6152 110.334C54.3496 110.522 54.1426 110.768 53.9941 111.072V115.59H52.9102V109.25H53.9355ZM62.0742 114.822C62.4609 114.822 62.7988 114.705 63.0879 114.471C63.377 114.236 63.5371 113.943 63.5684 113.592H64.5938C64.5742 113.955 64.4492 114.301 64.2188 114.629C63.9883 114.957 63.6797 115.219 63.293 115.414C62.9102 115.609 62.5039 115.707 62.0742 115.707C61.2109 115.707 60.5234 115.42 60.0117 114.846C59.5039 114.268 59.25 113.479 59.25 112.479V112.297C59.25 111.68 59.3633 111.131 59.5898 110.651C59.8164 110.17 60.1406 109.797 60.5625 109.531C60.9883 109.266 61.4902 109.133 62.0684 109.133C62.7793 109.133 63.3691 109.346 63.8379 109.772C64.3105 110.197 64.5625 110.75 64.5938 111.43H63.5684C63.5371 111.02 63.3809 110.684 63.0996 110.422C62.8223 110.156 62.4785 110.024 62.0684 110.024C61.5176 110.024 61.0898 110.223 60.7852 110.621C60.4844 111.016 60.334 111.588 60.334 112.338V112.543C60.334 113.274 60.4844 113.836 60.7852 114.231C61.0859 114.625 61.5156 114.822 62.0742 114.822ZM66.9902 115.59H65.9062V109.25H66.9902V115.59ZM65.8184 107.568C65.8184 107.393 65.8711 107.244 65.9766 107.123C66.0859 107.002 66.2461 106.942 66.457 106.942C66.668 106.942 66.8281 107.002 66.9375 107.123C67.0469 107.244 67.1016 107.393 67.1016 107.568C67.1016 107.744 67.0469 107.891 66.9375 108.008C66.8281 108.125 66.668 108.184 66.457 108.184C66.2461 108.184 66.0859 108.125 65.9766 108.008C65.8711 107.891 65.8184 107.744 65.8184 107.568ZM72.4219 113.908C72.4219 113.615 72.3105 113.389 72.0879 113.229C71.8691 113.065 71.4844 112.924 70.9336 112.807C70.3867 112.69 69.9512 112.549 69.627 112.385C69.3066 112.221 69.0684 112.026 68.9121 111.799C68.7598 111.572 68.6836 111.303 68.6836 110.99C68.6836 110.471 68.9023 110.031 69.3398 109.672C69.7812 109.313 70.3438 109.133 71.0273 109.133C71.7461 109.133 72.3281 109.318 72.7734 109.69C73.2227 110.061 73.4473 110.535 73.4473 111.113H72.3574C72.3574 110.817 72.2305 110.561 71.9766 110.346C71.7266 110.131 71.4102 110.024 71.0273 110.024C70.6328 110.024 70.3242 110.109 70.1016 110.281C69.8789 110.453 69.7676 110.678 69.7676 110.955C69.7676 111.217 69.8711 111.414 70.0781 111.547C70.2852 111.68 70.6582 111.807 71.1973 111.928C71.7402 112.049 72.1797 112.193 72.5156 112.361C72.8516 112.529 73.0996 112.733 73.2598 112.971C73.4238 113.205 73.5059 113.492 73.5059 113.832C73.5059 114.399 73.2793 114.854 72.8262 115.197C72.373 115.537 71.7852 115.707 71.0625 115.707C70.5547 115.707 70.1055 115.617 69.7148 115.438C69.3242 115.258 69.0176 115.008 68.7949 114.688C68.5762 114.363 68.4668 114.014 68.4668 113.639H69.5508C69.5703 114.002 69.7148 114.291 69.9844 114.506C70.2578 114.717 70.6172 114.822 71.0625 114.822C71.4727 114.822 71.8008 114.74 72.0469 114.576C72.2969 114.408 72.4219 114.186 72.4219 113.908ZM77.4609 114.822C77.8477 114.822 78.1855 114.705 78.4746 114.471C78.7637 114.236 78.9238 113.943 78.9551 113.592H79.9805C79.9609 113.955 79.8359 114.301 79.6055 114.629C79.375 114.957 79.0664 115.219 78.6797 115.414C78.2969 115.609 77.8906 115.707 77.4609 115.707C76.5977 115.707 75.9102 115.42 75.3984 114.846C74.8906 114.268 74.6367 113.479 74.6367 112.479V112.297C74.6367 111.68 74.75 111.131 74.9766 110.651C75.2031 110.17 75.5273 109.797 75.9492 109.531C76.375 109.266 76.877 109.133 77.4551 109.133C78.166 109.133 78.7559 109.346 79.2246 109.772C79.6973 110.197 79.9492 110.75 79.9805 111.43H78.9551C78.9238 111.02 78.7676 110.684 78.4863 110.422C78.209 110.156 77.8652 110.024 77.4551 110.024C76.9043 110.024 76.4766 110.223 76.1719 110.621C75.8711 111.016 75.7207 111.588 75.7207 112.338V112.543C75.7207 113.274 75.8711 113.836 76.1719 114.231C76.4727 114.625 76.9023 114.822 77.4609 114.822ZM80.9121 112.361C80.9121 111.74 81.0332 111.182 81.2754 110.686C81.5215 110.19 81.8613 109.807 82.2949 109.537C82.7324 109.268 83.2305 109.133 83.7891 109.133C84.6523 109.133 85.3496 109.432 85.8809 110.029C86.416 110.627 86.6836 111.422 86.6836 112.414V112.49C86.6836 113.108 86.5645 113.662 86.3262 114.154C86.0918 114.643 85.7539 115.024 85.3125 115.297C84.875 115.57 84.3711 115.707 83.8008 115.707C82.9414 115.707 82.2441 115.408 81.709 114.811C81.1777 114.213 80.9121 113.422 80.9121 112.438V112.361ZM82.002 112.49C82.002 113.193 82.1641 113.758 82.4883 114.184C82.8164 114.609 83.2539 114.822 83.8008 114.822C84.3516 114.822 84.7891 114.608 85.1133 114.178C85.4375 113.744 85.5996 113.139 85.5996 112.361C85.5996 111.666 85.4336 111.104 85.1016 110.674C84.7734 110.24 84.3359 110.024 83.7891 110.024C83.2539 110.024 82.8223 110.236 82.4941 110.662C82.166 111.088 82.002 111.697 82.002 112.49Z" fill="var(--dt-color-foreground-primary)"/>
<rect x="0.5" y="1.08997" width="169.5" height="144" rx="13.5" stroke="var(--dt-color-foreground-primary)" stroke-opacity="0.1"/>
</svg>
<svg width="171" height="146" viewBox="0 0 171 146" fill="none" xmlns="http://www.w3.org/2000/svg">
<rect x="0.5" y="0.589966" width="170.5" height="145" rx="14" fill="var(--dt-color-surface-secondary)" fill-opacity="0.6"/>
<path d="M35.7408 63.5134H21.1705L17.8982 72.59H13.1688L26.4493 37.8123H30.4621L43.7665 72.59H39.061L35.7408 63.5134ZM22.5559 59.7394H34.3794L28.4557 43.4732L22.5559 59.7394ZM61.2652 72.59C61.0104 72.0804 60.8034 71.1727 60.6441 69.867C58.59 72.0008 56.1377 73.0677 53.2873 73.0677C50.7395 73.0677 48.6455 72.3511 47.0054 70.918C45.3811 69.4689 44.569 67.6377 44.569 65.4242C44.569 62.7331 45.5881 60.6471 47.6264 59.1662C49.6806 57.6693 52.5628 56.9209 56.273 56.9209H60.5725V54.8906C60.5725 53.346 60.1107 52.1199 59.1871 51.2122C58.2635 50.2886 56.902 49.8268 55.1026 49.8268C53.5262 49.8268 52.2045 50.2249 51.1376 51.0211C50.0707 51.8173 49.5373 52.7807 49.5373 53.9113H45.0945C45.0945 52.6215 45.5483 51.3794 46.456 50.1851C47.3796 48.9749 48.6216 48.0195 50.1822 47.3188C51.7586 46.6182 53.4864 46.2679 55.3654 46.2679C58.3431 46.2679 60.676 47.0163 62.3639 48.5131C64.0518 49.994 64.9276 52.0403 64.9913 54.6518V66.5469C64.9913 68.9195 65.2939 70.8065 65.899 72.2078V72.59H61.2652ZM53.9322 69.2221C55.3176 69.2221 56.6313 68.8638 57.8734 68.1472C59.1154 67.4306 60.0151 66.4991 60.5725 65.3526V60.0499H57.109C51.6949 60.0499 48.9879 61.6344 48.9879 64.8032C48.9879 66.1886 49.4497 67.2714 50.3733 68.0517C51.2968 68.8319 52.4832 69.2221 53.9322 69.2221Z" fill="var(--dt-color-foreground-primary)"/>
<path d="M15.3301 95.9005L15.4941 97.0255L15.7344 96.0118L17.4219 90.0587H18.3711L20.0176 96.0118L20.252 97.0431L20.4336 95.8947L21.7578 90.0587H22.8887L20.8203 98.59H19.7949L18.0371 92.3732L17.9023 91.7228L17.7676 92.3732L15.9453 98.59H14.9199L12.8574 90.0587H13.9824L15.3301 95.9005ZM25.1504 98.59H24.0664V92.2501H25.1504V98.59ZM23.9785 90.5685C23.9785 90.3927 24.0312 90.2443 24.1367 90.1232C24.2461 90.0021 24.4062 89.9415 24.6172 89.9415C24.8281 89.9415 24.9883 90.0021 25.0977 90.1232C25.207 90.2443 25.2617 90.3927 25.2617 90.5685C25.2617 90.7443 25.207 90.8907 25.0977 91.0079C24.9883 91.1251 24.8281 91.1837 24.6172 91.1837C24.4062 91.1837 24.2461 91.1251 24.1367 91.0079C24.0312 90.8907 23.9785 90.7443 23.9785 90.5685ZM27.916 92.2501L27.9512 93.047C28.4355 92.4376 29.0684 92.1329 29.8496 92.1329C31.1895 92.1329 31.8652 92.8888 31.877 94.4005V98.59H30.793V94.3947C30.7891 93.9376 30.6836 93.5997 30.4766 93.381C30.2734 93.1622 29.9551 93.0529 29.5215 93.0529C29.1699 93.0529 28.8613 93.1466 28.5957 93.3341C28.3301 93.5216 28.123 93.7677 27.9746 94.0724V98.59H26.8906V92.2501H27.916ZM33.248 95.3673C33.248 94.3947 33.4785 93.6134 33.9395 93.0236C34.4004 92.4298 35.0039 92.1329 35.75 92.1329C36.4922 92.1329 37.0801 92.3868 37.5137 92.8947V89.59H38.5977V98.59H37.6016L37.5488 97.9103C37.1152 98.4415 36.5117 98.7072 35.7383 98.7072C35.0039 98.7072 34.4043 98.4064 33.9395 97.8048C33.4785 97.2032 33.248 96.4181 33.248 95.4493V95.3673ZM34.332 95.4904C34.332 96.2091 34.4805 96.7716 34.7773 97.1779C35.0742 97.5841 35.4844 97.7872 36.0078 97.7872C36.6953 97.7872 37.1973 97.4786 37.5137 96.8615V93.9493C37.1895 93.3517 36.6914 93.0529 36.0195 93.0529C35.4883 93.0529 35.0742 93.2579 34.7773 93.6681C34.4805 94.0782 34.332 94.6857 34.332 95.4904ZM39.998 95.3615C39.998 94.7404 40.1191 94.1818 40.3613 93.6857C40.6074 93.1896 40.9473 92.8068 41.3809 92.5372C41.8184 92.2677 42.3164 92.1329 42.875 92.1329C43.7383 92.1329 44.4355 92.4318 44.9668 93.0294C45.502 93.6271 45.7695 94.422 45.7695 95.4142V95.4904C45.7695 96.1075 45.6504 96.6622 45.4121 97.1544C45.1777 97.6427 44.8398 98.0236 44.3984 98.297C43.9609 98.5704 43.457 98.7072 42.8867 98.7072C42.0273 98.7072 41.3301 98.4083 40.7949 97.8107C40.2637 97.213 39.998 96.422 39.998 95.4376V95.3615ZM41.0879 95.4904C41.0879 96.1935 41.25 96.7579 41.5742 97.1837C41.9023 97.6095 42.3398 97.8224 42.8867 97.8224C43.4375 97.8224 43.875 97.6075 44.1992 97.1779C44.5234 96.7443 44.6855 96.1388 44.6855 95.3615C44.6855 94.6661 44.5195 94.1036 44.1875 93.674C43.8594 93.2404 43.4219 93.0236 42.875 93.0236C42.3398 93.0236 41.9082 93.2365 41.5801 93.6622C41.252 94.088 41.0879 94.6974 41.0879 95.4904ZM52.7422 97.0958L53.9609 92.2501H55.0449L53.1992 98.59H52.3203L50.7793 93.7853L49.2793 98.59H48.4004L46.5605 92.2501H47.6387L48.8867 96.9962L50.3633 92.2501H51.2363L52.7422 97.0958ZM59.8438 96.9083C59.8438 96.6154 59.7324 96.3888 59.5098 96.2286C59.291 96.0646 58.9062 95.924 58.3555 95.8068C57.8086 95.6896 57.373 95.549 57.0488 95.3849C56.7285 95.2208 56.4902 95.0255 56.334 94.799C56.1816 94.5724 56.1055 94.3029 56.1055 93.9904C56.1055 93.4708 56.3242 93.0314 56.7617 92.672C57.2031 92.3126 57.7656 92.1329 58.4492 92.1329C59.168 92.1329 59.75 92.3185 60.1953 92.6896C60.6445 93.0607 60.8691 93.5353 60.8691 94.1134H59.7793C59.7793 93.8165 59.6523 93.5607 59.3984 93.3458C59.1484 93.131 58.832 93.0236 58.4492 93.0236C58.0547 93.0236 57.7461 93.1095 57.5234 93.2814C57.3008 93.4532 57.1895 93.6779 57.1895 93.9552C57.1895 94.2169 57.293 94.4142 57.5 94.547C57.707 94.6798 58.0801 94.8068 58.6191 94.9279C59.1621 95.049 59.6016 95.1935 59.9375 95.3615C60.2734 95.5294 60.5215 95.7325 60.6816 95.9708C60.8457 96.2052 60.9277 96.4923 60.9277 96.8322C60.9277 97.3986 60.7012 97.8536 60.248 98.1974C59.7949 98.5372 59.207 98.7072 58.4844 98.7072C57.9766 98.7072 57.5273 98.6173 57.1367 98.4376C56.7461 98.2579 56.4395 98.0079 56.2168 97.6876C55.998 97.3634 55.8887 97.0138 55.8887 96.6388H56.9727C56.9922 97.0021 57.1367 97.2911 57.4062 97.506C57.6797 97.7169 58.0391 97.8224 58.4844 97.8224C58.8945 97.8224 59.2227 97.7404 59.4688 97.5763C59.7188 97.4083 59.8438 97.1857 59.8438 96.9083Z" fill="var(--dt-color-foreground-primary)"/>
<path d="M16.0039 111.787C15.0391 111.51 14.3359 111.17 13.8945 110.768C13.457 110.361 13.2383 109.861 13.2383 109.268C13.2383 108.596 13.5059 108.041 14.041 107.604C14.5801 107.162 15.2793 106.942 16.1387 106.942C16.7246 106.942 17.2461 107.055 17.7031 107.281C18.1641 107.508 18.5195 107.82 18.7695 108.219C19.0234 108.617 19.1504 109.053 19.1504 109.526H18.0195C18.0195 109.01 17.8555 108.606 17.5273 108.313C17.1992 108.016 16.7363 107.867 16.1387 107.867C15.584 107.867 15.1504 107.99 14.8379 108.236C14.5293 108.479 14.375 108.817 14.375 109.25C14.375 109.598 14.5215 109.893 14.8145 110.135C15.1113 110.373 15.6133 110.592 16.3203 110.791C17.0312 110.99 17.5859 111.211 17.9844 111.453C18.3867 111.692 18.6836 111.971 18.875 112.291C19.0703 112.611 19.168 112.988 19.168 113.422C19.168 114.113 18.8984 114.668 18.3594 115.086C17.8203 115.5 17.0996 115.707 16.1973 115.707C15.6113 115.707 15.0645 115.596 14.5566 115.373C14.0488 115.147 13.6562 114.838 13.3789 114.447C13.1055 114.057 12.9688 113.613 12.9688 113.117H14.0996C14.0996 113.633 14.2891 114.041 14.668 114.342C15.0508 114.639 15.5605 114.787 16.1973 114.787C16.791 114.787 17.2461 114.666 17.5625 114.424C17.8789 114.182 18.0371 113.852 18.0371 113.434C18.0371 113.016 17.8906 112.693 17.5977 112.467C17.3047 112.236 16.7734 112.01 16.0039 111.787ZM23.0762 115.707C22.2168 115.707 21.5176 115.426 20.9785 114.863C20.4395 114.297 20.1699 113.541 20.1699 112.596V112.397C20.1699 111.768 20.2891 111.207 20.5273 110.715C20.7695 110.219 21.1055 109.832 21.5352 109.555C21.9688 109.274 22.4375 109.133 22.9414 109.133C23.7656 109.133 24.4062 109.404 24.8633 109.947C25.3203 110.49 25.5488 111.268 25.5488 112.279V112.731H21.2539C21.2695 113.356 21.4512 113.861 21.7988 114.248C22.1504 114.631 22.5957 114.822 23.1348 114.822C23.5176 114.822 23.8418 114.744 24.1074 114.588C24.373 114.432 24.6055 114.225 24.8047 113.967L25.4668 114.483C24.9355 115.299 24.1387 115.707 23.0762 115.707ZM22.9414 110.024C22.5039 110.024 22.1367 110.184 21.8398 110.504C21.543 110.82 21.3594 111.266 21.2891 111.84H24.4648V111.758C24.4336 111.207 24.2852 110.781 24.0195 110.481C23.7539 110.176 23.3945 110.024 22.9414 110.024ZM26.5508 112.367C26.5508 111.379 26.7793 110.594 27.2363 110.012C27.6934 109.426 28.2988 109.133 29.0527 109.133C29.8262 109.133 30.4297 109.406 30.8633 109.953L30.916 109.25H31.9062V115.438C31.9062 116.258 31.6621 116.904 31.1738 117.377C30.6895 117.85 30.0371 118.086 29.2168 118.086C28.7598 118.086 28.3125 117.988 27.875 117.793C27.4375 117.598 27.1035 117.33 26.873 116.99L27.4355 116.34C27.9004 116.914 28.4688 117.201 29.1406 117.201C29.668 117.201 30.0781 117.053 30.3711 116.756C30.668 116.459 30.8164 116.041 30.8164 115.502V114.957C30.3828 115.457 29.791 115.707 29.041 115.707C28.2988 115.707 27.6973 115.408 27.2363 114.811C26.7793 114.213 26.5508 113.399 26.5508 112.367ZM27.6406 112.49C27.6406 113.205 27.7871 113.768 28.0801 114.178C28.373 114.584 28.7832 114.787 29.3105 114.787C29.9941 114.787 30.4961 114.477 30.8164 113.856V110.961C30.4844 110.356 29.9863 110.053 29.3223 110.053C28.7949 110.053 28.3828 110.258 28.0859 110.668C27.7891 111.078 27.6406 111.686 27.6406 112.49ZM33.2598 112.361C33.2598 111.74 33.3809 111.182 33.623 110.686C33.8691 110.19 34.209 109.807 34.6426 109.537C35.0801 109.268 35.5781 109.133 36.1367 109.133C37 109.133 37.6973 109.432 38.2285 110.029C38.7637 110.627 39.0312 111.422 39.0312 112.414V112.49C39.0312 113.108 38.9121 113.662 38.6738 114.154C38.4395 114.643 38.1016 115.024 37.6602 115.297C37.2227 115.57 36.7188 115.707 36.1484 115.707C35.2891 115.707 34.5918 115.408 34.0566 114.811C33.5254 114.213 33.2598 113.422 33.2598 112.438V112.361ZM34.3496 112.49C34.3496 113.193 34.5117 113.758 34.8359 114.184C35.1641 114.609 35.6016 114.822 36.1484 114.822C36.6992 114.822 37.1367 114.608 37.4609 114.178C37.7852 113.744 37.9473 113.139 37.9473 112.361C37.9473 111.666 37.7812 111.104 37.4492 110.674C37.1211 110.24 36.6836 110.024 36.1367 110.024C35.6016 110.024 35.1699 110.236 34.8418 110.662C34.5137 111.088 34.3496 111.697 34.3496 112.49ZM43.0215 115.707C42.1621 115.707 41.4629 115.426 40.9238 114.863C40.3848 114.297 40.1152 113.541 40.1152 112.596V112.397C40.1152 111.768 40.2344 111.207 40.4727 110.715C40.7148 110.219 41.0508 109.832 41.4805 109.555C41.9141 109.274 42.3828 109.133 42.8867 109.133C43.7109 109.133 44.3516 109.404 44.8086 109.947C45.2656 110.49 45.4941 111.268 45.4941 112.279V112.731H41.1992C41.2148 113.356 41.3965 113.861 41.7441 114.248C42.0957 114.631 42.541 114.822 43.0801 114.822C43.4629 114.822 43.7871 114.744 44.0527 114.588C44.3184 114.432 44.5508 114.225 44.75 113.967L45.4121 114.483C44.8809 115.299 44.084 115.707 43.0215 115.707ZM42.8867 110.024C42.4492 110.024 42.082 110.184 41.7852 110.504C41.4883 110.82 41.3047 111.266 41.2344 111.84H44.4102V111.758C44.3789 111.207 44.2305 110.781 43.9648 110.481C43.6992 110.176 43.3398 110.024 42.8867 110.024ZM55.9062 107.059V112.859C55.9023 113.664 55.6484 114.322 55.1445 114.834C54.6445 115.346 53.9648 115.633 53.1055 115.695L52.8066 115.707C51.873 115.707 51.1289 115.455 50.5742 114.951C50.0195 114.447 49.7383 113.754 49.7305 112.871V107.059H50.8438V112.836C50.8438 113.453 51.0137 113.934 51.3535 114.277C51.6934 114.617 52.1777 114.787 52.8066 114.787C53.4434 114.787 53.9297 114.617 54.2656 114.277C54.6055 113.938 54.7754 113.459 54.7754 112.842V107.059H55.9062ZM58.8887 115.59H57.7637V107.059H58.8887V115.59Z" fill="var(--dt-color-foreground-primary)"/>
<rect x="1" y="1.08997" width="169.5" height="144" rx="13.5" stroke="var(--dt-color-foreground-primary)" stroke-opacity="0.1"/>
</svg>
<svg width="171" height="146" viewBox="0 0 171 146" fill="none" xmlns="http://www.w3.org/2000/svg">
<rect x="0.5" y="0.589966" width="170.5" height="145" rx="14" fill="var(--dt-color-surface-secondary)" fill-opacity="0.6"/>
<path d="M35.7408 63.5134H21.1705L17.8982 72.59H13.1688L26.4493 37.8123H30.4621L43.7665 72.59H39.061L35.7408 63.5134ZM22.5559 59.7394H34.3794L28.4557 43.4732L22.5559 59.7394ZM61.2652 72.59C61.0104 72.0804 60.8034 71.1727 60.6441 69.867C58.59 72.0008 56.1377 73.0677 53.2873 73.0677C50.7395 73.0677 48.6455 72.3511 47.0054 70.918C45.3811 69.4689 44.569 67.6377 44.569 65.4242C44.569 62.7331 45.5881 60.6471 47.6264 59.1662C49.6806 57.6693 52.5628 56.9209 56.273 56.9209H60.5725V54.8906C60.5725 53.346 60.1107 52.1199 59.1871 51.2122C58.2635 50.2886 56.902 49.8268 55.1026 49.8268C53.5262 49.8268 52.2045 50.2249 51.1376 51.0211C50.0707 51.8173 49.5373 52.7807 49.5373 53.9113H45.0945C45.0945 52.6215 45.5483 51.3794 46.456 50.1851C47.3796 48.9749 48.6216 48.0195 50.1822 47.3188C51.7586 46.6182 53.4864 46.2679 55.3654 46.2679C58.3431 46.2679 60.676 47.0163 62.3639 48.5131C64.0518 49.994 64.9276 52.0403 64.9913 54.6518V66.5469C64.9913 68.9195 65.2939 70.8065 65.899 72.2078V72.59H61.2652ZM53.9322 69.2221C55.3176 69.2221 56.6313 68.8638 57.8734 68.1472C59.1154 67.4306 60.0151 66.4991 60.5725 65.3526V60.0499H57.109C51.6949 60.0499 48.9879 61.6344 48.9879 64.8032C48.9879 66.1886 49.4497 67.2714 50.3733 68.0517C51.2968 68.8319 52.4832 69.2221 53.9322 69.2221Z" fill="var(--dt-color-foreground-primary)"/>
<path d="M14.6211 97.67H18.6641V98.59H13.4902V90.0587H14.6211V97.67ZM20.9551 98.59H19.8711V92.2501H20.9551V98.59ZM19.7832 90.5685C19.7832 90.3927 19.8359 90.2443 19.9414 90.1232C20.0508 90.0021 20.2109 89.9415 20.4219 89.9415C20.6328 89.9415 20.793 90.0021 20.9023 90.1232C21.0117 90.2443 21.0664 90.3927 21.0664 90.5685C21.0664 90.7443 21.0117 90.8907 20.9023 91.0079C20.793 91.1251 20.6328 91.1837 20.4219 91.1837C20.2109 91.1837 20.0508 91.1251 19.9414 91.0079C19.8359 90.8907 19.7832 90.7443 19.7832 90.5685ZM23.7207 92.2501L23.7559 93.047C24.2402 92.4376 24.873 92.1329 25.6543 92.1329C26.9941 92.1329 27.6699 92.8888 27.6816 94.4005V98.59H26.5977V94.3947C26.5938 93.9376 26.4883 93.5997 26.2812 93.381C26.0781 93.1622 25.7598 93.0529 25.3262 93.0529C24.9746 93.0529 24.666 93.1466 24.4004 93.3341C24.1348 93.5216 23.9277 93.7677 23.7793 94.0724V98.59H22.6953V92.2501H23.7207ZM33.2305 97.963C32.8086 98.4591 32.1895 98.7072 31.373 98.7072C30.6973 98.7072 30.1816 98.5118 29.8262 98.1212C29.4746 97.7267 29.2969 97.1447 29.293 96.3751V92.2501H30.377V96.3458C30.377 97.3068 30.7676 97.7872 31.5488 97.7872C32.377 97.7872 32.9277 97.4786 33.2012 96.8615V92.2501H34.2852V98.59H33.2539L33.2305 97.963ZM38.0645 94.5646L39.4707 92.2501H40.7363L38.6621 95.3849L40.8008 98.59H39.5469L38.082 96.2169L36.6172 98.59H35.3574L37.4961 95.3849L35.4219 92.2501H36.6758L38.0645 94.5646ZM44.8262 95.1271C44.8262 94.2443 44.9434 93.3966 45.1777 92.5841C45.416 91.7716 45.7695 91.0333 46.2383 90.3693C46.707 89.7052 47.1934 89.2365 47.6973 88.963L47.9199 89.6779C47.3496 90.1154 46.8809 90.7833 46.5137 91.6818C46.1504 92.5802 45.9512 93.5861 45.916 94.6993L45.9102 95.1974C45.9102 96.7052 46.1855 98.0138 46.7363 99.1232C47.0684 99.7872 47.4629 100.307 47.9199 100.682L47.6973 101.344C47.1777 101.055 46.6816 100.57 46.209 99.8907C45.2871 98.5626 44.8262 96.9747 44.8262 95.1271ZM55.1445 90.0587V95.8595C55.1406 96.6642 54.8867 97.3224 54.3828 97.8341C53.8828 98.3458 53.2031 98.6329 52.3438 98.6954L52.0449 98.7072C51.1113 98.7072 50.3672 98.4552 49.8125 97.9513C49.2578 97.4474 48.9766 96.754 48.9688 95.8712V90.0587H50.082V95.8361C50.082 96.4532 50.252 96.9337 50.5918 97.2775C50.9316 97.6173 51.416 97.7872 52.0449 97.7872C52.6816 97.7872 53.168 97.6173 53.5039 97.2775C53.8438 96.9376 54.0137 96.4591 54.0137 95.8419V90.0587H55.1445ZM62.1172 95.4904C62.1172 96.4591 61.8945 97.2384 61.4492 97.8282C61.0039 98.4142 60.4062 98.7072 59.6562 98.7072C58.8555 98.7072 58.2363 98.424 57.7988 97.8575L57.7461 98.59H56.75V89.59H57.834V92.9474C58.2715 92.4044 58.875 92.1329 59.6445 92.1329C60.4141 92.1329 61.0176 92.424 61.4551 93.006C61.8965 93.588 62.1172 94.3849 62.1172 95.3966V95.4904ZM61.0332 95.3673C61.0332 94.629 60.8906 94.0587 60.6055 93.6564C60.3203 93.254 59.9102 93.0529 59.375 93.0529C58.6602 93.0529 58.1465 93.3849 57.834 94.049V96.7911C58.166 97.4552 58.6836 97.7872 59.3867 97.7872C59.9062 97.7872 60.3105 97.5861 60.5996 97.1837C60.8887 96.7814 61.0332 96.1759 61.0332 95.3673ZM67.4023 97.963C66.9805 98.4591 66.3613 98.7072 65.5449 98.7072C64.8691 98.7072 64.3535 98.5118 63.998 98.1212C63.6465 97.7267 63.4688 97.1447 63.4648 96.3751V92.2501H64.5488V96.3458C64.5488 97.3068 64.9395 97.7872 65.7207 97.7872C66.5488 97.7872 67.0996 97.4786 67.373 96.8615V92.2501H68.457V98.59H67.4258L67.4023 97.963ZM71.1348 92.2501L71.1699 93.047C71.6543 92.4376 72.2871 92.1329 73.0684 92.1329C74.4082 92.1329 75.084 92.8888 75.0957 94.4005V98.59H74.0117V94.3947C74.0078 93.9376 73.9023 93.5997 73.6953 93.381C73.4922 93.1622 73.1738 93.0529 72.7402 93.0529C72.3887 93.0529 72.0801 93.1466 71.8145 93.3341C71.5488 93.5216 71.3418 93.7677 71.1934 94.0724V98.59H70.1094V92.2501H71.1348ZM78.2012 90.715V92.2501H79.3848V93.088H78.2012V97.0197C78.2012 97.2736 78.2539 97.465 78.3594 97.5939C78.4648 97.7189 78.6445 97.7814 78.8984 97.7814C79.0234 97.7814 79.1953 97.7579 79.4141 97.7111V98.59C79.1289 98.6681 78.8516 98.7072 78.582 98.7072C78.0977 98.7072 77.7324 98.5607 77.4863 98.2677C77.2402 97.9747 77.1172 97.5587 77.1172 97.0197V93.088H75.9629V92.2501H77.1172V90.715H78.2012ZM84.5703 97.963C84.1484 98.4591 83.5293 98.7072 82.7129 98.7072C82.0371 98.7072 81.5215 98.5118 81.166 98.1212C80.8145 97.7267 80.6367 97.1447 80.6328 96.3751V92.2501H81.7168V96.3458C81.7168 97.3068 82.1074 97.7872 82.8887 97.7872C83.7168 97.7872 84.2676 97.4786 84.541 96.8615V92.2501H85.625V98.59H84.5938L84.5703 97.963ZM89.7793 95.1857C89.7793 96.0568 89.6641 96.8927 89.4336 97.6935C89.207 98.4904 88.8574 99.2267 88.3848 99.9025C87.916 100.578 87.4238 101.059 86.9082 101.344L86.6797 100.682C87.2812 100.221 87.7637 99.506 88.127 98.5372C88.4941 97.5646 88.6816 96.4865 88.6895 95.3029V95.1154C88.6895 94.295 88.6035 93.5333 88.4316 92.8302C88.2598 92.1232 88.0195 91.4904 87.7109 90.9318C87.4062 90.3732 87.0625 89.9376 86.6797 89.6251L86.9082 88.963C87.4238 89.2482 87.9141 89.7247 88.3789 90.3927C88.8477 91.0607 89.1973 91.797 89.4277 92.6017C89.6621 93.4064 89.7793 94.2677 89.7793 95.1857Z" fill="var(--dt-color-foreground-primary)"/>
<path d="M13.4902 115.59V107.059H15.8984C16.6406 107.059 17.2969 107.223 17.8672 107.551C18.4375 107.879 18.877 108.346 19.1855 108.951C19.498 109.557 19.6562 110.252 19.6602 111.037V111.582C19.6602 112.387 19.5039 113.092 19.1914 113.697C18.8828 114.303 18.4395 114.768 17.8613 115.092C17.2871 115.416 16.6172 115.582 15.8516 115.59H13.4902ZM14.6152 107.984V114.67H15.7988C16.666 114.67 17.3398 114.401 17.8203 113.861C18.3047 113.322 18.5469 112.555 18.5469 111.559V111.061C18.5469 110.092 18.3184 109.34 17.8613 108.805C17.4082 108.266 16.7637 107.992 15.9277 107.984H14.6152ZM23.8262 115.707C22.9668 115.707 22.2676 115.426 21.7285 114.863C21.1895 114.297 20.9199 113.541 20.9199 112.596V112.397C20.9199 111.768 21.0391 111.207 21.2773 110.715C21.5195 110.219 21.8555 109.832 22.2852 109.555C22.7188 109.274 23.1875 109.133 23.6914 109.133C24.5156 109.133 25.1562 109.404 25.6133 109.947C26.0703 110.49 26.2988 111.268 26.2988 112.279V112.731H22.0039C22.0195 113.356 22.2012 113.861 22.5488 114.248C22.9004 114.631 23.3457 114.822 23.8848 114.822C24.2676 114.822 24.5918 114.744 24.8574 114.588C25.123 114.432 25.3555 114.225 25.5547 113.967L26.2168 114.483C25.6855 115.299 24.8887 115.707 23.8262 115.707ZM23.6914 110.024C23.2539 110.024 22.8867 110.184 22.5898 110.504C22.293 110.82 22.1094 111.266 22.0391 111.84H25.2148V111.758C25.1836 111.207 25.0352 110.781 24.7695 110.481C24.5039 110.176 24.1445 110.024 23.6914 110.024ZM28.0918 115.59V110.088H27.0898V109.25H28.0918V108.6C28.0918 107.92 28.2734 107.395 28.6367 107.024C29 106.652 29.5137 106.467 30.1777 106.467C30.4277 106.467 30.6758 106.5 30.9219 106.567L30.8633 107.445C30.6797 107.41 30.4844 107.393 30.2773 107.393C29.9258 107.393 29.6543 107.496 29.4629 107.703C29.2715 107.906 29.1758 108.199 29.1758 108.582V109.25H30.5293V110.088H29.1758V115.59H28.0918ZM35.6445 115.59C35.582 115.465 35.5312 115.242 35.4922 114.922C34.9883 115.445 34.3867 115.707 33.6875 115.707C33.0625 115.707 32.5488 115.531 32.1465 115.18C31.748 114.824 31.5488 114.375 31.5488 113.832C31.5488 113.172 31.7988 112.66 32.2988 112.297C32.8027 111.93 33.5098 111.746 34.4199 111.746H35.4746V111.248C35.4746 110.869 35.3613 110.568 35.1348 110.346C34.9082 110.119 34.5742 110.006 34.1328 110.006C33.7461 110.006 33.4219 110.104 33.1602 110.299C32.8984 110.494 32.7676 110.731 32.7676 111.008H31.6777C31.6777 110.692 31.7891 110.387 32.0117 110.094C32.2383 109.797 32.543 109.563 32.9258 109.391C33.3125 109.219 33.7363 109.133 34.1973 109.133C34.9277 109.133 35.5 109.317 35.9141 109.684C36.3281 110.047 36.543 110.549 36.5586 111.19V114.108C36.5586 114.69 36.6328 115.152 36.7812 115.496V115.59H35.6445ZM33.8457 114.764C34.1855 114.764 34.5078 114.676 34.8125 114.5C35.1172 114.324 35.3379 114.096 35.4746 113.815V112.514H34.625C33.2969 112.514 32.6328 112.902 32.6328 113.68C32.6328 114.02 32.7461 114.285 32.9727 114.477C33.1992 114.668 33.4902 114.764 33.8457 114.764ZM42.1719 114.963C41.75 115.459 41.1309 115.707 40.3145 115.707C39.6387 115.707 39.123 115.512 38.7676 115.121C38.416 114.727 38.2383 114.145 38.2344 113.375V109.25H39.3184V113.346C39.3184 114.307 39.709 114.787 40.4902 114.787C41.3184 114.787 41.8691 114.479 42.1426 113.861V109.25H43.2266V115.59H42.1953L42.1719 114.963ZM46.0566 115.59H44.9727V106.59H46.0566V115.59ZM49.2676 107.715V109.25H50.4512V110.088H49.2676V114.02C49.2676 114.274 49.3203 114.465 49.4258 114.594C49.5312 114.719 49.7109 114.781 49.9648 114.781C50.0898 114.781 50.2617 114.758 50.4805 114.711V115.59C50.1953 115.668 49.918 115.707 49.6484 115.707C49.1641 115.707 48.7988 115.561 48.5527 115.268C48.3066 114.975 48.1836 114.559 48.1836 114.02V110.088H47.0293V109.25H48.1836V107.715H49.2676ZM58.3906 113.908C58.3906 113.615 58.2793 113.389 58.0566 113.229C57.8379 113.065 57.4531 112.924 56.9023 112.807C56.3555 112.69 55.9199 112.549 55.5957 112.385C55.2754 112.221 55.0371 112.026 54.8809 111.799C54.7285 111.572 54.6523 111.303 54.6523 110.99C54.6523 110.471 54.8711 110.031 55.3086 109.672C55.75 109.313 56.3125 109.133 56.9961 109.133C57.7148 109.133 58.2969 109.318 58.7422 109.69C59.1914 110.061 59.416 110.535 59.416 111.113H58.3262C58.3262 110.817 58.1992 110.561 57.9453 110.346C57.6953 110.131 57.3789 110.024 56.9961 110.024C56.6016 110.024 56.293 110.109 56.0703 110.281C55.8477 110.453 55.7363 110.678 55.7363 110.955C55.7363 111.217 55.8398 111.414 56.0469 111.547C56.2539 111.68 56.627 111.807 57.166 111.928C57.709 112.049 58.1484 112.193 58.4844 112.361C58.8203 112.529 59.0684 112.733 59.2285 112.971C59.3926 113.205 59.4746 113.492 59.4746 113.832C59.4746 114.399 59.248 114.854 58.7949 115.197C58.3418 115.537 57.7539 115.707 57.0312 115.707C56.5234 115.707 56.0742 115.617 55.6836 115.438C55.293 115.258 54.9863 115.008 54.7637 114.688C54.5449 114.363 54.4355 114.014 54.4355 113.639H55.5195C55.5391 114.002 55.6836 114.291 55.9531 114.506C56.2266 114.717 56.5859 114.822 57.0312 114.822C57.4414 114.822 57.7695 114.74 58.0156 114.576C58.2656 114.408 58.3906 114.186 58.3906 113.908ZM64.8008 115.59C64.7383 115.465 64.6875 115.242 64.6484 114.922C64.1445 115.445 63.543 115.707 62.8438 115.707C62.2188 115.707 61.7051 115.531 61.3027 115.18C60.9043 114.824 60.7051 114.375 60.7051 113.832C60.7051 113.172 60.9551 112.66 61.4551 112.297C61.959 111.93 62.666 111.746 63.5762 111.746H64.6309V111.248C64.6309 110.869 64.5176 110.568 64.291 110.346C64.0645 110.119 63.7305 110.006 63.2891 110.006C62.9023 110.006 62.5781 110.104 62.3164 110.299C62.0547 110.494 61.9238 110.731 61.9238 111.008H60.834C60.834 110.692 60.9453 110.387 61.168 110.094C61.3945 109.797 61.6992 109.563 62.082 109.391C62.4688 109.219 62.8926 109.133 63.3535 109.133C64.084 109.133 64.6562 109.317 65.0703 109.684C65.4844 110.047 65.6992 110.549 65.7148 111.19V114.108C65.7148 114.69 65.7891 115.152 65.9375 115.496V115.59H64.8008ZM63.002 114.764C63.3418 114.764 63.6641 114.676 63.9688 114.5C64.2734 114.324 64.4941 114.096 64.6309 113.815V112.514H63.7812C62.4531 112.514 61.7891 112.902 61.7891 113.68C61.7891 114.02 61.9023 114.285 62.1289 114.477C62.3555 114.668 62.6465 114.764 63.002 114.764ZM68.4395 109.25L68.4746 110.047C68.959 109.438 69.5918 109.133 70.373 109.133C71.7129 109.133 72.3887 109.889 72.4004 111.401V115.59H71.3164V111.395C71.3125 110.938 71.207 110.6 71 110.381C70.7969 110.162 70.4785 110.053 70.0449 110.053C69.6934 110.053 69.3848 110.147 69.1191 110.334C68.8535 110.522 68.6465 110.768 68.498 111.072V115.59H67.4141V109.25H68.4395ZM77.7266 113.908C77.7266 113.615 77.6152 113.389 77.3926 113.229C77.1738 113.065 76.7891 112.924 76.2383 112.807C75.6914 112.69 75.2559 112.549 74.9316 112.385C74.6113 112.221 74.373 112.026 74.2168 111.799C74.0645 111.572 73.9883 111.303 73.9883 110.99C73.9883 110.471 74.207 110.031 74.6445 109.672C75.0859 109.313 75.6484 109.133 76.332 109.133C77.0508 109.133 77.6328 109.318 78.0781 109.69C78.5273 110.061 78.752 110.535 78.752 111.113H77.6621C77.6621 110.817 77.5352 110.561 77.2812 110.346C77.0312 110.131 76.7148 110.024 76.332 110.024C75.9375 110.024 75.6289 110.109 75.4062 110.281C75.1836 110.453 75.0723 110.678 75.0723 110.955C75.0723 111.217 75.1758 111.414 75.3828 111.547C75.5898 111.68 75.9629 111.807 76.502 111.928C77.0449 112.049 77.4844 112.193 77.8203 112.361C78.1562 112.529 78.4043 112.733 78.5645 112.971C78.7285 113.205 78.8105 113.492 78.8105 113.832C78.8105 114.399 78.584 114.854 78.1309 115.197C77.6777 115.537 77.0898 115.707 76.3672 115.707C75.8594 115.707 75.4102 115.617 75.0195 115.438C74.6289 115.258 74.3223 115.008 74.0996 114.688C73.8809 114.363 73.7715 114.014 73.7715 113.639H74.8555C74.875 114.002 75.0195 114.291 75.2891 114.506C75.5625 114.717 75.9219 114.822 76.3672 114.822C76.7773 114.822 77.1055 114.74 77.3516 114.576C77.6016 114.408 77.7266 114.186 77.7266 113.908ZM82.4785 112.408H79.6191V111.524H82.4785V112.408ZM87.2305 113.908C87.2305 113.615 87.1191 113.389 86.8965 113.229C86.6777 113.065 86.293 112.924 85.7422 112.807C85.1953 112.69 84.7598 112.549 84.4355 112.385C84.1152 112.221 83.877 112.026 83.7207 111.799C83.5684 111.572 83.4922 111.303 83.4922 110.99C83.4922 110.471 83.7109 110.031 84.1484 109.672C84.5898 109.313 85.1523 109.133 85.8359 109.133C86.5547 109.133 87.1367 109.318 87.582 109.69C88.0312 110.061 88.2559 110.535 88.2559 111.113H87.166C87.166 110.817 87.0391 110.561 86.7852 110.346C86.5352 110.131 86.2188 110.024 85.8359 110.024C85.4414 110.024 85.1328 110.109 84.9102 110.281C84.6875 110.453 84.5762 110.678 84.5762 110.955C84.5762 111.217 84.6797 111.414 84.8867 111.547C85.0938 111.68 85.4668 111.807 86.0059 111.928C86.5488 112.049 86.9883 112.193 87.3242 112.361C87.6602 112.529 87.9082 112.733 88.0684 112.971C88.2324 113.205 88.3145 113.492 88.3145 113.832C88.3145 114.399 88.0879 114.854 87.6348 115.197C87.1816 115.537 86.5938 115.707 85.8711 115.707C85.3633 115.707 84.9141 115.617 84.5234 115.438C84.1328 115.258 83.8262 115.008 83.6035 114.688C83.3848 114.363 83.2754 114.014 83.2754 113.639H84.3594C84.3789 114.002 84.5234 114.291 84.793 114.506C85.0664 114.717 85.4258 114.822 85.8711 114.822C86.2812 114.822 86.6094 114.74 86.8555 114.576C87.1055 114.408 87.2305 114.186 87.2305 113.908ZM92.3574 115.707C91.498 115.707 90.7988 115.426 90.2598 114.863C89.7207 114.297 89.4512 113.541 89.4512 112.596V112.397C89.4512 111.768 89.5703 111.207 89.8086 110.715C90.0508 110.219 90.3867 109.832 90.8164 109.555C91.25 109.274 91.7188 109.133 92.2227 109.133C93.0469 109.133 93.6875 109.404 94.1445 109.947C94.6016 110.49 94.8301 111.268 94.8301 112.279V112.731H90.5352C90.5508 113.356 90.7324 113.861 91.0801 114.248C91.4316 114.631 91.877 114.822 92.416 114.822C92.7988 114.822 93.123 114.744 93.3887 114.588C93.6543 114.432 93.8867 114.225 94.0859 113.967L94.748 114.483C94.2168 115.299 93.4199 115.707 92.3574 115.707ZM92.2227 110.024C91.7852 110.024 91.418 110.184 91.1211 110.504C90.8242 110.82 90.6406 111.266 90.5703 111.84H93.7461V111.758C93.7148 111.207 93.5664 110.781 93.3008 110.481C93.0352 110.176 92.6758 110.024 92.2227 110.024ZM99.1543 110.223C98.9902 110.195 98.8125 110.182 98.6211 110.182C97.9102 110.182 97.4277 110.484 97.1738 111.09V115.59H96.0898V109.25H97.1445L97.1621 109.983C97.5176 109.416 98.0215 109.133 98.6738 109.133C98.8848 109.133 99.0449 109.16 99.1543 109.215V110.223ZM101.334 115.59H100.25V109.25H101.334V115.59ZM100.162 107.568C100.162 107.393 100.215 107.244 100.32 107.123C100.43 107.002 100.59 106.942 100.801 106.942C101.012 106.942 101.172 107.002 101.281 107.123C101.391 107.244 101.445 107.393 101.445 107.568C101.445 107.744 101.391 107.891 101.281 108.008C101.172 108.125 101.012 108.184 100.801 108.184C100.59 108.184 100.43 108.125 100.32 108.008C100.215 107.891 100.162 107.744 100.162 107.568ZM103.607 115.59V110.088H102.605V109.25H103.607V108.6C103.607 107.92 103.789 107.395 104.152 107.024C104.516 106.652 105.029 106.467 105.693 106.467C105.943 106.467 106.191 106.5 106.438 106.567L106.379 107.445C106.195 107.41 106 107.393 105.793 107.393C105.441 107.393 105.17 107.496 104.979 107.703C104.787 107.906 104.691 108.199 104.691 108.582V109.25H106.045V110.088H104.691V115.59H103.607ZM110.756 115.59V110.088H109.754V109.25H110.756V108.6C110.756 107.92 110.938 107.395 111.301 107.024C111.664 106.652 112.178 106.467 112.842 106.467C113.092 106.467 113.34 106.5 113.586 106.567L113.527 107.445C113.344 107.41 113.148 107.393 112.941 107.393C112.59 107.393 112.318 107.496 112.127 107.703C111.936 107.906 111.84 108.199 111.84 108.582V109.25H113.193V110.088H111.84V115.59H110.756ZM114.107 112.361C114.107 111.74 114.229 111.182 114.471 110.686C114.717 110.19 115.057 109.807 115.49 109.537C115.928 109.268 116.426 109.133 116.984 109.133C117.848 109.133 118.545 109.432 119.076 110.029C119.611 110.627 119.879 111.422 119.879 112.414V112.49C119.879 113.108 119.76 113.662 119.521 114.154C119.287 114.643 118.949 115.024 118.508 115.297C118.07 115.57 117.566 115.707 116.996 115.707C116.137 115.707 115.439 115.408 114.904 114.811C114.373 114.213 114.107 113.422 114.107 112.438V112.361ZM115.197 112.49C115.197 113.193 115.359 113.758 115.684 114.184C116.012 114.609 116.449 114.822 116.996 114.822C117.547 114.822 117.984 114.608 118.309 114.178C118.633 113.744 118.795 113.139 118.795 112.361C118.795 111.666 118.629 111.104 118.297 110.674C117.969 110.24 117.531 110.024 116.984 110.024C116.449 110.024 116.018 110.236 115.689 110.662C115.361 111.088 115.197 111.697 115.197 112.49ZM122.264 109.25L122.299 110.047C122.783 109.438 123.416 109.133 124.197 109.133C125.537 109.133 126.213 109.889 126.225 111.401V115.59H125.141V111.395C125.137 110.938 125.031 110.6 124.824 110.381C124.621 110.162 124.303 110.053 123.869 110.053C123.518 110.053 123.209 110.147 122.943 110.334C122.678 110.522 122.471 110.768 122.322 111.072V115.59H121.238V109.25H122.264ZM129.33 107.715V109.25H130.514V110.088H129.33V114.02C129.33 114.274 129.383 114.465 129.488 114.594C129.594 114.719 129.773 114.781 130.027 114.781C130.152 114.781 130.324 114.758 130.543 114.711V115.59C130.258 115.668 129.98 115.707 129.711 115.707C129.227 115.707 128.861 115.561 128.615 115.268C128.369 114.975 128.246 114.559 128.246 114.02V110.088H127.092V109.25H128.246V107.715H129.33Z" fill="var(--dt-color-foreground-primary)"/>
<rect x="1" y="1.08997" width="169.5" height="144" rx="13.5" stroke="var(--dt-color-foreground-primary)" stroke-opacity="0.1"/>
</svg>