<svg width="165" height="146" viewBox="0 0 165 146" fill="none" xmlns="http://www.w3.org/2000/svg">
<rect y="0.589966" width="165" height="145" rx="14" fill="white" fill-opacity="0.6"/>
<rect x="0.5" y="1.08997" width="164" height="144" rx="13.5" stroke="black" stroke-opacity="0.1"/>
<path d="M12.3822 76.59L25.5193 42.3378H29.6755L42.8604 76.59H38.4176L34.9542 67.4417H20.1212L16.8488 76.59H12.3822ZM21.4588 63.8111H33.6405L28.099 48.9064C27.9875 48.6038 27.9 48.349 27.8363 48.142C27.7726 47.935 27.685 47.6484 27.5735 47.2821H27.478C27.3506 47.6484 27.255 47.943 27.1913 48.1659C27.1276 48.3729 27.0401 48.6197 26.9286 48.9064L21.4588 63.8111ZM61.84 76.59H57.9228V73.3415H57.8272C56.9992 74.5676 55.9482 75.5151 54.6743 76.1839C53.4163 76.8368 52.023 77.1632 50.4943 77.1632C48.0579 77.1632 46.1471 76.5103 44.7617 75.2046C43.3923 73.8988 42.7075 72.2666 42.7075 70.308C42.7075 68.015 43.4241 66.2395 44.8572 64.9815C46.2904 63.7076 48.2968 62.9194 50.8765 62.6168L57.9228 61.8047V60.2521C57.9228 58.4846 57.461 57.1629 56.5374 56.2871C55.6297 55.3953 54.3797 54.9495 52.7873 54.9495C51.2746 54.9495 50.0245 55.2918 49.0373 55.9766C48.05 56.6454 47.2936 57.5849 46.7681 58.7951L43.3524 57.3858C44.1486 55.5387 45.3748 54.1055 47.0308 53.0864C48.7029 52.0673 50.6933 51.5577 53.0023 51.5577C55.8527 51.5577 58.0342 52.322 59.547 53.8507C61.0757 55.3635 61.84 57.4893 61.84 60.2282V76.59ZM57.9228 66.6535V64.9815L51.1392 65.7458C49.6264 65.921 48.5118 66.3589 47.7952 67.0595C47.0786 67.7443 46.7203 68.6599 46.7203 69.8064C46.7203 71.0644 47.1344 72.0756 47.9624 72.8399C48.7904 73.5883 49.8733 73.9625 51.2109 73.9625C53.2173 73.9625 54.8335 73.2778 56.0597 71.9084C57.3017 70.523 57.9228 68.7714 57.9228 66.6535Z" fill="black"/>
<path d="M14.8301 95.9005L14.9941 97.0255L15.2344 96.0118L16.9219 90.0587H17.8711L19.5176 96.0118L19.752 97.0431L19.9336 95.8947L21.2578 90.0587H22.3887L20.3203 98.59H19.2949L17.5371 92.3732L17.4023 91.7228L17.2676 92.3732L15.4453 98.59H14.4199L12.3574 90.0587H13.4824L14.8301 95.9005ZM24.6504 98.59H23.5664V92.2501H24.6504V98.59ZM23.4785 90.5685C23.4785 90.3927 23.5312 90.2443 23.6367 90.1232C23.7461 90.0021 23.9062 89.9415 24.1172 89.9415C24.3281 89.9415 24.4883 90.0021 24.5977 90.1232C24.707 90.2443 24.7617 90.3927 24.7617 90.5685C24.7617 90.7443 24.707 90.8907 24.5977 91.0079C24.4883 91.1251 24.3281 91.1837 24.1172 91.1837C23.9062 91.1837 23.7461 91.1251 23.6367 91.0079C23.5312 90.8907 23.4785 90.7443 23.4785 90.5685ZM27.416 92.2501L27.4512 93.047C27.9355 92.4376 28.5684 92.1329 29.3496 92.1329C30.6895 92.1329 31.3652 92.8888 31.377 94.4005V98.59H30.293V94.3947C30.2891 93.9376 30.1836 93.5997 29.9766 93.381C29.7734 93.1622 29.4551 93.0529 29.0215 93.0529C28.6699 93.0529 28.3613 93.1466 28.0957 93.3341C27.8301 93.5216 27.623 93.7677 27.4746 94.0724V98.59H26.3906V92.2501H27.416ZM32.748 95.3673C32.748 94.3947 32.9785 93.6134 33.4395 93.0236C33.9004 92.4298 34.5039 92.1329 35.25 92.1329C35.9922 92.1329 36.5801 92.3868 37.0137 92.8947V89.59H38.0977V98.59H37.1016L37.0488 97.9103C36.6152 98.4415 36.0117 98.7072 35.2383 98.7072C34.5039 98.7072 33.9043 98.4064 33.4395 97.8048C32.9785 97.2032 32.748 96.4181 32.748 95.4493V95.3673ZM33.832 95.4904C33.832 96.2091 33.9805 96.7716 34.2773 97.1779C34.5742 97.5841 34.9844 97.7872 35.5078 97.7872C36.1953 97.7872 36.6973 97.4786 37.0137 96.8615V93.9493C36.6895 93.3517 36.1914 93.0529 35.5195 93.0529C34.9883 93.0529 34.5742 93.2579 34.2773 93.6681C33.9805 94.0782 33.832 94.6857 33.832 95.4904ZM39.498 95.3615C39.498 94.7404 39.6191 94.1818 39.8613 93.6857C40.1074 93.1896 40.4473 92.8068 40.8809 92.5372C41.3184 92.2677 41.8164 92.1329 42.375 92.1329C43.2383 92.1329 43.9355 92.4318 44.4668 93.0294C45.002 93.6271 45.2695 94.422 45.2695 95.4142V95.4904C45.2695 96.1075 45.1504 96.6622 44.9121 97.1544C44.6777 97.6427 44.3398 98.0236 43.8984 98.297C43.4609 98.5704 42.957 98.7072 42.3867 98.7072C41.5273 98.7072 40.8301 98.4083 40.2949 97.8107C39.7637 97.213 39.498 96.422 39.498 95.4376V95.3615ZM40.5879 95.4904C40.5879 96.1935 40.75 96.7579 41.0742 97.1837C41.4023 97.6095 41.8398 97.8224 42.3867 97.8224C42.9375 97.8224 43.375 97.6075 43.6992 97.1779C44.0234 96.7443 44.1855 96.1388 44.1855 95.3615C44.1855 94.6661 44.0195 94.1036 43.6875 93.674C43.3594 93.2404 42.9219 93.0236 42.375 93.0236C41.8398 93.0236 41.4082 93.2365 41.0801 93.6622C40.752 94.088 40.5879 94.6974 40.5879 95.4904ZM52.2422 97.0958L53.4609 92.2501H54.5449L52.6992 98.59H51.8203L50.2793 93.7853L48.7793 98.59H47.9004L46.0605 92.2501H47.1387L48.3867 96.9962L49.8633 92.2501H50.7363L52.2422 97.0958ZM59.3438 96.9083C59.3438 96.6154 59.2324 96.3888 59.0098 96.2286C58.791 96.0646 58.4062 95.924 57.8555 95.8068C57.3086 95.6896 56.873 95.549 56.5488 95.3849C56.2285 95.2208 55.9902 95.0255 55.834 94.799C55.6816 94.5724 55.6055 94.3029 55.6055 93.9904C55.6055 93.4708 55.8242 93.0314 56.2617 92.672C56.7031 92.3126 57.2656 92.1329 57.9492 92.1329C58.668 92.1329 59.25 92.3185 59.6953 92.6896C60.1445 93.0607 60.3691 93.5353 60.3691 94.1134H59.2793C59.2793 93.8165 59.1523 93.5607 58.8984 93.3458C58.6484 93.131 58.332 93.0236 57.9492 93.0236C57.5547 93.0236 57.2461 93.1095 57.0234 93.2814C56.8008 93.4532 56.6895 93.6779 56.6895 93.9552C56.6895 94.2169 56.793 94.4142 57 94.547C57.207 94.6798 57.5801 94.8068 58.1191 94.9279C58.6621 95.049 59.1016 95.1935 59.4375 95.3615C59.7734 95.5294 60.0215 95.7325 60.1816 95.9708C60.3457 96.2052 60.4277 96.4923 60.4277 96.8322C60.4277 97.3986 60.2012 97.8536 59.748 98.1974C59.2949 98.5372 58.707 98.7072 57.9844 98.7072C57.4766 98.7072 57.0273 98.6173 56.6367 98.4376C56.2461 98.2579 55.9395 98.0079 55.7168 97.6876C55.498 97.3634 55.3887 97.0138 55.3887 96.6388H56.4727C56.4922 97.0021 56.6367 97.2911 56.9062 97.506C57.1797 97.7169 57.5391 97.8224 57.9844 97.8224C58.3945 97.8224 58.7227 97.7404 58.9688 97.5763C59.2188 97.4083 59.3438 97.1857 59.3438 96.9083Z" fill="black"/>
<path d="M15.5039 111.787C14.5391 111.51 13.8359 111.17 13.3945 110.768C12.957 110.361 12.7383 109.861 12.7383 109.268C12.7383 108.596 13.0059 108.041 13.541 107.604C14.0801 107.162 14.7793 106.942 15.6387 106.942C16.2246 106.942 16.7461 107.055 17.2031 107.281C17.6641 107.508 18.0195 107.82 18.2695 108.219C18.5234 108.617 18.6504 109.053 18.6504 109.526H17.5195C17.5195 109.01 17.3555 108.606 17.0273 108.313C16.6992 108.016 16.2363 107.867 15.6387 107.867C15.084 107.867 14.6504 107.99 14.3379 108.236C14.0293 108.479 13.875 108.817 13.875 109.25C13.875 109.598 14.0215 109.893 14.3145 110.135C14.6113 110.373 15.1133 110.592 15.8203 110.791C16.5312 110.99 17.0859 111.211 17.4844 111.453C17.8867 111.692 18.1836 111.971 18.375 112.291C18.5703 112.611 18.668 112.988 18.668 113.422C18.668 114.113 18.3984 114.668 17.8594 115.086C17.3203 115.5 16.5996 115.707 15.6973 115.707C15.1113 115.707 14.5645 115.596 14.0566 115.373C13.5488 115.147 13.1562 114.838 12.8789 114.447C12.6055 114.057 12.4688 113.613 12.4688 113.117H13.5996C13.5996 113.633 13.7891 114.041 14.168 114.342C14.5508 114.639 15.0605 114.787 15.6973 114.787C16.291 114.787 16.7461 114.666 17.0625 114.424C17.3789 114.182 17.5371 113.852 17.5371 113.434C17.5371 113.016 17.3906 112.693 17.0977 112.467C16.8047 112.236 16.2734 112.01 15.5039 111.787ZM22.5762 115.707C21.7168 115.707 21.0176 115.426 20.4785 114.863C19.9395 114.297 19.6699 113.541 19.6699 112.596V112.397C19.6699 111.768 19.7891 111.207 20.0273 110.715C20.2695 110.219 20.6055 109.832 21.0352 109.555C21.4688 109.274 21.9375 109.133 22.4414 109.133C23.2656 109.133 23.9062 109.404 24.3633 109.947C24.8203 110.49 25.0488 111.268 25.0488 112.279V112.731H20.7539C20.7695 113.356 20.9512 113.861 21.2988 114.248C21.6504 114.631 22.0957 114.822 22.6348 114.822C23.0176 114.822 23.3418 114.744 23.6074 114.588C23.873 114.432 24.1055 114.225 24.3047 113.967L24.9668 114.483C24.4355 115.299 23.6387 115.707 22.5762 115.707ZM22.4414 110.024C22.0039 110.024 21.6367 110.184 21.3398 110.504C21.043 110.82 20.8594 111.266 20.7891 111.84H23.9648V111.758C23.9336 111.207 23.7852 110.781 23.5195 110.481C23.2539 110.176 22.8945 110.024 22.4414 110.024ZM26.0508 112.367C26.0508 111.379 26.2793 110.594 26.7363 110.012C27.1934 109.426 27.7988 109.133 28.5527 109.133C29.3262 109.133 29.9297 109.406 30.3633 109.953L30.416 109.25H31.4062V115.438C31.4062 116.258 31.1621 116.904 30.6738 117.377C30.1895 117.85 29.5371 118.086 28.7168 118.086C28.2598 118.086 27.8125 117.988 27.375 117.793C26.9375 117.598 26.6035 117.33 26.373 116.99L26.9355 116.34C27.4004 116.914 27.9688 117.201 28.6406 117.201C29.168 117.201 29.5781 117.053 29.8711 116.756C30.168 116.459 30.3164 116.041 30.3164 115.502V114.957C29.8828 115.457 29.291 115.707 28.541 115.707C27.7988 115.707 27.1973 115.408 26.7363 114.811C26.2793 114.213 26.0508 113.399 26.0508 112.367ZM27.1406 112.49C27.1406 113.205 27.2871 113.768 27.5801 114.178C27.873 114.584 28.2832 114.787 28.8105 114.787C29.4941 114.787 29.9961 114.477 30.3164 113.856V110.961C29.9844 110.356 29.4863 110.053 28.8223 110.053C28.2949 110.053 27.8828 110.258 27.5859 110.668C27.2891 111.078 27.1406 111.686 27.1406 112.49ZM32.7598 112.361C32.7598 111.74 32.8809 111.182 33.123 110.686C33.3691 110.19 33.709 109.807 34.1426 109.537C34.5801 109.268 35.0781 109.133 35.6367 109.133C36.5 109.133 37.1973 109.432 37.7285 110.029C38.2637 110.627 38.5312 111.422 38.5312 112.414V112.49C38.5312 113.108 38.4121 113.662 38.1738 114.154C37.9395 114.643 37.6016 115.024 37.1602 115.297C36.7227 115.57 36.2188 115.707 35.6484 115.707C34.7891 115.707 34.0918 115.408 33.5566 114.811C33.0254 114.213 32.7598 113.422 32.7598 112.438V112.361ZM33.8496 112.49C33.8496 113.193 34.0117 113.758 34.3359 114.184C34.6641 114.609 35.1016 114.822 35.6484 114.822C36.1992 114.822 36.6367 114.608 36.9609 114.178C37.2852 113.744 37.4473 113.139 37.4473 112.361C37.4473 111.666 37.2812 111.104 36.9492 110.674C36.6211 110.24 36.1836 110.024 35.6367 110.024C35.1016 110.024 34.6699 110.236 34.3418 110.662C34.0137 111.088 33.8496 111.697 33.8496 112.49ZM42.5215 115.707C41.6621 115.707 40.9629 115.426 40.4238 114.863C39.8848 114.297 39.6152 113.541 39.6152 112.596V112.397C39.6152 111.768 39.7344 111.207 39.9727 110.715C40.2148 110.219 40.5508 109.832 40.9805 109.555C41.4141 109.274 41.8828 109.133 42.3867 109.133C43.2109 109.133 43.8516 109.404 44.3086 109.947C44.7656 110.49 44.9941 111.268 44.9941 112.279V112.731H40.6992C40.7148 113.356 40.8965 113.861 41.2441 114.248C41.5957 114.631 42.041 114.822 42.5801 114.822C42.9629 114.822 43.2871 114.744 43.5527 114.588C43.8184 114.432 44.0508 114.225 44.25 113.967L44.9121 114.483C44.3809 115.299 43.584 115.707 42.5215 115.707ZM42.3867 110.024C41.9492 110.024 41.582 110.184 41.2852 110.504C40.9883 110.82 40.8047 111.266 40.7344 111.84H43.9102V111.758C43.8789 111.207 43.7305 110.781 43.4648 110.481C43.1992 110.176 42.8398 110.024 42.3867 110.024ZM55.4062 107.059V112.859C55.4023 113.664 55.1484 114.322 54.6445 114.834C54.1445 115.346 53.4648 115.633 52.6055 115.695L52.3066 115.707C51.373 115.707 50.6289 115.455 50.0742 114.951C49.5195 114.447 49.2383 113.754 49.2305 112.871V107.059H50.3438V112.836C50.3438 113.453 50.5137 113.934 50.8535 114.277C51.1934 114.617 51.6777 114.787 52.3066 114.787C52.9434 114.787 53.4297 114.617 53.7656 114.277C54.1055 113.938 54.2754 113.459 54.2754 112.842V107.059H55.4062ZM58.3887 115.59H57.2637V107.059H58.3887V115.59Z" fill="black"/>
</svg>
