<svg width="12" height="12" viewBox="0 0 12 12" fill="none" xmlns="http://www.w3.org/2000/svg">
<path fill-rule="evenodd" clip-rule="evenodd" d="M10.3545 1.0875C10.5823 1.00698 10.8322 1.12639 10.9127 1.3542C11.1502 2.02594 11.2792 2.74837 11.2792 3.5C11.2792 4.25162 11.1502 4.97406 10.9127 5.64579C10.8322 5.87361 10.5823 5.99301 10.3545 5.91249C10.1266 5.83197 10.0072 5.58202 10.0878 5.3542C10.2925 4.77482 10.4042 4.15092 10.4042 3.5C10.4042 2.84908 10.2925 2.22518 10.0878 1.64579C10.0072 1.41798 10.1266 1.16803 10.3545 1.0875ZM5.00024 1.9375C4.1373 1.9375 3.43774 2.63705 3.43774 3.5C3.43774 4.36294 4.1373 5.0625 5.00024 5.0625C5.86319 5.0625 6.56274 4.36294 6.56274 3.5C6.56274 2.63705 5.86319 1.9375 5.00024 1.9375ZM2.56274 3.5C2.56274 2.1538 3.65405 1.0625 5.00024 1.0625C6.34644 1.0625 7.43775 2.1538 7.43775 3.5C7.43775 4.84619 6.34644 5.9375 5.00024 5.9375C3.65405 5.9375 2.56274 4.84619 2.56274 3.5ZM8.33609 1.59446C8.56006 1.5038 8.81512 1.61187 8.90578 1.83584C9.11404 2.35032 9.2285 2.91233 9.2285 3.5C9.2285 4.08766 9.11404 4.64967 8.90578 5.16415C8.81512 5.38812 8.56006 5.49619 8.33609 5.40553C8.11212 5.31487 8.00405 5.05981 8.09471 4.83584C8.26146 4.42389 8.3535 3.97323 8.3535 3.5C8.3535 3.02676 8.26146 2.5761 8.09471 2.16415C8.00405 1.94018 8.11212 1.68512 8.33609 1.59446ZM1.77667 7.77643C2.23379 7.31931 2.85378 7.0625 3.50024 7.0625H6.50024C7.14671 7.0625 7.7667 7.31931 8.22382 7.77643C8.68094 8.23355 8.93775 8.85353 8.93775 9.5V10.5C8.93775 10.7416 8.74187 10.9375 8.50025 10.9375C8.25862 10.9375 8.06275 10.7416 8.06275 10.5V9.5C8.06275 9.0856 7.89812 8.68817 7.6051 8.39514C7.31207 8.10212 6.91465 7.9375 6.50024 7.9375H3.50024C3.08584 7.9375 2.68842 8.10212 2.39539 8.39514C2.10236 8.68817 1.93774 9.0856 1.93774 9.5V10.5C1.93774 10.7416 1.74187 10.9375 1.50024 10.9375C1.25862 10.9375 1.06274 10.7416 1.06274 10.5V9.5C1.06274 8.85353 1.31955 8.23355 1.77667 7.77643Z" fill="black"/>
</svg>
