<svg width="12" height="12" viewBox="0 0 12 12" fill="none" xmlns="http://www.w3.org/2000/svg">
<path fill-rule="evenodd" clip-rule="evenodd" d="M4.93771 1C5.21385 1 5.43771 1.22386 5.43771 1.5V1.92439H5.80672C6.08286 1.92439 6.30672 2.14824 6.30672 2.42439C6.30672 2.70053 6.08286 2.92439 5.80672 2.92439H5.43771V3.28749C5.43771 3.56363 5.21385 3.78749 4.93771 3.78749C4.66157 3.78749 4.43771 3.56363 4.43771 3.28749V2.92439H4.007C3.73086 2.92439 3.507 2.70053 3.507 2.42439C3.507 2.14824 3.73086 1.92439 4.007 1.92439H4.43771V1.5C4.43771 1.22386 4.66157 1 4.93771 1ZM8.97297 1.36631C9.10014 1.31361 9.23644 1.28652 9.37402 1.28652C9.51161 1.28652 9.64791 1.31361 9.77507 1.36631C9.90174 1.4188 10.017 1.49571 10.114 1.59279C10.1144 1.59318 10.1148 1.59356 10.1151 1.59394L10.6872 2.16206C10.7856 2.2579 10.8641 2.37239 10.9179 2.49899C10.9722 2.62679 11.0002 2.76424 11.0002 2.90318C11.0002 3.04212 10.9722 3.17957 10.9179 3.30737C10.8641 3.43397 10.7856 3.54845 10.6872 3.64429L8.60395 5.71332C8.60295 5.71433 8.60195 5.71534 8.60094 5.71633L3.42735 10.8548C3.33368 10.9478 3.20702 11 3.075 11H1.72521C1.44907 11 1.22521 10.7761 1.22521 10.5V9.15939C1.22521 9.02619 1.27836 8.8985 1.37286 8.80463L8.63291 1.59394C8.63326 1.59359 8.6336 1.59325 8.63395 1.5929C8.73101 1.49577 8.84626 1.41882 8.97297 1.36631ZM8.2492 4.65627L9.98936 2.92794C9.99303 2.92438 9.99579 2.92036 9.99758 2.91615C9.99937 2.91194 10.0002 2.90754 10.0002 2.90318C10.0002 2.89882 9.99937 2.89442 9.99758 2.89021C9.99579 2.88599 9.99306 2.88194 9.98939 2.87839L9.9845 2.87366L9.40679 2.29981C9.40282 2.29583 9.39791 2.29248 9.39224 2.29013C9.38657 2.28778 9.38037 2.28652 9.37402 2.28652C9.36768 2.28652 9.36148 2.28778 9.35581 2.29013C9.35014 2.29248 9.34522 2.29582 9.34125 2.29981L9.33943 2.30163L7.60894 4.02036L8.2492 4.65627ZM6.89941 4.72507L7.53967 5.36098L2.86889 10H2.22521V9.3675L6.89941 4.72507ZM2.4001 3.52036C2.67625 3.52036 2.9001 3.74422 2.9001 4.02036V4.4141H3.29997C3.57611 4.4141 3.79997 4.63796 3.79997 4.9141C3.79997 5.19025 3.57611 5.4141 3.29997 5.4141H2.9001V5.80785C2.9001 6.08399 2.67625 6.30785 2.4001 6.30785C2.12396 6.30785 1.9001 6.08399 1.9001 5.80785V5.4141H1.50024C1.2241 5.4141 1.00024 5.19025 1.00024 4.9141C1.00024 4.63796 1.2241 4.4141 1.50024 4.4141H1.9001V4.02036C1.9001 3.74422 2.12396 3.52036 2.4001 3.52036ZM8.69913 7.54221C8.97527 7.54221 9.19913 7.76607 9.19913 8.04221V8.43595H9.59899C9.87513 8.43595 10.099 8.65981 10.099 8.93595C10.099 9.2121 9.87513 9.43595 9.59899 9.43595H9.19913V9.8297C9.19913 10.1058 8.97527 10.3297 8.69913 10.3297C8.42299 10.3297 8.19913 10.1058 8.19913 9.8297V9.43595H7.79927C7.52312 9.43595 7.29927 9.2121 7.29927 8.93595C7.29927 8.65981 7.52312 8.43595 7.79927 8.43595H8.19913V8.04221C8.19913 7.76607 8.42299 7.54221 8.69913 7.54221Z" fill="black"/>
</svg>
