<svg width="12" height="12" viewBox="0 0 12 12" fill="none" xmlns="http://www.w3.org/2000/svg">
<path fill-rule="evenodd" clip-rule="evenodd" d="M1.00024 2.31982C1.00024 2.04368 1.2241 1.81982 1.50024 1.81982H10.5005C10.7766 1.81982 11.0005 2.04368 11.0005 2.31982C11.0005 2.59597 10.7766 2.81982 10.5005 2.81982H1.50024C1.2241 2.81982 1.00024 2.59597 1.00024 2.31982ZM1.00024 4.77698C1.00024 4.50084 1.2241 4.27698 1.50024 4.27698H8.49878C8.77492 4.27698 8.99878 4.50084 8.99878 4.77698C8.99878 5.05312 8.77492 5.27698 8.49878 5.27698H1.50024C1.2241 5.27698 1.00024 5.05312 1.00024 4.77698ZM1.00024 7.23413C1.00024 6.95799 1.2241 6.73413 1.50024 6.73413H10.5005C10.7766 6.73413 11.0005 6.95799 11.0005 7.23413C11.0005 7.51027 10.7766 7.73413 10.5005 7.73413H1.50024C1.2241 7.73413 1.00024 7.51027 1.00024 7.23413ZM1.00024 9.69129C1.00024 9.41514 1.2241 9.19129 1.50024 9.19129H8.49878C8.77492 9.19129 8.99878 9.41514 8.99878 9.69129C8.99878 9.96743 8.77492 10.1913 8.49878 10.1913H1.50024C1.2241 10.1913 1.00024 9.96743 1.00024 9.69129Z" fill="black"/>
</svg>
