<svg width="12" height="12" viewBox="0 0 12 12" fill="none" xmlns="http://www.w3.org/2000/svg">
<path fill-rule="evenodd" clip-rule="evenodd" d="M1.00037 2.31982C1.00037 2.04368 1.22422 1.81982 1.50037 1.81982H10.5006C10.7767 1.81982 11.0006 2.04368 11.0006 2.31982C11.0006 2.59597 10.7767 2.81982 10.5006 2.81982H1.50037C1.22422 2.81982 1.00037 2.59597 1.00037 2.31982ZM1.00024 4.77698C1.00024 4.50084 1.2241 4.27698 1.50024 4.27698H10.5006C10.7767 4.27698 11.0006 4.50084 11.0006 4.77698C11.0006 5.05312 10.7767 5.27698 10.5006 5.27698H1.50024C1.2241 5.27698 1.00024 5.05312 1.00024 4.77698ZM1.00037 7.23413C1.00037 6.95799 1.22422 6.73413 1.50037 6.73413H10.5006C10.7767 6.73413 11.0006 6.95799 11.0006 7.23413C11.0006 7.51027 10.7767 7.73413 10.5006 7.73413H1.50037C1.22422 7.73413 1.00037 7.51027 1.00037 7.23413ZM1.00037 9.69129C1.00037 9.41514 1.22422 9.19129 1.50037 9.19129H10.5006C10.7767 9.19129 11.0006 9.41514 11.0006 9.69129C11.0006 9.96743 10.7767 10.1913 10.5006 10.1913H1.50037C1.22422 10.1913 1.00037 9.96743 1.00037 9.69129Z" fill="black"/>
</svg>
