<svg width="12" height="12" viewBox="0 0 12 12" fill="none" xmlns="http://www.w3.org/2000/svg">
<path fill-rule="evenodd" clip-rule="evenodd" d="M4.50024 3C4.50024 2.72386 4.7241 2.5 5.00024 2.5H10.5002C10.7764 2.5 11.0002 2.72386 11.0002 3C11.0002 3.27614 10.7764 3.5 10.5002 3.5H5.00024C4.7241 3.5 4.50024 3.27614 4.50024 3ZM4.50024 6C4.50024 5.72386 4.7241 5.5 5.00024 5.5H10.5002C10.7764 5.5 11.0002 5.72386 11.0002 6C11.0002 6.27614 10.7764 6.5 10.5002 6.5H5.00024C4.7241 6.5 4.50024 6.27614 4.50024 6ZM4.50024 9C4.50024 8.72386 4.7241 8.5 5.00024 8.5H10.5002C10.7764 8.5 11.0002 8.72386 11.0002 9C11.0002 9.27614 10.7764 9.5 10.5002 9.5H5.00024C4.7241 9.5 4.50024 9.27614 4.50024 9Z" fill="black"/>
<path d="M2.50024 4.25H2.10774V2.25824L1.50024 2.49348V2.13118L2.47581 1.75H2.50024V4.25Z" fill="black"/>
<path d="M3.00024 7.25H1.54348V6.96883L2.25024 6.09485C2.30889 6.02145 2.3581 5.95596 2.39786 5.89837C2.43762 5.83966 2.46993 5.78602 2.49478 5.73747C2.51863 5.68891 2.53553 5.64374 2.54547 5.60196C2.55641 5.55906 2.56187 5.51615 2.56187 5.47324C2.56187 5.41565 2.55442 5.36314 2.53951 5.31572C2.5246 5.26829 2.50273 5.22764 2.4739 5.19377C2.44508 5.15989 2.41028 5.13336 2.36953 5.11416C2.32977 5.09496 2.28504 5.08537 2.23533 5.08537C2.17172 5.08537 2.11655 5.09553 2.06983 5.11585C2.02311 5.13618 1.98434 5.16497 1.95352 5.20224C1.92172 5.24176 1.89786 5.28975 1.88195 5.34621C1.86605 5.40154 1.8581 5.46477 1.8581 5.53591H1.50024C1.50024 5.42864 1.51764 5.32757 1.55243 5.23272C1.58722 5.13674 1.63692 5.05318 1.70154 4.98205C1.76515 4.91091 1.84269 4.85445 1.93414 4.81267C2.02659 4.77089 2.12947 4.75 2.24279 4.75C2.34915 4.75 2.44408 4.7675 2.52758 4.80251C2.61207 4.83751 2.68315 4.88607 2.7408 4.94817C2.79746 5.01028 2.8407 5.0848 2.87052 5.17175C2.90034 5.25757 2.91525 5.35242 2.91525 5.4563C2.91525 5.53421 2.90382 5.60987 2.88096 5.68327C2.85909 5.75553 2.82877 5.82724 2.79001 5.89837C2.75024 5.96951 2.70303 6.04122 2.64836 6.11348C2.59468 6.18575 2.53603 6.26028 2.47241 6.33706L1.98931 6.9231H3.00024V7.25Z" fill="black"/>
<path d="M1.98526 8.81952H2.20686C2.27297 8.81952 2.33082 8.81005 2.38041 8.79111C2.43 8.77106 2.4708 8.7432 2.50283 8.70755C2.53279 8.67636 2.55551 8.63792 2.57101 8.59225C2.58754 8.54545 2.5958 8.49532 2.5958 8.44184C2.5958 8.38391 2.58805 8.33211 2.57256 8.28643C2.5581 8.24075 2.5364 8.20176 2.50748 8.16945C2.47855 8.13937 2.44188 8.11598 2.39745 8.09926C2.35407 8.08255 2.30396 8.0742 2.24714 8.0742C2.19653 8.0742 2.14952 8.08255 2.10613 8.09926C2.06378 8.11486 2.0271 8.1377 1.99611 8.16778C1.96409 8.19786 1.93878 8.23407 1.92018 8.2764C1.90262 8.31874 1.89384 8.36609 1.89384 8.41845H1.52349C1.52349 8.32152 1.54157 8.2324 1.57772 8.15107C1.61388 8.06974 1.66398 7.999 1.72803 7.93884C1.79208 7.87979 1.8675 7.83356 1.95427 7.80013C2.04208 7.76671 2.13816 7.75 2.2425 7.75C2.3489 7.75 2.44653 7.76504 2.53537 7.79512C2.62524 7.82409 2.70169 7.86754 2.76471 7.92547C2.82876 7.98451 2.87834 8.05693 2.91347 8.14271C2.94859 8.2285 2.96615 8.32821 2.96615 8.44184C2.96615 8.49198 2.95892 8.54211 2.94446 8.59225C2.93103 8.64238 2.91037 8.69084 2.88248 8.73763C2.85458 8.78331 2.81946 8.8262 2.7771 8.86631C2.73475 8.90642 2.68516 8.9404 2.62834 8.96825C2.69549 8.99276 2.75231 9.02507 2.7988 9.06517C2.84632 9.10417 2.88506 9.14817 2.91502 9.19719C2.94498 9.24733 2.96667 9.30136 2.9801 9.35929C2.99353 9.41611 3.00024 9.47516 3.00024 9.53643C3.00024 9.65007 2.98062 9.75145 2.94136 9.84058C2.90314 9.92859 2.85045 10.0027 2.7833 10.0628C2.71512 10.1241 2.63454 10.1709 2.54157 10.2032C2.44962 10.2344 2.34993 10.25 2.2425 10.25C2.14539 10.25 2.0519 10.2355 1.96202 10.2066C1.87215 10.1776 1.79312 10.1341 1.72493 10.0762C1.65675 10.0183 1.602 9.94697 1.56068 9.8623C1.52039 9.77652 1.50024 9.6768 1.50024 9.56317H1.8706C1.8706 9.61664 1.87938 9.66622 1.89694 9.7119C1.91553 9.75646 1.94188 9.79434 1.97597 9.82553C2.00903 9.85784 2.04828 9.88291 2.09374 9.90074C2.14022 9.91856 2.19136 9.92747 2.24714 9.92747C2.30706 9.92747 2.36078 9.91912 2.4083 9.90241C2.45686 9.88458 2.49766 9.8584 2.53072 9.82386C2.56274 9.79156 2.58702 9.75145 2.60355 9.70354C2.62111 9.65452 2.62989 9.59882 2.62989 9.53643C2.62989 9.46624 2.62008 9.40608 2.60045 9.35595C2.58082 9.30582 2.55241 9.26404 2.51522 9.23062C2.47803 9.19831 2.4331 9.17435 2.38041 9.15876C2.32876 9.14205 2.27091 9.13369 2.20686 9.13369H1.98526V8.81952Z" fill="black"/>
</svg>
