<svg xmlns="http://www.w3.org/2000/svg" width="12" height="12" fill="none" viewBox="0 0 12 12">
  <g clip-path="url(#a)">
    <path fill="#000" fill-rule="evenodd" d="M4.94.94a1.5 1.5 0 0 1 2.324.253 1.5 1.5 0 0 1 2.183.913A1.5 1.5 0 0 1 11.5 3.5V7A4.5 4.5 0 0 1 7 11.5H6c-1.534 0-2.51-.484-3.347-1.315l-.002-.001-1.8-1.8A1.5 1.5 0 0 1 2.5 5.966V2.5a1.5 1.5 0 0 1 2.236-1.307 1.5 1.5 0 0 1 .203-.254ZM4.5 2.5v2.75a.5.5 0 0 0 1 0V2a.5.5 0 1 1 1 0v3a.5.5 0 0 0 1 0V2.5a.5.5 0 1 1 1 0v3a.5.5 0 0 0 1 0v-2a.5.5 0 1 1 1 0V7A3.5 3.5 0 0 1 7 10.5H6c-1.265 0-1.99-.376-2.642-1.024L1.569 7.687a.5.5 0 0 1 .707-.704l.37.37.5.5a.5.5 0 1 0 .708-.707L3.5 6.793V2.5a.5.5 0 1 1 1 0Z" clip-rule="evenodd"/>
  </g>
  <defs>
    <clipPath id="a">
      <path fill="#fff" d="M0 0h12v12H0z"/>
    </clipPath>
  </defs>
</svg>
