<svg xmlns="http://www.w3.org/2000/svg" width="12" height="12" fill="none" viewBox="0 0 12 12">
  <path fill="#000" fill-rule="evenodd" d="M10.823 1.119A.5.5 0 0 1 11 1.5V8c0 .053-.002.106-.006.158a.5.5 0 0 1-.997-.078 1 1 0 0 0-1.075-1.077.5.5 0 0 1-.076-.997A2.021 2.021 0 0 1 10 6.268V2.09l-5.092.848a.5.5 0 1 1-.165-.986l5.675-.946a.5.5 0 0 1 .405.112Zm-9.676.028a.5.5 0 0 1 .707 0l9 9a.5.5 0 1 1-.707.707l-.873-.872a2 2 0 0 1-2.256-2.255L5 5.706V9a2 2 0 1 1-1-1.732v-2.56L1.147 1.853a.5.5 0 0 1 0-.707ZM4 9a1 1 0 1 0-2 0 1 1 0 0 0 2 0Z" clip-rule="evenodd"/>
</svg>
