<svg width="11" height="12" viewBox="0 0 11 12" fill="none" xmlns="http://www.w3.org/2000/svg">
<path fill-rule="evenodd" clip-rule="evenodd" d="M7.25 1.5C6.52065 1.5 5.82118 1.78973 5.30546 2.30546C4.78973 2.82118 4.5 3.52065 4.5 4.25C4.5 4.52614 4.27614 4.75 4 4.75C3.72386 4.75 3.5 4.52614 3.5 4.25C3.5 3.25544 3.89509 2.30161 4.59835 1.59835C5.30161 0.895088 6.25544 0.5 7.25 0.5C8.24456 0.5 9.19839 0.895088 9.90165 1.59835C10.6049 2.30161 11 3.25544 11 4.25C11 5.09109 10.7876 5.74525 10.4561 6.27931C10.1308 6.80342 9.70408 7.18912 9.32009 7.50911C9.23333 7.58141 9.15042 7.64921 9.07128 7.71392C8.78081 7.95142 8.54114 8.14738 8.34838 8.37227C8.12542 8.63239 8 8.8961 8 9.25C8 9.54547 7.9418 9.83805 7.82873 10.111C7.71566 10.384 7.54992 10.6321 7.34099 10.841C7.13206 11.0499 6.88402 11.2157 6.61104 11.3287C6.33806 11.4418 6.04547 11.5 5.75 11.5C5.45453 11.5 5.16194 11.4418 4.88896 11.3287C4.61598 11.2157 4.36794 11.0499 4.15901 10.841C3.95008 10.6321 3.78434 10.384 3.67127 10.111C3.5582 9.83806 3.5 9.54547 3.5 9.25C3.5 8.97386 3.72386 8.75 4 8.75C4.27614 8.75 4.5 8.97386 4.5 9.25C4.5 9.41415 4.53233 9.5767 4.59515 9.72835C4.65797 9.88001 4.75004 10.0178 4.86612 10.1339C4.98219 10.25 5.11999 10.342 5.27165 10.4048C5.4233 10.4677 5.58585 10.5 5.75 10.5C5.91415 10.5 6.0767 10.4677 6.22835 10.4048C6.38001 10.342 6.51781 10.25 6.63388 10.1339C6.74996 10.0178 6.84203 9.88001 6.90485 9.72835C6.96767 9.5767 7 9.41415 7 9.25C7 8.6039 7.24958 8.11761 7.58912 7.72148C7.84565 7.4222 8.17512 7.15361 8.47414 6.90983C8.54489 6.85215 8.61394 6.79587 8.67991 6.74089C9.04592 6.43588 9.36924 6.13408 9.60643 5.75194C9.83745 5.37975 10 4.90891 10 4.25C10 3.52065 9.71027 2.82118 9.19454 2.30546C8.67882 1.78973 7.97935 1.5 7.25 1.5ZM6.01256 3.01256C6.34075 2.68437 6.78587 2.5 7.25 2.5C7.71413 2.5 8.15925 2.68437 8.48744 3.01256C8.81563 3.34075 9 3.78587 9 4.25C9 4.52614 8.77614 4.75 8.5 4.75C8.22386 4.75 8 4.52614 8 4.25C8 4.05109 7.92098 3.86032 7.78033 3.71967C7.63968 3.57902 7.44891 3.5 7.25 3.5C7.05109 3.5 6.86032 3.57902 6.71967 3.71967C6.57902 3.86032 6.5 4.05109 6.5 4.25V4.33579C6.70895 4.40967 6.90096 4.52964 7.06066 4.68934C7.25592 4.8846 7.25592 5.20118 7.06066 5.39645C6.8654 5.59171 6.54882 5.59171 6.35355 5.39645C6.25978 5.30268 6.13261 5.25 6 5.25C5.72386 5.25 5.5 5.02614 5.5 4.75V4.25C5.5 3.78587 5.68437 3.34075 6.01256 3.01256ZM0.5 6.74999C0.500004 6.33578 0.835792 6 1.25001 6C1.66422 6 2 6.33579 2 6.75001C2 7.16422 1.66421 7.5 1.24999 7.5C0.835781 7.5 0.499996 7.16421 0.5 6.74999ZM2.5 6.74999C2.5 6.33578 2.83579 6 3.25001 6C3.66422 6 4 6.33579 4 6.75001C4 7.16422 3.66421 7.5 3.24999 7.5C2.83578 7.5 2.5 7.16421 2.5 6.74999ZM4.5 6.74999C4.5 6.33578 4.83579 6 5.25001 6C5.66422 6 6 6.33579 6 6.75001C6 7.16422 5.66421 7.5 5.24999 7.5C4.83578 7.5 4.5 7.16421 4.5 6.74999Z" fill="black"/>
</svg>
