<svg width="12" height="12" viewBox="0 0 12 12" fill="none" xmlns="http://www.w3.org/2000/svg">
<g clip-path="url(#clip0_10041_3565)">
<path fill-rule="evenodd" clip-rule="evenodd" d="M11.3536 1.35355C11.5488 1.15829 11.5488 0.841709 11.3536 0.646447C11.1583 0.451184 10.8417 0.451184 10.6464 0.646447L0.646447 10.6464C0.451184 10.8417 0.451184 11.1583 0.646447 11.3536C0.841709 11.5488 1.15829 11.5488 1.35355 11.3536L4.19218 8.51493C6.29915 10.3402 8.69541 10.8229 9.82032 10.9519C10.4891 11.0286 11 10.4888 11 9.875V8.73829C11 8.22181 10.6484 7.77167 10.1472 7.64671L8.70844 7.28795C8.32508 7.19236 7.91967 7.30488 7.64041 7.58438L6.39369 8.83219C5.89501 8.55883 5.38951 8.22166 4.90132 7.80579L11.3536 1.35355ZM7.35128 9.28859C8.40692 9.72137 9.35359 9.89181 9.93424 9.95839C9.94584 9.95972 9.95268 9.95816 9.95682 9.95674C9.96154 9.95512 9.96733 9.95201 9.97353 9.94614C9.98599 9.93435 10 9.91106 10 9.875V8.73829C10 8.68091 9.96096 8.63089 9.90528 8.61701L8.46649 8.25824C8.4239 8.24762 8.37885 8.26012 8.34782 8.29118L7.35128 9.28859Z" fill="black"/>
<path fill-rule="evenodd" clip-rule="evenodd" d="M2.0074 2.05008C2.00696 2.04111 2.00843 2.03657 2.00935 2.03428C2.01047 2.03149 2.01277 2.02738 2.01769 2.02255C2.02778 2.01266 2.04918 2 2.08297 2H3.26C3.31737 2 3.36737 2.03905 3.38127 2.09471L3.73 3.49083C3.74162 3.53735 3.72561 3.58641 3.68879 3.61712L2.56057 4.55812C2.14843 3.51602 2.03434 2.5972 2.0074 2.05008ZM4.3293 4.38507L3.00115 5.49282C3.12629 5.71944 3.26688 5.94826 3.42481 6.17705C3.58168 6.40431 3.52462 6.71571 3.29736 6.87258C3.0701 7.02945 2.75871 6.97239 2.60184 6.74513C1.32034 4.88862 1.05456 3.03268 1.00861 2.09924C0.976977 1.45653 1.5058 1 2.08297 1H3.26C3.77631 1 4.22634 1.35145 4.35146 1.85237L4.70019 3.2485C4.80476 3.66713 4.66067 4.10869 4.3293 4.38507Z" fill="black"/>
</g>
<defs>
<clipPath id="clip0_10041_3565">
<rect width="12" height="12" fill="white"/>
</clipPath>
</defs>
</svg>
