<svg width="24" height="25" viewBox="0 0 24 25" fill="none" xmlns="http://www.w3.org/2000/svg">
<path d="M0 5.80097C0 2.87332 2.37333 0.5 5.30097 0.5H18.699C21.6267 0.5 24 2.87333 24 5.80097V19.199C24 22.1267 21.6267 24.5 18.699 24.5H5.30096C2.37332 24.5 0 22.1267 0 19.199V5.80097Z" fill="url(#paint0_linear_13521_2891)"/>
<path d="M19.6575 7.54295C19.6575 8.26488 19.0722 8.85013 18.3503 8.85013C17.6284 8.85013 17.0431 8.26488 17.0431 7.54295C17.0431 6.82102 17.6284 6.23578 18.3503 6.23578C19.0722 6.23578 19.6575 6.82102 19.6575 7.54295Z" fill="white"/>
<path d="M8.78827 9.74899C9.05765 8.86952 9.57552 8.58297 9.87633 8.58297C10.1779 8.58297 10.6937 8.86827 10.9635 9.74568L10.9638 9.74692L12.9279 16.0788L12.9284 16.0803C13.344 17.4307 14.4308 18.7069 15.9986 18.7069C17.8819 18.7069 19.4084 17.1803 19.4084 15.297V10.9619C19.4084 10.3889 18.9439 9.92432 18.3708 9.92432C17.7978 9.92432 17.3332 10.3889 17.3332 10.9619V15.297C17.3332 16.0342 16.7358 16.6317 15.9986 16.6317C15.698 16.6317 15.1811 16.346 14.9114 15.469L14.9111 15.4677L12.947 9.13583L12.9467 9.13468C12.5312 7.78461 11.4458 6.5078 9.87633 6.5078C8.30645 6.5078 7.21945 7.78727 6.80466 9.13938L6.80409 9.14124L4.25437 17.3619C4.08461 17.9092 4.39069 18.4905 4.93801 18.6603C5.48533 18.83 6.06664 18.524 6.23639 17.9766L8.78774 9.75074L8.78827 9.74899Z" fill="white"/>
<defs>
<linearGradient id="paint0_linear_13521_2891" x1="25.4308" y1="24.4977" x2="10.9593" y2="-6.18726" gradientUnits="userSpaceOnUse">
<stop offset="0.297344" stop-color="#7C52FF"/>
<stop offset="0.762314" stop-color="#F9008E"/>
<stop offset="1" stop-color="#F6AB3C"/>
</linearGradient>
</defs>
</svg>
