<svg width="24" height="24" viewBox="0 0 24 24" fill="none" xmlns="http://www.w3.org/2000/svg">
<path d="M21.442 5.83241C22.5003 5.83241 23.3582 4.9745 23.3582 3.91621C23.3582 2.85791 22.5003 2 21.442 2C20.3837 2 19.5258 2.85791 19.5258 3.91621C19.5258 4.9745 20.3837 5.83241 21.442 5.83241Z" fill="url(#paint0_linear_12295_2734)"/>
<path fill-rule="evenodd" clip-rule="evenodd" d="M9.18176 5.38786C8.7476 5.38786 8.00017 5.80144 7.61137 7.07077L7.6106 7.07329L3.92826 18.9457C3.68325 19.7356 2.84426 20.1774 2.05431 19.9324C1.26437 19.6874 0.822608 18.8484 1.06762 18.0584L4.74762 6.1936C4.74789 6.19271 4.74816 6.19182 4.74844 6.19093C5.34709 4.23943 6.91595 2.39278 9.18176 2.39278C11.4468 2.39278 13.0133 4.23535 13.613 6.18375C13.6128 6.18307 13.6132 6.18444 13.613 6.18375L16.4483 15.3246C16.8375 16.5904 17.5841 17.0045 18.0179 17.0045C19.0819 17.0045 19.9443 16.1422 19.9443 15.0782V8.82136C19.9443 7.99429 20.6147 7.32382 21.4418 7.32382C22.2689 7.32382 22.9393 7.99429 22.9393 8.82136V15.0782C22.9393 17.7963 20.7361 19.9996 18.0179 19.9996C15.7551 19.9996 14.1866 18.1576 13.5867 16.2086C13.5865 16.2079 13.5869 16.2092 13.5867 16.2086L10.7514 7.06778C10.362 5.80141 9.61694 5.38786 9.18176 5.38786Z" fill="url(#paint1_linear_12295_2734)"/>
<defs>
<linearGradient id="paint0_linear_12295_2734" x1="1" y1="2" x2="18.585" y2="23.8427" gradientUnits="userSpaceOnUse">
<stop offset="0.1" stop-color="#F9008E"/>
<stop offset="0.9" stop-color="#7C52FF"/>
</linearGradient>
<linearGradient id="paint1_linear_12295_2734" x1="1" y1="2" x2="18.585" y2="23.8427" gradientUnits="userSpaceOnUse">
<stop offset="0.1" stop-color="#F9008E"/>
<stop offset="0.9" stop-color="#7C52FF"/>
</linearGradient>
</defs>
</svg>
