<svg width="25" height="24" viewBox="0 0 25 24" fill="none" xmlns="http://www.w3.org/2000/svg">
<g clip-path="url(#clip0_12295_2731)">
<path d="M22.3966 6.83241C23.4548 6.83241 24.3128 5.9745 24.3128 4.91621C24.3128 3.85791 23.4548 3 22.3966 3C21.3383 3 20.4804 3.85791 20.4804 4.91621C20.4804 5.9745 21.3383 6.83241 22.3966 6.83241Z" fill="url(#paint0_linear_12295_2731)"/>
<path fill-rule="evenodd" clip-rule="evenodd" d="M10.1363 6.38786C9.70219 6.38786 8.95476 6.80144 8.56596 8.07077L8.56519 8.07329L4.88285 19.9457C4.63784 20.7356 3.79885 21.1774 3.0089 20.9324C2.21896 20.6874 1.7772 19.8484 2.02221 19.0584L5.70221 7.1936C5.70248 7.19271 5.70275 7.19182 5.70303 7.19093C6.30168 5.23943 7.87054 3.39278 10.1363 3.39278C12.4014 3.39278 13.9679 5.23535 14.5676 7.18375C14.5674 7.18307 14.5678 7.18444 14.5676 7.18375L17.4029 16.3246C17.7921 17.5904 18.5387 18.0045 18.9725 18.0045C20.0365 18.0045 20.8988 17.1422 20.8988 16.0782V9.82136C20.8988 8.99429 21.5693 8.32382 22.3964 8.32382C23.2234 8.32382 23.8939 8.99429 23.8939 9.82136V16.0782C23.8939 18.7963 21.6907 20.9996 18.9725 20.9996C16.7097 20.9996 15.1412 19.1576 14.5413 17.2086C14.5411 17.2079 14.5415 17.2092 14.5413 17.2086L11.706 8.06778C11.3166 6.80141 10.5715 6.38786 10.1363 6.38786Z" fill="url(#paint1_linear_12295_2731)"/>
</g>
<defs>
<linearGradient id="paint0_linear_12295_2731" x1="1.95459" y1="3" x2="19.5396" y2="24.8427" gradientUnits="userSpaceOnUse">
<stop offset="0.1" stop-color="#F9008E"/>
<stop offset="0.9" stop-color="#7C52FF"/>
</linearGradient>
<linearGradient id="paint1_linear_12295_2731" x1="1.95459" y1="3" x2="19.5396" y2="24.8427" gradientUnits="userSpaceOnUse">
<stop offset="0.1" stop-color="#F9008E"/>
<stop offset="0.9" stop-color="#7C52FF"/>
</linearGradient>
<clipPath id="clip0_12295_2731">
<rect width="24" height="24" fill="white" transform="translate(0.95459)"/>
</clipPath>
</defs>
</svg>
