<svg width="12" height="12" viewBox="0 0 12 12" fill="none" xmlns="http://www.w3.org/2000/svg">
<path fill-rule="evenodd" clip-rule="evenodd" d="M6.04441 1.00003C5.88912 0.998123 5.74637 1.08439 5.67683 1.22218L4.12829 4.2906L4.12829 10.8542C4.20267 10.9433 4.315 11 4.44069 11H8.58805C8.8763 11 9.15679 10.9072 9.3874 10.7356C9.61801 10.564 9.78634 10.3227 9.86705 10.0481L10.9467 6.37012C11.0046 6.17311 11.0155 5.96544 10.9785 5.76354C10.9415 5.56164 10.8576 5.37107 10.7336 5.2069C10.6095 5.04273 10.4485 4.90948 10.2635 4.81771C10.0786 4.72594 9.87457 4.67816 9.66775 4.67816H7.48183L7.82321 3.28264L7.82339 3.28191C7.89025 3.01277 7.895 2.73212 7.83729 2.4609C7.77952 2.18943 7.66068 1.93443 7.48963 1.71494C7.31858 1.49544 7.09976 1.31714 6.8495 1.19334C6.59924 1.06955 6.32402 1.00347 6.04441 1.00003ZM3.31708 4.68225L3.31708 10.9959C3.29812 10.9986 3.27874 11 3.25904 11H2.33225C1.97892 11 1.64005 10.8607 1.39021 10.6128C1.14036 10.365 1 10.0287 1 9.67816V6C1 5.64943 1.14036 5.31321 1.39021 5.06532C1.64005 4.81743 1.97892 4.67816 2.33225 4.67816H3.25904C3.27874 4.67816 3.29812 4.67956 3.31708 4.68225Z" fill="black"/>
</svg>
