<svg width="12" height="12" viewBox="0 0 12 12" fill="none" xmlns="http://www.w3.org/2000/svg">
<g clip-path="url(#clip0_13317_2002)">
<path d="M5.99454 11.4375C6.16211 11.4395 6.31613 11.3457 6.39116 11.1959L8.06246 7.85812L8.06246 0.721592C7.98222 0.624426 7.86082 0.5625 7.72496 0.5625H3.24996C2.93893 0.5625 2.63629 0.663381 2.38746 0.849999C2.13863 1.03662 1.957 1.29907 1.86991 1.59766L0.704961 5.5975C0.642474 5.81174 0.630728 6.03758 0.670648 6.25715C0.710569 6.47671 0.801061 6.68397 0.93496 6.8625C1.06886 7.04103 1.24249 7.18594 1.44209 7.28574C1.6417 7.38554 1.8618 7.4375 2.08496 7.4375H4.44357L4.07521 8.95513L4.07502 8.95592C4.00288 9.24861 3.99776 9.55382 4.06003 9.84877C4.12236 10.144 4.25059 10.4213 4.43515 10.66C4.61971 10.8987 4.85582 11.0926 5.12585 11.2272C5.39588 11.3619 5.69284 11.4337 5.99454 11.4375Z" fill="black"/>
<path d="M8.93746 7.43307L8.93746 0.566931C8.95787 0.564011 8.97874 0.5625 8.99996 0.5625H9.99996C10.3812 0.5625 10.7468 0.713951 11.0164 0.983534C11.286 1.25312 11.4375 1.61875 11.4375 2V6C11.4375 6.38125 11.286 6.74688 11.0164 7.01647C10.7468 7.28605 10.3812 7.4375 9.99996 7.4375H8.99996C8.97874 7.4375 8.95787 7.43599 8.93746 7.43307Z" fill="black"/>
</g>
<defs>
<clipPath id="clip0_13317_2002">
<rect width="12" height="12" fill="white" transform="matrix(-1 0 0 -1 12 12)"/>
</clipPath>
</defs>
</svg>
