<svg width="12" height="12" viewBox="0 0 12 12" fill="none" xmlns="http://www.w3.org/2000/svg">
<path fill-rule="evenodd" clip-rule="evenodd" d="M4.50024 1.9375C3.6373 1.9375 2.93774 2.63706 2.93774 3.5C2.93774 4.36295 3.6373 5.0625 4.50024 5.0625C5.36319 5.0625 6.06274 4.36295 6.06274 3.5C6.06274 2.63706 5.36319 1.9375 4.50024 1.9375ZM2.06274 3.5C2.06274 2.15381 3.15405 1.0625 4.50024 1.0625C5.84644 1.0625 6.93774 2.15381 6.93774 3.5C6.93774 4.84619 5.84644 5.9375 4.50024 5.9375C3.15405 5.9375 2.06274 4.84619 2.06274 3.5ZM8.5687 1.92808C8.60842 1.68974 8.83383 1.52873 9.07217 1.56845L9.00025 2C9.07217 1.56845 9.07217 1.56845 9.07217 1.56845L9.0732 1.56863L9.07437 1.56882L9.07714 1.56931L9.08434 1.57061L9.10518 1.57469C9.12184 1.57812 9.14397 1.58301 9.17081 1.58972C9.22437 1.60311 9.2973 1.62389 9.38321 1.65491C9.55398 1.71658 9.7825 1.82107 10.0127 1.99375C10.4888 2.35076 10.9377 2.97624 10.9377 4C10.9377 5.02376 10.4888 5.64924 10.0127 6.00625C9.7825 6.17893 9.55398 6.28342 9.38321 6.34509C9.2973 6.37611 9.22437 6.39689 9.17081 6.41028C9.14397 6.41699 9.12184 6.42188 9.10518 6.42531L9.08434 6.42939L9.07714 6.4307L9.07437 6.43118L9.0732 6.43138C9.0732 6.43138 9.07217 6.43155 9.00025 6L9.07217 6.43155C8.83383 6.47127 8.60842 6.31026 8.5687 6.07193C8.52916 5.8347 8.68849 5.61028 8.92499 5.56902L8.929 5.56823C8.93432 5.56713 8.94441 5.56495 8.95859 5.5614C8.98706 5.55429 9.03131 5.54186 9.08603 5.5221C9.19651 5.48221 9.34299 5.41482 9.48775 5.30625C9.76173 5.10076 10.0627 4.72624 10.0627 4C10.0627 3.27376 9.76173 2.89924 9.48775 2.69375C9.34299 2.58518 9.19651 2.5178 9.08603 2.4779C9.03131 2.45814 8.98706 2.44572 8.95859 2.4386C8.94441 2.43505 8.93432 2.43287 8.929 2.43178L8.925 2.43098C8.68849 2.38973 8.52916 2.1653 8.5687 1.92808ZM1.27667 7.77643C1.73379 7.31931 2.35378 7.0625 3.00024 7.0625H6.00024C6.64671 7.0625 7.2667 7.31931 7.72382 7.77643C8.18094 8.23355 8.43775 8.85354 8.43775 9.5V10.5C8.43775 10.7416 8.24187 10.9375 8.00025 10.9375C7.75862 10.9375 7.56275 10.7416 7.56275 10.5V9.5C7.56275 9.0856 7.39813 8.68817 7.1051 8.39515C6.81207 8.10212 6.41465 7.9375 6.00024 7.9375H3.00024C2.58584 7.9375 2.18842 8.10212 1.89539 8.39515C1.60236 8.68817 1.43774 9.0856 1.43774 9.5V10.5C1.43774 10.7416 1.24187 10.9375 1.00024 10.9375C0.75862 10.9375 0.562744 10.7416 0.562744 10.5V9.5C0.562744 8.85354 0.819552 8.23355 1.27667 7.77643Z" fill="black"/>
<path d="M7.94183 4.59784C8.25249 4.59784 8.50433 4.346 8.50433 4.03534C8.50433 3.72468 8.25249 3.47284 7.94183 3.47284C7.70193 3.47284 7.50751 3.27213 7.50751 3.03223C7.50751 2.79232 7.70193 2.59784 7.94183 2.59784C8.73574 2.59784 9.37933 3.24143 9.37933 4.03534C9.37933 4.82925 8.73574 5.47284 7.94183 5.47284C7.70193 5.47284 7.50751 5.27836 7.50751 5.03845C7.50751 4.79855 7.70193 4.59784 7.94183 4.59784Z" fill="black"/>
</svg>
