<svg width="12" height="12" viewBox="0 0 12 12" fill="none" xmlns="http://www.w3.org/2000/svg">
<g clip-path="url(#clip0_12787_10877)">
<path fill-rule="evenodd" clip-rule="evenodd" d="M4.50024 2C3.67182 2 3.00024 2.67157 3.00024 3.5C3.00024 4.32843 3.67182 5 4.50024 5C5.32867 5 6.00024 4.32843 6.00024 3.5C6.00024 2.67157 5.32867 2 4.50024 2ZM2.00024 3.5C2.00024 2.11929 3.11953 1 4.50024 1C5.88096 1 7.00024 2.11929 7.00024 3.5C7.00024 4.88071 5.88096 6 4.50024 6C3.11953 6 2.00024 4.88071 2.00024 3.5ZM9.38432 4.36373C9.57958 4.55899 9.57958 4.87558 9.38432 5.07084L9.36262 5.09253H10.2561C10.5744 5.09253 10.8797 5.21898 11.1048 5.44406C11.3299 5.66914 11.4563 5.97441 11.4563 6.29272V7.28306C11.4563 7.5592 11.2324 7.78306 10.9563 7.78306C10.6802 7.78306 10.4563 7.5592 10.4563 7.28306V6.29326C10.4563 6.24016 10.4352 6.18871 10.3977 6.15117C10.3601 6.11362 10.3092 6.09253 10.2561 6.09253H9.36262L9.38432 6.11422C9.57958 6.30948 9.57958 6.62606 9.38432 6.82133C9.18905 7.01659 8.87247 7.01659 8.67721 6.82133L7.80196 5.94608C7.6067 5.75082 7.6067 5.43424 7.80196 5.23898L8.67721 4.36373C8.87247 4.16847 9.18905 4.16847 9.38432 4.36373ZM1.23248 7.73223C1.70132 7.26339 2.3372 7 3.00024 7H6.00024C6.66329 7 7.29917 7.26339 7.76801 7.73223C8.23685 8.20108 8.50025 8.83696 8.50025 9.5V10.5C8.50025 10.7761 8.27639 11 8.00025 11C7.7241 11 7.50025 10.7761 7.50025 10.5V9.5C7.50025 9.10218 7.34221 8.72065 7.06091 8.43934C6.7796 8.15804 6.39807 8 6.00024 8H3.00024C2.60242 8 2.22089 8.15804 1.93958 8.43934C1.65828 8.72065 1.50024 9.10218 1.50024 9.5V10.5C1.50024 10.7761 1.27639 11 1.00024 11C0.724102 11 0.500244 10.7761 0.500244 10.5V9.5C0.500244 8.83696 0.763636 8.20108 1.23248 7.73223Z" fill="black"/>
</g>
<defs>
<clipPath id="clip0_12787_10877">
<rect width="12" height="12" fill="white" transform="translate(0.000244141)"/>
</clipPath>
</defs>
</svg>
