<svg width="12" height="12" viewBox="0 0 12 12" fill="none" xmlns="http://www.w3.org/2000/svg">
<path fill-rule="evenodd" clip-rule="evenodd" d="M7.16315 4.01463C6.60952 3.52092 5.9295 3.19089 5.1991 3.06141C4.74922 2.98166 4.29114 2.97993 3.84449 3.05423C3.96077 2.86923 4.10415 2.70088 4.27115 2.5553C4.65385 2.22169 5.1381 2.02725 5.64525 2.00355C6.15239 1.97986 6.65266 2.1283 7.0648 2.42478C7.47694 2.72126 7.77675 3.14836 7.91555 3.63672C7.97665 3.8517 8.173 4.00003 8.3965 4.00003H9.5C9.76522 4.00003 10.0196 4.10539 10.2071 4.29292C10.3946 4.48046 10.5 4.73481 10.5 5.00003C10.5 5.27617 10.7239 5.50003 11 5.50003C11.2761 5.50003 11.5 5.27617 11.5 5.00003C11.5 4.4696 11.2893 3.96089 10.9142 3.58582C10.5391 3.21074 10.0304 3.00003 9.5 3.00003H8.75052C8.51971 2.44693 8.13933 1.9659 7.64876 1.613C7.05353 1.18481 6.33102 0.970423 5.59858 1.00464C4.86613 1.03886 4.16676 1.31969 3.61404 1.80151C3.10597 2.2444 2.74925 2.83323 2.59099 3.48542C2.08415 3.76085 1.64113 4.14363 1.29407 4.60913C0.850688 5.20383 0.58141 5.91011 0.516325 6.64904C0.45124 7.38797 0.592913 8.13045 0.925513 8.79349C1.25811 9.45654 1.76854 10.014 2.39974 10.4037C3.03095 10.7934 3.75821 10.9998 4.5 11H8.75C9.11114 11 9.46873 10.9289 9.80238 10.7907C10.136 10.6525 10.4392 10.4499 10.6945 10.1945C10.9499 9.93918 11.1525 9.63603 11.2907 9.30238C11.4289 8.96874 11.5 8.61114 11.5 8.25C11.5 7.88887 11.4289 7.53127 11.2907 7.19762C11.1525 6.86398 10.9499 6.56082 10.6945 6.30546C10.4392 6.0501 10.136 5.84753 9.80238 5.70933C9.46873 5.57113 9.11113 5.5 8.75 5.5H8.209C7.97955 4.93278 7.62232 4.4241 7.16315 4.01463ZM5.02455 4.04606C4.47675 3.94895 3.91273 4.00608 3.39553 4.21107C2.87833 4.41605 2.42831 4.76082 2.09578 5.20685C1.76324 5.65287 1.56128 6.18258 1.51247 6.73678C1.46365 7.29098 1.56991 7.84783 1.81936 8.34512C2.06881 8.84241 2.45163 9.26053 2.92503 9.55277C3.3984 9.84499 3.9437 9.99983 4.5 10H8.75C8.97981 10 9.20738 9.95474 9.4197 9.86679C9.63202 9.77884 9.82493 9.64994 9.98744 9.48744C10.1499 9.32493 10.2788 9.13202 10.3668 8.9197C10.4547 8.70738 10.5 8.47981 10.5 8.25C10.5 8.02019 10.4547 7.79263 10.3668 7.58031C10.2788 7.36799 10.1499 7.17507 9.98744 7.01256C9.82493 6.85006 9.63202 6.72116 9.4197 6.63321C9.20738 6.54527 8.97981 6.5 8.75 6.5H7.855C7.63388 6.5 7.43902 6.35476 7.37584 6.14286C7.21689 5.60971 6.91281 5.13126 6.49758 4.76097C6.08236 4.39069 5.57235 4.14317 5.02455 4.04606Z" fill="black"/>
</svg>
