<svg width="12" height="12" viewBox="0 0 12 12" fill="none" xmlns="http://www.w3.org/2000/svg">
<path fill-rule="evenodd" clip-rule="evenodd" d="M7.01636 2.70172C6.78983 2.79866 6.57719 2.92926 6.38614 3.09071C5.93484 3.47207 5.63312 4.0009 5.53448 4.58347C5.48838 4.85574 5.2303 5.03908 4.95803 4.99298C4.68576 4.94688 4.50242 4.68879 4.54852 4.41653C4.6866 3.60102 5.10895 2.86074 5.7407 2.32689C6.37246 1.79304 7.17283 1.50011 7.99994 1.5C8.201 1.49997 8.38251 1.62038 8.46067 1.80563C8.53883 1.99087 8.49843 2.20491 8.35813 2.34892C8.06057 2.65433 7.89528 3.06464 7.89806 3.49103C7.90083 3.91741 8.07144 4.32555 8.37295 4.62705C8.67446 4.92856 9.08259 5.09917 9.50897 5.10194C9.93536 5.10472 10.3457 4.93943 10.6511 4.64188C10.7951 4.50158 11.0091 4.46117 11.1943 4.53931C11.3796 4.61746 11.5 4.79895 11.5 5C11.5 6.29556 10.7956 7.4271 9.75022 8.03138C9.51115 8.16958 9.20531 8.0878 9.06712 7.84872C8.92892 7.60965 9.0107 7.30381 9.24978 7.16562C9.71579 6.89624 10.0861 6.48126 10.2993 5.98333C10.0436 6.06297 9.77509 6.1037 9.50246 6.10192C8.81312 6.09744 8.15329 5.82161 7.66584 5.33416C7.17839 4.84671 6.90256 4.18688 6.89808 3.49754C6.89631 3.22526 6.93692 2.95704 7.01636 2.70172Z" fill="black"/>
<path d="M3.55164 6.50158C3.25191 6.49395 2.9543 6.5538 2.68082 6.67671C2.40735 6.79962 2.16501 6.98245 1.97173 7.21166C1.77844 7.44088 1.63917 7.71061 1.56421 8.00092C1.48925 8.29123 1.48053 8.59467 1.53867 8.88881C1.59682 9.18294 1.72036 9.46024 1.90014 9.70019C2.06572 9.92118 2.0208 10.2346 1.79981 10.4001C1.57882 10.5657 1.26544 10.5208 1.09986 10.2998C0.830183 9.93989 0.64488 9.52395 0.557659 9.08274C0.470438 8.64154 0.483532 8.18637 0.59597 7.75091C0.708409 7.31545 0.917316 6.91085 1.20724 6.56702C1.49716 6.2232 1.86067 5.94896 2.27089 5.7646C2.6811 5.58023 3.12752 5.49045 3.57712 5.50191C4.02671 5.51336 4.46798 5.62576 4.86827 5.83078C5.26857 6.03579 5.61764 6.32819 5.88968 6.68633C6.07772 6.9339 6.21094 7.5 6.21094 7.5C6.21094 7.5 6.34375 8.14947 5.82382 8.14947C5.65625 8.14947 5.21572 8.1867 5.21572 7.59101C5.21572 6.99531 4.30085 6.50158 3.55164 6.50158Z" fill="black"/>
<path fill-rule="evenodd" clip-rule="evenodd" d="M5.5 9.5C5.77614 9.5 6 9.72386 6 10V11C6 11.2761 5.77614 11.5 5.5 11.5C5.22386 11.5 5 11.2761 5 11V10C5 9.72386 5.22386 9.5 5.5 9.5Z" fill="black"/>
<path fill-rule="evenodd" clip-rule="evenodd" d="M3.5 9C3.77614 9 4 9.22386 4 9.5V10.5C4 10.7761 3.77614 11 3.5 11C3.22386 11 3 10.7761 3 10.5V9.5C3 9.22386 3.22386 9 3.5 9Z" fill="black"/>
</svg>
