<svg width="12" height="12" viewBox="0 0 12 12" fill="none" xmlns="http://www.w3.org/2000/svg">
<path fill-rule="evenodd" clip-rule="evenodd" d="M4.17874 1.00722C4.78461 0.95927 5.39344 1.05001 5.95899 1.27255C6.52455 1.49509 7.03195 1.84358 7.44268 2.29156C7.76779 2.64615 8.02556 3.05569 8.20456 3.50001H8.75674C9.33966 3.50787 9.90501 3.70082 10.3712 4.05092C10.8373 4.40102 11.1801 4.8902 11.3501 5.44783C11.5201 6.00547 11.5085 6.60271 11.317 7.15332C11.1255 7.70393 10.7639 8.17943 10.2845 8.51117C10.0574 8.6683 9.74598 8.6116 9.58884 8.38453C9.43171 8.15745 9.48841 7.84599 9.71548 7.68885C10.0205 7.47775 10.2506 7.17516 10.3725 6.82477C10.4944 6.47438 10.5018 6.09432 10.3936 5.73946C10.2854 5.3846 10.0673 5.07331 9.77062 4.85051C9.47482 4.62836 9.11626 4.50566 8.74643 4.50001H7.85C7.62859 4.50001 7.43355 4.35439 7.37062 4.14212C7.24107 3.70509 7.01364 3.30333 6.70559 2.96735C6.39755 2.63137 6.01699 2.37001 5.59283 2.2031C5.16866 2.0362 4.71204 1.96814 4.25764 2.0041C3.80324 2.04007 3.36301 2.1791 2.97038 2.41065C2.57775 2.6422 2.24305 2.96018 1.99169 3.34043C1.74033 3.72069 1.57893 4.15322 1.51974 4.60518C1.46055 5.05714 1.50512 5.51665 1.65008 5.94881C1.79504 6.38097 2.03657 6.77441 2.35633 7.09926C2.55005 7.29606 2.54755 7.61263 2.35075 7.80634C2.15395 8.00006 1.83738 7.99756 1.64367 7.80076C1.21732 7.36763 0.895279 6.84304 0.701999 6.26683C0.508719 5.69062 0.449283 5.07794 0.528205 4.47532C0.607127 3.87271 0.822331 3.296 1.15748 2.78899C1.49262 2.28199 1.93889 1.85802 2.4624 1.54929C2.9859 1.24055 3.57288 1.05517 4.17874 1.00722Z" fill="black"/>
<path fill-rule="evenodd" clip-rule="evenodd" d="M6 6.00001C6.27614 6.00001 6.5 6.22387 6.5 6.50001V6.56302C6.68351 6.61025 6.85683 6.68287 7.01599 6.77692L7.14645 6.64646C7.34171 6.45119 7.65829 6.45119 7.85355 6.64646C8.04882 6.84172 8.04882 7.1583 7.85355 7.35356L7.72309 7.48403C7.81714 7.64318 7.88976 7.8165 7.93699 8.00001H8C8.27614 8.00001 8.5 8.22387 8.5 8.50001C8.5 8.77615 8.27614 9.00001 8 9.00001H7.93699C7.88976 9.18352 7.81714 9.35684 7.72309 9.51599L7.85355 9.64646C8.04882 9.84172 8.04882 10.1583 7.85355 10.3536C7.65829 10.5488 7.34171 10.5488 7.14645 10.3536L7.01599 10.2231C6.85683 10.3171 6.68351 10.3898 6.5 10.437V10.5C6.5 10.7762 6.27614 11 6 11C5.72386 11 5.5 10.7762 5.5 10.5V10.437C5.31649 10.3898 5.14317 10.3171 4.98402 10.2231L4.85355 10.3536C4.65829 10.5488 4.34171 10.5488 4.14645 10.3536C3.95119 10.1583 3.95119 9.84172 4.14645 9.64646L4.27691 9.51599C4.18287 9.35684 4.11024 9.18352 4.06301 9.00001H4C3.72386 9.00001 3.5 8.77615 3.5 8.50001C3.5 8.22387 3.72386 8.00001 4 8.00001H4.06301C4.11024 7.8165 4.18287 7.64318 4.27691 7.48403L4.25645 7.46356L4.14645 7.35356C3.95119 7.1583 3.95119 6.84172 4.14645 6.64646C4.34171 6.45119 4.65829 6.45119 4.85355 6.64646L4.98402 6.77692C5.14317 6.68287 5.31649 6.61025 5.5 6.56302V6.50001C5.5 6.22387 5.72386 6.00001 6 6.00001ZM5 8.50001C5 7.94773 5.44772 7.50001 6 7.50001C6.55229 7.50001 7 7.94773 7 8.50001C7 9.05229 6.55229 9.50001 6 9.50001C5.44772 9.50001 5 9.05229 5 8.50001Z" fill="black"/>
</svg>
