<svg width="12" height="12" viewBox="0 0 12 12" fill="none" xmlns="http://www.w3.org/2000/svg">
<g clip-path="url(#clip0_10011_5785)">
<path d="M1 5.5C0.723858 5.5 0.5 5.72386 0.5 6C0.5 6.27614 0.723858 6.5 1 6.5H2.79289L1.64645 7.64645C1.45118 7.84171 1.45118 8.15829 1.64645 8.35355C1.84171 8.54882 2.15829 8.54882 2.35355 8.35355L4.20711 6.5H5.35355L5.5 6.52354V7.79289L3.64645 9.64645C3.45118 9.84171 3.45118 10.1583 3.64645 10.3536C3.84171 10.5488 4.15829 10.5488 4.35355 10.3536L5.5 9.20711V11C5.5 11.2761 5.72386 11.5 6 11.5C6.27614 11.5 6.5 11.2761 6.5 11V9.20711L7.64645 10.3536C7.84171 10.5488 8.15829 10.5488 8.35355 10.3536C8.54882 10.1583 8.54882 9.84171 8.35355 9.64645L6.5 7.79289V6.5H7.79289L9.64645 8.35355C9.84171 8.54882 10.1583 8.54882 10.3536 8.35355C10.5488 8.15829 10.5488 7.84171 10.3536 7.64645L9.20711 6.5H11C11.2761 6.5 11.5 6.27614 11.5 6C11.5 5.72386 11.2761 5.5 11 5.5H9.20711L10.3536 4.35355C10.5488 4.15829 10.5488 3.84171 10.3536 3.64645C10.1583 3.45118 9.84171 3.45118 9.64645 3.64645L7.79289 5.5H6.5V4.20711L8.35355 2.35355C8.54882 2.15829 8.54882 1.84171 8.35355 1.64645C8.15829 1.45118 7.84171 1.45118 7.64645 1.64645L6.5 2.79289V1C6.5 0.723858 6.27614 0.5 6 0.5C5.72386 0.5 5.5 0.723858 5.5 1V2.79289L4.35355 1.64645C4.15829 1.45118 3.84171 1.45118 3.64645 1.64645C3.45118 1.84171 3.45118 2.15829 3.64645 2.35355L5.5 4.20711V5.5H4.20711L2.35355 3.64645C2.15829 3.45118 1.84171 3.45118 1.64645 3.64645C1.45118 3.84171 1.45118 4.15829 1.64645 4.35355L2.79289 5.5H1Z" fill="black"/>
</g>
<defs>
<clipPath id="clip0_10011_5785">
<rect width="12" height="12" fill="white"/>
</clipPath>
</defs>
</svg>
