<svg width="12" height="12" viewBox="0 0 12 12" fill="none" xmlns="http://www.w3.org/2000/svg">
<g clip-path="url(#clip0_10011_5828)">
<path fill-rule="evenodd" clip-rule="evenodd" d="M9 1.5C8.86739 1.5 8.74022 1.55268 8.64645 1.64645C8.55268 1.74021 8.5 1.86739 8.5 2V7.27C8.5 7.44863 8.4047 7.6137 8.25 7.70301C7.96404 7.86811 7.74054 8.12296 7.61418 8.42803C7.48782 8.73309 7.46565 9.07133 7.55111 9.39028C7.63657 9.70923 7.82489 9.99107 8.08686 10.1921C8.34882 10.3931 8.6698 10.5021 9 10.5021C9.3302 10.5021 9.65118 10.3931 9.91314 10.1921C10.1751 9.99107 10.3634 9.70923 10.4489 9.39028C10.5344 9.07133 10.5122 8.73309 10.3858 8.42803C10.2595 8.12296 10.036 7.86811 9.75 7.70301C9.5953 7.6137 9.5 7.44863 9.5 7.27V2C9.5 1.86739 9.44732 1.74021 9.35355 1.64645C9.25979 1.55268 9.13261 1.5 9 1.5ZM7.93934 0.93934C8.22064 0.658035 8.60218 0.5 9 0.5C9.39782 0.5 9.77936 0.658035 10.0607 0.93934C10.342 1.22064 10.5 1.60217 10.5 2V7.00205C10.8571 7.26985 11.1375 7.62962 11.3097 8.04534C11.5203 8.55379 11.5573 9.11752 11.4148 9.6491C11.2724 10.1807 10.9585 10.6504 10.5219 10.9854C10.0853 11.3205 9.55034 11.5021 9 11.5021C8.44966 11.5021 7.91471 11.3205 7.4781 10.9854C7.04149 10.6504 6.72762 10.1807 6.58519 9.6491C6.44275 9.11751 6.4797 8.55379 6.6903 8.04534C6.8625 7.62962 7.14293 7.26985 7.5 7.00205V2C7.5 1.60217 7.65804 1.22064 7.93934 0.93934Z" fill="black"/>
<path d="M0.5 6C0.5 5.72386 0.723858 5.5 1 5.5H1.79289L1.14645 4.85355C0.951184 4.65829 0.951184 4.34171 1.14645 4.14645C1.34171 3.95118 1.65829 3.95118 1.85355 4.14645L3.20711 5.5H4V4.70711L2.64645 3.35355C2.45118 3.15829 2.45118 2.84171 2.64645 2.64645C2.84171 2.45118 3.15829 2.45118 3.35355 2.64645L4 3.29289V2C4 1.72386 4.22386 1.5 4.5 1.5C4.77614 1.5 5 1.72386 5 2V3.29289L5.64645 2.64645C5.84171 2.45118 6.15829 2.45118 6.35355 2.64645C6.54882 2.84171 6.54882 3.15829 6.35355 3.35355L5 4.70711V5.39658V5.5H6C6.27614 5.5 6.5 5.72386 6.5 6C6.5 6.27614 6.27614 6.5 6 6.5H5V7.29289L5.60355 7.89645C5.79882 8.09171 5.79882 8.40829 5.60355 8.60355C5.43996 8.76714 5.19122 8.79368 5 8.68316V10C5 10.2761 4.77614 10.5 4.5 10.5C4.22386 10.5 4 10.2761 4 10V8.70711L3.35355 9.35355C3.15829 9.54882 2.84171 9.54882 2.64645 9.35355C2.45118 9.15829 2.45118 8.84171 2.64645 8.64645L4 7.29289V6.5H3.20711L1.85355 7.85355C1.65829 8.04882 1.34171 8.04882 1.14645 7.85355C0.951184 7.65829 0.951184 7.34171 1.14645 7.14645L1.79289 6.5H1C0.723858 6.5 0.5 6.27614 0.5 6Z" fill="black"/>
</g>
<defs>
<clipPath id="clip0_10011_5828">
<rect width="12" height="12" fill="white"/>
</clipPath>
</defs>
</svg>
