<svg width="12" height="12" viewBox="0 0 12 12" fill="none" xmlns="http://www.w3.org/2000/svg">
<g clip-path="url(#clip0_10011_5750)">
<path fill-rule="evenodd" clip-rule="evenodd" d="M9.71399 2.42292C10.7282 3.33492 11.3647 4.59381 11.4976 5.9513C11.5114 6.09171 11.4652 6.23139 11.3704 6.3359C11.2756 6.44041 11.1411 6.50001 11 6.50001H6.5V10C6.5 10.1326 6.55268 10.2598 6.64645 10.3536C6.74022 10.4473 6.86739 10.5 7 10.5C7.13261 10.5 7.25978 10.4473 7.35355 10.3536C7.44732 10.2598 7.5 10.1326 7.5 10C7.5 9.72387 7.72386 9.50001 8 9.50001C8.27614 9.50001 8.5 9.72387 8.5 10C8.5 10.3978 8.34196 10.7794 8.06066 11.0607C7.77936 11.342 7.39783 11.5 7 11.5C6.60217 11.5 6.22064 11.342 5.93934 11.0607C5.65804 10.7794 5.5 10.3978 5.5 10V6.50001H1C0.858917 6.50001 0.724401 6.44041 0.629624 6.3359C0.534848 6.23139 0.488634 6.09171 0.502379 5.9513C0.635266 4.59381 1.27176 3.33492 2.28601 2.42292C3.17762 1.6226 4.30017 1.13481 5.48411 1.02451L5.48576 0.969974C5.48576 0.688876 5.71363 0.461002 5.99473 0.461002C6.27583 0.461002 6.5037 0.688876 6.5037 0.969974L6.50461 1.02347C7.6927 1.13172 8.81955 1.62006 9.71399 2.42292ZM1.58612 5.50001C1.78864 4.60392 2.26433 3.7873 2.95414 3.16696C3.7909 2.41594 4.87563 2.00054 6 2.00054C7.12429 2.00054 8.20895 2.41588 9.04568 3.16681C9.73559 3.78716 10.2113 4.60384 10.4139 5.50001H1.58612Z" fill="black"/>
</g>
<defs>
<clipPath id="clip0_10011_5750">
<rect width="12" height="12" fill="white"/>
</clipPath>
</defs>
</svg>
