<svg xmlns="http://www.w3.org/2000/svg" width="12" height="12" fill="none" viewBox="0 0 12 12">
  <path fill="#000" fill-rule="evenodd" d="M1 3a1.5 1.5 0 0 1 1.5-1.5H8A1.5 1.5 0 0 1 9.5 3v1a.5.5 0 1 1-1 0V3a.5.5 0 0 0-.5-.5H2.5A.5.5 0 0 0 2 3v3a.5.5 0 0 0 .5.5h1a.5.5 0 1 1 0 1h-1A1.5 1.5 0 0 1 1 6V3Zm4 4a1.5 1.5 0 0 1 1.5-1.5h3A1.5 1.5 0 0 1 11 7v2a1.5 1.5 0 0 1-1.5 1.5h-3A1.5 1.5 0 0 1 5 9V7Zm1.5-.5A.5.5 0 0 0 6 7v2a.5.5 0 0 0 .5.5h3A.5.5 0 0 0 10 9V7a.5.5 0 0 0-.5-.5h-3Z" clip-rule="evenodd"/>
</svg>
