<svg width="12" height="12" viewBox="0 0 12 12" fill="none" xmlns="http://www.w3.org/2000/svg">
<path fill-rule="evenodd" clip-rule="evenodd" d="M1 2.5C1 1.67157 1.67157 1 2.5 1H9.5C10.3284 1 11 1.67157 11 2.5V7.5C11 8.32843 10.3284 9 9.5 9H2.5C1.67157 9 1 8.32843 1 7.5V2.5ZM2.5 2C2.22386 2 2 2.22386 2 2.5V7.5C2 7.77614 2.22386 8 2.5 8H9.5C9.77614 8 10 7.77614 10 7.5V2.5C10 2.22386 9.77614 2 9.5 2H2.5ZM4 3.5C4 3.22386 4.22386 3 4.5 3L7.5 3C7.77614 3 8 3.22386 8 3.5C8 3.77614 7.77614 4 7.5 4L4.5 4C4.22386 4 4 3.77614 4 3.5ZM4.5 6.5C4.5 6.22386 4.72386 6 5 6L7 6C7.27614 6 7.5 6.22386 7.5 6.5C7.5 6.77614 7.27614 7 7 7L5 7C4.72386 7 4.5 6.77614 4.5 6.5ZM1 10.5C1 10.2239 1.22386 10 1.5 10H10.5C10.7761 10 11 10.2239 11 10.5C11 10.7761 10.7761 11 10.5 11H1.5C1.22386 11 1 10.7761 1 10.5Z" fill="black"/>
</svg>
