<svg width="12" height="12" viewBox="0 0 12 12" fill="none" xmlns="http://www.w3.org/2000/svg">
<path fill-rule="evenodd" clip-rule="evenodd" d="M1 2.5C1 1.67157 1.67157 1 2.5 1H9.5C10.3284 1 11 1.67157 11 2.5V9.5C11 10.3284 10.3284 11 9.5 11H2.5C1.67157 11 1 10.3284 1 9.5V2.5ZM2.5 2C2.22386 2 2 2.22386 2 2.5V9.5C2 9.77614 2.22386 10 2.5 10H9.5C9.77614 10 10 9.77614 10 9.5V2.5C10 2.22386 9.77614 2 9.5 2H2.5ZM3 5.5C3.27614 5.5 3.5 5.72386 3.5 6V7C3.5 7.27614 3.27614 7.5 3 7.5C2.72386 7.5 2.5 7.27614 2.5 7V6C2.5 5.72386 2.72386 5.5 3 5.5ZM4.5 5.5C4.77614 5.5 5 5.72386 5 6V7C5 7.27614 4.77614 7.5 4.5 7.5C4.22386 7.5 4 7.27614 4 7V6C4 5.72386 4.22386 5.5 4.5 5.5ZM6 5.5C6.27614 5.5 6.5 5.72386 6.5 6V7C6.5 7.27614 6.27614 7.5 6 7.5C5.72386 7.5 5.5 7.27614 5.5 7V6C5.5 5.72386 5.72386 5.5 6 5.5ZM7.5 5.5C7.77614 5.5 8 5.72386 8 6V7C8 7.27614 7.77614 7.5 7.5 7.5C7.22386 7.5 7 7.27614 7 7V6C7 5.72386 7.22386 5.5 7.5 5.5ZM9 5.5C9.27614 5.5 9.5 5.72386 9.5 6V7C9.5 7.27614 9.27614 7.5 9 7.5C8.72386 7.5 8.5 7.27614 8.5 7V6C8.5 5.72386 8.72386 5.5 9 5.5ZM2.5 8.5C2.5 8.22386 2.72386 8 3 8H3.005C3.28114 8 3.505 8.22386 3.505 8.5C3.505 8.77614 3.28114 9 3.005 9H3C2.72386 9 2.5 8.77614 2.5 8.5ZM4 8.5C4 8.22386 4.22386 8 4.5 8H4.505C4.78114 8 5.005 8.22386 5.005 8.5C5.005 8.77614 4.78114 9 4.505 9H4.5C4.22386 9 4 8.77614 4 8.5ZM5.5 8.5C5.5 8.22386 5.72386 8 6 8H6.005C6.28114 8 6.505 8.22386 6.505 8.5C6.505 8.77614 6.28114 9 6.005 9H6C5.72386 9 5.5 8.77614 5.5 8.5ZM7 8.5C7 8.22386 7.22386 8 7.5 8H7.505C7.78114 8 8.005 8.22386 8.005 8.5C8.005 8.77614 7.78114 9 7.505 9H7.5C7.22386 9 7 8.77614 7 8.5ZM8.5 8.5C8.5 8.22386 8.72386 8 9 8H9.005C9.28114 8 9.505 8.22386 9.505 8.5C9.505 8.77614 9.28114 9 9.005 9H9C8.72386 9 8.5 8.77614 8.5 8.5Z" fill="black"/>
</svg>
