<svg xmlns="http://www.w3.org/2000/svg" viewBox="0 0 253 256" fill="none">
<path d="M231.06 202.216H208.423V170.337C208.423 164.037 213.487 158.937 219.742 158.937C225.996 158.937 231.06 164.037 231.06 170.337V202.216Z" fill="var(--dt-color-border-brand-subtle)" id="Vector"/>
<path d="M233.572 239.526H205.924L202.758 205.3H236.739L233.572 239.526Z" fill="var(--dt-color-link-primary)" id="Vector"/>
<path d="M219.634 157.674C219.611 157.716 219.598 157.738 219.598 157.738C219.598 157.738 219.593 157.73 219.584 157.713C219.581 157.707 219.576 157.7 219.572 157.691C219.521 157.705 219.493 157.712 219.493 157.712C219.493 157.712 219.495 157.69 219.499 157.649C219.098 157.538 217.39 157.032 216.745 156.301C216.012 155.471 215.829 154.443 216.326 153.982C216.805 153.562 217.707 153.802 218.422 154.516C218.421 154.487 218.42 154.458 218.42 154.43C218.42 153.178 218.943 152.163 219.598 152.163C220.223 152.163 220.728 153.09 220.772 154.265C221.429 153.717 222.212 153.571 222.659 153.956C223.196 154.417 223.065 155.484 222.358 156.328C221.761 157.041 220.124 157.538 219.634 157.674Z" fill="var(--dt-color-magenta-200)" id="Vector"/>
<path d="M205.976 197.367L206.146 197.656L208.724 196.062L205.885 193.927L205.688 194.19L207.921 195.875L205.466 195.798L205.453 196.128L207.865 196.203L205.976 197.367Z" fill="var(--dt-color-surface-strong)" id="Vector"/>
<path d="M233.376 164.367L229.961 167.082L230.457 167.021L232.171 167.975L232.329 167.687L231.013 166.953L233.729 166.621L233.703 166.304L231.073 166.621L233.585 164.631L233.376 164.367Z" fill="var(--dt-color-surface-strong)" id="Vector"/>
<path d="M210.242 164.67H208.489V164.34H209.797L209.104 162.1L209.418 162.008L210.242 164.67Z" fill="var(--dt-color-surface-strong)" id="Vector"/>
<path d="M229.006 195.1C228.77 195.1 228.574 194.902 228.574 194.665C228.574 194.428 228.77 194.23 229.006 194.23C229.241 194.23 229.437 194.428 229.437 194.665C229.437 194.902 229.254 195.1 229.006 195.1ZM229.006 194.441C228.888 194.441 228.783 194.533 228.783 194.665C228.783 194.902 229.215 194.902 229.215 194.665C229.228 194.546 229.123 194.441 229.006 194.441Z" fill="var(--dt-color-surface-strong)" id="Vector"/>
<path d="M229.006 196.866C228.77 196.866 228.574 196.668 228.574 196.431C228.574 196.194 228.77 195.996 229.006 195.996C229.241 195.996 229.437 196.194 229.437 196.431C229.437 196.668 229.254 196.866 229.006 196.866ZM229.006 196.207C228.888 196.207 228.783 196.299 228.783 196.431C228.783 196.668 229.215 196.668 229.215 196.431C229.228 196.299 229.123 196.207 229.006 196.207Z" fill="var(--dt-color-surface-strong)" id="Vector"/>
<path d="M229.006 198.632C228.77 198.632 228.574 198.434 228.574 198.197C228.574 197.96 228.77 197.762 229.006 197.762C229.241 197.762 229.437 197.96 229.437 198.197C229.437 198.434 229.254 198.632 229.006 198.632ZM229.006 197.973C228.888 197.973 228.783 198.065 228.783 198.197C228.783 198.434 229.215 198.434 229.215 198.197C229.228 198.065 229.123 197.973 229.006 197.973Z" fill="var(--dt-color-surface-strong)" id="Vector"/>
<path fill-rule="evenodd" clip-rule="evenodd" d="M46.9578 218.611L46.9577 217.451H16.9021V224.923C16.9021 233.516 23.6276 239.341 31.9234 239.341C38.1709 239.341 43.5352 236.03 45.8033 230.73C46.1771 230.803 46.5631 230.841 46.9578 230.841C50.3075 230.841 53.0291 228.1 53.0291 224.726C53.0291 221.352 50.3075 218.611 46.9578 218.611ZM46.4574 228.833C46.7838 227.609 46.9577 226.302 46.9577 224.923L46.9578 220.588C49.2214 220.588 51.0664 222.446 51.0664 224.726C51.0664 227.006 49.2214 228.864 46.9578 228.864C46.7884 228.864 46.6214 228.854 46.4574 228.833Z" fill="var(--dt-color-surface-bold)" id="Vector"/>
<path fill-rule="evenodd" clip-rule="evenodd" d="M28.8825 190.52C28.4878 190.718 28.033 191.202 27.713 192.188C27.558 192.666 27.4884 193.148 27.492 193.624C28.1931 193.555 28.8106 193.367 29.2796 193.026C30.0247 192.483 30.2936 191.939 30.3333 191.525C30.373 191.11 30.192 190.768 29.918 190.575C29.6469 190.383 29.2704 190.326 28.8825 190.52ZM27.5652 194.421C28.3744 194.342 29.1379 194.119 29.7506 193.672C30.6242 193.036 31.0622 192.305 31.1296 191.601C31.1971 190.898 30.8856 190.279 30.3797 189.921C29.8708 189.562 29.1798 189.477 28.5249 189.805C27.8767 190.129 27.3134 190.828 26.9521 191.941C26.7654 192.517 26.6837 193.091 26.6898 193.654C26.4045 193.65 26.1106 193.63 25.8116 193.597C24.4522 193.446 23.0813 193.034 22.1494 192.658C21.9445 192.576 21.7115 192.675 21.629 192.88C21.5464 193.085 21.6457 193.318 21.8506 193.401C22.8335 193.796 24.2761 194.231 25.7236 194.392C26.065 194.43 26.4121 194.453 26.7573 194.455C27.0566 196.358 28.3101 198.063 29.8064 199.122C29.639 199.406 29.5005 199.701 29.3949 200.003C29.074 200.92 29.0475 201.917 29.4533 202.825C29.8608 203.736 30.6814 204.508 31.9592 205.015C32.0589 205.054 32.1609 205.091 32.265 205.125C32.1299 205.549 32.0377 205.995 31.9762 206.451C31.8275 207.552 31.8537 208.743 31.9139 209.874C31.933 210.232 31.9553 210.582 31.977 210.922C32.0247 211.671 32.0693 212.371 32.0693 213C32.0693 213.221 32.2484 213.4 32.4693 213.4C32.6902 213.4 32.8693 213.221 32.8693 213C32.8693 212.345 32.8221 211.603 32.7735 210.84C32.7522 210.506 32.7307 210.168 32.7128 209.832C32.653 208.71 32.6308 207.581 32.769 206.558C32.8288 206.115 32.9177 205.7 33.0433 205.318C34.2481 205.533 35.5974 205.415 36.6694 204.956C37.1759 204.739 37.5922 204.457 37.8895 204.147C38.1799 203.844 38.3901 203.477 38.3997 203.096C38.4103 202.675 38.1746 202.331 37.7755 202.138C37.4022 201.958 36.888 201.906 36.2572 201.972C34.8292 202.121 33.8173 202.665 33.1302 203.49C32.9033 203.762 32.7156 204.061 32.5607 204.379C32.4557 204.346 32.3533 204.31 32.2539 204.271C31.1297 203.826 30.4897 203.183 30.1837 202.498C29.8761 201.81 29.8835 201.029 30.15 200.268C30.236 200.022 30.3481 199.781 30.4834 199.548C31.4103 200.063 32.4198 200.353 33.3837 200.302C34.5937 200.238 35.6986 199.638 36.4216 198.361C36.6046 198.038 36.6528 197.698 36.5239 197.382C36.4024 197.084 36.1525 196.879 35.8951 196.743C35.3829 196.473 34.6653 196.377 34.049 196.424C32.5104 196.542 31.155 197.36 30.2627 198.464C28.9135 197.508 27.8472 196.029 27.5652 194.421ZM30.9478 198.89C31.7491 199.322 32.583 199.543 33.3416 199.503C34.2834 199.453 35.1394 199.002 35.7255 197.967C35.8173 197.805 35.7991 197.723 35.783 197.684C35.7595 197.626 35.6893 197.539 35.5214 197.451C35.1829 197.272 34.6287 197.182 34.11 197.222C32.8423 197.319 31.7099 197.986 30.9478 198.89ZM33.3675 204.56C34.3739 204.706 35.4825 204.594 36.3544 204.221C36.7799 204.039 37.1014 203.813 37.312 203.593C37.5295 203.366 37.5973 203.181 37.5999 203.076C37.6016 203.011 37.5837 202.934 37.4278 202.859C37.2461 202.771 36.9037 202.708 36.3405 202.767C35.0865 202.899 34.2787 203.361 33.7449 204.002C33.6026 204.173 33.4774 204.359 33.3675 204.56Z" fill="var(--dt-color-surface-bold)" id="Vector"/>
<path d="M142.529 107.382C142.529 119.322 132.924 129.008 121.07 129.008C109.215 129.008 99.598 119.322 99.598 107.382C99.598 105.972 99.728 104.575 99.99 103.231C108.207 97.4713 111.937 93.32 113.611 90.7633C120.9 96.4434 133.291 104.931 142.398 105.128C142.489 105.879 142.529 106.631 142.529 107.382Z" fill="var(--dt-color-link-primary-inverted)" id="Vector"/>
<path d="M142.411 105.141C133.304 104.944 120.913 96.4434 113.624 90.7765C111.936 93.3332 108.22 97.4845 100.003 103.244C100.069 102.888 100.147 102.532 100.239 102.189C101.691 96.2721 105.551 91.33 110.72 88.457C111.007 88.2989 111.295 88.1407 111.583 88.009C114.449 86.5725 117.668 85.7817 121.07 85.7817C132.152 85.7817 141.259 94.2425 142.411 105.102C142.411 105.102 142.411 105.115 142.411 105.141Z" fill="var(--dt-color-link-primary)" id="Vector"/>
<path d="M163.573 163.273C156.984 152.537 146.231 142.376 128.711 138.826C123.647 137.798 118.427 137.798 113.363 138.826C95.8542 142.376 85.1338 152.537 78.5795 163.273H163.573Z" fill="var(--dt-color-magenta-200)" id="Vector"/>
<path d="M121.357 76.372C137.668 76.372 150.89 63.0549 150.89 46.6275C150.89 30.2 137.668 16.8829 121.357 16.8829C105.047 16.8829 91.825 30.2 91.825 46.6275C91.825 63.0549 105.047 76.372 121.357 76.372Z" fill="var(--dt-color-link-primary)" id="Vector"/>
<path fill-rule="evenodd" clip-rule="evenodd" d="M152.657 29.6029C151.887 29.2089 150.671 29.0768 148.952 29.6557C148.044 29.9615 147.241 30.418 146.544 30.9894C147.468 32.0308 148.487 32.8138 149.575 33.163C151.171 33.6756 152.265 33.4959 152.924 33.0895C153.581 32.6846 153.885 32.0111 153.846 31.3411C153.806 30.6726 153.423 29.995 152.657 29.6029ZM145.811 31.6705C146.818 32.8 147.973 33.6992 149.269 34.1151C151.048 34.6861 152.466 34.5466 153.449 33.9408C154.434 33.3333 154.904 32.3014 154.844 31.2824C154.784 30.262 154.195 29.2671 153.112 28.7127C152.032 28.1602 150.522 28.0718 148.632 28.708C147.597 29.0567 146.69 29.5726 145.907 30.2133C145.547 29.7404 145.203 29.2311 144.878 28.6973C143.586 26.5754 142.644 24.1659 142.135 22.4281C142.057 22.1631 141.779 22.0113 141.514 22.089C141.249 22.1667 141.097 22.4445 141.175 22.7095C141.703 24.5113 142.677 27.005 144.024 29.2174C144.376 29.7947 144.757 30.3599 145.167 30.8918C142.831 33.2868 141.854 36.9093 142.068 40.1866C142.069 40.2127 142.071 40.2388 142.073 40.2648C141.458 40.3149 140.86 40.428 140.294 40.6039C138.726 41.091 137.375 42.0687 136.602 43.5495C135.829 45.0323 135.671 46.9526 136.361 49.2583C136.433 49.5002 136.517 49.7431 136.612 49.9856C135.839 50.2359 135.082 50.5859 134.345 50.9999C132.695 51.9272 131.107 53.1983 129.631 54.4623C129.167 54.8598 128.716 55.2548 128.277 55.6391C127.304 56.4906 126.391 57.2897 125.529 57.9483C125.309 58.1159 125.267 58.4297 125.435 58.6491C125.603 58.8686 125.917 58.9105 126.136 58.7429C127.025 58.0635 127.98 57.2281 128.966 56.3647C129.399 55.9855 129.839 55.601 130.282 55.2219C131.749 53.9654 133.275 52.7484 134.835 51.8717C135.566 51.461 136.296 51.13 137.023 50.9043C138.015 52.8756 139.66 54.7233 141.47 55.784C142.297 56.2684 143.109 56.5574 143.825 56.6545C144.527 56.7496 145.205 56.6678 145.69 56.3171C146.22 55.9341 146.407 55.3146 146.252 54.6214C146.104 53.9605 145.647 53.2104 144.883 52.3934C143.157 50.5487 141.365 49.7003 139.549 49.5827C138.887 49.5399 138.232 49.5947 137.586 49.7273C137.483 49.4751 137.394 49.2226 137.319 48.9717C136.685 46.8537 136.863 45.2124 137.489 44.0119C138.116 42.8094 139.228 41.9822 140.591 41.5589C141.095 41.4023 141.63 41.3022 142.181 41.2592C142.464 43.172 143.168 44.9577 144.298 46.2913C145.651 47.8896 147.602 48.8157 150.069 48.5253C150.668 48.4547 151.134 48.1908 151.394 47.7312C151.64 47.2978 151.649 46.7816 151.559 46.3025C151.38 45.344 150.755 44.2591 150.038 43.4502C148.196 41.3726 145.565 40.3086 143.074 40.2387C143.071 40.1997 143.068 40.1606 143.065 40.1215C142.865 37.0564 143.773 33.8139 145.811 31.6705ZM143.191 41.2435C143.464 42.9604 144.101 44.5118 145.061 45.645C146.211 47.0026 147.837 47.7811 149.952 47.5321C150.315 47.4894 150.457 47.3572 150.524 47.2385C150.606 47.0937 150.644 46.8495 150.576 46.4865C150.441 45.761 149.93 44.8359 149.29 44.1137C147.673 42.2899 145.371 41.3422 143.191 41.2435ZM138.024 50.6624C138.94 52.3863 140.399 53.9971 141.976 54.9212C142.711 55.3521 143.398 55.5874 143.959 55.6635C144.535 55.7416 144.912 55.6453 145.104 55.5067C145.251 55.4004 145.361 55.2191 145.276 54.8401C145.184 54.4288 144.862 53.835 144.153 53.0765C142.568 51.3821 141.002 50.6789 139.484 50.5806C139 50.5492 138.512 50.5791 138.024 50.6624Z" fill="var(--dt-color-purple-100)" id="Vector"/>
<path fill-rule="evenodd" clip-rule="evenodd" d="M136.287 28.1615C135.805 27.9147 135.013 27.8168 133.854 28.2068C133.303 28.3924 132.809 28.6619 132.373 28.9975C132.966 29.6382 133.607 30.1118 134.282 30.3282C135.354 30.6723 136.056 30.5422 136.461 30.2932C136.862 30.0457 137.046 29.6373 137.022 29.2299C136.998 28.824 136.766 28.4065 136.287 28.1615ZM131.64 29.6785C132.32 30.4125 133.1 30.9992 133.976 31.2803C135.23 31.6828 136.258 31.593 136.985 31.1445C137.715 30.6945 138.065 29.9277 138.02 29.1713C137.976 28.4134 137.538 27.6785 136.742 27.2713C135.95 26.8659 134.863 26.8119 133.535 27.2591C132.857 27.4874 132.258 27.8163 131.735 28.2219C131.525 27.9381 131.324 27.6352 131.131 27.3182C130.249 25.8701 129.605 24.223 129.257 23.0355C129.179 22.7705 128.901 22.6187 128.636 22.6964C128.371 22.7741 128.219 23.0519 128.297 23.3169C128.664 24.5684 129.34 26.2998 130.277 27.8383C130.497 28.2008 130.736 28.5583 130.993 28.8993C129.435 30.5641 128.779 33.0123 128.9 35.2291C128.519 35.2696 128.147 35.3449 127.793 35.4549C126.681 35.8005 125.712 36.4976 125.158 37.5612C124.602 38.6268 124.496 39.9934 124.98 41.6114C125.016 41.7314 125.056 41.8517 125.1 41.972C124.609 42.1435 124.129 42.3699 123.664 42.6313C122.513 43.2782 121.409 44.1624 120.391 45.0346C120.067 45.3114 119.755 45.5852 119.451 45.8508C118.783 46.4355 118.161 46.9806 117.571 47.4312C117.351 47.5988 117.309 47.9126 117.477 48.132C117.645 48.3515 117.958 48.3934 118.178 48.2258C118.795 47.7544 119.459 47.173 120.141 46.5763C120.439 46.3159 120.739 46.0526 121.041 45.7942C122.051 44.9296 123.093 44.0994 124.154 43.5031C124.609 43.2474 125.06 43.039 125.507 42.8895C126.21 44.2293 127.334 45.4725 128.571 46.1975C129.155 46.5396 129.734 46.7471 130.251 46.8173C130.754 46.8855 131.269 46.8314 131.649 46.5567C132.073 46.2498 132.214 45.7548 132.096 45.2283C131.986 44.7341 131.65 44.1929 131.115 43.6209C129.904 42.3264 128.634 41.7192 127.336 41.6352C126.909 41.6075 126.486 41.6371 126.07 41.7128C126.021 41.5831 125.977 41.4536 125.938 41.3248C125.51 39.8945 125.636 38.807 126.044 38.0236C126.454 37.2383 127.183 36.6917 128.09 36.4099C128.382 36.3191 128.691 36.2567 129.009 36.2231C129.22 37.509 129.708 38.7115 130.479 39.6228C131.444 40.7616 132.838 41.4227 134.593 41.2161C135.043 41.1632 135.414 40.9609 135.623 40.5912C135.818 40.2477 135.82 39.8496 135.755 39.5015C135.624 38.8048 135.176 38.0324 134.67 37.4616C133.406 36.036 131.617 35.2865 129.9 35.2019C129.783 33.1933 130.365 31.1019 131.64 29.6785ZM130.022 36.2115C130.222 37.2951 130.639 38.2635 131.242 38.9765C132.003 39.8746 133.073 40.3881 134.476 40.223C134.69 40.1979 134.737 40.1273 134.753 40.0985C134.784 40.0435 134.815 39.9176 134.772 39.6855C134.685 39.2218 134.351 38.6092 133.921 38.125C132.884 36.9547 131.425 36.3227 130.022 36.2115ZM126.519 42.6558C127.14 43.7445 128.075 44.7477 129.077 45.3348C129.569 45.6234 130.023 45.7772 130.386 45.8263C130.763 45.8774 130.976 45.8089 131.063 45.7464C131.105 45.7161 131.168 45.6593 131.121 45.447C131.066 45.2024 130.865 44.8175 130.385 44.304C129.314 43.1598 128.271 42.6978 127.271 42.6331C127.022 42.617 126.771 42.6253 126.519 42.6558Z" fill="var(--dt-color-purple-100)" id="Vector"/>
<path d="M175.659 239.671H67.082C64.1903 239.671 61.8481 237.312 61.8481 234.399V168.545C61.8481 165.632 64.1903 163.273 67.082 163.273H175.659C178.551 163.273 180.893 165.632 180.893 168.545V234.399C180.88 237.312 178.551 239.671 175.659 239.671Z" fill="var(--dt-color-brand-purple)" id="Vector"/>
<path d="M130.189 191.638C125.758 191.662 122.108 194.991 121.524 199.301L121.476 187.133C121.476 187.011 121.329 186.96 121.256 187.035L116.145 192.396C115.098 191.956 113.929 191.711 112.737 191.711C107.893 191.735 103.976 195.701 104 200.574C104.024 205.445 107.968 209.387 112.81 209.363C117.24 209.338 120.892 206.009 121.476 201.7L121.524 213.868C121.524 213.99 121.669 214.038 121.742 213.966L126.853 208.605C127.901 209.045 129.069 209.29 130.261 209.29C135.105 209.264 139.024 205.298 139 200.427C138.974 195.554 135.032 191.612 130.189 191.638Z" fill="var(--dt-color-neutral-white)" id="dplogo"/>
</svg>