<svg aria-hidden="true" focusable="false" aria-label="Wireless Screenshare" class="wirelessScreenshare" viewBox="0 0 96 96" fill="none">
<path d="M86.3103 70.1942H23.0406V72.0093H86.3103V70.1942Z" fill="var(--dt-color-surface-strong)" id="Vector"/>
<path d="M63.7224 66.565H45.6289V70.1837H63.7224V66.565Z" fill="var(--dt-color-surface-strong)" id="Vector"/>
<path d="M63.7179 66.565H45.6334V67.4652H63.7179V66.565Z" fill="var(--dt-color-surface-contrast)" id="Vector"/>
<path d="M94.9578 17.0114C94.9578 15.9068 94.0624 15.0114 92.9578 15.0114H16.3139C15.2094 15.0114 14.3139 15.9068 14.3139 17.0114V64.6184C14.3139 65.723 15.2094 66.6184 16.3139 66.6184H92.9578C94.0624 66.6184 94.9578 65.723 94.9578 64.6184V17.0114Z" fill="var(--dt-color-surface-moderate)" id="Vector"/>
<path d="M16.3139 15.2614H92.9578C93.9243 15.2614 94.7078 16.0449 94.7078 17.0114V64.6184C94.7078 65.5849 93.9243 66.3684 92.9578 66.3684H16.3139C15.3474 66.3684 14.5639 65.5849 14.5639 64.6184V17.0114C14.5639 16.0449 15.3474 15.2614 16.3139 15.2614Z" stroke="var(--dt-color-border-subtle)" stroke-opacity="0.1" stroke-width="0.5" id="Vector"/>
<path d="M22.6448 28.4521H86.6379V58.1086C86.6379 58.8812 85.8217 59.5076 84.8149 59.5076H24.4678C23.461 59.5076 22.6448 58.8812 22.6448 58.1086V28.4521Z" fill="var(--dt-color-neutral-white)" id="Vector"/>
<path d="M28.2269 36.0548H48.3381V38.066H28.2269V36.0548Z" fill="var(--dt-color-surface-bold)" id="Vector"/>
<path d="M28.2271 39.3228H48.3382V41.334H28.2271V39.3228Z" fill="var(--dt-color-surface-bold)" id="Vector"/>
<path d="M28.2271 42.5909H48.3382V44.6021H28.2271V42.5909Z" fill="var(--dt-color-surface-bold)" id="Vector"/>
<path d="M59.1478 32.0327H81.7728V54.9091H59.1478V32.0327Z" fill="var(--dt-color-surface-bold)" id="Vector"/>
<path d="M86.6379 27.0389H22.6448V22.2743C22.6448 21.2675 23.461 20.4514 24.4678 20.4514H84.8149C85.8217 20.4514 86.6379 21.2675 86.6379 22.2743V27.0389Z" fill="var(--dt-color-brand-purple)" id="Vector"/>
<path d="M26.6331 25.0975C27.1365 25.0975 27.5446 24.6894 27.5446 24.186C27.5446 23.6826 27.1365 23.2745 26.6331 23.2745C26.1297 23.2745 25.7216 23.6826 25.7216 24.186C25.7216 24.6894 26.1297 25.0975 26.6331 25.0975Z" fill="var(--dt-color-neutral-white)" id="Vector"/>
<path d="M29.5508 25.0975C30.0542 25.0975 30.4623 24.6894 30.4623 24.186C30.4623 23.6826 30.0542 23.2745 29.5508 23.2745C29.0474 23.2745 28.6393 23.6826 28.6393 24.186C28.6393 24.6894 29.0474 25.0975 29.5508 25.0975Z" fill="var(--dt-color-neutral-white)" id="Vector"/>
<path d="M32.4676 25.0975C32.971 25.0975 33.3791 24.6894 33.3791 24.186C33.3791 23.6826 32.971 23.2745 32.4676 23.2745C31.9642 23.2745 31.5561 23.6826 31.5561 24.186C31.5561 24.6894 31.9642 25.0975 32.4676 25.0975Z" fill="var(--dt-color-neutral-white)" id="Vector"/>
<path d="M50.4515 54.5438C50.4515 53.4393 49.5561 52.5438 48.4515 52.5438H7.81842C6.71385 52.5438 5.81842 53.4393 5.81842 54.5438V77.0447C5.81842 78.1493 6.71385 79.0447 7.81842 79.0447H48.4515C49.5561 79.0447 50.4515 78.1493 50.4515 77.0447V54.5438Z" fill="var(--dt-color-surface-moderate)" id="Vector"/>
<path d="M7.81842 52.7938H48.4515C49.418 52.7938 50.2015 53.5773 50.2015 54.5438V77.0447C50.2015 78.0112 49.418 78.7947 48.4515 78.7947H7.81842C6.85192 78.7947 6.06842 78.0112 6.06842 77.0447V54.5438C6.06842 53.5773 6.85192 52.7938 7.81842 52.7938Z" stroke="var(--dt-color-border-subtle)" stroke-opacity="0.1" stroke-width="0.5" id="Vector"/>
<path d="M55.2806 79.0105H1V80.8198H55.2806V79.0105Z" fill="var(--dt-color-surface-strong)" id="Vector"/>
<path d="M32.617 79.0105H23.5702V79.9151H32.617V79.0105Z" fill="var(--dt-color-surface-contrast)" id="Vector"/>
<path d="M12.293 59.9766H43.3485V75.2542C43.3485 75.6522 42.9524 75.9749 42.4638 75.9749H13.1777C12.6891 75.9749 12.293 75.6522 12.293 75.2542V59.9766Z" fill="var(--dt-color-neutral-white)" id="Vector"/>
<path d="M14.6566 63.4524H25.0287V64.4896H14.6566V63.4524Z" fill="var(--dt-color-surface-bold)" id="Vector"/>
<path d="M14.6566 65.1379H25.0287V66.1751H14.6566V65.1379Z" fill="var(--dt-color-surface-bold)" id="Vector"/>
<path d="M14.6566 66.8233H25.0287V67.8605H14.6566V66.8233Z" fill="var(--dt-color-surface-bold)" id="Vector"/>
<path d="M30.6037 61.8587H42.2723V73.657H30.6037V61.8587Z" fill="var(--dt-color-surface-bold)" id="Vector"/>
<path d="M43.4691 59.4216H12.293V57.1004C12.293 56.6099 12.6906 56.2123 13.1811 56.2123H42.5809C43.0714 56.2123 43.4691 56.6099 43.4691 57.1004V59.4216Z" fill="var(--dt-color-brand-purple)" id="Vector"/>
<path d="M14.2359 58.4757C14.4812 58.4757 14.68 58.2769 14.68 58.0316C14.68 57.7864 14.4812 57.5876 14.2359 57.5876C13.9907 57.5876 13.7919 57.7864 13.7919 58.0316C13.7919 58.2769 13.9907 58.4757 14.2359 58.4757Z" fill="var(--dt-color-neutral-white)" id="Vector"/>
<path d="M15.6574 58.4757C15.9026 58.4757 16.1014 58.2769 16.1014 58.0316C16.1014 57.7864 15.9026 57.5876 15.6574 57.5876C15.4121 57.5876 15.2133 57.7864 15.2133 58.0316C15.2133 58.2769 15.4121 58.4757 15.6574 58.4757Z" fill="var(--dt-color-neutral-white)" id="Vector"/>
<path d="M17.0785 58.4757C17.3237 58.4757 17.5225 58.2769 17.5225 58.0316C17.5225 57.7864 17.3237 57.5876 17.0785 57.5876C16.8332 57.5876 16.6344 57.7864 16.6344 58.0316C16.6344 58.2769 16.8332 58.4757 17.0785 58.4757Z" fill="var(--dt-color-neutral-white)" id="Vector"/>
<path fill-rule="evenodd" clip-rule="evenodd" d="M49.0985 48.2371L54.1803 48.2371C54.4921 48.2371 54.7449 48.4899 54.7449 48.8018L54.7449 53.8836C54.7449 54.1954 54.4921 54.4482 54.1803 54.4482C53.8684 54.4482 53.6156 54.1954 53.6156 53.8836L53.6156 50.1649L36.7942 66.9864C36.5737 67.2069 36.2162 67.2069 35.9956 66.9864C35.7751 66.7659 35.7751 66.4084 35.9956 66.1879L52.8171 49.3664L49.0985 49.3664C48.7866 49.3664 48.5338 49.1136 48.5338 48.8018C48.5338 48.4899 48.7866 48.2371 49.0985 48.2371Z" fill="var(--dt-color-brand-purple)" id="Vector"/>
</svg>