<svg width="12" height="12" viewBox="0 0 12 12" fill="none" xmlns="http://www.w3.org/2000/svg">
<path d="M5 8C5 8.39782 5.15804 8.77936 5.43934 9.06066C5.72064 9.34196 6.10218 9.5 6.5 9.5H10C10.2761 9.5 10.5 9.72386 10.5 10C10.5 10.2761 10.2761 10.5 10 10.5H6.5C5.83696 10.5 5.20107 10.2366 4.73223 9.76777C4.26339 9.29893 4 8.66304 4 8V3.20711L2.35355 4.85355C2.15829 5.04882 1.84171 5.04882 1.64645 4.85355C1.45118 4.65829 1.45118 4.34171 1.64645 4.14645L4.14645 1.64645C4.34171 1.45118 4.65829 1.45118 4.85355 1.64645L7.35355 4.14645C7.54882 4.34171 7.54882 4.65829 7.35355 4.85355C7.15829 5.04882 6.84171 5.04882 6.64645 4.85355L5 3.20711V8Z" fill="black"/>
</svg>
