<svg width="12" height="12" viewBox="0 0 12 12" fill="none" xmlns="http://www.w3.org/2000/svg">
<path d="M4 5C3.60218 5 3.22064 5.15804 2.93934 5.43934C2.65804 5.72064 2.5 6.10218 2.5 6.5V10C2.5 10.2761 2.27614 10.5 2 10.5C1.72386 10.5 1.5 10.2761 1.5 10V6.5C1.5 5.83696 1.76339 5.20107 2.23223 4.73223C2.70107 4.26339 3.33696 4 4 4H8.79289L7.14645 2.35355C6.95118 2.15829 6.95118 1.84171 7.14645 1.64645C7.34171 1.45118 7.65829 1.45118 7.85355 1.64645L10.3536 4.14645C10.5488 4.34171 10.5488 4.65829 10.3536 4.85355L7.85355 7.35355C7.65829 7.54882 7.34171 7.54882 7.14645 7.35355C6.95118 7.15829 6.95118 6.84171 7.14645 6.64645L8.79289 5H4Z" fill="black"/>
</svg>
