<svg width="12" height="12" viewBox="0 0 12 12" fill="none" xmlns="http://www.w3.org/2000/svg">
<path d="M1.5 2C1.5 1.72386 1.72386 1.5 2 1.5H5.5C6.16304 1.5 6.79893 1.76339 7.26777 2.23223C7.73661 2.70107 8 3.33696 8 4V8.79289L9.64645 7.14645C9.84171 6.95118 10.1583 6.95118 10.3536 7.14645C10.5488 7.34171 10.5488 7.65829 10.3536 7.85355L7.85355 10.3536C7.65829 10.5488 7.34171 10.5488 7.14645 10.3536L4.64645 7.85355C4.45118 7.65829 4.45118 7.34171 4.64645 7.14645C4.84171 6.95118 5.15829 6.95118 5.35355 7.14645L7 8.79289V4C7 3.60218 6.84196 3.22064 6.56066 2.93934C6.27936 2.65804 5.89782 2.5 5.5 2.5H2C1.72386 2.5 1.5 2.27614 1.5 2Z" fill="black"/>
</svg>
