<svg width="12" height="12" viewBox="0 0 12 12" fill="none" xmlns="http://www.w3.org/2000/svg">
<path d="M8 8C8 8.66304 7.73661 9.29893 7.26777 9.76777C6.79893 10.2366 6.16304 10.5 5.5 10.5H2C1.72386 10.5 1.5 10.2761 1.5 10C1.5 9.72386 1.72386 9.5 2 9.5H5.5C5.89782 9.5 6.27936 9.34196 6.56066 9.06066C6.84196 8.77936 7 8.39782 7 8V3.20711L5.35355 4.85355C5.15829 5.04882 4.84171 5.04882 4.64645 4.85355C4.45118 4.65829 4.45118 4.34171 4.64645 4.14645L7.14645 1.64645C7.34171 1.45118 7.65829 1.45118 7.85355 1.64645L10.3536 4.14645C10.5488 4.34171 10.5488 4.65829 10.3536 4.85355C10.1583 5.04882 9.84171 5.04882 9.64645 4.85355L8 3.20711V8Z" fill="black"/>
</svg>
