<svg width="12" height="12" viewBox="0 0 12 12" fill="none" xmlns="http://www.w3.org/2000/svg">
<path fill-rule="evenodd" clip-rule="evenodd" d="M7.14645 4.64645C7.34171 4.45118 7.65829 4.45118 7.85355 4.64645L10.3536 7.14645C10.5488 7.34171 10.5488 7.65829 10.3536 7.85355L7.85355 10.3536C7.65829 10.5488 7.34171 10.5488 7.14645 10.3536C6.95118 10.1583 6.95118 9.84171 7.14645 9.64645L8.79289 8L9.29289 7.5L8.79289 7L7.14645 5.35355C6.95118 5.15829 6.95118 4.84171 7.14645 4.64645Z" fill="black"/>
<path d="M2.5 2C2.5 1.72386 2.27614 1.5 2 1.5C1.72386 1.5 1.5 1.72386 1.5 2V5.5C1.5 6.16304 1.76339 6.79893 2.23223 7.26777C2.70107 7.73661 3.33696 8 4 8H8.79289L9.29289 7.5L8.79289 7H4C3.60218 7 3.22064 6.84196 2.93934 6.56066C2.65804 6.27936 2.5 5.89782 2.5 5.5V2Z" fill="black"/>
</svg>
