<svg width="12" height="12" viewBox="0 0 12 12" fill="none" xmlns="http://www.w3.org/2000/svg">
<path d="M4.73223 2.23223C5.20107 1.76339 5.83696 1.5 6.5 1.5H10C10.2761 1.5 10.5 1.72386 10.5 2C10.5 2.27614 10.2761 2.5 10 2.5H6.5C6.10218 2.5 5.72064 2.65804 5.43934 2.93934C5.15804 3.22064 5 3.60218 5 4V8.79289L6.64645 7.14645C6.84171 6.95118 7.15829 6.95118 7.35355 7.14645C7.54882 7.34171 7.54882 7.65829 7.35355 7.85355L4.85355 10.3536C4.65829 10.5488 4.34171 10.5488 4.14645 10.3536L1.64645 7.85355C1.45118 7.65829 1.45118 7.34171 1.64645 7.14645C1.84171 6.95118 2.15829 6.95118 2.35355 7.14645L4 8.79289V4C4 3.33696 4.26339 2.70107 4.73223 2.23223Z" fill="black"/>
</svg>
