<svg width="12" height="12" viewBox="0 0 12 12" fill="none" xmlns="http://www.w3.org/2000/svg">
<path fill-rule="evenodd" clip-rule="evenodd" d="M4.85355 4.64645C5.04882 4.84171 5.04882 5.15829 4.85355 5.35355L3.20711 7L2.70711 7.5L3.20711 8L4.85355 9.64645C5.04882 9.84171 5.04882 10.1583 4.85355 10.3536C4.65829 10.5488 4.34171 10.5488 4.14645 10.3536L1.64645 7.85355C1.45118 7.65829 1.45118 7.34171 1.64645 7.14645L4.14645 4.64645C4.34171 4.45118 4.65829 4.45118 4.85355 4.64645Z" fill="black"/>
<path d="M10.5 2C10.5 1.72386 10.2761 1.5 10 1.5C9.72386 1.5 9.5 1.72386 9.5 2V5.5C9.5 5.89782 9.34196 6.27936 9.06066 6.56066C8.77936 6.84196 8.39782 7 8 7H3.20711L2.70711 7.5L3.20711 8H8C8.66304 8 9.29893 7.73661 9.76777 7.26777C10.2366 6.79893 10.5 6.16304 10.5 5.5V2Z" fill="black"/>
</svg>
