<svg width="12" height="12" viewBox="0 0 12 12" fill="none" xmlns="http://www.w3.org/2000/svg">
<path d="M2.4519 4.9519C3.0614 4.34241 3.88805 4 4.75 4H8.79289L7.14645 2.35355C6.95118 2.15829 6.95118 1.84171 7.14645 1.64645C7.34171 1.45118 7.65829 1.45118 7.85355 1.64645L10.3536 4.14645C10.5488 4.34171 10.5488 4.65829 10.3536 4.85355L7.85355 7.35355C7.65829 7.54882 7.34171 7.54882 7.14645 7.35355C6.95118 7.15829 6.95118 6.84171 7.14645 6.64645L8.79289 5H4.75C4.15326 5 3.58097 5.23705 3.15901 5.65901C2.73705 6.08097 2.5 6.65326 2.5 7.25C2.5 7.54547 2.5582 7.83806 2.67127 8.11104C2.78434 8.38402 2.95008 8.63206 3.15901 8.84099C3.58097 9.26295 4.15326 9.5 4.75 9.5H6.5C6.77614 9.5 7 9.72386 7 10C7 10.2761 6.77614 10.5 6.5 10.5H4.75C3.88805 10.5 3.0614 10.1576 2.4519 9.5481C2.15011 9.24631 1.91072 8.88803 1.74739 8.49372C1.58406 8.09941 1.5 7.6768 1.5 7.25C1.5 6.38805 1.84241 5.5614 2.4519 4.9519Z" fill="black"/>
</svg>
