<svg width="12" height="12" viewBox="0 0 12 12" fill="none" xmlns="http://www.w3.org/2000/svg">
<path fill-rule="evenodd" clip-rule="evenodd" d="M5.99917 1.99976C4.97116 2 3.98531 2.40848 3.25838 3.13541C2.53123 3.86256 2.12273 4.84879 2.12273 5.87713C2.12273 6.15328 1.89887 6.37713 1.62273 6.37713C1.34658 6.37713 1.12273 6.15328 1.12273 5.87713C1.12273 4.58357 1.63659 3.34299 2.55128 2.42831C3.46596 1.51362 4.70654 0.999756 6.0001 0.999756H6.00198C7.35476 1.00485 8.65319 1.5327 9.6258 2.47294L9.63188 2.47882L9.63183 2.47887L9.87742 2.72446L9.87736 1.49978C9.87734 1.22364 10.1012 0.99977 10.3773 0.999756C10.6535 0.999742 10.8773 1.22359 10.8774 1.49973L10.8775 3.93161C10.8775 4.06422 10.8248 4.1914 10.731 4.28518C10.6373 4.37895 10.5101 4.43163 10.3775 4.43163L7.94548 4.43163C7.66934 4.43163 7.44548 4.20777 7.44548 3.93163C7.44548 3.65549 7.66934 3.43163 7.94548 3.43163L9.17037 3.43163L8.92779 3.18905C8.14128 2.43018 7.09217 2.00411 5.99917 1.99976ZM10.3773 5.62276C10.6534 5.62276 10.8773 5.84662 10.8773 6.12276C10.8773 7.41632 10.3634 8.6569 9.4487 9.57159C8.53402 10.4863 7.29344 11.0001 5.99988 11.0001L5.99799 11.0001C4.64522 10.995 3.34679 10.4672 2.37418 9.52695L2.3681 9.52107L2.36815 9.52102L2.1225 9.27537V10.5001C2.1225 10.7762 1.89864 11.0001 1.6225 11.0001C1.34636 11.0001 1.1225 10.7762 1.1225 10.5001V8.06826C1.1225 7.79212 1.34635 7.56827 1.62248 7.56826L4.05436 7.56819C4.3305 7.56819 4.55437 7.79204 4.55437 8.06818C4.55438 8.34432 4.33053 8.56819 4.05439 8.56819L2.82957 8.56823L3.07218 8.81084C3.85868 9.5697 4.90776 9.99577 6.00075 10.0001C7.02878 9.99991 8.01465 9.59142 8.7416 8.86448C9.46875 8.13733 9.87725 7.1511 9.87725 6.12276C9.87725 5.84662 10.1011 5.62276 10.3773 5.62276Z" fill="black"/>
</svg>
