<svg width="12" height="12" viewBox="0 0 12 12" fill="none" xmlns="http://www.w3.org/2000/svg">
<path d="M3.5 3.5C3.10218 3.5 2.72064 3.65804 2.43934 3.93934C2.15804 4.22064 2 4.60218 2 5V5.5C2 5.77614 1.77614 6 1.5 6C1.22386 6 1 5.77614 1 5.5V5C1 4.33696 1.26339 3.70107 1.73223 3.23223C2.20107 2.76339 2.83696 2.5 3.5 2.5H9.29289L8.14645 1.35355C7.95118 1.15829 7.95118 0.841709 8.14645 0.646447C8.34171 0.451184 8.65829 0.451184 8.85355 0.646447L10.8536 2.64645C11.0488 2.84171 11.0488 3.15829 10.8536 3.35355L8.85355 5.35355C8.65829 5.54882 8.34171 5.54882 8.14645 5.35355C7.95118 5.15829 7.95118 4.84171 8.14645 4.64645L9.29289 3.5H3.5Z" fill="black"/>
<path d="M10.5 6C10.7761 6 11 6.22386 11 6.5V7C11 7.66304 10.7366 8.29893 10.2678 8.76777C9.79893 9.23661 9.16304 9.5 8.5 9.5H2.70711L3.85355 10.6464C4.04882 10.8417 4.04882 11.1583 3.85355 11.3536C3.65829 11.5488 3.34171 11.5488 3.14645 11.3536L1.14645 9.35355C0.951184 9.15829 0.951184 8.84171 1.14645 8.64645L3.14645 6.64645C3.34171 6.45118 3.65829 6.45118 3.85355 6.64645C4.04882 6.84171 4.04882 7.15829 3.85355 7.35355L2.70711 8.5H8.5C8.89782 8.5 9.27936 8.34196 9.56066 8.06066C9.84196 7.77936 10 7.39782 10 7V6.5C10 6.22386 10.2239 6 10.5 6Z" fill="black"/>
</svg>
