<svg width="12" height="12" viewBox="0 0 12 12" fill="none" xmlns="http://www.w3.org/2000/svg">
<path d="M8 5.5C8.66304 5.5 9.29893 5.76339 9.76777 6.23223C10.2366 6.70107 10.5 7.33696 10.5 8V9C10.5 9.27614 10.2761 9.5 10 9.5C9.72386 9.5 9.5 9.27614 9.5 9V8C9.5 7.60218 9.34196 7.22064 9.06066 6.93934C8.77936 6.65804 8.39782 6.5 8 6.5H3.20711L4.85355 8.14645C5.04882 8.34171 5.04882 8.65829 4.85355 8.85355C4.65829 9.04882 4.34171 9.04882 4.14645 8.85355L1.64645 6.35355C1.45118 6.15829 1.45118 5.84171 1.64645 5.64645L4.14645 3.14645C4.34171 2.95118 4.65829 2.95118 4.85355 3.14645C5.04882 3.34171 5.04882 3.65829 4.85355 3.85355L3.20711 5.5H8Z" fill="black"/>
</svg>
