<svg width="12" height="12" viewBox="0 0 12 12" fill="none" xmlns="http://www.w3.org/2000/svg">
<path d="M7.25 4C7.6768 4 8.09941 4.08406 8.49372 4.24739C8.88803 4.41072 9.24631 4.65011 9.5481 4.9519C9.84989 5.25369 10.0893 5.61197 10.2526 6.00628C10.4159 6.40059 10.5 6.8232 10.5 7.25C10.5 7.6768 10.4159 8.09941 10.2526 8.49372C10.0893 8.88803 9.84989 9.24631 9.5481 9.5481C9.24631 9.84989 8.88803 10.0893 8.49372 10.2526C8.09941 10.4159 7.6768 10.5 7.25 10.5H5.5C5.22386 10.5 5 10.2761 5 10C5 9.72386 5.22386 9.5 5.5 9.5H7.25C7.54547 9.5 7.83806 9.4418 8.11104 9.32873C8.38402 9.21566 8.63206 9.04992 8.84099 8.84099C9.04992 8.63206 9.21566 8.38402 9.32873 8.11104C9.4418 7.83806 9.5 7.54547 9.5 7.25C9.5 6.95453 9.4418 6.66194 9.32873 6.38896C9.21566 6.11598 9.04992 5.86794 8.84099 5.65901C8.63206 5.45008 8.38402 5.28434 8.11104 5.17127C7.83806 5.0582 7.54547 5 7.25 5H3.20711L4.85355 6.64645C5.04882 6.84171 5.04882 7.15829 4.85355 7.35355C4.65829 7.54882 4.34171 7.54882 4.14645 7.35355L1.64645 4.85355C1.45118 4.65829 1.45118 4.34171 1.64645 4.14645L4.14645 1.64645C4.34171 1.45118 4.65829 1.45118 4.85355 1.64645C5.04882 1.84171 5.04882 2.15829 4.85355 2.35355L3.20711 4H7.25Z" fill="black"/>
</svg>
