<svg width="12" height="12" viewBox="0 0 12 12" fill="none" xmlns="http://www.w3.org/2000/svg">
<path fill-rule="evenodd" clip-rule="evenodd" d="M4.5 0.5C3.94772 0.5 3.5 0.947715 3.5 1.5H3C2.60218 1.5 2.22064 1.65804 1.93934 1.93934C1.65804 2.22064 1.5 2.60218 1.5 3V10C1.5 10.3978 1.65804 10.7794 1.93934 11.0607C2.22064 11.342 2.60217 11.5 3 11.5H9C9.39783 11.5 9.77936 11.342 10.0607 11.0607C10.342 10.7794 10.5 10.3978 10.5 10V3C10.5 2.60217 10.342 2.22064 10.0607 1.93934C9.77936 1.65804 9.39782 1.5 9 1.5H8.5C8.5 0.947715 8.05228 0.5 7.5 0.5H4.5ZM7.5 1.5H4.5V2.5H7.5V1.5ZM7.5 3.5C8.05228 3.5 8.5 3.05228 8.5 2.5H9C9.13261 2.5 9.25979 2.55268 9.35355 2.64645C9.44732 2.74021 9.5 2.86739 9.5 3V10C9.5 10.1326 9.44732 10.2598 9.35355 10.3536C9.25978 10.4473 9.13261 10.5 9 10.5H3C2.86739 10.5 2.74021 10.4473 2.64645 10.3536C2.55268 10.2598 2.5 10.1326 2.5 10V3C2.5 2.86739 2.55268 2.74021 2.64645 2.64645C2.74021 2.55268 2.86739 2.5 3 2.5H3.5C3.5 3.05228 3.94772 3.5 4.5 3.5H7.5Z" fill="black"/>
<path d="M7.85355 5.85355C8.04882 5.65829 8.04882 5.34171 7.85355 5.14645C7.65829 4.95118 7.34171 4.95118 7.14645 5.14645L6 6.29289L4.85355 5.14645C4.65829 4.95118 4.34171 4.95118 4.14645 5.14645C3.95118 5.34171 3.95118 5.65829 4.14645 5.85355L5.29289 7L4.14645 8.14645C3.95118 8.34171 3.95118 8.65829 4.14645 8.85355C4.34171 9.04882 4.65829 9.04882 4.85355 8.85355L6 7.70711L7.14645 8.85355C7.34171 9.04882 7.65829 9.04882 7.85355 8.85355C8.04882 8.65829 8.04882 8.34171 7.85355 8.14645L6.70711 7L7.85355 5.85355Z" fill="black"/>
</svg>
