<svg width="12" height="12" viewBox="0 0 12 12" fill="none" xmlns="http://www.w3.org/2000/svg">
<path fill-rule="evenodd" clip-rule="evenodd" d="M9.9525 4.99745C9.88027 4.99745 9.80874 5.01167 9.742 5.03932C9.67535 5.06693 9.61477 5.10738 9.56373 5.15838L7.44644 7.28044L7.18842 8.30994L8.2194 8.04894L10.3414 5.93645C10.3924 5.88544 10.4331 5.82458 10.4607 5.758C10.4883 5.69126 10.5026 5.61973 10.5026 5.5475C10.5026 5.47527 10.4883 5.40374 10.4607 5.337C10.433 5.27027 10.3925 5.20963 10.3414 5.15855C10.2904 5.10748 10.2297 5.06696 10.163 5.03932C10.0963 5.01167 10.0247 4.99745 9.9525 4.99745ZM9.35932 4.11544C9.54738 4.03754 9.74895 3.99745 9.9525 3.99745C10.1561 3.99745 10.3576 4.03754 10.5457 4.11544C10.7337 4.19333 10.9046 4.30751 11.0486 4.45145C11.1925 4.59538 11.3067 4.76626 11.3846 4.95432C11.4625 5.14238 11.5026 5.34394 11.5026 5.5475C11.5026 5.75106 11.4625 5.95262 11.3846 6.14068C11.3067 6.32874 11.1925 6.49962 11.0486 6.64355L11.0478 6.64435L8.82775 8.85435C8.76416 8.91766 8.6847 8.96269 8.59771 8.98471L6.62271 9.48471C6.45214 9.52789 6.27143 9.47824 6.14687 9.35397C6.0223 9.22971 5.97223 9.04911 6.015 8.87844L6.51 6.90344C6.53196 6.81582 6.57725 6.73579 6.64105 6.67185L8.85605 4.45185C8.99998 4.30791 9.17126 4.19333 9.35932 4.11544Z" fill="black"/>
<path fill-rule="evenodd" clip-rule="evenodd" d="M3.5 9C3.5 8.72386 3.72386 8.5 4 8.5H4.5C4.77614 8.5 5 8.72386 5 9C5 9.27614 4.77614 9.5 4.5 9.5H4C3.72386 9.5 3.5 9.27614 3.5 9Z" fill="black"/>
<path fill-rule="evenodd" clip-rule="evenodd" d="M3.5 1.5C3.5 0.947715 3.94772 0.5 4.5 0.5H7.5C8.05228 0.5 8.5 0.947715 8.5 1.5H9C9.26304 1.50027 9.52191 1.56971 9.74964 1.70135C9.97738 1.83299 10.1665 2.0222 10.298 2.25C10.4361 2.48915 10.3541 2.79494 10.115 2.93301C9.87585 3.07108 9.57006 2.98915 9.43199 2.75C9.38815 2.67407 9.32511 2.611 9.2492 2.56712C9.17335 2.52327 9.08731 2.50013 8.9997 2.5H8.5C8.5 3.05228 8.05228 3.5 7.5 3.5H4.5C3.94772 3.5 3.5 3.05228 3.5 2.5H3C2.86739 2.5 2.74021 2.55268 2.64645 2.64645C2.55268 2.74021 2.5 2.86739 2.5 3V10C2.5 10.1326 2.55268 10.2598 2.64645 10.3536C2.74021 10.4473 2.86739 10.5 3 10.5H9C9.13261 10.5 9.25978 10.4473 9.35355 10.3536C9.44732 10.2598 9.5 10.1326 9.5 10V9.75C9.5 9.47386 9.72386 9.25 10 9.25C10.2761 9.25 10.5 9.47386 10.5 9.75V10C10.5 10.3978 10.342 10.7794 10.0607 11.0607C9.77936 11.342 9.39783 11.5 9 11.5H3C2.60217 11.5 2.22064 11.342 1.93934 11.0607C1.65804 10.7794 1.5 10.3978 1.5 10V3C1.5 2.60218 1.65804 2.22064 1.93934 1.93934C2.22064 1.65804 2.60218 1.5 3 1.5H3.5ZM4.5 1.5H7.5V2.5H4.5V1.5Z" fill="black"/>
</svg>
