<svg width="12" height="12" viewBox="0 0 12 12" fill="none" xmlns="http://www.w3.org/2000/svg">
<path fill-rule="evenodd" clip-rule="evenodd" d="M5.95251 6.49745C5.88028 6.49745 5.80875 6.51167 5.74201 6.53932C5.67537 6.56692 5.6148 6.60737 5.56377 6.65835L2.94644 9.2805L2.68843 10.3099L3.7193 10.049L6.34146 7.43645C6.39242 7.38542 6.4331 7.32462 6.46069 7.258C6.48834 7.19126 6.50256 7.11973 6.50256 7.0475C6.50256 6.97527 6.48834 6.90374 6.46069 6.837C6.43305 6.77027 6.39253 6.70963 6.34146 6.65855C6.29038 6.60748 6.22974 6.56696 6.16301 6.53932C6.09627 6.51167 6.02474 6.49745 5.95251 6.49745ZM5.35933 5.61544C5.54739 5.53754 5.74895 5.49745 5.95251 5.49745C6.15607 5.49745 6.35763 5.53754 6.54569 5.61544C6.73375 5.69333 6.90463 5.80751 7.04856 5.95145C7.1925 6.09538 7.30668 6.26626 7.38457 6.45432C7.46247 6.64238 7.50256 6.84394 7.50256 7.0475C7.50256 7.25106 7.46247 7.45262 7.38457 7.64068C7.30668 7.82874 7.1925 7.99962 7.04856 8.14355L4.32791 10.8542C4.26429 10.9176 4.18478 10.9627 4.09772 10.9847L2.12272 11.4847C1.95215 11.5279 1.77144 11.4782 1.64688 11.354C1.52232 11.2297 1.47224 11.0491 1.51501 10.8784L2.01001 8.90344C2.03198 8.81579 2.07729 8.73573 2.14113 8.67177L4.85613 5.95177C5.00007 5.80784 5.17127 5.69333 5.35933 5.61544Z" fill="black"/>
<path fill-rule="evenodd" clip-rule="evenodd" d="M3.50001 1.5C3.50001 0.947715 3.94773 0.5 4.50001 0.5H7.50001C8.0523 0.5 8.50001 0.947715 8.50001 1.5H9.00001C9.39784 1.5 9.77937 1.65804 10.0607 1.93934C10.342 2.22064 10.5 2.60217 10.5 3V10C10.5 10.3978 10.342 10.7794 10.0607 11.0607C9.77937 11.342 9.39784 11.5 9.00001 11.5H6.25001C5.97387 11.5 5.75001 11.2761 5.75001 11C5.75001 10.7239 5.97387 10.5 6.25001 10.5H9.00001C9.13262 10.5 9.2598 10.4473 9.35356 10.3536C9.44733 10.2598 9.50001 10.1326 9.50001 10V3C9.50001 2.86739 9.44733 2.74021 9.35356 2.64645C9.2598 2.55268 9.13262 2.5 9.00001 2.5H8.50001C8.50001 3.05228 8.0523 3.5 7.50001 3.5H4.50001C3.94773 3.5 3.50001 3.05228 3.50001 2.5H3.00001C2.8674 2.5 2.74023 2.55268 2.64646 2.64645C2.55269 2.74021 2.50001 2.86739 2.50001 3V6.75C2.50001 7.02614 2.27615 7.25 2.00001 7.25C1.72387 7.25 1.50001 7.02614 1.50001 6.75V3C1.50001 2.60218 1.65805 2.22064 1.93935 1.93934C2.22066 1.65804 2.60219 1.5 3.00001 1.5H3.50001ZM4.50001 1.5H7.50001V2.5H4.50001V1.5Z" fill="black"/>
</svg>
