<svg width="12" height="12" viewBox="0 0 12 12" fill="none" xmlns="http://www.w3.org/2000/svg">
<path fill-rule="evenodd" clip-rule="evenodd" d="M7.85355 5.64645C8.04882 5.84171 8.04882 6.15829 7.85355 6.35355L5.85355 8.35355C5.65829 8.54882 5.34171 8.54882 5.14645 8.35355L4.14645 7.35355C3.95118 7.15829 3.95118 6.84171 4.14645 6.64645C4.34171 6.45118 4.65829 6.45118 4.85355 6.64645L5.5 7.29289L7.14645 5.64645C7.34171 5.45118 7.65829 5.45118 7.85355 5.64645Z" fill="black"/>
<path fill-rule="evenodd" clip-rule="evenodd" d="M3.5 1.5C3.5 0.947715 3.94772 0.5 4.5 0.5H7.5C8.05228 0.5 8.5 0.947715 8.5 1.5H9C9.39782 1.5 9.77936 1.65804 10.0607 1.93934C10.342 2.22064 10.5 2.60217 10.5 3V10C10.5 10.3978 10.342 10.7794 10.0607 11.0607C9.77936 11.342 9.39783 11.5 9 11.5H3C2.60217 11.5 2.22064 11.342 1.93934 11.0607C1.65804 10.7794 1.5 10.3978 1.5 10V3C1.5 2.60218 1.65804 2.22064 1.93934 1.93934C2.22064 1.65804 2.60218 1.5 3 1.5H3.5ZM7.5 3.5C8.05228 3.5 8.5 3.05228 8.5 2.5H9C9.13261 2.5 9.25979 2.55268 9.35355 2.64645C9.44732 2.74021 9.5 2.86739 9.5 3V10C9.5 10.1326 9.44732 10.2598 9.35355 10.3536C9.25978 10.4473 9.13261 10.5 9 10.5H3C2.86739 10.5 2.74021 10.4473 2.64645 10.3536C2.55268 10.2598 2.5 10.1326 2.5 10V3C2.5 2.86739 2.55268 2.74021 2.64645 2.64645C2.74021 2.55268 2.86739 2.5 3 2.5H3.5C3.5 3.05228 3.94772 3.5 4.5 3.5H7.5ZM4.5 1.5H7.5V2.5H4.5V1.5Z" fill="black"/>
</svg>
