<svg width="12" height="12" viewBox="0 0 12 12" fill="none" xmlns="http://www.w3.org/2000/svg">
<path fill-rule="evenodd" clip-rule="evenodd" d="M4.5 0.5C3.94772 0.5 3.5 0.947715 3.5 1.5H3C2.60218 1.5 2.22064 1.65804 1.93934 1.93934C1.65804 2.22064 1.5 2.60218 1.5 3V10C1.5 10.3978 1.65804 10.7794 1.93934 11.0607C2.22064 11.342 2.60217 11.5 3 11.5H9C9.39783 11.5 9.77936 11.342 10.0607 11.0607C10.342 10.7794 10.5 10.3978 10.5 10V3C10.5 2.60217 10.342 2.22064 10.0607 1.93934C9.77936 1.65804 9.39782 1.5 9 1.5H8.5C8.5 0.947715 8.05228 0.5 7.5 0.5H4.5ZM7.5 1.5H4.5V2.5H7.5V1.5ZM7.5 3.5C8.05228 3.5 8.5 3.05228 8.5 2.5H9C9.13261 2.5 9.25979 2.55268 9.35355 2.64645C9.44732 2.74021 9.5 2.86739 9.5 3V10C9.5 10.1326 9.44732 10.2598 9.35355 10.3536C9.25978 10.4473 9.13261 10.5 9 10.5H3C2.86739 10.5 2.74021 10.4473 2.64645 10.3536C2.55268 10.2598 2.5 10.1326 2.5 10V3C2.5 2.86739 2.55268 2.74021 2.64645 2.64645C2.74021 2.55268 2.86739 2.5 3 2.5H3.5C3.5 3.05228 3.94772 3.5 4.5 3.5H7.5ZM4 5.5C4 5.22386 4.22386 5 4.5 5H7.5C7.77614 5 8 5.22386 8 5.5V6C8 6.27614 7.77614 6.5 7.5 6.5C7.22386 6.5 7 6.27614 7 6H6.5V8C6.77614 8 7 8.22386 7 8.5C7 8.77614 6.77614 9 6.5 9H5.5C5.22386 9 5 8.77614 5 8.5C5 8.22386 5.22386 8 5.5 8V6H5C5 6.27614 4.77614 6.5 4.5 6.5C4.22386 6.5 4 6.27614 4 6V5.5Z" fill="black"/>
</svg>
