<svg width="12" height="12" viewBox="0 0 12 12" fill="none" xmlns="http://www.w3.org/2000/svg">
<path fill-rule="evenodd" clip-rule="evenodd" d="M3.5 1.5C3.5 0.947715 3.94772 0.5 4.5 0.5H7.5C8.05228 0.5 8.5 0.947715 8.5 1.5H9C9.39782 1.5 9.77936 1.65804 10.0607 1.93934C10.342 2.22064 10.5 2.60217 10.5 3V10C10.5 10.3978 10.342 10.7794 10.0607 11.0607C9.77936 11.342 9.39783 11.5 9 11.5H3C2.60217 11.5 2.22064 11.342 1.93934 11.0607C1.65804 10.7794 1.5 10.3978 1.5 10V3C1.5 2.60218 1.65804 2.22064 1.93934 1.93934C2.22064 1.65804 2.60218 1.5 3 1.5H3.5ZM7.5 3.5C8.05228 3.5 8.5 3.05228 8.5 2.5H9C9.13261 2.5 9.25979 2.55268 9.35355 2.64645C9.44732 2.74021 9.5 2.86739 9.5 3V10C9.5 10.1326 9.44732 10.2598 9.35355 10.3536C9.25978 10.4473 9.13261 10.5 9 10.5H3C2.86739 10.5 2.74021 10.4473 2.64645 10.3536C2.55268 10.2598 2.5 10.1326 2.5 10V3C2.5 2.86739 2.55268 2.74021 2.64645 2.64645C2.74021 2.55268 2.86739 2.5 3 2.5H3.5C3.5 3.05228 3.94772 3.5 4.5 3.5H7.5ZM4.5 1.5H7.5V2.5H4.5V1.5Z" fill="black"/>
<path fill-rule="evenodd" clip-rule="evenodd" d="M5.5 5.5C5.5 5.22386 5.72386 5 6 5H8C8.27614 5 8.5 5.22386 8.5 5.5C8.5 5.77614 8.27614 6 8 6H6C5.72386 6 5.5 5.77614 5.5 5.5Z" fill="black"/>
<path fill-rule="evenodd" clip-rule="evenodd" d="M5.5 8C5.5 7.72386 5.72386 7.5 6 7.5H8C8.27614 7.5 8.5 7.72386 8.5 8C8.5 8.27614 8.27614 8.5 8 8.5H6C5.72386 8.5 5.5 8.27614 5.5 8Z" fill="black"/>
<path fill-rule="evenodd" clip-rule="evenodd" d="M3.5 5.5C3.5 5.22386 3.72386 5 4 5H4.005C4.28114 5 4.505 5.22386 4.505 5.5C4.505 5.77614 4.28114 6 4.005 6H4C3.72386 6 3.5 5.77614 3.5 5.5Z" fill="black"/>
<path fill-rule="evenodd" clip-rule="evenodd" d="M3.5 8C3.5 7.72386 3.72386 7.5 4 7.5H4.005C4.28114 7.5 4.505 7.72386 4.505 8C4.505 8.27614 4.28114 8.5 4.005 8.5H4C3.72386 8.5 3.5 8.27614 3.5 8Z" fill="black"/>
</svg>
