<svg width="12" height="12" viewBox="0 0 12 12" fill="none" xmlns="http://www.w3.org/2000/svg">
<g clip-path="url(#clip0_10011_7262)">
<path fill-rule="evenodd" clip-rule="evenodd" d="M4.50516 2.4633C4.54475 2.19002 4.7984 2.00057 5.07168 2.04017C5.82747 2.14967 6.53618 2.47303 7.11422 2.97211C7.59651 3.38851 7.97104 3.91274 8.20883 4.5H8.74989C9.21794 4.49993 9.67836 4.61931 10.0874 4.84686C10.4964 5.07442 10.8406 5.40263 11.0873 5.8004C11.3341 6.19816 11.4752 6.65233 11.4973 7.11989C11.5195 7.58744 11.4219 8.05291 11.2139 8.47222C11.0912 8.71959 10.7911 8.82063 10.5438 8.6979C10.2964 8.57517 10.1954 8.27515 10.3181 8.02778C10.4505 7.76095 10.5126 7.46474 10.4985 7.1672C10.4844 6.86966 10.3946 6.58065 10.2375 6.32753C10.0805 6.0744 9.86151 5.86554 9.60121 5.72073C9.34091 5.57592 9.04796 5.49994 8.75009 5.5H7.85499C7.63396 5.5 7.43916 5.35488 7.3759 5.14309C7.21193 4.5941 6.89438 4.10346 6.46071 3.72903C6.02703 3.35459 5.49532 3.11199 4.92829 3.02983C4.655 2.99024 4.46556 2.73659 4.50516 2.4633Z" fill="black"/>
<path fill-rule="evenodd" clip-rule="evenodd" d="M0.646435 0.646447C0.841697 0.451184 1.15828 0.451184 1.35354 0.646447L11.3535 10.6464C11.5488 10.8417 11.5488 11.1583 11.3535 11.3536C11.1583 11.5488 10.8417 11.5488 10.6464 11.3536L9.24776 9.95487C9.08364 9.98498 8.91691 10.0001 8.74963 10H4.5002C3.6037 10.0003 2.73286 9.69949 2.02781 9.14574C1.32271 8.59194 0.82411 7.81732 0.612027 6.94619C0.399944 6.07505 0.48668 5.15793 0.858312 4.342C1.13693 3.73028 1.56357 3.20204 2.09529 2.80241L0.646435 1.35355C0.451173 1.15829 0.451173 0.841709 0.646435 0.646447ZM1.58365 6.70964C1.42459 6.05629 1.48964 5.36844 1.76836 4.7565C1.99718 4.25411 2.35912 3.8268 2.81189 3.51901L8.29288 9H4.49978C3.82734 9.00028 3.17431 8.77465 2.64549 8.3593C2.11666 7.94396 1.74271 7.36299 1.58365 6.70964Z" fill="black"/>
</g>
<defs>
<clipPath id="clip0_10011_7262">
<rect width="12" height="12" fill="white"/>
</clipPath>
</defs>
</svg>
