<svg width="12" height="12" viewBox="0 0 12 12" fill="none" xmlns="http://www.w3.org/2000/svg">
<g clip-path="url(#clip0_10011_7285)">
<path fill-rule="evenodd" clip-rule="evenodd" d="M4 4.5C4 4.22386 4.22386 4 4.5 4H7.5C7.77614 4 8 4.22386 8 4.5V7.5C8 7.77614 7.77614 8 7.5 8H4.5C4.22386 8 4 7.77614 4 7.5V4.5ZM5 5V7H7V5H5Z" fill="black"/>
<path fill-rule="evenodd" clip-rule="evenodd" d="M1.5 3C1.5 2.17157 2.17157 1.5 3 1.5H4V1C4 0.723858 4.22386 0.5 4.5 0.5C4.77614 0.5 5 0.723858 5 1V1.5H7V1C7 0.723858 7.22386 0.5 7.5 0.5C7.77614 0.5 8 0.723858 8 1V1.5H9C9.82843 1.5 10.5 2.17157 10.5 3V4H11C11.2761 4 11.5 4.22386 11.5 4.5C11.5 4.77614 11.2761 5 11 5H10.5V6.5H11C11.2761 6.5 11.5 6.72386 11.5 7C11.5 7.27614 11.2761 7.5 11 7.5H10.5V9C10.5 9.82843 9.82843 10.5 9 10.5H8V11C8 11.2761 7.77614 11.5 7.5 11.5C7.22386 11.5 7 11.2761 7 11V10.5H5V11C5 11.2761 4.77614 11.5 4.5 11.5C4.22386 11.5 4 11.2761 4 11V10.5H3C2.17157 10.5 1.5 9.82843 1.5 9V7.5H1C0.723858 7.5 0.5 7.27614 0.5 7C0.5 6.72386 0.723858 6.5 1 6.5H1.5V5H1C0.723858 5 0.5 4.77614 0.5 4.5C0.5 4.22386 0.723858 4 1 4H1.5V3ZM2.5 3C2.5 2.72386 2.72386 2.5 3 2.5H9C9.27614 2.5 9.5 2.72386 9.5 3V9C9.5 9.27614 9.27614 9.5 9 9.5H3C2.72386 9.5 2.5 9.27614 2.5 9V3Z" fill="black"/>
<path fill-rule="evenodd" clip-rule="evenodd" d="M4.5 4C4.22386 4 4 4.22386 4 4.5V7.5C4 7.77614 4.22386 8 4.5 8H7.5C7.77614 8 8 7.77614 8 7.5V4.5C8 4.22386 7.77614 4 7.5 4H4.5ZM5 7V5H7V7H5Z" fill="black"/>
</g>
<defs>
<clipPath id="clip0_10011_7285">
<rect width="12" height="12" fill="white"/>
</clipPath>
</defs>
</svg>
