<svg width="12" height="12" viewBox="0 0 12 12" fill="none" xmlns="http://www.w3.org/2000/svg">
<path fill-rule="evenodd" clip-rule="evenodd" d="M1.93934 0.93934C2.22064 0.658035 2.60218 0.5 3 0.5H7.25C7.38261 0.5 7.50979 0.552678 7.60355 0.646447L10.3536 3.39645C10.4473 3.49022 10.5 3.61739 10.5 3.75V4.5C10.5 4.77614 10.2761 5 10 5C9.72386 5 9.5 4.77614 9.5 4.5H7C6.72386 4.5 6.5 4.27614 6.5 4V1.5H3C2.86739 1.5 2.74021 1.55268 2.64645 1.64645C2.55268 1.74021 2.5 1.86739 2.5 2V4.5C2.5 4.77614 2.27614 5 2 5C1.72386 5 1.5 4.77614 1.5 4.5V2C1.5 1.60218 1.65804 1.22064 1.93934 0.93934ZM7.5 1.95711V3.5H9.04289L7.5 1.95711ZM2 9.5C2.27614 9.5 2.5 9.72386 2.5 10C2.5 10.1326 2.55268 10.2598 2.64645 10.3536C2.74021 10.4473 2.86739 10.5 3 10.5H9C9.13261 10.5 9.25979 10.4473 9.35355 10.3536C9.44732 10.2598 9.5 10.1326 9.5 10C9.5 9.72386 9.72386 9.5 10 9.5C10.2761 9.5 10.5 9.72386 10.5 10C10.5 10.3978 10.342 10.7794 10.0607 11.0607C9.77936 11.342 9.39783 11.5 9 11.5H3C2.60218 11.5 2.22064 11.342 1.93934 11.0607C1.65804 10.7794 1.5 10.3978 1.5 10C1.5 9.72386 1.72386 9.5 2 9.5Z" fill="black"/>
<path d="M3.26021 7.29675H2.8354V6.3585H3.26021C3.42833 6.3585 3.55894 6.39874 3.65205 6.47921C3.74645 6.55969 3.79365 6.67491 3.79365 6.82488V6.82854C3.79365 6.97851 3.74645 7.09435 3.65205 7.17604C3.55894 7.25651 3.42833 7.29675 3.26021 7.29675Z" fill="black"/>
<path d="M5.5123 8.10514H5.93517C6.10846 8.10514 6.25524 8.07161 6.37551 8.00455C6.49577 7.93749 6.58694 7.83934 6.64901 7.71009C6.71238 7.57963 6.74406 7.42112 6.74406 7.23457V7.23091C6.74406 7.04923 6.71173 6.89499 6.64708 6.76819C6.58371 6.64016 6.49125 6.54323 6.36969 6.47738C6.24942 6.41032 6.10458 6.37679 5.93517 6.37679H5.5123V8.10514Z" fill="black"/>
<path fill-rule="evenodd" clip-rule="evenodd" d="M1.85205 5.24097C1.29977 5.24097 0.852051 5.68868 0.852051 6.24097V8.24097C0.852051 8.79325 1.29977 9.24097 1.85205 9.24097H10.1289C10.6812 9.24097 11.1289 8.79325 11.1289 8.24097V6.24097C11.1289 5.68868 10.6812 5.24097 10.1289 5.24097H1.85205ZM2.8354 8.56055V7.72838H3.40376C3.60032 7.72838 3.77231 7.69119 3.91974 7.61681C4.06716 7.54244 4.18161 7.43758 4.26308 7.30224C4.34584 7.1669 4.38723 7.00839 4.38723 6.82671V6.82305C4.38723 6.6426 4.34584 6.4847 4.26308 6.34936C4.18161 6.21402 4.06716 6.10916 3.91974 6.03478C3.77231 5.95918 3.60032 5.92139 3.40376 5.92139H2.24958V8.56055H2.8354ZM4.92649 8.56055V5.92139H6.02828C6.30632 5.92139 6.54297 5.9726 6.73825 6.07502C6.93352 6.17622 7.08288 6.32375 7.18634 6.51762C7.28979 6.71149 7.34152 6.9462 7.34152 7.22176V7.22542C7.34152 7.50952 7.28979 7.75094 7.18634 7.94968C7.08417 8.14843 6.93546 8.30023 6.74018 8.40509C6.54491 8.50873 6.30761 8.56055 6.02828 8.56055H4.92649ZM7.89824 5.92139V8.56055H8.48405V7.52171H9.62271V7.08459H8.48405V6.37679H9.73133V5.92139H7.89824Z" fill="black"/>
<path fill-rule="evenodd" clip-rule="evenodd" d="M2.8354 7.29675H3.26021C3.31156 7.29675 3.35941 7.293 3.40376 7.28549C3.50461 7.26842 3.58738 7.23193 3.65205 7.17604C3.66283 7.16671 3.67301 7.15692 3.68256 7.1467C3.69251 7.13605 3.70179 7.12492 3.7104 7.11331C3.73464 7.08062 3.75358 7.0441 3.76724 7.00376L3.76855 6.99982C3.78528 6.94878 3.79365 6.89169 3.79365 6.82854V6.82488L3.79365 6.82305C3.79349 6.7599 3.78492 6.70292 3.76796 6.65214L3.76662 6.64821C3.75302 6.60876 3.73428 6.57308 3.7104 6.54119C3.70148 6.52928 3.69184 6.51789 3.68148 6.50703L3.67894 6.50438C3.67044 6.49564 3.66148 6.48726 3.65205 6.47921C3.58738 6.42332 3.50461 6.38684 3.40376 6.36976C3.35941 6.36226 3.31156 6.3585 3.26021 6.3585H2.8354V7.29675ZM2.24958 8.56055H2.8354V7.72838H3.40376C3.60032 7.72838 3.77231 7.69119 3.91974 7.61681C3.94618 7.60348 3.97156 7.58916 3.99587 7.57386C4.01497 7.56183 4.0337 7.54902 4.05149 7.53579C4.13722 7.47199 4.20776 7.39414 4.26308 7.30224C4.34557 7.16735 4.38695 7.00945 4.38723 6.82854L4.38723 6.82671V6.82305C4.38723 6.6426 4.34584 6.4847 4.26308 6.34936C4.2078 6.25753 4.13734 6.17973 4.0517 6.11597C4.03446 6.10314 4.01639 6.09072 3.99792 6.07903L3.99484 6.07709C3.97084 6.06203 3.9458 6.04793 3.91974 6.03478C3.77231 5.95918 3.60032 5.92139 3.40376 5.92139H2.24958V8.56055ZM1.85205 9.24097C1.79411 9.24097 1.73733 9.23604 1.68209 9.22658C1.21076 9.14588 0.852051 8.73532 0.852051 8.24097V6.24097C0.852051 5.74662 1.21076 5.33605 1.68209 5.25535C1.73733 5.24589 1.79411 5.24097 1.85205 5.24097H10.1289C10.1868 5.24097 10.2436 5.24589 10.2988 5.25535C10.7702 5.33605 11.1289 5.74662 11.1289 6.24097V8.24097C11.1289 8.79325 10.6812 9.24097 10.1289 9.24097H1.85205ZM9.62271 7.08459H8.48405V6.37679H9.73133V5.92139H7.89824V8.56055H8.48405V7.52171H9.62271V7.08459ZM6.81067 6.11597C6.78727 6.10156 6.76313 6.08792 6.73825 6.07502C6.70141 6.0557 6.6631 6.0382 6.62332 6.02252C6.62133 6.02174 6.61933 6.02096 6.61733 6.02018C6.44759 5.95432 6.25124 5.92139 6.02828 5.92139H4.92649V8.56055H6.02828C6.2561 8.56055 6.45597 8.52608 6.62787 8.45714C6.66674 8.44155 6.70418 8.4242 6.74018 8.40509C6.76325 8.3927 6.78566 8.37966 6.80743 8.36597C6.88834 8.31506 6.96028 8.2551 7.02324 8.18609C7.0826 8.12101 7.13399 8.04789 7.1774 7.96673L7.17862 7.96444C7.18122 7.95955 7.18379 7.95463 7.18634 7.94968C7.28868 7.75307 7.3404 7.5147 7.3415 7.23457L7.34151 7.23091L7.34152 7.22542V7.22176C7.34152 6.9462 7.28979 6.71149 7.18634 6.51762C7.18403 6.5133 7.1817 6.50901 7.17935 6.50473C7.17821 6.50266 7.17707 6.50059 7.17592 6.49853C7.13261 6.42094 7.08172 6.35102 7.02324 6.28876C6.96098 6.22248 6.89012 6.16488 6.81067 6.11597ZM6.64708 6.76819C6.60608 6.68536 6.5529 6.61554 6.48755 6.55874L6.48547 6.55695C6.45532 6.53097 6.4226 6.50774 6.3873 6.48726C6.3815 6.48389 6.37563 6.4806 6.36969 6.47738C6.27207 6.42295 6.15827 6.39061 6.02828 6.38036C5.99812 6.37798 5.96708 6.37679 5.93517 6.37679H5.5123V8.10514H5.93517C5.96711 8.10514 5.99815 8.104 6.02828 8.10172C6.16166 8.09164 6.2774 8.05925 6.37551 8.00455C6.37947 8.00234 6.3834 8.0001 6.3873 7.99782C6.42217 7.97746 6.45451 7.95439 6.48433 7.92863L6.48637 7.92687C6.55348 7.86839 6.60769 7.79613 6.64901 7.71009C6.65373 7.70038 6.65828 7.69051 6.66264 7.68048L6.66385 7.6777C6.71733 7.55366 6.74406 7.40595 6.74406 7.23457V7.23091L6.74405 7.22542L6.74404 7.22176C6.74305 7.05788 6.71549 6.91655 6.66135 6.79777C6.65678 6.78775 6.65202 6.77789 6.64708 6.76819Z" fill="black"/>
</svg>
