<svg width="12" height="12" viewBox="0 0 12 12" fill="none" xmlns="http://www.w3.org/2000/svg">
<path fill-rule="evenodd" clip-rule="evenodd" d="M1.93934 0.93934C2.22064 0.658035 2.60218 0.5 3 0.5H7.25C7.38261 0.5 7.50979 0.552678 7.60355 0.646447L10.3536 3.39645C10.4473 3.49021 10.5 3.61739 10.5 3.75V10C10.5 10.3978 10.342 10.7794 10.0607 11.0607C9.77936 11.342 9.39783 11.5 9 11.5H3C2.60218 11.5 2.22064 11.342 1.93934 11.0607C1.65804 10.7794 1.5 10.3978 1.5 10V2C1.5 1.60218 1.65804 1.22064 1.93934 0.93934ZM7.5 3.5V1.95711L9.04289 3.5H7.5ZM3 1.5C2.86739 1.5 2.74021 1.55268 2.64645 1.64645C2.55268 1.74021 2.5 1.86739 2.5 2V10C2.5 10.1326 2.55268 10.2598 2.64645 10.3536C2.74021 10.4473 2.86739 10.5 3 10.5H9C9.13261 10.5 9.25978 10.4473 9.35355 10.3536C9.44732 10.2598 9.5 10.1326 9.5 10V4.5H7C6.72386 4.5 6.5 4.27614 6.5 4V1.5H3Z" fill="black"/>
</svg>
