<svg width="12" height="12" viewBox="0 0 12 12" fill="none" xmlns="http://www.w3.org/2000/svg">
<path fill-rule="evenodd" clip-rule="evenodd" d="M5.79289 1.29289C5.98043 1.10536 6.23478 1 6.5 1H7.5C7.65525 1 7.80836 1.03615 7.94721 1.10557C8.08607 1.175 8.20685 1.2758 8.3 1.4L8.75 2L10 2C10.2652 2 10.5196 2.10536 10.7071 2.29289C10.8946 2.48043 11 2.73478 11 3V4.5C11 4.76522 10.8946 5.01957 10.7071 5.20711C10.5196 5.39464 10.2652 5.5 10 5.5H6.5C6.23478 5.5 5.98043 5.39464 5.79289 5.20711C5.60536 5.01957 5.5 4.76522 5.5 4.5V2C5.5 1.73478 5.60536 1.48043 5.79289 1.29289ZM7.5 2H6.5V4.5H10V3H8.75C8.59476 3 8.44164 2.96386 8.30279 2.89443C8.16393 2.825 8.04315 2.72419 7.95 2.6L7.5 2Z" fill="black"/>
<path fill-rule="evenodd" clip-rule="evenodd" d="M7.43856 6.5C7.62422 6.49909 7.80649 6.54988 7.96493 6.64671C8.12396 6.74389 8.25266 6.88358 8.33652 7.05001L8.33922 7.05538L8.55656 7.50001L8.56 7.49999L10 7.5C10.2652 7.5 10.5196 7.60536 10.7071 7.79289C10.8946 7.98043 11 8.23478 11 8.5V10C11 10.2652 10.8946 10.5196 10.7071 10.7071C10.5196 10.8946 10.2652 11 10 11H6.5C6.23478 11 5.98043 10.8946 5.79289 10.7071C5.60536 10.5196 5.5 10.2652 5.5 10V7.5C5.5 7.23478 5.60536 6.98043 5.79289 6.79289C5.98043 6.60536 6.23478 6.5 6.5 6.5H7.43856ZM7.44 7.5H6.5V10H10V8.5H8.56143M7.44344 7.49999L7.44 7.5Z" fill="black"/>
<path d="M2 1.5C2 1.22386 1.77614 1 1.5 1C1.22386 1 1 1.22386 1 1.5V8C1 8.82614 1.67386 9.5 2.5 9.5H4C4.27614 9.5 4.5 9.27614 4.5 9C4.5 8.72386 4.27614 8.5 4 8.5H2.5C2.22614 8.5 2 8.27386 2 8V3.91409C2.15651 3.9697 2.32483 4 2.5 4H4C4.27614 4 4.5 3.77614 4.5 3.5C4.5 3.22386 4.27614 3 4 3H2.5C2.22614 3 2 2.77386 2 2.5V1.5Z" fill="black"/>
</svg>
