<svg width="12" height="12" viewBox="0 0 12 12" fill="none" xmlns="http://www.w3.org/2000/svg">
<path fill-rule="evenodd" clip-rule="evenodd" d="M2.5 8C2.5 7.72386 2.72386 7.5 3 7.5H3.005C3.28114 7.5 3.505 7.72386 3.505 8C3.505 8.27614 3.28114 8.5 3.005 8.5H3C2.72386 8.5 2.5 8.27614 2.5 8Z" fill="black"/>
<path fill-rule="evenodd" clip-rule="evenodd" d="M4.5 8C4.5 7.72386 4.72386 7.5 5 7.5H5.005C5.28114 7.5 5.505 7.72386 5.505 8C5.505 8.27614 5.28114 8.5 5.005 8.5H5C4.72386 8.5 4.5 8.27614 4.5 8Z" fill="black"/>
<path fill-rule="evenodd" clip-rule="evenodd" d="M3.62 1.5L8.38 1.5C8.65906 1.50015 8.93282 1.57814 9.16998 1.72521C9.40694 1.87215 9.59824 2.08222 9.72244 2.33184L11.4471 5.77613C11.4819 5.84563 11.5 5.92228 11.5 6V9C11.5 9.39783 11.342 9.77936 11.0607 10.0607C10.7794 10.342 10.3978 10.5 10 10.5H2C1.60217 10.5 1.22064 10.342 0.93934 10.0607C0.658035 9.77936 0.5 9.39782 0.5 9V6C0.5 5.92228 0.518118 5.84563 0.552916 5.77613L2.27723 2.3325C2.40143 2.08291 2.59308 1.87213 2.83002 1.72521C3.06718 1.57814 3.34094 1.50015 3.62 1.5ZM1.64645 9.35355C1.55268 9.25979 1.5 9.13261 1.5 9V6.5H10.5V9C10.5 9.13261 10.4473 9.25978 10.3536 9.35355C10.2598 9.44732 10.1326 9.5 10 9.5H2C1.86739 9.5 1.74021 9.44732 1.64645 9.35355ZM8.37983 2.5C8.47282 2.50007 8.56395 2.52606 8.64297 2.57507L8.82792 2.77887L10.1905 5.5H1.80954L3.17208 2.77887C3.21732 2.71122 3.31765 2.57575 3.35703 2.57507C3.43608 2.52605 3.52724 2.50005 3.62027 2.5H8.37983Z" fill="black"/>
</svg>
