<svg width="12" height="12" viewBox="0 0 12 12" fill="none" xmlns="http://www.w3.org/2000/svg">
<path fill-rule="evenodd" clip-rule="evenodd" d="M0.93934 2.43934C1.22064 2.15804 1.60218 2 2 2H4C4.27614 2 4.5 2.22386 4.5 2.5C4.5 2.77614 4.27614 3 4 3H2C1.86739 3 1.74021 3.05268 1.64645 3.14645C1.55268 3.24021 1.5 3.36739 1.5 3.5V8.5C1.5 8.63261 1.55268 8.75979 1.64645 8.85355C1.74021 8.94732 1.86739 9 2 9H10C10.1326 9 10.2598 8.94732 10.3536 8.85355C10.4473 8.75978 10.5 8.63261 10.5 8.5V3.5C10.5 3.36739 10.4473 3.24021 10.3536 3.14645C10.2598 3.05268 10.1326 3 10 3H8C7.72386 3 7.5 2.77614 7.5 2.5C7.5 2.22386 7.72386 2 8 2H10C10.3978 2 10.7794 2.15804 11.0607 2.43934C11.342 2.72064 11.5 3.10217 11.5 3.5V8.5C11.5 8.89783 11.342 9.27936 11.0607 9.56066C10.7794 9.84196 10.3978 10 10 10H2C1.60217 10 1.22064 9.84196 0.93934 9.56066C0.658035 9.27936 0.5 8.89782 0.5 8.5V3.5C0.5 3.10218 0.658035 2.72064 0.93934 2.43934Z" fill="black"/>
<path d="M6 1C6.27614 1 6.5 1.22386 6.5 1.5V6.29289L7.64645 5.14645C7.84171 4.95118 8.15829 4.95118 8.35355 5.14645C8.54882 5.34171 8.54882 5.65829 8.35355 5.85355L6.35355 7.85355C6.15829 8.04882 5.84171 8.04882 5.64645 7.85355L3.64645 5.85355C3.45118 5.65829 3.45118 5.34171 3.64645 5.14645C3.84171 4.95118 4.15829 4.95118 4.35355 5.14645L5.5 6.29289V1.5C5.5 1.22386 5.72386 1 6 1Z" fill="black"/>
</svg>
