<svg width="12" height="12" viewBox="0 0 12 12" fill="none" xmlns="http://www.w3.org/2000/svg">
<g clip-path="url(#clip0_10011_7306)">
<path fill-rule="evenodd" clip-rule="evenodd" d="M3 1C3 0.723858 3.22386 0.5 3.5 0.5H4C4.27614 0.5 4.5 0.723858 4.5 1C4.5 1.27614 4.27614 1.5 4 1.5H3.5C3.22386 1.5 3 1.27614 3 1Z" fill="black"/>
<path d="M2.14645 3.64645C2.34171 3.45118 2.65829 3.45118 2.85355 3.64645L3.75 4.54289L4.61144 3.68146L5.06574 3H1C0.723858 3 0.5 2.77614 0.5 2.5C0.5 2.22386 0.723858 2 1 2H7C7.27614 2 7.5 2.22386 7.5 2.5C7.5 2.77614 7.27614 3 7 3H6.26759L5.41603 4.27735C5.39776 4.30475 5.37684 4.33027 5.35355 4.35355L4.45711 5.25L5.85355 6.64645C6.04882 6.84171 6.04882 7.15829 5.85355 7.35355C5.65829 7.54882 5.34171 7.54882 5.14645 7.35355L3.75 5.95711L2.35355 7.35355C2.15829 7.54882 1.84171 7.54882 1.64645 7.35355C1.45118 7.15829 1.45118 6.84171 1.64645 6.64645L3.04289 5.25L2.14645 4.35355C1.95118 4.15829 1.95118 3.84171 2.14645 3.64645Z" fill="black"/>
<path fill-rule="evenodd" clip-rule="evenodd" d="M8.5 5.5C8.68939 5.5 8.86252 5.607 8.94721 5.77639L11.4472 10.7764C11.5707 11.0234 11.4706 11.3237 11.2236 11.4472C10.9766 11.5707 10.6763 11.4706 10.5528 11.2236L9.69098 9.5H7.30902L6.44721 11.2236C6.32372 11.4706 6.02338 11.5707 5.77639 11.4472C5.5294 11.3237 5.42929 11.0234 5.55279 10.7764L8.05279 5.77639C8.13748 5.607 8.31061 5.5 8.5 5.5ZM7.80902 8.5L8.5 7.11803L9.19098 8.5H7.80902Z" fill="black"/>
</g>
<defs>
<clipPath id="clip0_10011_7306">
<rect width="12" height="12" fill="white"/>
</clipPath>
</defs>
</svg>
