<svg width="12" height="12" viewBox="0 0 12 12" fill="none" xmlns="http://www.w3.org/2000/svg">
<g clip-path="url(#clip0_10011_7175)">
<path fill-rule="evenodd" clip-rule="evenodd" d="M6 0.5C2.96243 0.5 0.5 2.96243 0.5 6C0.5 9.03757 2.96243 11.5 6 11.5C9.03757 11.5 11.5 9.03757 11.5 6C11.5 2.96243 9.03757 0.5 6 0.5ZM6 10.5C4.93749 10.5 3.96099 10.1318 3.19116 9.51595L4.6213 8.0858C5.01652 8.34756 5.49046 8.5 6 8.5C6.50954 8.5 6.98348 8.34756 7.3787 8.0858L8.80884 9.51595C8.03901 10.1318 7.06251 10.5 6 10.5ZM10.5 6C10.5 4.93749 10.1318 3.96099 9.51595 3.19116L8.0858 4.6213C8.34756 5.01652 8.5 5.49046 8.5 6C8.5 6.50954 8.34756 6.98348 8.0858 7.3787L9.51595 8.80884C10.1318 8.03901 10.5 7.06251 10.5 6ZM6 3.5C5.49046 3.5 5.01652 3.65244 4.6213 3.9142L3.19116 2.48405C3.96099 1.86824 4.93749 1.5 6 1.5C7.06251 1.5 8.03901 1.86824 8.80884 2.48405L7.3787 3.9142C6.98348 3.65244 6.50954 3.5 6 3.5ZM2.48405 3.19116C1.86824 3.96099 1.5 4.93749 1.5 6C1.5 7.06251 1.86824 8.03901 2.48405 8.80884L3.9142 7.3787C3.65244 6.98348 3.5 6.50954 3.5 6C3.5 5.49046 3.65244 5.01652 3.9142 4.6213L2.48405 3.19116ZM4.5 6C4.5 5.17157 5.17157 4.5 6 4.5C6.82843 4.5 7.5 5.17157 7.5 6C7.5 6.82843 6.82843 7.5 6 7.5C5.17157 7.5 4.5 6.82843 4.5 6Z" fill="black"/>
</g>
<defs>
<clipPath id="clip0_10011_7175">
<rect width="12" height="12" fill="white"/>
</clipPath>
</defs>
</svg>
