<svg width="12" height="12" viewBox="0 0 12 12" fill="none" xmlns="http://www.w3.org/2000/svg">
<path fill-rule="evenodd" clip-rule="evenodd" d="M2.5 2C2.36739 2 2.24021 2.05268 2.14645 2.14645C2.05268 2.24021 2 2.36739 2 2.5V9.5C2 9.63261 2.05268 9.75978 2.14645 9.85355C2.24021 9.94732 2.36739 10 2.5 10H3V6.5C3 6.22386 3.22386 6 3.5 6H8.5C8.77614 6 9 6.22386 9 6.5V10H9.5C9.63261 10 9.75978 9.94732 9.85355 9.85355C9.94732 9.75978 10 9.63261 10 9.5V4.20711L7.79289 2H4V3.5H7.5C7.77614 3.5 8 3.72386 8 4C8 4.27614 7.77614 4.5 7.5 4.5H3.5C3.22386 4.5 3 4.27614 3 4V2H2.5ZM2.5 1C2.10218 1 1.72064 1.15804 1.43934 1.43934C1.15804 1.72064 1 2.10218 1 2.5V9.5C1 9.89783 1.15804 10.2794 1.43934 10.5607C1.72064 10.842 2.10218 11 2.5 11H9.5C9.89783 11 10.2794 10.842 10.5607 10.5607C10.842 10.2794 11 9.89783 11 9.5V4C11 3.86739 10.9473 3.74021 10.8536 3.64645L8.35355 1.14645C8.25979 1.05268 8.13261 1 8 1H2.5ZM8 10V7H4V10H8Z" fill="black"/>
</svg>
