<svg width="12" height="12" viewBox="0 0 12 12" fill="none" xmlns="http://www.w3.org/2000/svg">
<path fill-rule="evenodd" clip-rule="evenodd" d="M2.5 2C2.36739 2 2.24021 2.05268 2.14645 2.14645C2.05268 2.24021 2 2.36739 2 2.5V3.5C2 3.77614 1.77614 4 1.5 4C1.22386 4 1 3.77614 1 3.5V2.5C1 2.10218 1.15804 1.72064 1.43934 1.43934C1.72064 1.15804 2.10218 1 2.5 1H3.5C3.77614 1 4 1.22386 4 1.5C4 1.77614 3.77614 2 3.5 2H2.5ZM8 1.5C8 1.22386 8.22386 1 8.5 1H9.5C9.89783 1 10.2794 1.15804 10.5607 1.43934C10.842 1.72064 11 2.10218 11 2.5V3.5C11 3.77614 10.7761 4 10.5 4C10.2239 4 10 3.77614 10 3.5V2.5C10 2.36739 9.94732 2.24021 9.85355 2.14645C9.75979 2.05268 9.63261 2 9.5 2H8.5C8.22386 2 8 1.77614 8 1.5ZM3.57076 3.06709C3.74513 2.89394 4.004 2.75 4.30385 2.75H6.69231C6.82431 2.75 6.95096 2.8022 7.04463 2.89522L8.60232 4.44209C8.69684 4.53596 8.75 4.66366 8.75 4.79688V8.2C8.75 8.50135 8.6034 8.75997 8.42924 8.93291C8.25488 9.10607 7.996 9.25 7.69615 9.25H4.30385C4.004 9.25 3.74513 9.10607 3.57076 8.93291C3.39661 8.75997 3.25 8.50135 3.25 8.2V3.8C3.25 3.49865 3.39661 3.24003 3.57076 3.06709ZM7.21 4.46875L7.01923 4.27931V4.46875H7.21ZM6.01923 3.75V4.96875C6.01923 5.24489 6.24309 5.46875 6.51923 5.46875H7.75V8.18904C7.75004 8.18895 7.74996 8.18913 7.75 8.18904C7.74625 8.19702 7.73801 8.21003 7.7246 8.22334C7.71121 8.23664 7.69807 8.24501 7.68929 8.24908C7.68851 8.24944 7.68782 8.24975 7.68721 8.25H4.31279C4.31219 8.24975 4.31149 8.24944 4.31072 8.24908C4.30193 8.24501 4.28879 8.23664 4.2754 8.22334C4.26199 8.21003 4.25387 8.19727 4.25012 8.1893C4.25016 8.18938 4.25008 8.18921 4.25012 8.1893L4.25 3.81096C4.24996 3.81105 4.25004 3.81087 4.25 3.81096C4.25375 3.80299 4.26199 3.78997 4.2754 3.77666C4.28879 3.76336 4.30193 3.75499 4.31072 3.75092C4.31149 3.75056 4.31219 3.75025 4.31279 3.75H6.01923ZM1.5 8C1.77614 8 2 8.22386 2 8.5V9.5C2 9.63261 2.05268 9.75979 2.14645 9.85355C2.24021 9.94732 2.36739 10 2.5 10H3.5C3.77614 10 4 10.2239 4 10.5C4 10.7761 3.77614 11 3.5 11H2.5C2.10218 11 1.72064 10.842 1.43934 10.5607C1.15804 10.2794 1 9.89783 1 9.5V8.5C1 8.22386 1.22386 8 1.5 8ZM10.5 8C10.7761 8 11 8.22386 11 8.5V9.5C11 9.89783 10.842 10.2794 10.5607 10.5607C10.2794 10.842 9.89783 11 9.5 11H8.5C8.22386 11 8 10.7761 8 10.5C8 10.2239 8.22386 10 8.5 10H9.5C9.63261 10 9.75979 9.94732 9.85355 9.85355C9.94732 9.75979 10 9.63261 10 9.5V8.5C10 8.22386 10.2239 8 10.5 8Z" fill="black"/>
</svg>
