<svg width="12" height="12" viewBox="0 0 12 12" fill="none" xmlns="http://www.w3.org/2000/svg">
<path fill-rule="evenodd" clip-rule="evenodd" d="M7 2.5C7 1.39543 7.89543 0.5 9 0.5C10.1046 0.5 11 1.39543 11 2.5C11 3.60457 10.1046 4.5 9 4.5C8.44427 4.5 7.94148 4.27334 7.57903 3.90743L4.92517 5.45616C4.97392 5.62907 5 5.81149 5 6C5 6.18841 4.97395 6.37073 4.92525 6.54356L7.58066 8.09093C7.94299 7.72598 8.4451 7.5 9 7.5C10.1046 7.5 11 8.39543 11 9.5C11 10.6046 10.1046 11.5 9 11.5C7.89543 11.5 7 10.6046 7 9.5C7 9.31068 7.0263 9.12751 7.07546 8.95393L4.42117 7.40722C4.05871 7.77326 3.55583 8 3 8C1.89543 8 1 7.10457 1 6C1 4.89543 1.89543 4 3 4C3.55573 4 4.05852 4.22666 4.42097 4.59257L7.07483 3.04384C7.02608 2.87093 7 2.68851 7 2.5ZM8 2.5C8 1.94772 8.44772 1.5 9 1.5C9.55228 1.5 10 1.94772 10 2.5C10 3.05228 9.55228 3.5 9 3.5C8.44772 3.5 8 3.05228 8 2.5ZM2 6C2 5.44772 2.44772 5 3 5C3.55228 5 4 5.44772 4 6C4 6.55228 3.55228 7 3 7C2.44772 7 2 6.55228 2 6ZM8 9.5C8 8.94772 8.44772 8.5 9 8.5C9.55228 8.5 10 8.94772 10 9.5C10 10.0523 9.55228 10.5 9 10.5C8.44772 10.5 8 10.0523 8 9.5Z" fill="black"/>
</svg>
