<svg width="12" height="12" viewBox="0 0 12 12" fill="none" xmlns="http://www.w3.org/2000/svg">
<path fill-rule="evenodd" clip-rule="evenodd" d="M5.25107 0.701324C5.47884 0.57007 5.73711 0.500977 6 0.500977C6.26289 0.500977 6.52114 0.570065 6.74891 0.701308C6.74927 0.701518 6.74964 0.701728 6.75 0.701938L10.25 2.70193C10.4778 2.83346 10.667 3.02257 10.7987 3.25031C10.9303 3.47805 10.9997 3.73639 11 3.99944V7.99995C10.9997 8.263 10.9303 8.52186 10.7987 8.74959C10.667 8.97733 10.4778 9.16644 10.25 9.29797L10.2481 9.29907L6.75 11.298C6.74962 11.2982 6.74923 11.2984 6.74885 11.2986C6.5211 11.4298 6.26286 11.4989 6 11.4989C5.73713 11.4989 5.47888 11.4298 5.25112 11.2986C5.25075 11.2984 5.25037 11.2982 5.25 11.298L1.75193 9.29907L1.75 9.29797C1.5222 9.16644 1.33299 8.97733 1.20135 8.74959C1.06971 8.52186 1.00027 8.26351 1 8.00046L1 3.99995C1.00027 3.73691 1.06971 3.47805 1.20135 3.25031C1.33299 3.02257 1.5222 2.83346 1.75 2.70194L1.75193 2.70083L5.25107 0.701324ZM6 1.50098C5.91223 1.50098 5.82601 1.52408 5.75 1.56796L5.74807 1.56908L2.25 3.56796C2.25026 3.56781 2.24974 3.56812 2.25 3.56796C2.17442 3.61179 2.11084 3.67511 2.06712 3.75075C2.02327 3.8266 2.00013 3.91264 2 4.00025V7.99966C2.00013 8.08726 2.02327 8.1733 2.06712 8.24915C2.11084 8.3248 2.17363 8.38766 2.24921 8.43148C2.24947 8.43164 2.24895 8.43133 2.24921 8.43148L5.75 10.4319C5.82601 10.4758 5.91223 10.4989 6 10.4989C6.08777 10.4989 6.17399 10.4758 6.25 10.4319L6.25193 10.4308L9.75 8.43194C9.75027 8.43179 9.74974 8.43209 9.75 8.43194C9.82558 8.38812 9.88916 8.3248 9.93289 8.24915C9.97677 8.17324 9.99991 8.08712 10 7.99944V4.00046C9.99991 3.91278 9.97677 3.82667 9.93289 3.75075C9.88916 3.67511 9.82638 3.61224 9.75079 3.56842C9.75106 3.56858 9.75053 3.56827 9.75079 3.56842L6.25 1.56797C6.17399 1.52408 6.08777 1.50098 6 1.50098Z" fill="black"/>
<path d="M7 6C7 6.55229 6.55229 7 6 7C5.44772 7 5 6.55229 5 6C5 5.44772 5.44772 5 6 5C6.55229 5 7 5.44772 7 6Z" fill="black"/>
</svg>
