<svg width="12" height="12" viewBox="0 0 12 12" fill="none" xmlns="http://www.w3.org/2000/svg">
<g clip-path="url(#clip0_14670_3001)">
<path d="M10.5 7.99995V3.99995C10.4998 3.82459 10.4535 3.65236 10.3658 3.50053C10.278 3.34871 10.1519 3.22263 10 3.13495L6.5 1.13495C6.34798 1.04718 6.17554 1.00098 6 1.00098C5.82446 1.00098 5.65202 1.04718 5.5 1.13495L2 3.13495C1.84813 3.22263 1.72199 3.34871 1.63423 3.50053C1.54647 3.65236 1.50018 3.82459 1.5 3.99995V7.99995C1.50018 8.17531 1.54647 8.34755 1.63423 8.49937C1.72199 8.65119 1.84813 8.77727 2 8.86495L5.5 10.865C5.65202 10.9527 5.82446 10.9989 6 10.9989C6.17554 10.9989 6.34798 10.9527 6.5 10.865L10 8.86495C10.1519 8.77727 10.278 8.65119 10.3658 8.49937C10.4535 8.34755 10.4998 8.17531 10.5 7.99995Z" stroke="black" stroke-linecap="round" stroke-linejoin="round"/>
<circle cx="6" cy="6" r="1" fill="black"/>
</g>
<defs>
<clipPath id="clip0_14670_3001">
<rect width="12" height="12" fill="white"/>
</clipPath>
</defs>
</svg>
