<svg width="12" height="12" viewBox="0 0 12 12" fill="none" xmlns="http://www.w3.org/2000/svg">
<path fill-rule="evenodd" clip-rule="evenodd" d="M1 4.5C1 3.94772 1.44772 3.5 2 3.5V2.5C2 2.23478 2.10536 1.98043 2.29289 1.79289C2.48043 1.60536 2.73478 1.5 3 1.5H4.5C4.76362 1.5 5.02216 1.59006 5.21605 1.78395C5.40994 1.97784 5.5 2.23638 5.5 2.5V3.5H6.5V2.5C6.5 2.23478 6.60536 1.98043 6.79289 1.79289C6.98043 1.60536 7.23478 1.5 7.5 1.5H9C9.26362 1.5 9.52216 1.59006 9.71605 1.78395C9.90994 1.97784 10 2.23638 10 2.5V3.5C10.5523 3.5 11 3.94772 11 4.5V9.5C11 10.0523 10.5523 10.5 10 10.5H2C1.44772 10.5 1 10.0523 1 9.5V4.5ZM2 4.5H10V9.5H2V4.5ZM3 2.5L4.5 2.5V3.5H3V2.5ZM7.5 2.5L9 2.5V3.5H7.5V2.5Z" fill="black"/>
</svg>
