<svg width="12" height="12" viewBox="0 0 12 12" fill="none" xmlns="http://www.w3.org/2000/svg">
<path fill-rule="evenodd" clip-rule="evenodd" d="M5.59764 2.20885C5.17392 2.0425 4.71789 1.97474 4.2641 2.01073C3.81031 2.04672 3.37066 2.18551 2.97846 2.41658C2.58625 2.64765 2.25177 2.96494 2.00036 3.34443C1.74894 3.72392 1.58718 4.15564 1.52733 4.6069C1.46747 5.05816 1.5111 5.51713 1.6549 5.94903C1.7987 6.38093 2.0389 6.77445 2.35731 7.09977C2.55047 7.29712 2.54707 7.61368 2.34972 7.80684C2.15238 7.99999 1.83581 7.99659 1.64266 7.79925C1.21811 7.36549 0.89784 6.8408 0.706107 6.26493C0.514373 5.68905 0.456205 5.0771 0.536007 4.47542C0.61581 3.87374 0.831491 3.29811 1.16671 2.79213C1.50193 2.28614 1.94791 1.86309 2.47085 1.55499C2.99379 1.2469 3.57999 1.06185 4.18504 1.01386C4.79009 0.965878 5.39813 1.05621 5.9631 1.27803C6.52806 1.49984 7.03515 1.84731 7.44593 2.29413C7.77115 2.64786 8.02926 3.05652 8.20884 3.50001H8.74993C9.33994 3.49995 9.91439 3.68966 10.3883 4.04111C10.8622 4.39257 11.2106 4.88715 11.3818 5.45178C11.5531 6.01641 11.5382 6.62116 11.3394 7.17668C11.1406 7.73221 10.7684 8.20906 10.2777 8.53679C10.0481 8.69017 9.73759 8.62836 9.58421 8.39873C9.43083 8.1691 9.49264 7.85861 9.72227 7.70523C10.0345 7.49668 10.2714 7.19323 10.3979 6.83971C10.5244 6.48619 10.5339 6.10136 10.4249 5.74205C10.3159 5.38273 10.0942 5.06801 9.79265 4.84435C9.49105 4.62069 9.12552 4.49997 8.75004 4.50001H7.85499C7.63394 4.50001 7.43913 4.35486 7.37589 4.14306C7.24565 3.70687 7.01786 3.30604 6.70977 2.97093C6.40168 2.63582 6.02137 2.37521 5.59764 2.20885Z" fill="black"/>
<path d="M6.49999 10.5C6.49999 10.7762 6.27613 11 5.99999 11C5.72384 11 5.49999 10.7762 5.49999 10.5V7.20712L4.35354 8.35356C4.15828 8.54883 3.8417 8.54883 3.64643 8.35356C3.45117 8.1583 3.45117 7.84172 3.64643 7.64646L5.64643 5.64646C5.8417 5.45119 6.15828 5.45119 6.35354 5.64646L8.35354 7.64646C8.5488 7.84172 8.5488 8.1583 8.35354 8.35356C8.15828 8.54883 7.84169 8.54883 7.64643 8.35356L6.49999 7.20712V10.5Z" fill="black"/>
</svg>
