<svg width="12" height="12" viewBox="0 0 12 12" fill="none" xmlns="http://www.w3.org/2000/svg">
<g clip-path="url(#clip0_11936_4235)">
<path fill-rule="evenodd" clip-rule="evenodd" d="M9.44194 3.55806C9.68602 3.80214 9.68602 4.19786 9.44194 4.44194L5.44194 8.44194C5.19786 8.68602 4.80214 8.68602 4.55806 8.44194L2.55806 6.44194C2.31398 6.19786 2.31398 5.80214 2.55806 5.55806C2.80214 5.31398 3.19786 5.31398 3.44194 5.55806L5 7.11612L8.55806 3.55806C8.80214 3.31398 9.19786 3.31398 9.44194 3.55806Z" fill="black"/>
<path fill-rule="evenodd" clip-rule="evenodd" d="M8 1H4C2.34315 1 1 2.34315 1 4V8C1 9.65685 2.34315 11 4 11H8C9.65685 11 11 9.65685 11 8V4C11 2.34315 9.65685 1 8 1ZM4 0C1.79086 0 0 1.79086 0 4V8C0 10.2091 1.79086 12 4 12H8C10.2091 12 12 10.2091 12 8V4C12 1.79086 10.2091 0 8 0H4Z" fill="black"/>
</g>
<defs>
<clipPath id="clip0_11936_4235">
<rect width="12" height="12" fill="white"/>
</clipPath>
</defs>
</svg>
