<svg xmlns="http://www.w3.org/2000/svg" width="13" height="12" fill="none" viewBox="0 0 13 12">
  <g clip-path="url(#a)">
    <path fill="#000" fill-rule="evenodd" d="M4.92 0a4 4 0 0 0-4 4v4a4 4 0 0 0 4 4h4a4 4 0 0 0 4-4V4a4 4 0 0 0-4-4h-4Zm1.443 8.442 4-4a.625.625 0 1 0-.884-.884L5.92 7.116 4.363 5.558a.625.625 0 1 0-.884.884l2 2c.244.244.64.244.884 0Z" clip-rule="evenodd"/>
  </g>
  <defs>
    <clipPath id="a">
      <path fill="#fff" d="M0 0h12v12H0z" transform="translate(.92)"/>
    </clipPath>
  </defs>
</svg>
