<svg width="12" height="12" viewBox="0 0 12 12" fill="none" xmlns="http://www.w3.org/2000/svg">
<path fill-rule="evenodd" clip-rule="evenodd" d="M2.0002 3.11719C1.72406 3.11719 1.50021 3.34104 1.50021 3.61718C1.50021 3.89332 1.27635 4.11718 1.00021 4.11718C0.724067 4.11718 0.500209 3.89332 0.500209 3.61718C0.500209 2.78876 1.17178 2.11719 2.0002 2.11719H7.00016C7.82858 2.11719 8.50015 2.78876 8.50015 3.61718V4.6829L10.7228 3.20115C10.8762 3.09887 11.0735 3.08933 11.2361 3.17634C11.3986 3.26335 11.5001 3.43278 11.5001 3.61718V7.61715C11.5001 7.80154 11.3986 7.97097 11.2361 8.05798C11.0735 8.14499 10.8762 8.13546 10.7228 8.03317L8.50015 6.55142V7.61715C8.50015 8.44557 7.82858 9.11714 7.00016 9.11714C6.72402 9.11714 6.50016 8.89328 6.50016 8.61714C6.50016 8.341 6.72402 8.11714 7.00016 8.11714C7.2763 8.11714 7.50015 7.89328 7.50015 7.61715V3.61718C7.50015 3.34104 7.2763 3.11719 7.00016 3.11719H2.0002ZM8.90154 5.61716L10.5001 6.68289V4.55144L8.90154 5.61716Z" fill="black"/>
<path fill-rule="evenodd" clip-rule="evenodd" d="M2.23627 4.62415C2.23627 4.06707 2.68786 3.61523 3.24512 3.61523H3.66457C4.2214 3.61523 4.6728 4.06664 4.6728 4.62347C4.6728 4.62532 4.67293 4.62651 4.67301 4.62712C4.67348 4.62767 4.67473 4.62927 4.67691 4.63053C4.67916 4.63183 4.68084 4.63223 4.68155 4.63235C4.68213 4.63212 4.68366 4.63147 4.68527 4.63054C5.16747 4.35214 5.78428 4.51721 6.06277 4.99958L6.27238 5.36263C6.551 5.84521 6.38565 6.46228 5.90307 6.7409C5.90217 6.74142 5.90147 6.74187 5.90093 6.74223C5.90049 6.74254 5.90016 6.74278 5.89993 6.74296C5.89993 6.74296 5.89983 6.7431 5.89993 6.74296C5.89985 6.74313 5.89865 6.74513 5.89865 6.7486C5.89866 6.75151 5.89925 6.75333 5.89951 6.75398C5.90003 6.75438 5.90156 6.75556 5.9032 6.7565C6.38575 7.0351 6.55135 7.65227 6.27264 8.13501L6.06317 8.49782C5.78464 8.98025 5.16777 9.14536 4.68549 8.86692C4.68387 8.86598 4.68277 8.86549 4.68218 8.86525C4.68218 8.86525 4.68212 8.86524 4.68218 8.86525C4.68235 8.86525 4.68015 8.8651 4.67698 8.86692C4.67475 8.86821 4.67355 8.86946 4.67308 8.87002C4.673 8.87063 4.6728 8.87226 4.6728 8.87412C4.6728 9.43104 4.22133 9.88251 3.66442 9.88251H3.24527C2.68792 9.88251 2.23627 9.43059 2.23627 8.87343C2.23627 8.87154 2.23615 8.87032 2.23606 8.86967C2.23562 8.86912 2.23424 8.86707 2.23176 8.86564C2.22934 8.86424 2.22754 8.86384 2.22684 8.86373C2.22625 8.86397 2.22459 8.86467 2.22296 8.86561C1.74042 9.14421 1.1234 8.97888 0.844804 8.49634L0.635113 8.13314C0.356631 7.6508 0.522093 7.03415 1.00424 6.75578C1.00585 6.75485 1.00682 6.75415 1.0073 6.75377C1.00731 6.75377 1.00735 6.75372 1.0073 6.75377C1.0074 6.75356 1.00837 6.75184 1.00837 6.7486C1.00837 6.74612 1.00792 6.74452 1.00768 6.74383C1.00717 6.74341 1.00615 6.74265 1.00437 6.74162C0.522194 6.46324 0.356987 5.84668 0.635374 5.3645L0.845205 5.00106C1.12376 4.51859 1.74069 4.35328 2.22317 4.63183C2.2248 4.63277 2.22591 4.63327 2.22649 4.63351C2.2267 4.63349 2.22891 4.63351 2.23184 4.63181C2.23426 4.63042 2.2355 4.62906 2.23595 4.62851C2.23604 4.62787 2.23627 4.62603 2.23627 4.62415ZM5.89951 6.75398C5.89943 6.75387 5.89952 6.75399 5.89951 6.75398ZM3.23677 4.62083C3.23661 4.62121 3.23627 4.622 3.23627 4.62415C3.23627 5.40048 2.39583 5.88622 1.72317 5.49786C1.72134 5.4968 1.72051 5.4967 1.72012 5.49665C1.71939 5.49656 1.71811 5.49656 1.71654 5.49699C1.71496 5.49741 1.71386 5.49804 1.71327 5.49849C1.71296 5.49872 1.71229 5.49923 1.71123 5.50106L1.5014 5.8645C1.5004 5.86622 1.50031 5.86698 1.50027 5.8673C1.50019 5.86795 1.50019 5.86916 1.50059 5.87066C1.50099 5.87216 1.50158 5.87319 1.50198 5.87372C1.50217 5.87397 1.50265 5.8746 1.50437 5.8756C2.17668 6.26376 2.1761 7.23391 1.50424 7.6218C1.50248 7.62282 1.50201 7.62345 1.50179 7.62373C1.50137 7.62429 1.50075 7.62537 1.50034 7.62691C1.49992 7.62844 1.49993 7.62965 1.50001 7.63032C1.50005 7.63063 1.50012 7.63138 1.50114 7.63314L1.71083 7.99634C1.7119 7.99819 1.71258 7.99871 1.7129 7.99895C1.71351 7.99941 1.71463 8.00005 1.71622 8.00048C1.71781 8.0009 1.7191 8.00091 1.71985 8.00081C1.72025 8.00076 1.7211 8.00066 1.72296 7.99959C2.39573 7.61116 3.23627 8.09702 3.23627 8.87343C3.23627 8.8756 3.23662 8.87641 3.23678 8.87681C3.23709 8.87755 3.23776 8.87868 3.23895 8.87987C3.24013 8.88106 3.24126 8.88171 3.24197 8.88201C3.24234 8.88217 3.24313 8.88251 3.24527 8.88251H3.66442C3.66646 8.88251 3.66719 8.88219 3.66751 8.88206C3.66815 8.88179 3.66922 8.88117 3.67035 8.88005C3.67147 8.87893 3.67208 8.87787 3.67235 8.87723C3.67248 8.87691 3.6728 8.87616 3.6728 8.87412C3.6728 8.09766 4.5134 7.61286 5.18549 8.00089C5.1873 8.00194 5.18811 8.00203 5.18848 8.00207C5.1892 8.00216 5.19045 8.00216 5.19201 8.00174C5.19356 8.00133 5.19463 8.00071 5.1952 8.00028C5.19548 8.00007 5.19613 7.99958 5.19715 7.99782L5.40661 7.63501C5.40769 7.63315 5.4078 7.63229 5.40785 7.63187C5.40794 7.63109 5.40794 7.62978 5.4075 7.62814C5.40706 7.6265 5.4064 7.62534 5.40591 7.62469C5.40564 7.62433 5.40509 7.62362 5.4032 7.62253C4.73078 7.23431 4.7302 6.26335 5.40307 5.87487C5.40494 5.87379 5.40546 5.8731 5.40571 5.87277C5.40618 5.87216 5.40682 5.87103 5.40725 5.86943C5.40768 5.86783 5.40768 5.86653 5.40759 5.86577C5.40754 5.86536 5.40743 5.8645 5.40635 5.86263L5.19675 5.49958C5.19572 5.49781 5.1951 5.49736 5.19484 5.49716C5.19429 5.49675 5.19323 5.49613 5.19169 5.49572C5.19015 5.49531 5.18892 5.49531 5.18821 5.4954C5.18786 5.49544 5.18707 5.49552 5.18527 5.49656C4.5133 5.88452 3.6728 5.39983 3.6728 4.62347C3.6728 4.62141 3.67248 4.62071 3.67236 4.62042C3.6721 4.61979 3.6715 4.61876 3.67039 4.61765C3.66928 4.61654 3.66824 4.61594 3.66762 4.61568C3.66733 4.61555 3.66663 4.61523 3.66457 4.61523H3.24512C3.24301 4.61523 3.24224 4.61556 3.24188 4.61571C3.24119 4.61601 3.24007 4.61665 3.2389 4.61783C3.23773 4.619 3.23707 4.62012 3.23677 4.62083Z" fill="black"/>
<path fill-rule="evenodd" clip-rule="evenodd" d="M2.45431 6.74804C2.45431 6.19576 2.90202 5.74805 3.45431 5.74805C4.00659 5.74805 4.4543 6.19576 4.4543 6.74804C4.4543 7.30033 4.00659 7.74804 3.45431 7.74804C2.90202 7.74804 2.45431 7.30033 2.45431 6.74804Z" fill="black"/>
</svg>
