<svg xmlns="http://www.w3.org/2000/svg" width="12" height="12" fill="none" viewBox="0 0 12 12">
  <g clip-path="url(#a)">
    <path fill="#000" fill-rule="evenodd" d="M3.525 1.525A3.5 3.5 0 0 1 9.5 3.996a2.825 2.825 0 0 1-.903 2.115c-.325.326-.493.617-.56.98a.5.5 0 1 1-.984-.181c.113-.615.413-1.082.844-1.513A1.825 1.825 0 0 0 8.5 4.009V4a2.5 2.5 0 1 0-5 0c0 .398.081.872.596 1.39.435.401.732.931.849 1.513a.5.5 0 0 1-.981.195 1.805 1.805 0 0 0-.568-.994C2.647 5.354 2.5 4.6 2.5 4a3.5 3.5 0 0 1 1.025-2.475ZM4 9a.5.5 0 0 1 .5-.5h3a.5.5 0 1 1 0 1h-3A.5.5 0 0 1 4 9Zm.5 2a.5.5 0 0 1 .5-.5h2a.5.5 0 1 1 0 1H5a.5.5 0 0 1-.5-.5Z" clip-rule="evenodd"/>
  </g>
  <defs>
    <clipPath id="a">
      <path fill="#fff" d="M0 0h12v12H0z"/>
    </clipPath>
  </defs>
</svg>
