<svg width="10" height="10" viewBox="0 0 10 10" fill="none" xmlns="http://www.w3.org/2000/svg">
<path fill-rule="evenodd" clip-rule="evenodd" d="M0 1.5C0 0.671573 0.671573 0 1.5 0H2.5C2.94425 0 3.34339 0.193125 3.61805 0.5H8.5C9.32843 0.5 10 1.17157 10 2V8C10 8.82843 9.32843 9.5 8.5 9.5H3.61805C3.34339 9.80687 2.94425 10 2.5 10H1.5C0.671573 10 0 9.32843 0 8.5V1.5ZM4 8.5H8.5C8.77614 8.5 9 8.27614 9 8V2C9 1.72386 8.77614 1.5 8.5 1.5H4V8.5ZM1.5 1C1.22386 1 1 1.22386 1 1.5V8.5C1 8.77614 1.22386 9 1.5 9H2.5C2.77614 9 3 8.77614 3 8.5V1.5C3 1.22386 2.77614 1 2.5 1H1.5ZM4.5 3C4.5 2.44772 4.94772 2 5.5 2H7.5C8.05228 2 8.5 2.44772 8.5 3V4.5C8.5 5.05228 8.05228 5.5 7.5 5.5H5.5C4.94772 5.5 4.5 5.05228 4.5 4.5V3ZM7.5 3H5.5V4.5H7.5V3ZM4.5 7C4.5 6.72386 4.72386 6.5 5 6.5H8C8.27614 6.5 8.5 6.72386 8.5 7C8.5 7.27614 8.27614 7.5 8 7.5H5C4.72386 7.5 4.5 7.27614 4.5 7Z" fill="black"/>
</svg>
