<svg width="12" height="12" viewBox="0 0 12 12" fill="none" xmlns="http://www.w3.org/2000/svg">
<path fill-rule="evenodd" clip-rule="evenodd" d="M7.60326 2.14594C7.79854 2.34119 7.79855 2.65777 7.6033 2.85305L6.83197 3.62446L7.60339 4.3958C7.79866 4.59105 7.79868 4.90763 7.60342 5.10291C7.40817 5.29818 7.09159 5.2982 6.89632 5.10294L6.1249 4.33161L5.35356 5.10303C5.15831 5.2983 4.84173 5.29832 4.64646 5.10307C4.45118 4.90781 4.45117 4.59123 4.64642 4.39596L5.41775 3.62454L4.64634 2.85321C4.45106 2.65795 4.45105 2.34137 4.6463 2.1461C4.84155 1.95083 5.15813 1.95081 5.3534 2.14606L6.12482 2.9174L6.89616 2.14598C7.09141 1.9507 7.40799 1.95069 7.60326 2.14594ZM0.563713 8.19919C1.40165 7.53365 3.41728 6.20193 6.16284 6.20312C8.92055 6.20433 10.751 7.5485 11.4998 8.2271C11.9451 8.63055 11.8954 9.27943 11.5175 9.65737L10.7944 10.3804C10.456 10.7189 9.93055 10.7835 9.52014 10.5372L8.44827 9.89374C8.10529 9.68786 7.91028 9.30394 7.94633 8.90553L8.07681 7.46345C7.51134 7.30511 6.87204 7.20343 6.1624 7.20312C5.40143 7.20279 4.70207 7.31898 4.07729 7.49711L4.07794 8.98009C4.0781 9.34639 3.88609 9.68591 3.57212 9.87456L2.46788 10.538C2.05744 10.7846 1.53181 10.7201 1.19323 10.3815L1.54679 10.0279L1.19323 10.3815L0.494951 9.68322C0.0929806 9.28125 0.0720242 8.58972 0.563713 8.19919ZM3.07745 7.85481C2.22559 8.22312 1.5818 8.66905 1.19847 8.97211C1.19944 8.97334 1.20063 8.97468 1.20206 8.97611L0.848504 9.32966L1.20206 8.97611L1.90034 9.67439C1.91429 9.68834 1.93595 9.691 1.95286 9.68084L3.0571 9.01738C3.07003 9.00961 3.07794 8.99562 3.07794 8.98053L3.07745 7.85481ZM9.04904 7.81551L8.94226 8.99564C8.94078 9.01206 8.94881 9.02787 8.96294 9.03636L10.0348 9.67978C10.0517 9.68993 10.0734 9.68726 10.0873 9.67332L10.8095 8.95112C10.4679 8.64431 9.87485 8.18591 9.04904 7.81551Z" fill="black"/>
</svg>
