<svg width="8" height="12" viewBox="0 0 8 12" fill="none" xmlns="http://www.w3.org/2000/svg">
<path fill-rule="evenodd" clip-rule="evenodd" d="M4.25 1.5C3.52065 1.5 2.82118 1.78973 2.30546 2.30546C1.78973 2.82118 1.5 3.52065 1.5 4.25C1.5 4.52614 1.27614 4.75 1 4.75C0.723858 4.75 0.5 4.52614 0.5 4.25C0.5 3.25544 0.895088 2.30161 1.59835 1.59835C2.30161 0.895088 3.25544 0.5 4.25 0.5C5.24456 0.5 6.19839 0.895088 6.90165 1.59835C7.60491 2.30161 8 3.25544 8 4.25C8 5.09109 7.78755 5.74525 7.45607 6.27931C7.13076 6.80342 6.70408 7.18912 6.32009 7.50911C6.23333 7.58141 6.15042 7.64921 6.07128 7.71392C5.78081 7.95142 5.54114 8.14738 5.34838 8.37227C5.12542 8.63239 5 8.8961 5 9.25C5 9.54547 4.9418 9.83805 4.82873 10.111C4.71566 10.384 4.54992 10.6321 4.34099 10.841C4.13206 11.0499 3.88402 11.2157 3.61104 11.3287C3.33806 11.4418 3.04547 11.5 2.75 11.5C2.45453 11.5 2.16194 11.4418 1.88896 11.3287C1.61598 11.2157 1.36794 11.0499 1.15901 10.841C0.950078 10.6321 0.784344 10.384 0.671271 10.111C0.558198 9.83806 0.5 9.54547 0.5 9.25C0.5 8.97386 0.723858 8.75 1 8.75C1.27614 8.75 1.5 8.97386 1.5 9.25C1.5 9.41415 1.53233 9.5767 1.59515 9.72835C1.65797 9.88001 1.75004 10.0178 1.86612 10.1339C1.98219 10.25 2.11999 10.342 2.27165 10.4048C2.4233 10.4677 2.58585 10.5 2.75 10.5C2.91415 10.5 3.0767 10.4677 3.22835 10.4048C3.38001 10.342 3.51781 10.25 3.63388 10.1339C3.74996 10.0178 3.84203 9.88001 3.90485 9.72835C3.96767 9.5767 4 9.41415 4 9.25C4 8.6039 4.24958 8.11761 4.58912 7.72148C4.84565 7.4222 5.17512 7.15361 5.47414 6.90983C5.54489 6.85215 5.61394 6.79587 5.67991 6.74089C6.04592 6.43588 6.36924 6.13408 6.60643 5.75194C6.83745 5.37975 7 4.90891 7 4.25C7 3.52065 6.71027 2.82118 6.19454 2.30546C5.67882 1.78973 4.97935 1.5 4.25 1.5ZM3.01256 3.01256C3.34075 2.68437 3.78587 2.5 4.25 2.5C4.71413 2.5 5.15925 2.68437 5.48744 3.01256C5.81563 3.34075 6 3.78587 6 4.25C6 4.52614 5.77614 4.75 5.5 4.75C5.22386 4.75 5 4.52614 5 4.25C5 4.05109 4.92098 3.86032 4.78033 3.71967C4.63968 3.57902 4.44891 3.5 4.25 3.5C4.05109 3.5 3.86032 3.57902 3.71967 3.71967C3.57902 3.86032 3.5 4.05109 3.5 4.25V4.33579C3.70895 4.40967 3.90096 4.52964 4.06066 4.68934C4.34196 4.97064 4.5 5.35217 4.5 5.75C4.5 6.14783 4.34196 6.52936 4.06066 6.81066C3.77936 7.09196 3.39783 7.25 3 7.25C2.72386 7.25 2.5 7.02614 2.5 6.75C2.5 6.47386 2.72386 6.25 3 6.25C3.13261 6.25 3.25978 6.19732 3.35355 6.10355C3.44732 6.00978 3.5 5.88261 3.5 5.75C3.5 5.61739 3.44732 5.49022 3.35355 5.39645C3.25978 5.30268 3.13261 5.25 3 5.25C2.72386 5.25 2.5 5.02614 2.5 4.75V4.25C2.5 3.78587 2.68437 3.34075 3.01256 3.01256Z" fill="black"/>
</svg>
