<svg width="12" height="12" viewBox="0 0 12 12" fill="none" xmlns="http://www.w3.org/2000/svg">
<path fill-rule="evenodd" clip-rule="evenodd" d="M2.5 2C2.36739 2 2.24021 2.05268 2.14645 2.14645C2.05268 2.24021 2 2.36739 2 2.5V9.2929L3.14645 8.14645C3.24021 8.05268 3.36739 8 3.5 8H9.49981C9.63242 8 9.7596 7.94732 9.85336 7.85355C9.94713 7.75979 9.99981 7.63261 9.99981 7.5V5.25C9.99981 4.97386 10.2237 4.75 10.4998 4.75C10.776 4.75 10.9998 4.97386 10.9998 5.25V7.5C10.9998 7.89783 10.8418 8.27936 10.5605 8.56066C10.2792 8.84197 9.89764 9 9.49981 9H3.70711L1.85355 10.8536C1.71055 10.9966 1.4955 11.0393 1.30866 10.9619C1.12182 10.8846 1 10.7022 1 10.5V2.5C1 2.10218 1.15804 1.72064 1.43934 1.43934C1.72064 1.15803 2.10218 1 2.5 1H6.49981C6.77595 1 6.99981 1.22386 6.99981 1.5C6.99981 1.77614 6.77595 2 6.49981 2H2.5ZM7.5 2.75C7.5 1.7835 8.2835 1 9.25 1C10.2165 1 11 1.7835 11 2.75C11 3.7165 10.2165 4.5 9.25 4.5C8.2835 4.5 7.5 3.7165 7.5 2.75Z" fill="black"/>
</svg>
