<svg width="12" height="12" viewBox="0 0 12 12" fill="none" xmlns="http://www.w3.org/2000/svg">
<path d="M2.14645 2.14645C2.24021 2.05268 2.36739 2 2.5 2H5.49981C5.77595 2 5.99981 1.77614 5.99981 1.5C5.99981 1.22386 5.77595 1 5.49981 1H2.5C2.10218 1 1.72064 1.15803 1.43934 1.43934C1.15804 1.72064 1 2.10218 1 2.5V10.5C1 10.7022 1.12182 10.8846 1.30866 10.9619C1.4955 11.0393 1.71055 10.9966 1.85355 10.8536L3.70711 9H9.49981C9.89764 9 10.2792 8.84197 10.5605 8.56066C10.8418 8.27936 10.9998 7.89783 10.9998 7.5V6.25C10.9998 5.97386 10.776 5.75 10.4998 5.75C10.2237 5.75 9.99981 5.97386 9.99981 6.25V7.5C9.99981 7.63261 9.94713 7.75979 9.85336 7.85355C9.7596 7.94732 9.63242 8 9.49981 8H3.5C3.36739 8 3.24021 8.05268 3.14645 8.14645L2 9.2929V2.5C2 2.36739 2.05268 2.24021 2.14645 2.14645Z" fill="black"/>
<path d="M9.25 1C8.2835 1 7.5 1.7835 7.5 2.75C7.5 3.7165 8.2835 4.5 9.25 4.5C10.2165 4.5 11 3.7165 11 2.75C11 1.7835 10.2165 1 9.25 1Z" fill="black"/>
</svg>
