<svg width="24" height="24" viewBox="0 0 24 24" fill="none" xmlns="http://www.w3.org/2000/svg">
<path fill-rule="evenodd" clip-rule="evenodd" d="M19 22C19.5523 22 20 21.5523 20 21V20H21C21.5523 20 22 19.5523 22 19C22 18.4477 21.5523 18 21 18H20V17C20 16.4477 19.5523 16 19 16C18.4477 16 18 16.4477 18 17V18H17C16.4477 18 16 18.4477 16 19C16 19.5523 16.4477 20 17 20L18 20V21C18 21.5523 18.4477 22 19 22ZM10 20C10.3921 20 10.7481 19.7708 10.9104 19.4138L12.9427 14.9427L17.4138 12.9104C17.7708 12.7481 18 12.3921 18 12C18 11.6079 17.7708 11.2519 17.4138 11.0896L12.9427 9.05731L10.9104 4.5862C10.7481 4.2292 10.3921 4 10 4C9.60786 4 9.2519 4.2292 9.08963 4.5862L7.05731 9.05731L2.5862 11.0896C2.2292 11.2519 2 11.6079 2 12C2 12.3921 2.2292 12.7481 2.5862 12.9104L7.05731 14.9427L9.08963 19.4138C9.2519 19.7708 9.60786 20 10 20ZM10 16.5834L8.72287 13.7737C8.62282 13.5536 8.44641 13.3772 8.2263 13.2771L5.41661 12L8.2263 10.7229C8.44641 10.6228 8.62282 10.4464 8.72287 10.2263L10 7.41661L11.2771 10.2263C11.3772 10.4464 11.5536 10.6228 11.7737 10.7229L14.5834 12L11.7737 13.2771C11.5536 13.3772 11.3772 13.5536 11.2771 13.7737L10 16.5834ZM18 8C18.5523 8 19 7.55229 19 7V6H20C20.5523 6 21 5.55228 21 5C21 4.44772 20.5523 4 20 4H19V3C19 2.44772 18.5523 2 18 2C17.4477 2 17 2.44772 17 3V4L16 4C15.4477 4 15 4.44772 15 5C15 5.55228 15.4477 6 16 6H17V7C17 7.55229 17.4477 8 18 8Z" fill="url(#paint0_linear_1_48)"/>
<defs>
<linearGradient id="paint0_linear_1_48" x1="2" y1="22" x2="22" y2="2" gradientUnits="userSpaceOnUse">
<stop offset="0.1" stop-color="#F9008E"/>
<stop offset="0.9" stop-color="#7C52FF"/>
</linearGradient>
</defs>
</svg>
