<svg width="24" height="24" viewBox="0 0 24 24" fill="none" xmlns="http://www.w3.org/2000/svg">
<path fill-rule="evenodd" clip-rule="evenodd" d="M19 2C19.5523 2 20 2.44772 20 3V4H21C21.5523 4 22 4.44772 22 5C22 5.55228 21.5523 6 21 6H20V7C20 7.55228 19.5523 8 19 8C18.4477 8 18 7.55228 18 7V6H17C16.4477 6 16 5.55228 16 5C16 4.44772 16.4477 4 17 4H18V3C18 2.44772 18.4477 2 19 2ZM10 4C10.3921 4 10.7481 4.2292 10.9104 4.5862L12.9427 9.05731L17.4138 11.0896C17.7708 11.2519 18 11.6079 18 12C18 12.3921 17.7708 12.7481 17.4138 12.9104L12.9427 14.9427L10.9104 19.4138C10.7481 19.7708 10.3921 20 10 20C9.60786 20 9.2519 19.7708 9.08963 19.4138L7.05731 14.9427L2.5862 12.9104C2.2292 12.7481 2 12.3921 2 12C2 11.6079 2.2292 11.2519 2.5862 11.0896L7.05731 9.05731L9.08963 4.5862C9.2519 4.2292 9.60786 4 10 4ZM10 7.41661L8.72287 10.2263C8.62282 10.4464 8.44641 10.6228 8.2263 10.7229L5.41661 12L8.2263 13.2771C8.44641 13.3772 8.62282 13.5536 8.72287 13.7737L10 16.5834L11.2771 13.7737C11.3772 13.5536 11.5536 13.3772 11.7737 13.2771L14.5834 12L11.7737 10.7229C11.5536 10.6228 11.3772 10.4464 11.2771 10.2263L10 7.41661ZM18 16C18.5523 16 19 16.4477 19 17V18H20C20.5523 18 21 18.4477 21 19C21 19.5523 20.5523 20 20 20H19V21C19 21.5523 18.5523 22 18 22C17.4477 22 17 21.5523 17 21V20H16C15.4477 20 15 19.5523 15 19C15 18.4477 15.4477 18 16 18H17V17C17 16.4477 17.4477 16 18 16Z" fill="url(#paint0_linear_15230_10315)"/>
<defs>
<linearGradient id="paint0_linear_15230_10315" x1="2" y1="2" x2="22" y2="22" gradientUnits="userSpaceOnUse">
<stop offset="0.1" stop-color="#F9008E"/>
<stop offset="0.9" stop-color="#7C52FF"/>
</linearGradient>
</defs>
</svg>
