<svg width="24" height="24" viewBox="0 0 24 24" fill="none" xmlns="http://www.w3.org/2000/svg">
<path fill-rule="evenodd" clip-rule="evenodd" d="M18 2C18.2652 2 18.5196 2.10536 18.7071 2.29289C18.8947 2.48043 19 2.73478 19 3V4H20C20.2652 4 20.5196 4.10536 20.7071 4.29289C20.8947 4.48043 21 4.73478 21 5C21 5.26522 20.8947 5.51957 20.7071 5.70711C20.5196 5.89464 20.2652 6 20 6H19V7C19 7.26522 18.8947 7.51957 18.7071 7.70711C18.5196 7.89464 18.2652 8 18 8C17.7348 8 17.4804 7.89464 17.2929 7.70711C17.1054 7.51957 17 7.26522 17 7V6H16C15.7348 6 15.4804 5.89464 15.2929 5.70711C15.1054 5.51957 15 5.26522 15 5C15 4.73478 15.1054 4.48043 15.2929 4.29289C15.4804 4.10536 15.7348 4 16 4H17V3C17 2.73478 17.1054 2.48043 17.2929 2.29289C17.4804 2.10536 17.7348 2 18 2ZM10 4C10.1919 4.00005 10.3798 4.05533 10.5411 4.15924C10.7025 4.26315 10.8306 4.4113 10.91 4.586L12.943 9.057L17.413 11.09C17.5876 11.1695 17.7356 11.2976 17.8394 11.459C17.9432 11.6203 17.9984 11.8081 17.9984 12C17.9984 12.1919 17.9432 12.3797 17.8394 12.541C17.7356 12.7024 17.5876 12.8305 17.413 12.91L12.943 14.943L10.91 19.413C10.8305 19.5876 10.7024 19.7356 10.541 19.8394C10.3797 19.9432 10.1919 19.9984 10 19.9984C9.80815 19.9984 9.62035 19.9432 9.459 19.8394C9.29764 19.7356 9.16955 19.5876 9.09001 19.413L7.05701 14.943L2.58701 12.91C2.41242 12.8305 2.2644 12.7024 2.1606 12.541C2.05681 12.3797 2.00162 12.1919 2.00162 12C2.00162 11.8081 2.05681 11.6203 2.1606 11.459C2.2644 11.2976 2.41242 11.1695 2.58701 11.09L7.05701 9.057L9.09001 4.587C9.16932 4.41211 9.29731 4.26376 9.45868 4.15966C9.62005 4.05557 9.80798 4.00014 10 4ZM10 7.417L8.72301 10.227C8.62274 10.447 8.44618 10.6232 8.22601 10.723L5.41601 12L8.22601 13.277C8.44636 13.3771 8.62294 13.5537 8.72301 13.774L10 16.584L11.277 13.774C11.3771 13.5537 11.5537 13.3771 11.774 13.277L14.584 12L11.774 10.723C11.5537 10.6229 11.3771 10.4463 11.277 10.226L10 7.417ZM19 16C19.2652 16 19.5196 16.1054 19.7071 16.2929C19.8947 16.4804 20 16.7348 20 17V18H21C21.2652 18 21.5196 18.1054 21.7071 18.2929C21.8947 18.4804 22 18.7348 22 19C22 19.2652 21.8947 19.5196 21.7071 19.7071C21.5196 19.8946 21.2652 20 21 20H20V21C20 21.2652 19.8947 21.5196 19.7071 21.7071C19.5196 21.8946 19.2652 22 19 22C18.7348 22 18.4804 21.8946 18.2929 21.7071C18.1054 21.5196 18 21.2652 18 21V20H17C16.7348 20 16.4804 19.8946 16.2929 19.7071C16.1054 19.5196 16 19.2652 16 19C16 18.7348 16.1054 18.4804 16.2929 18.2929C16.4804 18.1054 16.7348 18 17 18H18V17C18 16.7348 18.1054 16.4804 18.2929 16.2929C18.4804 16.1054 18.7348 16 19 16Z" fill="url(#paint0_linear_6_42)"/>
<defs>
<linearGradient id="paint0_linear_6_42" x1="2.00001" y1="2" x2="22" y2="22" gradientUnits="userSpaceOnUse">
<stop offset="0.1" stop-color="#F9008E"/>
<stop offset="0.9" stop-color="#7C52FF"/>
</linearGradient>
</defs>
</svg>
