<svg width="12" height="12" viewBox="0 0 12 12" fill="none" xmlns="http://www.w3.org/2000/svg">
<path fill-rule="evenodd" clip-rule="evenodd" d="M7.00024 1C7.27639 1 7.50024 1.22386 7.50024 1.5V10.5C7.50024 10.7761 7.27639 11 7.00024 11C6.7241 11 6.50024 10.7761 6.50024 10.5V1.5C6.50024 1.22386 6.7241 1 7.00024 1ZM5.00024 2.5C5.27639 2.5 5.50024 2.72386 5.50024 3L5.50024 9C5.50024 9.27614 5.27639 9.5 5.00024 9.5C4.7241 9.5 4.50024 9.27614 4.50024 9L4.50024 3C4.50024 2.72386 4.7241 2.5 5.00024 2.5ZM9.00024 3.5C9.27639 3.5 9.50024 3.72386 9.50024 4V8C9.50024 8.27614 9.27639 8.5 9.00024 8.5C8.7241 8.5 8.50024 8.27614 8.50024 8V4C8.50024 3.72386 8.7241 3.5 9.00024 3.5ZM3.00024 4.5C3.27639 4.5 3.50024 4.72386 3.50024 5V7C3.50024 7.27614 3.27639 7.5 3.00024 7.5C2.7241 7.5 2.50024 7.27614 2.50024 7L2.50024 5C2.50024 4.72386 2.7241 4.5 3.00024 4.5Z" fill="black"/>
</svg>
