<svg width="12" height="12" viewBox="0 0 12 12" fill="none" xmlns="http://www.w3.org/2000/svg">
<path fill-rule="evenodd" clip-rule="evenodd" d="M2.85355 1.14645C3.04882 1.34171 3.04882 1.65829 2.85355 1.85355L1.35355 3.35355C1.15829 3.54882 0.841709 3.54882 0.646447 3.35355C0.451184 3.15829 0.451184 2.84171 0.646447 2.64645L2.14645 1.14645C2.34171 0.951184 2.65829 0.951184 2.85355 1.14645ZM9.14645 1.14645C9.34171 0.951184 9.65829 0.951184 9.85355 1.14645L11.3536 2.64645C11.5488 2.84171 11.5488 3.15829 11.3536 3.35355C11.1583 3.54882 10.8417 3.54882 10.6464 3.35355L9.14645 1.85355C8.95118 1.65829 8.95118 1.34171 9.14645 1.14645ZM2.81802 3.31802C3.66193 2.47411 4.80653 2 6 2C7.19347 2 8.33807 2.47411 9.18198 3.31802C10.0259 4.16193 10.5 5.30653 10.5 6.5C10.5 7.52561 10.1499 8.51512 9.51584 9.30874L10.3536 10.1464C10.5488 10.3417 10.5488 10.6583 10.3536 10.8536C10.1583 11.0488 9.84171 11.0488 9.64645 10.8536L8.80874 10.0158C8.01512 10.6499 7.02561 11 6 11C4.97439 11 3.98488 10.6499 3.19126 10.0158L2.35355 10.8536C2.15829 11.0488 1.84171 11.0488 1.64645 10.8536C1.45118 10.6583 1.45118 10.3417 1.64645 10.1464L2.48416 9.30874C1.85012 8.51512 1.5 7.52561 1.5 6.5C1.5 5.30653 1.97411 4.16193 2.81802 3.31802ZM6 3C5.07174 3 4.1815 3.36875 3.52513 4.02513C2.86875 4.6815 2.5 5.57174 2.5 6.5C2.5 7.42826 2.86875 8.3185 3.52513 8.97487C4.1815 9.63125 5.07174 10 6 10C6.92826 10 7.8185 9.63125 8.47487 8.97487C9.13125 8.3185 9.5 7.42826 9.5 6.5C9.5 5.57174 9.13125 4.6815 8.47487 4.02513C7.8185 3.36875 6.92826 3 6 3ZM4 6.5C4 6.22386 4.22386 6 4.5 6H7.5C7.77614 6 8 6.22386 8 6.5C8 6.77614 7.77614 7 7.5 7H4.5C4.22386 7 4 6.77614 4 6.5Z" fill="black"/>
</svg>
