<svg width="12" height="12" viewBox="0 0 12 12" fill="none" xmlns="http://www.w3.org/2000/svg">
<g clip-path="url(#clip0_10011_6401)">
<path fill-rule="evenodd" clip-rule="evenodd" d="M6.00114 2C7.1942 2.0003 8.33834 2.47437 9.18198 3.31802C10.0256 4.16167 10.4997 5.30582 10.5 6.49889" fill="black"/>
<path fill-rule="evenodd" clip-rule="evenodd" d="M9.14645 1.14645C9.34171 0.951184 9.65829 0.951184 9.85355 1.14645L11.3536 2.64645C11.5488 2.84171 11.5488 3.15829 11.3536 3.35355C11.1583 3.54882 10.8417 3.54882 10.6464 3.35355L9.14645 1.85355C8.95118 1.65829 8.95118 1.34171 9.14645 1.14645Z" fill="black"/>
<path fill-rule="evenodd" clip-rule="evenodd" d="M7.99588 10.5458C7.43489 10.8278 6.8211 10.9893 6.19397 11.0199C5.56683 11.0505 4.94024 10.9495 4.35447 10.7235C3.92489 10.5577 3.52423 10.3273 3.166 10.0411L2.35355 10.8536C2.15829 11.0488 1.84171 11.0488 1.64645 10.8536C1.45118 10.6583 1.45118 10.3417 1.64645 10.1464L2.4589 9.334C2.17271 8.97577 1.94234 8.57511 1.77654 8.14553C1.55047 7.55976 1.44948 6.93317 1.48007 6.30603C1.51066 5.6789 1.67215 5.06511 1.95416 4.50412C2.15371 4.10717 2.41047 3.74288 2.71543 3.42254L2 2.70711L1.35355 3.35355C1.15829 3.54882 0.841709 3.54882 0.646447 3.35355C0.451184 3.15829 0.451184 2.84171 0.646447 2.64645L1.32322 2.03033L0.646447 1.35355C0.451184 1.15829 0.451184 0.841709 0.646447 0.646447C0.841709 0.451184 1.15829 0.451184 1.35355 0.646447L11.3536 10.6464C11.5488 10.8417 11.5488 11.1583 11.3536 11.3536C11.1583 11.5488 10.8417 11.5488 10.6464 11.3536L9.07746 9.78457C8.75712 10.0895 8.39283 10.3463 7.99588 10.5458ZM2.47888 6.35475C2.50268 5.86698 2.62828 5.38959 2.84762 4.95327C2.99912 4.65189 3.19303 4.37472 3.42281 4.12992L8.37008 9.07719C8.12528 9.30697 7.84811 9.50088 7.54673 9.65238C7.11041 9.87172 6.63302 9.99732 6.14525 10.0211C5.65747 10.0449 5.17012 9.96636 4.71453 9.79053C4.25893 9.61469 3.84517 9.34546 3.49985 9.00015C3.15454 8.65483 2.88531 8.24107 2.70947 7.78547C2.53364 7.32988 2.45509 6.84253 2.47888 6.35475Z" fill="black"/>
</g>
<defs>
<clipPath id="clip0_10011_6401">
<rect width="12" height="12" fill="white"/>
</clipPath>
</defs>
</svg>
