<svg width="12" height="12" viewBox="0 0 12 12" fill="none" xmlns="http://www.w3.org/2000/svg">
<path fill-rule="evenodd" clip-rule="evenodd" d="M5 7C5 6.72386 5.22386 6.5 5.5 6.5H8.5C8.77614 6.5 9 6.72386 9 7C9 7.27614 8.77614 7.5 8.5 7.5H5.5C5.22386 7.5 5 7.27614 5 7Z" fill="black"/>
<path fill-rule="evenodd" clip-rule="evenodd" d="M3 9C3 8.72386 3.22386 8.5 3.5 8.5H6.5C6.77614 8.5 7 8.72386 7 9C7 9.27614 6.77614 9.5 6.5 9.5H3.5C3.22386 9.5 3 9.27614 3 9Z" fill="black"/>
<path fill-rule="evenodd" clip-rule="evenodd" d="M3 7C3 6.72386 3.22386 6.5 3.5 6.5H3.505C3.78114 6.5 4.005 6.72386 4.005 7C4.005 7.27614 3.78114 7.5 3.505 7.5H3.5C3.22386 7.5 3 7.27614 3 7Z" fill="black"/>
<path fill-rule="evenodd" clip-rule="evenodd" d="M8 9C8 8.72386 8.22386 8.5 8.5 8.5H8.505C8.78114 8.5 9.005 8.72386 9.005 9C9.005 9.27614 8.78114 9.5 8.505 9.5H8.5C8.22386 9.5 8 9.27614 8 9Z" fill="black"/>
<path fill-rule="evenodd" clip-rule="evenodd" d="M1 3C1 2.17157 1.67157 1.5 2.5 1.5H3.5V1C3.5 0.723858 3.72386 0.5 4 0.5C4.27614 0.5 4.5 0.723858 4.5 1V1.5H7.5V1C7.5 0.723858 7.72386 0.5 8 0.5C8.27614 0.5 8.5 0.723858 8.5 1V1.5H9.5C10.3284 1.5 11 2.17157 11 3V10C11 10.8284 10.3284 11.5 9.5 11.5H2.5C1.67157 11.5 1 10.8284 1 10V3ZM2 10C2 10.2761 2.22386 10.5 2.5 10.5H9.5C9.77614 10.5 10 10.2761 10 10V5.5H2V10ZM5.5 6.5C5.22386 6.5 5 6.72386 5 7C5 7.27614 5.22386 7.5 5.5 7.5H8.5C8.77614 7.5 9 7.27614 9 7C9 6.72386 8.77614 6.5 8.5 6.5H5.5ZM3.5 8.5C3.22386 8.5 3 8.72386 3 9C3 9.27614 3.22386 9.5 3.5 9.5H6.5C6.77614 9.5 7 9.27614 7 9C7 8.72386 6.77614 8.5 6.5 8.5H3.5ZM3.5 6.5C3.22386 6.5 3 6.72386 3 7C3 7.27614 3.22386 7.5 3.5 7.5H3.505C3.78114 7.5 4.005 7.27614 4.005 7C4.005 6.72386 3.78114 6.5 3.505 6.5H3.5ZM8.5 8.5C8.22386 8.5 8 8.72386 8 9C8 9.27614 8.22386 9.5 8.5 9.5H8.505C8.78114 9.5 9.005 9.27614 9.005 9C9.005 8.72386 8.78114 8.5 8.505 8.5H8.5ZM2 3C2 2.72386 2.22386 2.5 2.5 2.5H3.5V3C3.5 3.27614 3.72386 3.5 4 3.5C4.27614 3.5 4.5 3.27614 4.5 3V2.5H7.5V3C7.5 3.27614 7.72386 3.5 8 3.5C8.27614 3.5 8.5 3.27614 8.5 3V2.5H9.5C9.77614 2.5 10 2.72386 10 3V4.5H2V3Z" fill="black"/>
</svg>
