<svg width="12" height="12" viewBox="0 0 12 12" fill="none" xmlns="http://www.w3.org/2000/svg">
<path fill-rule="evenodd" clip-rule="evenodd" d="M1.43934 1.93934C1.72064 1.65804 2.10218 1.5 2.5 1.5H3.5V1C3.5 0.723858 3.72386 0.5 4 0.5C4.27614 0.5 4.5 0.723858 4.5 1V1.5H7.5V1C7.5 0.723858 7.72386 0.5 8 0.5C8.27614 0.5 8.5 0.723858 8.5 1V1.5H9.5C9.89783 1.5 10.2794 1.65804 10.5607 1.93934C10.842 2.22064 11 2.60217 11 3V6C11 6.27614 10.7761 6.5 10.5 6.5C10.2239 6.5 10 6.27614 10 6V5.5H2V10C2 10.2739 2.22614 10.5 2.5 10.5H6.25C6.52614 10.5 6.75 10.7239 6.75 11C6.75 11.2761 6.52614 11.5 6.25 11.5H2.5C1.67386 11.5 1 10.8261 1 10V3C1 2.60218 1.15804 2.22064 1.43934 1.93934ZM9.85355 2.64645C9.94732 2.74021 10 2.86739 10 3V4.5H2V3C2 2.86739 2.05268 2.74021 2.14645 2.64645C2.24021 2.55268 2.36739 2.5 2.5 2.5H3.5V3C3.5 3.27614 3.72386 3.5 4 3.5C4.27614 3.5 4.5 3.27614 4.5 3V2.5H7.5V3C7.5 3.27614 7.72386 3.5 8 3.5C8.27614 3.5 8.5 3.27614 8.5 3V2.5H9.5C9.63261 2.5 9.75978 2.55268 9.85355 2.64645Z" fill="black"/>
<path fill-rule="evenodd" clip-rule="evenodd" d="M7.58579 7.58579C7.96086 7.21071 8.46957 7 9 7C9.53043 7 10.0391 7.21071 10.4142 7.58579C10.7893 7.96086 11 8.46957 11 9C11 9.3603 10.9028 9.71058 10.7229 10.0158L11.3536 10.6464C11.5488 10.8417 11.5488 11.1583 11.3536 11.3536C11.1583 11.5488 10.8417 11.5488 10.6464 11.3536L10.0158 10.7229C9.71058 10.9028 9.3603 11 9 11C8.46957 11 7.96086 10.7893 7.58579 10.4142C7.21071 10.0391 7 9.53043 7 9C7 8.46957 7.21071 7.96086 7.58579 7.58579ZM8.29289 8.29289C8.48043 8.10536 8.73478 8 9 8C9.26522 8 9.51957 8.10536 9.70711 8.29289C9.89464 8.48043 10 8.73478 10 9C10 9.26522 9.89464 9.51957 9.70711 9.70711C9.51957 9.89464 9.26522 10 9 10C8.73478 10 8.48043 9.89464 8.29289 9.70711C8.10536 9.51957 8 9.26522 8 9C8 8.73478 8.10536 8.48043 8.29289 8.29289Z" fill="black"/>
</svg>
