<svg width="12" height="12" viewBox="0 0 12 12" fill="none" xmlns="http://www.w3.org/2000/svg">
<path fill-rule="evenodd" clip-rule="evenodd" d="M3.5 7C3.5 6.72386 3.72386 6.5 4 6.5H4.005C4.28114 6.5 4.505 6.72386 4.505 7C4.505 7.27614 4.28114 7.5 4.005 7.5H4C3.72386 7.5 3.5 7.27614 3.5 7Z" fill="black"/>
<path fill-rule="evenodd" clip-rule="evenodd" d="M5.5 7C5.5 6.72386 5.72386 6.5 6 6.5H6.005C6.28114 6.5 6.505 6.72386 6.505 7C6.505 7.27614 6.28114 7.5 6.005 7.5H6C5.72386 7.5 5.5 7.27614 5.5 7Z" fill="black"/>
<path fill-rule="evenodd" clip-rule="evenodd" d="M7.5 7C7.5 6.72386 7.72386 6.5 8 6.5H8.005C8.28114 6.5 8.505 6.72386 8.505 7C8.505 7.27614 8.28114 7.5 8.005 7.5H8C7.72386 7.5 7.5 7.27614 7.5 7Z" fill="black"/>
<path fill-rule="evenodd" clip-rule="evenodd" d="M3.5 9C3.5 8.72386 3.72386 8.5 4 8.5H4.005C4.28114 8.5 4.505 8.72386 4.505 9C4.505 9.27614 4.28114 9.5 4.005 9.5H4C3.72386 9.5 3.5 9.27614 3.5 9Z" fill="black"/>
<path fill-rule="evenodd" clip-rule="evenodd" d="M5.5 9C5.5 8.72386 5.72386 8.5 6 8.5H6.005C6.28114 8.5 6.505 8.72386 6.505 9C6.505 9.27614 6.28114 9.5 6.005 9.5H6C5.72386 9.5 5.5 9.27614 5.5 9Z" fill="black"/>
<path fill-rule="evenodd" clip-rule="evenodd" d="M7.5 9C7.5 8.72386 7.72386 8.5 8 8.5H8.005C8.28114 8.5 8.505 8.72386 8.505 9C8.505 9.27614 8.28114 9.5 8.005 9.5H8C7.72386 9.5 7.5 9.27614 7.5 9Z" fill="black"/>
<path fill-rule="evenodd" clip-rule="evenodd" d="M1 3C1 2.17157 1.67157 1.5 2.5 1.5H3.5V1C3.5 0.723858 3.72386 0.5 4 0.5C4.27614 0.5 4.5 0.723858 4.5 1V1.5H7.5V1C7.5 0.723858 7.72386 0.5 8 0.5C8.27614 0.5 8.5 0.723858 8.5 1V1.5H9.5C10.3284 1.5 11 2.17157 11 3V10C11 10.8284 10.3284 11.5 9.5 11.5H2.5C1.67157 11.5 1 10.8284 1 10V3ZM2 3C2 2.72386 2.22386 2.5 2.5 2.5H3.5V3C3.5 3.27614 3.72386 3.5 4 3.5C4.27614 3.5 4.5 3.27614 4.5 3V2.5H7.5V3C7.5 3.27614 7.72386 3.5 8 3.5C8.27614 3.5 8.5 3.27614 8.5 3V2.5H9.5C9.77614 2.5 10 2.72386 10 3V4.5H2V3ZM2.5 10.5C2.22386 10.5 2 10.2761 2 10V5.5H10V10C10 10.2761 9.77614 10.5 9.5 10.5H2.5Z" fill="black"/>
</svg>
