<svg width="12" height="12" viewBox="0 0 12 12" fill="none" xmlns="http://www.w3.org/2000/svg">
<path fill-rule="evenodd" clip-rule="evenodd" d="M9.13084 6.62715C9.44302 6.49765 9.78652 6.46326 10.1182 6.52835C10.4511 6.59367 10.7572 6.75627 10.9977 6.99557C11.0138 7.01158 11.0286 7.02856 11.0423 7.04638C11.6866 7.73292 11.6626 8.81322 10.905 9.57708L10.9011 9.58104L9.10107 11.356C8.9062 11.5482 8.59304 11.548 8.39843 11.3555L6.59997 9.5771C5.82789 8.79859 5.81022 7.68641 6.50238 7.00052C6.65866 6.84445 6.84319 6.71467 7.06156 6.62686C7.3746 6.49799 7.7188 6.46463 8.05079 6.53103C8.30464 6.58179 8.54263 6.68914 8.74762 6.84385C8.86455 6.75573 8.99294 6.68267 9.13084 6.62715ZM9.92567 7.50963C9.78687 7.4824 9.64312 7.49694 9.51259 7.55142L9.50572 7.55429C9.4204 7.58842 9.34207 7.64003 9.27355 7.70855L9.10355 7.87855C8.91029 8.07182 8.59765 8.07408 8.40161 7.88364L8.22082 7.70802C8.12089 7.60776 7.99349 7.53937 7.85468 7.51161C7.71587 7.48385 7.57194 7.49791 7.44113 7.55203L7.43571 7.55427C7.35571 7.58627 7.28142 7.63569 7.20855 7.70855L7.20668 7.71042C6.95012 7.96429 6.88261 8.4406 7.30843 8.87131L8.75049 10.2973L10.1968 8.87109C10.6198 8.44301 10.5523 7.96664 10.2933 7.71042C10.2818 7.69899 10.2708 7.68705 10.2605 7.67466C10.1657 7.59114 10.0502 7.53407 9.92567 7.50963Z" fill="black"/>
<path fill-rule="evenodd" clip-rule="evenodd" d="M2.5 1.5C2.10218 1.5 1.72064 1.65804 1.43934 1.93934C1.15804 2.22064 1 2.60218 1 3V10C1 10.8261 1.67386 11.5 2.5 11.5H6C6.27614 11.5 6.5 11.2761 6.5 11C6.5 10.7239 6.27614 10.5 6 10.5H2.5C2.22614 10.5 2 10.2739 2 10V5.5H10.5C10.7761 5.5 11 5.27614 11 5V3C11 2.60218 10.842 2.22064 10.5607 1.93934C10.2794 1.65804 9.89783 1.5 9.5 1.5H8.5V1C8.5 0.723858 8.27614 0.5 8 0.5C7.72386 0.5 7.5 0.723858 7.5 1V1.5H4.5V1C4.5 0.723858 4.27614 0.5 4 0.5C3.72386 0.5 3.5 0.723858 3.5 1V1.5H2.5ZM10 3C10 2.86739 9.94732 2.74022 9.85355 2.64645C9.75978 2.55268 9.63261 2.5 9.5 2.5H8.5V3C8.5 3.27614 8.27614 3.5 8 3.5C7.72386 3.5 7.5 3.27614 7.5 3V2.5H4.5V3C4.5 3.27614 4.27614 3.5 4 3.5C3.72386 3.5 3.5 3.27614 3.5 3V2.5H2.5C2.36739 2.5 2.24021 2.55268 2.14645 2.64645C2.05268 2.74021 2 2.86739 2 3V4.5H10V3Z" fill="black"/>
</svg>
