<svg width="12" height="12" viewBox="0 0 12 12" fill="none" xmlns="http://www.w3.org/2000/svg">
<path fill-rule="evenodd" clip-rule="evenodd" d="M7.85355 6.64645C8.04882 6.84171 8.04882 7.15829 7.85355 7.35355L5.85355 9.35355C5.65829 9.54882 5.34171 9.54882 5.14645 9.35355L4.14645 8.35355C3.95118 8.15829 3.95118 7.84171 4.14645 7.64645C4.34171 7.45118 4.65829 7.45118 4.85355 7.64645L5.5 8.29289L7.14645 6.64645C7.34171 6.45118 7.65829 6.45118 7.85355 6.64645Z" fill="black"/>
<path fill-rule="evenodd" clip-rule="evenodd" d="M1 3C1 2.17157 1.67157 1.5 2.5 1.5H3.5V1C3.5 0.723858 3.72386 0.5 4 0.5C4.27614 0.5 4.5 0.723858 4.5 1V1.5H7.50341L7.5 1C7.5 0.723858 7.72386 0.5 8 0.5C8.27614 0.5 8.5 0.723858 8.5 1V1.5H9.5C10.3284 1.5 11 2.17157 11 3V10C11 10.8284 10.3284 11.5 9.5 11.5H2.5C1.67157 11.5 1 10.8284 1 10V3ZM2 3C2 2.72386 2.22386 2.5 2.5 2.5H9.5C9.77614 2.5 10 2.72386 10 3V4.5H2V3ZM2.5 10.5C2.22386 10.5 2 10.2761 2 10V5.5H10V10C10 10.2761 9.77614 10.5 9.5 10.5H2.5Z" fill="black"/>
</svg>
