<svg width="12" height="12" viewBox="0 0 12 12" fill="none" xmlns="http://www.w3.org/2000/svg">
<g clip-path="url(#clip0_10011_6455)">
<path d="M4.75 1.5C4.47386 1.5 4.25 1.72386 4.25 2C4.25 2.27614 4.47386 2.5 4.75 2.5H7.5V3C7.5 3.27614 7.72386 3.5 8 3.5C8.27614 3.5 8.5 3.27614 8.5 3V2.5H9.5C9.63261 2.5 9.75979 2.55268 9.85355 2.64645C9.94732 2.74021 10 2.86739 10 3V4.5H7.75C7.47386 4.5 7.25 4.72386 7.25 5C7.25 5.27614 7.47386 5.5 7.75 5.5H10V7.75C10 8.02614 10.2239 8.25 10.5 8.25C10.7761 8.25 11 8.02614 11 7.75V3C11 2.60217 10.842 2.22064 10.5607 1.93934C10.2794 1.65804 9.89782 1.5 9.5 1.5H8.5V1C8.5 0.723858 8.27614 0.5 8 0.5C7.72386 0.5 7.5 0.723858 7.5 1V1.5H4.75Z" fill="black"/>
<path fill-rule="evenodd" clip-rule="evenodd" d="M9.50104 11.5C9.78959 11.4994 10.0718 11.4156 10.3139 11.2586C10.3617 11.2277 10.4075 11.1941 10.4511 11.1582L10.6464 11.3536C10.8417 11.5488 11.1583 11.5488 11.3536 11.3536C11.5488 11.1583 11.5488 10.8417 11.3536 10.6464L1.35355 0.646447C1.15829 0.451184 0.841709 0.451184 0.646447 0.646447C0.451184 0.841709 0.451184 1.15829 0.646447 1.35355L1.35278 2.05989L1.24139 2.18606C1.08441 2.42817 1.0006 2.71042 1 2.99896V10C1 10.3978 1.15804 10.7794 1.43934 11.0607C1.72064 11.342 2.10217 11.5 2.5 11.5L9.50104 11.5ZM2 10C2 10.1326 2.05268 10.2598 2.14645 10.3536C2.24021 10.4473 2.36739 10.5 2.5 10.5L9.49896 10.5C9.58097 10.4998 9.66173 10.4794 9.73376 10.4409L4.79289 5.5H2V10ZM2 4.5V3.00061C2.00024 2.91861 2.02064 2.83816 2.05912 2.76623L3.79289 4.5H2Z" fill="black"/>
</g>
<defs>
<clipPath id="clip0_10011_6455">
<rect width="12" height="12" fill="white"/>
</clipPath>
</defs>
</svg>
