<svg width="12" height="12" viewBox="0 0 12 12" fill="none" xmlns="http://www.w3.org/2000/svg">
<path fill-rule="evenodd" clip-rule="evenodd" d="M1.43934 1.93934C1.72064 1.65804 2.10218 1.5 2.5 1.5H3.5V1C3.5 0.723858 3.72386 0.5 4 0.5C4.27614 0.5 4.5 0.723858 4.5 1V1.5H7.5V1C7.5 0.723858 7.72386 0.5 8 0.5C8.27614 0.5 8.5 0.723858 8.5 1V1.5H9.5C9.89783 1.5 10.2794 1.65804 10.5607 1.93934C10.842 2.22064 11 2.60217 11 3V6C11 6.27614 10.7761 6.5 10.5 6.5C10.2239 6.5 10 6.27614 10 6V5.5H2V10C2 10.2739 2.22614 10.5 2.5 10.5H6.25C6.52614 10.5 6.75 10.7239 6.75 11C6.75 11.2761 6.52614 11.5 6.25 11.5H2.5C1.67386 11.5 1 10.8261 1 10V3C1 2.60218 1.15804 2.22064 1.43934 1.93934ZM9.85355 2.64645C9.94732 2.74021 10 2.86739 10 3V4.5H2V3C2 2.86739 2.05268 2.74021 2.14645 2.64645C2.24021 2.55268 2.36739 2.5 2.5 2.5H3.5V3C3.5 3.27614 3.72386 3.5 4 3.5C4.27614 3.5 4.5 3.27614 4.5 3V2.5H7.5V3C7.5 3.27614 7.72386 3.5 8 3.5C8.27614 3.5 8.5 3.27614 8.5 3V2.5H9.5C9.63261 2.5 9.75978 2.55268 9.85355 2.64645Z" fill="black"/>
<path d="M8.85355 8.14645C8.65829 7.95118 8.34171 7.95118 8.14645 8.14645C7.95118 8.34171 7.95118 8.65829 8.14645 8.85355L9.04289 9.75L8.14645 10.6464C7.95118 10.8417 7.95118 11.1583 8.14645 11.3536C8.34171 11.5488 8.65829 11.5488 8.85355 11.3536L9.75 10.4571L10.6464 11.3536C10.8417 11.5488 11.1583 11.5488 11.3536 11.3536C11.5488 11.1583 11.5488 10.8417 11.3536 10.6464L10.4571 9.75L11.3536 8.85355C11.5488 8.65829 11.5488 8.34171 11.3536 8.14645C11.1583 7.95118 10.8417 7.95118 10.6464 8.14645L9.75 9.04289L8.85355 8.14645Z" fill="black"/>
</svg>
