<svg width="12" height="12" viewBox="0 0 12 12" fill="none" xmlns="http://www.w3.org/2000/svg">
<path d="M9.5 7.5C9.77614 7.5 10 7.72386 10 8V9H11C11.2761 9 11.5 9.22386 11.5 9.5C11.5 9.77614 11.2761 10 11 10H10V11C10 11.2761 9.77614 11.5 9.5 11.5C9.22386 11.5 9 11.2761 9 11V10H8C7.72386 10 7.5 9.77614 7.5 9.5C7.5 9.22386 7.72386 9 8 9H9V8C9 7.72386 9.22386 7.5 9.5 7.5Z" fill="black"/>
<path fill-rule="evenodd" clip-rule="evenodd" d="M1.43934 1.93934C1.72064 1.65804 2.10218 1.5 2.5 1.5H3.5V1C3.5 0.723858 3.72386 0.5 4 0.5C4.27614 0.5 4.5 0.723858 4.5 1V1.5H7.5V1C7.5 0.723858 7.72386 0.5 8 0.5C8.27614 0.5 8.5 0.723858 8.5 1V1.5H9.5C9.89783 1.5 10.2794 1.65804 10.5607 1.93934C10.842 2.22064 11 2.60217 11 3V6.5C11 6.77614 10.7761 7 10.5 7C10.2239 7 10 6.77614 10 6.5V5.5H2V10C2 10.1326 2.05268 10.2598 2.14645 10.3536C2.24021 10.4473 2.36739 10.5 2.5 10.5H6.5C6.77614 10.5 7 10.7239 7 11C7 11.2761 6.77614 11.5 6.5 11.5H2.5C2.10217 11.5 1.72064 11.342 1.43934 11.0607C1.15804 10.7794 1 10.3978 1 10V3C1 2.60218 1.15804 2.22064 1.43934 1.93934ZM9.85355 2.64645C9.94732 2.74021 10 2.86739 10 3V4.5H2V3C2 2.86739 2.05268 2.74021 2.14645 2.64645C2.24021 2.55268 2.36739 2.5 2.5 2.5H3.5V3C3.5 3.27614 3.72386 3.5 4 3.5C4.27614 3.5 4.5 3.27614 4.5 3V2.5H7.5V3C7.5 3.27614 7.72386 3.5 8 3.5C8.27614 3.5 8.5 3.27614 8.5 3V2.5H9.5C9.63261 2.5 9.75978 2.55268 9.85355 2.64645Z" fill="black"/>
</svg>
