<svg width="12" height="12" viewBox="0 0 12 12" fill="none" xmlns="http://www.w3.org/2000/svg">
<path fill-rule="evenodd" clip-rule="evenodd" d="M8 6.5C8.27614 6.5 8.5 6.72386 8.5 7V7.89081L9.07009 8.36589C9.28223 8.54267 9.31089 8.85795 9.13411 9.07009C8.95733 9.28223 8.64205 9.31089 8.42991 9.13411L7.67991 8.50911C7.56591 8.41411 7.5 8.27339 7.5 8.125V7C7.5 6.72386 7.72386 6.5 8 6.5Z" fill="black"/>
<path fill-rule="evenodd" clip-rule="evenodd" d="M8 5.5C7.33696 5.5 6.70107 5.76339 6.23223 6.23223C5.76339 6.70107 5.5 7.33696 5.5 8C5.5 8.66304 5.76339 9.29893 6.23223 9.76777C6.70107 10.2366 7.33696 10.5 8 10.5C8.66304 10.5 9.29893 10.2366 9.76777 9.76777C10.2366 9.29893 10.5 8.66304 10.5 8C10.5 7.33696 10.2366 6.70107 9.76777 6.23223C9.29893 5.76339 8.66304 5.5 8 5.5ZM5.52513 5.52513C6.1815 4.86875 7.07174 4.5 8 4.5C8.92826 4.5 9.8185 4.86875 10.4749 5.52513C11.1313 6.1815 11.5 7.07174 11.5 8C11.5 8.92826 11.1313 9.8185 10.4749 10.4749C9.8185 11.1313 8.92826 11.5 8 11.5C7.07174 11.5 6.1815 11.1313 5.52513 10.4749C4.86875 9.8185 4.5 8.92826 4.5 8C4.5 7.07174 4.86875 6.1815 5.52513 5.52513Z" fill="black"/>
<path d="M1.43934 1.93934C1.72064 1.65804 2.10218 1.5 2.5 1.5H3.5V1C3.5 0.723858 3.72386 0.5 4 0.5C4.27614 0.5 4.5 0.723858 4.5 1V1.5H7.5V1C7.5 0.723858 7.72386 0.5 8 0.5C8.27614 0.5 8.5 0.723858 8.5 1V1.5H9.5C9.89783 1.5 10.2794 1.65804 10.5607 1.93934C10.842 2.22064 11 2.60217 11 3V3.75C11 4.02614 10.7761 4.25 10.5 4.25C10.2239 4.25 10 4.02614 10 3.75V3C10 2.86739 9.94732 2.74021 9.85355 2.64645C9.75978 2.55268 9.63261 2.5 9.5 2.5H8.5V3C8.5 3.27614 8.27614 3.5 8 3.5C7.72386 3.5 7.5 3.27614 7.5 3V2.5H4.5V3C4.5 3.27614 4.27614 3.5 4 3.5C3.72386 3.5 3.5 3.27614 3.5 3V2.5H2.5C2.36739 2.5 2.24021 2.55268 2.14645 2.64645C2.05268 2.74021 2 2.86739 2 3V4.5H4C4.27614 4.5 4.5 4.72386 4.5 5C4.5 5.27614 4.27614 5.5 4 5.5H2V10C2 10.1326 2.05268 10.2598 2.14645 10.3536C2.24021 10.4473 2.36739 10.5 2.5 10.5H4.25C4.52614 10.5 4.75 10.7239 4.75 11C4.75 11.2761 4.52614 11.5 4.25 11.5H2.5C2.10217 11.5 1.72064 11.342 1.43934 11.0607C1.15804 10.7794 1 10.3978 1 10V3C1 2.60218 1.15804 2.22064 1.43934 1.93934Z" fill="black"/>
</svg>
