<svg width="12" height="12" viewBox="0 0 12 12" fill="none" xmlns="http://www.w3.org/2000/svg">
<g clip-path="url(#clip0_10011_6411)">
<path fill-rule="evenodd" clip-rule="evenodd" d="M6 1.5C3.51472 1.5 1.5 3.51472 1.5 6C1.5 8.48528 3.51472 10.5 6 10.5C8.48528 10.5 10.5 8.48528 10.5 6C10.5 3.51472 8.48528 1.5 6 1.5ZM0.5 6C0.5 2.96243 2.96243 0.5 6 0.5C9.03757 0.5 11.5 2.96243 11.5 6C11.5 9.03757 9.03757 11.5 6 11.5C2.96243 11.5 0.5 9.03757 0.5 6Z" fill="black"/>
<path fill-rule="evenodd" clip-rule="evenodd" d="M6 2.5C6.27614 2.5 6.5 2.72386 6.5 3V5.8566L7.674 7.735C7.82035 7.96917 7.74917 8.27764 7.515 8.424C7.28083 8.57035 6.97236 8.49917 6.826 8.265L5.576 6.265C5.52633 6.18553 5.5 6.09371 5.5 6V3C5.5 2.72386 5.72386 2.5 6 2.5Z" fill="black"/>
</g>
<defs>
<clipPath id="clip0_10011_6411">
<rect width="12" height="12" fill="white"/>
</clipPath>
</defs>
</svg>
