<svg width="12" height="12" viewBox="0 0 12 12" fill="none" xmlns="http://www.w3.org/2000/svg">
<path fill-rule="evenodd" clip-rule="evenodd" d="M2.5 10.5C2.22386 10.5 2 10.7239 2 11C2 11.2761 2.22386 11.5 2.5 11.5H9.5C9.77614 11.5 10 11.2761 10 11C10 10.7239 9.77614 10.5 9.5 10.5H9V8.91389C8.99992 8.51613 8.84179 8.13463 8.5605 7.85339L6.70711 6L8.56055 4.14655C8.84184 3.86532 8.99992 3.48377 9 3.086V1.5H9.5C9.77614 1.5 10 1.27614 10 1C10 0.723858 9.77614 0.5 9.5 0.5H2.5C2.22386 0.5 2 0.723858 2 1C2 1.27614 2.22386 1.5 2.5 1.5H3V3.08611C3.00008 3.48387 3.15821 3.86537 3.4395 4.14661L5.29289 6L3.43945 7.85345C3.15816 8.13468 3.00008 8.51623 3 8.914V10.5H2.5ZM4 3.08589C4.00006 3.21845 4.05275 3.34567 4.1465 3.43939L6 5.29289L7.85345 3.43945C7.9472 3.34573 7.99994 3.21856 8 3.086V1.5H4V3.08589ZM7.8535 8.56061C7.94725 8.65433 7.99994 8.78155 8 8.91411V10.5H4V8.914C4.00006 8.78144 4.0528 8.65427 4.14655 8.56055L6 6.70711L7.8535 8.56061Z" fill="black"/>
</svg>
