<svg width="12" height="12" viewBox="0 0 12 12" fill="none" xmlns="http://www.w3.org/2000/svg">
<path fill-rule="evenodd" clip-rule="evenodd" d="M4.50001 1C4.50001 0.723858 4.72387 0.5 5.00001 0.5H7.00001C7.27615 0.5 7.50001 0.723858 7.50001 1C7.50001 1.27614 7.27615 1.5 7.00001 1.5H5.00001C4.72387 1.5 4.50001 1.27614 4.50001 1Z" fill="black"/>
<path fill-rule="evenodd" clip-rule="evenodd" d="M6.00001 4.5C6.27615 4.5 6.50001 4.72386 6.50001 5V7C6.50001 7.27614 6.27615 7.5 6.00001 7.5C5.72387 7.5 5.50001 7.27614 5.50001 7V5C5.50001 4.72386 5.72387 4.5 6.00001 4.5Z" fill="black"/>
<path d="M5.99609 3.49998C5.13888 3.49326 4.30902 3.80137 3.66388 4.36586C3.01875 4.93035 2.60322 5.71197 2.49609 6.56248C2.46158 6.83646 2.2115 7.03059 1.93752 6.99608C1.66355 6.96157 1.46942 6.71149 1.50393 6.43752C1.64166 5.344 2.17592 4.33906 3.00538 3.61328C3.83441 2.88788 4.90071 2.49178 6.00223 2.5C6.72955 2.50105 7.44579 2.67838 8.0896 3.0168C8.7339 3.35549 9.28643 3.84543 9.69978 4.44458C10.1131 5.04372 10.375 5.7342 10.4628 6.45678C10.5507 7.17936 10.462 7.91247 10.2043 8.59322C9.94656 9.27398 9.52756 9.88205 8.9832 10.3653C8.43884 10.8485 7.78539 11.1925 7.07889 11.3677C6.37238 11.5429 5.63393 11.5441 4.92686 11.3712C4.21979 11.1983 3.56522 10.8565 3.01929 10.375L3.01783 10.3737L2.5 9.91342V11.2987C2.5 11.5749 2.27614 11.7987 2 11.7987C1.72386 11.7987 1.5 11.5749 1.5 11.2987V8.79874C1.5 8.5226 1.72386 8.29874 2 8.29874H4.5C4.77614 8.29874 5 8.5226 5 8.79874C5 9.07489 4.77614 9.29874 4.5 9.29874H3.31369L3.68073 9.625C4.10519 9.99914 4.61476 10.2654 5.16439 10.3998C5.71433 10.5343 6.28869 10.5334 6.83819 10.3971C7.38769 10.2608 7.89594 9.9933 8.31932 9.61745C8.74271 9.2416 9.0686 8.76865 9.26905 8.23917C9.46949 7.7097 9.5385 7.1395 9.47016 6.5775C9.40182 6.01549 9.19816 5.47845 8.87667 5.01245C8.55517 4.54644 8.12542 4.16538 7.6243 3.90196C7.12317 3.63853 6.56562 3.5006 5.99948 3.5L5.99609 3.49998Z" fill="black"/>
</svg>
