<svg width="12" height="12" viewBox="0 0 12 12" fill="none" xmlns="http://www.w3.org/2000/svg">
<g clip-path="url(#clip0_10011_6388)">
<path fill-rule="evenodd" clip-rule="evenodd" d="M4.5 1C4.5 0.723858 4.72386 0.5 5 0.5H7C7.27614 0.5 7.5 0.723858 7.5 1C7.5 1.27614 7.27614 1.5 7 1.5H5C4.72386 1.5 4.5 1.27614 4.5 1Z" fill="black"/>
<path fill-rule="evenodd" clip-rule="evenodd" d="M2.49205 5.03835C2.74701 5.14442 2.86771 5.43709 2.76165 5.69205C2.49661 6.32915 2.4258 7.03038 2.55813 7.70761C2.6903 8.38398 3.01919 9.00626 3.50356 9.49644C3.99374 9.98081 4.61602 10.3097 5.29239 10.4419C5.96962 10.5742 6.67085 10.5034 7.30795 10.2384C7.56291 10.1323 7.85558 10.253 7.96165 10.508C8.06771 10.7629 7.94701 11.0556 7.69205 11.1616C6.87292 11.5024 5.97134 11.5934 5.10062 11.4233C4.2299 11.2532 3.4289 10.8294 2.7983 10.2054L2.79458 10.2017C2.17054 9.57112 1.74683 8.7701 1.57669 7.89938C1.40655 7.02866 1.49759 6.12708 1.83835 5.30795C1.94442 5.05299 2.23709 4.93229 2.49205 5.03835Z" fill="black"/>
<path fill-rule="evenodd" clip-rule="evenodd" d="M6.41505 2.5075C7.47512 2.61042 8.46429 3.08599 9.20667 3.84958C9.94735 4.59558 10.4035 5.57739 10.4959 6.62463C10.576 7.53224 10.3785 8.4393 9.9347 9.22759L11.3536 10.6464C11.5488 10.8417 11.5488 11.1583 11.3536 11.3536C11.1583 11.5488 10.8417 11.5488 10.6464 11.3536L0.646447 1.35355C0.451184 1.15829 0.451184 0.841709 0.646447 0.646447C0.841709 0.451184 1.15829 0.451184 1.35355 0.646447L3.77238 3.06527C4.5724 2.61479 5.49452 2.41813 6.41505 2.5075ZM8.49542 4.55252C9.07246 5.13294 9.42784 5.89723 9.49977 6.71252C9.55369 7.32353 9.44584 7.93421 9.19206 8.48495L6.5 5.79289V5C6.5 4.72386 6.27614 4.5 6 4.5C5.7856 4.5 5.60271 4.63495 5.53165 4.82454L4.51499 3.80788C5.07519 3.54966 5.69727 3.44251 6.31842 3.50282C7.14367 3.58294 7.91366 3.95346 8.49125 4.54833L8.49542 4.55252Z" fill="black"/>
</g>
<defs>
<clipPath id="clip0_10011_6388">
<rect width="12" height="12" fill="white"/>
</clipPath>
</defs>
</svg>
