<svg width="10" height="10" viewBox="0 0 10 10" fill="none" xmlns="http://www.w3.org/2000/svg">
<path fill-rule="evenodd" clip-rule="evenodd" d="M1.5 1C1.36739 1 1.24021 1.05268 1.14645 1.14645C1.05268 1.24021 1 1.36739 1 1.5C1 1.77614 0.776142 2 0.5 2C0.223858 2 0 1.77614 0 1.5C0 1.10218 0.158035 0.720644 0.43934 0.43934C0.720644 0.158035 1.10218 0 1.5 0C1.77614 0 2 0.223858 2 0.5C2 0.776142 1.77614 1 1.5 1ZM2.75 0.5C2.75 0.223858 2.97386 0 3.25 0H4.25C4.52614 0 4.75 0.223858 4.75 0.5C4.75 0.776142 4.52614 1 4.25 1H3.25C2.97386 1 2.75 0.776142 2.75 0.5ZM5.25 0.5C5.25 0.223858 5.47386 0 5.75 0H6.75C7.02614 0 7.25 0.223858 7.25 0.5C7.25 0.776142 7.02614 1 6.75 1H5.75C5.47386 1 5.25 0.776142 5.25 0.5ZM8 0.5C8 0.223858 8.22386 0 8.5 0C8.89783 0 9.27936 0.158035 9.56066 0.43934C9.84196 0.720644 10 1.10217 10 1.5C10 1.77614 9.77614 2 9.5 2C9.22386 2 9 1.77614 9 1.5C9 1.36739 8.94732 1.24021 8.85355 1.14645C8.75978 1.05268 8.63261 1 8.5 1C8.22386 1 8 0.776142 8 0.5ZM0.5 2.75C0.776142 2.75 1 2.97386 1 3.25V4.25C1 4.52614 0.776142 4.75 0.5 4.75C0.223858 4.75 0 4.52614 0 4.25V3.25C0 2.97386 0.223858 2.75 0.5 2.75ZM9.5 2.75C9.77614 2.75 10 2.97386 10 3.25V4.25C10 4.52614 9.77614 4.75 9.5 4.75C9.22386 4.75 9 4.52614 9 4.25V3.25C9 2.97386 9.22386 2.75 9.5 2.75ZM0.5 5.5C0.776142 5.5 1 5.72386 1 6H0.5H0C0 5.72386 0.223858 5.5 0.5 5.5ZM0.5 6H0V7C0 7.27614 0.223858 7.5 0.5 7.5C0.776142 7.5 1 7.27614 1 7V6H0.5ZM9.5 6C9.77614 6 10 6.22386 10 6.5C10 6.89783 9.84196 7.27936 9.56066 7.56066C9.27936 7.84196 8.89783 8 8.5 8C8.22386 8 8 7.77614 8 7.5C8 7.22386 8.22386 7 8.5 7C8.63261 7 8.75978 6.94732 8.85355 6.85355C8.94732 6.75978 9 6.63261 9 6.5C9 6.22386 9.22386 6 9.5 6ZM2.75 7.5C2.75 7.22386 2.97386 7 3.25 7H4.25C4.52614 7 4.75 7.22386 4.75 7.5C4.75 7.77614 4.52614 8 4.25 8H3.25C2.97386 8 2.75 7.77614 2.75 7.5ZM5.25 7.5C5.25 7.22386 5.47386 7 5.75 7H6.75C7.02614 7 7.25 7.22386 7.25 7.5C7.25 7.77614 7.02614 8 6.75 8H5.75C5.47386 8 5.25 7.77614 5.25 7.5ZM0.968349 8.32454C0.89729 8.13495 0.714405 8 0.5 8C0.223858 8 0 8.22386 0 8.5V9.5C0 9.70223 0.121821 9.88455 0.308658 9.96194C0.495495 10.0393 0.710554 9.99655 0.853553 9.85355L1.85355 8.85355C2.04882 8.65829 2.04882 8.34171 1.85355 8.14645C1.65829 7.95118 1.34171 7.95118 1.14645 8.14645L0.968349 8.32454Z" fill="black"/>
</svg>
