<svg width="11" height="12" viewBox="0 0 11 12" fill="none" xmlns="http://www.w3.org/2000/svg">
<path fill-rule="evenodd" clip-rule="evenodd" d="M6.74999 1.5C6.02064 1.5 5.32117 1.78973 4.80545 2.30546C4.44209 2.66881 4.19091 3.12338 4.0742 3.6154C4.01047 3.88408 3.74099 4.05023 3.4723 3.9865C3.20362 3.92277 3.03747 3.65329 3.1012 3.3846C3.26032 2.71376 3.60283 2.09386 4.09834 1.59835C4.8016 0.895088 5.75543 0.5 6.74999 0.5C7.74455 0.5 8.69838 0.895088 9.40164 1.59835C10.1049 2.30161 10.5 3.25544 10.5 4.25C10.5 5.09109 10.2875 5.74525 9.95606 6.27931C9.63074 6.80342 9.20407 7.18912 8.82008 7.50911C8.73332 7.58141 8.65041 7.64921 8.57127 7.71392C8.2808 7.95142 8.04113 8.14738 7.84837 8.37227C7.62541 8.63239 7.49999 8.8961 7.49999 9.25C7.49999 9.54547 7.44179 9.83805 7.32872 10.111C7.21565 10.384 7.04991 10.6321 6.84098 10.841C6.63205 11.0499 6.38401 11.2157 6.11103 11.3287C5.83804 11.4418 5.54546 11.5 5.24999 11.5C4.95451 11.5 4.66193 11.4418 4.38895 11.3287C4.11597 11.2157 3.86793 11.0499 3.659 10.841C3.45007 10.6321 3.28433 10.384 3.17126 10.111C3.06559 9.85592 3.18674 9.56343 3.44186 9.45776C3.69698 9.35208 3.98947 9.47323 4.09514 9.72835C4.15796 9.88001 4.25003 10.0178 4.36611 10.1339C4.48218 10.25 4.61998 10.342 4.77164 10.4048C4.92329 10.4677 5.08584 10.5 5.24999 10.5C5.41414 10.5 5.57669 10.4677 5.72834 10.4048C5.88 10.342 6.0178 10.25 6.13387 10.1339C6.24995 10.0178 6.34202 9.88001 6.40484 9.72835C6.46766 9.5767 6.49999 9.41415 6.49999 9.25C6.49999 8.6039 6.74957 8.11761 7.08911 7.72148C7.34564 7.4222 7.67511 7.15361 7.97413 6.90983C8.04488 6.85215 8.11393 6.79587 8.1799 6.74089C8.54591 6.43588 8.86923 6.13408 9.10642 5.75194C9.33744 5.37975 9.49999 4.90891 9.49999 4.25C9.49999 3.52065 9.21026 2.82118 8.69453 2.30546C8.17881 1.78973 7.47933 1.5 6.74999 1.5ZM5.51255 3.01256C5.84074 2.68437 6.28586 2.5 6.74999 2.5C7.21412 2.5 7.65924 2.68437 7.98743 3.01256C8.31561 3.34075 8.49999 3.78587 8.49999 4.25C8.49999 4.52614 8.27613 4.75 7.99999 4.75C7.72385 4.75 7.49999 4.52614 7.49999 4.25C7.49999 4.05109 7.42097 3.86032 7.28032 3.71967C7.13967 3.57902 6.9489 3.5 6.74999 3.5C6.55108 3.5 6.36031 3.57902 6.21966 3.71967C6.07901 3.86032 5.99999 4.05109 5.99999 4.25V4.33579C6.20894 4.40967 6.40095 4.52964 6.56065 4.68934C6.75591 4.8846 6.75591 5.20118 6.56065 5.39645C6.36539 5.59171 6.0488 5.59171 5.85354 5.39645C5.75977 5.30268 5.6326 5.25 5.49999 5.25C5.22385 5.25 4.99999 5.02614 4.99999 4.75V4.25C4.99999 3.78587 5.18436 3.34075 5.51255 3.01256ZM1.95452 4.33834C2.14978 4.14308 2.46636 4.14308 2.66162 4.33834L4.46975 6.14647C4.66502 6.34173 4.66502 6.65832 4.46975 6.85358L2.66162 8.66171C2.46636 8.85697 2.14978 8.85697 1.95452 8.66171C1.75925 8.46645 1.75925 8.14987 1.95452 7.9546L2.90909 7.00003H0.499939C0.223797 7.00003 -6.10352e-05 6.77617 -6.10352e-05 6.50003C-6.10352e-05 6.22388 0.223797 6.00003 0.499939 6.00003H2.90909L1.95452 5.04545C1.75925 4.85019 1.75925 4.5336 1.95452 4.33834Z" fill="black"/>
</svg>
