<svg width="12" height="12" viewBox="0 0 12 12" fill="none" xmlns="http://www.w3.org/2000/svg">
<path fill-rule="evenodd" clip-rule="evenodd" d="M3 2C3 1.17157 3.67157 0.5 4.5 0.5H7.5C8.32843 0.5 9 1.17157 9 2V10C9 10.8284 8.32843 11.5 7.5 11.5H4.5C3.67157 11.5 3 10.8284 3 10V2ZM8 5V2C8 1.72386 7.77614 1.5 7.5 1.5H4.5C4.22386 1.5 4 1.72386 4 2V5H8ZM4 6H8V10C8 10.2761 7.77614 10.5 7.5 10.5H4.5C4.22386 10.5 4 10.2761 4 10V6ZM4.79289 2.5C4.79289 2.22386 5.01675 2 5.29289 2H6.70711C6.98325 2 7.20711 2.22386 7.20711 2.5C7.20711 2.77614 6.98325 3 6.70711 3H5.29289C5.01675 3 4.79289 2.77614 4.79289 2.5ZM4.625 7.5C4.625 7.22386 4.84886 7 5.125 7H5.12903C5.40518 7 5.63 7.22386 5.63 7.5C5.63 7.77614 5.40614 8 5.13 8H5.12598C4.84984 8 4.625 7.77614 4.625 7.5ZM6.375 7.5C6.375 7.22386 6.59886 7 6.875 7H6.88C7.15614 7 7.38 7.22386 7.38 7.5C7.38 7.77614 7.15614 8 6.88 8H6.875C6.59886 8 6.375 7.77614 6.375 7.5ZM4.625 9C4.625 8.72386 4.84886 8.5 5.125 8.5H5.13C5.40614 8.5 5.63 8.72386 5.63 9C5.63 9.27614 5.40614 9.5 5.13 9.5H5.125C4.84886 9.5 4.625 9.27614 4.625 9ZM6.375 9C6.375 8.72386 6.59886 8.5 6.875 8.5H6.88C7.15614 8.5 7.38 8.72386 7.38 9C7.38 9.27614 7.15614 9.5 6.88 9.5H6.875C6.59886 9.5 6.375 9.27614 6.375 9Z" fill="black"/>
</svg>
