<svg width="12" height="12" viewBox="0 0 12 12" fill="none" xmlns="http://www.w3.org/2000/svg">
<path fill-rule="evenodd" clip-rule="evenodd" d="M5.59766 2.20885C5.17393 2.0425 4.7179 1.97474 4.26412 2.01073C3.81033 2.04672 3.37068 2.18551 2.97847 2.41658C2.58627 2.64765 2.25179 2.96494 2.00037 3.34443C1.74895 3.72392 1.58719 4.15564 1.52734 4.6069C1.46749 5.05816 1.51112 5.51713 1.65492 5.94903C1.79872 6.38093 2.03892 6.77445 2.35733 7.09977C2.55048 7.29712 2.54709 7.61368 2.34974 7.80684C2.15239 7.99999 1.83583 7.99659 1.64267 7.79925C1.21813 7.36549 0.897856 6.8408 0.706122 6.26493C0.514389 5.68905 0.45622 5.0771 0.536023 4.47542C0.615825 3.87374 0.831506 3.29811 1.16673 2.79213C1.50195 2.28614 1.94792 1.86309 2.47086 1.55499C2.99381 1.2469 3.58 1.06185 4.18505 1.01386C4.79011 0.965878 5.39814 1.05621 5.96311 1.27803C6.52808 1.49984 7.03516 1.84731 7.44595 2.29413C7.77116 2.64786 8.02927 3.05652 8.20886 3.50001H8.74994C9.33996 3.49995 9.91441 3.68966 10.3883 4.04111C10.8623 4.39257 11.2106 4.88715 11.3819 5.45178C11.5531 6.01641 11.5382 6.62116 11.3394 7.17668C11.1406 7.73221 10.7684 8.20906 10.2777 8.53679C10.0481 8.69017 9.73761 8.62836 9.58422 8.39873C9.43084 8.1691 9.49265 7.85861 9.72228 7.70523C10.0345 7.49668 10.2714 7.19323 10.3979 6.83971C10.5244 6.48619 10.5339 6.10136 10.4249 5.74205C10.3159 5.38273 10.0943 5.06801 9.79267 4.84435C9.49107 4.62069 9.12554 4.49997 8.75006 4.50001H7.855C7.63396 4.50001 7.43914 4.35486 7.3759 4.14306C7.24567 3.70687 7.01788 3.30604 6.70979 2.97093C6.4017 2.63582 6.02138 2.37521 5.59766 2.20885Z" fill="black"/>
<path d="M6 5.50001C6.27614 5.50001 6.5 5.72387 6.5 6.00001V9.2929L7.64645 8.14646C7.84171 7.95119 8.15829 7.95119 8.35355 8.14646C8.54882 8.34172 8.54882 8.6583 8.35355 8.85356L6.35355 10.8536C6.15829 11.0488 5.84171 11.0488 5.64645 10.8536L3.64645 8.85356C3.45119 8.6583 3.45119 8.34172 3.64645 8.14646C3.84171 7.95119 4.15829 7.95119 4.35355 8.14646L5.5 9.2929V6.00001C5.5 5.72387 5.72386 5.50001 6 5.50001Z" fill="black"/>
</svg>
