<svg width="12" height="12" viewBox="0 0 12 12" fill="none" xmlns="http://www.w3.org/2000/svg">
<path fill-rule="evenodd" clip-rule="evenodd" d="M4.93934 8.43934C5.22064 8.15804 5.60217 8 6 8C6.17197 8 6.3409 8.02953 6.5 8.08579V8C6.5 7.33696 6.23661 6.70107 5.76777 6.23223C5.29893 5.76339 4.66304 5.5 4 5.5C3.33696 5.5 2.70107 5.76339 2.23223 6.23223C1.76339 6.70107 1.5 7.33696 1.5 8V8.08579C1.6591 8.02953 1.82803 8 2 8C2.39783 8 2.77936 8.15804 3.06066 8.43934C3.34196 8.72064 3.5 9.10218 3.5 9.5V10C3.5 10.3978 3.34196 10.7794 3.06066 11.0607C2.77936 11.342 2.39783 11.5 2 11.5C1.60217 11.5 1.22064 11.342 0.93934 11.0607C0.658035 10.7794 0.5 10.3978 0.5 10V9.5V8C0.5 7.07174 0.868749 6.1815 1.52513 5.52513C2.1815 4.86875 3.07174 4.5 4 4.5C4.92826 4.5 5.8185 4.86875 6.47487 5.52513C7.13125 6.1815 7.5 7.07174 7.5 8V9.5V10C7.5 10.3978 7.34196 10.7794 7.06066 11.0607C6.77936 11.342 6.39783 11.5 6 11.5C5.60217 11.5 5.22064 11.342 4.93934 11.0607C4.65804 10.7794 4.5 10.3978 4.5 10V9.5C4.5 9.10217 4.65804 8.72064 4.93934 8.43934ZM5.64645 9.14645C5.74022 9.05268 5.86739 9 6 9C6.13261 9 6.25978 9.05268 6.35355 9.14645C6.44732 9.24022 6.5 9.36739 6.5 9.5V10C6.5 10.1326 6.44732 10.2598 6.35355 10.3536C6.25978 10.4473 6.13261 10.5 6 10.5C5.86739 10.5 5.74022 10.4473 5.64645 10.3536C5.55268 10.2598 5.5 10.1326 5.5 10V9.5C5.5 9.36739 5.55268 9.24022 5.64645 9.14645ZM1.64645 9.14645C1.74021 9.05268 1.86739 9 2 9C2.13261 9 2.25979 9.05268 2.35355 9.14645C2.44732 9.24022 2.5 9.36739 2.5 9.5V10C2.5 10.1326 2.44732 10.2598 2.35355 10.3536C2.25979 10.4473 2.13261 10.5 2 10.5C1.86739 10.5 1.74021 10.4473 1.64645 10.3536C1.55268 10.2598 1.5 10.1326 1.5 10V9.5C1.5 9.36739 1.55268 9.24022 1.64645 9.14645Z" fill="black"/>
<path fill-rule="evenodd" clip-rule="evenodd" d="M1.94645 0.946447C2.23722 0.655671 2.61322 0.5 3 0.5H7.25C7.38261 0.5 7.50979 0.552678 7.60355 0.646447L10.3536 3.39645C10.4473 3.49021 10.5 3.61739 10.5 3.75V10C10.5 10.3868 10.3443 10.7628 10.0536 11.0536C9.76278 11.3443 9.38678 11.5 9 11.5H8.75C8.47386 11.5 8.25 11.2761 8.25 11C8.25 10.7239 8.47386 10.5 8.75 10.5H9C9.11322 10.5 9.23722 10.4557 9.34645 10.3464C9.45567 10.2372 9.5 10.1132 9.5 10V4.5H7C6.72386 4.5 6.5 4.27614 6.5 4V1.5H3C2.88678 1.5 2.76278 1.54433 2.65355 1.65355C2.54433 1.76278 2.5 1.88678 2.5 2V3.5C2.5 3.77614 2.27614 4 2 4C1.72386 4 1.5 3.77614 1.5 3.5V2C1.5 1.61322 1.65567 1.23722 1.94645 0.946447ZM9.04289 3.5H7.5V1.95711L9.04289 3.5Z" fill="black"/>
</svg>
