<svg width="12" height="12" viewBox="0 0 12 12" fill="none" xmlns="http://www.w3.org/2000/svg">
<g clip-path="url(#clip0_10011_4709)">
<path fill-rule="evenodd" clip-rule="evenodd" d="M2.09 0.5C1.21187 0.5 0.5 1.21187 0.5 2.09V9.91C0.5 10.7881 1.21187 11.5 2.09 11.5H9.91C10.7881 11.5 11.5 10.7881 11.5 9.91V2.09C11.5 1.21187 10.7881 0.5 9.91 0.5H2.09ZM4 5.5V1.5H8V5.5H4ZM10.5 5.5H9V4H10.5V5.5ZM10.5 2.09C10.5 1.76415 10.2358 1.5 9.91 1.5H9V3H10.5V2.09ZM10.5 8H9V6.5H10.5V8ZM9.91 10.5C10.2358 10.5 10.5 10.2358 10.5 9.91V9H9V10.5H9.91ZM1.5 2.09C1.5 1.76415 1.76415 1.5 2.09 1.5H3V3H1.5V2.09ZM3 4H1.5V5.5H3V4ZM1.5 6.5H3V8H1.5V6.5ZM1.5 9.91C1.5 10.2358 1.76415 10.5 2.09 10.5H3V9H1.5V9.91ZM8 6.5V10.5H4V6.5H8Z" fill="black"/>
</g>
<defs>
<clipPath id="clip0_10011_4709">
<rect width="12" height="12" fill="white"/>
</clipPath>
</defs>
</svg>
