<svg width="12" height="12" viewBox="0 0 12 12" fill="none" xmlns="http://www.w3.org/2000/svg">
<g clip-path="url(#clip0_10011_4763)">
<path fill-rule="evenodd" clip-rule="evenodd" d="M4 1.5C4 1.22386 4.22386 1 4.5 1H10C10.3978 1 10.7794 1.15804 11.0607 1.43934C11.342 1.72064 11.5 2.10217 11.5 2.5V7.5C11.5 7.77614 11.2761 8 11 8C10.7239 8 10.5 7.77614 10.5 7.5V2.5C10.5 2.36739 10.4473 2.24021 10.3536 2.14645C10.2598 2.05268 10.1326 2 10 2H4.5C4.22386 2 4 1.77614 4 1.5Z" fill="black"/>
<path fill-rule="evenodd" clip-rule="evenodd" d="M0.5 2.5V7.5C0.5 7.89782 0.658035 8.27936 0.93934 8.56066C1.22064 8.84196 1.60217 9 2 9H5.5V10H4C3.72386 10 3.5 10.2239 3.5 10.5C3.5 10.7761 3.72386 11 4 11H8C8.27614 11 8.5 10.7761 8.5 10.5C8.5 10.2239 8.27614 10 8 10H6.5V9H8.29289L10.6464 11.3536C10.8417 11.5488 11.1583 11.5488 11.3536 11.3536C11.5488 11.1583 11.5488 10.8417 11.3536 10.6464L1.35355 0.646447C1.15829 0.451184 0.841709 0.451184 0.646447 0.646447C0.451184 0.841709 0.451184 1.15829 0.646447 1.35355L0.791389 1.4985C0.63031 1.73391 0.5 2.06374 0.5 2.5ZM1.64645 7.85355C1.74021 7.94732 1.86739 8 2 8H7.29289L1.534 2.24111C1.51373 2.31053 1.5 2.39579 1.5 2.5V7.5C1.5 7.63261 1.55268 7.75979 1.64645 7.85355Z" fill="black"/>
</g>
<defs>
<clipPath id="clip0_10011_4763">
<rect width="12" height="12" fill="white"/>
</clipPath>
</defs>
</svg>
