<svg width="12" height="12" viewBox="0 0 12 12" fill="none" xmlns="http://www.w3.org/2000/svg">
<path fill-rule="evenodd" clip-rule="evenodd" d="M6.5 11C6.5 11.2761 6.27614 11.5 6 11.5C5.72386 11.5 5.5 11.2761 5.5 11V9H5C4.33696 9 3.70107 8.73661 3.23223 8.26777C2.76339 7.79893 2.5 7.16304 2.5 6.5V4C2.5 3.72386 2.72386 3.5 3 3.5H4V1C4 0.723858 4.22386 0.5 4.5 0.5C4.77614 0.5 5 0.723858 5 1V3.5H7V1C7 0.723858 7.22386 0.5 7.5 0.5C7.77614 0.5 8 0.723858 8 1V3.5H9C9.27614 3.5 9.5 3.72386 9.5 4V6.5C9.5 7.16304 9.23661 7.79893 8.76777 8.26777C8.29893 8.73661 7.66304 9 7 9H6.5V11ZM3.5 6.5V4.5H8.5V6.5C8.5 6.89782 8.34196 7.27936 8.06066 7.56066C7.77936 7.84196 7.39782 8 7 8H5C4.60218 8 4.22064 7.84196 3.93934 7.56066C3.65804 7.27936 3.5 6.89782 3.5 6.5Z" fill="black"/>
</svg>
