<svg width="12" height="12" viewBox="0 0 12 12" fill="none" xmlns="http://www.w3.org/2000/svg">
<g clip-path="url(#clip0_10011_4695)">
<path fill-rule="evenodd" clip-rule="evenodd" d="M2.5 1C2.5 0.723858 2.72386 0.5 3 0.5H9C9.27614 0.5 9.5 0.723858 9.5 1V4H10C10.3978 4 10.7794 4.15804 11.0607 4.43934C11.342 4.72064 11.5 5.10217 11.5 5.5V8C11.5 8.39783 11.342 8.77936 11.0607 9.06066C10.7794 9.34196 10.3978 9.5 10 9.5H9.5V11C9.5 11.2761 9.27614 11.5 9 11.5H3C2.72386 11.5 2.5 11.2761 2.5 11V9.5H2C1.60217 9.5 1.22064 9.34196 0.93934 9.06066C0.658035 8.77936 0.5 8.39782 0.5 8V5.5C0.5 5.10218 0.658035 4.72064 0.93934 4.43934C1.22064 4.15804 1.60217 4 2 4H2.5V1ZM3.5 1.5H8.5V4H3.5V1.5ZM1.64645 5.14645C1.74021 5.05268 1.86739 5 2 5H10C10.1326 5 10.2598 5.05268 10.3536 5.14645C10.4473 5.24022 10.5 5.36739 10.5 5.5V8C10.5 8.13261 10.4473 8.25978 10.3536 8.35355C10.2598 8.44732 10.1326 8.5 10 8.5H9.5V7C9.5 6.72386 9.27614 6.5 9 6.5H3C2.72386 6.5 2.5 6.72386 2.5 7V8.5H2C1.86739 8.5 1.74021 8.44732 1.64645 8.35355C1.55268 8.25978 1.5 8.13261 1.5 8V5.5C1.5 5.36739 1.55268 5.24021 1.64645 5.14645ZM3.5 10.5V7.5H8.5V10.5H3.5Z" fill="black"/>
</g>
<defs>
<clipPath id="clip0_10011_4695">
<rect width="12" height="12" fill="white"/>
</clipPath>
</defs>
</svg>
