<svg width="12" height="12" viewBox="0 0 12 12" fill="none" xmlns="http://www.w3.org/2000/svg">
<path fill-rule="evenodd" clip-rule="evenodd" d="M0.93934 1.43934C1.22064 1.15804 1.60218 1 2 1H6.5C6.77614 1 7 1.22386 7 1.5C7 1.77614 6.77614 2 6.5 2H2C1.86739 2 1.74021 2.05268 1.64645 2.14645C1.55268 2.24021 1.5 2.36739 1.5 2.5V7.5C1.5 7.63261 1.55268 7.75979 1.64645 7.85355C1.74021 7.94732 1.86739 8 2 8H10C10.1326 8 10.2598 7.94732 10.3536 7.85355C10.4473 7.75978 10.5 7.63261 10.5 7.5V6C10.5 5.72386 10.7239 5.5 11 5.5C11.2761 5.5 11.5 5.72386 11.5 6V7.5C11.5 7.89783 11.342 8.27936 11.0607 8.56066C10.7794 8.84196 10.3978 9 10 9H6.5V10H8C8.27614 10 8.5 10.2239 8.5 10.5C8.5 10.7761 8.27614 11 8 11H4C3.72386 11 3.5 10.7761 3.5 10.5C3.5 10.2239 3.72386 10 4 10H5.5V9H2C1.60218 9 1.22064 8.84196 0.93934 8.56066C0.658035 8.27936 0.5 7.89782 0.5 7.5V2.5C0.5 2.10218 0.658035 1.72064 0.93934 1.43934ZM8.14645 1.14645C8.34171 0.951184 8.65829 0.951184 8.85355 1.14645L9.75 2.04289L10.6464 1.14645C10.8417 0.951184 11.1583 0.951184 11.3536 1.14645C11.5488 1.34171 11.5488 1.65829 11.3536 1.85355L10.4571 2.75L11.3536 3.64645C11.5488 3.84171 11.5488 4.15829 11.3536 4.35355C11.1583 4.54882 10.8417 4.54882 10.6464 4.35355L9.75 3.45711L8.85355 4.35355C8.65829 4.54882 8.34171 4.54882 8.14645 4.35355C7.95118 4.15829 7.95118 3.84171 8.14645 3.64645L9.04289 2.75L8.14645 1.85355C7.95118 1.65829 7.95118 1.34171 8.14645 1.14645Z" fill="black"/>
</svg>
