<svg width="12" height="12" viewBox="0 0 12 12" fill="none" xmlns="http://www.w3.org/2000/svg">
<path d="M2 9.00001C1.44772 9.00001 1 9.44773 1 10C1 10.5523 1.44772 11 2 11C2.55228 11 3 10.5523 3 10C3 9.91043 2.98822 9.82361 2.96613 9.74099L5.12042 7.5867L7.3143 8.46425C7.50001 8.53854 7.71212 8.495 7.85355 8.35357L9.26541 6.94171C9.45441 7.04218 9.69432 7.0128 9.85355 6.85357L10.3536 6.35357C10.5488 6.15831 10.5488 5.84172 10.3536 5.64646L9.85355 5.14646C9.65829 4.9512 9.34171 4.9512 9.14645 5.14646L8.64645 5.64646C8.48722 5.80569 8.45783 6.0456 8.5583 6.23461L7.37958 7.41333L5.88973 6.81739L9.5 3.20712L9.64645 3.35357C9.76898 3.4761 9.94622 3.52645 10.1149 3.48664C10.2835 3.44682 10.4195 3.32252 10.4743 3.15813L10.9743 1.65813C11.0342 1.47846 10.9875 1.28038 10.8536 1.14646C10.7196 1.01254 10.5216 0.965783 10.3419 1.02567L8.84189 1.52567C8.67749 1.58047 8.55319 1.71648 8.51338 1.88514C8.47356 2.05379 8.52391 2.23103 8.64645 2.35357L8.79289 2.50001L3.68262 7.61028L3.08669 6.12044L4.74098 4.46614C4.82359 4.48823 4.91042 4.50001 5 4.50001C5.55228 4.50001 6 4.0523 6 3.50001C6 2.94773 5.55228 2.50001 5 2.50001C4.44772 2.50001 4 2.94773 4 3.50001C4 3.58959 4.01178 3.67642 4.03387 3.75904L2.14645 5.64646C2.00502 5.78789 1.96148 6 2.03576 6.18571L2.91331 8.37959L2.25902 9.03389C2.17641 9.01179 2.08958 9.00001 2 9.00001Z" fill="black"/>
</svg>
