<svg width="12" height="12" viewBox="0 0 12 12" fill="none" xmlns="http://www.w3.org/2000/svg">
<path fill-rule="evenodd" clip-rule="evenodd" d="M6 1.5C4.067 1.5 2.5 3.067 2.5 5C2.5 6.933 4.067 8.5 6 8.5C7.933 8.5 9.5 6.933 9.5 5C9.5 3.067 7.933 1.5 6 1.5ZM1.5 5C1.5 2.51472 3.51472 0.5 6 0.5C8.48528 0.5 10.5 2.51472 10.5 5C10.5 7.31628 8.74998 9.22381 6.5 9.47254V10.5H8.5C8.77614 10.5 9 10.7239 9 11C9 11.2761 8.77614 11.5 8.5 11.5H3.5C3.22386 11.5 3 11.2761 3 11C3 10.7239 3.22386 10.5 3.5 10.5H5.5V9.47254C3.25002 9.22381 1.5 7.31628 1.5 5ZM6 4C5.44772 4 5 4.44772 5 5C5 5.55228 5.44772 6 6 6C6.55228 6 7 5.55228 7 5C7 4.44772 6.55228 4 6 4ZM4 5C4 3.89543 4.89543 3 6 3C7.10457 3 8 3.89543 8 5C8 6.10457 7.10457 7 6 7C4.89543 7 4 6.10457 4 5Z" fill="black"/>
</svg>
