<svg width="12" height="12" viewBox="0 0 12 12" fill="none" xmlns="http://www.w3.org/2000/svg">
<g clip-path="url(#clip0_10011_4678)">
<path fill-rule="evenodd" clip-rule="evenodd" d="M6.69876 0.541233C6.90243 0.629466 7.02355 0.841398 6.99619 1.06166L6.70119 3.43666C6.66715 3.7107 6.4174 3.90525 6.14337 3.87122C5.86933 3.83718 5.67477 3.58743 5.70881 3.3134L5.79364 2.63048L5.66933 2.77986C5.49269 2.99212 5.17742 3.02099 4.96517 2.84435C4.75291 2.66772 4.72403 2.35245 4.90067 2.14019L6.11567 0.680195C6.25765 0.509589 6.4951 0.453 6.69876 0.541233Z" fill="black"/>
<path fill-rule="evenodd" clip-rule="evenodd" d="M7.33 5.00003C7.33 4.72389 7.55386 4.50003 7.83 4.50003H10.5C10.6941 4.50003 10.8707 4.61236 10.9529 4.78818C11.0351 4.964 11.0082 5.17152 10.8838 5.32051L9.66879 6.77551C9.49179 6.98747 9.17648 7.01581 8.96452 6.83881C8.75256 6.66182 8.72422 6.34651 8.90121 6.13455L9.43107 5.50003H7.83C7.55386 5.50003 7.33 5.27617 7.33 5.00003Z" fill="black"/>
<path fill-rule="evenodd" clip-rule="evenodd" d="M5.88411 11.3201C5.74201 11.4906 5.50451 11.5471 5.3009 11.4587C5.0973 11.3703 4.97633 11.1583 5.00386 10.938L5.43361 7.50003H1.5C1.30599 7.50003 1.1295 7.3878 1.04721 7.21211C0.964915 7.03641 0.991688 6.82898 1.11589 6.67994L3.32358 4.03071L0.646447 1.35358C0.451184 1.15832 0.451184 0.841737 0.646447 0.646475C0.841709 0.451213 1.15829 0.451213 1.35355 0.646475L11.3536 10.6465C11.5488 10.8417 11.5488 11.1583 11.3536 11.3536C11.1583 11.5488 10.8417 11.5488 10.6464 11.3536L8.0336 8.74073L5.88411 11.3201ZM6.20767 9.3698L6.48045 7.18758L7.32358 8.03071L6.20767 9.3698ZM5.79289 6.50003H2.56752L4.0336 4.74073L5.79289 6.50003Z" fill="black"/>
</g>
<defs>
<clipPath id="clip0_10011_4678">
<rect width="12" height="12" fill="white"/>
</clipPath>
</defs>
</svg>
