<svg width="12" height="12" viewBox="0 0 12 12" fill="none" xmlns="http://www.w3.org/2000/svg">
<g clip-path="url(#clip0_14076_2797)">
<path fill-rule="evenodd" clip-rule="evenodd" d="M3.70895 10.4161C3.51368 10.2208 3.51368 9.90426 3.70895 9.70899L5.23039 8.18755L4.0625 7.01965L2.54105 8.5411C2.34579 8.73636 2.02921 8.73636 1.83395 8.5411C1.63868 8.34584 1.63868 8.02926 1.83395 7.83399L3.35539 6.31255L2.77145 5.7286C2.57618 5.53334 2.57618 5.21675 2.77145 5.02149L4.33395 3.45899C4.75923 3.0337 5.33605 2.79478 5.9375 2.79478C6.53895 2.79478 7.11576 3.0337 7.54105 3.45899L7.8125 3.73044L9.02145 2.52149C9.21671 2.32623 9.53329 2.32623 9.72855 2.52149C9.92382 2.71675 9.92382 3.03334 9.72855 3.2286L8.51961 4.43754L8.79105 4.70899C9.21634 5.13428 9.45527 5.7111 9.45527 6.31254C9.45527 6.91399 9.21634 7.49081 8.79105 7.9161L7.22855 9.4786C7.03329 9.67386 6.71671 9.67386 6.52145 9.4786L5.9375 8.89465L4.41605 10.4161C4.22079 10.6114 3.90421 10.6114 3.70895 10.4161ZM6.83395 4.1661C6.59619 3.92835 6.27373 3.79478 5.9375 3.79478C5.60127 3.79478 5.27881 3.92835 5.04105 4.1661L3.83211 5.37505L6.875 8.41794L8.08395 7.20899C8.3217 6.97124 8.45527 6.64878 8.45527 6.31255C8.45527 5.97631 8.3217 5.65385 8.08395 5.4161L6.83395 4.1661Z" fill="black"/>
</g>
<defs>
<clipPath id="clip0_14076_2797">
<rect width="12" height="12" fill="white"/>
</clipPath>
</defs>
</svg>
