<svg width="12" height="12" viewBox="0 0 12 12" fill="none" xmlns="http://www.w3.org/2000/svg">
<path fill-rule="evenodd" clip-rule="evenodd" d="M6 1.75C4.93913 1.75 3.92172 2.17143 3.17157 2.92157C2.42143 3.67172 2 4.68913 2 5.75V8.25H1V5.75C1 4.42392 1.52678 3.15215 2.46447 2.21447C3.40215 1.27678 4.67392 0.75 6 0.75C7.32608 0.75 8.59785 1.27678 9.53553 2.21447C10.4732 3.15215 11 4.42392 11 5.75V8.75C11 10.1307 9.88071 11.25 8.5 11.25H5.5C4.94771 11.25 4.5 10.8023 4.5 10.25V9.75C4.5 8.92157 5.17157 8.25 6 8.25C6.82843 8.25 7.5 8.92157 7.5 9.75V10.25H8.5C9.32843 10.25 10 9.57843 10 8.75V5.75C10 4.68913 9.57857 3.67172 8.82843 2.92157C8.07828 2.17143 7.06087 1.75 6 1.75ZM6.5 10.25V9.75C6.5 9.47386 6.27614 9.25 6 9.25C5.72386 9.25 5.5 9.47386 5.5 9.75V10.25H6.5ZM3.5 5.75V8.25H2.5V5.75H3.5ZM9.5 5.75V8.25H8.5V5.75H9.5Z" fill="black"/>
</svg>
