<svg width="12" height="12" viewBox="0 0 12 12" fill="none" xmlns="http://www.w3.org/2000/svg">
<path fill-rule="evenodd" clip-rule="evenodd" d="M2 3.00342C1.72386 3.00342 1.5 3.22728 1.5 3.50342V8.49664C1.5 8.77278 1.72386 8.99664 2 8.99664H7.50218C7.77833 8.99664 8.00218 8.77278 8.00218 8.49664V3.50342C8.00218 3.22728 7.77833 3.00342 7.50218 3.00342H2ZM9.00218 4.25474V3.50342C9.00218 2.67499 8.33061 2.00342 7.50218 2.00342H2C1.17157 2.00342 0.5 2.67499 0.5 3.50342V8.49664C0.5 9.32507 1.17157 9.99664 2 9.99664H7.50218C8.33061 9.99664 9.00218 9.32507 9.00218 8.49664V7.73225L10.8142 8.45767C10.9682 8.51935 11.1428 8.50058 11.2803 8.40757C11.4177 8.31456 11.5 8.15943 11.5 7.99349V3.99349C11.5 3.82755 11.4177 3.67243 11.2803 3.57942C11.1428 3.48641 10.9682 3.46764 10.8142 3.52931L9.00218 4.25474ZM9.00218 5.3319V6.65509L10.5 7.25474V4.73225L9.00218 5.3319Z" fill="black"/>
</svg>
