<svg width="12" height="12" viewBox="0 0 12 12" fill="none" xmlns="http://www.w3.org/2000/svg">
<path fill-rule="evenodd" clip-rule="evenodd" d="M0.646447 0.646447C0.841709 0.451184 1.15829 0.451184 1.35355 0.646447L11.3536 10.6464C11.5488 10.8417 11.5488 11.1583 11.3536 11.3536C11.1583 11.5488 10.8417 11.5488 10.6464 11.3536L8.69709 9.4042C8.65524 9.45976 8.60934 9.51265 8.55958 9.56241C8.27828 9.84372 7.89675 10.0018 7.49892 10.0018H2C1.60218 10.0018 1.22064 9.84372 0.93934 9.56241C0.658035 9.28111 0.5 8.89958 0.5 8.50175V3.49825C0.5 3.10042 0.658035 2.71889 0.93934 2.43759C1.0762 2.30073 1.23679 2.19304 1.41144 2.11854L0.646447 1.35355C0.451184 1.15829 0.451184 0.841709 0.646447 0.646447ZM2.29107 2.99825H2C1.86739 2.99825 1.74021 3.05093 1.64645 3.1447C1.55268 3.23846 1.5 3.36564 1.5 3.49825V8.50175C1.5 8.63436 1.55268 8.76154 1.64645 8.8553C1.74021 8.94907 1.86739 9.00175 2 9.00175H7.49892C7.63153 9.00175 7.75871 8.94907 7.85248 8.8553C7.9035 8.80428 7.94237 8.74335 7.96719 8.67704L2.29107 2.99825ZM7.49892 2.99825H5.82892C5.55278 2.99825 5.32892 2.77439 5.32892 2.49825C5.32892 2.22211 5.55278 1.99825 5.82892 1.99825H7.49892C7.89675 1.99825 8.27828 2.15628 8.55958 2.43759C8.84089 2.71889 8.99892 3.10042 8.99892 3.49825V4.25582L10.8156 3.53523C10.9696 3.47415 11.1439 3.4933 11.2809 3.58637C11.418 3.67944 11.5 3.83434 11.5 4V8C11.5 8.27614 11.2761 8.5 11 8.5C10.7239 8.5 10.5 8.27614 10.5 8V4.73622L8.68435 5.45639C8.53054 5.51739 8.35651 5.49836 8.21953 5.40554C8.08255 5.31273 8.00036 5.15815 8 4.99269L7.99892 4.49269L7.99892 3.49825C7.99892 3.36564 7.94624 3.23846 7.85248 3.1447C7.75871 3.05093 7.63153 2.99825 7.49892 2.99825Z" fill="black"/>
</svg>
