<svg width="12" height="12" viewBox="0 0 12 12" fill="none" xmlns="http://www.w3.org/2000/svg">
<path fill-rule="evenodd" clip-rule="evenodd" d="M5.98592 11C6.08627 10.9358 6.23681 10.8451 6.23681 10.8451L6.23787 10.8443L6.24043 10.8424L6.24938 10.8355C6.25703 10.8296 6.268 10.8211 6.28207 10.81C6.31021 10.788 6.35076 10.7558 6.40196 10.7141C6.50432 10.6308 6.64943 10.5096 6.82307 10.3558C7.16979 10.0486 7.63307 9.60898 8.09757 9.07989C9.00807 8.04279 10 6.57663 10 5.04991C10 3.97581 9.57857 2.9457 8.82843 2.18619C8.07828 1.42669 7.06087 1 6 1C4.93913 1 3.92172 1.42669 3.17157 2.18619C2.42143 2.9457 2 3.97581 2 5.04991C2 6.57663 2.99193 8.04279 3.90243 9.07989C4.36693 9.60898 4.83021 10.0486 5.17693 10.3558C5.35057 10.5096 5.49568 10.6308 5.59804 10.7141C5.64924 10.7558 5.68979 10.788 5.71793 10.81C5.7257 10.8161 5.73253 10.8215 5.73838 10.826C5.74311 10.8297 5.74719 10.8328 5.75062 10.8355L5.75957 10.8424L5.76213 10.8443L5.76292 10.8449C5.76292 10.8449 5.79049 10.8627 5.98592 11ZM6 4.08021C6.52895 4.08021 6.95775 4.51436 6.95775 5.04991C6.95775 5.58546 6.52895 6.01961 6 6.01961C5.47105 6.01961 5.04225 5.58546 5.04225 5.04991C5.04225 4.51436 5.47105 4.08021 6 4.08021ZM7.74648 5.04991C7.74648 4.07332 6.96455 3.28164 6 3.28164C5.03545 3.28164 4.25352 4.07332 4.25352 5.04991C4.25352 6.0265 5.03545 6.81818 6 6.81818C6.96455 6.81818 7.74648 6.0265 7.74648 5.04991Z" fill="black"/>
</svg>
