<svg width="12" height="12" viewBox="0 0 12 12" fill="none" xmlns="http://www.w3.org/2000/svg">
<path fill-rule="evenodd" clip-rule="evenodd" d="M6 11C6.2625 11.35 6.26271 11.3498 6.26271 11.3498L6.26389 11.349L6.26673 11.3468L6.27666 11.3393C6.28514 11.3328 6.29731 11.3235 6.31292 11.3114C6.34413 11.2872 6.38912 11.2519 6.44592 11.2063C6.55948 11.115 6.72046 10.9822 6.9131 10.8136C7.29774 10.4771 7.81168 9.99538 8.32699 9.41566C9.33708 8.27931 10.4375 6.67283 10.4375 5C10.4375 3.8231 9.96998 2.69441 9.13779 1.86221C8.30559 1.03002 7.1769 0.5625 6 0.5625C4.8231 0.5625 3.69441 1.03002 2.86221 1.86221C2.03002 2.69441 1.5625 3.8231 1.5625 5C1.5625 6.67283 2.66292 8.27931 3.67301 9.41566C4.18832 9.99538 4.70226 10.4771 5.0869 10.8136C5.27953 10.9822 5.44052 11.115 5.55408 11.2063C5.61088 11.2519 5.65586 11.2872 5.68708 11.3114C5.6957 11.3181 5.70328 11.3239 5.70976 11.3289C5.71501 11.3329 5.71954 11.3364 5.72334 11.3393L5.73327 11.3468L5.73611 11.349L5.73699 11.3496C5.73699 11.3496 5.7375 11.35 6 11ZM6 11L5.7375 11.35C5.89305 11.4667 6.10715 11.4665 6.26271 11.3498L6 11ZM6 3.9375C6.5868 3.9375 7.0625 4.4132 7.0625 5C7.0625 5.5868 6.5868 6.0625 6 6.0625C5.4132 6.0625 4.9375 5.5868 4.9375 5C4.9375 4.4132 5.4132 3.9375 6 3.9375ZM7.9375 5C7.9375 3.92995 7.07005 3.0625 6 3.0625C4.92995 3.0625 4.0625 3.92995 4.0625 5C4.0625 6.07005 4.92995 6.9375 6 6.9375C7.07005 6.9375 7.9375 6.07005 7.9375 5Z" fill="black"/>
</svg>
