<svg width="24" height="24" viewBox="0 0 24 24" fill="none" xmlns="http://www.w3.org/2000/svg">
<rect width="24" height="24" rx="3.6" fill="#F2F0EE"/>
<path d="M17.0542 13.5694V10.3545C17.0542 10.0603 17.2122 9.78875 17.4679 9.64333L19.3086 8.59663C19.854 8.28651 20.5311 8.68041 20.5311 9.3078V14.6521C20.5311 15.2849 19.8436 15.6781 19.2982 15.3573L17.4575 14.2745C17.2076 14.1275 17.0542 13.8593 17.0542 13.5694Z" fill="url(#paint0_linear_16274_35)"/>
<path d="M14.4072 5.5625C16.0641 5.5625 17.4082 6.90565 17.4082 8.5625V15.3906C17.4081 17.0474 16.064 18.3906 14.4072 18.3906H7.5625C5.90569 18.3906 4.56257 17.0474 4.5625 15.3906V8.5625C4.5625 6.90565 5.90565 5.5625 7.5625 5.5625H14.4072ZM13.7168 9.78223V12.0928C13.4834 11.7355 12.959 11.4611 12.4092 11.4609C11.2258 11.4609 10.375 12.4006 10.375 13.6973C10.3751 14.9938 11.2259 15.9414 12.4092 15.9414C12.9591 15.9413 13.4835 15.6581 13.7168 15.3008V15.8584H14.6836V9.78223H13.7168ZM12.5674 12.3008C13.1922 12.3009 13.6583 12.7577 13.7168 13.4141V13.9629C13.6585 14.6195 13.1923 15.1015 12.5674 15.1016C11.8673 15.1016 11.3672 14.5197 11.3672 13.6885C11.3673 12.8574 11.8674 12.3008 12.5674 12.3008ZM9.51758 7.68555C9.50737 7.61762 9.38751 7.60142 9.3623 7.66504C8.96389 8.89263 8.10131 9.85374 6.9541 10.3223C6.89844 10.3486 6.90912 10.4424 6.96875 10.457C7.87253 10.6741 8.57433 11.4787 8.73145 12.4863C8.74224 12.5524 8.85187 12.567 8.87695 12.5049C9.33624 11.2202 10.2165 10.2554 11.334 9.87793C11.3917 9.85168 11.3792 9.75103 11.3174 9.7373C10.3922 9.53193 9.67209 8.71313 9.51758 7.68555Z" fill="#10022C"/>
<path d="M14.4072 5.5625C16.0641 5.5625 17.4082 6.90565 17.4082 8.5625V15.3906C17.4081 17.0474 16.064 18.3906 14.4072 18.3906H7.5625C5.90569 18.3906 4.56257 17.0474 4.5625 15.3906V8.5625C4.5625 6.90565 5.90565 5.5625 7.5625 5.5625H14.4072ZM13.7168 9.78223V12.0928C13.4834 11.7355 12.959 11.4611 12.4092 11.4609C11.2258 11.4609 10.375 12.4006 10.375 13.6973C10.3751 14.9938 11.2259 15.9414 12.4092 15.9414C12.9591 15.9413 13.4835 15.6581 13.7168 15.3008V15.8584H14.6836V9.78223H13.7168ZM12.5674 12.3008C13.1922 12.3009 13.6583 12.7577 13.7168 13.4141V13.9629C13.6585 14.6195 13.1923 15.1015 12.5674 15.1016C11.8673 15.1016 11.3672 14.5197 11.3672 13.6885C11.3673 12.8574 11.8674 12.3008 12.5674 12.3008ZM9.51758 7.68555C9.50737 7.61762 9.38751 7.60142 9.3623 7.66504C8.96389 8.89263 8.10131 9.85374 6.9541 10.3223C6.89844 10.3486 6.90912 10.4424 6.96875 10.457C7.87253 10.6741 8.57433 11.4787 8.73145 12.4863C8.74224 12.5524 8.85187 12.567 8.87695 12.5049C9.33624 11.2202 10.2165 10.2554 11.334 9.87793C11.3917 9.85168 11.3792 9.75103 11.3174 9.7373C10.3922 9.53193 9.67209 8.71313 9.51758 7.68555Z" fill="url(#paint1_linear_16274_35)"/>
<defs>
<linearGradient id="paint0_linear_16274_35" x1="10.9866" y1="2.72016" x2="23.2481" y2="4.26605" gradientUnits="userSpaceOnUse">
<stop offset="0.0601577" stop-color="#10022C"/>
<stop offset="0.200258" stop-color="#611F93"/>
<stop offset="0.289616" stop-color="#8223A1"/>
<stop offset="0.366456" stop-color="#9325A5"/>
<stop offset="0.459136" stop-color="#C52599" stop-opacity="0.9"/>
<stop offset="0.563509" stop-color="#D52C86"/>
<stop offset="0.658104" stop-color="#EA2F6F"/>
<stop offset="0.73655" stop-color="#F64850"/>
<stop offset="0.895954" stop-color="#FD6D2D"/>
<stop offset="0.955002" stop-color="#FF9E0E" stop-opacity="0.95"/>
</linearGradient>
<linearGradient id="paint1_linear_16274_35" x1="2.55543" y1="2.79646" x2="17.7882" y2="18.4109" gradientUnits="userSpaceOnUse">
<stop offset="0.0601577" stop-color="#10022C"/>
<stop offset="0.200258" stop-color="#611F93"/>
<stop offset="0.289616" stop-color="#8223A1"/>
<stop offset="0.366456" stop-color="#9325A5"/>
<stop offset="0.459136" stop-color="#C52599" stop-opacity="0.9"/>
<stop offset="0.563509" stop-color="#D52C86"/>
<stop offset="0.658104" stop-color="#EA2F6F"/>
<stop offset="0.73655" stop-color="#F64850"/>
<stop offset="0.895954" stop-color="#FD6D2D"/>
<stop offset="0.955002" stop-color="#FF9E0E" stop-opacity="0.95"/>
</linearGradient>
</defs>
</svg>
