<svg width="24" height="24" viewBox="0 0 24 24" fill="none" xmlns="http://www.w3.org/2000/svg">
<path d="M5.5 1C4.67157 1 4 1.67157 4 2.5V21.5C4 22.3284 4.67157 23 5.5 23H18.5C19.3284 23 20 22.3284 20 21.5V7L14 1H5.5Z" fill="#4E8DF5"/>
<path d="M5.5 23C4.67157 23 4 22.3284 4 21.5V21.25C4 22.0784 4.67157 22.75 5.5 22.75H18.5C19.3284 22.75 20 22.0784 20 21.25V21.5C20 22.3284 19.3284 23 18.5 23H5.5Z" fill="#417EE9"/>
<path d="M5.5 1C4.67157 1 4 1.67157 4 2.5V2.75C4 1.92157 4.67157 1.25 5.5 1.25H14.25L14 1H5.5Z" fill="#639AF6"/>
<path d="M20 12.125V7L19.125 6.125H14.9053C14.5712 6.125 14.4039 6.52893 14.6401 6.76517L20 12.125Z" fill="url(#paint0_linear_11546_3388)"/>
<path d="M14 1L20 7H15.5C14.6716 7 14 6.32843 14 5.5V1Z" fill="#A6C5FA"/>
<path d="M16 12H8V13H16V12Z" fill="white"/>
<path d="M16 14H8V15H16V14Z" fill="white"/>
<path d="M8 16H16V17H8V16Z" fill="white"/>
<path d="M14 18H8V19H14V18Z" fill="white"/>
<defs>
<linearGradient id="paint0_linear_11546_3388" x1="17" y1="12.125" x2="17" y2="6" gradientUnits="userSpaceOnUse">
<stop stop-color="#4E8DF5"/>
<stop offset="1" stop-color="#3D6ACD"/>
</linearGradient>
</defs>
</svg>
