<svg width="24" height="24" viewBox="0 0 24 24" fill="none" xmlns="http://www.w3.org/2000/svg">
  <path d="M9.16858 14.057H6.59717V11.4857H9.16858V14.057Z" fill="#E20975"/>
  <path d="M6.59717 5.57141V9.94289H7.36859V9.81424C7.36859 7.7571 8.52574 6.47144 10.7115 6.47144H10.84V15.7286C10.84 17.0142 10.3257 17.5285 9.04 17.5285H8.65431V18.4286H15.34V17.5285H14.9543C13.6685 17.5285 13.1542 17.0142 13.1542 15.7286V6.47144H13.2829C15.4686 6.47144 16.6257 7.7571 16.6257 9.81424V9.94289H17.3972V5.57141H6.59717Z" fill="#E20975"/>
  <path d="M14.8258 14.057H17.3973V11.4857H14.8258V14.057Z" fill="#E20975"/>
  <path d="M18.128 9.30744V9.43915H18.2333C18.2831 9.43915 18.3182 9.42454 18.3182 9.37471C18.3182 9.33088 18.289 9.30744 18.2333 9.30744H18.128ZM18.2977 9.51241L18.4061 9.67923H18.3036L18.207 9.51819H18.128V9.67923H18.043V9.22829H18.2392C18.3387 9.22829 18.4032 9.284 18.4032 9.37177C18.4032 9.44503 18.3622 9.49486 18.2977 9.51241ZM18.5906 9.46259C18.5906 9.23712 18.4296 9.06736 18.207 9.06736C17.9816 9.06736 17.8205 9.23712 17.8205 9.46259C17.8205 9.691 17.9816 9.85792 18.207 9.85792C18.4296 9.85792 18.5906 9.691 18.5906 9.46259ZM18.6785 9.46259C18.6785 9.74072 18.4793 9.94286 18.207 9.94286C17.9347 9.94286 17.7326 9.74072 17.7326 9.46259C17.7326 9.18446 17.9347 8.98243 18.207 8.98243C18.4793 8.98243 18.6785 9.18446 18.6785 9.46259Z" fill="#E20975"/>
</svg>
