<svg width="24" height="24" viewBox="0 0 24 24" fill="none" xmlns="http://www.w3.org/2000/svg">
<path d="M8.22493 14.7428H4.79639V11.3143H8.22493V14.7428Z" fill="#E20975"/>
<path d="M4.79639 3.42859V9.25723H5.82494V9.08569C5.82494 6.34284 7.36781 4.62862 10.2821 4.62862H10.4535V16.9715C10.4535 18.6857 9.7678 19.3714 8.0535 19.3714H7.53925V20.5714H16.4536V19.3714H15.9392C14.2249 19.3714 13.5392 18.6857 13.5392 16.9715V4.62862H13.7107C16.6249 4.62862 18.1678 6.34284 18.1678 9.08569V9.25723H19.1964V3.42859H4.79639Z" fill="#E20975"/>
<path d="M15.7679 14.7428H19.1965V11.3143H15.7679V14.7428Z" fill="#E20975"/>
<path d="M20.1708 8.40996V8.58557H20.3112C20.3777 8.58557 20.4245 8.56609 20.4245 8.49966C20.4245 8.44122 20.3855 8.40996 20.3112 8.40996H20.1708ZM20.3971 8.68326L20.5416 8.90568H20.405L20.2762 8.69097H20.1708V8.90568H20.0576V8.30442H20.3191C20.4518 8.30442 20.5377 8.37871 20.5377 8.49573C20.5377 8.59342 20.4831 8.65986 20.3971 8.68326ZM20.7876 8.61682C20.7876 8.3162 20.5729 8.08986 20.2762 8.08986C19.9756 8.08986 19.7609 8.3162 19.7609 8.61682C19.7609 8.92138 19.9756 9.14394 20.2762 9.14394C20.5729 9.14394 20.7876 8.92138 20.7876 8.61682ZM20.9048 8.61682C20.9048 8.98767 20.6392 9.25718 20.2762 9.25718C19.9131 9.25718 19.6437 8.98767 19.6437 8.61682C19.6437 8.24598 19.9131 7.97661 20.2762 7.97661C20.6392 7.97661 20.9048 8.24598 20.9048 8.61682Z" fill="#E20975"/>
</svg>
