<svg width="24" height="24" viewBox="0 0 24 24" fill="none" xmlns="http://www.w3.org/2000/svg">
<path d="M12.1402 22H12.1348C9.41585 21.98 7.32564 20.996 5.92063 19.076C4.67234 17.366 4.02724 14.988 4.00537 12.008V11.994C4.02724 9.012 4.67234 6.636 5.92246 4.926C7.32564 3.004 9.41767 2.02 12.1348 2H12.1402H12.1457C14.2304 2.016 15.9744 2.604 17.3284 3.748C18.6022 4.824 19.4988 6.356 19.9926 8.304L18.4436 8.778C17.6054 5.478 15.4842 3.792 12.1384 3.766C9.92975 3.784 8.25867 4.546 7.17257 6.03C6.15754 7.42 5.63271 9.428 5.61266 12C5.63271 14.572 6.15754 16.58 7.17439 17.97C8.2605 19.456 9.93157 20.218 12.1402 20.234C14.132 20.218 15.4496 19.708 16.5448 18.53C17.7949 17.186 17.773 15.536 17.3721 14.532C17.137 13.94 16.7088 13.448 16.1311 13.074C15.9853 14.2 15.6591 15.112 15.1562 15.8C14.4837 16.718 13.5307 17.22 12.3243 17.292C11.4113 17.346 10.5311 17.11 9.84956 16.624C9.04227 16.05 8.57029 15.174 8.51927 14.154C8.47006 13.162 8.82906 12.25 9.52883 11.586C10.1976 10.952 11.1379 10.58 12.2496 10.51C13.0678 10.46 13.835 10.5 14.542 10.628C14.4473 10.01 14.2578 9.518 13.9735 9.164C13.5835 8.676 12.9803 8.428 12.1821 8.422C12.1748 8.422 12.1676 8.422 12.1603 8.422C11.5188 8.422 10.6477 8.616 10.0938 9.522L8.75981 8.54C9.50332 7.328 10.7097 6.66 12.1603 6.66C12.1712 6.66 12.1821 6.66 12.1931 6.66C14.6186 6.676 16.0637 8.306 16.2077 11.15C16.2897 11.188 16.3717 11.228 16.4518 11.268C17.5835 11.852 18.4108 12.736 18.8464 13.826C19.4514 15.344 19.5079 17.818 17.671 19.792C16.266 21.3 14.5621 21.982 12.1457 22H12.1402ZM12.902 12.258C12.7179 12.258 12.532 12.264 12.3407 12.276C10.9466 12.362 10.0774 13.064 10.1266 14.062C10.1776 15.108 11.2291 15.594 12.2405 15.534C13.1698 15.48 14.3799 15.082 14.584 12.442C14.0701 12.32 13.507 12.258 12.902 12.258Z" fill="black"/>
</svg>
