<svg width="24" height="24" viewBox="0 0 24 24" fill="none" xmlns="http://www.w3.org/2000/svg">
<path d="M6.21372 12.1569C7.19052 15.4114 8.60732 17.4281 9.70145 12.7729C9.59585 12.7582 11.9249 6.59674 12.0232 6.35914C12.9208 5.16381 14.3669 4.42754 15.8688 4.44221C18.8344 4.21341 21.9115 8.32741 21.1048 10.3177C20.5533 11.7579 18.4809 12.0645 17.5276 10.8559C17.1961 10.4438 17.0641 9.92167 16.7767 9.46554C16.2223 8.43301 15.4889 8.33034 15.0167 9.48754C14.6221 10.3499 14.4095 11.2461 14.1983 12.1554L13.3007 15.0711L12.0452 17.8402C11.1461 19.0135 9.71758 19.7117 8.24358 19.7234C2.35345 19.433 1.84159 11.5819 1.36932 9.21914C1.30332 8.56794 1.36639 8.26141 1.63919 7.74954C2.36225 6.47501 4.36132 6.40461 5.18265 7.61461C5.47452 8.01794 5.53025 8.53421 5.58598 9.01674C5.70918 10.0713 5.92185 11.1243 6.21372 12.1569Z" fill="url(#paint0_linear_14434_14)"/>
<path d="M6.21372 12.1569C7.19052 15.4114 8.60732 17.4281 9.70145 12.7729C9.59585 12.7582 11.9249 6.59674 12.0232 6.35914C12.9208 5.16381 14.3669 4.42754 15.8688 4.44221C18.8344 4.21341 21.9115 8.32741 21.1048 10.3177C20.5533 11.7579 18.4809 12.0645 17.5276 10.8559C17.1961 10.4438 17.0641 9.92167 16.7767 9.46554C16.2223 8.43301 15.4889 8.33034 15.0167 9.48754C14.6221 10.3499 14.4095 11.2461 14.1983 12.1554L13.3007 15.0711L12.0452 17.8402C11.1461 19.0135 9.71758 19.7117 8.24358 19.7234C2.35345 19.433 1.84159 11.5819 1.36932 9.21914C1.30332 8.56794 1.36639 8.26141 1.63919 7.74954C2.36225 6.47501 4.36132 6.40461 5.18265 7.61461C5.47452 8.01794 5.53025 8.53421 5.58598 9.01674C5.70918 10.0713 5.92185 11.1243 6.21372 12.1569Z" fill="url(#paint1_radial_14434_14)"/>
<path d="M6.21372 12.1569C7.19052 15.4114 8.60732 17.4281 9.70145 12.7729C9.59585 12.7582 11.9249 6.59674 12.0232 6.35914C12.9208 5.16381 14.3669 4.42754 15.8688 4.44221C18.8344 4.21341 21.9115 8.32741 21.1048 10.3177C20.5533 11.7579 18.4809 12.0645 17.5276 10.8559C17.1961 10.4438 17.0641 9.92167 16.7767 9.46554C16.2223 8.43301 15.4889 8.33034 15.0167 9.48754C14.6221 10.3499 14.4095 11.2461 14.1983 12.1554L13.3007 15.0711L12.0452 17.8402C11.1461 19.0135 9.71758 19.7117 8.24358 19.7234C2.35345 19.433 1.84159 11.5819 1.36932 9.21914C1.30332 8.56794 1.36639 8.26141 1.63919 7.74954C2.36225 6.47501 4.36132 6.40461 5.18265 7.61461C5.47452 8.01794 5.53025 8.53421 5.58598 9.01674C5.70918 10.0713 5.92185 11.1243 6.21372 12.1569Z" fill="url(#paint2_radial_14434_14)"/>
<path d="M6.21372 12.1569C7.19052 15.4114 8.60732 17.4281 9.70145 12.7729C9.59585 12.7582 11.9249 6.59674 12.0232 6.35914C12.9208 5.16381 14.3669 4.42754 15.8688 4.44221C18.8344 4.21341 21.9115 8.32741 21.1048 10.3177C20.5533 11.7579 18.4809 12.0645 17.5276 10.8559C17.1961 10.4438 17.0641 9.92167 16.7767 9.46554C16.2223 8.43301 15.4889 8.33034 15.0167 9.48754C14.6221 10.3499 14.4095 11.2461 14.1983 12.1554L13.3007 15.0711L12.0452 17.8402C11.1461 19.0135 9.71758 19.7117 8.24358 19.7234C2.35345 19.433 1.84159 11.5819 1.36932 9.21914C1.30332 8.56794 1.36639 8.26141 1.63919 7.74954C2.36225 6.47501 4.36132 6.40461 5.18265 7.61461C5.47452 8.01794 5.53025 8.53421 5.58598 9.01674C5.70918 10.0713 5.92185 11.1243 6.21372 12.1569Z" fill="url(#paint3_radial_14434_14)"/>
<path d="M6.21372 12.1569C7.19052 15.4114 8.60732 17.4281 9.70145 12.7729C9.59585 12.7582 11.9249 6.59674 12.0232 6.35914C12.9208 5.16381 14.3669 4.42754 15.8688 4.44221C18.8344 4.21341 21.9115 8.32741 21.1048 10.3177C20.5533 11.7579 18.4809 12.0645 17.5276 10.8559C17.1961 10.4438 17.0641 9.92167 16.7767 9.46554C16.2223 8.43301 15.4889 8.33034 15.0167 9.48754C14.6221 10.3499 14.4095 11.2461 14.1983 12.1554L13.3007 15.0711L12.0452 17.8402C11.1461 19.0135 9.71758 19.7117 8.24358 19.7234C2.35345 19.433 1.84159 11.5819 1.36932 9.21914C1.30332 8.56794 1.36639 8.26141 1.63919 7.74954C2.36225 6.47501 4.36132 6.40461 5.18265 7.61461C5.47452 8.01794 5.53025 8.53421 5.58598 9.01674C5.70918 10.0713 5.92185 11.1243 6.21372 12.1569Z" fill="url(#paint4_radial_14434_14)"/>
<path d="M6.21372 12.1569C7.19052 15.4114 8.60732 17.4281 9.70145 12.7729C9.59585 12.7582 11.9249 6.59674 12.0232 6.35914C12.9208 5.16381 14.3669 4.42754 15.8688 4.44221C18.8344 4.21341 21.9115 8.32741 21.1048 10.3177C20.5533 11.7579 18.4809 12.0645 17.5276 10.8559C17.1961 10.4438 17.0641 9.92167 16.7767 9.46554C16.2223 8.43301 15.4889 8.33034 15.0167 9.48754C14.6221 10.3499 14.4095 11.2461 14.1983 12.1554L13.3007 15.0711L12.0452 17.8402C11.1461 19.0135 9.71758 19.7117 8.24358 19.7234C2.35345 19.433 1.84159 11.5819 1.36932 9.21914C1.30332 8.56794 1.36639 8.26141 1.63919 7.74954C2.36225 6.47501 4.36132 6.40461 5.18265 7.61461C5.47452 8.01794 5.53025 8.53421 5.58598 9.01674C5.70918 10.0713 5.92185 11.1243 6.21372 12.1569Z" fill="url(#paint5_radial_14434_14)"/>
<path d="M6.21372 12.1569C7.19052 15.4114 8.60732 17.4281 9.70145 12.7729C9.59585 12.7582 11.9249 6.59674 12.0232 6.35914C12.9208 5.16381 14.3669 4.42754 15.8688 4.44221C18.8344 4.21341 21.9115 8.32741 21.1048 10.3177C20.5533 11.7579 18.4809 12.0645 17.5276 10.8559C17.1961 10.4438 17.0641 9.92167 16.7767 9.46554C16.2223 8.43301 15.4889 8.33034 15.0167 9.48754C14.6221 10.3499 14.4095 11.2461 14.1983 12.1554L13.3007 15.0711L12.0452 17.8402C11.1461 19.0135 9.71758 19.7117 8.24358 19.7234C2.35345 19.433 1.84159 11.5819 1.36932 9.21914C1.30332 8.56794 1.36639 8.26141 1.63919 7.74954C2.36225 6.47501 4.36132 6.40461 5.18265 7.61461C5.47452 8.01794 5.53025 8.53421 5.58598 9.01674C5.70918 10.0713 5.92185 11.1243 6.21372 12.1569Z" fill="url(#paint6_radial_14434_14)"/>
<path d="M6.21372 12.1569C7.19052 15.4114 8.60732 17.4281 9.70145 12.7729C9.59585 12.7582 11.9249 6.59674 12.0232 6.35914C12.9208 5.16381 14.3669 4.42754 15.8688 4.44221C18.8344 4.21341 21.9115 8.32741 21.1048 10.3177C20.5533 11.7579 18.4809 12.0645 17.5276 10.8559C17.1961 10.4438 17.0641 9.92167 16.7767 9.46554C16.2223 8.43301 15.4889 8.33034 15.0167 9.48754C14.6221 10.3499 14.4095 11.2461 14.1983 12.1554L13.3007 15.0711L12.0452 17.8402C11.1461 19.0135 9.71758 19.7117 8.24358 19.7234C2.35345 19.433 1.84159 11.5819 1.36932 9.21914C1.30332 8.56794 1.36639 8.26141 1.63919 7.74954C2.36225 6.47501 4.36132 6.40461 5.18265 7.61461C5.47452 8.01794 5.53025 8.53421 5.58598 9.01674C5.70918 10.0713 5.92185 11.1243 6.21372 12.1569Z" fill="url(#paint7_radial_14434_14)"/>
<path d="M6.21372 12.1569C7.19052 15.4114 8.60732 17.4281 9.70145 12.7729C9.59585 12.7582 11.9249 6.59674 12.0232 6.35914C12.9208 5.16381 14.3669 4.42754 15.8688 4.44221C18.8344 4.21341 21.9115 8.32741 21.1048 10.3177C20.5533 11.7579 18.4809 12.0645 17.5276 10.8559C17.1961 10.4438 17.0641 9.92167 16.7767 9.46554C16.2223 8.43301 15.4889 8.33034 15.0167 9.48754C14.6221 10.3499 14.4095 11.2461 14.1983 12.1554L13.3007 15.0711L12.0452 17.8402C11.1461 19.0135 9.71758 19.7117 8.24358 19.7234C2.35345 19.433 1.84159 11.5819 1.36932 9.21914C1.30332 8.56794 1.36639 8.26141 1.63919 7.74954C2.36225 6.47501 4.36132 6.40461 5.18265 7.61461C5.47452 8.01794 5.53025 8.53421 5.58598 9.01674C5.70918 10.0713 5.92185 11.1243 6.21372 12.1569Z" fill="url(#paint8_radial_14434_14)"/>
<path d="M6.21372 12.1569C7.19052 15.4114 8.60732 17.4281 9.70145 12.7729C9.59585 12.7582 11.9249 6.59674 12.0232 6.35914C12.9208 5.16381 14.3669 4.42754 15.8688 4.44221C18.8344 4.21341 21.9115 8.32741 21.1048 10.3177C20.5533 11.7579 18.4809 12.0645 17.5276 10.8559C17.1961 10.4438 17.0641 9.92167 16.7767 9.46554C16.2223 8.43301 15.4889 8.33034 15.0167 9.48754C14.6221 10.3499 14.4095 11.2461 14.1983 12.1554L13.3007 15.0711L12.0452 17.8402C11.1461 19.0135 9.71758 19.7117 8.24358 19.7234C2.35345 19.433 1.84159 11.5819 1.36932 9.21914C1.30332 8.56794 1.36639 8.26141 1.63919 7.74954C2.36225 6.47501 4.36132 6.40461 5.18265 7.61461C5.47452 8.01794 5.53025 8.53421 5.58598 9.01674C5.70918 10.0713 5.92185 11.1243 6.21372 12.1569Z" fill="url(#paint9_radial_14434_14)"/>
<path d="M6.21372 12.1569C7.19052 15.4114 8.60732 17.4281 9.70145 12.7729C9.59585 12.7582 11.9249 6.59674 12.0232 6.35914C12.9208 5.16381 14.3669 4.42754 15.8688 4.44221C18.8344 4.21341 21.9115 8.32741 21.1048 10.3177C20.5533 11.7579 18.4809 12.0645 17.5276 10.8559C17.1961 10.4438 17.0641 9.92167 16.7767 9.46554C16.2223 8.43301 15.4889 8.33034 15.0167 9.48754C14.6221 10.3499 14.4095 11.2461 14.1983 12.1554L13.3007 15.0711L12.0452 17.8402C11.1461 19.0135 9.71758 19.7117 8.24358 19.7234C2.35345 19.433 1.84159 11.5819 1.36932 9.21914C1.30332 8.56794 1.36639 8.26141 1.63919 7.74954C2.36225 6.47501 4.36132 6.40461 5.18265 7.61461C5.47452 8.01794 5.53025 8.53421 5.58598 9.01674C5.70918 10.0713 5.92185 11.1243 6.21372 12.1569Z" fill="url(#paint10_radial_14434_14)"/>
<path d="M6.21372 12.1569C7.19052 15.4114 8.60732 17.4281 9.70145 12.7729C9.59585 12.7582 11.9249 6.59674 12.0232 6.35914C12.9208 5.16381 14.3669 4.42754 15.8688 4.44221C18.8344 4.21341 21.9115 8.32741 21.1048 10.3177C20.5533 11.7579 18.4809 12.0645 17.5276 10.8559C17.1961 10.4438 17.0641 9.92167 16.7767 9.46554C16.2223 8.43301 15.4889 8.33034 15.0167 9.48754C14.6221 10.3499 14.4095 11.2461 14.1983 12.1554L13.3007 15.0711L12.0452 17.8402C11.1461 19.0135 9.71758 19.7117 8.24358 19.7234C2.35345 19.433 1.84159 11.5819 1.36932 9.21914C1.30332 8.56794 1.36639 8.26141 1.63919 7.74954C2.36225 6.47501 4.36132 6.40461 5.18265 7.61461C5.47452 8.01794 5.53025 8.53421 5.58598 9.01674C5.70918 10.0713 5.92185 11.1243 6.21372 12.1569Z" fill="url(#paint11_radial_14434_14)"/>
<path d="M6.21372 12.1569C7.19052 15.4114 8.60732 17.4281 9.70145 12.7729C9.59585 12.7582 11.9249 6.59674 12.0232 6.35914C12.9208 5.16381 14.3669 4.42754 15.8688 4.44221C18.8344 4.21341 21.9115 8.32741 21.1048 10.3177C20.5533 11.7579 18.4809 12.0645 17.5276 10.8559C17.1961 10.4438 17.0641 9.92167 16.7767 9.46554C16.2223 8.43301 15.4889 8.33034 15.0167 9.48754C14.6221 10.3499 14.4095 11.2461 14.1983 12.1554L13.3007 15.0711L12.0452 17.8402C11.1461 19.0135 9.71758 19.7117 8.24358 19.7234C2.35345 19.433 1.84159 11.5819 1.36932 9.21914C1.30332 8.56794 1.36639 8.26141 1.63919 7.74954C2.36225 6.47501 4.36132 6.40461 5.18265 7.61461C5.47452 8.01794 5.53025 8.53421 5.58598 9.01674C5.70918 10.0713 5.92185 11.1243 6.21372 12.1569Z" fill="url(#paint12_radial_14434_14)"/>
<path d="M6.21372 12.1569C7.19052 15.4114 8.60732 17.4281 9.70145 12.7729C9.59585 12.7582 11.9249 6.59674 12.0232 6.35914C12.9208 5.16381 14.3669 4.42754 15.8688 4.44221C18.8344 4.21341 21.9115 8.32741 21.1048 10.3177C20.5533 11.7579 18.4809 12.0645 17.5276 10.8559C17.1961 10.4438 17.0641 9.92167 16.7767 9.46554C16.2223 8.43301 15.4889 8.33034 15.0167 9.48754C14.6221 10.3499 14.4095 11.2461 14.1983 12.1554L13.3007 15.0711L12.0452 17.8402C11.1461 19.0135 9.71758 19.7117 8.24358 19.7234C2.35345 19.433 1.84159 11.5819 1.36932 9.21914C1.30332 8.56794 1.36639 8.26141 1.63919 7.74954C2.36225 6.47501 4.36132 6.40461 5.18265 7.61461C5.47452 8.01794 5.53025 8.53421 5.58598 9.01674C5.70918 10.0713 5.92185 11.1243 6.21372 12.1569Z" fill="url(#paint13_radial_14434_14)"/>
<path d="M6.21372 12.1569C7.19052 15.4114 8.60732 17.4281 9.70145 12.7729C9.59585 12.7582 11.9249 6.59674 12.0232 6.35914C12.9208 5.16381 14.3669 4.42754 15.8688 4.44221C18.8344 4.21341 21.9115 8.32741 21.1048 10.3177C20.5533 11.7579 18.4809 12.0645 17.5276 10.8559C17.1961 10.4438 17.0641 9.92167 16.7767 9.46554C16.2223 8.43301 15.4889 8.33034 15.0167 9.48754C14.6221 10.3499 14.4095 11.2461 14.1983 12.1554L13.3007 15.0711L12.0452 17.8402C11.1461 19.0135 9.71758 19.7117 8.24358 19.7234C2.35345 19.433 1.84159 11.5819 1.36932 9.21914C1.30332 8.56794 1.36639 8.26141 1.63919 7.74954C2.36225 6.47501 4.36132 6.40461 5.18265 7.61461C5.47452 8.01794 5.53025 8.53421 5.58598 9.01674C5.70918 10.0713 5.92185 11.1243 6.21372 12.1569Z" fill="url(#paint14_radial_14434_14)"/>
<path d="M6.21372 12.1569C7.19052 15.4114 8.60732 17.4281 9.70145 12.7729C9.59585 12.7582 11.9249 6.59674 12.0232 6.35914C12.9208 5.16381 14.3669 4.42754 15.8688 4.44221C18.8344 4.21341 21.9115 8.32741 21.1048 10.3177C20.5533 11.7579 18.4809 12.0645 17.5276 10.8559C17.1961 10.4438 17.0641 9.92167 16.7767 9.46554C16.2223 8.43301 15.4889 8.33034 15.0167 9.48754C14.6221 10.3499 14.4095 11.2461 14.1983 12.1554L13.3007 15.0711L12.0452 17.8402C11.1461 19.0135 9.71758 19.7117 8.24358 19.7234C2.35345 19.433 1.84159 11.5819 1.36932 9.21914C1.30332 8.56794 1.36639 8.26141 1.63919 7.74954C2.36225 6.47501 4.36132 6.40461 5.18265 7.61461C5.47452 8.01794 5.53025 8.53421 5.58598 9.01674C5.70918 10.0713 5.92185 11.1243 6.21372 12.1569Z" fill="url(#paint15_radial_14434_14)"/>
<path d="M6.21372 12.1569C7.19052 15.4114 8.60732 17.4281 9.70145 12.7729C9.59585 12.7582 11.9249 6.59674 12.0232 6.35914C12.9208 5.16381 14.3669 4.42754 15.8688 4.44221C18.8344 4.21341 21.9115 8.32741 21.1048 10.3177C20.5533 11.7579 18.4809 12.0645 17.5276 10.8559C17.1961 10.4438 17.0641 9.92167 16.7767 9.46554C16.2223 8.43301 15.4889 8.33034 15.0167 9.48754C14.6221 10.3499 14.4095 11.2461 14.1983 12.1554L13.3007 15.0711L12.0452 17.8402C11.1461 19.0135 9.71758 19.7117 8.24358 19.7234C2.35345 19.433 1.84159 11.5819 1.36932 9.21914C1.30332 8.56794 1.36639 8.26141 1.63919 7.74954C2.36225 6.47501 4.36132 6.40461 5.18265 7.61461C5.47452 8.01794 5.53025 8.53421 5.58598 9.01674C5.70918 10.0713 5.92185 11.1243 6.21372 12.1569Z" fill="url(#paint16_linear_14434_14)"/>
<path d="M6.21372 12.1569C7.19052 15.4114 8.60732 17.4281 9.70145 12.7729C9.59585 12.7582 11.9249 6.59674 12.0232 6.35914C12.9208 5.16381 14.3669 4.42754 15.8688 4.44221C18.8344 4.21341 21.9115 8.32741 21.1048 10.3177C20.5533 11.7579 18.4809 12.0645 17.5276 10.8559C17.1961 10.4438 17.0641 9.92167 16.7767 9.46554C16.2223 8.43301 15.4889 8.33034 15.0167 9.48754C14.6221 10.3499 14.4095 11.2461 14.1983 12.1554L13.3007 15.0711L12.0452 17.8402C11.1461 19.0135 9.71758 19.7117 8.24358 19.7234C2.35345 19.433 1.84159 11.5819 1.36932 9.21914C1.30332 8.56794 1.36639 8.26141 1.63919 7.74954C2.36225 6.47501 4.36132 6.40461 5.18265 7.61461C5.47452 8.01794 5.53025 8.53421 5.58598 9.01674C5.70918 10.0713 5.92185 11.1243 6.21372 12.1569Z" fill="url(#paint17_linear_14434_14)"/>
<path d="M6.21372 12.1569C7.19052 15.4114 8.60732 17.4281 9.70145 12.7729C9.59585 12.7582 11.9249 6.59674 12.0232 6.35914C12.9208 5.16381 14.3669 4.42754 15.8688 4.44221C18.8344 4.21341 21.9115 8.32741 21.1048 10.3177C20.5533 11.7579 18.4809 12.0645 17.5276 10.8559C17.1961 10.4438 17.0641 9.92167 16.7767 9.46554C16.2223 8.43301 15.4889 8.33034 15.0167 9.48754C14.6221 10.3499 14.4095 11.2461 14.1983 12.1554L13.3007 15.0711L12.0452 17.8402C11.1461 19.0135 9.71758 19.7117 8.24358 19.7234C2.35345 19.433 1.84159 11.5819 1.36932 9.21914C1.30332 8.56794 1.36639 8.26141 1.63919 7.74954C2.36225 6.47501 4.36132 6.40461 5.18265 7.61461C5.47452 8.01794 5.53025 8.53421 5.58598 9.01674C5.70918 10.0713 5.92185 11.1243 6.21372 12.1569Z" fill="url(#paint18_linear_14434_14)"/>
<path d="M6.21372 12.1569C7.19052 15.4114 8.60732 17.4281 9.70145 12.7729C9.59585 12.7582 11.9249 6.59674 12.0232 6.35914C12.9208 5.16381 14.3669 4.42754 15.8688 4.44221C18.8344 4.21341 21.9115 8.32741 21.1048 10.3177C20.5533 11.7579 18.4809 12.0645 17.5276 10.8559C17.1961 10.4438 17.0641 9.92167 16.7767 9.46554C16.2223 8.43301 15.4889 8.33034 15.0167 9.48754C14.6221 10.3499 14.4095 11.2461 14.1983 12.1554L13.3007 15.0711L12.0452 17.8402C11.1461 19.0135 9.71758 19.7117 8.24358 19.7234C2.35345 19.433 1.84159 11.5819 1.36932 9.21914C1.30332 8.56794 1.36639 8.26141 1.63919 7.74954C2.36225 6.47501 4.36132 6.40461 5.18265 7.61461C5.47452 8.01794 5.53025 8.53421 5.58598 9.01674C5.70918 10.0713 5.92185 11.1243 6.21372 12.1569Z" fill="url(#paint19_linear_14434_14)"/>
<path d="M10.6421 10.0156L12.0208 6.34895C13.5461 4.23549 16.8094 3.77935 18.8276 5.45135C20.24 6.51615 21.0818 8.62522 21.0818 8.62522C21.4397 9.39522 21.2578 10.4014 20.6448 10.991C19.8058 11.8636 18.2849 11.7859 17.5281 10.8458C17.0265 10.2899 16.5865 8.20868 15.5437 8.72642C14.7649 9.49788 14.5948 10.702 14.2985 11.7096C14.2956 11.9047 13.3789 14.7867 13.3012 15.0624L10.6436 10.0171L10.6421 10.0156Z" fill="url(#paint20_linear_14434_14)"/>
<path d="M20.6105 6.75227C20.4316 6.75227 20.2512 6.77427 20.084 6.81974C20.59 7.64987 21.1825 8.50054 21.2074 9.49934C21.2602 11.0775 19.424 12.1599 18.0878 11.3165C17.6126 13.3215 16.0844 17.6731 14.8362 14.2997C14.229 12.5045 14.0369 11.2579 13.547 9.59027C12.1772 3.73094 6.62142 2.95801 4.00488 6.81974C5.02568 7.05734 5.53022 8.08401 5.58595 9.02854C5.64755 10.0875 5.91155 11.1141 6.20342 12.1349C7.88862 6.95467 8.88742 8.27761 9.67942 11.5072C10.4421 14.7691 11.3133 18.1527 13.4913 19.1427C16.3586 20.6841 19.5046 19.0869 20.7117 16.3501C21.6371 14.5256 22.1857 12.5559 22.5054 10.5421C22.5993 9.73841 22.8574 8.88774 22.5846 8.09721C22.2781 7.30374 21.4553 6.74641 20.6105 6.75227Z" fill="url(#paint21_linear_14434_14)"/>
<path d="M20.6105 6.75227C20.4316 6.75227 20.2512 6.77427 20.084 6.81974C20.59 7.64987 21.2367 8.50054 21.2617 9.49934C21.3145 11.0775 19.424 12.1599 18.0878 11.3165C17.6126 13.3215 16.0844 17.6731 14.8362 14.2997C14.229 12.5045 14.0369 11.2579 13.547 9.59027C12.1772 3.73094 6.62142 2.95801 4.00488 6.81974C5.02568 7.05734 5.56835 8.03561 5.58595 9.02854C5.70915 10.0831 5.91155 11.1141 6.20342 12.1349C7.88862 6.95467 8.88742 8.27761 9.67942 11.5072C10.4421 14.7691 11.3133 18.1527 13.4913 19.1427C16.3586 20.6841 19.5046 19.0869 20.7117 16.3501C21.6371 14.5256 22.1857 12.5559 22.5054 10.5421C22.5993 9.73841 22.8574 8.88774 22.5846 8.09721C22.2781 7.30374 21.4553 6.74641 20.6105 6.75227Z" fill="url(#paint22_radial_14434_14)"/>
<path d="M20.6105 6.75227C20.4316 6.75227 20.2512 6.77427 20.084 6.81974C20.59 7.64987 21.2367 8.50054 21.2617 9.49934C21.3145 11.0775 19.424 12.1599 18.0878 11.3165C17.6126 13.3215 16.0844 17.6731 14.8362 14.2997C14.229 12.5045 14.0369 11.2579 13.547 9.59027C12.1772 3.73094 6.62142 2.95801 4.00488 6.81974C5.02568 7.05734 5.56835 8.03561 5.58595 9.02854C5.70915 10.0831 5.91155 11.1141 6.20342 12.1349C7.88862 6.95467 8.88742 8.27761 9.67942 11.5072C10.4421 14.7691 11.3133 18.1527 13.4913 19.1427C16.3586 20.6841 19.5046 19.0869 20.7117 16.3501C21.6371 14.5256 22.1857 12.5559 22.5054 10.5421C22.5993 9.73841 22.8574 8.88774 22.5846 8.09721C22.2781 7.30374 21.4553 6.74641 20.6105 6.75227Z" fill="url(#paint23_radial_14434_14)"/>
<path d="M20.6105 6.75227C20.4316 6.75227 20.2512 6.77427 20.084 6.81974C20.59 7.64987 21.2367 8.50054 21.2617 9.49934C21.3145 11.0775 19.424 12.1599 18.0878 11.3165C17.6126 13.3215 16.0844 17.6731 14.8362 14.2997C14.229 12.5045 14.0369 11.2579 13.547 9.59027C12.1772 3.73094 6.62142 2.95801 4.00488 6.81974C5.02568 7.05734 5.56835 8.03561 5.58595 9.02854C5.70915 10.0831 5.91155 11.1141 6.20342 12.1349C7.88862 6.95467 8.88742 8.27761 9.67942 11.5072C10.4421 14.7691 11.3133 18.1527 13.4913 19.1427C16.3586 20.6841 19.5046 19.0869 20.7117 16.3501C21.6371 14.5256 22.1857 12.5559 22.5054 10.5421C22.5993 9.73841 22.8574 8.88774 22.5846 8.09721C22.2781 7.30374 21.4553 6.74641 20.6105 6.75227Z" fill="url(#paint24_radial_14434_14)"/>
<path d="M20.6105 6.75227C20.4316 6.75227 20.2512 6.77427 20.084 6.81974C20.59 7.64987 21.2367 8.50054 21.2617 9.49934C21.3145 11.0775 19.424 12.1599 18.0878 11.3165C17.6126 13.3215 16.0844 17.6731 14.8362 14.2997C14.229 12.5045 14.0369 11.2579 13.547 9.59027C12.1772 3.73094 6.62142 2.95801 4.00488 6.81974C5.02568 7.05734 5.56835 8.03561 5.58595 9.02854C5.70915 10.0831 5.91155 11.1141 6.20342 12.1349C7.88862 6.95467 8.88742 8.27761 9.67942 11.5072C10.4421 14.7691 11.3133 18.1527 13.4913 19.1427C16.3586 20.6841 19.5046 19.0869 20.7117 16.3501C21.6371 14.5256 22.1857 12.5559 22.5054 10.5421C22.5993 9.73841 22.8574 8.88774 22.5846 8.09721C22.2781 7.30374 21.4553 6.74641 20.6105 6.75227Z" fill="url(#paint25_radial_14434_14)"/>
<path d="M20.6105 6.75227C20.4316 6.75227 20.2512 6.77427 20.084 6.81974C20.59 7.64987 21.2367 8.50054 21.2617 9.49934C21.3145 11.0775 19.424 12.1599 18.0878 11.3165C17.6126 13.3215 16.0844 17.6731 14.8362 14.2997C14.229 12.5045 14.0369 11.2579 13.547 9.59027C12.1772 3.73094 6.62142 2.95801 4.00488 6.81974C5.02568 7.05734 5.56835 8.03561 5.58595 9.02854C5.70915 10.0831 5.91155 11.1141 6.20342 12.1349C7.88862 6.95467 8.88742 8.27761 9.67942 11.5072C10.4421 14.7691 11.3133 18.1527 13.4913 19.1427C16.3586 20.6841 19.5046 19.0869 20.7117 16.3501C21.6371 14.5256 22.1857 12.5559 22.5054 10.5421C22.5993 9.73841 22.8574 8.88774 22.5846 8.09721C22.2781 7.30374 21.4553 6.74641 20.6105 6.75227Z" fill="url(#paint26_radial_14434_14)"/>
<path d="M20.6105 6.75227C20.4316 6.75227 20.2512 6.77427 20.084 6.81974C20.59 7.64987 21.2367 8.50054 21.2617 9.49934C21.3145 11.0775 19.424 12.1599 18.0878 11.3165C17.6126 13.3215 16.0844 17.6731 14.8362 14.2997C14.229 12.5045 14.0369 11.2579 13.547 9.59027C12.1772 3.73094 6.62142 2.95801 4.00488 6.81974C5.02568 7.05734 5.56835 8.03561 5.58595 9.02854C5.70915 10.0831 5.91155 11.1141 6.20342 12.1349C7.88862 6.95467 8.88742 8.27761 9.67942 11.5072C10.4421 14.7691 11.3133 18.1527 13.4913 19.1427C16.3586 20.6841 19.5046 19.0869 20.7117 16.3501C21.6371 14.5256 22.1857 12.5559 22.5054 10.5421C22.5993 9.73841 22.8574 8.88774 22.5846 8.09721C22.2781 7.30374 21.4553 6.74641 20.6105 6.75227Z" fill="url(#paint27_radial_14434_14)"/>
<path d="M20.6105 6.75227C20.4316 6.75227 20.2512 6.77427 20.084 6.81974C20.59 7.64987 21.2367 8.50054 21.2617 9.49934C21.3145 11.0775 19.424 12.1599 18.0878 11.3165C17.6126 13.3215 16.0844 17.6731 14.8362 14.2997C14.229 12.5045 14.0369 11.2579 13.547 9.59027C12.1772 3.73094 6.62142 2.95801 4.00488 6.81974C5.02568 7.05734 5.56835 8.03561 5.58595 9.02854C5.70915 10.0831 5.91155 11.1141 6.20342 12.1349C7.88862 6.95467 8.88742 8.27761 9.67942 11.5072C10.4421 14.7691 11.3133 18.1527 13.4913 19.1427C16.3586 20.6841 19.5046 19.0869 20.7117 16.3501C21.6371 14.5256 22.1857 12.5559 22.5054 10.5421C22.5993 9.73841 22.8574 8.88774 22.5846 8.09721C22.2781 7.30374 21.4553 6.74641 20.6105 6.75227Z" fill="url(#paint28_radial_14434_14)"/>
<path d="M20.6105 6.75227C20.4316 6.75227 20.2512 6.77427 20.084 6.81974C20.59 7.64987 21.2367 8.50054 21.2617 9.49934C21.3145 11.0775 19.424 12.1599 18.0878 11.3165C17.6126 13.3215 16.0844 17.6731 14.8362 14.2997C14.229 12.5045 14.0369 11.2579 13.547 9.59027C12.1772 3.73094 6.62142 2.95801 4.00488 6.81974C5.02568 7.05734 5.56835 8.03561 5.58595 9.02854C5.70915 10.0831 5.91155 11.1141 6.20342 12.1349C7.88862 6.95467 8.88742 8.27761 9.67942 11.5072C10.4421 14.7691 11.3133 18.1527 13.4913 19.1427C16.3586 20.6841 19.5046 19.0869 20.7117 16.3501C21.6371 14.5256 22.1857 12.5559 22.5054 10.5421C22.5993 9.73841 22.8574 8.88774 22.5846 8.09721C22.2781 7.30374 21.4553 6.74641 20.6105 6.75227Z" fill="url(#paint29_radial_14434_14)"/>
<path d="M20.6105 6.75227C20.4316 6.75227 20.2512 6.77427 20.084 6.81974C20.59 7.64987 21.2367 8.50054 21.2617 9.49934C21.3145 11.0775 19.424 12.1599 18.0878 11.3165C17.6126 13.3215 16.0844 17.6731 14.8362 14.2997C14.229 12.5045 14.0369 11.2579 13.547 9.59027C12.1772 3.73094 6.62142 2.95801 4.00488 6.81974C5.02568 7.05734 5.56835 8.03561 5.58595 9.02854C5.70915 10.0831 5.91155 11.1141 6.20342 12.1349C7.88862 6.95467 8.88742 8.27761 9.67942 11.5072C10.4421 14.7691 11.3133 18.1527 13.4913 19.1427C16.3586 20.6841 19.5046 19.0869 20.7117 16.3501C21.6371 14.5256 22.1857 12.5559 22.5054 10.5421C22.5993 9.73841 22.8574 8.88774 22.5846 8.09721C22.2781 7.30374 21.4553 6.74641 20.6105 6.75227Z" fill="url(#paint30_radial_14434_14)"/>
<path d="M20.6105 6.75227C20.4316 6.75227 20.2512 6.77427 20.084 6.81974C20.59 7.64987 21.2367 8.50054 21.2617 9.49934C21.3145 11.0775 19.424 12.1599 18.0878 11.3165C17.6126 13.3215 16.0844 17.6731 14.8362 14.2997C14.229 12.5045 14.0369 11.2579 13.547 9.59027C12.1772 3.73094 6.62142 2.95801 4.00488 6.81974C5.02568 7.05734 5.56835 8.03561 5.58595 9.02854C5.70915 10.0831 5.91155 11.1141 6.20342 12.1349C7.88862 6.95467 8.88742 8.27761 9.67942 11.5072C10.4421 14.7691 11.3133 18.1527 13.4913 19.1427C16.3586 20.6841 19.5046 19.0869 20.7117 16.3501C21.6371 14.5256 22.1857 12.5559 22.5054 10.5421C22.5993 9.73841 22.8574 8.88774 22.5846 8.09721C22.2781 7.30374 21.4553 6.74641 20.6105 6.75227Z" fill="url(#paint31_radial_14434_14)"/>
<path d="M20.6105 6.75227C20.4316 6.75227 20.2512 6.77427 20.084 6.81974C20.59 7.64987 21.2367 8.50054 21.2617 9.49934C21.3145 11.0775 19.424 12.1599 18.0878 11.3165C17.6126 13.3215 16.0844 17.6731 14.8362 14.2997C14.229 12.5045 14.0369 11.2579 13.547 9.59027C12.1772 3.73094 6.62142 2.95801 4.00488 6.81974C5.02568 7.05734 5.56835 8.03561 5.58595 9.02854C5.70915 10.0831 5.91155 11.1141 6.20342 12.1349C7.88862 6.95467 8.88742 8.27761 9.67942 11.5072C10.4421 14.7691 11.3133 18.1527 13.4913 19.1427C16.3586 20.6841 19.5046 19.0869 20.7117 16.3501C21.6371 14.5256 22.1857 12.5559 22.5054 10.5421C22.5993 9.73841 22.8574 8.88774 22.5846 8.09721C22.2781 7.30374 21.4553 6.74641 20.6105 6.75227Z" fill="url(#paint32_radial_14434_14)"/>
<path d="M20.6105 6.75227C20.4316 6.75227 20.2512 6.77427 20.084 6.81974C20.59 7.64987 21.2367 8.50054 21.2617 9.49934C21.3145 11.0775 19.424 12.1599 18.0878 11.3165C17.6126 13.3215 16.0844 17.6731 14.8362 14.2997C14.229 12.5045 14.0369 11.2579 13.547 9.59027C12.1772 3.73094 6.62142 2.95801 4.00488 6.81974C5.02568 7.05734 5.56835 8.03561 5.58595 9.02854C5.70915 10.0831 5.91155 11.1141 6.20342 12.1349C7.88862 6.95467 8.88742 8.27761 9.67942 11.5072C10.4421 14.7691 11.3133 18.1527 13.4913 19.1427C16.3586 20.6841 19.5046 19.0869 20.7117 16.3501C21.6371 14.5256 22.1857 12.5559 22.5054 10.5421C22.5993 9.73841 22.8574 8.88774 22.5846 8.09721C22.2781 7.30374 21.4553 6.74641 20.6105 6.75227Z" fill="url(#paint33_radial_14434_14)"/>
<path d="M20.6105 6.75227C20.4316 6.75227 20.2512 6.77427 20.084 6.81974C20.59 7.64987 21.1825 8.50054 21.2074 9.49934C21.2602 11.0775 19.424 12.1599 18.0878 11.3165C17.6126 13.3215 16.0844 17.6731 14.8362 14.2997C14.229 12.5045 14.0369 11.2579 13.547 9.59027C12.1772 3.73094 6.62142 2.95801 4.00488 6.81974C5.02568 7.05734 5.56835 8.03561 5.58595 9.02854C5.70915 10.0831 5.91155 11.1141 6.20342 12.1349C7.88862 6.95467 8.88742 8.27761 9.67942 11.5072C10.4421 14.7691 11.3133 18.1527 13.4913 19.1427C16.3586 20.6841 19.5046 19.0869 20.7117 16.3501C21.6371 14.5256 22.1857 12.5559 22.5054 10.5421C22.5993 9.73841 22.8574 8.88774 22.5846 8.09721C22.2781 7.30374 21.4553 6.74641 20.6105 6.75227Z" fill="url(#paint34_linear_14434_14)"/>
<defs>
<linearGradient id="paint0_linear_14434_14" x1="2.23905" y1="14.7895" x2="18.9283" y2="8.04288" gradientUnits="userSpaceOnUse">
<stop offset="0.13" stop-color="#1CBBF3"/>
<stop offset="0.34" stop-color="#1F99A5"/>
<stop offset="0.45" stop-color="#209CA6"/>
<stop offset="0.51" stop-color="#24A4AA"/>
<stop offset="0.57" stop-color="#2BB3B0"/>
<stop offset="0.6" stop-color="#30BDB4"/>
<stop offset="0.79" stop-color="#38BA90"/>
<stop offset="1" stop-color="#60F05A"/>
</linearGradient>
<radialGradient id="paint1_radial_14434_14" cx="0" cy="0" r="1" gradientUnits="userSpaceOnUse" gradientTransform="translate(13.3098 10.8638) rotate(74.32) scale(7.89741 6.00248)">
<stop stop-color="#227B60"/>
<stop offset="0.14" stop-color="#227B60" stop-opacity="0.81"/>
<stop offset="0.58" stop-color="#227B60" stop-opacity="0.23"/>
<stop offset="0.78" stop-color="#227B60" stop-opacity="0"/>
</radialGradient>
<radialGradient id="paint2_radial_14434_14" cx="0" cy="0" r="1" gradientUnits="userSpaceOnUse" gradientTransform="translate(14.9154 10.3773) rotate(91.15) scale(5.34037 4.0585)">
<stop stop-color="#227B60"/>
<stop offset="0.25" stop-color="#227B60" stop-opacity="0.7"/>
<stop offset="0.71" stop-color="#227B60" stop-opacity="0.2"/>
<stop offset="0.92" stop-color="#227B60" stop-opacity="0"/>
</radialGradient>
<radialGradient id="paint3_radial_14434_14" cx="0" cy="0" r="1" gradientUnits="userSpaceOnUse" gradientTransform="translate(14.4064 10.4748) rotate(88.6) scale(4.9781 3.53461)">
<stop stop-color="#227B60"/>
<stop offset="0.07" stop-color="#227B60" stop-opacity="0.9"/>
<stop offset="0.34" stop-color="#227B60" stop-opacity="0.51"/>
<stop offset="0.59" stop-color="#227B60" stop-opacity="0.23"/>
<stop offset="0.79" stop-color="#227B60" stop-opacity="0.06"/>
<stop offset="0.92" stop-color="#227B60" stop-opacity="0"/>
</radialGradient>
<radialGradient id="paint4_radial_14434_14" cx="0" cy="0" r="1" gradientUnits="userSpaceOnUse" gradientTransform="translate(14.6797 10.1963) rotate(88.6) scale(4.01949 2.85355)">
<stop stop-color="#227B60"/>
<stop offset="0.36" stop-color="#227B60" stop-opacity="0.63"/>
<stop offset="0.92" stop-color="#227B60" stop-opacity="0"/>
</radialGradient>
<radialGradient id="paint5_radial_14434_14" cx="0" cy="0" r="1" gradientUnits="userSpaceOnUse" gradientTransform="translate(14.5053 10.4593) rotate(88.6) scale(3.20578 2.0521)">
<stop stop-color="#20735A"/>
<stop offset="0.15" stop-color="#20745A" stop-opacity="0.93"/>
<stop offset="0.38" stop-color="#21755C" stop-opacity="0.74"/>
<stop offset="0.67" stop-color="#21785D" stop-opacity="0.43"/>
<stop offset="1" stop-color="#227B60" stop-opacity="0"/>
</radialGradient>
<radialGradient id="paint6_radial_14434_14" cx="0" cy="0" r="1" gradientUnits="userSpaceOnUse" gradientTransform="translate(15.1065 10.8226) rotate(23.8) scale(5.15868 3.86901)">
<stop stop-color="#227A61"/>
<stop offset="0.36" stop-color="#227A61" stop-opacity="0.56"/>
<stop offset="0.72" stop-color="#227A61" stop-opacity="0.16"/>
<stop offset="0.9" stop-color="#227A61" stop-opacity="0"/>
</radialGradient>
<radialGradient id="paint7_radial_14434_14" cx="0" cy="0" r="1" gradientUnits="userSpaceOnUse" gradientTransform="translate(13.259 3.02526) rotate(35.27) scale(6.87972 6.29006)">
<stop stop-color="#3CD9C3"/>
<stop offset="0.07" stop-color="#3BD7C1" stop-opacity="0.9"/>
<stop offset="0.41" stop-color="#38CEB9" stop-opacity="0.42"/>
<stop offset="0.65" stop-color="#36C8B4" stop-opacity="0.12"/>
<stop offset="0.76" stop-color="#35C6B2" stop-opacity="0"/>
</radialGradient>
<radialGradient id="paint8_radial_14434_14" cx="0" cy="0" r="1" gradientUnits="userSpaceOnUse" gradientTransform="translate(-8708.64 -5306.71) rotate(35.27) scale(1222.04 857.335)">
<stop stop-color="#3CD9C3"/>
<stop offset="0.07" stop-color="#3BD7C1" stop-opacity="0.9"/>
<stop offset="0.41" stop-color="#38CEB9" stop-opacity="0.42"/>
<stop offset="0.65" stop-color="#36C8B4" stop-opacity="0.12"/>
<stop offset="0.76" stop-color="#35C6B2" stop-opacity="0"/>
</radialGradient>
<radialGradient id="paint9_radial_14434_14" cx="0" cy="0" r="1" gradientUnits="userSpaceOnUse" gradientTransform="translate(15.633 12.5899) rotate(100.97) scale(6.06713 7.49836)">
<stop stop-color="#237F66" stop-opacity="0.8"/>
<stop offset="0.06" stop-color="#2C8C70" stop-opacity="0.65"/>
<stop offset="0.21" stop-color="#3DA785" stop-opacity="0.37"/>
<stop offset="0.35" stop-color="#4ABA93" stop-opacity="0.17"/>
<stop offset="0.47" stop-color="#51C59C" stop-opacity="0.04"/>
<stop offset="0.56" stop-color="#54C99F" stop-opacity="0"/>
</radialGradient>
<radialGradient id="paint10_radial_14434_14" cx="0" cy="0" r="1" gradientUnits="userSpaceOnUse" gradientTransform="translate(12.6589 12.6609) rotate(-50.82) scale(7.92862 8.56287)">
<stop stop-color="#167C8A"/>
<stop offset="0.04" stop-color="#167C8A" stop-opacity="0.93"/>
<stop offset="0.33" stop-color="#177F8D" stop-opacity="0.43"/>
<stop offset="0.54" stop-color="#17818F" stop-opacity="0.12"/>
<stop offset="0.65" stop-color="#178290" stop-opacity="0"/>
</radialGradient>
<radialGradient id="paint11_radial_14434_14" cx="0" cy="0" r="1" gradientUnits="userSpaceOnUse" gradientTransform="translate(12.0559 13.3646) rotate(-31.66) scale(7.83644 6.19101)">
<stop offset="0.05" stop-color="#177D87"/>
<stop offset="0.11" stop-color="#177E89" stop-opacity="0.8"/>
<stop offset="0.21" stop-color="#177F8B" stop-opacity="0.52"/>
<stop offset="0.32" stop-color="#17818D" stop-opacity="0.29"/>
<stop offset="0.42" stop-color="#17818F" stop-opacity="0.13"/>
<stop offset="0.51" stop-color="#178290" stop-opacity="0.03"/>
<stop offset="0.6" stop-color="#178290" stop-opacity="0"/>
</radialGradient>
<radialGradient id="paint12_radial_14434_14" cx="0" cy="0" r="1" gradientUnits="userSpaceOnUse" gradientTransform="translate(10.1314 13.276) rotate(-130.54) scale(4.60803 3.62824)">
<stop offset="0.26" stop-color="#177F8A"/>
<stop offset="0.27" stop-color="#177F8A" stop-opacity="0.98"/>
<stop offset="0.38" stop-color="#17808C" stop-opacity="0.68"/>
<stop offset="0.5" stop-color="#17818D" stop-opacity="0.43"/>
<stop offset="0.62" stop-color="#17818F" stop-opacity="0.24"/>
<stop offset="0.74" stop-color="#17828F" stop-opacity="0.11"/>
<stop offset="0.86" stop-color="#178290" stop-opacity="0.03"/>
<stop offset="1" stop-color="#178290" stop-opacity="0"/>
</radialGradient>
<radialGradient id="paint13_radial_14434_14" cx="0" cy="0" r="1" gradientUnits="userSpaceOnUse" gradientTransform="translate(9.33015 14.8938) rotate(-173.11) scale(4.32268)">
<stop stop-color="#13656E"/>
<stop offset="0.11" stop-color="#13646E" stop-opacity="0.73"/>
<stop offset="0.27" stop-color="#12646E" stop-opacity="0.41"/>
<stop offset="0.42" stop-color="#12636E" stop-opacity="0.18"/>
<stop offset="0.55" stop-color="#12636E" stop-opacity="0.05"/>
<stop offset="0.66" stop-color="#12636E" stop-opacity="0"/>
</radialGradient>
<radialGradient id="paint14_radial_14434_14" cx="0" cy="0" r="1" gradientUnits="userSpaceOnUse" gradientTransform="translate(9.2924 15.3224) rotate(-119.32) scale(3.06275 2.57262)">
<stop offset="0.13" stop-color="#146A73"/>
<stop offset="0.24" stop-color="#156F79" stop-opacity="0.79"/>
<stop offset="0.45" stop-color="#167783" stop-opacity="0.45"/>
<stop offset="0.65" stop-color="#167D8A" stop-opacity="0.2"/>
<stop offset="0.82" stop-color="#17818E" stop-opacity="0.05"/>
<stop offset="0.95" stop-color="#178290" stop-opacity="0"/>
</radialGradient>
<radialGradient id="paint15_radial_14434_14" cx="0" cy="0" r="1" gradientUnits="userSpaceOnUse" gradientTransform="translate(8.96995 13.8395) rotate(-55.99) scale(2.84351 2.25274)">
<stop stop-color="#198E9C"/>
<stop offset="0.1" stop-color="#198E9C" stop-opacity="0.87"/>
<stop offset="0.41" stop-color="#198E9C" stop-opacity="0.5"/>
<stop offset="0.67" stop-color="#198E9C" stop-opacity="0.23"/>
<stop offset="0.88" stop-color="#198E9C" stop-opacity="0.06"/>
<stop offset="1" stop-color="#198E9C" stop-opacity="0"/>
</radialGradient>
<linearGradient id="paint16_linear_14434_14" x1="3.36399" y1="4.08434" x2="10.7017" y2="10.875" gradientUnits="userSpaceOnUse">
<stop offset="0.13" stop-color="#2BF9FF"/>
<stop offset="0.27" stop-color="#29F9FF" stop-opacity="0.64"/>
<stop offset="0.4" stop-color="#27FAFF" stop-opacity="0.3"/>
<stop offset="0.49" stop-color="#26FAFF" stop-opacity="0.08"/>
<stop offset="0.54" stop-color="#26FAFF" stop-opacity="0"/>
</linearGradient>
<linearGradient id="paint17_linear_14434_14" x1="-0.805748" y1="15.1694" x2="7.76105" y2="12.7391" gradientUnits="userSpaceOnUse">
<stop stop-color="#26FAFF"/>
<stop offset="0.06" stop-color="#26FAFF" stop-opacity="0.88"/>
<stop offset="0.24" stop-color="#26FAFF" stop-opacity="0.51"/>
<stop offset="0.39" stop-color="#26FAFF" stop-opacity="0.23"/>
<stop offset="0.5" stop-color="#26FAFF" stop-opacity="0.06"/>
<stop offset="0.55" stop-color="#26FAFF" stop-opacity="0"/>
</linearGradient>
<linearGradient id="paint18_linear_14434_14" x1="1.43385" y1="14.8819" x2="11.1139" y2="11.4323" gradientUnits="userSpaceOnUse">
<stop stop-color="#21DEFF"/>
<stop offset="0.04" stop-color="#21DEFF" stop-opacity="0.88"/>
<stop offset="0.17" stop-color="#21DEFF" stop-opacity="0.51"/>
<stop offset="0.27" stop-color="#21DEFF" stop-opacity="0.23"/>
<stop offset="0.34" stop-color="#21DEFF" stop-opacity="0.06"/>
<stop offset="0.38" stop-color="#21DEFF" stop-opacity="0"/>
</linearGradient>
<linearGradient id="paint19_linear_14434_14" x1="10.6636" y1="9.87621" x2="16.0653" y2="18.6865" gradientUnits="userSpaceOnUse">
<stop offset="0.62" stop-color="#21DEFF" stop-opacity="0"/>
<stop offset="0.66" stop-color="#21DEFF" stop-opacity="0.06"/>
<stop offset="0.73" stop-color="#21DEFF" stop-opacity="0.23"/>
<stop offset="0.83" stop-color="#21DEFF" stop-opacity="0.51"/>
<stop offset="0.96" stop-color="#21DEFF" stop-opacity="0.88"/>
<stop offset="1" stop-color="#21DEFF"/>
</linearGradient>
<linearGradient id="paint20_linear_14434_14" x1="16.6774" y1="13.1704" x2="15.8297" y2="9.03148" gradientUnits="userSpaceOnUse">
<stop stop-color="#44B044"/>
<stop offset="0.11" stop-color="#44B044" stop-opacity="0.8"/>
<stop offset="0.27" stop-color="#44B044" stop-opacity="0.52"/>
<stop offset="0.43" stop-color="#44B044" stop-opacity="0.29"/>
<stop offset="0.58" stop-color="#44B044" stop-opacity="0.13"/>
<stop offset="0.7" stop-color="#44B044" stop-opacity="0.03"/>
<stop offset="0.8" stop-color="#44B044" stop-opacity="0"/>
</linearGradient>
<linearGradient id="paint21_linear_14434_14" x1="4.81888" y1="8.88481" x2="22.6917" y2="14.8028" gradientUnits="userSpaceOnUse">
<stop stop-color="#3066FB"/>
<stop offset="0.38" stop-color="#2F64F7"/>
<stop offset="0.74" stop-color="#2857D9"/>
<stop offset="1" stop-color="#3C7EFF"/>
</linearGradient>
<radialGradient id="paint22_radial_14434_14" cx="0" cy="0" r="1" gradientUnits="userSpaceOnUse" gradientTransform="translate(17.4337 11.5236) rotate(98.69) scale(9.50365 6.27223)">
<stop stop-color="#1A3D9C"/>
<stop offset="0.4" stop-color="#1A3D9C" stop-opacity="0.42"/>
<stop offset="0.7" stop-color="#1A3D9C" stop-opacity="0"/>
</radialGradient>
<radialGradient id="paint23_radial_14434_14" cx="0" cy="0" r="1" gradientUnits="userSpaceOnUse" gradientTransform="translate(-54.1887 -8363.61) rotate(98.69) scale(1169.36 630.292)">
<stop stop-color="#1A3D9C"/>
<stop offset="0.4" stop-color="#1A3D9C" stop-opacity="0.42"/>
<stop offset="0.7" stop-color="#1A3D9C" stop-opacity="0"/>
</radialGradient>
<radialGradient id="paint24_radial_14434_14" cx="0" cy="0" r="1" gradientUnits="userSpaceOnUse" gradientTransform="translate(449.639 -8432.51) rotate(98.62) scale(1392.65 575.135)">
<stop stop-color="#1A3D9C"/>
<stop offset="0.4" stop-color="#1A3D9C" stop-opacity="0.42"/>
<stop offset="0.7" stop-color="#1A3D9C" stop-opacity="0"/>
</radialGradient>
<radialGradient id="paint25_radial_14434_14" cx="0" cy="0" r="1" gradientUnits="userSpaceOnUse" gradientTransform="translate(16.4099 11.6622) rotate(83.09) scale(8.3065 5.79627)">
<stop stop-color="#1A3D9C"/>
<stop offset="0.16" stop-color="#1A3D9C" stop-opacity="0.69"/>
<stop offset="0.33" stop-color="#1A3D9C" stop-opacity="0.4"/>
<stop offset="0.49" stop-color="#1A3D9C" stop-opacity="0.18"/>
<stop offset="0.61" stop-color="#1A3D9C" stop-opacity="0.05"/>
<stop offset="0.7" stop-color="#1A3D9C" stop-opacity="0"/>
</radialGradient>
<radialGradient id="paint26_radial_14434_14" cx="0" cy="0" r="1" gradientUnits="userSpaceOnUse" gradientTransform="translate(17.7475 12.5071) rotate(74.64) scale(7.98324 5.42843)">
<stop stop-color="#18388F"/>
<stop offset="0.37" stop-color="#193B96" stop-opacity="0.45"/>
<stop offset="0.7" stop-color="#1A3D9C" stop-opacity="0"/>
</radialGradient>
<radialGradient id="paint27_radial_14434_14" cx="0" cy="0" r="1" gradientUnits="userSpaceOnUse" gradientTransform="translate(17.1119 14.5688) rotate(74.64) scale(3.71184 3.52569)">
<stop stop-color="#18388F"/>
<stop offset="0.09" stop-color="#183992" stop-opacity="0.78"/>
<stop offset="0.22" stop-color="#193B96" stop-opacity="0.5"/>
<stop offset="0.35" stop-color="#193C98" stop-opacity="0.28"/>
<stop offset="0.47" stop-color="#1A3C9A" stop-opacity="0.13"/>
<stop offset="0.59" stop-color="#1A3D9C" stop-opacity="0.03"/>
<stop offset="0.7" stop-color="#1A3D9C" stop-opacity="0"/>
</radialGradient>
<radialGradient id="paint28_radial_14434_14" cx="0" cy="0" r="1" gradientUnits="userSpaceOnUse" gradientTransform="translate(17.1774 15.2149) rotate(74.64) scale(3.71184 3.52569)">
<stop stop-color="#1A3D9C" stop-opacity="0.78"/>
<stop offset="0.24" stop-color="#1A3D9C" stop-opacity="0.45"/>
<stop offset="0.44" stop-color="#1A3D9C" stop-opacity="0.2"/>
<stop offset="0.6" stop-color="#1A3D9C" stop-opacity="0.05"/>
<stop offset="0.7" stop-color="#1A3D9C" stop-opacity="0"/>
</radialGradient>
<radialGradient id="paint29_radial_14434_14" cx="0" cy="0" r="1" gradientUnits="userSpaceOnUse" gradientTransform="translate(7.59043 12.929) rotate(67.03) scale(8.85826 5.87875)">
<stop stop-color="#1A3D9C"/>
<stop offset="0.4" stop-color="#1A3D9C" stop-opacity="0.56"/>
<stop offset="0.48" stop-color="#1A3D9C" stop-opacity="0.43"/>
<stop offset="0.69" stop-color="#1A3D9C" stop-opacity="0.12"/>
<stop offset="0.79" stop-color="#1A3D9C" stop-opacity="0"/>
</radialGradient>
<radialGradient id="paint30_radial_14434_14" cx="0" cy="0" r="1" gradientUnits="userSpaceOnUse" gradientTransform="translate(6.47361 10.7511) rotate(76.1) scale(6.57096 4.33828)">
<stop stop-color="#1A3D9C"/>
<stop offset="0.06" stop-color="#1A3D9C" stop-opacity="0.88"/>
<stop offset="0.21" stop-color="#1A3D9C" stop-opacity="0.61"/>
<stop offset="0.36" stop-color="#1A3D9C" stop-opacity="0.39"/>
<stop offset="0.51" stop-color="#1A3D9C" stop-opacity="0.22"/>
<stop offset="0.67" stop-color="#1A3D9C" stop-opacity="0.1"/>
<stop offset="0.83" stop-color="#1A3D9C" stop-opacity="0.02"/>
<stop offset="1" stop-color="#1A3D9C" stop-opacity="0"/>
</radialGradient>
<radialGradient id="paint31_radial_14434_14" cx="0" cy="0" r="1" gradientUnits="userSpaceOnUse" gradientTransform="translate(6.47361 10.7511) rotate(76.1) scale(6.57096 4.33828)">
<stop stop-color="#1B3E9E"/>
<stop offset="0.06" stop-color="#1B3E9E" stop-opacity="0.87"/>
<stop offset="0.21" stop-color="#1B3E9D" stop-opacity="0.61"/>
<stop offset="0.36" stop-color="#1A3D9D" stop-opacity="0.39"/>
<stop offset="0.52" stop-color="#1A3D9C" stop-opacity="0.22"/>
<stop offset="0.67" stop-color="#1A3D9C" stop-opacity="0.1"/>
<stop offset="0.83" stop-color="#1A3D9C" stop-opacity="0.02"/>
<stop offset="1" stop-color="#1A3D9C" stop-opacity="0"/>
</radialGradient>
<radialGradient id="paint32_radial_14434_14" cx="0" cy="0" r="1" gradientUnits="userSpaceOnUse" gradientTransform="translate(7.03773 10.0132) rotate(76.1) scale(5.02715 3.31836)">
<stop stop-color="#183991"/>
<stop offset="0.03" stop-color="#183992" stop-opacity="0.95"/>
<stop offset="0.18" stop-color="#193A95" stop-opacity="0.66"/>
<stop offset="0.34" stop-color="#193B97" stop-opacity="0.42"/>
<stop offset="0.5" stop-color="#1A3C99" stop-opacity="0.24"/>
<stop offset="0.66" stop-color="#1A3D9B" stop-opacity="0.1"/>
<stop offset="0.82" stop-color="#1A3D9C" stop-opacity="0.03"/>
<stop offset="1" stop-color="#1A3D9C" stop-opacity="0"/>
</radialGradient>
<radialGradient id="paint33_radial_14434_14" cx="0" cy="0" r="1" gradientUnits="userSpaceOnUse" gradientTransform="translate(8.60217 11.4793) rotate(87.14) scale(3.97156 3.49671)">
<stop offset="0.04" stop-color="#2453D6" stop-opacity="0.6"/>
<stop offset="0.2" stop-color="#2453D6" stop-opacity="0.49"/>
<stop offset="0.52" stop-color="#2453D6" stop-opacity="0.2"/>
<stop offset="0.73" stop-color="#2453D6" stop-opacity="0"/>
</radialGradient>
<linearGradient id="paint34_linear_14434_14" x1="16.4378" y1="1.57787" x2="11.9205" y2="12.7421" gradientUnits="userSpaceOnUse">
<stop stop-color="#3774FF"/>
<stop offset="0.05" stop-color="#3774FF" stop-opacity="0.91"/>
<stop offset="0.16" stop-color="#3774FF" stop-opacity="0.66"/>
<stop offset="0.32" stop-color="#3774FF" stop-opacity="0.28"/>
<stop offset="0.43" stop-color="#3774FF" stop-opacity="0"/>
</linearGradient>
</defs>
</svg>
