<svg width="12" height="12" viewBox="0 0 12 12" fill="none" xmlns="http://www.w3.org/2000/svg">
<g clip-path="url(#clip0_10020_2855)">
<path fill-rule="evenodd" clip-rule="evenodd" d="M4.1466 2.14656C4.24036 2.05279 4.36754 2.00011 4.50015 2.00011L10.0001 2.00006C10.398 2.00006 10.7795 2.15809 11.0608 2.43939C11.3421 2.72069 11.5002 3.10222 11.5002 3.50005L11.5002 8.50005C11.5002 8.89787 11.3422 9.27941 11.0609 9.56071C10.7796 9.84202 10.398 10.0001 10.0002 10.0001L4.50022 10.0001C4.36761 10.0001 4.24043 9.94743 4.14666 9.85366L0.646633 6.35369C0.451369 6.15843 0.451366 5.84185 0.646627 5.64659L4.1466 2.14656ZM4.70726 3.00011L1.70729 6.00013L4.70732 9.00011L10.0002 9.00006C10.1328 9.00006 10.26 8.94738 10.3538 8.85361C10.4475 8.75984 10.5002 8.63266 10.5002 8.50006L10.5002 3.50006C10.5002 3.36745 10.4475 3.24027 10.3537 3.1465C10.2599 3.05274 10.1328 3.00006 10.0002 3.00006L4.70726 3.00011Z" fill="black"/>
<path d="M9.35372 4.14651C9.54898 4.34177 9.54899 4.65836 9.35373 4.85362L8.20729 6.00008L9.35375 7.14651C9.54901 7.34177 9.54901 7.65836 9.35375 7.85362C9.15849 8.04888 8.84191 8.04889 8.64665 7.85363L7.50019 6.70719L6.35375 7.85365C6.15849 8.04891 5.84191 8.04891 5.64665 7.85365C5.45138 7.65839 5.45138 7.34181 5.64664 7.14654L6.79308 6.00009L5.64662 4.85365C5.45136 4.65839 5.45135 4.34181 5.64661 4.14654C5.84187 3.95128 6.15846 3.95128 6.35372 4.14654L7.50018 5.29298L8.64661 4.14652C8.84187 3.95126 9.15846 3.95125 9.35372 4.14651Z" fill="black"/>
</g>
<defs>
<clipPath id="clip0_10020_2855">
<rect width="12" height="12" fill="white"/>
</clipPath>
</defs>
</svg>
