<svg width="12" height="12" viewBox="0 0 12 12" fill="none" xmlns="http://www.w3.org/2000/svg">
<path fill-rule="evenodd" clip-rule="evenodd" d="M1.50018 7.00012C1.77633 7.00012 2.00018 7.22398 2.00018 7.50012V9.50012C2.00018 9.63273 2.05286 9.75991 2.14663 9.85368C2.2404 9.94744 2.36758 10.0001 2.50018 10.0001H9.50018C9.63279 10.0001 9.75997 9.94744 9.85374 9.85368C9.9475 9.75991 10.0002 9.63273 10.0002 9.50012V7.50012C10.0002 7.22398 10.224 7.00012 10.5002 7.00012C10.7763 7.00012 11.0002 7.22398 11.0002 7.50012V9.50012C11.0002 9.89795 10.8421 10.2795 10.5608 10.5608C10.2795 10.8421 9.89801 11.0001 9.50018 11.0001H2.50018C2.10236 11.0001 1.72083 10.8421 1.43952 10.5608C1.15822 10.2795 1.00018 9.89795 1.00018 9.50012V7.50012C1.00018 7.22398 1.22404 7.00012 1.50018 7.00012Z" fill="black"/>
<path d="M3.14663 4.64657C3.34189 4.45131 3.65847 4.45131 3.85374 4.64657L5.50018 6.29302V1.50012C5.50018 1.22398 5.72404 1.00012 6.00018 1.00012C6.27633 1.00012 6.50018 1.22398 6.50018 1.50012V6.29302L8.14663 4.64657C8.34189 4.45131 8.65847 4.45131 8.85374 4.64657C9.049 4.84183 9.049 5.15841 8.85374 5.35368L6.35374 7.85368C6.15847 8.04894 5.84189 8.04894 5.64663 7.85368L3.14663 5.35368C2.95137 5.15841 2.95137 4.84183 3.14663 4.64657Z" fill="black"/>
</svg>
