<svg xmlns="http://www.w3.org/2000/svg" width="12" height="12" fill="none" viewBox="0 0 12 12">
  <path fill="#000" fill-rule="evenodd" d="M2.5 2a.5.5 0 0 0-.5.5v6.793l1.147-1.146A.5.5 0 0 1 3.5 8H5a.5.5 0 1 1 0 1H3.707l-1.853 1.854A.5.5 0 0 1 1 10.501v-8A1.5 1.5 0 0 1 2.5 1h7A1.5 1.5 0 0 1 11 2.5v2.75a.5.5 0 1 1-1 0V2.5a.5.5 0 0 0-.5-.5h-7Zm6.308 4.5a.5.5 0 0 1 .5.5v2.41l.955-.955a.5.5 0 1 1 .707.707L9.162 10.97a.5.5 0 0 1-.707 0L6.647 9.162a.5.5 0 1 1 .707-.707l.954.955V7a.5.5 0 0 1 .5-.5Z" clip-rule="evenodd"/>
</svg>
