<svg width="12" height="12" viewBox="0 0 12 12" fill="none" xmlns="http://www.w3.org/2000/svg">
<g clip-path="url(#clip0_10020_2871)">
<path fill-rule="evenodd" clip-rule="evenodd" d="M6.00018 2.00012C7.93425 2.00012 9.30774 2.97152 10.1791 3.9099C10.6149 4.37924 10.9321 4.84701 11.1408 5.19751C11.2454 5.37322 11.3234 5.52078 11.3761 5.62612C11.4025 5.67883 11.4225 5.72109 11.4364 5.75115C11.4433 5.76618 11.4488 5.77818 11.4526 5.78691L11.4573 5.79756L11.4588 5.801L11.4594 5.80224C11.4594 5.80224 11.4598 5.80316 11.0002 6.00012L11.4598 5.80316C11.5159 5.93407 11.5135 6.08269 11.4532 6.21173C11.2127 6.72666 10.911 7.21075 10.5547 7.65355C10.3816 7.8687 10.0669 7.90279 9.85175 7.72969C9.6366 7.55658 9.60252 7.24184 9.77562 7.02669C10.0325 6.70741 10.2563 6.36313 10.4438 5.99917C10.4028 5.9207 10.3488 5.82216 10.2815 5.70899C10.0995 5.40323 9.82297 4.996 9.44629 4.59035C8.69271 3.7788 7.56634 3.00028 6.00065 3.00012C5.80888 3.0005 5.6173 3.01258 5.427 3.03629C5.15297 3.07043 4.90316 2.87596 4.86902 2.60194C4.83488 2.32791 5.02934 2.0781 5.30337 2.04396C5.53422 2.0152 5.76755 2.00056 6.00018 2.00012Z" fill="black"/>
<path fill-rule="evenodd" clip-rule="evenodd" d="M5.99956 10.0001C4.06581 9.99991 2.69254 9.02862 1.82129 8.09035C1.38547 7.621 1.06823 7.15323 0.859599 6.80274C0.755005 6.62702 0.676931 6.47946 0.624259 6.37412C0.597904 6.32141 0.577851 6.27915 0.563967 6.24909C0.557023 6.23406 0.551616 6.22207 0.547731 6.21333L0.543038 6.20269L0.541542 6.19924L0.541006 6.198C0.541006 6.198 0.473364 5.90323 0.548293 5.78612C0.623221 5.66902 1.69799 3.93326 2.54253 3.24957L0.64663 1.35368C0.451368 1.15841 0.451368 0.841831 0.64663 0.646569C0.841892 0.451307 1.15847 0.451307 1.35374 0.646569L11.3537 10.6466C11.549 10.8418 11.549 11.1584 11.3537 11.3537C11.1585 11.5489 10.8419 11.5489 10.6466 11.3537L8.61869 9.32573C7.81948 9.7692 6.91808 10.0025 5.99956 10.0001ZM5.03585 6.412C4.98556 6.28748 4.96086 6.15411 4.96323 6.01984C4.96502 5.91815 4.98232 5.81752 5.01434 5.72139L6.27916 6.98621C6.18303 7.01824 6.0824 7.03553 5.98071 7.03732C5.84644 7.03969 5.71307 7.01499 5.58855 6.9647C5.46404 6.9144 5.35092 6.83955 5.25597 6.74459C5.16101 6.64963 5.08615 6.53652 5.03585 6.412ZM5.99836 8.03717C6.2669 8.03243 6.53173 7.97365 6.77706 7.86434C6.86295 7.82607 6.94583 7.78189 7.02514 7.73218L7.87613 8.58318C7.29224 8.85834 6.65216 9.00187 6.00152 9.00012L6.00018 9.00012C4.43425 9.00012 3.30773 8.22152 2.55408 7.4099C2.1774 7.00424 1.90089 6.59701 1.71889 6.29125C1.65191 6.17872 1.59815 6.08064 1.55728 6.00238C1.97087 5.208 2.54975 4.51211 3.25417 3.96121L4.26837 4.97542C4.21867 5.05472 4.17448 5.1376 4.13621 5.22349C4.0269 5.46882 3.96812 5.73366 3.96339 6.0022C3.95865 6.27074 4.00805 6.53748 4.10864 6.78652C4.20923 7.03555 4.35894 7.26178 4.54886 7.45169C4.73878 7.64161 4.965 7.79133 5.21404 7.89192C5.46307 7.99251 5.72981 8.04191 5.99836 8.03717Z" fill="black"/>
</g>
<defs>
<clipPath id="clip0_10020_2871">
<rect width="12" height="12" fill="white" transform="translate(0.000244141 0.00012207)"/>
</clipPath>
</defs>
</svg>
