<svg width="12" height="12" viewBox="0 0 12 12" fill="none" xmlns="http://www.w3.org/2000/svg">
<path fill-rule="evenodd" clip-rule="evenodd" d="M6.00024 3.00012C6.27639 3.00012 6.50024 3.22398 6.50024 3.50012V5.6911L8.22385 6.55291C8.47084 6.6764 8.57095 6.97674 8.44746 7.22373C8.32396 7.47072 8.02363 7.57083 7.77664 7.44734L5.77664 6.44734C5.60725 6.36264 5.50024 6.18951 5.50024 6.00012V3.50012C5.50024 3.22398 5.7241 3.00012 6.00024 3.00012Z" fill="black"/>
<path d="M8.83691 1.89029C7.91402 1.25376 6.80398 0.945855 5.68506 1.01604C4.56614 1.08622 3.50328 1.53041 2.66716 2.27727L2.00024 2.87749V1.50012C2.00024 1.22398 1.77639 1.00012 1.50024 1.00012C1.2241 1.00012 1.00024 1.22398 1.00024 1.50012V4.00012C1.00024 4.27626 1.2241 4.50012 1.50024 4.50012H4.00024C4.27639 4.50012 4.50024 4.27626 4.50024 4.00012C4.50024 3.72398 4.27639 3.50012 4.00024 3.50012H2.80328L3.33401 3.02247C4.0028 2.42534 4.85283 2.0702 5.74766 2.01407C6.6428 1.95793 7.53083 2.20425 8.26914 2.71348C9.00745 3.22271 9.5532 3.9653 9.81873 4.82198C10.0843 5.67867 10.0542 6.59974 9.73331 7.43727C9.41244 8.2748 8.8194 8.98019 8.04943 9.44016C7.27946 9.90012 6.37725 10.088 5.48769 9.97354C4.59813 9.8591 3.77283 9.44902 3.14435 8.80915C2.51587 8.16928 2.12067 7.33676 2.02223 6.44529C1.99192 6.17081 1.74484 5.97288 1.47037 6.00319C1.19589 6.0335 0.997959 6.28058 1.02827 6.55505C1.15133 7.66939 1.64533 8.71005 2.43093 9.50988C3.21653 10.3097 4.24814 10.8223 5.3601 10.9654C6.47205 11.1084 7.59982 10.8736 8.56227 10.2986C9.52473 9.72368 10.266 8.84194 10.6671 7.79503C11.0682 6.74811 11.1058 5.59678 10.7739 4.52592C10.442 3.45506 9.7598 2.52683 8.83691 1.89029Z" fill="black"/>
</svg>
