<svg width="12" height="12" viewBox="0 0 12 12" fill="none" xmlns="http://www.w3.org/2000/svg">
<path fill-rule="evenodd" clip-rule="evenodd" d="M1.00018 2.50012C1.00018 1.67169 1.67176 1.00012 2.50018 1.00012H9.50018C10.3286 1.00012 11.0002 1.67169 11.0002 2.50012V9.50012C11.0002 10.3285 10.3286 11.0001 9.50018 11.0001H2.50018C1.67176 11.0001 1.00018 10.3285 1.00018 9.50012V2.50012ZM2.50018 10.0001C2.22404 10.0001 2.00018 9.77626 2.00018 9.50012V5.00012H4.00018V10.0001H2.50018ZM9.50018 10.0001C9.77633 10.0001 10.0002 9.77626 10.0002 9.50012V5.00012H5.00018V10.0001H9.50018ZM2.00018 2.50012C2.00018 2.22398 2.22404 2.00012 2.50018 2.00012H9.50018C9.77633 2.00012 10.0002 2.22398 10.0002 2.50012V4.00012H2.00018V2.50012Z" fill="black"/>
</svg>
