<svg width="12" height="12" viewBox="0 0 12 12" fill="none" xmlns="http://www.w3.org/2000/svg">
<g clip-path="url(#clip0_10020_2974)">
<path fill-rule="evenodd" clip-rule="evenodd" d="M2.50024 5.00012C1.67182 5.00012 1.00024 5.67169 1.00024 6.50012V10.0001C1.00024 10.8285 1.67182 11.5001 2.50024 11.5001H9.50024C10.3287 11.5001 11.0002 10.8285 11.0002 10.0001V6.50012C11.0002 5.67169 10.3287 5.00012 9.50024 5.00012H9.00024V3.50012C9.00024 2.70447 8.68417 1.94141 8.12156 1.3788C7.55896 0.816193 6.79589 0.500122 6.00024 0.500122C5.20459 0.500122 4.44153 0.816193 3.87892 1.3788C3.31631 1.94141 3.00024 2.70447 3.00024 3.50012V5.00012H4.00024V3.50012C4.00024 2.96969 4.21096 2.46098 4.58603 2.08591C4.9611 1.71084 5.46981 1.50012 6.00024 1.50012C6.53068 1.50012 7.03938 1.71084 7.41446 2.08591C7.78953 2.46098 8.00024 2.96969 8.00024 3.50012V5.00012H4.00024H3.00024H2.50024ZM2.50024 6.00012C2.2241 6.00012 2.00024 6.22398 2.00024 6.50012V10.0001C2.00024 10.2763 2.2241 10.5001 2.50024 10.5001H9.50024C9.77639 10.5001 10.0002 10.2763 10.0002 10.0001V6.50012C10.0002 6.22398 9.77639 6.00012 9.50024 6.00012H2.50024Z" fill="black"/>
</g>
<defs>
<clipPath id="clip0_10020_2974">
<rect width="12" height="12" fill="white" transform="translate(0.000244141 0.00012207)"/>
</clipPath>
</defs>
</svg>
