<svg width="12" height="12" viewBox="0 0 12 12" fill="none" xmlns="http://www.w3.org/2000/svg">
<path d="M7.50018 1.00012C7.22404 1.00012 7.00018 1.22398 7.00018 1.50012C7.00018 1.77626 7.22404 2.00012 7.50018 2.00012H9.29308L6.64663 4.64657C6.45137 4.84183 6.45137 5.15841 6.64663 5.35368C6.84189 5.54894 7.15847 5.54894 7.35374 5.35368L10.0002 2.70723V4.50012C10.0002 4.77626 10.224 5.00012 10.5002 5.00012C10.7763 5.00012 11.0002 4.77626 11.0002 4.50012V1.50012C11.0002 1.22398 10.7763 1.00012 10.5002 1.00012H7.50018Z" fill="black"/>
<path d="M2.00018 7.50012C2.00018 7.22398 1.77633 7.00012 1.50018 7.00012C1.22404 7.00012 1.00018 7.22398 1.00018 7.50012V10.5001C1.00018 10.7763 1.22404 11.0001 1.50018 11.0001H4.50018C4.77633 11.0001 5.00018 10.7763 5.00018 10.5001C5.00018 10.224 4.77633 10.0001 4.50018 10.0001H2.70729L5.35374 7.35368C5.549 7.15841 5.549 6.84183 5.35374 6.64657C5.15847 6.45131 4.84189 6.45131 4.64663 6.64657L2.00018 9.29302V7.50012Z" fill="black"/>
</svg>
