<svg width="12" height="12" viewBox="0 0 12 12" fill="none" xmlns="http://www.w3.org/2000/svg">
<path d="M10.8538 1.14657C11.0491 1.34183 11.0491 1.65841 10.8538 1.85368L8.20735 4.50012H10.0002C10.2764 4.50012 10.5002 4.72398 10.5002 5.00012C10.5002 5.27626 10.2764 5.50012 10.0002 5.50012H7.00024C6.7241 5.50012 6.50024 5.27626 6.50024 5.00012V2.00012C6.50024 1.72398 6.7241 1.50012 7.00024 1.50012C7.27639 1.50012 7.50024 1.72398 7.50024 2.00012V3.79302L10.1467 1.14657C10.342 0.951307 10.6585 0.951307 10.8538 1.14657Z" fill="black"/>
<path d="M1.8538 10.8537C1.65854 11.0489 1.34195 11.0489 1.14669 10.8537C0.951429 10.6584 0.951429 10.3418 1.14669 10.1466L3.79314 7.50012H2.00024C1.7241 7.50012 1.50024 7.27626 1.50024 7.00012C1.50024 6.72398 1.7241 6.50012 2.00024 6.50012H5.00024C5.27639 6.50012 5.50024 6.72398 5.50024 7.00012V10.0001C5.50024 10.2763 5.27639 10.5001 5.00024 10.5001C4.7241 10.5001 4.50024 10.2763 4.50024 10.0001V8.20723L1.8538 10.8537Z" fill="black"/>
</svg>
