<svg width="12" height="12" viewBox="0 0 12 12" fill="none" xmlns="http://www.w3.org/2000/svg">
<g clip-path="url(#clip0_14924_1101)">
<path fill-rule="evenodd" clip-rule="evenodd" d="M11.4378 6.00054C11.4378 2.99749 9.00334 0.563035 6.00029 0.563035C2.99724 0.563035 0.562789 2.99749 0.562789 6.00054C0.562789 9.00358 2.99724 11.438 6.00029 11.438C9.00334 11.438 11.4378 9.00358 11.4378 6.00054ZM5.00029 4.06304C4.75867 4.06304 4.56279 4.25891 4.56279 4.50054L4.56279 7.50054C4.56279 7.74216 4.75867 7.93804 5.00029 7.93804C5.24191 7.93804 5.43779 7.74216 5.43779 7.50054L5.43779 4.50054C5.43779 4.25891 5.24191 4.06304 5.00029 4.06304ZM7.00029 4.06304C6.75867 4.06304 6.56279 4.25891 6.56279 4.50054L6.56279 7.50054C6.56279 7.74216 6.75867 7.93804 7.00029 7.93804C7.24191 7.93804 7.43779 7.74216 7.43779 7.50054L7.43779 4.50054C7.43779 4.25891 7.24191 4.06304 7.00029 4.06304Z" fill="black"/>
</g>
<defs>
<clipPath id="clip0_14924_1101">
<rect width="12" height="12" fill="white" transform="translate(0.000244141 0.000488281)"/>
</clipPath>
</defs>
</svg>
