<svg width="12" height="12" viewBox="0 0 12 12" fill="none" xmlns="http://www.w3.org/2000/svg">
<path fill-rule="evenodd" clip-rule="evenodd" d="M11.0003 6.00057C11.0003 3.23913 8.76169 1.00053 6.00024 1.00053C3.2388 1.00053 1.0002 3.23913 1.0002 6.00057C1.0002 8.76202 3.23879 11.0006 6.00024 11.0006C8.76169 11.0006 11.0003 8.76202 11.0003 6.00057ZM5.0807 4.21895C4.85851 4.21895 4.67839 4.39907 4.67839 4.62125L4.67839 7.3799C4.67839 7.60208 4.85851 7.7822 5.0807 7.7822C5.30288 7.7822 5.483 7.60208 5.483 7.3799L5.483 4.62125C5.483 4.39907 5.30288 4.21895 5.0807 4.21895ZM6.91979 4.21895C6.69761 4.21895 6.51749 4.39907 6.51749 4.62125L6.51749 7.3799C6.51749 7.60208 6.69761 7.7822 6.91979 7.7822C7.14198 7.7822 7.32209 7.60208 7.32209 7.3799L7.32209 4.62125C7.32209 4.39907 7.14198 4.21895 6.91979 4.21895Z" fill="black"/>
</svg>
