<svg width="12" height="12" viewBox="0 0 12 12" fill="none" xmlns="http://www.w3.org/2000/svg">
<path fill-rule="evenodd" clip-rule="evenodd" d="M8.09214 1.00054L4.32508 1.00054C3.96604 1.00054 3.62169 1.14317 3.36781 1.39705C3.11393 1.65093 2.9713 1.99528 2.9713 2.35432C2.9713 2.71337 3.11393 3.05771 3.36781 3.31159C3.62169 3.56548 3.96604 3.70811 4.32508 3.70811L4.38394 3.70811L4.38394 5.53727C4.38389 5.63582 4.35635 5.7324 4.30441 5.81616C4.25247 5.89992 4.17819 5.96753 4.08993 6.01138L4.08737 6.01266L3.25033 6.43589C3.02541 6.54799 2.83612 6.72049 2.70367 6.93408C2.57094 7.14813 2.50055 7.39496 2.50041 7.64682L2.50041 8.47579C2.50041 8.58506 2.54382 8.68986 2.62109 8.76713C2.69836 8.8444 2.80316 8.88781 2.91243 8.88781L5.75024 8.88781L5.75024 10.8302C5.75024 11.0578 5.93471 11.2422 6.16227 11.2422C6.38982 11.2422 6.57429 11.0578 6.57429 10.8302L6.57429 8.88781L9.50478 8.88781C9.73234 8.88781 9.9168 8.70334 9.9168 8.47579L9.9168 7.64703C9.91667 7.39517 9.84628 7.14813 9.71355 6.93408C9.5811 6.72049 9.39181 6.54799 9.16689 6.4359L8.32729 6.01138C8.23903 5.96752 8.16475 5.89992 8.11281 5.81616C8.06091 5.73247 8.03337 5.63596 8.03328 5.53748L8.03328 3.70811L8.09214 3.70811C8.45118 3.70811 8.79552 3.56548 9.04941 3.31159C9.30329 3.05771 9.44592 2.71337 9.44592 2.35432C9.44592 1.99528 9.30329 1.65093 9.04941 1.39705C8.79552 1.14317 8.45118 1.00054 8.09214 1.00054Z" fill="black"/>
</svg>
