<svg width="12" height="12" viewBox="0 0 12 12" fill="none" xmlns="http://www.w3.org/2000/svg">
<g clip-path="url(#clip0_10020_3027)">
<path fill-rule="evenodd" clip-rule="evenodd" d="M3.4455 1.00012C3.4455 0.72398 3.66935 0.500122 3.9455 0.500122H8.0005C8.39832 0.500122 8.77985 0.658157 9.06116 0.939462C9.34246 1.22077 9.5005 1.6023 9.5005 2.00012C9.5005 2.39795 9.34246 2.77948 9.06116 3.06078C8.77985 3.34209 8.39832 3.50012 8.0005 3.50012V4.67012C8.0005 4.94626 7.77664 5.17012 7.5005 5.17012C7.22435 5.17012 7.0005 4.94626 7.0005 4.67012V3.00012C7.0005 2.72398 7.22435 2.50012 7.5005 2.50012H8.0005C8.1331 2.50012 8.26028 2.44744 8.35405 2.35368C8.44782 2.25991 8.5005 2.13273 8.5005 2.00012C8.5005 1.86751 8.44782 1.74034 8.35405 1.64657C8.26028 1.5528 8.1331 1.50012 8.0005 1.50012H3.9455C3.66935 1.50012 3.4455 1.27626 3.4455 1.00012Z" fill="black"/>
<path fill-rule="evenodd" clip-rule="evenodd" d="M0.64663 0.646569C0.841892 0.451307 1.15847 0.451307 1.35374 0.646569L11.3537 10.6466C11.549 10.8418 11.549 11.1584 11.3537 11.3537C11.1585 11.5489 10.8419 11.5489 10.6466 11.3537L8.29308 9.00012H6.50018V11.0001C6.50018 11.2763 6.27633 11.5001 6.00018 11.5001C5.72404 11.5001 5.50018 11.2763 5.50018 11.0001V9.00012H2.50018C2.22404 9.00012 2.00018 8.77626 2.00018 8.50012V7.62012C2.00033 7.34106 2.07832 7.0673 2.22539 6.83014C2.37212 6.59352 2.58181 6.40242 2.83097 6.27821L3.72268 5.82735C3.80598 5.78595 3.87609 5.72215 3.92511 5.6431C3.97409 5.56412 4.00008 5.47305 4.00018 5.38012V4.70723L0.64663 1.35368C0.451368 1.15841 0.451368 0.841831 0.64663 0.646569ZM4.16938 6.72204C4.41854 6.59784 4.62824 6.40673 4.77497 6.1701C4.86921 6.01813 4.93509 5.85113 4.9703 5.67734L7.29308 8.00012H3.00018V7.62029C3.00025 7.5273 3.02625 7.43618 3.07525 7.35715C3.12428 7.27809 3.19439 7.21429 3.27769 7.1729L4.16938 6.72204Z" fill="black"/>
</g>
<defs>
<clipPath id="clip0_10020_3027">
<rect width="12" height="12" fill="white" transform="translate(0.000244141 0.00012207)"/>
</clipPath>
</defs>
</svg>
