<svg width="12" height="12" viewBox="0 0 12 12" fill="none" xmlns="http://www.w3.org/2000/svg">
<g clip-path="url(#clip0_14924_1103)">
<path d="M8.0003 0.563039L4.0003 0.563039C3.61906 0.563039 3.25342 0.714489 2.98384 0.984073C2.71425 1.25366 2.5628 1.61929 2.5628 2.00054C2.5628 2.38179 2.71425 2.74742 2.98384 3.01701C3.25342 3.28659 3.61906 3.43804 4.0003 3.43804L4.0628 3.43804L4.0628 5.38031C4.06275 5.48496 4.0335 5.58751 3.97835 5.67645C3.9232 5.76539 3.84433 5.83718 3.75062 5.88375L3.74789 5.8851L2.85909 6.3345C2.62026 6.45353 2.41927 6.6367 2.27863 6.8635C2.13769 7.09078 2.06295 7.35287 2.0628 7.62031L2.0628 8.50054C2.0628 8.61657 2.1089 8.72785 2.19094 8.8099C2.27299 8.89195 2.38427 8.93804 2.5003 8.93804L5.5628 8.93804L5.5628 11.0005C5.5628 11.2422 5.75868 11.438 6.0003 11.438C6.24193 11.438 6.4378 11.2422 6.4378 11.0005L6.4378 8.93804L9.5003 8.93804C9.74193 8.93804 9.9378 8.74216 9.9378 8.50054L9.9378 7.62054C9.93766 7.3531 9.86292 7.09078 9.72198 6.8635C9.58134 6.6367 9.38035 6.45354 9.14152 6.33451L8.25 5.88374C8.15628 5.83717 8.07741 5.76539 8.02226 5.67645C7.96715 5.58758 7.9379 5.48511 7.9378 5.38054L7.9378 3.43804L8.0003 3.43804C8.38155 3.43804 8.74719 3.28659 9.01677 3.01701C9.28635 2.74742 9.4378 2.38179 9.4378 2.00054C9.4378 1.61929 9.28635 1.25366 9.01677 0.984073C8.74719 0.714489 8.38155 0.563039 8.0003 0.563039Z" fill="black"/>
</g>
<defs>
<clipPath id="clip0_14924_1103">
<rect width="12" height="12" fill="white" transform="translate(0.000244141 0.000488281)"/>
</clipPath>
</defs>
</svg>
