<svg width="12" height="12" viewBox="0 0 12 12" fill="none" xmlns="http://www.w3.org/2000/svg">
<g clip-path="url(#clip0_10020_3058)">
<path fill-rule="evenodd" clip-rule="evenodd" d="M4.00024 0.500122C3.60242 0.500122 3.22089 0.658157 2.93958 0.939462C2.65828 1.22077 2.50024 1.6023 2.50024 2.00012C2.50024 2.39795 2.65828 2.77948 2.93958 3.06078C3.22089 3.34209 3.60242 3.50012 4.00024 3.50012V5.38012C4.00015 5.47305 3.97415 5.56412 3.92517 5.6431C3.87615 5.72215 3.80604 5.78595 3.72274 5.82735L2.83101 6.27822C2.58186 6.40242 2.37218 6.59352 2.22545 6.83014C2.07839 7.0673 2.00039 7.34106 2.00024 7.62012V8.50012C2.00024 8.77626 2.2241 9.00012 2.50024 9.00012H5.50024V11.0001C5.50024 11.2763 5.7241 11.5001 6.00024 11.5001C6.27639 11.5001 6.50024 11.2763 6.50024 11.0001V9.00012H9.50024C9.77639 9.00012 10.0002 8.77626 10.0002 8.50012V7.61986C10.0001 7.34079 9.9221 7.0673 9.77503 6.83014C9.62831 6.59353 9.41864 6.40244 9.16951 6.27823L8.28086 5.82891L8.27774 5.82736C8.19444 5.78596 8.12434 5.72215 8.07531 5.6431C8.02629 5.56404 8.00029 5.47288 8.00024 5.37986V3.50012C8.39807 3.50012 8.7796 3.34209 9.0609 3.06078C9.34221 2.77948 9.50024 2.39795 9.50024 2.00012C9.50024 1.6023 9.34221 1.22077 9.0609 0.939462C8.7796 0.658157 8.39807 0.500122 8.00024 0.500122H4.00024ZM4.00024 1.50012C3.86764 1.50012 3.74046 1.5528 3.64669 1.64657C3.55292 1.74034 3.50024 1.86751 3.50024 2.00012C3.50024 2.13273 3.55292 2.25991 3.64669 2.35368C3.74046 2.44744 3.86764 2.50012 4.00024 2.50012H4.50024C4.77639 2.50012 5.00024 2.72398 5.00024 3.00012V5.38012C5.0001 5.65919 4.9221 5.93294 4.77503 6.1701C4.62831 6.40672 4.41862 6.59782 4.16947 6.72203L3.27775 7.1729C3.19445 7.21429 3.12434 7.27809 3.07531 7.35715C3.02631 7.43618 3.00031 7.5273 3.00024 7.62029V8.00012H9.00024V7.62039C9.0002 7.52737 8.9742 7.4362 8.92517 7.35715C8.87615 7.27809 8.80605 7.21428 8.72274 7.17289L8.71963 7.17134L7.83098 6.72201C7.58185 6.5978 7.37218 6.40671 7.22545 6.1701C7.07839 5.93294 7.00039 5.65945 7.00024 5.38039V3.00012C7.00024 2.72398 7.2241 2.50012 7.50024 2.50012H8.00024C8.13285 2.50012 8.26003 2.44744 8.3538 2.35368C8.44757 2.25991 8.50024 2.13273 8.50024 2.00012C8.50024 1.86751 8.44757 1.74034 8.3538 1.64657C8.26003 1.5528 8.13285 1.50012 8.00024 1.50012H4.00024Z" fill="black"/>
</g>
<defs>
<clipPath id="clip0_10020_3058">
<rect width="12" height="12" fill="white" transform="translate(0.000244141 0.00012207)"/>
</clipPath>
</defs>
</svg>
