<svg width="12" height="12" viewBox="0 0 12 12" fill="none" xmlns="http://www.w3.org/2000/svg">
<path fill-rule="evenodd" clip-rule="evenodd" d="M1.0002 6.00044C1.0002 8.76187 3.23878 11.0004 6.0002 11.0004C8.76163 11.0004 11.0002 8.76187 11.0002 6.00045C11.0002 3.23902 8.76163 1.00044 6.0002 1.00044C3.23878 1.00044 1.0002 3.23902 1.0002 6.00044ZM4.89083 8.19422C5.02164 8.26423 5.18037 8.25656 5.30382 8.17426L8.06244 6.33518C8.17436 6.26057 8.24158 6.13495 8.24158 6.00045C8.24158 5.86593 8.17436 5.74032 8.06244 5.66571L5.30382 3.82663C5.18037 3.74433 5.02164 3.73666 4.89083 3.80667C4.76002 3.87668 4.67836 4.013 4.67836 4.16136L4.67836 7.83953C4.67836 7.98789 4.76002 8.12421 4.89083 8.19422ZM5.48296 7.08782L5.48296 4.91307L7.11403 6.00045L5.48296 7.08782Z" fill="black"/>
</svg>
