<svg width="12" height="12" viewBox="0 0 12 12" fill="none" xmlns="http://www.w3.org/2000/svg">
<g clip-path="url(#clip0_14924_1095)">
<path fill-rule="evenodd" clip-rule="evenodd" d="M0.563186 6.00044C0.563186 9.00349 2.99764 11.4379 6.00069 11.4379C9.00374 11.4379 11.4382 9.00349 11.4382 6.00044C11.4382 2.99739 9.00374 0.562941 6.00069 0.562941C2.99764 0.56294 0.563186 2.99739 0.563186 6.00044ZM4.79425 8.38617C4.93651 8.46231 5.10912 8.45396 5.24337 8.36446L8.24337 6.36446C8.36508 6.28332 8.43819 6.14672 8.43819 6.00044C8.43819 5.85416 8.36508 5.71756 8.24337 5.63642L5.24337 3.63642C5.10912 3.54692 4.93651 3.53858 4.79425 3.61471C4.65199 3.69084 4.56319 3.83909 4.56319 4.00044L4.56319 8.00044C4.56319 8.16179 4.65199 8.31004 4.79425 8.38617ZM5.43819 7.18297L5.43819 4.81792L7.21197 6.00044L5.43819 7.18297Z" fill="black"/>
</g>
<defs>
<clipPath id="clip0_14924_1095">
<rect width="12" height="12" fill="white" transform="translate(0.000244141 0.000488281)"/>
</clipPath>
</defs>
</svg>
