<svg width="12" height="12" viewBox="0 0 12 12" fill="none" xmlns="http://www.w3.org/2000/svg">
<path d="M6.00024 2.00012C6.27639 2.00012 6.50024 2.22398 6.50024 2.50012V5.50012H9.50024C9.77639 5.50012 10.0002 5.72398 10.0002 6.00012C10.0002 6.27626 9.77639 6.50012 9.50024 6.50012H6.50024V9.50012C6.50024 9.77626 6.27639 10.0001 6.00024 10.0001C5.7241 10.0001 5.50024 9.77626 5.50024 9.50012V6.50012H2.50024C2.2241 6.50012 2.00024 6.27626 2.00024 6.00012C2.00024 5.72398 2.2241 5.50012 2.50024 5.50012H5.50024V2.50012C5.50024 2.22398 5.7241 2.00012 6.00024 2.00012Z" fill="black"/>
</svg>
