<svg width="12" height="12" viewBox="0 0 12 12" fill="none" xmlns="http://www.w3.org/2000/svg">
<path fill-rule="evenodd" clip-rule="evenodd" d="M11.0003 6.00053C11.0003 3.23911 8.76171 1.00053 6.00029 1.00053C3.23886 1.00053 1.00029 3.23911 1.00029 6.00053C1.00029 8.76196 3.23886 11.0005 6.00029 11.0005C8.76171 11.0005 11.0003 8.76196 11.0003 6.00053ZM6.00029 3.75915C5.7781 3.75915 5.59799 3.93927 5.59799 4.16145L5.59799 5.59823L4.16121 5.59823C3.93902 5.59823 3.75891 5.77835 3.75891 6.00053C3.75891 6.22272 3.93902 6.40283 4.16121 6.40283L5.59799 6.40283L5.59799 7.83961C5.59799 8.0618 5.7781 8.24191 6.00029 8.24191C6.22247 8.24191 6.40259 8.0618 6.40259 7.83961L6.40259 6.40283L7.83937 6.40283C8.06155 6.40283 8.24167 6.22272 8.24167 6.00053C8.24167 5.77835 8.06155 5.59823 7.83937 5.59823L6.40259 5.59823L6.40259 4.16145C6.40259 3.93927 6.22247 3.75915 6.00029 3.75915Z" fill="black"/>
</svg>
