<svg width="12" height="12" viewBox="0 0 12 12" fill="none" xmlns="http://www.w3.org/2000/svg">
<g clip-path="url(#clip0_14924_1097)">
<path fill-rule="evenodd" clip-rule="evenodd" d="M11.4378 6.00054C11.4378 2.99749 9.00334 0.563035 6.00029 0.563035C2.99724 0.563035 0.562789 2.99749 0.562789 6.00054C0.562789 9.00358 2.99724 11.438 6.00029 11.438C9.00334 11.438 11.4378 9.00358 11.4378 6.00054ZM6.00029 3.56304C5.75867 3.56303 5.56279 3.75891 5.56279 4.00054L5.56279 5.56304L4.00029 5.56304C3.75866 5.56304 3.56279 5.75891 3.56279 6.00054C3.56279 6.24216 3.75867 6.43804 4.00029 6.43804L5.56279 6.43804L5.56279 8.00054C5.56279 8.24216 5.75867 8.43804 6.00029 8.43804C6.24191 8.43804 6.43779 8.24216 6.43779 8.00054L6.43779 6.43804L8.00029 6.43804C8.24191 6.43804 8.43779 6.24216 8.43779 6.00054C8.43779 5.75891 8.24191 5.56304 8.00029 5.56304L6.43779 5.56304L6.43779 4.00054C6.43779 3.75891 6.24191 3.56304 6.00029 3.56304Z" fill="black"/>
</g>
<defs>
<clipPath id="clip0_14924_1097">
<rect width="12" height="12" fill="white" transform="translate(0.000244141 0.000488281)"/>
</clipPath>
</defs>
</svg>
