<svg width="12" height="12" viewBox="0 0 12 12" fill="none" xmlns="http://www.w3.org/2000/svg">
<path fill-rule="evenodd" clip-rule="evenodd" d="M6.00018 2.00037C3.79104 2.00037 2.00018 3.79123 2.00018 6.00037C2.00018 8.20951 3.79104 10.0004 6.00018 10.0004C8.20932 10.0004 10.0002 8.20951 10.0002 6.00037C10.0002 3.79123 8.20932 2.00037 6.00018 2.00037ZM1.00018 6.00037C1.00018 3.23894 3.23876 1.00037 6.00018 1.00037C8.76161 1.00037 11.0002 3.23894 11.0002 6.00037C11.0002 8.76179 8.76161 11.0004 6.00018 11.0004C3.23876 11.0004 1.00018 8.76179 1.00018 6.00037Z" fill="black"/>
<path fill-rule="evenodd" clip-rule="evenodd" d="M3.00018 6.00037C3.00018 4.34351 4.34333 3.00037 6.00018 3.00037C7.65704 3.00037 9.00018 4.34351 9.00018 6.00037C9.00018 7.65722 7.65704 9.00037 6.00018 9.00037C4.34333 9.00037 3.00018 7.65722 3.00018 6.00037Z" fill="black"/>
</svg>
