<svg width="12" height="12" viewBox="0 0 12 12" fill="none" xmlns="http://www.w3.org/2000/svg">
<path fill-rule="evenodd" clip-rule="evenodd" d="M5.71961 1.00837C6.83849 0.945485 7.94606 1.26029 8.86459 1.90228C9.78312 2.54427 10.4594 3.47622 10.7848 4.54857C11.1102 5.62093 11.066 6.77152 10.6591 7.81571C10.2523 8.8599 9.50648 9.73715 8.54136 10.3067C7.57623 10.8762 6.44775 11.1051 5.33701 10.9564C4.22626 10.8078 3.19765 10.2903 2.41623 9.48705C1.63481 8.68378 1.14589 7.6413 1.02792 6.52688C0.998856 6.25227 1.19791 6.0061 1.47251 5.97703C1.74712 5.94796 1.9933 6.14701 2.02237 6.42162C2.11674 7.31315 2.50788 8.14714 3.13302 8.78975C3.75816 9.43236 4.58105 9.84634 5.46964 9.96525C6.35824 10.0842 7.26103 9.90111 8.03313 9.44548C8.80523 8.98984 9.40189 8.28804 9.72735 7.45268C10.0528 6.61732 10.0882 5.69685 9.82787 4.83896C9.56753 3.98108 9.02654 3.23552 8.29172 2.72193C7.55689 2.20833 6.67083 1.95649 5.77573 2.00679C4.88147 2.05706 4.02999 2.40599 3.35764 2.99766L2.82813 3.47422H3.00026C3.2764 3.47422 3.50026 3.69808 3.50026 3.97422C3.50026 4.25036 3.2764 4.47422 3.00026 4.47422H1.52736C1.52599 4.47423 1.52462 4.47423 1.52326 4.47422H1.50024C1.2241 4.47422 1.00024 4.25036 1.00024 3.97422V2.4742C1.00024 2.19806 1.2241 1.9742 1.50024 1.9742C1.77639 1.9742 2.00024 2.19806 2.00024 2.4742V2.87395L2.69459 2.24904C3.5354 1.50817 4.60073 1.07126 5.71961 1.00837ZM5.97736 4.50028C5.97736 4.22413 6.20122 4.00028 6.47736 4.00028H7.78541C8.06155 4.00028 8.28541 4.22413 8.28541 4.50028C8.28541 4.77642 8.06155 5.00028 7.78541 5.00028H6.97736V5.27245C7.14574 5.25799 7.334 5.27256 7.52545 5.34458C7.92281 5.49408 8.11787 5.80156 8.2054 6.065C8.28567 6.30658 8.28548 6.53746 8.28541 6.6256C8.28541 6.6281 8.28541 6.63048 8.28541 6.63274C8.28541 6.7997 8.23208 7.05443 8.10848 7.29163C7.98037 7.53749 7.73949 7.83159 7.32847 7.93719C6.97862 8.02708 6.67827 7.97399 6.43533 7.84056C6.22954 7.72754 6.08753 7.56604 6.01811 7.48709C6.01358 7.48194 6.00936 7.47714 6.00545 7.47273C5.82233 7.26604 5.84142 6.95004 6.04811 6.76691C6.2548 6.58378 6.5708 6.60288 6.75393 6.80957C6.83545 6.90157 6.87366 6.9404 6.91673 6.96406C6.93265 6.9728 6.94777 6.97807 6.96629 6.9804C6.98516 6.98276 7.02091 6.98373 7.07963 6.96865C7.12286 6.95754 7.17266 6.92357 7.22166 6.82953C7.24528 6.7842 7.26259 6.73521 7.2736 6.69152C7.28361 6.6518 7.28514 6.62982 7.28537 6.62983C7.28541 6.62983 7.28541 6.63079 7.28541 6.63274C7.28541 6.55092 7.28287 6.45995 7.25641 6.38031C7.24455 6.34462 7.23154 6.32361 7.22131 6.31164C7.21342 6.30239 7.20127 6.29105 7.17333 6.28054C7.1295 6.26405 7.06305 6.26032 6.97188 6.28585C6.87933 6.31176 6.80422 6.35639 6.77798 6.37613C6.62654 6.49008 6.42368 6.50861 6.2541 6.42399C6.08452 6.33936 5.97736 6.16612 5.97736 5.9766V4.50028ZM5.19152 4.03858C5.37836 4.11597 5.50018 4.29829 5.50018 4.50052V7.50055C5.50018 7.7767 5.27633 8.00055 5.00018 8.00055C4.72404 8.00055 4.50018 7.7767 4.50018 7.50055V5.70763L4.35373 5.85409C4.15846 6.04935 3.84188 6.04935 3.64662 5.85409C3.45136 5.65882 3.45136 5.34224 3.64662 5.14698L4.64663 4.14697C4.78963 4.00397 5.00469 3.96119 5.19152 4.03858Z" fill="black"/>
</svg>
