<svg width="12" height="12" viewBox="0 0 12 12" fill="none" xmlns="http://www.w3.org/2000/svg">
<path fill-rule="evenodd" clip-rule="evenodd" d="M5.50024 1.00012C3.01496 1.00012 1.00024 3.01484 1.00024 5.50012C1.00024 7.9854 3.01496 10.0001 5.50024 10.0001C6.56277 10.0001 7.53928 9.63187 8.30912 9.01604L10.1467 10.8536C10.342 11.0489 10.6585 11.0489 10.8538 10.8536C11.0491 10.6584 11.0491 10.3418 10.8538 10.1465L9.01622 8.30893C9.63202 7.5391 10.0002 6.56261 10.0002 5.50012C10.0002 3.01484 7.98553 1.00012 5.50024 1.00012ZM5.50024 2.00012C3.56725 2.00012 2.00024 3.56713 2.00024 5.50012C2.00024 7.43312 3.56725 9.00012 5.50024 9.00012C7.43324 9.00012 9.00024 7.43312 9.00024 5.50012C9.00024 3.56713 7.43324 2.00012 5.50024 2.00012Z" fill="black"/>
</svg>
