<svg width="12" height="12" viewBox="0 0 12 12" fill="none" xmlns="http://www.w3.org/2000/svg">
<g clip-path="url(#clip0_10020_2961)">
<path fill-rule="evenodd" clip-rule="evenodd" d="M2.00024 5.50012C2.27639 5.50012 2.50024 5.72398 2.50024 6.00012V10.0001C2.50024 10.1327 2.55292 10.2599 2.64669 10.3537C2.74046 10.4474 2.86764 10.5001 3.00024 10.5001H9.00024C9.13285 10.5001 9.26003 10.4474 9.3538 10.3537C9.44757 10.2599 9.50024 10.1327 9.50024 10.0001V6.00012C9.50024 5.72398 9.7241 5.50012 10.0002 5.50012C10.2764 5.50012 10.5002 5.72398 10.5002 6.00012V10.0001C10.5002 10.3979 10.3422 10.7795 10.0609 11.0608C9.7796 11.3421 9.39807 11.5001 9.00024 11.5001H3.00024C2.60242 11.5001 2.22089 11.3421 1.93958 11.0608C1.65828 10.7795 1.50024 10.3979 1.50024 10.0001V6.00012C1.50024 5.72398 1.7241 5.50012 2.00024 5.50012Z" fill="black"/>
<path d="M6.50024 7.50012C6.50024 7.77626 6.27639 8.00012 6.00024 8.00012C5.7241 8.00012 5.50024 7.77626 5.50024 7.50012V2.20723L4.3538 3.35368C4.15854 3.54894 3.84195 3.54894 3.64669 3.35368C3.45143 3.15841 3.45143 2.84183 3.64669 2.64657L5.64669 0.646569C5.84195 0.451307 6.15854 0.451307 6.3538 0.646569L8.3538 2.64657C8.54906 2.84183 8.54906 3.15841 8.3538 3.35368C8.15854 3.54894 7.84195 3.54894 7.64669 3.35368L6.50024 2.20723V7.50012Z" fill="black"/>
</g>
<defs>
<clipPath id="clip0_10020_2961">
<rect width="12" height="12" fill="white" transform="translate(0.000244141 0.00012207)"/>
</clipPath>
</defs>
</svg>
