<svg width="12" height="12" viewBox="0 0 12 12" fill="none" xmlns="http://www.w3.org/2000/svg">
<path fill-rule="evenodd" clip-rule="evenodd" d="M2.50018 1.00012C1.67176 1.00012 1.00018 1.67169 1.00018 2.50012V9.50012C1.00018 10.3285 1.67176 11.0001 2.50018 11.0001H9.50018C10.3286 11.0001 11.0002 10.3285 11.0002 9.50012C11.0002 6.76645 11.0002 5.23379 11.0002 2.50012C11.0002 1.67169 10.3286 1.00012 9.50018 1.00012H2.50018ZM2.00018 2.50012C2.00018 2.22398 2.22404 2.00012 2.50018 2.00012H9.50018C9.77633 2.00012 10.0002 2.22398 10.0002 2.50012V4.00012H2.00018V2.50012ZM2.00018 5.00012V7.00012H4.00018V5.00012H2.00018ZM7.00018 5.00012V7.00012H5.00018V5.00012H7.00018ZM2.00018 9.50012C2.00018 9.77626 2.22404 10.0001 2.50018 10.0001H4.00018V8.00012H2.00018V9.50012ZM7.00018 10.0001H5.00018V8.00012H7.00018V10.0001ZM9.50018 10.0001C9.77633 10.0001 10.0002 9.77626 10.0002 9.50012V8.00012H8.00018V10.0001H9.50018ZM10.0002 5.00012V7.00012H8.00018V5.00012H10.0002Z" fill="black"/>
</svg>
