<svg width="12" height="12" viewBox="0 0 12 12" fill="none" xmlns="http://www.w3.org/2000/svg">
<path fill-rule="evenodd" clip-rule="evenodd" d="M1.64663 1.64657C1.84189 1.45131 2.15847 1.45131 2.35374 1.64657L4.85374 4.14657C5.049 4.34183 5.049 4.65841 4.85374 4.85368C4.65847 5.04894 4.34189 5.04894 4.14663 4.85368L1.64663 2.35368C1.45137 2.15841 1.45137 1.84183 1.64663 1.64657Z" fill="black"/>
<path d="M7.50018 1.50012C7.50018 1.22398 7.72404 1.00012 8.00018 1.00012H10.5002C10.7763 1.00012 11.0002 1.22398 11.0002 1.50012V4.00012C11.0002 4.27626 10.7763 4.50012 10.5002 4.50012C10.224 4.50012 10.0002 4.27626 10.0002 4.00012V2.70723L2.35374 10.3537C2.15847 10.5489 1.84189 10.5489 1.64663 10.3537C1.45137 10.1584 1.45137 9.84183 1.64663 9.64657L9.29308 2.00012H8.00018C7.72404 2.00012 7.50018 1.77626 7.50018 1.50012Z" fill="black"/>
<path d="M10.5002 7.50012C10.7763 7.50012 11.0002 7.72398 11.0002 8.00012V10.5001C11.0002 10.7763 10.7763 11.0001 10.5002 11.0001H8.00018C7.72404 11.0001 7.50018 10.7763 7.50018 10.5001C7.50018 10.224 7.72404 10.0001 8.00018 10.0001H9.29308L7.14663 7.85368C6.95137 7.65841 6.95137 7.34183 7.14663 7.14657C7.34189 6.95131 7.65847 6.95131 7.85374 7.14657L10.0002 9.29302V8.00012C10.0002 7.72398 10.224 7.50012 10.5002 7.50012Z" fill="black"/>
</svg>
