<svg width="12" height="12" viewBox="0 0 12 12" fill="none" xmlns="http://www.w3.org/2000/svg">
<g clip-path="url(#clip0_10020_3032)">
<path fill-rule="evenodd" clip-rule="evenodd" d="M11.0002 2.00012C11.0002 1.72398 10.7764 1.50012 10.5002 1.50012H7.50024V1.00012C7.50024 0.72398 7.27639 0.500122 7.00024 0.500122C6.7241 0.500122 6.50024 0.72398 6.50024 1.00012V3.00012C6.50024 3.27626 6.7241 3.50012 7.00024 3.50012C7.27639 3.50012 7.50024 3.27626 7.50024 3.00012V2.50012H10.5002C10.7764 2.50012 11.0002 2.27626 11.0002 2.00012ZM1.50024 1.50012C1.2241 1.50012 1.00024 1.72398 1.00024 2.00012C1.00024 2.27626 1.2241 2.50012 1.50024 2.50012H5.00024C5.27639 2.50012 5.50024 2.27626 5.50024 2.00012C5.50024 1.72398 5.27639 1.50012 5.00024 1.50012H1.50024ZM5.50024 6.00012C5.50024 5.72398 5.7241 5.50012 6.00024 5.50012H10.5002C10.7764 5.50012 11.0002 5.72398 11.0002 6.00012C11.0002 6.27626 10.7764 6.50012 10.5002 6.50012H6.00024C5.7241 6.50012 5.50024 6.27626 5.50024 6.00012ZM1.50024 5.50012C1.2241 5.50012 1.00024 5.72398 1.00024 6.00012C1.00024 6.27626 1.2241 6.50012 1.50024 6.50012H3.50024V7.00012C3.50024 7.27626 3.7241 7.50012 4.00024 7.50012C4.27639 7.50012 4.50024 7.27626 4.50024 7.00012V5.00012C4.50024 4.72398 4.27639 4.50012 4.00024 4.50012C3.7241 4.50012 3.50024 4.72398 3.50024 5.00012V5.50012H1.50024ZM10.5002 9.50012C10.7764 9.50012 11.0002 9.72398 11.0002 10.0001C11.0002 10.2763 10.7764 10.5001 10.5002 10.5001H8.50024V11.0001C8.50024 11.2763 8.27639 11.5001 8.00024 11.5001C7.7241 11.5001 7.50024 11.2763 7.50024 11.0001V9.00012C7.50024 8.72398 7.7241 8.50012 8.00024 8.50012C8.27639 8.50012 8.50024 8.72398 8.50024 9.00012V9.50012H10.5002ZM1.50024 9.50012C1.2241 9.50012 1.00024 9.72398 1.00024 10.0001C1.00024 10.2763 1.2241 10.5001 1.50024 10.5001H6.00024C6.27639 10.5001 6.50024 10.2763 6.50024 10.0001C6.50024 9.72398 6.27639 9.50012 6.00024 9.50012H1.50024Z" fill="black"/>
</g>
<defs>
<clipPath id="clip0_10020_3032">
<rect width="12" height="12" fill="white" transform="translate(0.000244141 0.00012207)"/>
</clipPath>
</defs>
</svg>
