<svg width="12" height="12" viewBox="0 0 12 12" fill="none" xmlns="http://www.w3.org/2000/svg">
<g clip-path="url(#clip0_10020_3042)">
<path fill-rule="evenodd" clip-rule="evenodd" d="M2.00024 1.00012C2.27639 1.00012 2.50024 1.22398 2.50024 1.50012V5.00012C2.50024 5.27626 2.27639 5.50012 2.00024 5.50012C1.7241 5.50012 1.50024 5.27626 1.50024 5.00012V1.50012C1.50024 1.22398 1.7241 1.00012 2.00024 1.00012ZM2.50024 7.50012H3.00024C3.27639 7.50012 3.50024 7.27626 3.50024 7.00012C3.50024 6.72398 3.27639 6.50012 3.00024 6.50012H2.00024H1.00024C0.724102 6.50012 0.500244 6.72398 0.500244 7.00012C0.500244 7.27626 0.724102 7.50012 1.00024 7.50012H1.50024V10.5001C1.50024 10.7763 1.7241 11.0001 2.00024 11.0001C2.27639 11.0001 2.50024 10.7763 2.50024 10.5001V7.50012ZM6.50024 6.00012C6.50024 5.72398 6.27639 5.50012 6.00024 5.50012C5.7241 5.50012 5.50024 5.72398 5.50024 6.00012V10.5001C5.50024 10.7763 5.7241 11.0001 6.00024 11.0001C6.27639 11.0001 6.50024 10.7763 6.50024 10.5001V6.00012ZM6.00024 1.00012C6.27639 1.00012 6.50024 1.22398 6.50024 1.50012V3.50012H7.00024C7.27639 3.50012 7.50024 3.72398 7.50024 4.00012C7.50024 4.27626 7.27639 4.50012 7.00024 4.50012H6.00024H5.00024C4.7241 4.50012 4.50024 4.27626 4.50024 4.00012C4.50024 3.72398 4.7241 3.50012 5.00024 3.50012H5.50024V1.50012C5.50024 1.22398 5.7241 1.00012 6.00024 1.00012ZM10.0002 7.50012H11.0002C11.2764 7.50012 11.5002 7.72398 11.5002 8.00012C11.5002 8.27626 11.2764 8.50012 11.0002 8.50012H10.5002V10.5001C10.5002 10.7763 10.2764 11.0001 10.0002 11.0001C9.7241 11.0001 9.50024 10.7763 9.50024 10.5001V8.50012H9.00024C8.7241 8.50012 8.50024 8.27626 8.50024 8.00012C8.50024 7.72398 8.7241 7.50012 9.00024 7.50012H10.0002ZM10.0002 1.00012C10.2764 1.00012 10.5002 1.22398 10.5002 1.50012V6.00012C10.5002 6.27626 10.2764 6.50012 10.0002 6.50012C9.7241 6.50012 9.50024 6.27626 9.50024 6.00012V1.50012C9.50024 1.22398 9.7241 1.00012 10.0002 1.00012Z" fill="black"/>
</g>
<defs>
<clipPath id="clip0_10020_3042">
<rect width="12" height="12" fill="white" transform="translate(0.000244141 0.00012207)"/>
</clipPath>
</defs>
</svg>
