<svg width="12" height="12" viewBox="0 0 12 12" fill="none" xmlns="http://www.w3.org/2000/svg">
<path fill-rule="evenodd" clip-rule="evenodd" d="M1.00024 3.14335C1.00024 2.30082 1.61119 1.50049 2.50024 1.50049H9.50025C10.3893 1.50049 11.0002 2.30082 11.0002 3.14335V8.85763C11.0002 9.70015 10.3893 10.5005 9.50025 10.5005H2.50024C1.61119 10.5005 1.00024 9.70015 1.00024 8.85763V3.14335ZM2.50024 2.50049C2.28473 2.50049 2.00024 2.7235 2.00024 3.14335V8.85763C2.00024 9.27748 2.28473 9.50049 2.50024 9.50049H9.50025C9.71576 9.50049 10.0002 9.27748 10.0002 8.85763V3.14335C10.0002 2.7235 9.71576 2.50049 9.50025 2.50049H2.50024Z" fill="black"/>
</svg>
