<svg width="12" height="12" viewBox="0 0 12 12" fill="none" xmlns="http://www.w3.org/2000/svg">
<path fill-rule="evenodd" clip-rule="evenodd" d="M5.00024 2.50012C5.00024 2.22398 5.2241 2.00012 5.50024 2.00012H10.5002C10.7764 2.00012 11.0002 2.22398 11.0002 2.50012C11.0002 2.77626 10.7764 3.00012 10.5002 3.00012H5.50024C5.2241 3.00012 5.00024 2.77626 5.00024 2.50012Z" fill="black"/>
<path fill-rule="evenodd" clip-rule="evenodd" d="M5.00024 4.50012C5.00024 4.22398 5.2241 4.00012 5.50024 4.00012H9.00024C9.27639 4.00012 9.50024 4.22398 9.50024 4.50012C9.50024 4.77626 9.27639 5.00012 9.00024 5.00012H5.50024C5.2241 5.00012 5.00024 4.77626 5.00024 4.50012Z" fill="black"/>
<path fill-rule="evenodd" clip-rule="evenodd" d="M5.00024 6.50012C5.00024 6.22398 5.2241 6.00012 5.50024 6.00012H7.50024C7.77639 6.00012 8.00024 6.22398 8.00024 6.50012C8.00024 6.77626 7.77639 7.00012 7.50024 7.00012H5.50024C5.2241 7.00012 5.00024 6.77626 5.00024 6.50012Z" fill="black"/>
<path d="M3.50024 2.00012C3.50024 1.72398 3.27639 1.50012 3.00024 1.50012C2.7241 1.50012 2.50024 1.72398 2.50024 2.00012V8.79302L1.8538 8.14657C1.65854 7.95131 1.34195 7.95131 1.14669 8.14657C0.951429 8.34183 0.951429 8.65841 1.14669 8.85368L2.64669 10.3537C2.84195 10.5489 3.15854 10.5489 3.3538 10.3537L4.8538 8.85368C5.04906 8.65841 5.04906 8.34183 4.8538 8.14657C4.65854 7.95131 4.34195 7.95131 4.14669 8.14657L3.50024 8.79302V2.00012Z" fill="black"/>
</svg>
