<svg width="12" height="12" viewBox="0 0 12 12" fill="none" xmlns="http://www.w3.org/2000/svg">
<path fill-rule="evenodd" clip-rule="evenodd" d="M1.43958 1.43983C1.72089 1.15852 2.10242 1.00049 2.50024 1.00049H7.75024C7.88285 1.00049 8.01003 1.05317 8.1038 1.14693L10.8538 3.89693C10.9476 3.9907 11.0002 4.11788 11.0002 4.25049V9.50049C11.0002 9.89831 10.8422 10.2798 10.5609 10.5611C10.2796 10.8425 9.89807 11.0005 9.50024 11.0005H2.50024C1.6741 11.0005 1.00024 10.3266 1.00024 9.50049V2.50049C1.00024 2.10266 1.15828 1.72113 1.43958 1.43983ZM9.54314 4.00049L8.00024 2.4576V4.00049H9.54314ZM7.00024 2.00049V4.50049C7.00024 4.77663 7.2241 5.00049 7.50024 5.00049H10.0002V9.50049C10.0002 9.6331 9.94757 9.76027 9.8538 9.85404C9.76003 9.94781 9.63285 10.0005 9.50024 10.0005H2.50024C2.22639 10.0005 2.00024 9.77435 2.00024 9.50049V2.50049C2.00024 2.36788 2.05292 2.2407 2.14669 2.14693C2.24046 2.05317 2.36764 2.00049 2.50024 2.00049H7.00024ZM3.00024 6.25049C3.00024 5.83627 3.33603 5.50049 3.75024 5.50049C4.16446 5.50049 4.50024 5.83627 4.50024 6.25049C4.50024 6.6647 4.16446 7.00049 3.75024 7.00049C3.33603 7.00049 3.00024 6.6647 3.00024 6.25049ZM7.50024 6.25049C7.50024 5.83627 7.83603 5.50049 8.25024 5.50049C8.66446 5.50049 9.00024 5.83627 9.00024 6.25049C9.00024 6.6647 8.66446 7.00049 8.25024 7.00049C7.83603 7.00049 7.50024 6.6647 7.50024 6.25049ZM7.28698 7.59087C7.5132 7.74923 7.56822 8.06099 7.40986 8.28722L7.00024 8.00049C7.40986 8.28722 7.40999 8.28704 7.40986 8.28722L7.40881 8.28871L7.40762 8.2904L7.4048 8.29433L7.39744 8.30439C7.39176 8.31203 7.38452 8.32153 7.37573 8.33261C7.35819 8.35474 7.33426 8.38344 7.30398 8.41648C7.24379 8.48213 7.15632 8.5673 7.04161 8.65227C6.81198 8.82236 6.46005 9.00049 6.00024 9.00049C5.55967 9.00049 5.20905 8.81766 4.98463 8.65735C4.87026 8.57566 4.78062 8.49422 4.71857 8.43217C4.68732 8.40092 4.66244 8.37396 4.64431 8.35349C4.63523 8.34323 4.62778 8.33455 4.62203 8.3277L4.61465 8.31881L4.61191 8.31545L4.61078 8.31405L4.61004 8.31312C4.60992 8.31298 4.60981 8.31284 5.00024 8.00049L4.61004 8.31312C4.43753 8.09749 4.47227 7.78256 4.6879 7.61005C4.90237 7.43848 5.21479 7.47214 5.38788 7.68468L5.3929 7.69045C5.39898 7.69733 5.41005 7.70943 5.42567 7.72506C5.45737 7.75676 5.50523 7.80031 5.56586 7.84362C5.69144 7.93332 5.84082 8.00049 6.00024 8.00049C6.19044 8.00049 6.33851 7.92861 6.44638 7.84871C6.50042 7.80868 6.54107 7.76885 6.56682 7.74075C6.57951 7.72691 6.58801 7.71655 6.59214 7.71133C6.59319 7.71001 6.59395 7.70903 6.5944 7.70844C6.75389 7.48668 7.06253 7.43376 7.28698 7.59087Z" fill="black"/>
</svg>
