<svg width="12" height="12" viewBox="0 0 12 12" fill="none" xmlns="http://www.w3.org/2000/svg">
<g clip-path="url(#clip0_14924_1099)">
<path fill-rule="evenodd" clip-rule="evenodd" d="M11.4378 6.00054C11.4378 2.99749 9.00334 0.563035 6.00029 0.563035C2.99724 0.563035 0.562789 2.99749 0.562789 6.00054C0.562789 9.00358 2.99724 11.438 6.00029 11.438C9.00334 11.438 11.4378 9.00358 11.4378 6.00054ZM7.06279 4.93804L7.06279 7.06304L4.93779 7.06304L4.93779 4.93804L7.06279 4.93804ZM7.50029 4.06304L4.50029 4.06304C4.25867 4.06303 4.06279 4.25891 4.06279 4.50054L4.06279 7.50054C4.06279 7.74216 4.25867 7.93804 4.50029 7.93804L7.50029 7.93804C7.74191 7.93804 7.93779 7.74216 7.93779 7.50054L7.93779 4.50054C7.93779 4.25891 7.74191 4.06304 7.50029 4.06304Z" fill="black"/>
</g>
<defs>
<clipPath id="clip0_14924_1099">
<rect width="12" height="12" fill="white" transform="translate(0.000244141 0.000488281)"/>
</clipPath>
</defs>
</svg>
