<svg width="12" height="12" viewBox="0 0 12 12" fill="none" xmlns="http://www.w3.org/2000/svg">
<path fill-rule="evenodd" clip-rule="evenodd" d="M11.0003 6.00062C11.0003 3.23915 8.76167 1.00053 6.0002 1.00053C3.23872 1.00053 1.00011 3.23915 1.00011 6.00062C1.00011 8.76209 3.23872 11.0007 6.0002 11.0007C8.76167 11.0007 11.0003 8.7621 11.0003 6.00062ZM6.97723 5.02359L6.97723 6.97765L5.02317 6.97765L5.02317 5.02359L6.97723 5.02359ZM7.37953 4.21898L4.62086 4.21898C4.39867 4.21898 4.21856 4.3991 4.21856 4.62129L4.21856 7.37996C4.21856 7.60214 4.39867 7.78226 4.62086 7.78226L7.37953 7.78226C7.60172 7.78226 7.78184 7.60214 7.78184 7.37996L7.78184 4.62129C7.78184 4.3991 7.60172 4.21898 7.37953 4.21898Z" fill="black"/>
</svg>
