<svg width="12" height="12" viewBox="0 0 12 12" fill="none" xmlns="http://www.w3.org/2000/svg">
<path fill-rule="evenodd" clip-rule="evenodd" d="M2.50012 2.00012C2.22398 2.00012 2.00012 2.22398 2.00012 2.50012V4.00012H5.50012V2.00012H2.50012ZM2.50012 1.00012C1.67169 1.00012 1.00012 1.67169 1.00012 2.50012V9.50012C1.00012 10.3285 1.6717 11.0001 2.50012 11.0001H9.50012C10.3285 11.0001 11.0001 10.3285 11.0001 9.50012V2.50012C11.0001 1.6717 10.3285 1.00012 9.50012 1.00012H2.50012ZM6.50012 2.00012V4.00012H10.0001V2.50012C10.0001 2.22398 9.77627 2.00012 9.50012 2.00012H6.50012ZM10.0001 5.00012H6.50012V7.00012H10.0001V5.00012ZM10.0001 8.00012H6.50012V10.0001H9.50012C9.77627 10.0001 10.0001 9.77627 10.0001 9.50012V8.00012ZM5.50012 10.0001V8.00012H2.00012V9.50012C2.00012 9.77627 2.22398 10.0001 2.50012 10.0001H5.50012ZM2.00012 7.00012H5.50012V5.00012H2.00012V7.00012Z" fill="black"/>
</svg>
