<svg width="12" height="12" viewBox="0 0 12 12" fill="none" xmlns="http://www.w3.org/2000/svg">
<g clip-path="url(#clip0_10020_2983)">
<path fill-rule="evenodd" clip-rule="evenodd" d="M5.00018 5.00012C5.27633 5.00012 5.50018 5.22398 5.50018 5.50012V8.50012C5.50018 8.77626 5.27633 9.00012 5.00018 9.00012C4.72404 9.00012 4.50018 8.77626 4.50018 8.50012V5.50012C4.50018 5.22398 4.72404 5.00012 5.00018 5.00012Z" fill="black"/>
<path fill-rule="evenodd" clip-rule="evenodd" d="M7.00018 5.00012C7.27633 5.00012 7.50018 5.22398 7.50018 5.50012V8.50012C7.50018 8.77626 7.27633 9.00012 7.00018 9.00012C6.72404 9.00012 6.50018 8.77626 6.50018 8.50012V5.50012C6.50018 5.22398 6.72404 5.00012 7.00018 5.00012Z" fill="black"/>
<path fill-rule="evenodd" clip-rule="evenodd" d="M1.50018 2.50012C1.22404 2.50012 1.00018 2.72398 1.00018 3.00012C1.00018 3.27626 1.22404 3.50012 1.50018 3.50012H2.00018V10.0001C2.00018 10.4127 2.20146 10.7835 2.45913 11.0412C2.7168 11.2988 3.08757 11.5001 3.50018 11.5001H8.50018C8.9128 11.5001 9.28356 11.2988 9.54124 11.0412C9.79891 10.7835 10.0002 10.4127 10.0002 10.0001V3.50012H10.5002C10.7763 3.50012 11.0002 3.27626 11.0002 3.00012C11.0002 2.72398 10.7763 2.50012 10.5002 2.50012H8.50018V2.00012C8.50018 1.58751 8.29891 1.21674 8.04124 0.959069C7.78356 0.701396 7.4128 0.500122 7.00018 0.500122H5.00018C4.58757 0.500122 4.2168 0.701396 3.95913 0.959069C3.70146 1.21674 3.50018 1.58751 3.50018 2.00012V2.50012H1.50018ZM3.00018 10.0001C3.00018 10.0875 3.04891 10.2167 3.16624 10.3341C3.28356 10.4514 3.4128 10.5001 3.50018 10.5001H8.50018C8.58757 10.5001 8.7168 10.4514 8.83413 10.3341C8.95146 10.2167 9.00018 10.0875 9.00018 10.0001V3.50012H3.00018V10.0001ZM4.50018 2.00012C4.50018 1.91274 4.54891 1.7835 4.66624 1.66618C4.78356 1.54885 4.9128 1.50012 5.00018 1.50012H7.00018C7.08757 1.50012 7.2168 1.54885 7.33413 1.66618C7.45146 1.7835 7.50018 1.91274 7.50018 2.00012V2.50012H4.50018V2.00012Z" fill="black"/>
</g>
<defs>
<clipPath id="clip0_10020_2983">
<rect width="12" height="12" fill="white" transform="translate(0.000244141 0.00012207)"/>
</clipPath>
</defs>
</svg>
