<svg width="12" height="12" viewBox="0 0 12 12" fill="none" xmlns="http://www.w3.org/2000/svg">
<g clip-path="url(#clip0_10020_2965)">
<path fill-rule="evenodd" clip-rule="evenodd" d="M6.00024 1.50012C3.51496 1.50012 1.50024 3.51484 1.50024 6.00012C1.50024 8.4854 3.51496 10.5001 6.00024 10.5001C8.48553 10.5001 10.5002 8.4854 10.5002 6.00012C10.5002 3.51484 8.48553 1.50012 6.00024 1.50012ZM0.500244 6.00012C0.500244 2.96256 2.96268 0.500122 6.00024 0.500122C9.03781 0.500122 11.5002 2.96256 11.5002 6.00012C11.5002 9.03769 9.03781 11.5001 6.00024 11.5001C2.96268 11.5001 0.500244 9.03769 0.500244 6.00012Z" fill="black"/>
<path d="M7.85374 4.85368C8.049 4.65841 8.049 4.34183 7.85374 4.14657C7.65847 3.95131 7.34189 3.95131 7.14663 4.14657L6.00018 5.29302L4.85374 4.14657C4.65847 3.95131 4.34189 3.95131 4.14663 4.14657C3.95137 4.34183 3.95137 4.65841 4.14663 4.85368L5.29308 6.00012L4.14663 7.14657C3.95137 7.34183 3.95137 7.65841 4.14663 7.85368C4.34189 8.04894 4.65847 8.04894 4.85374 7.85368L6.00018 6.70723L7.14663 7.85368C7.34189 8.04894 7.65847 8.04894 7.85374 7.85368C8.049 7.65841 8.049 7.34183 7.85374 7.14657L6.70729 6.00012L7.85374 4.85368Z" fill="black"/>
</g>
<defs>
<clipPath id="clip0_10020_2965">
<rect width="12" height="12" fill="white" transform="translate(0.000244141 0.00012207)"/>
</clipPath>
</defs>
</svg>
