<svg width="12" height="12" viewBox="0 0 12 12" fill="none" xmlns="http://www.w3.org/2000/svg">
<path fill-rule="evenodd" clip-rule="evenodd" d="M1.00018 5.50012C1.00018 3.01484 3.0149 1.00012 5.50018 1.00012C7.98546 1.00012 10.0002 3.01484 10.0002 5.50012C10.0002 6.56263 9.63195 7.53913 9.01613 8.30896L10.8537 10.1466C11.049 10.3418 11.049 10.6584 10.8537 10.8537C10.6585 11.0489 10.3419 11.0489 10.1466 10.8537L8.30903 9.01607C7.53919 9.63189 6.56269 10.0001 5.50018 10.0001C3.0149 10.0001 1.00018 7.9854 1.00018 5.50012ZM2.00018 5.50012C2.00018 3.56713 3.56719 2.00012 5.50018 2.00012C7.43318 2.00012 9.00018 3.56713 9.00018 5.50012C9.00018 7.43312 7.43318 9.00012 5.50018 9.00012C3.56719 9.00012 2.00018 7.43312 2.00018 5.50012Z" fill="black"/>
<path d="M5.50018 3.50012C5.77633 3.50012 6.00018 3.72398 6.00018 4.00012V5.00012H7.00018C7.27633 5.00012 7.50018 5.22398 7.50018 5.50012C7.50018 5.77626 7.27633 6.00012 7.00018 6.00012H6.00018V7.00012C6.00018 7.27626 5.77633 7.50012 5.50018 7.50012C5.22404 7.50012 5.00018 7.27626 5.00018 7.00012V6.00012H4.00018C3.72404 6.00012 3.50018 5.77626 3.50018 5.50012C3.50018 5.22398 3.72404 5.00012 4.00018 5.00012H5.00018V4.00012C5.00018 3.72398 5.22404 3.50012 5.50018 3.50012Z" fill="black"/>
</svg>
