<svg width="12" height="12" viewBox="0 0 12 12" fill="none" xmlns="http://www.w3.org/2000/svg">
<path fill-rule="evenodd" clip-rule="evenodd" d="M4.88415 10.0675C5.12301 9.92896 5.42897 10.0103 5.56753 10.2491C5.61148 10.3249 5.67457 10.3878 5.75047 10.4315C5.82638 10.4752 5.91244 10.4983 6.00003 10.4983C6.08763 10.4983 6.17368 10.4752 6.24959 10.4315C6.32549 10.3878 6.38858 10.3249 6.43253 10.2491C6.57109 10.0103 6.87705 9.92896 7.11592 10.0675C7.35478 10.2061 7.43609 10.512 7.29753 10.7509C7.16567 10.9782 6.97641 11.1669 6.7487 11.2981C6.52099 11.4292 6.26281 11.4982 6.00003 11.4982C5.73725 11.4982 5.47907 11.4292 5.25136 11.2981C5.02365 11.1669 4.83439 10.9782 4.70253 10.7509C4.56397 10.512 4.64528 10.2061 4.88415 10.0675Z" fill="black"/>
<path fill-rule="evenodd" clip-rule="evenodd" d="M5.99999 0.5C5.07173 0.5 4.1815 0.868749 3.52512 1.52513C2.86874 2.1815 2.49999 3.07174 2.49999 4C2.49999 5.67633 2.14146 6.71732 1.81104 7.32307C1.64515 7.62722 1.4836 7.82674 1.37139 7.94519C1.31515 8.00455 1.27096 8.04391 1.24435 8.06608C1.23104 8.07718 1.22212 8.08398 1.21827 8.08685L1.21685 8.08789C1.20892 8.09334 1.20119 8.09898 1.19367 8.10479C1.13727 8.14857 1.0905 8.20416 1.05705 8.26785C1.02062 8.33722 1 8.4162 1 8.5C1 8.5539 1.00853 8.60581 1.02431 8.65445C1.08938 8.855 1.27776 9 1.5 9H10.5C10.7234 9 10.9126 8.85351 10.9767 8.65136C10.9918 8.60361 11 8.55276 11 8.5C11 8.48648 10.9995 8.47309 10.9984 8.45984C10.993 8.39336 10.9744 8.32824 10.9434 8.26869C10.9068 8.19836 10.8529 8.13579 10.7832 8.08789L10.7817 8.08685C10.7779 8.08398 10.769 8.07718 10.7556 8.06608C10.729 8.04391 10.6848 8.00455 10.6286 7.94519C10.5164 7.82674 10.3549 7.62722 10.189 7.32307C9.85854 6.71732 9.50001 5.67633 9.50001 4C9.50001 3.07174 9.13126 2.1815 8.47488 1.52513C7.8185 0.868749 6.92825 0.5 5.99999 0.5ZM5.99999 1.5C5.33695 1.5 4.70107 1.76339 4.23223 2.23223C3.76338 2.70107 3.49999 3.33696 3.49999 4C3.49999 5.82367 3.10853 7.03268 2.68894 7.80193C2.65089 7.87168 2.6127 7.93766 2.57465 8H9.42535C9.3873 7.93766 9.34911 7.87168 9.31106 7.80193C8.89147 7.03268 8.50001 5.82367 8.50001 4C8.50001 3.33696 8.23662 2.70107 7.76777 2.23223C7.29893 1.76339 6.66303 1.5 5.99999 1.5ZM1.05705 8.26785C0.995424 8.38568 0.982338 8.52541 1.02431 8.65445C1.00853 8.60581 1 8.5539 1 8.5C1 8.4162 1.02062 8.33722 1.05705 8.26785ZM10.9434 8.26869C10.9053 8.19576 10.8492 8.13308 10.7817 8.08685L10.7832 8.08789C10.8529 8.13579 10.9068 8.19836 10.9434 8.26869Z" fill="black"/>
</svg>
