<svg width="12" height="12" viewBox="0 0 12 12" fill="none" xmlns="http://www.w3.org/2000/svg">
<path fill-rule="evenodd" clip-rule="evenodd" d="M6.41664 1.535C6.05817 1.4744 5.69079 1.49273 5.34012 1.58869C4.98945 1.68465 4.66393 1.85594 4.38625 2.09061C4.10857 2.32529 3.88542 2.61771 3.73235 2.94748C3.57928 3.27725 3.49998 3.63643 3.49998 4C3.49998 5.82367 3.10851 7.03268 2.68893 7.80192C2.65088 7.87167 2.61268 7.93765 2.57464 7.99999H9.42522C9.15703 7.56058 8.8838 6.94431 8.70449 6.10438C8.64684 5.83432 8.81903 5.56866 9.08909 5.51101C9.35915 5.45336 9.62481 5.62555 9.68246 5.8956C9.87125 6.77997 10.1706 7.34155 10.4061 7.67231C10.5244 7.83842 10.6281 7.94854 10.6966 8.01341C10.7309 8.04589 10.7565 8.06713 10.7708 8.07845C10.7773 8.08359 10.7831 8.08785 10.7831 8.08785C10.9623 8.21096 11.0417 8.43619 10.9785 8.64485C10.9147 8.85575 10.7203 8.99999 10.5 8.99999H1.49998C1.27964 8.99999 1.08528 8.85576 1.02143 8.64488C0.958261 8.43624 1.03758 8.21102 1.21682 8.0879C1.21874 8.08657 1.22068 8.08526 1.22263 8.08397L1.49998 8.49999C1.22263 8.08397 1.22263 8.08397 1.22263 8.08397L1.22138 8.0848L1.22027 8.08555L1.21845 8.08679C1.2223 8.08392 1.23103 8.07717 1.24434 8.06608C1.27095 8.0439 1.31514 8.00454 1.37138 7.94518C1.48359 7.82673 1.64513 7.62721 1.81103 7.32306C2.14144 6.71731 2.49998 5.67632 2.49998 3.99999C2.49998 3.491 2.61101 2.98813 2.8253 2.52646C3.0396 2.06478 3.35201 1.65539 3.74076 1.32685C4.1295 0.998299 4.58523 0.758493 5.07617 0.624148C5.56711 0.489804 6.08144 0.464153 6.58331 0.548984C6.85559 0.595008 7.03901 0.853044 6.99298 1.12532C6.94696 1.3976 6.68892 1.58102 6.41664 1.535Z" fill="black"/>
<path fill-rule="evenodd" clip-rule="evenodd" d="M4.8841 10.0675C5.12296 9.92894 5.42893 10.0103 5.56749 10.2491C5.61144 10.3249 5.67453 10.3878 5.75043 10.4315C5.82633 10.4752 5.91239 10.4982 5.99999 10.4982C6.08758 10.4982 6.17364 10.4752 6.24954 10.4315C6.32545 10.3878 6.38853 10.3249 6.43249 10.2491C6.57105 10.0103 6.87701 9.92894 7.11587 10.0675C7.35474 10.2061 7.43605 10.512 7.29749 10.7509C7.16563 10.9782 6.97637 11.1669 6.74866 11.298C6.52094 11.4292 6.26277 11.4982 5.99999 11.4982C5.7372 11.4982 5.47903 11.4292 5.25132 11.298C5.0236 11.1669 4.83435 10.9782 4.70249 10.7509C4.56393 10.512 4.64524 10.2061 4.8841 10.0675Z" fill="black"/>
<path d="M9.49998 1C9.49998 0.723858 9.27612 0.5 8.99998 0.5C8.72384 0.5 8.49998 0.723858 8.49998 1V2H7.49998C7.22384 2 6.99998 2.22386 6.99998 2.5C6.99998 2.77614 7.22384 3 7.49998 3H8.49998V4C8.49998 4.27614 8.72384 4.5 8.99998 4.5C9.27612 4.5 9.49998 4.27614 9.49998 4V3H10.5C10.7761 3 11 2.77614 11 2.5C11 2.22386 10.7761 2 10.5 2H9.49998V1Z" fill="black"/>
</svg>
