<svg width="12" height="12" viewBox="0 0 12 12" fill="none" xmlns="http://www.w3.org/2000/svg">
<g clip-path="url(#clip0_10226_2922)">
<path fill-rule="evenodd" clip-rule="evenodd" d="M4.88412 10.0675C5.12299 9.92894 5.42895 10.0103 5.56751 10.2491C5.61146 10.3249 5.67455 10.3878 5.75045 10.4315C5.82636 10.4752 5.91241 10.4982 6.00001 10.4982C6.0876 10.4982 6.17366 10.4752 6.24957 10.4315C6.32547 10.3878 6.38856 10.3249 6.43251 10.2491C6.57107 10.0103 6.87703 9.92894 7.1159 10.0675C7.35476 10.2061 7.43607 10.512 7.29751 10.7509C7.16565 10.9782 6.97639 11.1669 6.74868 11.298C6.52097 11.4292 6.26279 11.4982 6.00001 11.4982C5.73723 11.4982 5.47905 11.4292 5.25134 11.298C5.02363 11.1669 4.83437 10.9782 4.70251 10.7509C4.56395 10.512 4.64526 10.2061 4.88412 10.0675Z" fill="black"/>
<path fill-rule="evenodd" clip-rule="evenodd" d="M1.5 9C1.27967 9 1.0853 8.85578 1.02145 8.6449C0.958283 8.43626 1.0376 8.21104 1.21684 8.08791L1.21827 8.08685C1.22212 8.08399 1.23105 8.07718 1.24436 8.06609C1.27097 8.04392 1.31516 8.00456 1.3714 7.94519C1.48361 7.82675 1.64515 7.62722 1.81105 7.32308C2.14143 6.71738 2.49992 5.67656 2.5 4.00054V3.20711L0.646447 1.35355C0.451184 1.15829 0.451184 0.841709 0.646447 0.646447C0.841709 0.451185 1.15829 0.451185 1.35355 0.646447L11.3536 10.6464C11.5488 10.8417 11.5488 11.1583 11.3536 11.3536C11.1583 11.5488 10.8417 11.5488 10.6464 11.3536L8.2929 9H1.5ZM2.57466 8C2.61271 7.93767 2.6509 7.87169 2.68895 7.80193C3.09258 7.06195 3.47018 5.91501 3.49832 4.20543L7.2929 8H2.57466Z" fill="black"/>
<path d="M9.79731 6.36824C9.5873 5.59947 9.48717 4.80484 9.49992 4.008L9.50002 4.00074C9.50096 3.36669 9.32965 2.7443 9.00438 2.20004C8.67912 1.65578 8.21211 1.2101 7.65326 0.910611C7.0944 0.611118 6.46469 0.469059 5.83138 0.499611C5.19807 0.530162 4.58495 0.732175 4.05752 1.08407C3.82781 1.23733 3.76584 1.54779 3.9191 1.7775C4.07236 2.00721 4.38281 2.06918 4.61252 1.91592C4.98926 1.66457 5.4272 1.52027 5.87956 1.49845C6.33193 1.47663 6.78172 1.5781 7.18091 1.79202C7.58009 2.00594 7.91366 2.32429 8.14599 2.71304C8.37734 3.10015 8.49966 3.5426 8.50002 3.9935L8.50005 3.992L8.50002 3.99925L8.50002 3.9935C8.48592 4.88421 8.59791 5.77243 8.83266 6.63176C8.90543 6.89814 9.18036 7.0551 9.44675 6.98233C9.71313 6.90956 9.87008 6.63462 9.79731 6.36824Z" fill="black"/>
</g>
<defs>
<clipPath id="clip0_10226_2922">
<rect width="12" height="12" fill="white"/>
</clipPath>
</defs>
</svg>
