<svg width="12" height="12" viewBox="0 0 12 12" fill="none" xmlns="http://www.w3.org/2000/svg">
<g clip-path="url(#clip0_10318_2959)">
<path fill-rule="evenodd" clip-rule="evenodd" d="M2.30373 0.602851C2.52308 0.770593 2.56492 1.0844 2.39718 1.30375C1.81585 2.06395 1.5 3.0065 1.5 4.00003C1.5 4.27617 1.27614 4.50003 1 4.50003C0.723858 4.50003 0.5 4.27617 0.5 4.00003C0.5 2.79356 0.884149 1.63611 1.60282 0.696304C1.77056 0.476949 2.08437 0.435108 2.30373 0.602851Z" fill="black"/>
<path fill-rule="evenodd" clip-rule="evenodd" d="M9.7 0.600029C9.92091 0.434344 10.2343 0.479116 10.4 0.700029C11.114 1.65206 11.5 2.80999 11.5 4.00003C11.5 4.27617 11.2761 4.50003 11 4.50003C10.7239 4.50003 10.5 4.27617 10.5 4.00003C10.5 3.02636 10.1842 2.07896 9.6 1.30003C9.43431 1.07912 9.47909 0.765715 9.7 0.600029Z" fill="black"/>
<path fill-rule="evenodd" clip-rule="evenodd" d="M4.88415 10.0676C5.12301 9.92899 5.42897 10.0103 5.56753 10.2492C5.61148 10.3249 5.67457 10.3878 5.75047 10.4315C5.82638 10.4753 5.91244 10.4983 6.00003 10.4983C6.08763 10.4983 6.17368 10.4753 6.24959 10.4315C6.32549 10.3878 6.38858 10.3249 6.43253 10.2492C6.57109 10.0103 6.87705 9.92899 7.11592 10.0676C7.35478 10.2061 7.43609 10.5121 7.29753 10.7509C7.16567 10.9782 6.97641 11.1669 6.7487 11.2981C6.52099 11.4292 6.26281 11.4983 6.00003 11.4983C5.73725 11.4983 5.47907 11.4292 5.25136 11.2981C5.02365 11.1669 4.83439 10.9782 4.70253 10.7509C4.56397 10.5121 4.64528 10.2061 4.88415 10.0676Z" fill="black"/>
<path fill-rule="evenodd" clip-rule="evenodd" d="M5.99999 0.500029C5.07173 0.500029 4.1815 0.868778 3.52512 1.52516C2.86874 2.18153 2.49999 3.07177 2.49999 4.00003C2.49999 5.67636 2.14146 6.71734 1.81104 7.3231C1.64515 7.62725 1.4836 7.82677 1.37139 7.94522C1.31515 8.00458 1.27096 8.04394 1.24435 8.06611L1.22818 8.0803C1.09085 8.16942 1 8.32412 1 8.50003C1 8.77617 1.22386 9.00003 1.5 9.00003H10.5C10.7234 9.00003 10.9126 8.85354 10.9767 8.65139C11.0419 8.44648 10.9687 8.21532 10.7832 8.08792L10.7817 8.08688C10.7779 8.08401 10.769 8.07721 10.7556 8.06611C10.729 8.04394 10.6848 8.00458 10.6286 7.94522C10.5164 7.82677 10.3549 7.62725 10.189 7.3231C9.85854 6.71734 9.50001 5.67636 9.50001 4.00003C9.50001 3.07177 9.13126 2.18153 8.47488 1.52516C7.8185 0.868778 6.92825 0.500029 5.99999 0.500029ZM5.99999 1.50003C5.33695 1.50003 4.70107 1.76342 4.23223 2.23226C3.76338 2.7011 3.49999 3.33699 3.49999 4.00003C3.49999 5.8237 3.10853 7.03271 2.68894 7.80196L2.5841 8.00003H9.42535C9.3873 7.93769 9.34911 7.87171 9.31106 7.80196C8.89147 7.03271 8.50001 5.8237 8.50001 4.00003C8.50001 3.33699 8.23662 2.7011 7.76777 2.23226C7.29893 1.76342 6.66303 1.50003 5.99999 1.50003Z" fill="black"/>
</g>
<defs>
<clipPath id="clip0_10318_2959">
<rect width="12" height="12" fill="white"/>
</clipPath>
</defs>
</svg>
