<svg width="12" height="12" viewBox="0 0 12 12" fill="none" xmlns="http://www.w3.org/2000/svg">
<path fill-rule="evenodd" clip-rule="evenodd" d="M11.5 9C11.5 8.60217 11.342 8.22064 11.0607 7.93934C10.8959 7.77462 10.6969 7.65217 10.4803 7.57896C10.3827 6.53996 9.92607 5.56211 9.18198 4.81802C8.45677 4.09281 7.50951 3.64069 6.5 3.52785V2.5H7C7.27614 2.5 7.5 2.27614 7.5 2C7.5 1.72386 7.27614 1.5 7 1.5H5C4.72386 1.5 4.5 1.72386 4.5 2C4.5 2.27614 4.72386 2.5 5 2.5H5.5V2.76392V3.52785C4.49049 3.64069 3.54323 4.09281 2.81802 4.81802C2.07393 5.56211 1.61733 6.53996 1.51973 7.57896C1.30313 7.65217 1.10406 7.77462 0.93934 7.93934C0.658035 8.22064 0.5 8.60218 0.5 9V10C0.5 10.2761 0.723858 10.5 1 10.5H11C11.2761 10.5 11.5 10.2761 11.5 10V9ZM2 8.5C1.86739 8.5 1.74021 8.55268 1.64645 8.64645C1.55268 8.74021 1.5 8.86739 1.5 9V9.5H10.5V9C10.5 8.86739 10.4473 8.74022 10.3536 8.64645C10.2598 8.55268 10.1326 8.5 10 8.5H2ZM8.47487 5.52513C7.8185 4.86875 6.92826 4.5 6 4.5C5.07174 4.5 4.1815 4.86875 3.52513 5.52513C2.98776 6.06249 2.64317 6.75661 2.53588 7.5H9.46412C9.35683 6.75661 9.01224 6.06249 8.47487 5.52513Z" fill="black"/>
</svg>
