<svg width="12" height="12" viewBox="0 0 12 12" fill="none" xmlns="http://www.w3.org/2000/svg">
<path fill-rule="evenodd" clip-rule="evenodd" d="M6.00024 2.17395C3.88711 2.17395 2.17407 3.88699 2.17407 6.00012C2.17407 6.87644 2.46867 7.68395 2.96424 8.32902L8.32914 2.96412C7.68407 2.46855 6.87656 2.17395 6.00024 2.17395ZM9.04106 2.2522C8.2111 1.57801 7.15286 1.17395 6.00024 1.17395C3.33482 1.17395 1.17407 3.3347 1.17407 6.00012C1.17407 7.15274 1.57813 8.21098 2.25232 9.04093L1.32052 9.97274C1.12526 10.168 1.12526 10.4846 1.32052 10.6798C1.51578 10.8751 1.83236 10.8751 2.02763 10.6798L2.95943 9.74804C3.78938 10.4222 4.84763 10.8263 6.00024 10.8263C8.66567 10.8263 10.8264 8.66554 10.8264 6.00012C10.8264 4.84751 10.4224 3.78926 9.74816 2.95931L10.68 2.0275C10.8752 1.83224 10.8752 1.51566 10.68 1.3204C10.4847 1.12513 10.1681 1.12513 9.97286 1.3204L9.04106 2.2522ZM9.03625 3.67123L3.67135 9.03613C4.31641 9.53169 5.12393 9.82629 6.00024 9.82629C8.11338 9.82629 9.82642 8.11326 9.82642 6.00012C9.82642 5.1238 9.53181 4.31629 9.03625 3.67123Z" fill="black"/>
</svg>
