<svg width="12" height="12" viewBox="0 0 12 12" fill="none" xmlns="http://www.w3.org/2000/svg">
<g clip-path="url(#clip0_13472_10995)">
<path fill-rule="evenodd" clip-rule="evenodd" d="M4.60034 1.95044C4.3242 1.95044 4.10034 2.1743 4.10034 2.45044C4.10034 2.72658 4.3242 2.95044 4.60034 2.95044C4.87648 2.95044 5.10034 2.72658 5.10034 2.45044C5.10034 2.1743 4.87648 1.95044 4.60034 1.95044ZM3.18569 1.95044C3.39161 1.36784 3.94723 0.950439 4.60034 0.950439C5.25345 0.950439 5.80907 1.36784 6.01499 1.95044H10.5637C10.8398 1.95044 11.0637 2.1743 11.0637 2.45044C11.0637 2.72658 10.8398 2.95044 10.5637 2.95044H6.01499C5.80907 3.53304 5.25345 3.95044 4.60034 3.95044C3.94723 3.95044 3.39161 3.53304 3.18569 2.95044H1.4397C1.16355 2.95044 0.939697 2.72658 0.939697 2.45044C0.939697 2.1743 1.16355 1.95044 1.4397 1.95044H3.18569ZM5.98843 5.50049C6.19435 4.91789 6.74997 4.50049 7.40308 4.50049C8.05619 4.50049 8.61181 4.91789 8.81772 5.50049H10.5637C10.8399 5.50049 11.0637 5.72435 11.0637 6.00049C11.0637 6.27663 10.8399 6.50049 10.5637 6.50049H8.81772C8.61181 7.08309 8.05619 7.50049 7.40308 7.50049C6.74997 7.50049 6.19435 7.08309 5.98843 6.50049H1.43973C1.16359 6.50049 0.939734 6.27663 0.939734 6.00049C0.939734 5.72435 1.16359 5.50049 1.43973 5.50049H5.98843ZM7.40308 5.50049C7.12693 5.50049 6.90308 5.72435 6.90308 6.00049C6.90308 6.27663 7.12693 6.50049 7.40308 6.50049C7.67922 6.50049 7.90308 6.27663 7.90308 6.00049C7.90308 5.72435 7.67922 5.50049 7.40308 5.50049ZM4.60034 9.06055C4.3242 9.06055 4.10034 9.28441 4.10034 9.56055C4.10034 9.83669 4.3242 10.0605 4.60034 10.0605C4.87648 10.0605 5.10034 9.83669 5.10034 9.56055C5.10034 9.28441 4.87648 9.06055 4.60034 9.06055ZM3.18569 9.06055C3.39161 8.47795 3.94723 8.06055 4.60034 8.06055C5.25345 8.06055 5.80907 8.47795 6.01499 9.06055H10.5637C10.8398 9.06055 11.0637 9.28441 11.0637 9.56055C11.0637 9.83669 10.8398 10.0605 10.5637 10.0605H6.01499C5.80907 10.6431 5.25345 11.0605 4.60034 11.0605C3.94723 11.0605 3.39161 10.6431 3.18569 10.0605H1.4397C1.16355 10.0605 0.939697 9.83669 0.939697 9.56055C0.939697 9.28441 1.16355 9.06055 1.4397 9.06055H3.18569Z" fill="black"/>
</g>
<defs>
<clipPath id="clip0_13472_10995">
<rect width="12" height="12" fill="white" transform="translate(0.000244141 0.000488281)"/>
</clipPath>
</defs>
</svg>
