<svg width="12" height="12" viewBox="0 0 12 12" fill="none" xmlns="http://www.w3.org/2000/svg">
<path fill-rule="evenodd" clip-rule="evenodd" d="M2.50024 1.06299C1.70633 1.06299 1.06274 1.70658 1.06274 2.50049V9.50049C1.06274 10.2944 1.70633 10.938 2.50024 10.938H9.50024C10.2942 10.938 10.9377 10.2944 10.9377 9.50049V2.50049C10.9377 1.70658 10.2942 1.06299 9.50024 1.06299H2.50024ZM4.00024 4.31299C3.20633 4.31299 2.56274 4.95658 2.56274 5.75049V6.25049C2.56274 7.0444 3.20633 7.68799 4.00024 7.68799H4.50024C4.74187 7.68799 4.93774 7.49211 4.93774 7.25049V6.00049C4.93774 5.75886 4.74187 5.56299 4.50024 5.56299H4.25024C4.00862 5.56299 3.81274 5.75886 3.81274 6.00049C3.81274 6.17501 3.91493 6.32567 4.06274 6.39589V6.81299H4.00024C3.68958 6.81299 3.43774 6.56115 3.43774 6.25049V5.75049C3.43774 5.43983 3.68958 5.18799 4.00024 5.18799H4.50024C4.74187 5.18799 4.93774 4.99211 4.93774 4.75049C4.93774 4.50886 4.74187 4.31299 4.50024 4.31299H4.00024ZM6.43774 4.75049C6.43774 4.50886 6.24187 4.31299 6.00024 4.31299C5.75862 4.31299 5.56274 4.50886 5.56274 4.75049V7.25049C5.56274 7.49211 5.75862 7.68799 6.00024 7.68799C6.24187 7.68799 6.43774 7.49211 6.43774 7.25049V4.75049ZM7.50024 4.31299C7.25862 4.31299 7.06274 4.50886 7.06274 4.75049V7.25049C7.06274 7.49211 7.25862 7.68799 7.50024 7.68799C7.74187 7.68799 7.93774 7.49211 7.93774 7.25049V6.43799H8.50024C8.74187 6.43799 8.93774 6.24211 8.93774 6.00049C8.93774 5.75886 8.74187 5.56299 8.50024 5.56299H7.93774V5.18799H9.00024C9.24187 5.18799 9.43774 4.99211 9.43774 4.75049C9.43774 4.50886 9.24187 4.31299 9.00024 4.31299H7.50024Z" fill="black"/>
</svg>
