<svg width="12" height="12" viewBox="0 0 12 12" fill="none" xmlns="http://www.w3.org/2000/svg">
<path fill-rule="evenodd" clip-rule="evenodd" d="M1.00024 2.50049C1.00024 1.67206 1.67182 1.00049 2.50024 1.00049H9.50024C10.3287 1.00049 11.0002 1.67206 11.0002 2.50049V9.50049C11.0002 10.3289 10.3287 11.0005 9.50024 11.0005H2.50024C1.67182 11.0005 1.00024 10.3289 1.00024 9.50049V2.50049ZM2.50024 2.00049C2.2241 2.00049 2.00024 2.22435 2.00024 2.50049V9.50049C2.00024 9.77663 2.2241 10.0005 2.50024 10.0005H9.50024C9.77639 10.0005 10.0002 9.77663 10.0002 9.50049V2.50049C10.0002 2.22435 9.77639 2.00049 9.50024 2.00049H2.50024ZM2.50024 6.00049C2.50024 5.17206 3.17182 4.50049 4.00024 4.50049H4.50024C4.77639 4.50049 5.00024 4.72435 5.00024 5.00049C5.00024 5.27663 4.77639 5.50049 4.50024 5.50049H4.00024C3.7241 5.50049 3.50024 5.72435 3.50024 6.00049V6.50049C3.50024 6.77663 3.7241 7.00049 4.00024 7.00049V6.6836C3.85079 6.59714 3.75024 6.43556 3.75024 6.25049C3.75024 5.97435 3.9741 5.75049 4.25024 5.75049H4.50024C4.77639 5.75049 5.00024 5.97435 5.00024 6.25049V7.50049C5.00024 7.77663 4.77639 8.00049 4.50024 8.00049H4.00024C3.17182 8.00049 2.50024 7.32892 2.50024 6.50049V6.00049ZM6.00024 4.50049C6.27639 4.50049 6.50024 4.72435 6.50024 5.00049V7.50049C6.50024 7.77663 6.27639 8.00049 6.00024 8.00049C5.7241 8.00049 5.50024 7.77663 5.50024 7.50049V5.00049C5.50024 4.72435 5.7241 4.50049 6.00024 4.50049ZM7.00024 5.00049C7.00024 4.72435 7.2241 4.50049 7.50024 4.50049H9.00024C9.27639 4.50049 9.50024 4.72435 9.50024 5.00049C9.50024 5.27663 9.27639 5.50049 9.00024 5.50049H8.00024V5.75049H8.50024C8.77639 5.75049 9.00024 5.97435 9.00024 6.25049C9.00024 6.52663 8.77639 6.75049 8.50024 6.75049H8.00024V7.50049C8.00024 7.77663 7.77639 8.00049 7.50024 8.00049C7.2241 8.00049 7.00024 7.77663 7.00024 7.50049V5.00049Z" fill="black"/>
</svg>
