<svg xmlns="http://www.w3.org/2000/svg" width="12" height="12" fill="none" viewBox="0 0 12 12">
  <g clip-path="url(#a)">
    <path fill="#000" fill-rule="evenodd" d="M.538 4.006c.84-.668 2.864-2.005 5.62-2.004a8.003 8.003 0 0 1 5.358 2.032c.446.404.396 1.054.017 1.433l-.353-.354.353.354-.726.726c-.339.34-.866.404-1.277.157l-1.076-.646a1.045 1.045 0 0 1-.503-.99l.131-1.45a7.117 7.117 0 0 0-1.924-.262 7.61 7.61 0 0 0-2.096.296v1.49c.001.367-.191.708-.506.897l-1.109.666-.257-.429.257.429a1.045 1.045 0 0 1-1.277-.157l-.701-.701C.066 5.09.045 4.397.538 4.006Zm2.524-.35c-.858.37-1.506.82-1.891 1.124a.047.047 0 0 0 .005.006l.701.7a.045.045 0 0 0 .055.008l1.109-.667a.045.045 0 0 0 .022-.038V3.655Zm5.992-.04-.107 1.188a.045.045 0 0 0 .022.043l1.076.646c.018.01.04.007.055-.007l.726-.726a6.895 6.895 0 0 0-1.772-1.144ZM6 6.237a.5.5 0 0 1 .5.5v2.41l.955-.955a.5.5 0 1 1 .707.707l-1.808 1.808a.5.5 0 0 1-.707 0L3.839 8.899a.5.5 0 1 1 .707-.707l.954.954V6.737a.5.5 0 0 1 .5-.5Z" clip-rule="evenodd"/>
  </g>
  <defs>
    <clipPath id="a">
      <path fill="#fff" d="M0 0h12v12H0z"/>
    </clipPath>
  </defs>
</svg>
