<svg width="12" height="12" viewBox="0 0 12 12" fill="none" xmlns="http://www.w3.org/2000/svg">
<path fill-rule="evenodd" clip-rule="evenodd" d="M6.2247 2.00679C5.32961 1.95649 4.44356 2.20833 3.70875 2.72192C2.97393 3.2355 2.43295 3.98105 2.17261 4.83892C1.91228 5.6968 1.94768 6.61726 2.27313 7.45261C2.59859 8.28795 3.19524 8.98974 3.96733 9.44537C4.73942 9.901 5.6422 10.084 6.53078 9.96514C7.41937 9.84623 8.24225 9.43226 8.86738 8.78966C9.4925 8.14706 9.88364 7.31308 9.97801 6.42155C10.0071 6.14695 10.2533 5.9479 10.5279 5.97697C10.8025 6.00603 11.0015 6.25221 10.9725 6.52682C10.8545 7.64123 10.3656 8.6837 9.58416 9.48695C8.80275 10.2902 7.77415 10.8077 6.66342 10.9563C5.55268 11.1049 4.42422 10.8761 3.4591 10.3066C2.49399 9.73706 1.74818 8.85982 1.34136 7.81564C0.934533 6.77145 0.890283 5.62088 1.2157 4.54853C1.54113 3.47619 2.21735 2.54426 3.13587 1.90227C4.05439 1.26029 5.16195 0.945485 6.28082 1.00837C7.39968 1.07126 8.46499 1.50819 9.30579 2.24905L9.30973 2.25253L9.30972 2.25255L10.0001 2.87392V2.47419C10.0001 2.19805 10.224 1.97419 10.5001 1.97419C10.7763 1.97419 11.0001 2.19805 11.0001 2.47419V3.97419C11.0001 4.25033 10.7763 4.47419 10.5001 4.47419H10.4771C10.4758 4.4742 10.4744 4.4742 10.473 4.47419H9.00014C8.72399 4.47419 8.50014 4.25033 8.50014 3.97419C8.50014 3.69805 8.72399 3.47419 9.00014 3.47419H9.17225L8.64275 2.99764C7.97042 2.40598 7.11894 2.05705 6.2247 2.00679ZM5.9773 4.50024C5.9773 4.2241 6.20116 4.00024 6.4773 4.00024H7.78533C8.06147 4.00024 8.28533 4.2241 8.28533 4.50024C8.28533 4.77638 8.06147 5.00024 7.78533 5.00024H6.9773V5.2724C7.14567 5.25794 7.33393 5.27251 7.52538 5.34453C7.92273 5.49402 8.11779 5.80151 8.20532 6.06494C8.28559 6.30652 8.2854 6.5374 8.28533 6.62554C8.28533 6.62803 8.28533 6.63041 8.28533 6.63268C8.28533 6.79964 8.23201 7.05437 8.10841 7.29156C7.9803 7.53742 7.73942 7.83152 7.3284 7.93712C6.97855 8.027 6.6782 7.97391 6.43527 7.84049C6.22948 7.72747 6.08747 7.56597 6.01805 7.48702C6.01352 7.48187 6.0093 7.47707 6.00539 7.47266C5.82227 7.26597 5.84137 6.94997 6.04805 6.76684C6.25474 6.58371 6.57074 6.60281 6.75387 6.8095C6.83539 6.9015 6.8736 6.94033 6.91667 6.96399C6.93259 6.97273 6.9477 6.978 6.96622 6.98032C6.9851 6.98269 7.02085 6.98366 7.07956 6.96857C7.12279 6.95747 7.17258 6.9235 7.22158 6.82946C7.2452 6.78414 7.26252 6.73514 7.27353 6.69146C7.28353 6.65174 7.28506 6.62975 7.28529 6.62977C7.28534 6.62977 7.28533 6.63073 7.28533 6.63268C7.28533 6.55085 7.2828 6.45989 7.25633 6.38025C7.24448 6.34457 7.23146 6.32355 7.22124 6.31158C7.21334 6.30234 7.2012 6.291 7.17326 6.28049C7.12943 6.264 7.06298 6.26027 6.97181 6.28579C6.87927 6.3117 6.80415 6.35634 6.77792 6.37608C6.62648 6.49003 6.42362 6.50856 6.25404 6.42393C6.08446 6.3393 5.9773 6.16607 5.9773 5.97654V4.50024ZM5.19158 4.03855C5.37842 4.11594 5.50024 4.29825 5.50024 4.50049V7.50048C5.50024 7.77662 5.27638 8.00048 5.00024 8.00048C4.7241 8.00048 4.50024 7.77662 4.50024 7.50048V5.70759L4.35379 5.85404C4.15853 6.0493 3.84195 6.0493 3.64669 5.85404C3.45143 5.65878 3.45143 5.34219 3.64669 5.14693L4.64669 4.14693C4.78969 4.00393 5.00474 3.96115 5.19158 4.03855Z" fill="black"/>
</svg>
