<svg width="24" height="24" viewBox="0 0 24 24" fill="none" xmlns="http://www.w3.org/2000/svg">
<path d="M5.5 1C4.67157 1 4 1.67157 4 2.5V21.5C4 22.3284 4.67157 23 5.5 23H18.5C19.3284 23 20 22.3284 20 21.5V7L14 1H5.5Z" fill="#F4B70A"/>
<path d="M5.5 23C4.67157 23 4 22.3284 4 21.5V21.25C4 22.0784 4.67157 22.75 5.5 22.75H18.5C19.3284 22.75 20 22.0784 20 21.25V21.5C20 22.3284 19.3284 23 18.5 23H5.5Z" fill="#EFA904"/>
<path d="M5.5 1C4.67157 1 4 1.67157 4 2.5V2.75C4 1.92157 4.67157 1.25 5.5 1.25H14.25L14 1H5.5Z" fill="#F6C028"/>
<path d="M20 12.125V7L19.125 6.125H14.9053C14.5712 6.125 14.4039 6.52893 14.6401 6.76517L20 12.125Z" fill="url(#paint0_linear_11546_3381)"/>
<path d="M14 1L20 7H15.5C14.6716 7 14 6.32843 14 5.5V1Z" fill="#FADC87"/>
<path fill-rule="evenodd" clip-rule="evenodd" d="M8.5 11C8.22386 11 8 11.2239 8 11.5V18.5C8 18.7761 8.22386 19 8.5 19H15.5C15.7761 19 16 18.7761 16 18.5V11.5C16 11.2239 15.7761 11 15.5 11H8.5ZM15 13.25H9V16.75H15V13.25Z" fill="white"/>
<defs>
<linearGradient id="paint0_linear_11546_3381" x1="17.2648" y1="12.125" x2="17.2648" y2="6" gradientUnits="userSpaceOnUse">
<stop stop-color="#F4B70A"/>
<stop offset="1" stop-color="#E2930A"/>
</linearGradient>
</defs>
</svg>
