<svg width="12" height="12" viewBox="0 0 12 12" fill="none" xmlns="http://www.w3.org/2000/svg">
<path fill-rule="evenodd" clip-rule="evenodd" d="M2.65073 0.00012207C1.18691 0.00012207 0.000244141 1.18678 0.000244141 2.6506V9.34964C0.000244141 10.8135 1.1869 12.0001 2.65073 12.0001H9.34976C10.8136 12.0001 12.0002 10.8135 12.0002 9.34964V2.65061C12.0002 1.18678 10.8136 0.00012207 9.34976 0.00012207H2.65073ZM9.17546 4.17521C9.53643 4.17521 9.82905 3.88259 9.82905 3.52162C9.82905 3.16066 9.53643 2.86803 9.17546 2.86803C8.81449 2.86803 8.52187 3.16066 8.52187 3.52162C8.52187 3.88259 8.81449 4.17521 9.17546 4.17521ZM4.93839 4.04163C4.78799 4.04163 4.52905 4.1849 4.39436 4.62464L4.3941 4.62551L3.11842 8.73846C3.03355 9.01212 2.74289 9.16516 2.46923 9.08028C2.19557 8.9954 2.04253 8.70475 2.12741 8.43109L3.40227 4.32076L3.40256 4.31983C3.60995 3.64378 4.15345 3.00404 4.93839 3.00404C5.72312 3.00404 6.26581 3.64245 6.47355 4.31748L6.47373 4.31806L7.45575 7.48401L7.45594 7.48463C7.59076 7.92313 7.84922 8.06598 7.99951 8.06598C8.36811 8.06598 8.66684 7.76725 8.66684 7.39865V5.23109C8.66684 4.94457 8.89911 4.7123 9.18563 4.7123C9.47216 4.7123 9.70443 4.94457 9.70443 5.23109V7.39865C9.70443 8.34029 8.94115 9.10356 7.99951 9.10356C7.21563 9.10356 6.67224 8.46547 6.4644 7.79029L6.46417 7.78955L5.48215 4.6236L5.48196 4.62298C5.34708 4.18428 5.08915 4.04163 4.93839 4.04163Z" fill="black"/>
</svg>
