<svg width="12" height="12" viewBox="0 0 12 12" fill="none" xmlns="http://www.w3.org/2000/svg">
<path fill-rule="evenodd" clip-rule="evenodd" d="M6 10C8.20914 10 10 8.20914 10 6C10 3.79086 8.20914 2 6 2C3.79086 2 2 3.79086 2 6C2 8.20914 3.79086 10 6 10ZM6 11C8.76142 11 11 8.76142 11 6C11 3.23858 8.76142 1 6 1C3.23858 1 1 3.23858 1 6C1 8.76142 3.23858 11 6 11Z" fill="black"/>
<path fill-rule="evenodd" clip-rule="evenodd" d="M6.5348 6.43541C6.56791 6.58769 6.64067 6.81047 6.72962 7.05543C6.85808 7.40916 7.02032 7.80914 7.14571 8.10988C7.25972 8.38332 7.34326 8.57471 7.34326 8.57471L6.68066 8.86388L5.99998 7.39312L5.27776 8.86203L4.94857 8.71837L4.61938 8.57471C4.61938 8.57471 4.62024 8.57274 4.62191 8.56891C4.63663 8.53506 4.71422 8.35619 4.81638 8.1112C4.94581 7.8008 5.11468 7.38425 5.24511 7.02198C5.32854 6.79025 5.39625 6.58073 5.42784 6.43541C5.44089 6.38321 5.45223 6.3079 5.46208 6.22072C5.46863 6.16271 5.47453 6.09944 5.47983 6.03421C5.49404 5.85954 5.50399 5.67084 5.51097 5.53163C5.51108 5.52957 5.51118 5.52744 5.51129 5.52541C5.51173 5.51652 5.51216 5.50784 5.51258 5.49939C5.51283 5.4945 5.51307 5.48968 5.5133 5.48494L5.5149 5.45282C5.52331 5.39398 5.49763 5.34083 5.45707 5.30486C5.43761 5.28761 5.41472 5.27432 5.39052 5.26625L3.86067 4.80605C3.85867 4.80555 3.85668 4.80504 3.85469 4.8045C3.65943 4.75205 3.55035 4.54286 3.61192 4.34586C3.66988 4.17198 3.85748 4.08453 4.03376 4.11371C4.04485 4.11555 4.0559 4.11785 4.06686 4.12061L4.07212 4.12197C4.07212 4.12197 4.23422 4.17362 4.46782 4.24183C4.49904 4.25095 4.53154 4.26036 4.56511 4.26999C4.88046 4.36043 5.28946 4.46961 5.61259 4.52803C5.6202 4.5294 5.62775 4.53075 5.63526 4.53207C5.70813 4.54486 5.7763 4.55491 5.83763 4.56141C5.88859 4.5668 5.93482 4.56974 5.9751 4.56974C5.98317 4.56974 5.99146 4.56962 5.99997 4.56939C6.03663 4.56842 6.07733 4.56537 6.12134 4.56055C6.18384 4.5537 6.253 4.54327 6.32673 4.53009C6.33425 4.52875 6.34182 4.52738 6.34943 4.52597C6.67176 4.46666 7.0752 4.35764 7.39017 4.26603C7.44351 4.25051 7.49431 4.23549 7.54175 4.2213C7.72467 4.16658 7.85763 4.12413 7.89338 4.11263C7.89968 4.1106 7.90296 4.10954 7.90296 4.10954C7.9071 4.10843 7.91125 4.10741 7.91541 4.10646C8.09883 4.06479 8.30208 4.17586 8.35072 4.35829C8.39825 4.53652 8.29822 4.73745 8.12653 4.79843C8.1185 4.80128 8.11031 4.80383 8.10197 4.80605L6.57212 5.26625C6.54934 5.27384 6.52888 5.28607 6.51145 5.30187C6.47176 5.33784 6.44774 5.39233 6.44774 5.45282L6.44934 5.4849C6.44957 5.48965 6.44981 5.49448 6.45006 5.49938C6.45045 5.50722 6.45085 5.51526 6.45126 5.52348C6.45139 5.52615 6.45153 5.52884 6.45166 5.53155C6.45255 5.54926 6.45349 5.56786 6.45448 5.58705C6.46125 5.71864 6.47041 5.88176 6.48281 6.03421C6.48351 6.04289 6.48423 6.05152 6.48496 6.06012C6.4979 6.21333 6.51422 6.3531 6.5348 6.43541ZM6.69071 3.42226C6.64648 3.08018 6.35409 2.81592 5.99997 2.81592C5.64127 2.81592 5.34589 3.08708 5.30765 3.4356C5.30488 3.46083 5.30346 3.48647 5.30346 3.51244C5.30346 3.88879 5.60194 4.19542 5.9751 4.20852C5.98336 4.20881 5.99165 4.20895 5.99997 4.20895C6.38465 4.20895 6.69649 3.89711 6.69649 3.51244C6.69649 3.48188 6.69452 3.45178 6.69071 3.42226ZM5.27776 8.86203L4.94857 8.71837L4.61938 8.57471C4.60906 8.59682 4.60119 8.61927 4.59562 8.64183C4.55417 8.80964 4.64001 8.98304 4.79351 9.05979C4.84326 9.08466 4.89301 9.0971 4.94276 9.0971C5.07958 9.0971 5.21639 9.02247 5.26615 8.88566L5.27776 8.86203ZM6.68066 8.86388L7.34326 8.57471C7.34636 8.58136 7.34926 8.58804 7.35195 8.59474C7.42487 8.77619 7.34905 8.97582 7.16913 9.05979C7.11938 9.08466 7.06963 9.0971 7.01988 9.0971C6.88306 9.0971 6.75868 9.02247 6.6965 8.8981L6.68066 8.86388Z" fill="black"/>
</svg>
