<svg width="12" height="12" viewBox="0 0 12 12" fill="none" xmlns="http://www.w3.org/2000/svg">
<g clip-path="url(#clip0_12061_5019)">
<path fill-rule="evenodd" clip-rule="evenodd" d="M7.49705 2.22766C6.6837 1.90484 5.78778 1.85356 4.9429 2.08146C4.09803 2.30937 3.34944 2.80424 2.80876 3.49231C2.26808 4.18037 1.96428 5.02476 1.94265 5.89957C1.92102 6.77438 2.18272 7.63275 2.68873 8.34669C3.19474 9.06063 3.91796 9.5919 4.75054 9.86128C5.15679 9.99272 5.57844 10.0584 5.99999 10.0584C6.27613 10.0584 6.49999 10.2822 6.5 10.5583C6.50001 10.8345 6.27616 11.0584 6.00001 11.0584C5.47462 11.0584 4.94905 10.9765 4.44271 10.8127C3.40498 10.477 2.50356 9.8148 1.87287 8.92494C1.24218 8.03509 0.915993 6.96521 0.942953 5.87485C0.969912 4.78449 1.34857 3.73204 2.02247 2.87444C2.69637 2.01684 3.62941 1.40003 4.68247 1.11597C5.73552 0.831914 6.85219 0.895829 7.86595 1.29819C8.12262 1.40006 8.24811 1.69071 8.14624 1.94737C8.04437 2.20404 7.75372 2.32952 7.49705 2.22766ZM10.9011 2.14645C11.0964 2.34171 11.0964 2.6583 10.9011 2.85356L6.3535 7.40108C6.25944 7.49514 6.13177 7.54784 5.99875 7.54752C5.86573 7.5472 5.73832 7.49389 5.64471 7.39938L4.09709 5.83688C3.90277 5.64069 3.90428 5.32411 4.10047 5.12978C4.29667 4.93546 4.61325 4.93697 4.80757 5.13317L6.00165 6.33873L10.194 2.14644C10.3893 1.95118 10.7059 1.95119 10.9011 2.14645ZM8.99992 7C9.27606 7 9.49992 7.22385 9.49993 7.5L9.49994 8.5L10.4999 8.49999C10.7761 8.49999 10.9999 8.72384 10.9999 8.99998C10.9999 9.27613 10.7761 9.49999 10.4999 9.49999L9.49994 9.5L9.49995 10.5C9.49996 10.7761 9.2761 11 8.99996 11C8.72381 11 8.49996 10.7761 8.49995 10.5L8.49994 9.5L7.49994 9.50001C7.2238 9.50002 6.99994 9.27616 6.99994 9.00002C6.99994 8.72388 7.22379 8.50002 7.49994 8.50001L8.49994 8.50001L8.49993 7.50001C8.49992 7.22386 8.72378 7 8.99992 7Z" fill="black"/>
</g>
<defs>
<clipPath id="clip0_12061_5019">
<rect width="12" height="12" fill="white"/>
</clipPath>
</defs>
</svg>
