<svg width="12" height="12" viewBox="0 0 12 12" fill="none" xmlns="http://www.w3.org/2000/svg">
<path fill-rule="evenodd" clip-rule="evenodd" d="M1 2.5C1 1.67157 1.67157 1 2.5 1H9.5C10.3284 1 11 1.67157 11 2.5V9.5C11 10.3284 10.3284 11 9.5 11H2.5C1.67157 11 1 10.3284 1 9.5V2.5ZM2 2.5C2 2.22386 2.22386 2 2.5 2H5V5.5C5 5.70223 5.12182 5.88455 5.30866 5.96194C5.4955 6.03933 5.71055 5.99655 5.85355 5.85355L7 4.70711L8.14645 5.85355C8.28945 5.99655 8.5045 6.03933 8.69134 5.96194C8.87818 5.88455 9 5.70223 9 5.5V2H9.5C9.77614 2 10 2.22386 10 2.5V9.5C10 9.77614 9.77614 10 9.5 10H2.5C2.22386 10 2 9.77614 2 9.5V2.5ZM6 4.29289L6.64645 3.64645C6.84171 3.45118 7.15829 3.45118 7.35355 3.64645L8 4.29289V2H6V4.29289Z" fill="black"/>
</svg>
