<svg width="12" height="12" viewBox="0 0 12 12" fill="none" xmlns="http://www.w3.org/2000/svg">
<path fill-rule="evenodd" clip-rule="evenodd" d="M0.5 1.5C0.5 1.22386 0.723858 1 1 1H4C4.66304 1 5.29893 1.26339 5.76777 1.73223C5.85191 1.81637 5.92943 1.90589 6 1.99998C6.07057 1.90589 6.14809 1.81637 6.23223 1.73223C6.70107 1.26339 7.33696 1 8 1H11C11.2761 1 11.5 1.22386 11.5 1.5V9C11.5 9.27614 11.2761 9.5 11 9.5H7.5C7.23478 9.5 6.98043 9.60536 6.79289 9.79289C6.60536 9.98043 6.5 10.2348 6.5 10.5C6.5 10.7761 6.27614 11 6 11C5.72386 11 5.5 10.7761 5.5 10.5C5.5 10.2348 5.39464 9.98043 5.20711 9.79289C5.01957 9.60536 4.76522 9.5 4.5 9.5H1C0.723858 9.5 0.5 9.27614 0.5 9V1.5ZM5.5 3.5V8.76794C5.19855 8.59391 4.85411 8.5 4.5 8.5H1.5V2H4C4.39782 2 4.77936 2.15804 5.06066 2.43934C5.34196 2.72064 5.5 3.10218 5.5 3.5ZM7.5 8.5C7.14589 8.5 6.80145 8.59391 6.5 8.76794V3.5C6.5 3.10218 6.65804 2.72064 6.93934 2.43934C7.22064 2.15804 7.60218 2 8 2H10.5V8.5H7.5Z" fill="black"/>
</svg>
