<svg width="12" height="12" viewBox="0 0 12 12" fill="none" xmlns="http://www.w3.org/2000/svg">
<path fill-rule="evenodd" clip-rule="evenodd" d="M3.5 2C3.36739 2 3.24021 2.05268 3.14645 2.14645C3.05268 2.24021 3 2.36739 3 2.5V9.63841L5.75193 8.06588C5.90565 7.97804 6.09435 7.97804 6.24807 8.06588L9 9.63841V2.5C9 2.36739 8.94732 2.24021 8.85355 2.14645C8.75979 2.05268 8.63261 2 8.5 2H3.5ZM2.43934 1.43934C2.72064 1.15804 3.10218 1 3.5 1H8.5C8.89782 1 9.27936 1.15804 9.56066 1.43934C9.84196 1.72064 10 2.10218 10 2.5V10.5C10 10.6782 9.90512 10.843 9.75096 10.9325C9.59681 11.0219 9.40668 11.0226 9.25193 10.9341L6 9.07588L2.74807 10.9341C2.59332 11.0226 2.40319 11.0219 2.24904 10.9325C2.09488 10.843 2 10.6782 2 10.5V2.5C2 2.10218 2.15804 1.72064 2.43934 1.43934ZM6 3C6.27614 3 6.5 3.22386 6.5 3.5V4.5H7.5C7.77614 4.5 8 4.72386 8 5C8 5.27614 7.77614 5.5 7.5 5.5H6.5V6.5C6.5 6.77614 6.27614 7 6 7C5.72386 7 5.5 6.77614 5.5 6.5V5.5H4.5C4.22386 5.5 4 5.27614 4 5C4 4.72386 4.22386 4.5 4.5 4.5H5.5V3.5C5.5 3.22386 5.72386 3 6 3Z" fill="black"/>
</svg>
