<svg width="12" height="12" viewBox="0 0 12 12" fill="none" xmlns="http://www.w3.org/2000/svg">
<path fill-rule="evenodd" clip-rule="evenodd" d="M3.25 0.5H10C10.2761 0.5 10.5 0.723858 10.5 1V11C10.5 11.2761 10.2761 11.5 10 11.5H3.25C2.78587 11.5 2.34075 11.3156 2.01256 10.9874C1.68437 10.6592 1.5 10.2141 1.5 9.75V2.25C1.5 1.78587 1.68437 1.34075 2.01256 1.01256C2.34075 0.684374 2.78587 0.5 3.25 0.5ZM2.71967 1.71967C2.86032 1.57902 3.05109 1.5 3.25 1.5H9.5V8H3.25C2.98808 8 2.73221 8.05872 2.5 8.16886V2.25C2.5 2.05109 2.57902 1.86032 2.71967 1.71967ZM2.5 9.75C2.5 9.94891 2.57902 10.1397 2.71967 10.2803C2.86032 10.421 3.05109 10.5 3.25 10.5H9.5V9H3.25C3.05109 9 2.86032 9.07902 2.71967 9.21967C2.57902 9.36032 2.5 9.55109 2.5 9.75Z" fill="black"/>
</svg>
