<svg width="12" height="12" viewBox="0 0 12 12" fill="none" xmlns="http://www.w3.org/2000/svg">
<path fill-rule="evenodd" clip-rule="evenodd" d="M6 0.500977C5.73711 0.500977 5.47884 0.570069 5.25107 0.70132L1.75193 2.70083L1.75 2.70194C1.5222 2.83346 1.33299 3.02257 1.20135 3.25031C1.06971 3.47805 1.00027 3.73691 1 3.99995L1 8.00046C1.00027 8.26351 1.06971 8.52186 1.20135 8.74959C1.33299 8.97733 1.5222 9.16644 1.75 9.29796L1.75193 9.29907L5.25 11.298L5.25093 11.2985C5.47873 11.4298 5.73705 11.4989 6 11.4989C6.26296 11.4989 6.52129 11.4298 6.7491 11.2985L6.75 11.298L10.2481 9.29907L10.25 9.29796C10.4778 9.16644 10.667 8.97733 10.7987 8.74959C10.9303 8.52186 10.9997 8.263 11 7.99995V3.99944C10.9997 3.73639 10.9303 3.47805 10.7987 3.25031C10.667 3.02257 10.4778 2.83346 10.25 2.70193L6.75 0.701938L6.74896 0.701337C6.52118 0.570075 6.2629 0.500977 6 0.500977ZM5.75 1.56796C5.82601 1.52408 5.91223 1.50098 6 1.50098C6.08777 1.50098 6.17399 1.52408 6.25 1.56797L9.49051 3.41969L6 5.42342L2.50949 3.41969L5.74807 1.56908L5.75 1.56796ZM2 7.99965C2.00013 8.08726 2.02327 8.1733 2.06712 8.24915C2.11084 8.3248 2.17363 8.38766 2.24921 8.43148L5.5 10.2891V6.28945L2 4.28027V7.99965ZM9.93289 8.24915C9.88916 8.3248 9.82558 8.38812 9.75 8.43194L6.5 10.2891V6.28945L10 4.28027V7.99944C9.99991 8.08712 9.97676 8.17324 9.93289 8.24915Z" fill="black"/>
</svg>
