<svg width="12" height="12" viewBox="0 0 12 12" fill="none" xmlns="http://www.w3.org/2000/svg">
<path fill-rule="evenodd" clip-rule="evenodd" d="M1 2.5C1 1.67157 1.67157 1 2.5 1H9.5C10.3284 1 11 1.67157 11 2.5V9.5C11 10.3284 10.3284 11 9.5 11H2.5C1.67157 11 1 10.3284 1 9.5V2.5ZM2.5 2C2.22386 2 2 2.22386 2 2.5V9.5C2 9.77614 2.22386 10 2.5 10H9.5C9.77614 10 10 9.77614 10 9.5V2.5C10 2.22386 9.77614 2 9.5 2H2.5ZM3.36618 3.51824C3.63225 3.44433 3.90785 3.60011 3.98176 3.86618L4.66417 6.32286L5.52766 3.83599C5.59751 3.63485 5.78707 3.5 6 3.5C6.21293 3.5 6.40249 3.63485 6.47234 3.83599L7.33583 6.32286L8.01824 3.86618C8.09215 3.60011 8.36775 3.44433 8.63382 3.51824C8.89989 3.59215 9.05567 3.86775 8.98176 4.13382L7.87065 8.13382C7.8121 8.34459 7.62334 8.49283 7.4047 8.49975C7.18606 8.50667 6.98831 8.37065 6.91655 8.16401L6 5.52434L5.08345 8.16401C5.0117 8.37065 4.81394 8.50667 4.5953 8.49975C4.37666 8.49283 4.1879 8.34459 4.12935 8.13382L3.01824 4.13382C2.94433 3.86775 3.10011 3.59215 3.36618 3.51824Z" fill="black"/>
</svg>
