<svg width="12" height="12" viewBox="0 0 12 12" fill="none" xmlns="http://www.w3.org/2000/svg">
<path fill-rule="evenodd" clip-rule="evenodd" d="M11.5 6C11.5 2.96243 9.03757 0.5 6 0.5C2.96243 0.5 0.499998 2.96243 0.499998 6C0.499998 9.03757 2.96243 11.5 6 11.5C9.03757 11.5 11.5 9.03757 11.5 6ZM7.95977 4.48276C7.95977 4.23836 7.76164 4.04023 7.51724 4.04023H7.51218C7.26778 4.04023 7.06965 4.23836 7.06965 4.48276C7.06965 4.72716 7.26778 4.92529 7.51218 4.92529H7.51724C7.76164 4.92529 7.95977 4.72716 7.95977 4.48276ZM4.92529 4.48276C4.92529 4.23836 4.72716 4.04023 4.48276 4.04023H4.4777C4.2333 4.04023 4.03517 4.23836 4.03517 4.48276C4.03517 4.72716 4.2333 4.92529 4.4777 4.92529H4.48276C4.72716 4.92529 4.92529 4.72716 4.92529 4.48276ZM7.74591 7.15935C7.34934 6.87094 6.75411 6.56897 6 6.56897C5.24588 6.56897 4.65066 6.87094 4.25408 7.15935C4.05494 7.30418 3.90101 7.44897 3.7958 7.55876C3.74301 7.61384 3.70196 7.66066 3.67311 7.69504C3.65867 7.71224 3.64724 7.72639 3.63888 7.73695L3.62862 7.75007L3.62523 7.75451L3.62396 7.75618L3.62344 7.75687C3.62344 7.75687 3.62299 7.75747 3.97701 8.02299L3.62299 7.75747C3.47635 7.95299 3.51597 8.23037 3.71149 8.37701C3.90649 8.52326 4.1829 8.48424 4.32984 8.29008M4.32984 8.29008L4.3328 8.28631C4.33617 8.28206 4.34227 8.27447 4.35104 8.26402C4.36862 8.24308 4.39671 8.21088 4.4348 8.17113C4.51135 8.09126 4.62609 7.98318 4.77465 7.87513C5.07348 7.6578 5.48975 7.45402 6 7.45402C6.51025 7.45402 6.92652 7.6578 7.22535 7.87513C7.37391 7.98318 7.48865 8.09126 7.5652 8.17113C7.60329 8.21088 7.63138 8.24308 7.64896 8.26402C7.65773 8.27447 7.66383 8.28206 7.6672 8.28631L7.6701 8.29001L7.66966 8.28943L7.66935 8.28902L7.6701 8.29001C7.81704 8.48417 8.09351 8.52326 8.28851 8.37701C8.48403 8.23037 8.52365 7.95299 8.37701 7.75747L8.02299 8.02299C8.37701 7.75747 8.37701 7.75747 8.37701 7.75747L8.37656 7.75687L8.37604 7.75618L8.37477 7.75451L8.37137 7.75007L8.36112 7.73695C8.35276 7.72639 8.34133 7.71224 8.32689 7.69504C8.29803 7.66066 8.25699 7.61384 8.2042 7.55876C8.09899 7.44897 7.94505 7.30418 7.74591 7.15935M4.32984 8.29008L4.33029 8.28949L4.33078 8.28884M4.33078 8.28884L4.33029 8.28949Z" fill="black"/>
</svg>
