<svg width="12" height="12" viewBox="0 0 12 12" fill="none" xmlns="http://www.w3.org/2000/svg">
<path fill-rule="evenodd" clip-rule="evenodd" d="M11.4375 6C11.4375 2.99695 9.00305 0.5625 6 0.5625C2.99695 0.5625 0.562499 2.99695 0.562499 6C0.562499 9.00305 2.99695 11.4375 6 11.4375C9.00305 11.4375 11.4375 9.00305 11.4375 6ZM7.9375 4.5C7.9375 4.25838 7.74162 4.0625 7.5 4.0625H7.495C7.25337 4.0625 7.0575 4.25838 7.0575 4.5C7.0575 4.74163 7.25337 4.9375 7.495 4.9375H7.5C7.74162 4.9375 7.9375 4.74163 7.9375 4.5ZM4.9375 4.5C4.9375 4.25838 4.74162 4.0625 4.5 4.0625H4.495C4.25337 4.0625 4.0575 4.25838 4.0575 4.5C4.0575 4.74163 4.25337 4.9375 4.495 4.9375H4.5C4.74162 4.9375 4.9375 4.74163 4.9375 4.5ZM7.72607 7.14618C7.33401 6.86104 6.74554 6.5625 6 6.5625C5.25445 6.5625 4.66599 6.86104 4.27392 7.14618C4.07705 7.28936 3.92486 7.43251 3.82085 7.54104C3.76866 7.5955 3.72808 7.64179 3.69955 7.67578C3.68528 7.69279 3.67398 7.70677 3.66571 7.71721L3.65557 7.73018L3.65221 7.73457L3.65096 7.73622L3.65045 7.73691C3.65045 7.73691 3.65 7.7375 4 8L3.65 7.7375C3.50502 7.9308 3.5442 8.20503 3.7375 8.35C3.93028 8.49458 4.20355 8.45601 4.34882 8.26406M4.34882 8.26406L4.35175 8.26033C4.35508 8.25612 4.36111 8.24862 4.36978 8.23829C4.38715 8.21759 4.41493 8.18575 4.45259 8.14646C4.52826 8.0675 4.6417 7.96064 4.78857 7.85382C5.08401 7.63896 5.49554 7.4375 6 7.4375C6.50445 7.4375 6.91599 7.63896 7.21142 7.85382C7.3583 7.96064 7.47174 8.0675 7.54741 8.14646C7.58507 8.18575 7.61284 8.21759 7.63022 8.23829C7.63889 8.24862 7.64492 8.25612 7.64825 8.26033L7.65112 8.26398L7.65069 8.26342L7.65038 8.263L7.65112 8.26398C7.79639 8.45594 8.06972 8.49459 8.2625 8.35C8.4558 8.20503 8.49497 7.9308 8.35 7.7375L8 8C8.35 7.7375 8.35 7.7375 8.35 7.7375L8.34955 7.73691L8.34904 7.73622L8.34779 7.73457L8.34443 7.73018L8.33429 7.71721C8.32602 7.70677 8.31472 7.69279 8.30045 7.67578C8.27192 7.64179 8.23134 7.5955 8.17915 7.54104C8.07514 7.43251 7.92295 7.28936 7.72607 7.14618M4.34882 8.26406L4.34927 8.26347L4.34975 8.26283M4.34975 8.26283L4.34927 8.26347Z" fill="black"/>
</svg>
