<svg width="12" height="12" viewBox="0 0 12 12" fill="none" xmlns="http://www.w3.org/2000/svg">
<g clip-path="url(#clip0_10011_2967)">
<path fill-rule="evenodd" clip-rule="evenodd" d="M3.5 1C3.5 0.723858 3.72386 0.5 4 0.5C4.84672 0.5 5.54835 0.780742 6.15784 1.02462C6.16715 1.02834 6.17643 1.03206 6.1857 1.03576C6.81974 1.28938 7.35965 1.5 8 1.5C8.69364 1.5 9.12974 1.38459 9.3768 1.28576C9.50078 1.23617 9.57945 1.18986 9.62109 1.1621C9.64183 1.14827 9.65369 1.13884 9.65764 1.1356C9.8005 1.00132 10.0093 0.962663 10.1913 1.03806C10.3782 1.11545 10.5 1.29777 10.5 1.5V7C10.5 7.27614 10.2761 7.5 10 7.5C9.72386 7.5 9.5 7.27614 9.5 7V2.3016C9.1362 2.41365 8.64588 2.5 8 2.5C7.15328 2.5 6.45165 2.21926 5.84216 1.97538C5.83285 1.97166 5.82357 1.96794 5.8143 1.96424C5.18026 1.71062 4.64035 1.5 4 1.5C3.72386 1.5 3.5 1.27614 3.5 1Z" fill="black"/>
<path fill-rule="evenodd" clip-rule="evenodd" d="M1.35355 0.646447C1.15829 0.451184 0.841709 0.451184 0.646447 0.646447C0.451184 0.841709 0.451184 1.15829 0.646447 1.35355L1.5 2.20711V11C1.5 11.2761 1.72386 11.5 2 11.5C2.27614 11.5 2.5 11.2761 2.5 11V7.76903C2.5347 7.75182 2.57561 7.73327 2.6232 7.71424C2.87026 7.61541 3.30636 7.5 4 7.5C4.64035 7.5 5.18026 7.71062 5.8143 7.96424L5.84216 7.97538C6.39979 8.19851 7.03455 8.45249 7.78699 8.4941L10.6464 11.3536C10.8417 11.5488 11.1583 11.5488 11.3536 11.3536C11.5488 11.1583 11.5488 10.8417 11.3536 10.6464L1.35355 0.646447ZM4 6.5C4.84672 6.5 5.54835 6.78074 6.15784 7.02462L6.1857 7.03576C6.26608 7.06791 6.34495 7.09938 6.4227 7.12981L2.5 3.20711V6.6984C2.8638 6.58635 3.35412 6.5 4 6.5Z" fill="black"/>
</g>
<defs>
<clipPath id="clip0_10011_2967">
<rect width="12" height="12" fill="white"/>
</clipPath>
</defs>
</svg>
