<svg width="12" height="12" viewBox="0 0 12 12" fill="none" xmlns="http://www.w3.org/2000/svg">
<path fill-rule="evenodd" clip-rule="evenodd" d="M4.06823 1.39643C4.12541 0.881831 4.58893 0.511017 5.10353 0.568195C5.61813 0.625372 5.98894 1.08889 5.93177 1.60349L5.7141 3.56246H6.82756L7.06823 1.39643C7.12541 0.881831 7.58893 0.511017 8.10353 0.568195C8.61813 0.625372 8.98894 1.08889 8.93177 1.60349L8.7141 3.56246H10C10.5178 3.56246 10.9375 3.98219 10.9375 4.49996C10.9375 5.01773 10.5178 5.43746 10 5.43746H8.50577L8.38077 6.56246H10C10.5178 6.56246 10.9375 6.98219 10.9375 7.49996C10.9375 8.01773 10.5178 8.43746 10 8.43746H8.17244L7.93177 10.6035C7.87459 11.1181 7.41107 11.4889 6.89647 11.4317C6.38187 11.3745 6.01106 10.911 6.06823 10.3964L6.2859 8.43746H5.17244L4.93177 10.6035C4.87459 11.1181 4.41107 11.4889 3.89647 11.4317C3.38187 11.3745 3.01106 10.911 3.06823 10.3964L3.2859 8.43746H2C1.48223 8.43746 1.0625 8.01773 1.0625 7.49996C1.0625 6.98219 1.48223 6.56246 2 6.56246H3.49423L3.61923 5.43746H2C1.48223 5.43746 1.0625 5.01773 1.0625 4.49996C1.0625 3.98219 1.48223 3.56246 2 3.56246H3.82756L4.06823 1.39643ZM4.71532 4.29968C4.66003 4.4022 4.57024 4.48257 4.46224 4.5262C4.49431 4.54838 4.52395 4.57442 4.55043 4.604C4.5769 4.63358 4.59951 4.66592 4.61801 4.70024C4.6733 4.59772 4.76309 4.51735 4.8711 4.47372C4.83902 4.45155 4.80938 4.4255 4.78291 4.39592C4.75643 4.36634 4.73382 4.334 4.71532 4.29968ZM7.46224 4.5262C7.49431 4.54838 7.52395 4.57442 7.55043 4.604C7.5769 4.63358 7.59951 4.66592 7.61801 4.70024C7.6733 4.59772 7.76309 4.51735 7.8711 4.47372C7.83902 4.45154 7.80938 4.4255 7.78291 4.39592C7.75643 4.36634 7.73382 4.334 7.71532 4.29968C7.66003 4.4022 7.57024 4.48257 7.46224 4.5262ZM7.38199 7.29968C7.3267 7.4022 7.23691 7.48257 7.1289 7.5262C7.16098 7.54838 7.19062 7.57442 7.21709 7.604C7.24357 7.63358 7.26618 7.66592 7.28468 7.70024C7.33997 7.59772 7.42976 7.51735 7.53776 7.47372C7.50569 7.45154 7.47605 7.4255 7.44957 7.39592C7.4231 7.36634 7.40049 7.334 7.38199 7.29968ZM4.53776 7.47372C4.50569 7.45154 4.47605 7.4255 4.44957 7.39592C4.4231 7.36634 4.40049 7.334 4.38199 7.29968C4.3267 7.4022 4.23691 7.48257 4.1289 7.5262C4.16098 7.54838 4.19062 7.57442 4.21709 7.604C4.24357 7.63358 4.26618 7.66592 4.28468 7.70024C4.33997 7.59772 4.42976 7.51735 4.53776 7.47372ZM5.50577 5.43746L5.38077 6.56246H6.49423L6.61923 5.43746H5.50577Z" fill="black"/>
</svg>
