<svg width="12" height="12" viewBox="0 0 12 12" fill="none" xmlns="http://www.w3.org/2000/svg">
<g clip-path="url(#clip0_10011_2910)">
<path fill-rule="evenodd" clip-rule="evenodd" d="M4 1C4 0.723858 4.22386 0.5 4.5 0.5H7.5C7.77614 0.5 8 0.723858 8 1V4C8 4.27614 7.77614 4.5 7.5 4.5H6.5V5.5H9.5C9.77614 5.5 10 5.72386 10 6V7.5H11C11.2761 7.5 11.5 7.72386 11.5 8V11C11.5 11.2761 11.2761 11.5 11 11.5H8C7.72386 11.5 7.5 11.2761 7.5 11V8C7.5 7.72386 7.72386 7.5 8 7.5H9V6.5H3V7.5H4C4.27614 7.5 4.5 7.72386 4.5 8V11C4.5 11.2761 4.27614 11.5 4 11.5H1C0.723858 11.5 0.5 11.2761 0.5 11V8C0.5 7.72386 0.723858 7.5 1 7.5H2V6C2 5.72386 2.22386 5.5 2.5 5.5H5.5V4.5H4.5C4.22386 4.5 4 4.27614 4 4V1ZM5 3.5V1.5H7V3.5H5ZM8.5 10.5V8.5H10.5V10.5H8.5ZM1.5 10.5V8.5H3.5V10.5H1.5Z" fill="black"/>
</g>
<defs>
<clipPath id="clip0_10011_2910">
<rect width="12" height="12" fill="white"/>
</clipPath>
</defs>
</svg>
