<svg width="12" height="12" viewBox="0 0 12 12" fill="none" xmlns="http://www.w3.org/2000/svg">
<g clip-path="url(#clip0_10011_2999)">
<path fill-rule="evenodd" clip-rule="evenodd" d="M1.50001 1.50001C1.50001 1.22387 1.72387 1.00001 2.00001 1.00001H2.00501C2.28116 1.00001 2.50501 1.22387 2.50501 1.50001C2.50501 1.77616 2.28116 2.00001 2.00501 2.00001H2.00001C1.72387 2.00001 1.50001 1.77616 1.50001 1.50001Z" fill="black"/>
<path fill-rule="evenodd" clip-rule="evenodd" d="M10.5 4.00001C10.5 3.72387 10.7239 3.50001 11 3.50001H11.005C11.2812 3.50001 11.505 3.72387 11.505 4.00001C11.505 4.27616 11.2812 4.50001 11.005 4.50001H11C10.7239 4.50001 10.5 4.27616 10.5 4.00001Z" fill="black"/>
<path fill-rule="evenodd" clip-rule="evenodd" d="M7.00001 1.00001C7.00001 0.723871 7.22387 0.500014 7.50001 0.500014H7.50501C7.78116 0.500014 8.00501 0.723871 8.00501 1.00001C8.00501 1.27616 7.78116 1.50001 7.50501 1.50001H7.50001C7.22387 1.50001 7.00001 1.27616 7.00001 1.00001Z" fill="black"/>
<path fill-rule="evenodd" clip-rule="evenodd" d="M10.5 10C10.5 9.72387 10.7239 9.50001 11 9.50001H11.005C11.2812 9.50001 11.505 9.72387 11.505 10C11.505 10.2762 11.2812 10.5 11.005 10.5H11C10.7239 10.5 10.5 10.2762 10.5 10Z" fill="black"/>
<path fill-rule="evenodd" clip-rule="evenodd" d="M11.4741 0.841265C11.5618 1.10312 11.4206 1.38647 11.1588 1.47414L10.0388 1.84914C9.82989 1.91872 9.65093 2.05893 9.53381 2.24535C9.4167 2.43177 9.36797 2.65309 9.39596 2.87146L8.90001 2.93501L9.39667 2.87726C9.48074 3.60031 8.91803 4.25001 8.17501 4.25001H7.98501C7.78911 4.25001 7.63016 4.38521 7.59618 4.56357L7.59549 4.56718L7.49048 5.09718C7.43682 5.36806 7.17372 5.54415 6.90285 5.49048C6.63197 5.43682 6.45588 5.17372 6.50955 4.90285L6.61423 4.37446C6.74104 3.71388 7.32158 3.25001 7.98501 3.25001H8.17501C8.31136 3.25001 8.41829 3.13084 8.40357 2.99468C8.34721 2.5477 8.44735 2.09495 8.68704 1.7134C8.92734 1.33087 9.29301 1.04365 9.72156 0.900786L10.8413 0.525884C11.1031 0.43821 11.3865 0.57941 11.4741 0.841265Z" fill="black"/>
<path fill-rule="evenodd" clip-rule="evenodd" d="M9.10757 6.80343C9.24215 6.038 10.0482 5.58315 10.7738 5.87003L10.7767 5.87116L11.1867 6.03617C11.4429 6.13926 11.567 6.43051 11.4639 6.68668C11.3608 6.94286 11.0695 7.06696 10.8133 6.96386L10.4052 6.79959C10.2719 6.74764 10.1197 6.83133 10.093 6.97388C9.99695 7.56499 9.48297 8.00001 8.88501 8.00001H8.50001C8.22387 8.00001 8.00001 7.77616 8.00001 7.50001C8.00001 7.22387 8.22387 7.00001 8.50001 7.00001H8.88501C8.99495 7.00001 9.08946 6.91811 9.10608 6.81239L9.10757 6.80343Z" fill="black"/>
<path fill-rule="evenodd" clip-rule="evenodd" d="M5.31334 0.536166C5.56952 0.433071 5.86077 0.557168 5.96386 0.813343L6.13 1.22618C6.41689 1.95183 5.96203 2.75788 5.1966 2.89246L5.18073 2.89499C5.08631 2.90848 5.00001 2.99937 5.00001 3.11501V3.50001C5.00001 3.77616 4.77616 4.00001 4.50001 4.00001C4.22387 4.00001 4.00001 3.77616 4.00001 3.50001V3.11501C4.00001 2.52429 4.42843 1.99803 5.02821 1.90668C5.1695 1.87881 5.25214 1.72749 5.20044 1.59487L5.03617 1.18668C4.93307 0.930508 5.05717 0.639262 5.31334 0.536166Z" fill="black"/>
<path fill-rule="evenodd" clip-rule="evenodd" d="M6.51695 9.57632L1.16695 11.4713C0.985192 11.5357 0.782607 11.4898 0.646314 11.3534C0.510021 11.217 0.464313 11.0144 0.528845 10.8327L2.42884 5.48268C2.46236 5.40391 2.55279 5.22639 2.64646 5.14646C2.86982 4.9231 3.16008 4.84713 3.42695 4.84549C3.69074 4.84387 3.96605 4.91277 4.22968 5.01836C4.75874 5.23028 5.33499 5.62788 5.85357 6.14646C6.37214 6.66504 6.76975 7.24129 6.98166 7.77035C7.08726 8.03398 7.15615 8.30929 7.15454 8.57308C7.1529 8.83995 7.07693 9.13021 6.85357 9.35357L6.51695 9.57632ZM3.43308 5.84547C3.3901 5.84574 3.35513 5.85513 3.35513 5.85513C3.35121 5.86642 3.34574 5.89009 3.34547 5.93308C3.3449 6.02616 3.37101 6.16898 3.44666 6.35785C3.59725 6.73379 3.90714 7.20004 4.35357 7.64646C4.79999 8.09288 5.26624 8.40278 5.64218 8.55336C5.83105 8.62902 5.97387 8.65513 6.06695 8.65455C6.10993 8.65429 6.13361 8.64882 6.1449 8.64489C6.14882 8.63361 6.15429 8.60993 6.15455 8.56695C6.15513 8.47387 6.12902 8.33105 6.05336 8.14218C5.90278 7.76624 5.59288 7.29999 5.14646 6.85357C4.70004 6.40714 4.23379 6.09725 3.85785 5.94666C3.66898 5.87101 3.52616 5.8449 3.43308 5.84547ZM2.83106 7.33823C3.04494 7.68213 3.32203 8.02913 3.64646 8.35357C3.97205 8.67915 4.32037 8.95705 4.66547 9.17125L1.82245 10.1783L2.83106 7.33823Z" fill="black"/>
</g>
<defs>
<clipPath id="clip0_10011_2999">
<rect width="12" height="12" fill="white"/>
</clipPath>
</defs>
</svg>
