<svg width="12" height="12" viewBox="0 0 12 12" fill="none" xmlns="http://www.w3.org/2000/svg">
<path fill-rule="evenodd" clip-rule="evenodd" d="M2.0837 7.85045C2.36408 7.61395 2.72192 7.48936 3.08855 7.50071C3.45519 7.51206 3.80464 7.65854 4.06986 7.91192L4.07598 7.91777C4.63287 8.46812 4.62473 9.34957 4.14779 9.91502C3.94127 10.1609 3.6585 10.3397 3.39008 10.4709C3.11575 10.605 2.82046 10.7066 2.55617 10.7823C2.29028 10.8584 2.0452 10.9113 1.86701 10.9452C1.77756 10.9622 1.70411 10.9745 1.65226 10.9828C1.62631 10.9869 1.60572 10.99 1.59117 10.9921L1.57395 10.9945L1.5689 10.9952L1.56729 10.9954C1.56719 10.9955 1.5663 10.9956 1.49998 10.5C1.00438 10.4338 1.00439 10.4337 1.00441 10.4336L1.00473 10.4312L1.00543 10.4261L1.00789 10.4089C1.01 10.3944 1.01308 10.3738 1.0172 10.3478C1.02541 10.2959 1.03777 10.2224 1.05475 10.1329C1.08858 9.95456 1.1414 9.70929 1.21744 9.4432C1.29302 9.17871 1.39449 8.8832 1.52846 8.60868C1.65963 8.3399 1.83779 8.0572 2.0837 7.85045ZM1.49998 10.5L1.00441 10.4336C0.983781 10.588 1.03629 10.7434 1.14647 10.8536C1.25665 10.9637 1.41287 11.0161 1.56729 10.9954L1.49998 10.5ZM2.14037 9.85935C2.18633 9.84735 2.2333 9.83455 2.28092 9.82092C2.51159 9.75488 2.74694 9.67224 2.95086 9.57254C3.1605 9.47005 3.30338 9.36561 3.38224 9.27163L3.38323 9.27046C3.54808 9.07525 3.53194 8.78947 3.37591 8.63199C3.28933 8.55074 3.17616 8.5039 3.05761 8.50023C2.93761 8.49652 2.82039 8.53729 2.72847 8.61483C2.63459 8.69376 2.5296 8.83733 2.42716 9.04725C2.32752 9.25142 2.24494 9.48705 2.17895 9.71797C2.16526 9.76588 2.15241 9.81313 2.14037 9.85935Z" fill="black"/>
<path fill-rule="evenodd" clip-rule="evenodd" d="M9.97753 2.0217C9.22921 2.08871 8.50088 2.31007 7.83928 2.67394C7.02539 3.12158 6.33955 3.76999 5.84701 4.5575L5.8442 4.56199L5.84418 4.56198C5.55215 5.01808 5.29912 5.49779 5.0877 5.99598L6.00528 6.91355C6.50951 6.70264 6.99541 6.44992 7.45787 6.15793C9.37033 4.87309 9.87496 3.19951 9.97753 2.0217ZM7.35737 1.79773C8.32075 1.26788 9.40366 0.993305 10.5031 1.00012C10.778 1.00183 11 1.22518 11 1.50011C11 2.85357 10.6056 5.25142 8.00923 6.99223L7.9981 6.99969L7.99801 6.99954C7.38678 7.38604 6.73832 7.71027 6.06237 7.96734C5.87832 8.03734 5.67032 7.99279 5.53108 7.85356L4.14646 6.46897C4.00665 6.32915 3.96236 6.12008 4.03347 5.93558C4.29086 5.26784 4.61487 4.62774 5.00059 4.02497C5.5835 3.09383 6.39477 2.32714 7.35737 1.79773Z" fill="black"/>
<path fill-rule="evenodd" clip-rule="evenodd" d="M4.44857 4.5115C3.96219 4.46197 3.51062 4.49244 3.25608 4.64374C3.04304 4.77118 2.84414 5.08167 2.69136 5.45773C2.68561 5.4719 2.67998 5.486 2.67448 5.50001H4.5C4.77615 5.50001 5 5.72387 5 6.00001C5 6.27615 4.77615 6.50001 4.5 6.50001H2C1.84993 6.50001 1.70779 6.4326 1.61283 6.31639C1.51787 6.20018 1.48013 6.04746 1.51003 5.9004L2 6.00001C1.51003 5.9004 1.51 5.90052 1.51003 5.9004L1.51026 5.89928L1.51059 5.89766L1.51157 5.89296L1.51483 5.87783C1.51758 5.86527 1.52149 5.84784 1.52662 5.82611C1.53688 5.78269 1.55206 5.72181 1.57255 5.64805C1.61331 5.50131 1.67619 5.2997 1.7649 5.08135C1.93079 4.673 2.23177 4.09075 2.74361 3.78504C3.29913 3.45437 4.0435 3.46508 4.54987 3.51664C4.82039 3.54419 5.06154 3.58791 5.23472 3.62454C5.3217 3.64294 5.39251 3.65976 5.44246 3.67222C5.46745 3.67845 5.48728 3.68361 5.50138 3.68736L5.51816 3.69187L5.5232 3.69326L5.52485 3.69372C5.52496 3.69375 5.52593 3.69402 5.39093 4.17545L5.52593 3.69402C5.79182 3.76858 5.94692 4.04456 5.87237 4.31045C5.79785 4.57618 5.52215 4.73126 5.25641 4.65701M5.25641 4.65701L5.25459 4.65652L5.24459 4.65382C5.23512 4.65131 5.2202 4.64742 5.20039 4.64247C5.16071 4.63258 5.10168 4.61853 5.02779 4.6029C4.87924 4.57148 4.67453 4.53451 4.44857 4.5115" fill="black"/>
<path fill-rule="evenodd" clip-rule="evenodd" d="M7.72154 6.08822C7.9888 6.01875 8.26178 6.17909 8.33125 6.44636L7.84747 6.57211C8.33125 6.44636 8.33122 6.44625 8.33125 6.44636L8.33152 6.44741L8.33195 6.44907L8.33324 6.45413L8.33747 6.47112C8.34098 6.48541 8.34583 6.50556 8.35169 6.53098C8.36339 6.58177 8.37917 6.65383 8.39634 6.74233C8.43055 6.91857 8.47103 7.16374 8.49537 7.43813C8.54092 7.95156 8.54461 8.70257 8.21536 9.25572C7.90965 9.76756 7.32701 10.0692 6.91866 10.2351C6.70031 10.3238 6.4987 10.3867 6.35196 10.4274C6.2782 10.4479 6.21732 10.4631 6.1739 10.4734C6.15217 10.4785 6.13474 10.4824 6.12218 10.4852L6.10705 10.4884L6.10235 10.4894L6.10073 10.4897C6.10061 10.4897 6.09961 10.49 6 9.99998L6.09961 10.49C5.95255 10.5199 5.79983 10.4821 5.68362 10.3871C5.56741 10.2922 5.5 10.1501 5.5 9.99998V7.49998C5.5 7.22383 5.72386 6.99998 6 6.99998C6.27614 6.99998 6.5 7.22383 6.5 7.49998V9.3255C6.51401 9.32 6.52811 9.31438 6.54228 9.30862C6.91835 9.15584 7.22883 8.95694 7.35627 8.7439C7.50899 8.48697 7.54344 8.02426 7.49928 7.52649C7.47876 7.29517 7.44424 7.08526 7.41466 6.93284C7.39994 6.85701 7.38663 6.79635 7.37722 6.7555C7.37252 6.7351 7.36881 6.71971 7.3664 6.7099L7.3638 6.69948L7.36341 6.69793C7.29405 6.43072 7.45434 6.15768 7.72154 6.08822Z" fill="black"/>
</svg>
