<svg width="12" height="12" viewBox="0 0 12 12" fill="none" xmlns="http://www.w3.org/2000/svg">
<path fill-rule="evenodd" clip-rule="evenodd" d="M3.08855 7.50071C2.72204 7.48937 2.36432 7.61386 2.08399 7.8502C1.83825 8.05693 1.65957 8.34002 1.52846 8.60868C1.39449 8.8832 1.29302 9.17871 1.21744 9.4432C1.1414 9.70929 1.08858 9.95456 1.05475 10.1329C1.03777 10.2224 1.02541 10.2959 1.0172 10.3478C1.01308 10.3738 1.01 10.3944 1.00789 10.4089L1.00543 10.4261L1.00473 10.4312L1.00441 10.4336C0.983781 10.588 1.03629 10.7434 1.14647 10.8536C1.25665 10.9637 1.41287 11.0161 1.56729 10.9955L1.5689 10.9952L1.57395 10.9945L1.59117 10.9921C1.60572 10.99 1.62631 10.9869 1.65226 10.9828C1.70411 10.9745 1.77756 10.9622 1.86701 10.9452C2.0452 10.9113 2.29028 10.8584 2.55617 10.7823C2.82046 10.7066 3.11575 10.605 3.39008 10.4709C3.65853 10.3397 3.94134 10.1608 4.14786 9.91493C4.62473 9.34948 4.63284 8.46809 4.07598 7.91777L4.06986 7.91192C3.80464 7.65854 3.45519 7.51206 3.08855 7.50071ZM2.28092 9.82092C2.2333 9.83455 2.18633 9.84735 2.14037 9.85935C2.15241 9.81313 2.16526 9.76588 2.17895 9.71797C2.24494 9.48705 2.32752 9.25142 2.42716 9.04725C2.5296 8.83733 2.63459 8.69376 2.72847 8.61483C2.82039 8.53729 2.93761 8.49652 3.05761 8.50023C3.17617 8.5039 3.28934 8.55074 3.37592 8.63199C3.53194 8.78948 3.54807 9.07526 3.38323 9.27046L3.38224 9.27164C3.30338 9.36561 3.1605 9.47005 2.95086 9.57254C2.74694 9.67224 2.51159 9.75488 2.28092 9.82092Z" fill="black"/>
<path fill-rule="evenodd" clip-rule="evenodd" d="M8.3918 6.71924C10.645 5.00804 11 2.7841 11 1.50011C11 1.22518 10.778 1.00183 10.5031 1.00012C9.40363 0.993305 8.32071 1.26788 7.35733 1.79773C6.53392 2.25059 5.82124 2.87708 5.2675 3.6316L5.2347 3.62458C5.06151 3.58795 4.82037 3.54422 4.54985 3.51668C4.04348 3.46511 3.29976 3.45402 2.74424 3.78468C2.2324 4.0904 1.93077 4.67304 1.76487 5.08138C1.67617 5.29973 1.61329 5.50134 1.57252 5.64809C1.55203 5.72185 1.53686 5.78273 1.5266 5.82615C1.52147 5.84788 1.51755 5.86531 1.5148 5.87786L1.51 5.90043C1.48011 6.0475 1.51785 6.20022 1.61281 6.31643C1.70777 6.43264 1.84991 6.50005 1.99998 6.50005H4.17751L5.49998 7.82249V9.99998C5.49998 10.1501 5.56739 10.2922 5.6836 10.3872C5.79981 10.4821 5.95253 10.5199 6.09959 10.49L6.10071 10.4897L6.10233 10.4894L6.10704 10.4884L6.12216 10.4852C6.13472 10.4824 6.15215 10.4785 6.17388 10.4734C6.2173 10.4631 6.27818 10.4479 6.35194 10.4274C6.49868 10.3867 6.70029 10.3238 6.91864 10.2351C7.32699 10.0692 7.90924 9.76821 8.21495 9.25637C8.54421 8.70323 8.5409 7.95156 8.49535 7.43813C8.47101 7.16374 8.43053 6.91857 8.39632 6.74233L8.3918 6.71924ZM9.9775 2.0217C9.22918 2.08871 8.50084 2.31007 7.83924 2.67394C7.02535 3.12158 6.33952 3.76999 5.84697 4.5575L5.84417 4.56199C5.55214 5.0181 5.29909 5.49779 5.08766 5.99598L6.00525 6.91355C6.50947 6.70264 6.99538 6.44992 7.45784 6.15794C9.37029 4.87309 9.87492 3.19951 9.9775 2.0217ZM7.49926 7.5265C7.49261 7.45157 7.4845 7.3789 7.47556 7.30969C7.15865 7.48599 6.83304 7.64626 6.49998 7.78987V9.3255L6.54226 9.30862C6.9183 9.15585 7.22877 8.95697 7.35622 8.74394C7.50897 8.48703 7.54342 8.02429 7.49926 7.5265ZM2.67446 5.50005H4.21247C4.3555 5.17287 4.51487 4.85311 4.68998 4.54199C4.61364 4.53057 4.53256 4.52009 4.44854 4.51153C3.96213 4.462 3.51054 4.49248 3.25601 4.64381C3.04298 4.77126 2.84411 5.08173 2.69134 5.45777L2.67446 5.50005Z" fill="black"/>
</svg>
