<svg width="12" height="12" viewBox="0 0 12 12" fill="none" xmlns="http://www.w3.org/2000/svg">
<path fill-rule="evenodd" clip-rule="evenodd" d="M11.4375 6C11.4375 2.99695 9.00305 0.5625 6 0.5625C2.99695 0.5625 0.562499 2.99695 0.562499 6C0.562499 9.00305 2.99695 11.4375 6 11.4375C9.00305 11.4375 11.4375 9.00305 11.4375 6ZM7.9375 4.5C7.9375 4.25838 7.74162 4.0625 7.5 4.0625H7.495C7.25337 4.0625 7.0575 4.25838 7.0575 4.5C7.0575 4.74163 7.25337 4.9375 7.495 4.9375H7.5C7.74162 4.9375 7.9375 4.74163 7.9375 4.5ZM4.9375 4.5C4.9375 4.25838 4.74162 4.0625 4.5 4.0625H4.495C4.25337 4.0625 4.0575 4.25838 4.0575 4.5C4.0575 4.74163 4.25337 4.9375 4.495 4.9375H4.5C4.74162 4.9375 4.9375 4.74163 4.9375 4.5ZM7.65038 6.737L7.65069 6.73658L7.65112 6.73602L7.64825 6.73967C7.64492 6.74388 7.63889 6.75138 7.63022 6.76171C7.61284 6.78241 7.58507 6.81425 7.54741 6.85354C7.47174 6.93251 7.3583 7.03936 7.21142 7.14618C6.91599 7.36104 6.50445 7.5625 6 7.5625C5.49554 7.5625 5.08401 7.36104 4.78857 7.14618C4.6417 7.03936 4.52826 6.93251 4.45259 6.85354C4.41493 6.81425 4.38715 6.78241 4.36978 6.76171C4.36111 6.75138 4.35508 6.74388 4.35175 6.73967L4.34888 6.73602L4.34931 6.73658L4.34962 6.737M7.65112 6.73602C7.79639 6.54406 8.06972 6.50541 8.2625 6.65C8.4558 6.79498 8.49497 7.0692 8.35 7.2625L8 7C8.35 7.2625 8.35 7.2625 8.35 7.2625L8.34955 7.26309L8.34904 7.26378L8.34779 7.26543L8.34443 7.26982L8.33429 7.28279C8.32602 7.29323 8.31472 7.30721 8.30045 7.32423C8.27192 7.35821 8.23134 7.4045 8.17915 7.45896C8.07514 7.5675 7.92295 7.71064 7.72607 7.85382C7.33401 8.13896 6.74554 8.4375 6 8.4375C5.25445 8.4375 4.66599 8.13896 4.27392 7.85382C4.07705 7.71064 3.92486 7.5675 3.82085 7.45896C3.76866 7.4045 3.72808 7.35821 3.69955 7.32423C3.68528 7.30721 3.67398 7.29323 3.66571 7.28279L3.65557 7.26982L3.65221 7.26543L3.65096 7.26378L3.65045 7.26309C3.65045 7.26309 3.65 7.2625 4 7L3.65 7.2625C3.50502 7.0692 3.5442 6.79498 3.7375 6.65C3.93028 6.50542 4.2036 6.54407 4.34888 6.73602M7.65038 6.737L7.65112 6.73602Z" fill="black"/>
</svg>
