<svg width="12" height="12" viewBox="0 0 12 12" fill="none" xmlns="http://www.w3.org/2000/svg">
<path fill-rule="evenodd" clip-rule="evenodd" d="M11.0024 6C11.0024 3.2373 8.76283 0.997681 6.00012 0.997681C3.23742 0.997681 0.997802 3.2373 0.997802 6C0.997802 8.76271 3.23742 11.0023 6.00012 11.0023C8.76283 11.0023 11.0024 8.76271 11.0024 6ZM7.78256 4.62005C7.78256 4.39776 7.60236 4.21756 7.38007 4.21756H7.37547C7.15319 4.21756 6.97299 4.39776 6.97299 4.62005C6.97299 4.84234 7.15319 5.02254 7.37547 5.02254H7.38007C7.60236 5.02254 7.78256 4.84234 7.78256 4.62005ZM5.02266 4.62005C5.02266 4.39776 4.84246 4.21756 4.62017 4.21756H4.61557C4.39328 4.21756 4.21309 4.39776 4.21309 4.62005C4.21309 4.84234 4.39328 5.02254 4.61557 5.02254H4.62017C4.84246 5.02254 5.02266 4.84234 5.02266 4.62005ZM7.51841 6.67801L7.5187 6.67763L7.51909 6.67711L7.51646 6.68048C7.5134 6.68434 7.50785 6.69125 7.49987 6.70075C7.48389 6.71979 7.45833 6.74908 7.42369 6.78523C7.35407 6.85787 7.24971 6.95618 7.11459 7.05445C6.8428 7.25211 6.4642 7.43745 6.00012 7.43745C5.53604 7.43745 5.15744 7.25211 4.88565 7.05445C4.75053 6.95618 4.64617 6.85787 4.57655 6.78523C4.54191 6.74908 4.51636 6.71979 4.50037 6.70075C4.4924 6.69125 4.48685 6.68434 4.48378 6.68048L4.48115 6.67711L4.48154 6.67763L4.48183 6.67801M7.51909 6.67711C7.65274 6.50052 7.90419 6.46496 8.08155 6.59798C8.25938 6.73135 8.29542 6.98363 8.16204 7.16146L7.84006 6.91997C8.16204 7.16146 8.16204 7.16146 8.16204 7.16146L8.16163 7.162L8.16116 7.16264L8.16001 7.16416L8.15692 7.16819L8.14759 7.18012C8.13999 7.18973 8.12959 7.20259 8.11646 7.21824C8.09021 7.24951 8.05288 7.2921 8.00487 7.34219C7.90918 7.44204 7.76917 7.57373 7.58805 7.70546C7.22736 7.96777 6.686 8.24242 6.00012 8.24242C5.31424 8.24242 4.77288 7.96777 4.41219 7.70546C4.23107 7.57373 4.09106 7.44204 3.99537 7.34219C3.94736 7.2921 3.91003 7.24951 3.88379 7.21824C3.87065 7.20259 3.86026 7.18973 3.85265 7.18012L3.84333 7.16819L3.84024 7.16416L3.83909 7.16264L3.83861 7.162C3.83861 7.162 3.8382 7.16146 4.16019 6.91997L3.8382 7.16146C3.70483 6.98363 3.74087 6.73135 3.9187 6.59798C4.09605 6.46497 4.3475 6.50053 4.48115 6.67711M7.51841 6.67801L7.51909 6.67711Z" fill="black"/>
</svg>
