<svg width="12" height="12" viewBox="0 0 12 12" fill="none" xmlns="http://www.w3.org/2000/svg">
<path fill-rule="evenodd" clip-rule="evenodd" d="M0.93934 1.43934C1.22064 1.15804 1.60218 1 2 1H8.5C8.89782 1 9.27936 1.15804 9.56066 1.43934C9.84196 1.72064 10 2.10217 10 2.5V8H11C11.2761 8 11.5 8.22386 11.5 8.5V9.5C11.5 9.89783 11.342 10.2794 11.0607 10.5607C10.7794 10.842 10.3978 11 10 11H4C3.60217 11 3.22064 10.842 2.93934 10.5607C2.65804 10.2794 2.5 9.89783 2.5 9.5V4.5H1C0.723858 4.5 0.5 4.27614 0.5 4V2.5C0.5 2.10218 0.658035 1.72064 0.93934 1.43934ZM3.5 9.5V2.5C3.5 2.32803 3.47047 2.1591 3.41421 2H8.5C8.63261 2 8.75979 2.05268 8.85355 2.14645C8.94732 2.24021 9 2.36739 9 2.5V8H5C4.72386 8 4.5 8.22386 4.5 8.5V9.5C4.5 9.63261 4.44732 9.75978 4.35355 9.85355C4.25978 9.94732 4.13261 10 4 10C3.86739 10 3.74021 9.94732 3.64645 9.85355C3.55268 9.75978 3.5 9.63261 3.5 9.5ZM2.5 2.5V3.5H1.5V2.5C1.5 2.36739 1.55268 2.24021 1.64645 2.14645C1.74021 2.05268 1.86739 2 2 2C2.13261 2 2.25979 2.05268 2.35355 2.14645C2.44732 2.24021 2.5 2.36739 2.5 2.5ZM10.3536 9.85355C10.2598 9.94732 10.1326 10 10 10H5.41421C5.47047 9.8409 5.5 9.67197 5.5 9.5V9H10.5V9.5C10.5 9.63261 10.4473 9.75978 10.3536 9.85355Z" fill="black"/>
</svg>
