<svg width="12" height="12" viewBox="0 0 12 12" fill="none" xmlns="http://www.w3.org/2000/svg">
<path fill-rule="evenodd" clip-rule="evenodd" d="M0.5625 6C0.5625 2.99695 2.99695 0.5625 6 0.5625C9.00305 0.5625 11.4375 2.99695 11.4375 6C11.4375 9.00305 9.00305 11.4375 6 11.4375C2.99695 11.4375 0.5625 9.00305 0.5625 6ZM4.0625 4.5C4.0625 4.25838 4.25838 4.0625 4.5 4.0625H4.505C4.74663 4.0625 4.9425 4.25838 4.9425 4.5C4.9425 4.74163 4.74663 4.9375 4.505 4.9375H4.5C4.25838 4.9375 4.0625 4.74163 4.0625 4.5ZM7.0625 4.5C7.0625 4.25838 7.25838 4.0625 7.5 4.0625H7.505C7.74663 4.0625 7.9425 4.25838 7.9425 4.5C7.9425 4.74163 7.74663 4.9375 7.505 4.9375H7.5C7.25838 4.9375 7.0625 4.74163 7.0625 4.5ZM5.22431 7.4375C4.85383 7.4375 4.49363 7.55943 4.19932 7.78446L4.11681 7.84755C3.92487 7.99431 3.65029 7.95768 3.50353 7.76574C3.35676 7.57379 3.39339 7.29922 3.58534 7.15245L3.66784 7.08937C4.11476 6.74765 4.66172 6.5625 5.22431 6.5625H6.7317C7.33039 6.5625 7.91018 6.77213 8.37044 7.15499L8.38086 7.16366C8.56662 7.31818 8.59194 7.59403 8.43742 7.77978C8.2829 7.96554 8.00705 7.99087 7.82129 7.83635L7.81087 7.82768C7.50777 7.57555 7.12596 7.4375 6.7317 7.4375H5.22431Z" fill="black"/>
</svg>
