<svg width="12" height="12" viewBox="0 0 12 12" fill="none" xmlns="http://www.w3.org/2000/svg">
<path fill-rule="evenodd" clip-rule="evenodd" d="M11.5 6C11.5 2.96243 9.03757 0.5 6 0.5C2.96243 0.5 0.499998 2.96243 0.499998 6C0.499998 9.03757 2.96243 11.5 6 11.5C9.03757 11.5 11.5 9.03757 11.5 6ZM7.95977 4.48276C7.95977 4.23836 7.76164 4.04023 7.51724 4.04023H7.51218C7.26778 4.04023 7.06965 4.23836 7.06965 4.48276C7.06965 4.72716 7.26778 4.92529 7.51218 4.92529H7.51724C7.76164 4.92529 7.95977 4.72716 7.95977 4.48276ZM4.92529 4.48276C4.92529 4.23836 4.72716 4.04023 4.48276 4.04023H4.4777C4.2333 4.04023 4.03517 4.23836 4.03517 4.48276C4.03517 4.72716 4.2333 4.92529 4.4777 4.92529H4.48276C4.72716 4.92529 4.92529 4.72716 4.92529 4.48276ZM8.52517 7.24845C8.37672 7.0543 8.09898 7.01725 7.90483 7.1657L7.82138 7.22951C7.52368 7.45713 7.15935 7.58046 6.7846 7.58046H5.25989C4.8611 7.58046 4.4749 7.44083 4.16831 7.1858L4.15777 7.17703C3.96988 7.02074 3.69086 7.04635 3.53456 7.23424C3.37827 7.42214 3.40388 7.70116 3.59177 7.85745L3.60231 7.86622C4.06786 8.25348 4.65432 8.46552 5.25989 8.46552H6.7846C7.35366 8.46552 7.90691 8.27824 8.35896 7.9326L8.44242 7.86878C8.63657 7.72033 8.67362 7.4426 8.52517 7.24845Z" fill="black"/>
</svg>
