<svg width="12" height="12" viewBox="0 0 12 12" fill="none" xmlns="http://www.w3.org/2000/svg">
<path fill-rule="evenodd" clip-rule="evenodd" d="M11.375 5.9375C11.375 2.93445 8.94055 0.5 5.9375 0.5C2.93445 0.5 0.499999 2.93445 0.499999 5.9375C0.499999 8.94055 2.93445 11.375 5.9375 11.375C8.94055 11.375 11.375 8.94055 11.375 5.9375ZM7.875 4.4375C7.875 4.19588 7.67912 4 7.4375 4H7.4325C7.19087 4 6.995 4.19588 6.995 4.4375C6.995 4.67913 7.19087 4.875 7.4325 4.875H7.4375C7.67912 4.875 7.875 4.67913 7.875 4.4375ZM4.875 4.4375C4.875 4.19588 4.67912 4 4.4375 4H4.4325C4.19087 4 3.995 4.19588 3.995 4.4375C3.995 4.67913 4.19087 4.875 4.4325 4.875H4.4375C4.67912 4.875 4.875 4.67913 4.875 4.4375ZM8.43397 7.17176C8.28721 6.97982 8.01263 6.94319 7.82069 7.08995L7.73818 7.15304C7.44387 7.37807 7.08367 7.5 6.71319 7.5H5.2058C4.81154 7.5 4.42973 7.36196 4.12663 7.10982L4.11621 7.10116C3.93045 6.94664 3.6546 6.97196 3.50008 7.15772C3.34556 7.34347 3.37088 7.61932 3.55664 7.77385L3.56706 7.78251C4.02732 8.16538 4.60711 8.375 5.2058 8.375H6.71319C7.27578 8.375 7.82274 8.18986 8.26966 7.84813L8.35216 7.78505C8.54411 7.63829 8.58074 7.36371 8.43397 7.17176Z" fill="black"/>
</svg>
