<svg width="12" height="12" viewBox="0 0 12 12" fill="none" xmlns="http://www.w3.org/2000/svg">
<path fill-rule="evenodd" clip-rule="evenodd" d="M11 6C11 3.23858 8.76142 1 6 1C3.23857 1 0.999999 3.23858 0.999999 6C0.999999 8.76143 3.23857 11 6 11C8.76142 11 11 8.76143 11 6ZM7.78161 4.62069C7.78161 4.39851 7.60149 4.21839 7.37931 4.21839H7.37471C7.15253 4.21839 6.97241 4.39851 6.97241 4.62069C6.97241 4.84287 7.15253 5.02299 7.37471 5.02299H7.37931C7.60149 5.02299 7.78161 4.84287 7.78161 4.62069ZM5.02299 4.62069C5.02299 4.39851 4.84287 4.21839 4.62069 4.21839H4.61609C4.39391 4.21839 4.21379 4.39851 4.21379 4.62069C4.21379 4.84287 4.39391 5.02299 4.61609 5.02299H4.62069C4.84287 5.02299 5.02299 4.84287 5.02299 4.62069ZM6.71327 7.32184C7.05395 7.32184 7.38516 7.43396 7.6558 7.64088L7.73167 7.6989C7.90817 7.83385 8.16065 7.80017 8.29561 7.62367C8.43056 7.44717 8.39688 7.19468 8.22038 7.05973L8.14451 7.00172C7.73355 6.68749 7.2306 6.51724 6.71327 6.51724H5.32717C4.77665 6.51724 4.24351 6.71 3.82028 7.06206L3.8107 7.07003C3.63989 7.21212 3.61661 7.46577 3.75869 7.63658C3.90078 7.8074 4.15444 7.83068 4.32525 7.68859L4.33483 7.68062C4.61354 7.44878 4.96463 7.32184 5.32717 7.32184H6.71327Z" fill="black"/>
</svg>
