<svg width="12" height="12" viewBox="0 0 12 12" fill="none" xmlns="http://www.w3.org/2000/svg">
<path fill-rule="evenodd" clip-rule="evenodd" d="M9.54399 11C9.66148 11 9.77416 10.9533 9.85724 10.8702C9.94032 10.7872 9.98699 10.6745 9.98699 10.557V9.987H10.557C10.6152 9.987 10.6728 9.97554 10.7265 9.95328C10.7803 9.93102 10.8291 9.89838 10.8702 9.85725C10.9114 9.81611 10.944 9.76728 10.9663 9.71353C10.9885 9.65978 11 9.60218 11 9.544C11 9.48582 10.9885 9.42822 10.9663 9.37447C10.944 9.32072 10.9114 9.27189 10.8702 9.23075C10.8291 9.18962 10.7803 9.15698 10.7265 9.13472C10.6728 9.11246 10.6152 9.101 10.557 9.101H9.98699V8.531C9.98699 8.41351 9.94032 8.30083 9.85724 8.21775C9.77416 8.13467 9.66148 8.088 9.54399 8.088C9.4265 8.088 9.31382 8.13467 9.23074 8.21775C9.14766 8.30083 9.10099 8.41351 9.10099 8.531V9.101H8.53099C8.4135 9.101 8.30082 9.14767 8.21774 9.23075C8.13466 9.31383 8.08799 9.42651 8.08799 9.544C8.08799 9.66149 8.13466 9.77417 8.21774 9.85725C8.30082 9.94033 8.4135 9.987 8.53099 9.987H9.10099V10.557C9.10099 10.802 9.29899 11 9.54399 11ZM4.98799 9.987C5.07303 9.98692 5.15625 9.96236 5.22772 9.91625C5.29918 9.87015 5.35586 9.80445 5.39099 9.727L6.42999 7.443L8.71499 6.404C8.79226 6.36873 8.85776 6.31199 8.90369 6.24054C8.94961 6.16909 8.97403 6.08594 8.97403 6.001C8.97403 5.91606 8.94961 5.83291 8.90369 5.76146C8.85776 5.69001 8.79226 5.63327 8.71499 5.598L6.42999 4.557L5.38999 2.273C5.35472 2.19573 5.29798 2.13023 5.22653 2.0843C5.15508 2.03837 5.07193 2.01396 4.98699 2.01396C4.90205 2.01396 4.8189 2.03837 4.74745 2.0843C4.676 2.13023 4.61926 2.19573 4.58399 2.273L3.54499 4.558L1.25999 5.597C1.18272 5.63227 1.11722 5.68901 1.07129 5.76046C1.02536 5.83191 1.00095 5.91506 1.00095 6C1.00095 6.08494 1.02536 6.16809 1.07129 6.23954C1.11722 6.31099 1.18272 6.36773 1.25999 6.403L3.54499 7.443L4.58399 9.728C4.65599 9.886 4.81399 9.988 4.98699 9.988L4.98799 9.987ZM9.06503 3.911C9.18252 3.911 9.2952 3.86433 9.37827 3.78125C9.46135 3.69817 9.50803 3.58549 9.50803 3.468V2.898H10.078C10.1917 2.89259 10.299 2.84361 10.3776 2.76122C10.4562 2.67883 10.5 2.56935 10.5 2.4555C10.5 2.34165 10.4562 2.23217 10.3776 2.14978C10.299 2.06739 10.1917 2.01841 10.078 2.013H9.50803V1.443C9.50803 1.32551 9.46135 1.21283 9.37827 1.12975C9.2952 1.04667 9.18252 1 9.06503 1C8.94754 1 8.83486 1.04667 8.75178 1.12975C8.6687 1.21283 8.62203 1.32551 8.62203 1.443V2.013H8.05203C7.93454 2.013 7.82186 2.05967 7.73878 2.14275C7.6557 2.22583 7.60903 2.33851 7.60903 2.456C7.60903 2.57349 7.6557 2.68617 7.73878 2.76925C7.82186 2.85233 7.93454 2.899 8.05203 2.899H8.62203V3.469C8.62203 3.713 8.82103 3.911 9.06503 3.911Z" fill="black"/>
</svg>
