<svg width="12" height="12" viewBox="0 0 12 12" fill="none" xmlns="http://www.w3.org/2000/svg">
<path fill-rule="evenodd" clip-rule="evenodd" d="M9.03798 11C9.28266 11 9.48101 10.8016 9.48101 10.557V9.98734L10.0506 9.98734C10.2953 9.98734 10.4937 9.78899 10.4937 9.5443C10.4937 9.29962 10.2953 9.10127 10.0506 9.10127H9.48101V8.53165C9.48101 8.28696 9.28266 8.08861 9.03798 8.08861C8.79329 8.08861 8.59494 8.28696 8.59494 8.53165V9.10127H8.02532C7.78063 9.10127 7.58228 9.29962 7.58228 9.5443C7.58228 9.78899 7.78063 9.98734 8.02532 9.98734H8.59494V10.557C8.59494 10.8016 8.79329 11 9.03798 11ZM4.98734 9.98734C5.16108 9.98734 5.31878 9.8858 5.39067 9.72763L6.42952 7.44217L8.71498 6.40333C8.87314 6.33143 8.97468 6.17373 8.97468 6C8.97468 5.82626 8.87314 5.66856 8.71498 5.59667L6.42952 4.55783L5.39067 2.27236C5.31878 2.1142 5.16108 2.01266 4.98734 2.01266C4.81361 2.01266 4.65591 2.1142 4.58402 2.27236L3.54517 4.55783L1.25971 5.59667C1.10155 5.66856 1 5.82626 1 6C1 6.17373 1.10155 6.33143 1.25971 6.40333L3.54517 7.44217L4.58402 9.72763C4.65591 9.8858 4.81361 9.98734 4.98734 9.98734ZM9.5443 3.91139C9.78899 3.91139 9.98734 3.71304 9.98734 3.46835V2.89873H10.557C10.8016 2.89873 11 2.70038 11 2.4557C11 2.21101 10.8016 2.01266 10.557 2.01266H9.98734V1.44304C9.98734 1.19835 9.78899 0.999999 9.5443 0.999999C9.29962 0.999999 9.10127 1.19835 9.10127 1.44304V2.01266H8.53165C8.28696 2.01266 8.08861 2.21101 8.08861 2.4557C8.08861 2.70038 8.28696 2.89873 8.53165 2.89873H9.10127V3.46835C9.10127 3.71304 9.29962 3.91139 9.5443 3.91139Z" fill="black"/>
</svg>
