<svg width="12" height="12" viewBox="0 0 12 12" fill="none" xmlns="http://www.w3.org/2000/svg">
<path fill-rule="evenodd" clip-rule="evenodd" d="M9.03802 11C9.15551 11 9.26819 10.9533 9.35127 10.8702C9.43435 10.7872 9.48102 10.6745 9.48102 10.557V9.987H10.051C10.1092 9.987 10.1668 9.97554 10.2205 9.95328C10.2743 9.93102 10.3231 9.89838 10.3643 9.85725C10.4054 9.81611 10.438 9.76728 10.4603 9.71353C10.4826 9.65978 10.494 9.60218 10.494 9.544C10.494 9.48582 10.4826 9.42822 10.4603 9.37447C10.438 9.32072 10.4054 9.27189 10.3643 9.23075C10.3231 9.18962 10.2743 9.15698 10.2205 9.13472C10.1668 9.11246 10.1092 9.101 10.051 9.101H9.48102V8.531C9.48102 8.41351 9.43435 8.30083 9.35127 8.21775C9.26819 8.13467 9.15551 8.088 9.03802 8.088C8.92053 8.088 8.80785 8.13467 8.72477 8.21775C8.64169 8.30083 8.59502 8.41351 8.59502 8.531V9.101H8.02502C7.96684 9.101 7.90924 9.11246 7.85549 9.13472C7.80174 9.15698 7.75291 9.18962 7.71177 9.23075C7.67064 9.27189 7.638 9.32072 7.61574 9.37447C7.59348 9.42822 7.58202 9.48582 7.58202 9.544C7.58202 9.60218 7.59348 9.65978 7.61574 9.71353C7.638 9.76728 7.67064 9.81611 7.71177 9.85725C7.75291 9.89838 7.80174 9.93102 7.85549 9.95328C7.90924 9.97554 7.96684 9.987 8.02502 9.987H8.59502V10.557C8.59502 10.802 8.79302 11 9.03802 11ZM4.98802 9.987C5.07306 9.98692 5.15629 9.96236 5.22775 9.91625C5.29921 9.87015 5.35589 9.80445 5.39102 9.727L6.43002 7.443L8.71502 6.404C8.79229 6.36873 8.85779 6.31199 8.90372 6.24054C8.94964 6.16909 8.97406 6.08594 8.97406 6.001C8.97406 5.91606 8.94964 5.83291 8.90372 5.76146C8.85779 5.69001 8.79229 5.63327 8.71502 5.598L6.43002 4.557L5.39002 2.273C5.35475 2.19573 5.29801 2.13023 5.22656 2.0843C5.15511 2.03837 5.07196 2.01396 4.98702 2.01396C4.90208 2.01396 4.81893 2.03837 4.74748 2.0843C4.67603 2.13023 4.61929 2.19573 4.58402 2.273L3.54502 4.558L1.26002 5.597C1.18275 5.63227 1.11725 5.68901 1.07132 5.76046C1.0254 5.83191 1.00098 5.91506 1.00098 6C1.00098 6.08494 1.0254 6.16809 1.07132 6.23954C1.11725 6.31099 1.18275 6.36773 1.26002 6.403L3.54502 7.443L4.58402 9.728C4.65602 9.886 4.81402 9.988 4.98702 9.988L4.98802 9.987ZM9.54402 3.911C9.66151 3.911 9.77419 3.86433 9.85727 3.78125C9.94035 3.69817 9.98702 3.58549 9.98702 3.468V2.898H10.557C10.6707 2.89259 10.778 2.84361 10.8566 2.76122C10.9351 2.67883 10.979 2.56935 10.979 2.4555C10.979 2.34165 10.9351 2.23217 10.8566 2.14978C10.778 2.06739 10.6707 2.01841 10.557 2.013H9.98702V1.443C9.98702 1.38482 9.97556 1.32722 9.9533 1.27347C9.93104 1.21972 9.8984 1.17089 9.85727 1.12975C9.81613 1.08862 9.7673 1.05598 9.71355 1.03372C9.6598 1.01146 9.6022 1 9.54402 1C9.48584 1 9.42824 1.01146 9.37449 1.03372C9.32074 1.05598 9.27191 1.08862 9.23077 1.12975C9.18964 1.17089 9.157 1.21972 9.13474 1.27347C9.11248 1.32722 9.10102 1.38482 9.10102 1.443V2.013H8.53102C8.41353 2.013 8.30085 2.05967 8.21777 2.14275C8.13469 2.22583 8.08802 2.33851 8.08802 2.456C8.08802 2.57349 8.13469 2.68617 8.21777 2.76925C8.30085 2.85233 8.41353 2.899 8.53102 2.899H9.10102V3.469C9.10102 3.713 9.30002 3.911 9.54402 3.911Z" fill="black"/>
</svg>
