<svg width="12" height="12" viewBox="0 0 12 12" fill="none" xmlns="http://www.w3.org/2000/svg">
<path fill-rule="evenodd" clip-rule="evenodd" d="M2.96202 1C2.71734 1 2.51899 1.19835 2.51899 1.44304V2.01266L1.94937 2.01266C1.70468 2.01266 1.50633 2.21101 1.50633 2.4557C1.50633 2.70038 1.70468 2.89873 1.94937 2.89873H2.51899V3.46835C2.51899 3.71304 2.71734 3.91139 2.96202 3.91139C3.20671 3.91139 3.40506 3.71304 3.40506 3.46835V2.89873H3.97468C4.21937 2.89873 4.41772 2.70038 4.41772 2.4557C4.41772 2.21101 4.21937 2.01266 3.97468 2.01266H3.40506V1.44304C3.40506 1.19835 3.20671 1 2.96202 1ZM7.01266 2.01266C6.83892 2.01266 6.68122 2.1142 6.60933 2.27237L5.57048 4.55783L3.28502 5.59667C3.12686 5.66857 3.02532 5.82627 3.02532 6C3.02532 6.17374 3.12686 6.33144 3.28502 6.40333L5.57048 7.44217L6.60933 9.72764C6.68122 9.8858 6.83892 9.98734 7.01266 9.98734C7.18639 9.98734 7.34409 9.8858 7.41598 9.72764L8.45483 7.44217L10.7403 6.40333C10.8985 6.33144 11 6.17374 11 6C11 5.82627 10.8985 5.66857 10.7403 5.59667L8.45483 4.55783L7.41598 2.27237C7.34409 2.1142 7.18639 2.01266 7.01266 2.01266ZM2.4557 8.08861C2.21101 8.08861 2.01266 8.28696 2.01266 8.53165V9.10127H1.44304C1.19835 9.10127 0.999999 9.29962 0.999999 9.5443C0.999999 9.78899 1.19835 9.98734 1.44304 9.98734H2.01266V10.557C2.01266 10.8016 2.21101 11 2.4557 11C2.70038 11 2.89873 10.8016 2.89873 10.557V9.98734H3.46835C3.71304 9.98734 3.91139 9.78899 3.91139 9.5443C3.91139 9.29962 3.71304 9.10127 3.46835 9.10127H2.89873V8.53165C2.89873 8.28696 2.70038 8.08861 2.4557 8.08861Z" fill="black"/>
</svg>
