<svg width="12" height="12" viewBox="0 0 12 12" fill="none" xmlns="http://www.w3.org/2000/svg">
<path fill-rule="evenodd" clip-rule="evenodd" d="M9.5 1C9.63261 1 9.75979 1.05268 9.85355 1.14645C9.94732 1.24021 10 1.36739 10 1.5V2H10.5C10.6326 2 10.7598 2.05268 10.8536 2.14645C10.9473 2.24021 11 2.36739 11 2.5C11 2.63261 10.9473 2.75979 10.8536 2.85355C10.7598 2.94732 10.6326 3 10.5 3H10V3.5C10 3.63261 9.94732 3.75979 9.85355 3.85355C9.75979 3.94732 9.63261 4 9.5 4C9.36739 4 9.24022 3.94732 9.14645 3.85355C9.05268 3.75979 9 3.63261 9 3.5V3H8.5C8.36739 3 8.24022 2.94732 8.14645 2.85355C8.05268 2.75979 8 2.63261 8 2.5C8 2.36739 8.05268 2.24021 8.14645 2.14645C8.24022 2.05268 8.36739 2 8.5 2H9V1.5C9 1.36739 9.05268 1.24021 9.14645 1.14645C9.24022 1.05268 9.36739 1 9.5 1ZM5 2C5.09596 2.00003 5.18989 2.02767 5.27057 2.07962C5.35125 2.13158 5.41527 2.20565 5.455 2.293L6.471 4.53L8.707 5.546C8.79429 5.58577 8.86831 5.64982 8.9202 5.73049C8.9721 5.81117 8.9997 5.90507 8.9997 6.001C8.9997 6.09693 8.9721 6.19083 8.9202 6.27151C8.86831 6.35218 8.79429 6.41623 8.707 6.456L6.47 7.471L5.455 9.707C5.41523 9.79429 5.35118 9.86831 5.27051 9.9202C5.18983 9.9721 5.09593 9.9997 5 9.9997C4.90407 9.9997 4.81017 9.9721 4.72949 9.9202C4.64882 9.86831 4.58477 9.79429 4.545 9.707L3.529 7.47L1.293 6.455C1.20571 6.41523 1.1317 6.35118 1.0798 6.27051C1.0279 6.18983 1.00031 6.09593 1.00031 6C1.00031 5.90407 1.0279 5.81017 1.0798 5.72949C1.1317 5.64882 1.20571 5.58477 1.293 5.545L3.53 4.529L4.546 2.293C4.58566 2.2058 4.64953 2.13183 4.73001 2.07989C4.8105 2.02795 4.90421 2.00022 5 2ZM5 3.708L4.361 5.113C4.31099 5.2229 4.2229 5.31099 4.113 5.361L2.708 6L4.113 6.639C4.2229 6.68901 4.31099 6.7771 4.361 6.887L5 8.292L5.639 6.887C5.68901 6.7771 5.7771 6.68901 5.887 6.639L7.292 6L5.887 5.361C5.7771 5.31099 5.68901 5.2229 5.639 5.113L5 3.708ZM9 8C9.13261 8 9.25979 8.05268 9.35355 8.14645C9.44732 8.24021 9.5 8.36739 9.5 8.5V9H10C10.1326 9 10.2598 9.05268 10.3536 9.14645C10.4473 9.24021 10.5 9.36739 10.5 9.5C10.5 9.63261 10.4473 9.75979 10.3536 9.85355C10.2598 9.94732 10.1326 10 10 10H9.5V10.5C9.5 10.6326 9.44732 10.7598 9.35355 10.8536C9.25979 10.9473 9.13261 11 9 11C8.86739 11 8.74021 10.9473 8.64645 10.8536C8.55268 10.7598 8.5 10.6326 8.5 10.5V10H8C7.86739 10 7.74021 9.94732 7.64645 9.85355C7.55268 9.75979 7.5 9.63261 7.5 9.5C7.5 9.36739 7.55268 9.24021 7.64645 9.14645C7.74021 9.05268 7.86739 9 8 9H8.5V8.5C8.5 8.36739 8.55268 8.24021 8.64645 8.14645C8.74021 8.05268 8.86739 8 9 8Z" fill="black"/>
</svg>
