<svg width="12" height="12" viewBox="0 0 12 12" fill="none" xmlns="http://www.w3.org/2000/svg">
<path d="M3 1.0625C2.75837 1.0625 2.5625 1.25838 2.5625 1.5V2.0625L2 2.0625C1.75837 2.0625 1.5625 2.25838 1.5625 2.5C1.5625 2.74162 1.75837 2.9375 2 2.9375H2.5625V3.5C2.5625 3.74162 2.75837 3.9375 3 3.9375C3.24162 3.9375 3.4375 3.74162 3.4375 3.5V2.9375H4C4.24162 2.9375 4.4375 2.74162 4.4375 2.5C4.4375 2.25838 4.24162 2.0625 4 2.0625H3.4375V1.5C3.4375 1.25838 3.24162 1.0625 3 1.0625Z" fill="black"/>
<path d="M7 2.0625C6.82844 2.0625 6.67271 2.16278 6.60171 2.31896L5.57585 4.57585L3.31896 5.60172C3.16278 5.67271 3.0625 5.82844 3.0625 6C3.0625 6.17156 3.16278 6.32729 3.31896 6.39829L5.57585 7.42415L6.60171 9.68104C6.67271 9.83722 6.82844 9.9375 7 9.9375C7.17156 9.9375 7.32729 9.83722 7.39828 9.68104L8.42415 7.42415L10.681 6.39829C10.8372 6.32729 10.9375 6.17156 10.9375 6C10.9375 5.82844 10.8372 5.67271 10.681 5.60172L8.42415 4.57585L7.39828 2.31896C7.32729 2.16278 7.17156 2.0625 7 2.0625Z" fill="black"/>
<path d="M2.5 8.0625C2.25837 8.0625 2.0625 8.25838 2.0625 8.5V9.0625H1.5C1.25837 9.0625 1.0625 9.25838 1.0625 9.5C1.0625 9.74163 1.25837 9.9375 1.5 9.9375H2.0625V10.5C2.0625 10.7416 2.25837 10.9375 2.5 10.9375C2.74162 10.9375 2.9375 10.7416 2.9375 10.5V9.9375H3.5C3.74162 9.9375 3.9375 9.74163 3.9375 9.5C3.9375 9.25838 3.74162 9.0625 3.5 9.0625H2.9375V8.5C2.9375 8.25838 2.74162 8.0625 2.5 8.0625Z" fill="black"/>
</svg>
