<svg width="12" height="12" viewBox="0 0 12 12" fill="none" xmlns="http://www.w3.org/2000/svg">
<g clip-path="url(#clip0_10011_3037)">
<path fill-rule="evenodd" clip-rule="evenodd" d="M6.00001 0.5C6.19032 0.5 6.36413 0.608036 6.44837 0.778688L7.87715 3.67323L11.0723 4.14026C11.2606 4.16778 11.4169 4.29978 11.4756 4.48078C11.5343 4.66179 11.4852 4.86041 11.3489 4.99318L9.03728 7.24468L9.58282 10.4255C9.61499 10.6131 9.53787 10.8027 9.38388 10.9145C9.22989 11.0264 9.02575 11.0411 8.85729 10.9525L6.00001 9.44992L3.14274 10.9525C2.97428 11.0411 2.77014 11.0264 2.61615 10.9145C2.46216 10.8027 2.38504 10.6131 2.41721 10.4255L2.96275 7.24468L0.651148 4.99318C0.514839 4.86041 0.465703 4.66179 0.524392 4.48078C0.58308 4.29978 0.73942 4.16778 0.9277 4.14026L4.12288 3.67323L5.55166 0.778688C5.6359 0.608036 5.80971 0.5 6.00001 0.5Z" fill="black"/>
</g>
<defs>
<clipPath id="clip0_10011_3037">
<rect width="12" height="12" fill="white"/>
</clipPath>
</defs>
</svg>
