<svg width="12" height="12" viewBox="0 0 12 12" fill="none" xmlns="http://www.w3.org/2000/svg">
<g clip-path="url(#clip0_12058_4682)">
<path d="M4.9429 2.08146C5.78778 1.85356 6.6837 1.90484 7.49705 2.22766C7.75372 2.32952 8.04437 2.20404 8.14624 1.94737C8.24811 1.69071 8.12262 1.40006 7.86595 1.29819C6.85219 0.895829 5.73552 0.831914 4.68247 1.11597C3.62941 1.40003 2.69637 2.01684 2.02247 2.87444C1.34857 3.73204 0.969912 4.78449 0.942953 5.87485C0.915993 6.96521 1.24218 8.03508 1.87287 8.92494C2.50356 9.8148 3.40498 10.477 4.44271 10.8127C5.48044 11.1485 6.5989 11.1398 7.63131 10.7881C8.66373 10.4363 9.55479 9.76026 10.1716 8.86075C10.7885 7.96125 11.0981 6.88646 11.0543 5.79664C11.0432 5.52072 10.8105 5.30604 10.5346 5.31714C10.2587 5.32823 10.044 5.5609 10.0551 5.83682C10.0902 6.71119 9.84185 7.57351 9.34694 8.29519C8.85203 9.01688 8.13712 9.55927 7.3088 9.8415C6.48048 10.1237 5.58313 10.1307 4.75054 9.86128C3.91796 9.5919 3.19474 9.06063 2.68873 8.34669C2.18272 7.63275 1.92102 6.77438 1.94265 5.89957C1.96428 5.02476 2.26808 4.18037 2.80876 3.49231C3.34944 2.80424 4.09803 2.30937 4.9429 2.08146Z" fill="black"/>
<path d="M10.9009 2.85356C11.0962 2.6583 11.0962 2.34171 10.9009 2.14645C10.7057 1.95119 10.3891 1.95118 10.1938 2.14644L6.00147 6.33873L4.80739 5.13317C4.61306 4.93697 4.29648 4.93546 4.10029 5.12978C3.9041 5.32411 3.90258 5.64069 4.09691 5.83688L5.64453 7.39938C5.73814 7.49389 5.86555 7.5472 5.99857 7.54752C6.13159 7.54784 6.25926 7.49514 6.35332 7.40108L10.9009 2.85356Z" fill="black"/>
</g>
<defs>
<clipPath id="clip0_12058_4682">
<rect width="12" height="12" fill="white"/>
</clipPath>
</defs>
</svg>
