<svg width="12" height="12" viewBox="0 0 12 12" fill="none" xmlns="http://www.w3.org/2000/svg">
<path fill-rule="evenodd" clip-rule="evenodd" d="M11.4375 6C11.4375 2.99695 9.00305 0.5625 6 0.5625C2.99695 0.5625 0.562499 2.99695 0.562499 6C0.562499 9.00305 2.99695 11.4375 6 11.4375C9.00305 11.4375 11.4375 9.00305 11.4375 6ZM7.9375 4.5C7.9375 4.25838 7.74162 4.0625 7.5 4.0625H7.495C7.25337 4.0625 7.0575 4.25838 7.0575 4.5C7.0575 4.74163 7.25337 4.9375 7.495 4.9375H7.5C7.74162 4.9375 7.9375 4.74163 7.9375 4.5ZM4.9375 4.5C4.9375 4.25838 4.74162 4.0625 4.5 4.0625H4.495C4.25337 4.0625 4.0575 4.25838 4.0575 4.5C4.0575 4.74163 4.25337 4.9375 4.495 4.9375H4.5C4.74162 4.9375 4.9375 4.74163 4.9375 4.5ZM9.33413 6.21758C9.251 6.11923 9.12877 6.0625 9 6.0625H3C2.87123 6.0625 2.74899 6.11923 2.66587 6.21758C2.58274 6.31593 2.54716 6.4459 2.56861 6.57287C2.70531 7.38208 3.127 8.11568 3.75745 8.64105C4.38634 9.16513 5.18156 9.44752 6 9.43754C6.81844 9.44752 7.61366 9.16513 8.24254 8.64105C8.873 8.11568 9.29469 7.38208 9.43139 6.57287C9.45284 6.4459 9.41726 6.31593 9.33413 6.21758ZM8.42688 6.9375C8.27036 7.33579 8.01545 7.6913 7.68238 7.96886C7.21241 8.36051 6.61782 8.57109 6.00611 8.56254C6.00426 8.56252 6.00242 8.5625 6.00057 8.5625C5.99834 8.5625 5.99611 8.56251 5.99389 8.56254C5.38218 8.57109 4.78759 8.36051 4.31762 7.96886C3.98455 7.6913 3.72964 7.33579 3.57312 6.9375H8.42688Z" fill="black"/>
</svg>
