<svg width="12" height="12" viewBox="0 0 12 12" fill="none" xmlns="http://www.w3.org/2000/svg">
<path fill-rule="evenodd" clip-rule="evenodd" d="M11.5 6C11.5 2.96243 9.03757 0.5 6 0.5C2.96243 0.5 0.499998 2.96243 0.499998 6C0.499998 9.03757 2.96243 11.5 6 11.5C9.03757 11.5 11.5 9.03757 11.5 6ZM7.95977 4.48276C7.95977 4.23836 7.76164 4.04023 7.51724 4.04023H7.51218C7.26778 4.04023 7.06965 4.23836 7.06965 4.48276C7.06965 4.72716 7.26778 4.92529 7.51218 4.92529H7.51724C7.76164 4.92529 7.95977 4.72716 7.95977 4.48276ZM4.92529 4.48276C4.92529 4.23836 4.72716 4.04023 4.48276 4.04023H4.4777C4.2333 4.04023 4.03517 4.23836 4.03517 4.48276C4.03517 4.72716 4.2333 4.92529 4.4777 4.92529H4.48276C4.72716 4.92529 4.92529 4.72716 4.92529 4.48276ZM9.37246 6.22008C9.28837 6.1206 9.16473 6.06322 9.03448 6.06322H2.96552C2.83526 6.06322 2.71163 6.1206 2.62754 6.22008C2.54346 6.31956 2.50747 6.45103 2.52917 6.57946C2.66744 7.39796 3.09398 8.13999 3.73168 8.67141C4.3678 9.20151 5.17216 9.48715 6 9.47705C6.82784 9.48715 7.6322 9.20151 8.26832 8.67141C8.90602 8.13999 9.33256 7.39796 9.47083 6.57946C9.49252 6.45103 9.45654 6.31956 9.37246 6.22008ZM8.45477 6.94828C8.29646 7.35114 8.03862 7.71074 7.70172 7.99149C7.22634 8.38764 6.62492 8.60064 6.00618 8.592C6.00431 8.59197 6.00244 8.59196 6.00058 8.59196C5.99832 8.59195 5.99607 8.59197 5.99382 8.592C5.37508 8.60064 4.77366 8.38764 4.29828 7.99149C3.96138 7.71074 3.70354 7.35114 3.54522 6.94828H8.45477Z" fill="black"/>
</svg>
