<svg width="12" height="12" viewBox="0 0 12 12" fill="none" xmlns="http://www.w3.org/2000/svg">
<path fill-rule="evenodd" clip-rule="evenodd" d="M0.391357 6C0.391357 2.99695 2.82581 0.5625 5.82886 0.5625C8.83191 0.5625 11.2664 2.99695 11.2664 6C11.2664 9.00305 8.83191 11.4375 5.82886 11.4375C2.82581 11.4375 0.391357 9.00305 0.391357 6ZM2.87947 4.31673C3.01319 4.11549 3.28473 4.06074 3.48598 4.19446L3.68321 4.32551C3.87235 4.45118 4.1185 4.45081 4.30725 4.32455L4.50062 4.19521C4.70146 4.06087 4.97317 4.11478 5.10751 4.31561C5.24185 4.51645 5.18794 4.78817 4.9871 4.9225L4.79374 5.05185C4.31138 5.3745 3.68232 5.37546 3.19897 5.0543L3.00174 4.92325C2.80049 4.78953 2.74575 4.51798 2.87947 4.31673ZM6.88071 4.3195C7.01443 4.11825 7.28597 4.0635 7.48722 4.19723L7.68445 4.32827C7.87359 4.45395 8.11974 4.45357 8.30849 4.32731L8.50186 4.19797C8.7027 4.06363 8.97441 4.11754 9.10875 4.31838C9.24309 4.51921 9.18918 4.79093 8.98834 4.92527L8.79498 5.05461C8.31262 5.37726 7.68356 5.37823 7.20021 5.05706L7.00298 4.92601C6.80173 4.79229 6.74699 4.52075 6.88071 4.3195ZM5.88841 6.12232C5.32064 6.11636 4.76359 6.29237 4.31762 6.62681C3.86935 6.96297 3.55951 7.44046 3.45842 7.97895C3.4344 8.10688 3.4686 8.23887 3.55172 8.33904C3.63484 8.43921 3.75824 8.49717 3.88841 8.49717H7.88841C8.01858 8.49717 8.14198 8.43921 8.2251 8.33904C8.30822 8.23887 8.34241 8.10688 8.3184 7.97895C8.21731 7.44046 7.90747 6.96297 7.4592 6.62681C7.01323 6.29237 6.45617 6.11636 5.88841 6.12232ZM5.88291 6.99731C5.49771 6.99247 5.12879 7.11221 4.84258 7.32684C4.72649 7.4139 4.62769 7.51366 4.54743 7.62217H7.22939C7.14913 7.51366 7.05033 7.4139 6.93424 7.32684C6.64803 7.11221 6.27911 6.99247 5.89391 6.99731H5.88291Z" fill="black"/>
</svg>
