<svg width="12" height="12" viewBox="0 0 12 12" fill="none" xmlns="http://www.w3.org/2000/svg">
<path fill-rule="evenodd" clip-rule="evenodd" d="M11.5386 6.0625C11.5386 3.02493 9.07614 0.5625 6.03857 0.5625C3.00101 0.5625 0.538573 3.02493 0.538573 6.0625C0.538573 9.10007 3.00101 11.5625 6.03857 11.5625C9.07614 11.5625 11.5386 9.10007 11.5386 6.0625ZM9.08653 4.30035C8.95127 4.09679 8.6766 4.04142 8.47304 4.17668L8.27355 4.30923C8.08223 4.43635 7.83325 4.43597 7.64233 4.30826L7.44674 4.17743C7.2436 4.04155 6.96876 4.09608 6.83288 4.29922C6.697 4.50237 6.75152 4.7772 6.95467 4.91309L7.15026 5.04392C7.63816 5.37027 8.27445 5.37125 8.76336 5.0464L8.96285 4.91384C9.16641 4.77858 9.22179 4.50392 9.08653 4.30035ZM5.04055 4.30035C4.90529 4.09679 4.63063 4.04142 4.42706 4.17668L4.22757 4.30923C4.03626 4.43635 3.78728 4.43597 3.59636 4.30826L3.40077 4.17743C3.19762 4.04155 2.92278 4.09608 2.7869 4.29922C2.65102 4.50237 2.70554 4.7772 2.90869 4.91309L3.10428 5.04392C3.59219 5.37027 4.22847 5.37125 4.71738 5.0464L4.91688 4.91384C5.12044 4.77858 5.17581 4.50392 5.04055 4.30035ZM6.03857 6.12587C6.61286 6.11984 7.17632 6.29788 7.62742 6.63616C8.08084 6.97618 8.39425 7.45916 8.49649 8.00384C8.52079 8.13325 8.4862 8.26674 8.40212 8.36807C8.31805 8.46939 8.19322 8.52802 8.06156 8.52802H4.01558C3.88392 8.52802 3.7591 8.46939 3.67502 8.36807C3.59095 8.26674 3.55636 8.13325 3.58065 8.00384C3.6829 7.45916 3.99631 6.97618 4.44973 6.63616C4.90082 6.29788 5.46428 6.11984 6.03857 6.12587ZM6.04414 7.01092C6.43376 7.00602 6.80692 7.12713 7.09642 7.34423C7.21385 7.4323 7.31379 7.5332 7.39497 7.64296H4.68218C4.76336 7.5332 4.86329 7.4323 4.98072 7.34423C5.27022 7.12713 5.64338 7.00602 6.03301 7.01092H6.04414Z" fill="black"/>
</svg>
