<svg width="12" height="12" viewBox="0 0 12 12" fill="none" xmlns="http://www.w3.org/2000/svg">
<path fill-rule="evenodd" clip-rule="evenodd" d="M9.54294 2.45315C8.60303 1.51654 7.35294 1.00048 6.021 1C3.27642 1 1.04274 3.22273 1.04178 5.95486C1.0413 6.82826 1.27074 7.68076 1.70644 8.43205L1 11L3.63954 10.311C4.36675 10.7059 5.18564 10.9138 6.01886 10.914H6.021C8.76511 10.914 10.9991 8.69102 11 5.95889C11.0005 4.63478 10.4831 3.38999 9.54294 2.45338V2.45315ZM6.021 10.0772H6.01933C5.27683 10.077 4.54844 9.8783 3.91292 9.50314L3.76178 9.41382L2.19539 9.82271L2.61343 8.30279L2.51506 8.14693C2.10084 7.49117 1.88192 6.73322 1.88239 5.95511C1.88335 3.68438 3.73982 1.83682 6.02269 1.83682C7.12806 1.83729 8.16708 2.26616 8.94847 3.04476C9.72989 3.82314 10.1599 4.85812 10.1594 5.95842C10.1584 8.22939 8.30197 10.077 6.021 10.077V10.0772ZM8.29097 6.99269C8.16658 6.93068 7.55495 6.63129 7.44081 6.58996C7.3267 6.54861 7.24386 6.52795 7.161 6.65197C7.07817 6.77601 6.83967 7.05494 6.76708 7.13738C6.6945 7.22006 6.62192 7.23029 6.49753 7.16826C6.37317 7.10625 5.97231 6.97557 5.49697 6.55383C5.12717 6.22547 4.87742 5.82015 4.80486 5.69611C4.73228 5.57209 4.79722 5.50508 4.85928 5.44355C4.91514 5.38795 4.98367 5.29885 5.04597 5.22662C5.10831 5.15438 5.12883 5.10261 5.17036 5.02014C5.21192 4.93746 5.19114 4.86525 5.16011 4.80322C5.12906 4.74121 4.88031 4.13176 4.77644 3.88395C4.67544 3.64256 4.57281 3.67535 4.49664 3.67131C4.42406 3.66774 4.34122 3.66703 4.25814 3.66703C4.17506 3.66703 4.04039 3.69792 3.92628 3.82195C3.81217 3.94596 3.49081 4.24557 3.49081 4.85477C3.49081 5.46397 3.93656 6.053 3.99886 6.13568C4.06117 6.21836 4.87622 7.46883 6.12414 8.00533C6.42092 8.13291 6.65272 8.20918 6.83344 8.26621C7.13142 8.36053 7.40261 8.34724 7.617 8.31539C7.856 8.27976 8.35306 8.01578 8.45667 7.72662C8.56028 7.43746 8.56028 7.1894 8.52925 7.13785C8.49822 7.08629 8.41514 7.05516 8.29075 6.99316L8.29097 6.99269Z" fill="black"/>
</svg>
