<svg width="12" height="8" viewBox="0 0 12 8" fill="none" xmlns="http://www.w3.org/2000/svg">
<path fill-rule="evenodd" clip-rule="evenodd" d="M9.35355 0.646447C9.54882 0.841709 9.54882 1.15829 9.35355 1.35355L3.85355 6.85355C3.65829 7.04882 3.34171 7.04882 3.14645 6.85355L0.646447 4.35355C0.451184 4.15829 0.451184 3.84171 0.646447 3.64645C0.841709 3.45118 1.15829 3.45118 1.35355 3.64645L3.5 5.79289L8.64645 0.646447C8.84171 0.451184 9.15829 0.451184 9.35355 0.646447ZM11.3536 2.64645C11.5488 2.84171 11.5488 3.15829 11.3536 3.35355L7.60355 7.10355C7.40829 7.29882 7.09171 7.29882 6.89645 7.10355L6.14645 6.35355C5.95118 6.15829 5.95118 5.84171 6.14645 5.64645C6.34171 5.45118 6.65829 5.45118 6.85355 5.64645L7.25 6.04289L10.6464 2.64645C10.8417 2.45118 11.1583 2.45118 11.3536 2.64645Z" fill="black"/>
</svg>
