<svg width="12" height="12" viewBox="0 0 12 12" fill="none" xmlns="http://www.w3.org/2000/svg">
<path fill-rule="evenodd" clip-rule="evenodd" d="M3.00024 1.5C3.00024 0.947715 3.44796 0.5 4.00024 0.5H7.00024C7.55253 0.5 8.00024 0.947715 8.00024 1.5H8.50024C8.89807 1.5 9.2796 1.65804 9.5609 1.93934C9.84221 2.22064 10.0002 2.60217 10.0002 3V4C10.0002 4.27614 9.77639 4.5 9.50024 4.5C9.2241 4.5 9.00024 4.27614 9.00024 4V3C9.00024 2.86739 8.94757 2.74022 8.8538 2.64645C8.76003 2.55268 8.63285 2.5 8.50024 2.5H8.00024C8.00024 3.05228 7.55253 3.5 7.00024 3.5H4.00024C3.44796 3.5 3.00024 3.05228 3.00024 2.5H2.50024C2.36764 2.5 2.24046 2.55268 2.14669 2.64645C2.05292 2.74021 2.00024 2.86739 2.00024 3V10C2.00024 10.1326 2.05292 10.2598 2.14669 10.3536C2.24046 10.4473 2.36764 10.5 2.50024 10.5C2.77639 10.5 3.00024 10.7239 3.00024 11C3.00024 11.2761 2.77639 11.5 2.50024 11.5C2.10242 11.5 1.72089 11.342 1.43958 11.0607C1.15828 10.7794 1.00024 10.3978 1.00024 10V3C1.00024 2.60218 1.15828 2.22064 1.43958 1.93934C1.72089 1.65804 2.10242 1.5 2.50024 1.5H3.00024ZM4.00024 2.5H7.00024V1.5H4.00024V2.5ZM10.4785 5.95489C10.4785 5.57509 10.7929 5.30005 11.1395 5.30005C11.486 5.30005 11.8004 5.57509 11.8004 5.95489C11.8004 6.33468 11.486 6.60973 11.1395 6.60973C10.7929 6.60973 10.4785 6.33468 10.4785 5.95489ZM6.97227 6.45489C6.79823 6.45489 6.55163 6.60151 6.42697 6.98215L6.42639 6.98392L5.17502 10.7574C5.08811 11.0195 4.80516 11.1616 4.54306 11.0746C4.28095 10.9877 4.13894 10.7048 4.22585 10.4427L5.47663 6.67093C5.47653 6.67124 5.47674 6.67061 5.47663 6.67093C5.68762 6.02772 6.22861 5.45489 6.97227 5.45489C7.71572 5.45489 8.25555 6.02552 8.4669 6.66772C8.46683 6.66749 8.46698 6.66794 8.4669 6.66772L9.43083 9.57425C9.55561 9.95382 9.80179 10.1 9.9757 10.1C10.3744 10.1 10.6395 9.80565 10.6395 9.51159V7.5225C10.6395 7.24635 10.8633 7.0225 11.1395 7.0225C11.4156 7.0225 11.6395 7.24635 11.6395 7.5225V9.51159C11.6395 10.4199 10.8626 11.1 9.9757 11.1C9.23304 11.1 8.69252 10.5296 8.48109 9.88728C8.48101 9.88703 8.48117 9.88753 8.48109 9.88728L7.51755 6.98194L7.51714 6.98069C7.3923 6.60093 7.14663 6.45489 6.97227 6.45489Z" fill="black"/>
</svg>
