<svg aria-hidden="true" focusable="false" data-name="Asterisk" class="d-icon d-icon--asterisk" viewBox="0 0 12 12"><path fill="currentColor" fill-rule="evenodd" d="M6 2.5a.5.5 0 0 1 .5.5v6a.5.5 0 0 1-1 0V3a.5.5 0 0 1 .5-.5Z" clip-rule="evenodd"/><path fill="currentColor" fill-rule="evenodd" d="M9.031 4.25a.5.5 0 0 1-.183.683l-5.196 3a.5.5 0 1 1-.5-.866l5.196-3a.5.5 0 0 1 .683.183Z" clip-rule="evenodd"/><path fill="currentColor" fill-rule="evenodd" d="M2.969 4.25a.5.5 0 0 1 .683-.183l5.196 3a.5.5 0 0 1-.5.866l-5.196-3a.5.5 0 0 1-.183-.683Z" clip-rule="evenodd"/></svg>