<svg width="139" height="26" viewBox="0 0 139 26" fill="none" xmlns="http://www.w3.org/2000/svg">
<path d="M61.6602 1.79998C61.6602 2.75876 60.868 3.53613 59.8909 3.53613C58.9139 3.53613 58.122 2.75876 58.122 1.79998C58.122 0.841211 58.9139 0.0638428 59.8909 0.0638428C60.868 0.0638428 61.6602 0.841211 61.6602 1.79998Z" fill="#6C3DFF"/>
<path d="M82.4865 20.2926V0.321124C82.4865 0.216176 82.5733 0.130997 82.6802 0.130997H85.1702C85.2775 0.130997 85.3643 0.216176 85.3643 0.321124V20.2926C85.3643 20.3978 85.2775 20.483 85.1702 20.483H82.6802C82.5733 20.483 82.4865 20.3978 82.4865 20.2926Z" fill="#6C3DFF"/>
<path fill-rule="evenodd" clip-rule="evenodd" d="M52.3103 0.32636V7.32762C51.1158 5.9944 49.4236 5.17285 47.3474 5.17285C43.0641 5.17285 39.579 8.66257 39.579 12.9521C39.579 17.2412 43.0641 20.731 47.3474 20.731C49.4236 20.731 51.1158 19.9097 52.3103 18.5762V20.2981C52.3103 20.403 52.3971 20.4882 52.5041 20.4882H54.9941C55.1014 20.4882 55.1882 20.403 55.1882 20.2981V0.32636C55.1882 0.221412 55.1014 0.136233 54.9941 0.136233H52.5041C52.3971 0.136233 52.3103 0.221412 52.3103 0.32636ZM47.5065 17.852C44.8082 17.852 42.7362 15.6539 42.7362 12.9521C42.7362 10.2504 44.8082 8.05236 47.5065 8.05236C50.2048 8.05236 52.0301 10.2502 52.0301 12.9521C52.0301 15.6537 50.2048 17.852 47.5065 17.852Z" fill="#6C3DFF"/>
<path fill-rule="evenodd" clip-rule="evenodd" d="M96.4692 5.17081C94.393 5.17081 92.7008 5.99207 91.5063 7.32558V5.77462C91.5063 5.66909 91.4195 5.58391 91.3125 5.58391H88.8225C88.7153 5.58391 88.6285 5.66909 88.6285 5.77462V25.7458C88.6285 25.851 88.7153 25.9362 88.8225 25.9362H91.3125C91.4195 25.9362 91.5063 25.851 91.5063 25.7458V18.5742C92.7008 19.9074 94.393 20.7286 96.4692 20.7286C100.753 20.7286 104.238 17.2389 104.238 12.9494C104.238 8.66053 100.753 5.17081 96.4692 5.17081ZM96.3101 17.8494C93.6121 17.8494 91.7866 15.6513 91.7866 12.9497C91.7866 10.2478 93.6121 8.04974 96.3101 8.04974C99.0084 8.04974 101.08 10.2478 101.08 12.9494C101.08 15.651 99.0084 17.8494 96.3101 17.8494Z" fill="#6C3DFF"/>
<path fill-rule="evenodd" clip-rule="evenodd" d="M76.3445 5.77462V7.32761C75.1499 5.9944 73.4577 5.17284 71.3816 5.17284C67.098 5.17284 63.6128 8.66257 63.6128 12.952C63.6128 17.2412 67.098 20.731 71.3816 20.731C73.4577 20.731 75.1499 19.9097 76.3445 18.5762V20.2981C76.3445 20.403 76.4313 20.4882 76.5382 20.4882H79.0283C79.1355 20.4882 79.222 20.403 79.222 20.2981V5.77462C79.222 5.66909 79.1355 5.58391 79.0283 5.58391H76.5382C76.4313 5.58391 76.3445 5.66909 76.3445 5.77462ZM71.5407 17.852C68.8423 17.852 66.7703 15.6539 66.7703 12.952C66.7703 10.2504 68.8423 8.05236 71.5407 8.05236C74.2387 8.05236 76.0642 10.2502 76.0642 12.952C76.0642 15.6536 74.2387 17.852 71.5407 17.852Z" fill="#6C3DFF"/>
<path fill-rule="evenodd" clip-rule="evenodd" d="M118.535 7.32761V5.77462C118.535 5.66909 118.622 5.58391 118.729 5.58391H121.219C121.326 5.58391 121.413 5.66909 121.413 5.77462V20.2981C121.413 20.403 121.326 20.4882 121.219 20.4882H118.729C118.622 20.4882 118.535 20.403 118.535 20.2981V18.5762C117.341 19.9097 115.649 20.731 113.572 20.731C109.289 20.731 105.804 17.2412 105.804 12.952C105.804 8.66257 109.289 5.17284 113.572 5.17284C115.649 5.17284 117.341 5.9944 118.535 7.32761ZM108.961 12.952C108.961 15.6539 111.033 17.852 113.731 17.852C116.429 17.852 118.255 15.6536 118.255 12.952C118.255 10.2502 116.429 8.05236 113.731 8.05236C111.033 8.05236 108.961 10.2504 108.961 12.952Z" fill="#6C3DFF"/>
<path fill-rule="evenodd" clip-rule="evenodd" d="M136.065 7.32762V0.32636C136.065 0.221412 136.152 0.136233 136.259 0.136233H138.749C138.856 0.136233 138.943 0.221412 138.943 0.32636V20.2981C138.943 20.403 138.856 20.4882 138.749 20.4882H136.259C136.152 20.4882 136.065 20.403 136.065 20.2981V18.5762C134.871 19.9097 133.179 20.731 131.103 20.731C126.819 20.731 123.334 17.2412 123.334 12.9521C123.334 8.66257 126.819 5.17285 131.103 5.17285C133.179 5.17285 134.871 5.9944 136.065 7.32762ZM126.491 12.9521C126.491 15.6539 128.563 17.852 131.262 17.852C133.96 17.852 135.785 15.6537 135.785 12.9521C135.785 10.2502 133.96 8.05236 131.262 8.05236C128.563 8.05236 126.491 10.2504 126.491 12.9521Z" fill="#6C3DFF"/>
<path d="M58.452 5.77462V20.2926C58.452 20.3978 58.5391 20.483 58.6461 20.483H61.1361C61.243 20.483 61.3299 20.3978 61.3299 20.2926V5.77462C61.3299 5.66909 61.243 5.58391 61.1361 5.58391H58.6461C58.5391 5.58391 58.452 5.66909 58.452 5.77462Z" fill="#6C3DFF"/>
<path d="M15.964 11.8755C16.4946 8.08928 19.8032 5.17197 23.8077 5.17197C28.182 5.17197 31.7279 8.65152 31.7279 12.9439C31.7279 17.2363 28.182 20.7158 23.8077 20.7158C22.7143 20.7158 21.6723 20.4984 20.7249 20.1053L16.092 24.8027C16.0177 24.8783 15.8876 24.8265 15.8876 24.7216V14.0123C15.3567 17.7988 12.0484 20.7158 8.04361 20.7158C3.66937 20.7158 0.123474 17.2363 0.123474 12.9439C0.123474 8.65152 3.66937 5.17197 8.04361 5.17197C9.13739 5.17197 10.179 5.38971 11.1265 5.78276L15.7593 1.08512C15.8337 1.00982 15.964 1.06157 15.964 1.16622V11.8755Z" fill="#6C3DFF"/>
</svg>
