<svg width="12" height="12" viewBox="0 0 12 12" fill="none" xmlns="http://www.w3.org/2000/svg">
<path fill-rule="evenodd" clip-rule="evenodd" d="M1.00024 2.31995C1.00024 2.0438 1.2241 1.81995 1.50024 1.81995H10.5002C10.7764 1.81995 11.0002 2.0438 11.0002 2.31995C11.0002 2.59609 10.7764 2.81995 10.5002 2.81995H1.50024C1.2241 2.81995 1.00024 2.59609 1.00024 2.31995ZM3.00024 4.7771C3.00024 4.50096 3.2241 4.2771 3.50024 4.2771H10.5002C10.7764 4.2771 11.0002 4.50096 11.0002 4.7771C11.0002 5.05324 10.7764 5.2771 10.5002 5.2771H3.50024C3.2241 5.2771 3.00024 5.05324 3.00024 4.7771ZM1.00024 7.23425C1.00024 6.95811 1.2241 6.73425 1.50024 6.73425H10.5002C10.7764 6.73425 11.0002 6.95811 11.0002 7.23425C11.0002 7.5104 10.7764 7.73425 10.5002 7.73425H1.50024C1.2241 7.73425 1.00024 7.5104 1.00024 7.23425ZM3.00024 9.69141C3.00024 9.41526 3.2241 9.19141 3.50024 9.19141H10.5002C10.7764 9.19141 11.0002 9.41526 11.0002 9.69141C11.0002 9.96755 10.7764 10.1914 10.5002 10.1914H3.50024C3.2241 10.1914 3.00024 9.96755 3.00024 9.69141Z" fill="black"/>
</svg>
