<svg width="12" height="12" viewBox="0 0 12 12" fill="none" xmlns="http://www.w3.org/2000/svg">
<path fill-rule="evenodd" clip-rule="evenodd" d="M1.00024 2.31982C1.00024 2.04368 1.2241 1.81982 1.50024 1.81982H10.5005C10.7766 1.81982 11.0005 2.04368 11.0005 2.31982C11.0005 2.59597 10.7766 2.81982 10.5005 2.81982H1.50024C1.2241 2.81982 1.00024 2.59597 1.00024 2.31982ZM2.49896 4.77698C2.49896 4.50084 2.72282 4.27698 2.99896 4.27698H9.01122C9.28737 4.27698 9.51122 4.50084 9.51122 4.77698C9.51122 5.05312 9.28737 5.27698 9.01122 5.27698H2.99896C2.72282 5.27698 2.49896 5.05312 2.49896 4.77698ZM1.00024 7.23413C1.00024 6.95799 1.2241 6.73413 1.50024 6.73413H10.5005C10.7766 6.73413 11.0005 6.95799 11.0005 7.23413C11.0005 7.51027 10.7766 7.73413 10.5005 7.73413H1.50024C1.2241 7.73413 1.00024 7.51027 1.00024 7.23413ZM2.49896 9.69129C2.49896 9.41514 2.72282 9.19129 2.99896 9.19129H9.01122C9.28737 9.19129 9.51122 9.41514 9.51122 9.69129C9.51122 9.96743 9.28737 10.1913 9.01122 10.1913H2.99896C2.72282 10.1913 2.49896 9.96743 2.49896 9.69129Z" fill="black"/>
</svg>
