<svg width="12" height="12" viewBox="0 0 12 12" fill="none" xmlns="http://www.w3.org/2000/svg">
<path d="M6.50024 3C6.50024 2.72386 6.27639 2.5 6.00024 2.5C5.7241 2.5 5.50024 2.72386 5.50024 3V5.13396L3.65225 4.06699C3.41311 3.92892 3.10731 4.01085 2.96923 4.24999C2.83116 4.48914 2.91309 4.79494 3.15224 4.93301L5.00027 6L3.15224 7.06699C2.91309 7.20506 2.83116 7.51086 2.96923 7.75001C3.10731 7.98915 3.41311 8.07108 3.65225 7.93301L5.50024 6.86604V9C5.50024 9.27614 5.7241 9.5 6.00024 9.5C6.27639 9.5 6.50024 9.27614 6.50024 9V6.86604L8.34824 7.93301C8.58738 8.07108 8.89318 7.98915 9.03125 7.75001C9.16933 7.51086 9.08739 7.20506 8.84825 7.06699L7.00022 6L8.84825 4.93301C9.08739 4.79494 9.16933 4.48914 9.03125 4.24999C8.89318 4.01085 8.58738 3.92892 8.34824 4.06699L6.50024 5.13396V3Z" fill="black"/>
</svg>
