<svg width="12" height="12" viewBox="0 0 12 12" fill="none" xmlns="http://www.w3.org/2000/svg">
<g clip-path="url(#clip0_10011_8771)">
<path fill-rule="evenodd" clip-rule="evenodd" d="M3.50025 6C3.50025 4.61928 4.61954 3.5 6.00025 3.5C6.70512 3.5 7.29394 3.83333 7.50025 4C7.50025 3.72385 7.72411 3.5 8.00025 3.5C8.27639 3.5 8.50025 3.72385 8.50025 4V6.5C8.50025 6.76521 8.60561 7.01957 8.79314 7.2071C8.98068 7.39464 9.23503 7.5 9.50025 7.5C9.76547 7.5 10.0198 7.39464 10.2074 7.2071C10.3949 7.01957 10.5003 6.76521 10.5003 6.5V6.00003C10.5002 4.9844 10.1565 3.99863 9.52522 3.20307C8.89389 2.40749 8.012 1.84888 7.02294 1.61806C6.03388 1.38724 4.99582 1.4978 4.07756 1.93174C3.15929 2.36569 2.41483 3.09751 1.96522 4.0082C1.5156 4.9189 1.38728 5.95491 1.60113 6.94778C1.81497 7.94065 2.35839 8.83198 3.14303 9.47685C3.92768 10.1217 4.90739 10.4822 5.92288 10.4996C6.93837 10.5171 7.9299 10.1905 8.73625 9.57303C8.95549 9.40513 9.26932 9.44676 9.43722 9.666C9.60511 9.88523 9.56349 10.1991 9.34425 10.367C8.35871 11.1217 7.14684 11.5208 5.90569 11.4995C4.66454 11.4782 3.46711 11.0376 2.5081 10.2494C1.54909 9.46124 0.884902 8.37183 0.623542 7.15833C0.362181 5.94482 0.519014 4.67858 1.06854 3.56551C1.61807 2.45244 2.52797 1.55799 3.65029 1.02762C4.77261 0.497237 6.04135 0.362117 7.2502 0.644227C8.45905 0.926338 9.53692 1.60909 10.3085 2.58146C11.0802 3.55383 11.5002 4.75863 11.5003 5.99996V6.5C11.5003 7.03043 11.2895 7.53914 10.9145 7.91421C10.5394 8.28928 10.0307 8.5 9.50025 8.5C8.96982 8.5 8.46111 8.28928 8.08604 7.91421C8.00664 7.83482 7.93461 7.74943 7.87039 7.65913C7.41243 8.17496 6.7443 8.5 6.00025 8.5C4.61954 8.5 3.50025 7.38071 3.50025 6ZM4.50025 6C4.50025 5.17157 5.17182 4.5 6.00025 4.5C6.82868 4.5 7.50025 5.17157 7.50025 6C7.50025 6.82842 6.82868 7.5 6.00025 7.5C5.17182 7.5 4.50025 6.82842 4.50025 6Z" fill="black"/>
</g>
<defs>
<clipPath id="clip0_10011_8771">
<rect width="12" height="12" fill="white" transform="translate(0.000244141)"/>
</clipPath>
</defs>
</svg>
