<svg width="12" height="12" viewBox="0 0 12 12" fill="none" xmlns="http://www.w3.org/2000/svg">
<path fill-rule="evenodd" clip-rule="evenodd" d="M1.50024 10C1.50024 9.72386 1.7241 9.5 2.00024 9.5H10.0002C10.2764 9.5 10.5002 9.72386 10.5002 10C10.5002 10.2761 10.2764 10.5 10.0002 10.5H2.00024C1.7241 10.5 1.50024 10.2761 1.50024 10Z" fill="black"/>
<path fill-rule="evenodd" clip-rule="evenodd" d="M6.00024 1.5C6.18963 1.5 6.36276 1.607 6.44746 1.77639L9.44746 7.77639C9.57095 8.02338 9.47084 8.32372 9.22385 8.44721C8.97686 8.57071 8.67653 8.4706 8.55303 8.22361L7.69123 6.5H4.30926L3.44746 8.22361C3.32396 8.4706 3.02363 8.57071 2.77664 8.44721C2.52965 8.32372 2.42954 8.02338 2.55303 7.77639L5.55303 1.77639C5.63773 1.607 5.81086 1.5 6.00024 1.5ZM4.80926 5.5L6.00024 3.11803L7.19123 5.5H4.80926Z" fill="black"/>
</svg>
