<svg width="12" height="12" viewBox="0 0 12 12" fill="none" xmlns="http://www.w3.org/2000/svg">
<path fill-rule="evenodd" clip-rule="evenodd" d="M2.50024 2C2.50024 1.72386 2.7241 1.5 3.00024 1.5H7.00024C7.66329 1.5 8.29917 1.76339 8.76801 2.23223C9.23685 2.70107 9.50024 3.33696 9.50024 4C9.50024 4.66304 9.23685 5.29893 8.76801 5.76777C8.75149 5.78428 8.73477 5.80054 8.71785 5.81655C8.91782 5.92805 9.10323 6.06745 9.26801 6.23223C9.73685 6.70107 10.0002 7.33696 10.0002 8C10.0002 8.66304 9.73685 9.29893 9.26801 9.76777C8.79917 10.2366 8.16329 10.5 7.50024 10.5H3.00024C2.7241 10.5 2.50024 10.2761 2.50024 10V6V2ZM3.50024 5.5V2.5H7.00024C7.39807 2.5 7.7796 2.65804 8.0609 2.93934C8.34221 3.22064 8.50024 3.60218 8.50024 4C8.50024 4.39782 8.34221 4.77936 8.0609 5.06066C7.7796 5.34196 7.39807 5.5 7.00024 5.5H3.50024ZM3.50024 9.5V6.5H7.50024C7.89807 6.5 8.2796 6.65804 8.5609 6.93934C8.84221 7.22064 9.00024 7.60218 9.00024 8C9.00024 8.39782 8.84221 8.77936 8.5609 9.06066C8.2796 9.34196 7.89807 9.5 7.50024 9.5H3.50024Z" fill="black"/>
</svg>
