<svg width="12" height="12" viewBox="0 0 12 12" fill="none" xmlns="http://www.w3.org/2000/svg">
<path fill-rule="evenodd" clip-rule="evenodd" d="M2.5398 2.03955C2.26365 2.03955 2.03979 2.26341 2.03979 2.53955V9.46045C2.03979 9.73659 2.26365 9.96045 2.53979 9.96045H9.46069C9.73684 9.96045 9.96069 9.73659 9.96069 9.46045V6.75C9.96069 6.47386 10.1846 6.25 10.4607 6.25C10.7368 6.25 10.9607 6.47386 10.9607 6.75V9.46045C10.9607 10.2889 10.2891 10.9605 9.46069 10.9605H2.53979C1.71137 10.9605 1.03979 10.2889 1.03979 9.46045V2.53955C1.03979 1.71112 1.71137 1.03955 2.5398 1.03955H2.75024C3.02639 1.03955 3.25024 1.26341 3.25024 1.53955C3.25024 1.81569 3.02639 2.03955 2.75024 2.03955H2.5398ZM6.60364 1.44625C6.7989 1.64151 6.7989 1.9581 6.60364 2.15336L5.2302 3.52679L6.60364 4.90023C6.7989 5.09549 6.7989 5.41208 6.60364 5.60734C6.40837 5.8026 6.09179 5.8026 5.89653 5.60734L4.16954 3.88035C3.97428 3.68509 3.97428 3.3685 4.16954 3.17324L5.89653 1.44625C6.09179 1.25099 6.40837 1.25099 6.60364 1.44625ZM8.38015 1.44625C8.57541 1.25099 8.892 1.25099 9.08726 1.44625L10.8142 3.17324C11.0095 3.3685 11.0095 3.68509 10.8142 3.88035L9.08726 5.60734C8.892 5.8026 8.57541 5.8026 8.38015 5.60734C8.18489 5.41208 8.18489 5.09549 8.38015 4.90023L9.75359 3.52679L8.38015 2.15336C8.18489 1.9581 8.18489 1.64151 8.38015 1.44625Z" fill="black"/>
</svg>
