<svg width="12" height="12" viewBox="0 0 12 12" fill="none" xmlns="http://www.w3.org/2000/svg">
<g clip-path="url(#clip0_10011_8737)">
<path fill-rule="evenodd" clip-rule="evenodd" d="M8.76772 0.731526C8.99996 0.635328 9.24888 0.585815 9.50026 0.585815C9.75163 0.585815 10.0006 0.635328 10.2328 0.731526C10.465 0.827724 10.6761 0.968724 10.8538 1.14648C11.0316 1.32423 11.1726 1.53525 11.2688 1.76749C11.365 1.99974 11.4145 2.24865 11.4145 2.50003C11.4145 2.75141 11.365 3.00032 11.2688 3.23257C11.1726 3.46481 11.0316 3.67583 10.8538 3.85358L4.10381 10.6036C4.04228 10.6651 3.96576 10.7095 3.88181 10.7324L1.13181 11.4824C0.958708 11.5296 0.773577 11.4805 0.646702 11.3536C0.519827 11.2267 0.470663 11.0416 0.517874 10.8685L1.26787 8.11847C1.29077 8.03452 1.33517 7.958 1.3967 7.89648L8.1467 1.14648C8.32445 0.968724 8.53548 0.827724 8.76772 0.731526ZM9.1504 1.65541C9.26132 1.60946 9.3802 1.58582 9.50026 1.58582C9.62031 1.58582 9.73919 1.60946 9.85011 1.65541C9.96103 1.70135 10.0618 1.76869 10.1467 1.85358C10.2316 1.93848 10.2989 2.03926 10.3449 2.15017C10.3908 2.26109 10.4145 2.37997 10.4145 2.50003C10.4145 2.62009 10.3908 2.73897 10.3449 2.84988C10.2989 2.9608 10.2316 3.06158 10.1467 3.14648L4.50026 8.79292L3.20736 7.50003L8.85381 1.85358C8.9387 1.76869 9.03948 1.70135 9.1504 1.65541ZM1.71287 10.2874L2.1977 8.50969L2.50026 8.20714L3.79315 9.50003L3.49059 9.80258L1.71287 10.2874Z" fill="black"/>
</g>
<defs>
<clipPath id="clip0_10011_8737">
<rect width="12" height="12" fill="white" transform="translate(0.000244141)"/>
</clipPath>
</defs>
</svg>
