<svg width="12" height="12" viewBox="0 0 12 12" fill="none" xmlns="http://www.w3.org/2000/svg">
<g clip-path="url(#clip0_10011_8754)">
<path fill-rule="evenodd" clip-rule="evenodd" d="M3.50023 11C3.49223 11 3.48423 10.9998 3.47624 10.9994C3.41916 10.9967 3.36246 10.9842 3.30883 10.962C3.24986 10.9376 3.19461 10.9015 3.14667 10.8535L0.996672 8.70354C0.315645 8.02251 0.284411 6.94724 1.00519 6.28791L5.79667 1.49643C6.4777 0.8154 7.55297 0.784167 8.2123 1.50495L11.0038 4.29643C11.6848 4.97745 11.716 6.05272 10.9953 6.71205L7.70733 9.99998H11.0002C11.2764 9.99998 11.5002 10.2238 11.5002 10.5C11.5002 10.7761 11.2764 11 11.0002 11H6.50072H3.50023ZM1.70378 7.00353C1.69758 7.00973 1.69122 7.01577 1.68471 7.02163C1.41633 7.26317 1.38811 7.68076 1.70378 7.99643L3.70733 9.99998H6.29312L2.50023 6.20709L1.70378 7.00353ZM6.50378 2.20353C6.81945 1.88787 7.23704 1.91608 7.47858 2.18446C7.48444 2.19098 7.49047 2.19734 7.49667 2.20353L10.2967 5.00353C10.6123 5.3192 10.5841 5.73679 10.3157 5.97833C10.3092 5.9842 10.3029 5.99023 10.2967 5.99643L7.00022 9.29287L3.20733 5.49998L6.50378 2.20353Z" fill="black"/>
</g>
<defs>
<clipPath id="clip0_10011_8754">
<rect width="12" height="12" fill="white" transform="translate(0.000244141)"/>
</clipPath>
</defs>
</svg>
