<svg width="12" height="12" viewBox="0 0 12 12" fill="none" xmlns="http://www.w3.org/2000/svg">
<path fill-rule="evenodd" clip-rule="evenodd" d="M1.00024 2.5C1.00024 1.67157 1.67182 1 2.50024 1H9.50024C10.3287 1 11.0002 1.67157 11.0002 2.5V9.5C11.0002 10.3284 10.3287 11 9.50024 11H2.50024C1.67182 11 1.00024 10.3284 1.00024 9.5V2.5ZM2.50024 2C2.2241 2 2.00024 2.22386 2.00024 2.5V9.5C2.00024 9.77614 2.2241 10 2.50024 10H2.79314L7.18974 5.60339C7.47104 5.32219 7.8525 5.16421 8.25024 5.16421C8.64799 5.16421 9.02945 5.32219 9.31074 5.60339L10.0002 6.29289V2.5C10.0002 2.22386 9.77639 2 9.50024 2H2.50024ZM10.0002 9.5C10.0002 9.77614 9.77639 10 9.50024 10H4.20735L7.8968 6.31055C7.99056 6.21685 8.11769 6.16421 8.25024 6.16421C8.3828 6.16421 8.50999 6.2169 8.60374 6.31061L10.0002 7.70711V9.5Z" fill="black"/>
<path fill-rule="evenodd" clip-rule="evenodd" d="M3.00024 4.5C3.00024 3.67157 3.67182 3 4.50024 3C5.32867 3 6.00024 3.67157 6.00024 4.5C6.00024 5.32843 5.32867 6 4.50024 6C3.67182 6 3.00024 5.32843 3.00024 4.5ZM4.00024 4.5C4.00024 4.22386 4.2241 4 4.50024 4C4.77639 4 5.00024 4.22386 5.00024 4.5C5.00024 4.77614 4.77639 5 4.50024 5C4.2241 5 4.00024 4.77614 4.00024 4.5Z" fill="black"/>
</svg>
