<svg width="12" height="12" viewBox="0 0 12 12" fill="none" xmlns="http://www.w3.org/2000/svg">
<path fill-rule="evenodd" clip-rule="evenodd" d="M4.50024 4C4.2241 4 4.00024 4.22386 4.00024 4.5C4.00024 4.77614 4.2241 5 4.50024 5C4.77639 5 5.00024 4.77614 5.00024 4.5C5.00024 4.22386 4.77639 4 4.50024 4ZM3.00024 4.5C3.00024 3.67157 3.67182 3 4.50024 3C5.32867 3 6.00024 3.67157 6.00024 4.5C6.00024 5.32843 5.32867 6 4.50024 6C3.67182 6 3.00024 5.32843 3.00024 4.5Z" fill="black"/>
<path fill-rule="evenodd" clip-rule="evenodd" d="M2.50024 1C1.67182 1 1.00024 1.67157 1.00024 2.5V9.5C1.00024 10.3284 1.67182 11 2.50024 11H9.50024C10.3287 11 11.0002 10.3284 11.0002 9.5V2.5C11.0002 1.67157 10.3287 1 9.50024 1H2.50024ZM2.00024 2.5C2.00024 2.22386 2.2241 2 2.50024 2H9.50024C9.77639 2 10.0002 2.22386 10.0002 2.5V6.29289L9.31074 5.60339C9.02945 5.32219 8.64799 5.16421 8.25024 5.16421C7.8525 5.16421 7.47104 5.32219 7.18974 5.60339L2.79314 10H2.50024C2.2241 10 2.00024 9.77614 2.00024 9.5V2.5ZM3.00024 4.5C3.00024 3.67157 3.67182 3 4.50024 3C5.32867 3 6.00024 3.67157 6.00024 4.5C6.00024 5.32843 5.32867 6 4.50024 6C3.67182 6 3.00024 5.32843 3.00024 4.5ZM9.50024 10C9.77639 10 10.0002 9.77614 10.0002 9.5V7.70711L8.60374 6.31061C8.50999 6.2169 8.3828 6.16421 8.25024 6.16421C8.11769 6.16421 7.99056 6.21685 7.8968 6.31055L4.20735 10H9.50024ZM4.00024 4.5C4.00024 4.22386 4.2241 4 4.50024 4C4.77639 4 5.00024 4.22386 5.00024 4.5C5.00024 4.77614 4.77639 5 4.50024 5C4.2241 5 4.00024 4.77614 4.00024 4.5Z" fill="black"/>
</svg>
