<svg width="12" height="12" viewBox="0 0 12 12" fill="none" xmlns="http://www.w3.org/2000/svg">
<path d="M5.00024 1.49988C4.7241 1.49988 4.50024 1.72374 4.50024 1.99988C4.50024 2.27602 4.7241 2.49988 5.00024 2.49988H6.77874L4.15374 9.49988H2.50024C2.2241 9.49988 2.00024 9.72374 2.00024 9.99988C2.00024 10.276 2.2241 10.4999 2.50024 10.4999H7.00024C7.27639 10.4999 7.50024 10.276 7.50024 9.99988C7.50024 9.72374 7.27639 9.49988 7.00024 9.49988H5.22174L7.84674 2.49988H9.50024C9.77639 2.49988 10.0002 2.27602 10.0002 1.99988C10.0002 1.72374 9.77639 1.49988 9.50024 1.49988H5.00024Z" fill="black"/>
</svg>
