<svg width="12" height="12" viewBox="0 0 12 12" fill="none" xmlns="http://www.w3.org/2000/svg">
<g clip-path="url(#clip0_10011_8712)">
<path fill-rule="evenodd" clip-rule="evenodd" d="M7.00024 3.5C7.00024 3.22386 7.2241 3 7.50024 3H8.50024C9.05738 3 9.60351 3.15514 10.0774 3.44805C10.5514 3.74095 10.9344 4.16004 11.1835 4.65836C11.4327 5.15668 11.5382 5.71453 11.4881 6.26942C11.4381 6.8243 11.2345 7.35429 10.9002 7.8C10.7346 8.02091 10.4212 8.06569 10.2002 7.9C9.97933 7.73431 9.93456 7.42091 10.1002 7.2C10.3231 6.90286 10.4588 6.54953 10.4922 6.17961C10.5255 5.80969 10.4552 5.43779 10.2891 5.10557C10.123 4.77336 9.86766 4.49397 9.55171 4.2987C9.23576 4.10343 8.87167 4 8.50024 4H7.50024C7.2241 4 7.00024 3.77614 7.00024 3.5Z" fill="black"/>
<path d="M2.08603 4.58579C1.71096 4.96086 1.50024 5.46957 1.50024 6C1.50024 6.53043 1.71096 7.03914 2.08603 7.41421C2.4611 7.78929 2.96981 8 3.50024 8H4.50024C4.77639 8 5.00024 8.22386 5.00024 8.5C5.00024 8.77614 4.77639 9 4.50024 9H3.50024C2.70459 9 1.94153 8.68393 1.37892 8.12132C0.816315 7.55871 0.500244 6.79565 0.500244 6C0.500244 5.20435 0.816315 4.44129 1.37892 3.87868C1.69165 3.56595 2.06632 3.32939 2.47409 3.18095L0.646691 1.35355C0.451429 1.15829 0.451429 0.841709 0.646691 0.646447C0.841953 0.451184 1.15854 0.451184 1.3538 0.646447L11.3538 10.6464C11.5491 10.8417 11.5491 11.1583 11.3538 11.3536C11.1585 11.5488 10.842 11.5488 10.6467 11.3536L5.79314 6.5H4.00024C3.7241 6.5 3.50024 6.27614 3.50024 6C3.50024 5.72386 3.7241 5.5 4.00024 5.5H4.79314L3.30289 4.00975C2.84492 4.05515 2.4143 4.25752 2.08603 4.58579Z" fill="black"/>
</g>
<defs>
<clipPath id="clip0_10011_8712">
<rect width="12" height="12" fill="white" transform="translate(0.000244141)"/>
</clipPath>
</defs>
</svg>
