<svg width="12" height="12" viewBox="0 0 12 12" fill="none" xmlns="http://www.w3.org/2000/svg">
<path fill-rule="evenodd" clip-rule="evenodd" d="M1.00021 2C1.00021 1.72386 1.22407 1.5 1.50021 1.5H2.50021C2.77635 1.5 3.00021 1.72386 3.00021 2V4.5H3.50021C3.77635 4.5 4.00021 4.72386 4.00021 5C4.00021 5.27614 3.77635 5.5 3.50021 5.5H1.50021C1.22407 5.5 1.00021 5.27614 1.00021 5C1.00021 4.72386 1.22407 4.5 1.50021 4.5H2.00021V2.5H1.50021C1.22407 2.5 1.00021 2.27614 1.00021 2ZM4.70138 3.5C4.70138 3.22386 4.92524 3 5.20138 3L10.5002 3C10.7764 3 11.0002 3.22386 11.0002 3.5C11.0002 3.77614 10.7764 4 10.5002 4L5.20138 4C4.92524 4 4.70138 3.77614 4.70138 3.5ZM2.50021 7.5C2.27903 7.5 2.09017 7.64395 2.02468 7.8446C1.93901 8.10712 1.65674 8.25047 1.39423 8.1648C1.13171 8.07912 0.988357 7.79686 1.07403 7.53434C1.26981 6.93447 1.83362 6.5 2.50021 6.5C3.32863 6.5 4.00021 7.17157 4.00021 8C4.00021 8.47782 3.74772 8.80286 3.47746 9.01591C3.26781 9.18118 3.00701 9.30857 2.81611 9.40181C2.78304 9.41796 2.75206 9.43309 2.72381 9.44721C2.68797 9.46514 2.65431 9.4827 2.62262 9.5H3.62521C3.90135 9.5 4.12521 9.72386 4.12521 10C4.12521 10.2761 3.90135 10.5 3.62521 10.5H1.50021C1.32692 10.5 1.16599 10.4103 1.07488 10.2629C0.983779 10.1155 0.975497 9.93139 1.05299 9.77639C1.19307 9.49624 1.3467 9.25891 1.5529 9.0527C1.75911 8.84649 1.99644 8.69287 2.2766 8.55279C2.3196 8.53129 2.36055 8.51109 2.39961 8.49182C2.59305 8.39639 2.74003 8.32388 2.85837 8.2306C2.9763 8.13763 3.00021 8.07447 3.00021 8C3.00021 7.72386 2.77635 7.5 2.50021 7.5ZM4.70138 8.5C4.70138 8.22386 4.92524 8 5.20138 8L10.5002 8C10.7764 8 11.0002 8.22386 11.0002 8.5C11.0002 8.77614 10.7764 9 10.5002 9L5.20138 9C4.92524 9 4.70138 8.77614 4.70138 8.5Z" fill="black"/>
</svg>
