<svg width="12" height="12" viewBox="0 0 12 12" fill="none" xmlns="http://www.w3.org/2000/svg">
<path fill-rule="evenodd" clip-rule="evenodd" d="M1.704 4.86474C1.86903 4.78444 2.05438 4.73939 2.25024 4.73939C2.44611 4.73939 2.63146 4.78444 2.79649 4.86474C3.21312 5.06748 3.50024 5.4949 3.50024 5.98938C3.50024 6.49551 3.19944 6.93138 2.76685 7.12797C2.60939 7.19953 2.43447 7.23938 2.25024 7.23938C2.06602 7.23938 1.8911 7.19953 1.73364 7.12797C1.30105 6.93138 1.00024 6.49551 1.00024 5.98938C1.00024 5.4949 1.28737 5.06748 1.704 4.86474ZM4.50024 2.68151C4.50024 2.95766 4.7241 3.18151 5.00024 3.18151H10.5002C10.7764 3.18151 11.0002 2.95766 11.0002 2.68151C11.0002 2.40537 10.7764 2.18152 10.5002 2.18152H5.00024C4.7241 2.18152 4.50024 2.40537 4.50024 2.68151ZM1.704 3.80616C1.28737 3.60342 1.00024 3.176 1.00024 2.68151C1.00024 1.99116 1.55989 1.43152 2.25024 1.43152C2.9406 1.43152 3.50024 1.99116 3.50024 2.68151C3.50024 3.176 3.21312 3.60342 2.79649 3.80616C2.63146 3.88646 2.44611 3.93151 2.25024 3.93151C2.05438 3.93151 1.86903 3.88646 1.704 3.80616ZM4.50024 9.31838C4.50024 9.04223 4.7241 8.81838 5.00024 8.81838H10.5002C10.7764 8.81838 11.0002 9.04223 11.0002 9.31838C11.0002 9.59452 10.7764 9.81838 10.5002 9.81837H5.00024C4.7241 9.81838 4.50024 9.59452 4.50024 9.31838ZM1.73364 8.17979C1.30105 8.37638 1.00024 8.81225 1.00024 9.31838C1.00024 10.0087 1.55989 10.5684 2.25024 10.5684C2.9406 10.5684 3.50024 10.0087 3.50024 9.31838C3.50024 8.81225 3.19944 8.37638 2.76685 8.17979C2.60939 8.10823 2.43447 8.06838 2.25024 8.06838C2.06602 8.06838 1.8911 8.10823 1.73364 8.17979ZM4.50024 5.98938C4.50024 6.26553 4.7241 6.48938 5.00024 6.48938H10.5002C10.7764 6.48938 11.0002 6.26553 11.0002 5.98938C11.0002 5.71324 10.7764 5.48939 10.5002 5.48939H5.00024C4.7241 5.48939 4.50024 5.71324 4.50024 5.98938Z" fill="black"/>
</svg>
