<svg width="12" height="12" viewBox="0 0 12 12" fill="none" xmlns="http://www.w3.org/2000/svg">
<path fill-rule="evenodd" clip-rule="evenodd" d="M6.88137 6.88677C7.07646 6.69133 7.39304 6.69104 7.58848 6.88613L10.3535 9.64613C10.5489 9.84121 10.5492 10.1578 10.3541 10.3532C10.159 10.5487 9.84245 10.549 9.64701 10.3539L6.88201 7.59387C6.68657 7.39879 6.68629 7.08221 6.88137 6.88677Z" fill="black"/>
<path fill-rule="evenodd" clip-rule="evenodd" d="M1.00024 3C1.00024 1.89543 1.89567 1 3.00024 1C4.10481 1 5.00024 1.89543 5.00024 3C5.00024 3.3709 4.89928 3.71823 4.72333 4.01598L6.00024 5.29289L9.64669 1.64645C9.84195 1.45118 10.1585 1.45118 10.3538 1.64645C10.5491 1.84171 10.5491 2.15829 10.3538 2.35355L4.72333 7.98402C4.89928 8.28177 5.00024 8.6291 5.00024 9C5.00024 10.1046 4.10481 11 3.00024 11C1.89567 11 1.00024 10.1046 1.00024 9C1.00024 7.89543 1.89567 7 3.00024 7C3.37115 7 3.71847 7.10096 4.01623 7.27691L5.29314 6L4.01623 4.72309C3.71847 4.89904 3.37115 5 3.00024 5C1.89567 5 1.00024 4.10457 1.00024 3ZM2.00024 3C2.00024 2.44772 2.44796 2 3.00024 2C3.55253 2 4.00024 2.44772 4.00024 3C4.00024 3.55228 3.55253 4 3.00024 4C2.44796 4 2.00024 3.55228 2.00024 3ZM2.00024 9C2.00024 8.44772 2.44796 8 3.00024 8C3.55253 8 4.00024 8.44772 4.00024 9C4.00024 9.55228 3.55253 10 3.00024 10C2.44796 10 2.00024 9.55228 2.00024 9Z" fill="black"/>
</svg>
