<svg width="12" height="12" viewBox="0 0 12 12" fill="none" xmlns="http://www.w3.org/2000/svg">
<path fill-rule="evenodd" clip-rule="evenodd" d="M4.50039 1.5H8.00024C8.27639 1.5 8.50024 1.72386 8.50024 2C8.50024 2.27614 8.27639 2.5 8.00024 2.5H4.50024C4.34022 2.49992 4.18225 2.53824 4.04011 2.61175C3.89796 2.68525 3.77554 2.7918 3.68311 2.92244C3.59069 3.05307 3.53096 3.20398 3.50896 3.36248C3.48695 3.52099 3.50331 3.68246 3.55665 3.83333C3.6487 4.09368 3.51226 4.37936 3.25191 4.4714C2.99156 4.56345 2.70589 4.42702 2.61384 4.16667C2.50716 3.86492 2.47445 3.54198 2.51846 3.22497C2.56247 2.90796 2.68192 2.60614 2.86677 2.34487C3.05162 2.0836 3.29647 1.87051 3.58075 1.72349C3.86496 1.57652 4.18043 1.49987 4.50039 1.5Z" fill="black"/>
<path d="M9.50024 8C9.50024 8.66304 9.23685 9.29893 8.76801 9.76777C8.29917 10.2366 7.66329 10.5 7.00024 10.5H3.00024C2.7241 10.5 2.50024 10.2761 2.50024 10C2.50024 9.72386 2.7241 9.5 3.00024 9.5H7.00024C7.39807 9.5 7.7796 9.34196 8.0609 9.06066C8.34221 8.77936 8.50024 8.39782 8.50024 8C8.50024 7.60218 8.34221 7.22064 8.0609 6.93934C7.7796 6.65804 7.39807 6.5 7.00024 6.5H2.00024C1.7241 6.5 1.50024 6.27614 1.50024 6C1.50024 5.72386 1.7241 5.5 2.00024 5.5H10.0002C10.2764 5.5 10.5002 5.72386 10.5002 6C10.5002 6.27614 10.2764 6.5 10.0002 6.5H9.00026C9.32291 6.9302 9.50024 7.45596 9.50024 8Z" fill="black"/>
</svg>
