<svg width="12" height="12" viewBox="0 0 12 12" fill="none" xmlns="http://www.w3.org/2000/svg">
<path d="M2.00024 1.5C1.7241 1.5 1.50024 1.72386 1.50024 2V3.5C1.50024 3.77614 1.7241 4 2.00024 4C2.27639 4 2.50024 3.77614 2.50024 3.5V2.5H5.50024V9.5H4.50024C4.2241 9.5 4.00024 9.72386 4.00024 10C4.00024 10.2761 4.2241 10.5 4.50024 10.5H6.00024H7.50024C7.77639 10.5 8.00024 10.2761 8.00024 10C8.00024 9.72386 7.77639 9.5 7.50024 9.5H6.50024V2.5H9.50024V3.5C9.50024 3.77614 9.7241 4 10.0002 4C10.2764 4 10.5002 3.77614 10.5002 3.5V2C10.5002 1.72386 10.2764 1.5 10.0002 1.5H2.00024Z" fill="black"/>
</svg>
