<svg width="528" height="215" viewBox="0 0 528 215" fill="none" xmlns="http://www.w3.org/2000/svg">
<path fill-rule="evenodd" clip-rule="evenodd" d="M264.028 87.4753C280.597 87.4753 294.028 74.0439 294.028 57.4753C294.028 40.9068 280.597 27.4753 264.028 27.4753C247.46 27.4753 234.028 40.9068 234.028 57.4753C234.028 74.0439 247.46 87.4753 264.028 87.4753ZM264.028 79.5242C276.179 79.5242 286.028 69.6744 286.028 57.5242C286.028 45.3739 276.179 35.5242 264.028 35.5242C251.878 35.5242 242.028 45.3739 242.028 57.5242C242.028 69.6744 251.878 79.5242 264.028 79.5242Z" fill="var(--dt-color-foreground-tertiary)"/>
<rect x="154.028" y="99.4753" width="220" height="16" rx="6" fill="var(--dt-color-foreground-primary)"/>
<rect x="174.028" y="127.475" width="180" height="8" rx="4" fill="var(--dt-color-foreground-placeholder)"/>
<rect x="174.028" y="143.475" width="130" height="8" rx="4" fill="var(--dt-color-foreground-placeholder)"/>
<rect x="160.23" y="163.475" width="100" height="24" rx="4" fill="var(--dt-color-foreground-placeholder)"/>
<rect x="267.826" y="163.475" width="100" height="24" rx="4" fill="var(--dt-color-brand-purple)"/>
</svg>
